<svg xmlns="http://www.w3.org/2000/svg" width="1306.482" height="214.917" xmlns:v="https://vecta.io/nano"><path d="M0 66.183l9.552.1 22.312-.023c1.324-.01 1.725.383 1.7 1.706l-.027 15.714.44.194 1.038-1.38c5.06-7.53 11.393-13.622 20.166-16.5 16.18-5.293 33.53.124 41.087 20.327 3.69 9.865 4.51 20.11 3.788 30.472-.706 10.12-2.834 19.993-8.03 28.858-7.57 12.916-18.942 19.08-33.945 17.75-8.5-.753-15.784-4.522-21.945-10.416-.678-.72-1.312-1.48-1.9-2.274l-.578.326v45.23h-16.95c-.04-.463-.115-.9-.115-1.356q.05-53.568.082-107.136a49.13 49.13 0 0 0-.637-8.092c-.758-4.543-2.97-6.7-7.487-7.53a54.95 54.95 0 0 0-6.665-.758C.722 71.337.36 70.92.348 69.81A31.84 31.84 0 0 0 0 66.535zm33.54 50.654l.053 25.67a3.52 3.52 0 0 0 1.206 2.454c6.373 4.727 13.307 8.306 21.277 9.37 6.175.826 11.867-.338 16.542-4.812 3.7-3.538 5.79-7.995 7.12-12.823a81.09 81.09 0 0 0 1.267-36.587c-1.153-6.3-3.135-12.32-6.87-17.635-5.03-7.16-11.88-9.788-20.187-7.436-8.377 2.374-14.847 7.52-19.9 14.5a3.91 3.91 0 0 0-.483 2.158l-.026 25.14z" fill="#0065ff"/><path d="M497.022 27.9v-5.242h33.526V83.65c2.347-2.816 4.348-5.573 6.7-7.983 10.5-10.74 23.153-14.162 37.553-10.126 9.147 2.564 15.034 9.193 19.253 17.407a55.17 55.17 0 0 1 5.583 21.938c.74 11.4-.174 22.64-4.507 33.36-3.534 8.746-8.852 16.148-17.16 20.956-13.494 7.808-31.5 5.868-43.413-4.52-1.154-1-2.2-2.13-3.362-3.14a2.21 2.21 0 0 0-1.356-.563c-.2 0-.468.725-.554 1.153l-1.824 9.367c-.1.484-.662 1.238-1.023 1.244-4.354.086-8.7.057-13.3.057v-2.057q0-58-.038-116.014a108.76 108.76 0 0 0-.836-11.069c-.13-2.042-1.675-3.712-3.7-4-3.17-.6-6.37-1.067-9.563-1.572-.62-.098-1.27-.122-1.98-.188zm33.575 89.1l.033 25.677a2.68 2.68 0 0 0 .776 1.924c6.263 4.562 13.03 8.134 20.772 9.336 12.553 1.95 21.6-2.887 25.965-15.026a61.29 61.29 0 0 0 3.147-19.1c.263-8.863-.08-17.686-2.418-26.313-1.4-5.13-3.467-9.94-7.512-13.574-5.576-5-12.235-5.663-19.253-4.328-8.405 1.6-14.778 6.457-20.233 12.78-.9 1-1.37 2.313-1.3 3.656l.032 24.97zm160.51 38.508l.15 1.916c.362 4.568.387 4.7-4.145 5.6a33.25 33.25 0 0 1-8.227.764c-7.135-.4-11.216-4.813-13.533-11.2-.442-1.212-.76-2.468-1.194-3.9-1.883 1.647-3.63 3.263-5.465 4.763-5.92 4.835-12.4 8.565-20.03 10-12.357 2.307-24.853-3.213-30.446-13.475-7.15-13.347-2.353-29.96 10.812-37.44a50.75 50.75 0 0 1 20.666-6.254c6.083-.628 12.218-.743 18.333-1.075.7-.038 1.384-.005 2.3-.005-.246-8.062.757-15.988-1.723-23.684-2.305-7.153-7.8-11.154-15.33-10.807a34.8 34.8 0 0 0-8.792 1.49c-6.516 2.065-9.724 6.88-10.264 13.586l-.244 3.6h-11.8V87.17l.042-13.8c.022-.693.36-1.34.916-1.753 12.1-5.232 24.636-8.436 37.956-7.484a33.41 33.41 0 0 1 14.84 4.177c6.66 3.914 9.955 10.016 11.033 17.43a64.82 64.82 0 0 1 .618 8.983l.082 41.08a84.53 84.53 0 0 0 1.21 13.5c.748 4.32 3.238 6.468 7.062 6.75a29.4 29.4 0 0 0 5.182-.532zm-30.8-45c-8.258-.042-16.22.238-23.683 3.743-9.3 4.37-13.582 11.462-13.2 21.73a18.61 18.61 0 0 0 21.3 17.531c5.3-.84 9.9-3.3 14.385-6.07.828-.445 1.305-1.347 1.206-2.282l-.02-34.647zm254.467-21.073h-11.617l-.135-1.393.036-14.7a2.26 2.26 0 0 1 .908-1.75c12.107-5.24 24.645-8.5 37.956-7.422a43.04 43.04 0 0 1 10.506 2.2c9.233 3.2 13.98 10.178 15.368 19.613a49.61 49.61 0 0 1 .423 7.047l.073 43.57c.03 4.124.446 8.236 1.246 12.28 1.23 6.05 4.73 8.065 10.748 6.813.454-.1.912-.177 1.57-.3.175 1.94.383 3.784.473 5.635a1.27 1.27 0 0 1-.7.975c-4.7 1.528-9.474 2.568-14.425 1.47-5.38-1.193-8.627-4.818-10.62-9.726-.64-1.576-1.084-3.232-1.68-5.04-1.8 1.572-3.494 3.152-5.287 4.625-5.954 4.895-12.43 8.892-20.18 10.07-11.968 1.82-22.117-1.452-29.324-11.64-7.264-10.27-6.92-30 10.275-39.568a51.23 51.23 0 0 1 20.058-5.908c6.205-.624 12.46-.744 18.692-1.078.52-.03 1.04-.005 1.47-.005.158-.233.277-.327.275-.42-.122-6.127.078-12.286-.48-18.375-.546-5.94-2.786-11.32-8.623-14.137-5.033-2.43-10.347-2.284-15.495-.483-8.87 3.1-10.856 7.5-11.5 16.43-.03.334-.008.68-.008 1.214zm36.08 21.075c-7.505-.05-14.847.17-21.806 3.02-9.43 3.864-14.788 10.506-14.908 21.146-.128 11.456 10.182 20.7 21.464 18.83 5.17-.857 9.67-3.25 14.078-5.915a2.44 2.44 0 0 0 1.286-2.433l-.03-32.743c0-.574-.05-1.147-.084-1.906zm-98.093-5.4c-.348-8.014.9-16.015-1.735-23.763-2.425-7.127-7.754-10.75-15.27-10.73a24.42 24.42 0 0 0-11.38 2.69c-4.5 2.313-6.722 6.1-7.436 10.93-.248 1.676-.36 3.372-.546 5.16h-11.413c-.083-.377-.137-.76-.164-1.145l.04-15.055c.064-.7.447-1.3 1.034-1.675 9.254-4.013 18.83-6.867 28.96-7.432a51.93 51.93 0 0 1 16.5 1.326c10.826 2.906 17.4 10.655 18.348 21.834.22 2.64.322 5.295.332 7.942l.154 45.7a39.63 39.63 0 0 0 1.027 8.044c1.242 5.7 4.58 7.83 10.33 6.864.577-.1 1.15-.233 2.06-.42l.55 6.37c-5.807 1.9-11.592 3.358-17.5.983-6.186-2.483-8.377-8.02-9.943-13.952-2.72 2.26-5.25 4.532-7.957 6.577-6.177 4.665-12.977 7.92-20.83 8.5-15.68 1.134-27.814-8.87-29.963-21.767-2.158-12.964 3.28-24.9 16.656-31.16a59.57 59.57 0 0 1 20.51-5c5.337-.447 10.7-.485 16.066-.708l1.57-.1zm-.035 5.4c-8 0-15.747.2-23.023 3.486-9.017 4.07-13.9 10.83-13.835 21.018a18.68 18.68 0 0 0 21.45 18.489c5.118-.8 9.575-3.177 13.933-5.82a2.7 2.7 0 0 0 1.506-2.658l-.03-32.6z" fill="#253858"/><path d="M154.014 163.478c-22.52.2-39.71-13.828-44.44-36.276-3.248-15.43-1.525-30.2 7.11-43.648 7.373-11.48 18.173-17.675 31.722-19.087 10.182-1.064 19.907.413 28.8 5.675 10.96 6.482 17.4 16.373 20.493 28.5 3.9 15.31 2.453 30.108-5.553 43.877-6.99 12.017-17.623 18.863-31.44 20.686a18.84 18.84 0 0 1-1.923.261c-1.586.034-3.178.012-4.77.012zm27.9-51.476c-.253-2.408-.517-6.71-1.2-10.945-1.323-8.352-3.988-16.22-9.266-23.008-7.863-10.11-20.726-12.042-30.516-4.5-4.478 3.618-7.895 8.38-9.892 13.778-5.53 13.685-6.268 27.807-3.41 42.17 1.572 7.9 4.447 15.244 9.8 21.453 7.176 8.34 18.812 10.256 27.795 4.495 4.377-2.952 7.88-7.028 10.138-11.8 4.78-9.335 6.312-19.398 6.546-31.646z" fill="#0065ff"/><path d="M727.242 155.22h62.545v6.455h-83.315c-.05-2.843-.2-5.363 1.7-8q29.236-40.378 58.182-80.968l.835-1.236h-2.16c-11.984.007-23.965-.018-35.946.043-2.4.012-4.807.353-7.2.535-1.617.027-2.948 1.28-3.072 2.892a43.22 43.22 0 0 0-.418 5.274c-.067 2.166-.017 4.336-.017 6.6h-9.378V66.16h78.356c.3 2.986.036 5.5-1.865 8.117q-28.727 39.652-57.164 79.516c-.267.374-.553.736-1.072 1.427zm261.246-84.17V66.2h33.567v17.3c8.8-13.458 20.077-21.66 37.107-18.894v26.282h-9.48c-.34-2.618-.587-5.3-1.053-7.94-.748-4.244-1.418-4.786-5.734-4.707-7.823.148-13.528 4.13-18.22 10.048a11.73 11.73 0 0 0-2.654 7.907l.1 42.495c.017 3.524.357 7.052.645 10.57.267 3.27 2.007 5.394 5.314 5.892 3.076.46 6.184.73 9.28 1.055 1.038.1 2.087.124 3.186.187v5.317h-52.133a40.09 40.09 0 0 1 .071-4.556c.04-.363.937-.823 1.492-.905 2.906-.435 5.84-.7 8.747-1.143 3.24-.5 5.192-2.35 5.444-5.724.248-3.3.616-6.583.63-9.874q.094-25.585-.01-51.17c-.02-3.64-.464-7.283-.84-10.9a4.58 4.58 0 0 0-3.858-4.29c-3.782-.763-7.606-1.372-11.6-2.078z" fill="#253858"/><path d="M198.55 27.52v-4.684l1.822-.1 29.2-.046c1.73-.015 2.023.6 2.025 2.14q.026 31.953.154 63.9.1 35.052.2 70.1c.006 2.614 0 2.616-2.6 2.618h-15.74l-.1-1.826.24-38.593.374-27.6.5-51.675a30.95 30.95 0 0 0-.735-6.482c-.517-3.2-2.994-5.728-6.184-6.3-2.975-.638-6.02-.964-9.176-1.45zm283.452 38.772c-1.925 3.673-3.9 7.075-5.543 10.64q-14.262 31.162-28.383 62.4l-20.6 45.378c-2.528 5.5-6.117 10.037-12.668 10.9-2.52.304-5.057.437-7.594.4-5.016-.023-10.03-.18-15.045-.3-1.052-.027-2.1-.168-3.12-.252-.658-2.76-.46-3.1 2.1-3a271.79 271.79 0 0 1 9.891.5c5.3.476 10.653-.466 15.48-2.73 3.012-1.306 5.44-3.67 6.827-6.646 1.944-4.474 3.576-9.082 5.35-13.63.876-2.248 1.653-4.547 2.7-6.7a3.42 3.42 0 0 0 .042-3.139q-14.9-35.6-29.75-71.23c-1.292-3.1-2.454-6.255-3.9-9.28-2.18-4.58-5.557-7.7-10.884-8.24-.363-.036-.674-.7-.987-1.1-.06-.073-.013-.23-.01-.348.063-4.392-.54-3.554 3.48-3.58l26.456-.015c0 2.16.118 4.15-.025 6.123a23.55 23.55 0 0 0 2.183 10.977q11.66 27.765 23.233 55.57c.22.52.473 1.027.8 1.758a7.19 7.19 0 0 0 .708-.99l23.647-53.67c2.52-5.88 4.2-12.116 6.182-18.222a1.91 1.91 0 0 1 .79-1.265 1.9 1.9 0 0 1 1.46-.307c2.35.102 4.7.032 7.17.032zm-105.798 85.064l-.042 5.88c-.063.58-.392 1.098-.9 1.4-13.147 4.934-26.6 7.056-40.32 2.927-14.147-4.253-23.512-13.918-28.494-27.6-6.354-17.47-5.422-34.58 4.6-50.537 7.237-11.518 18.167-17.482 31.6-18.938 11.042-1.2 21.7 1.2 32.338 3.585.935.2 1.2.723 1.2 1.62q-.037 9.828 0 19.655c.007 1.15-.414 1.56-1.56 1.527-2.36-.065-4.723-.1-7.08.01-1.374.056-1.78-.376-1.9-1.78-.155-2.585-.546-5.15-1.168-7.665-2.476-9.208-8.63-12.463-17.838-11.948-10.207.57-16.776 6.413-21.163 15.148a52.99 52.99 0 0 0-5.025 19.36 71.81 71.81 0 0 0 3.278 29.118c3.906 11.876 11.7 19.594 24.223 21.92 8.934 1.658 17.6.313 26.02-2.85l2.2-.833zM255.206 71.25v-4.83h33l.83 94.9h-18.253v-4.314q.2-20.27.387-40.543L271.403 86a33.96 33.96 0 0 0-.6-6.32c-.866-4.6-3.1-6.7-7.68-7.558a53.98 53.98 0 0 0-3.843-.565c-1.286-.143-2.575-.205-4.073-.32zM288.2 31.694V48.24h-16.615V31.694zm1002.782 78.963a104.26 104.26 0 0 1-177.98 73.724c-29.817-29.818-38.738-74.662-22.6-113.62s54.155-64.36 96.324-64.36c57.58.001 104.257 46.678 104.258 104.257z" fill="#0065ff"/><path d="M1149.212 137.188l7.055-1.888a18.8 18.8 0 0 1-1.154 13.157 17.71 17.71 0 0 1-9.495 8.491q-8.253 3.4-15.487.07-7.234-3.33-11.38-13.4a30.27 30.27 0 0 1-2.534-12.28 16.28 16.28 0 0 1 3.551-10.027 21.09 21.09 0 0 1 8.588-6.393q6.547-2.7 12.075-1.1a16.43 16.43 0 0 1 9.208 7.207l-6.2 3.75c-1.393-2.163-3.45-3.816-5.86-4.713a9.37 9.37 0 0 0-6.652.347c-3.244 1.22-5.76 3.843-6.844 7.135q-1.7 5.015 1.594 13 3.332 8.1 7.948 10.5a10.92 10.92 0 0 0 9.61.336 10.33 10.33 0 0 0 5.685-5.218q1.677-3.56.292-8.965zm7.77-9.488q-4.593-11.16-.6-19.094c2.282-4.447 6.13-7.892 10.8-9.672a19.5 19.5 0 0 1 15.785-.148q7.5 3.266 11.44 12.84 3.2 7.758 2.7 13.164c-.3 3.554-1.68 6.933-3.93 9.7a21.41 21.41 0 0 1-8.695 6.456q-8.44 3.475-15.87.206-7.43-3.27-11.627-13.45zm7-2.882q3.18 7.722 8.13 10.175a12.13 12.13 0 0 0 16.91-6.987q1.78-5.246-1.478-13.156-3.07-7.455-8.04-9.9c-3.134-1.56-6.8-1.693-10.027-.363s-5.746 3.993-6.88 7.305q-1.787 5.2 1.392 12.924zm46.923 4.182l-16.55-40.192 6.094-2.5 2.323 5.64a15.45 15.45 0 0 1 3.077-6.822 15.27 15.27 0 0 1 6.411-4.744 14.32 14.32 0 0 1 8.087-1.163 10.75 10.75 0 0 1 6.166 3.526q1.874-9 9.514-12.152 5.98-2.46 10.56-.475 4.58 1.986 7.42 8.875l11.36 27.6-6.774 2.8-10.426-25.32a20.19 20.19 0 0 0-3.087-5.612 6.17 6.17 0 0 0-3.6-1.9 8.1 8.1 0 0 0-4.538.586c-2.668 1.008-4.798 3.08-5.88 5.718q-1.638 3.975.918 10.18l9.616 23.35-6.813 2.8-10.755-26.113q-1.867-4.54-4.468-6.125-2.6-1.586-6.385-.028c-1.886.763-3.516 2.046-4.7 3.7a9.29 9.29 0 0 0-1.714 5.887 26.93 26.93 0 0 0 2.362 8.852l8.587 20.853z" fill="#fff"/><path d="M1285 7.322a24.4 24.4 0 0 1 4.5-.38c2.5 0 4.13.46 5.265 1.486a4.53 4.53 0 0 1 1.431 3.456 4.78 4.78 0 0 1-3.429 4.644v.08c1.4.486 2.24 1.782 2.673 3.672a28.95 28.95 0 0 0 1.4 5h-2.43a23.57 23.57 0 0 1-1.215-4.347c-.54-2.512-1.512-3.457-3.645-3.538h-2.215v7.885h-2.35zm2.35 8.3h2.4c2.5 0 4.1-1.377 4.1-3.456 0-2.35-1.7-3.376-4.185-3.4a9.7 9.7 0 0 0-2.323.215zM1290.482 32c-8.837 0-16-7.163-16-16s7.163-16 16-16 16 7.163 16 16c-.01 8.832-7.168 16-16 16zm0-30c-7.732 0-14 6.268-14 14s6.268 14 14 14 14-6.268 14-14a14.02 14.02 0 0 0-14-14z"/></svg>