<svg width="293" height="129" viewBox="0 0 293 129" fill="none" xmlns="http://www.w3.org/2000/svg">
<path d="M200.549 66.658C208.535 66.658 215.009 60.1095 215.009 52.0316C215.009 43.9537 208.535 37.4052 200.549 37.4052C192.562 37.4052 186.088 43.9537 186.088 52.0316C186.088 60.1095 192.562 66.658 200.549 66.658Z" stroke="#202020" stroke-width="3" stroke-linecap="round" stroke-linejoin="round"/>
<path d="M90.792 66.658C98.7782 66.658 105.252 60.1095 105.252 52.0316C105.252 43.9537 98.7782 37.4052 90.792 37.4052C82.8058 37.4052 76.3317 43.9537 76.3317 52.0316C76.3317 60.1095 82.8058 66.658 90.792 66.658Z" stroke="#202020" stroke-width="3" stroke-linecap="round" stroke-linejoin="round"/>
<path d="M76.3318 54.9089H66.6125C65.6643 54.9089 64.9531 54.1896 64.9531 53.2305V41.0018C64.9531 35.2472 66.3755 29.9721 73.7242 26.3754C81.784 22.539 96.7185 19.6617 106.438 19.6617C122.32 19.6617 191.303 19.6617 191.303 19.6617L200.549 11.0297C200.549 11.0297 207.66 13.1877 212.164 16.7844L232.314 20.1412C232.314 20.1412 232.314 33.8085 232.314 40.0427C232.314 46.2769 232.077 48.1952 227.336 50.8327C222.595 53.4702 214.772 54.6691 214.772 54.6691" stroke="#202020" stroke-width="3" stroke-linecap="round" stroke-linejoin="round"/>
<path d="M103.593 19.6617C103.593 19.6617 127.773 2.39777 157.405 2.39777C182.295 2.39777 200.311 11.0297 200.311 11.0297" stroke="#202020" stroke-width="3" stroke-linecap="round" stroke-linejoin="round"/>
<path d="M157.405 2.39777V54.9089" stroke="#202020" stroke-width="3" stroke-linecap="round" stroke-linejoin="round"/>
<path d="M145.552 28.5335H133.936" stroke="#202020" stroke-width="3" stroke-linecap="round" stroke-linejoin="round"/>
<path d="M220.698 28.5335H232.314" stroke="#202020" stroke-width="3" stroke-linecap="round" stroke-linejoin="round"/>
<path d="M105.253 54.9089H186.088" stroke="#202020" stroke-width="3" stroke-linecap="round" stroke-linejoin="round"/>
<path d="M261.472 40.5223C279.725 47.7156 290.392 56.8272 290.392 66.658C290.392 87.2788 242.27 104.543 177.791 108.859" stroke="#212121" stroke-width="3" stroke-miterlimit="10"/>
<path d="M146.5 109.818C66.8495 109.818 2.37048 90.6357 2.37048 66.658C2.37048 53.9498 20.6237 42.4405 49.5444 34.5279" stroke="#212121" stroke-width="3" stroke-miterlimit="10"/>
<path d="M132.514 92.0744L148.634 109.818L132.514 127.322" stroke="#212121" stroke-width="3" stroke-miterlimit="10"/>
</svg>
