<svg xmlns="http://www.w3.org/2000/svg" width="120" height="120" fill="none" viewBox="0 0 120 120">
    <path stroke="#D6D6D6" stroke-miterlimit="10" stroke-width="3" d="M84.7 52.105H30.75c-10.4 0-19.5-8.552-19.5-19.737 0-10.526 8.45-19.736 19.5-19.736H84.7c10.4 0 19.5 8.552 19.5 19.736 0 11.185-9.1 19.737-19.5 19.737z"/>
    <path stroke="#D6D6D6" stroke-miterlimit="10" stroke-width="3" d="M58.7 90.921H30.75c-10.4 0-19.5-8.553-19.5-19.737 0-10.526 8.45-19.737 19.5-19.737H84.7"/>
    <path stroke="#565656" stroke-miterlimit="10" stroke-width="3" d="M54.15 33.026H83.4M54.15 70.526h9.75M90.27 87.07v9.715"/>
    <path stroke="#212121" stroke-miterlimit="10" stroke-width="3" d="M29.45 70.526h7.15"/>
    <path stroke="#565656" stroke-miterlimit="10" stroke-width="3" d="M29.45 33.026h7.15M104.2 106.711H76.25c-2.6 0-4.55-1.974-4.55-4.606V81.053c0-2.632 1.95-4.606 4.55-4.606h27.95c2.6 0 4.55 1.974 4.55 4.606v21.052c0 1.974-1.95 4.606-4.55 4.606zM89.9 58.026c-6.5 0-12.35 5.263-12.35 12.5v5.263h24.05v-5.263c0-7.237-5.2-12.5-11.7-12.5z"/>
</svg>
