<svg width="514" height="488" viewBox="0 0 514 488" fill="none" xmlns="http://www.w3.org/2000/svg">
<rect width="372" height="488" transform="translate(142)" fill="white"/>
<path d="M181.88 284.5L189.44 267.7H192.512L200.096 284.5H196.832L190.328 269.356H191.576L185.096 284.5H181.88ZM185.36 280.612L186.2 278.164H195.272L196.112 280.612H185.36ZM207.707 284.668C206.363 284.668 205.163 284.388 204.107 283.828C203.067 283.252 202.251 282.468 201.659 281.476C201.067 280.484 200.771 279.356 200.771 278.092C200.771 276.812 201.067 275.684 201.659 274.708C202.251 273.716 203.067 272.94 204.107 272.38C205.163 271.82 206.363 271.54 207.707 271.54C208.955 271.54 210.051 271.796 210.995 272.308C211.955 272.804 212.683 273.54 213.179 274.516L210.875 275.86C210.491 275.252 210.019 274.804 209.459 274.516C208.915 274.228 208.323 274.084 207.683 274.084C206.947 274.084 206.283 274.244 205.691 274.564C205.099 274.884 204.635 275.348 204.299 275.956C203.963 276.548 203.795 277.26 203.795 278.092C203.795 278.924 203.963 279.644 204.299 280.252C204.635 280.844 205.099 281.3 205.691 281.62C206.283 281.94 206.947 282.1 207.683 282.1C208.323 282.1 208.915 281.956 209.459 281.668C210.019 281.38 210.491 280.932 210.875 280.324L213.179 281.668C212.683 282.628 211.955 283.372 210.995 283.9C210.051 284.412 208.955 284.668 207.707 284.668ZM221.465 284.668C220.121 284.668 218.921 284.388 217.865 283.828C216.825 283.252 216.009 282.468 215.417 281.476C214.825 280.484 214.529 279.356 214.529 278.092C214.529 276.812 214.825 275.684 215.417 274.708C216.009 273.716 216.825 272.94 217.865 272.38C218.921 271.82 220.121 271.54 221.465 271.54C222.713 271.54 223.809 271.796 224.753 272.308C225.713 272.804 226.441 273.54 226.937 274.516L224.633 275.86C224.249 275.252 223.777 274.804 223.217 274.516C222.673 274.228 222.081 274.084 221.441 274.084C220.705 274.084 220.041 274.244 219.449 274.564C218.857 274.884 218.393 275.348 218.057 275.956C217.721 276.548 217.553 277.26 217.553 278.092C217.553 278.924 217.721 279.644 218.057 280.252C218.393 280.844 218.857 281.3 219.449 281.62C220.041 281.94 220.705 282.1 221.441 282.1C222.081 282.1 222.673 281.956 223.217 281.668C223.777 281.38 224.249 280.932 224.633 280.324L226.937 281.668C226.441 282.628 225.713 283.372 224.753 283.9C223.809 284.412 222.713 284.668 221.465 284.668ZM234.955 284.668C233.867 284.668 232.907 284.468 232.075 284.068C231.243 283.652 230.595 283.028 230.131 282.196C229.667 281.348 229.435 280.284 229.435 279.004V271.684H232.435V278.596C232.435 279.748 232.691 280.612 233.203 281.188C233.731 281.748 234.475 282.028 235.435 282.028C236.139 282.028 236.747 281.884 237.259 281.596C237.787 281.308 238.195 280.876 238.483 280.3C238.787 279.724 238.939 279.012 238.939 278.164V271.684H241.939V284.5H239.083V281.044L239.587 282.1C239.155 282.932 238.523 283.572 237.691 284.02C236.859 284.452 235.947 284.668 234.955 284.668ZM245.866 284.5V271.684H248.722V275.212L248.386 274.18C248.77 273.316 249.37 272.66 250.186 272.212C251.018 271.764 252.05 271.54 253.282 271.54V274.396C253.154 274.364 253.034 274.348 252.922 274.348C252.81 274.332 252.698 274.324 252.586 274.324C251.45 274.324 250.546 274.66 249.874 275.332C249.202 275.988 248.866 276.972 248.866 278.284V284.5H245.866ZM262.809 284.5V281.908L262.641 281.356V276.82C262.641 275.94 262.377 275.26 261.849 274.78C261.321 274.284 260.521 274.036 259.449 274.036C258.729 274.036 258.017 274.148 257.313 274.372C256.625 274.596 256.041 274.908 255.561 275.308L254.385 273.124C255.073 272.596 255.889 272.204 256.833 271.948C257.793 271.676 258.785 271.54 259.809 271.54C261.665 271.54 263.097 271.988 264.105 272.884C265.129 273.764 265.641 275.132 265.641 276.988V284.5H262.809ZM258.777 284.668C257.817 284.668 256.977 284.508 256.257 284.188C255.537 283.852 254.977 283.396 254.577 282.82C254.193 282.228 254.001 281.564 254.001 280.828C254.001 280.108 254.169 279.46 254.505 278.884C254.857 278.308 255.425 277.852 256.209 277.516C256.993 277.18 258.033 277.012 259.329 277.012H263.049V279.004H259.545C258.521 279.004 257.833 279.172 257.481 279.508C257.129 279.828 256.953 280.228 256.953 280.708C256.953 281.252 257.169 281.684 257.601 282.004C258.033 282.324 258.633 282.484 259.401 282.484C260.137 282.484 260.793 282.316 261.369 281.98C261.961 281.644 262.385 281.148 262.641 280.492L263.145 282.292C262.857 283.044 262.337 283.628 261.585 284.044C260.849 284.46 259.913 284.668 258.777 284.668ZM274.315 284.668C272.907 284.668 271.819 284.308 271.051 283.588C270.283 282.852 269.899 281.772 269.899 280.348V268.852H272.899V280.276C272.899 280.884 273.051 281.356 273.355 281.692C273.675 282.028 274.115 282.196 274.675 282.196C275.347 282.196 275.907 282.02 276.355 281.668L277.195 283.804C276.843 284.092 276.411 284.308 275.899 284.452C275.387 284.596 274.859 284.668 274.315 284.668ZM267.787 274.18V271.78H276.331V274.18H267.787ZM285.265 284.668C283.841 284.668 282.593 284.388 281.521 283.828C280.465 283.252 279.641 282.468 279.049 281.476C278.473 280.484 278.185 279.356 278.185 278.092C278.185 276.812 278.465 275.684 279.025 274.708C279.601 273.716 280.385 272.94 281.377 272.38C282.385 271.82 283.529 271.54 284.809 271.54C286.057 271.54 287.169 271.812 288.145 272.356C289.121 272.9 289.889 273.668 290.449 274.66C291.009 275.652 291.289 276.82 291.289 278.164C291.289 278.292 291.281 278.436 291.265 278.596C291.265 278.756 291.257 278.908 291.241 279.052H280.561V277.06H289.657L288.481 277.684C288.497 276.948 288.345 276.3 288.025 275.74C287.705 275.18 287.265 274.74 286.705 274.42C286.161 274.1 285.529 273.94 284.809 273.94C284.073 273.94 283.425 274.1 282.865 274.42C282.321 274.74 281.889 275.188 281.569 275.764C281.265 276.324 281.113 276.988 281.113 277.756V278.236C281.113 279.004 281.289 279.684 281.641 280.276C281.993 280.868 282.489 281.324 283.129 281.644C283.769 281.964 284.505 282.124 285.337 282.124C286.057 282.124 286.705 282.012 287.281 281.788C287.857 281.564 288.369 281.212 288.817 280.732L290.425 282.58C289.849 283.252 289.121 283.772 288.241 284.14C287.377 284.492 286.385 284.668 285.265 284.668ZM300.804 284.5V271.684H303.804V284.5H300.804ZM302.316 269.572C301.756 269.572 301.292 269.396 300.924 269.044C300.572 268.692 300.396 268.268 300.396 267.772C300.396 267.26 300.572 266.836 300.924 266.5C301.292 266.148 301.756 265.972 302.316 265.972C302.876 265.972 303.332 266.14 303.684 266.476C304.052 266.796 304.236 267.204 304.236 267.7C304.236 268.228 304.06 268.676 303.708 269.044C303.356 269.396 302.892 269.572 302.316 269.572ZM315.013 271.54C316.037 271.54 316.949 271.74 317.749 272.14C318.565 272.54 319.205 273.156 319.669 273.988C320.133 274.804 320.365 275.86 320.365 277.156V284.5H317.365V277.54C317.365 276.404 317.093 275.556 316.549 274.996C316.021 274.436 315.277 274.156 314.317 274.156C313.613 274.156 312.989 274.3 312.445 274.588C311.901 274.876 311.477 275.308 311.173 275.884C310.885 276.444 310.741 277.156 310.741 278.02V284.5H307.741V271.684H310.597V275.14L310.093 274.084C310.541 273.268 311.189 272.644 312.037 272.212C312.901 271.764 313.893 271.54 315.013 271.54ZM328.131 284.668C327.059 284.668 326.027 284.532 325.035 284.26C324.059 283.972 323.283 283.628 322.707 283.228L323.859 280.948C324.435 281.316 325.123 281.62 325.923 281.86C326.723 282.1 327.523 282.22 328.323 282.22C329.267 282.22 329.947 282.092 330.363 281.836C330.795 281.58 331.011 281.236 331.011 280.804C331.011 280.452 330.867 280.188 330.579 280.012C330.291 279.82 329.915 279.676 329.451 279.58C328.987 279.484 328.467 279.396 327.891 279.316C327.331 279.236 326.763 279.132 326.187 279.004C325.627 278.86 325.115 278.66 324.651 278.404C324.187 278.132 323.811 277.772 323.523 277.324C323.235 276.876 323.091 276.284 323.091 275.548C323.091 274.732 323.323 274.028 323.787 273.436C324.251 272.828 324.899 272.364 325.731 272.044C326.579 271.708 327.579 271.54 328.731 271.54C329.595 271.54 330.467 271.636 331.347 271.828C332.227 272.02 332.955 272.292 333.531 272.644L332.379 274.924C331.771 274.556 331.155 274.308 330.531 274.18C329.923 274.036 329.315 273.964 328.707 273.964C327.795 273.964 327.115 274.1 326.667 274.372C326.235 274.644 326.019 274.988 326.019 275.404C326.019 275.788 326.163 276.076 326.451 276.268C326.739 276.46 327.115 276.612 327.579 276.724C328.043 276.836 328.555 276.932 329.115 277.012C329.691 277.076 330.259 277.18 330.819 277.324C331.379 277.468 331.891 277.668 332.355 277.924C332.835 278.164 333.219 278.508 333.507 278.956C333.795 279.404 333.939 279.988 333.939 280.708C333.939 281.508 333.699 282.204 333.219 282.796C332.755 283.388 332.091 283.852 331.227 284.188C330.363 284.508 329.331 284.668 328.131 284.668ZM343.627 284.668C342.587 284.668 341.635 284.428 340.771 283.948C339.923 283.468 339.243 282.748 338.731 281.788C338.235 280.812 337.987 279.58 337.987 278.092C337.987 276.588 338.227 275.356 338.707 274.396C339.203 273.436 339.875 272.724 340.723 272.26C341.571 271.78 342.539 271.54 343.627 271.54C344.891 271.54 346.003 271.812 346.963 272.356C347.939 272.9 348.707 273.66 349.267 274.636C349.843 275.612 350.131 276.764 350.131 278.092C350.131 279.42 349.843 280.58 349.267 281.572C348.707 282.548 347.939 283.308 346.963 283.852C346.003 284.396 344.891 284.668 343.627 284.668ZM336.523 289.156V271.684H339.379V274.708L339.283 278.116L339.523 281.524V289.156H336.523ZM343.291 282.1C344.011 282.1 344.651 281.94 345.211 281.62C345.787 281.3 346.243 280.836 346.579 280.228C346.915 279.62 347.083 278.908 347.083 278.092C347.083 277.26 346.915 276.548 346.579 275.956C346.243 275.348 345.787 274.884 345.211 274.564C344.651 274.244 344.011 274.084 343.291 274.084C342.571 274.084 341.923 274.244 341.347 274.564C340.771 274.884 340.315 275.348 339.979 275.956C339.643 276.548 339.475 277.26 339.475 278.092C339.475 278.908 339.643 279.62 339.979 280.228C340.315 280.836 340.771 281.3 341.347 281.62C341.923 281.94 342.571 282.1 343.291 282.1ZM359 284.668C357.576 284.668 356.328 284.388 355.256 283.828C354.2 283.252 353.376 282.468 352.784 281.476C352.208 280.484 351.92 279.356 351.92 278.092C351.92 276.812 352.2 275.684 352.76 274.708C353.336 273.716 354.12 272.94 355.112 272.38C356.12 271.82 357.264 271.54 358.544 271.54C359.792 271.54 360.904 271.812 361.88 272.356C362.856 272.9 363.624 273.668 364.184 274.66C364.744 275.652 365.024 276.82 365.024 278.164C365.024 278.292 365.016 278.436 365 278.596C365 278.756 364.992 278.908 364.976 279.052H354.296V277.06H363.392L362.216 277.684C362.232 276.948 362.08 276.3 361.76 275.74C361.44 275.18 361 274.74 360.44 274.42C359.896 274.1 359.264 273.94 358.544 273.94C357.808 273.94 357.16 274.1 356.6 274.42C356.056 274.74 355.624 275.188 355.304 275.764C355 276.324 354.848 276.988 354.848 277.756V278.236C354.848 279.004 355.024 279.684 355.376 280.276C355.728 280.868 356.224 281.324 356.864 281.644C357.504 281.964 358.24 282.124 359.072 282.124C359.792 282.124 360.44 282.012 361.016 281.788C361.592 281.564 362.104 281.212 362.552 280.732L364.16 282.58C363.584 283.252 362.856 283.772 361.976 284.14C361.112 284.492 360.12 284.668 359 284.668ZM373.786 284.668C372.442 284.668 371.242 284.388 370.186 283.828C369.146 283.252 368.33 282.468 367.738 281.476C367.146 280.484 366.85 279.356 366.85 278.092C366.85 276.812 367.146 275.684 367.738 274.708C368.33 273.716 369.146 272.94 370.186 272.38C371.242 271.82 372.442 271.54 373.786 271.54C375.034 271.54 376.13 271.796 377.074 272.308C378.034 272.804 378.762 273.54 379.258 274.516L376.954 275.86C376.57 275.252 376.098 274.804 375.538 274.516C374.994 274.228 374.402 274.084 373.762 274.084C373.026 274.084 372.362 274.244 371.77 274.564C371.178 274.884 370.714 275.348 370.378 275.956C370.042 276.548 369.874 277.26 369.874 278.092C369.874 278.924 370.042 279.644 370.378 280.252C370.714 280.844 371.178 281.3 371.77 281.62C372.362 281.94 373.026 282.1 373.762 282.1C374.402 282.1 374.994 281.956 375.538 281.668C376.098 281.38 376.57 280.932 376.954 280.324L379.258 281.668C378.762 282.628 378.034 283.372 377.074 283.9C376.13 284.412 375.034 284.668 373.786 284.668ZM386.839 284.668C385.431 284.668 384.343 284.308 383.575 283.588C382.807 282.852 382.423 281.772 382.423 280.348V268.852H385.423V280.276C385.423 280.884 385.575 281.356 385.879 281.692C386.199 282.028 386.639 282.196 387.199 282.196C387.871 282.196 388.431 282.02 388.879 281.668L389.719 283.804C389.367 284.092 388.935 284.308 388.423 284.452C387.911 284.596 387.383 284.668 386.839 284.668ZM380.311 274.18V271.78H388.855V274.18H380.311ZM392.187 284.5V271.684H395.187V284.5H392.187ZM393.699 269.572C393.139 269.572 392.675 269.396 392.307 269.044C391.955 268.692 391.779 268.268 391.779 267.772C391.779 267.26 391.955 266.836 392.307 266.5C392.675 266.148 393.139 265.972 393.699 265.972C394.259 265.972 394.715 266.14 395.067 266.476C395.435 266.796 395.619 267.204 395.619 267.7C395.619 268.228 395.443 268.676 395.091 269.044C394.739 269.396 394.275 269.572 393.699 269.572ZM404.884 284.668C403.572 284.668 402.404 284.388 401.38 283.828C400.356 283.252 399.548 282.468 398.956 281.476C398.364 280.484 398.068 279.356 398.068 278.092C398.068 276.812 398.364 275.684 398.956 274.708C399.548 273.716 400.356 272.94 401.38 272.38C402.404 271.82 403.572 271.54 404.884 271.54C406.212 271.54 407.388 271.82 408.412 272.38C409.452 272.94 410.26 273.708 410.836 274.684C411.428 275.66 411.724 276.796 411.724 278.092C411.724 279.356 411.428 280.484 410.836 281.476C410.26 282.468 409.452 283.252 408.412 283.828C407.388 284.388 406.212 284.668 404.884 284.668ZM404.884 282.1C405.62 282.1 406.276 281.94 406.852 281.62C407.428 281.3 407.876 280.836 408.196 280.228C408.532 279.62 408.7 278.908 408.7 278.092C408.7 277.26 408.532 276.548 408.196 275.956C407.876 275.348 407.428 274.884 406.852 274.564C406.276 274.244 405.628 274.084 404.908 274.084C404.172 274.084 403.516 274.244 402.94 274.564C402.38 274.884 401.932 275.348 401.596 275.956C401.26 276.548 401.092 277.26 401.092 278.092C401.092 278.908 401.26 279.62 401.596 280.228C401.932 280.836 402.38 281.3 402.94 281.62C403.516 281.94 404.164 282.1 404.884 282.1ZM421.865 271.54C422.889 271.54 423.801 271.74 424.601 272.14C425.417 272.54 426.057 273.156 426.521 273.988C426.985 274.804 427.217 275.86 427.217 277.156V284.5H424.217V277.54C424.217 276.404 423.945 275.556 423.401 274.996C422.873 274.436 422.129 274.156 421.169 274.156C420.465 274.156 419.841 274.3 419.297 274.588C418.753 274.876 418.329 275.308 418.025 275.884C417.737 276.444 417.593 277.156 417.593 278.02V284.5H414.593V271.684H417.449V275.14L416.945 274.084C417.393 273.268 418.041 272.644 418.889 272.212C419.753 271.764 420.745 271.54 421.865 271.54Z" fill="black"/>
<path d="M337.922 58.5143C337.78 58.5143 337.665 58.4026 337.664 58.2648L337.64 33.3329C337.64 33.1948 337.755 33.0831 337.897 33.0829L382.588 33.0416C382.73 33.0416 382.846 33.1533 382.846 33.2912C382.846 33.4292 382.731 33.5409 382.588 33.5412L338.155 33.5822L338.179 58.2643C338.179 58.4024 338.064 58.5141 337.922 58.5143Z" fill="white"/>
<path d="M481.405 152.15C481.405 152.011 481.52 151.9 481.663 151.9C481.805 151.9 481.92 152.011 481.92 152.15" fill="black"/>
<path d="M386.315 179.572C386.238 179.456 386.273 179.301 386.393 179.227C386.513 179.152 386.672 179.186 386.749 179.302" fill="#5479F7"/>
<path d="M185.28 357.5V343.5H186.76V357.5H185.28ZM204.135 346.9C204.988 346.9 205.728 347.067 206.355 347.4C206.995 347.72 207.488 348.213 207.835 348.88C208.195 349.547 208.375 350.387 208.375 351.4V357.5H206.955V351.54C206.955 350.433 206.688 349.6 206.155 349.04C205.635 348.467 204.895 348.18 203.935 348.18C203.215 348.18 202.588 348.333 202.055 348.64C201.535 348.933 201.128 349.367 200.835 349.94C200.555 350.5 200.415 351.18 200.415 351.98V357.5H198.995V351.54C198.995 350.433 198.728 349.6 198.195 349.04C197.662 348.467 196.915 348.18 195.955 348.18C195.248 348.18 194.628 348.333 194.095 348.64C193.562 348.933 193.148 349.367 192.855 349.94C192.575 350.5 192.435 351.18 192.435 351.98V357.5H191.015V347H192.375V349.84L192.155 349.34C192.475 348.58 192.988 347.987 193.695 347.56C194.415 347.12 195.262 346.9 196.235 346.9C197.262 346.9 198.135 347.16 198.855 347.68C199.575 348.187 200.042 348.953 200.255 349.98L199.695 349.76C200.002 348.907 200.542 348.22 201.315 347.7C202.102 347.167 203.042 346.9 204.135 346.9ZM217.646 357.6C216.739 357.6 215.919 357.393 215.186 356.98C214.453 356.553 213.866 355.947 213.426 355.16C212.999 354.36 212.786 353.387 212.786 352.24C212.786 351.093 212.999 350.127 213.426 349.34C213.853 348.54 214.433 347.933 215.166 347.52C215.899 347.107 216.726 346.9 217.646 346.9C218.646 346.9 219.539 347.127 220.326 347.58C221.126 348.02 221.753 348.647 222.206 349.46C222.659 350.26 222.886 351.187 222.886 352.24C222.886 353.307 222.659 354.24 222.206 355.04C221.753 355.84 221.126 356.467 220.326 356.92C219.539 357.373 218.646 357.6 217.646 357.6ZM212.226 361.38V347H213.586V350.16L213.446 352.26L213.646 354.38V361.38H212.226ZM217.546 356.34C218.293 356.34 218.959 356.173 219.546 355.84C220.133 355.493 220.599 355.013 220.946 354.4C221.293 353.773 221.466 353.053 221.466 352.24C221.466 351.427 221.293 350.713 220.946 350.1C220.599 349.487 220.133 349.007 219.546 348.66C218.959 348.313 218.293 348.14 217.546 348.14C216.799 348.14 216.126 348.313 215.526 348.66C214.939 349.007 214.473 349.487 214.126 350.1C213.793 350.713 213.626 351.427 213.626 352.24C213.626 353.053 213.793 353.773 214.126 354.4C214.473 355.013 214.939 355.493 215.526 355.84C216.126 356.173 216.799 356.34 217.546 356.34ZM225.781 357.5V347H227.141V349.86L227.001 349.36C227.294 348.56 227.787 347.953 228.481 347.54C229.174 347.113 230.034 346.9 231.061 346.9V348.28C231.007 348.28 230.954 348.28 230.901 348.28C230.847 348.267 230.794 348.26 230.741 348.26C229.634 348.26 228.767 348.6 228.141 349.28C227.514 349.947 227.201 350.9 227.201 352.14V357.5H225.781ZM237.834 357.6C236.821 357.6 235.908 357.373 235.094 356.92C234.294 356.453 233.661 355.82 233.194 355.02C232.728 354.207 232.494 353.28 232.494 352.24C232.494 351.187 232.728 350.26 233.194 349.46C233.661 348.66 234.294 348.033 235.094 347.58C235.894 347.127 236.808 346.9 237.834 346.9C238.874 346.9 239.794 347.127 240.594 347.58C241.408 348.033 242.041 348.66 242.494 349.46C242.961 350.26 243.194 351.187 243.194 352.24C243.194 353.28 242.961 354.207 242.494 355.02C242.041 355.82 241.408 356.453 240.594 356.92C239.781 357.373 238.861 357.6 237.834 357.6ZM237.834 356.34C238.594 356.34 239.268 356.173 239.854 355.84C240.441 355.493 240.901 355.013 241.234 354.4C241.581 353.773 241.754 353.053 241.754 352.24C241.754 351.413 241.581 350.693 241.234 350.08C240.901 349.467 240.441 348.993 239.854 348.66C239.268 348.313 238.601 348.14 237.854 348.14C237.108 348.14 236.441 348.313 235.854 348.66C235.268 348.993 234.801 349.467 234.454 350.08C234.108 350.693 233.934 351.413 233.934 352.24C233.934 353.053 234.108 353.773 234.454 354.4C234.801 355.013 235.268 355.493 235.854 355.84C236.441 356.173 237.101 356.34 237.834 356.34ZM248.5 357.5L243.84 347H245.32L249.6 356.74H248.9L253.24 347H254.64L249.96 357.5H248.5ZM260.807 357.6C259.714 357.6 258.754 357.373 257.927 356.92C257.101 356.453 256.454 355.82 255.987 355.02C255.521 354.207 255.287 353.28 255.287 352.24C255.287 351.2 255.507 350.28 255.947 349.48C256.401 348.68 257.014 348.053 257.787 347.6C258.574 347.133 259.454 346.9 260.427 346.9C261.414 346.9 262.287 347.127 263.047 347.58C263.821 348.02 264.427 348.647 264.867 349.46C265.307 350.26 265.527 351.187 265.527 352.24C265.527 352.307 265.521 352.38 265.507 352.46C265.507 352.527 265.507 352.6 265.507 352.68H256.367V351.62H264.747L264.187 352.04C264.187 351.28 264.021 350.607 263.687 350.02C263.367 349.42 262.927 348.953 262.367 348.62C261.807 348.287 261.161 348.12 260.427 348.12C259.707 348.12 259.061 348.287 258.487 348.62C257.914 348.953 257.467 349.42 257.147 350.02C256.827 350.62 256.667 351.307 256.667 352.08V352.3C256.667 353.1 256.841 353.807 257.187 354.42C257.547 355.02 258.041 355.493 258.667 355.84C259.307 356.173 260.034 356.34 260.847 356.34C261.487 356.34 262.081 356.227 262.627 356C263.187 355.773 263.667 355.427 264.067 354.96L264.867 355.88C264.401 356.44 263.814 356.867 263.107 357.16C262.414 357.453 261.647 357.6 260.807 357.6ZM280.232 357.5V355.18L280.172 354.8V350.92C280.172 350.027 279.919 349.34 279.412 348.86C278.919 348.38 278.179 348.14 277.192 348.14C276.512 348.14 275.865 348.253 275.252 348.48C274.639 348.707 274.119 349.007 273.692 349.38L273.052 348.32C273.585 347.867 274.225 347.52 274.972 347.28C275.719 347.027 276.505 346.9 277.332 346.9C278.692 346.9 279.739 347.24 280.472 347.92C281.219 348.587 281.592 349.607 281.592 350.98V357.5H280.232ZM276.612 357.6C275.825 357.6 275.139 357.473 274.552 357.22C273.979 356.953 273.539 356.593 273.232 356.14C272.925 355.673 272.772 355.14 272.772 354.54C272.772 353.993 272.899 353.5 273.152 353.06C273.419 352.607 273.845 352.247 274.432 351.98C275.032 351.7 275.832 351.56 276.832 351.56H280.452V352.62H276.872C275.859 352.62 275.152 352.8 274.752 353.16C274.365 353.52 274.172 353.967 274.172 354.5C274.172 355.1 274.405 355.58 274.872 355.94C275.339 356.3 275.992 356.48 276.832 356.48C277.632 356.48 278.319 356.3 278.892 355.94C279.479 355.567 279.905 355.033 280.172 354.34L280.492 355.32C280.225 356.013 279.759 356.567 279.092 356.98C278.439 357.393 277.612 357.6 276.612 357.6ZM289.809 357.6C288.769 357.6 287.835 357.373 287.009 356.92C286.195 356.453 285.555 355.82 285.089 355.02C284.622 354.207 284.389 353.28 284.389 352.24C284.389 351.187 284.622 350.26 285.089 349.46C285.555 348.66 286.195 348.033 287.009 347.58C287.835 347.127 288.769 346.9 289.809 346.9C290.702 346.9 291.509 347.073 292.229 347.42C292.949 347.767 293.515 348.287 293.929 348.98L292.869 349.7C292.509 349.167 292.062 348.773 291.529 348.52C290.995 348.267 290.415 348.14 289.789 348.14C289.042 348.14 288.369 348.313 287.769 348.66C287.169 348.993 286.695 349.467 286.349 350.08C286.002 350.693 285.829 351.413 285.829 352.24C285.829 353.067 286.002 353.787 286.349 354.4C286.695 355.013 287.169 355.493 287.769 355.84C288.369 356.173 289.042 356.34 289.789 356.34C290.415 356.34 290.995 356.213 291.529 355.96C292.062 355.707 292.509 355.32 292.869 354.8L293.929 355.52C293.515 356.2 292.949 356.72 292.229 357.08C291.509 357.427 290.702 357.6 289.809 357.6ZM300.903 357.6C299.863 357.6 298.929 357.373 298.103 356.92C297.289 356.453 296.649 355.82 296.183 355.02C295.716 354.207 295.483 353.28 295.483 352.24C295.483 351.187 295.716 350.26 296.183 349.46C296.649 348.66 297.289 348.033 298.103 347.58C298.929 347.127 299.863 346.9 300.903 346.9C301.796 346.9 302.603 347.073 303.323 347.42C304.043 347.767 304.609 348.287 305.023 348.98L303.963 349.7C303.603 349.167 303.156 348.773 302.623 348.52C302.089 348.267 301.509 348.14 300.883 348.14C300.136 348.14 299.463 348.313 298.863 348.66C298.263 348.993 297.789 349.467 297.443 350.08C297.096 350.693 296.923 351.413 296.923 352.24C296.923 353.067 297.096 353.787 297.443 354.4C297.789 355.013 298.263 355.493 298.863 355.84C299.463 356.173 300.136 356.34 300.883 356.34C301.509 356.34 302.089 356.213 302.623 355.96C303.156 355.707 303.603 355.32 303.963 354.8L305.023 355.52C304.609 356.2 304.043 356.72 303.323 357.08C302.603 357.427 301.796 357.6 300.903 357.6ZM312.152 357.6C311.259 357.6 310.479 357.433 309.812 357.1C309.145 356.767 308.625 356.267 308.252 355.6C307.892 354.933 307.712 354.1 307.712 353.1V347H309.132V352.94C309.132 354.06 309.405 354.907 309.952 355.48C310.512 356.04 311.292 356.32 312.292 356.32C313.025 356.32 313.659 356.173 314.192 355.88C314.739 355.573 315.152 355.133 315.432 354.56C315.725 353.987 315.872 353.3 315.872 352.5V347H317.292V357.5H315.932V354.62L316.152 355.14C315.819 355.913 315.299 356.52 314.592 356.96C313.899 357.387 313.085 357.6 312.152 357.6ZM321.25 357.5V347H322.61V349.86L322.47 349.36C322.763 348.56 323.256 347.953 323.95 347.54C324.643 347.113 325.503 346.9 326.53 346.9V348.28C326.476 348.28 326.423 348.28 326.37 348.28C326.316 348.267 326.263 348.26 326.21 348.26C325.103 348.26 324.236 348.6 323.61 349.28C322.983 349.947 322.67 350.9 322.67 352.14V357.5H321.25ZM334.919 357.5V355.18L334.859 354.8V350.92C334.859 350.027 334.606 349.34 334.099 348.86C333.606 348.38 332.866 348.14 331.879 348.14C331.199 348.14 330.553 348.253 329.939 348.48C329.326 348.707 328.806 349.007 328.379 349.38L327.739 348.32C328.273 347.867 328.913 347.52 329.659 347.28C330.406 347.027 331.193 346.9 332.019 346.9C333.379 346.9 334.426 347.24 335.159 347.92C335.906 348.587 336.279 349.607 336.279 350.98V357.5H334.919ZM331.299 357.6C330.513 357.6 329.826 357.473 329.239 357.22C328.666 356.953 328.226 356.593 327.919 356.14C327.613 355.673 327.459 355.14 327.459 354.54C327.459 353.993 327.586 353.5 327.839 353.06C328.106 352.607 328.533 352.247 329.119 351.98C329.719 351.7 330.519 351.56 331.519 351.56H335.139V352.62H331.559C330.546 352.62 329.839 352.8 329.439 353.16C329.053 353.52 328.859 353.967 328.859 354.5C328.859 355.1 329.093 355.58 329.559 355.94C330.026 356.3 330.679 356.48 331.519 356.48C332.319 356.48 333.006 356.3 333.579 355.94C334.166 355.567 334.593 355.033 334.859 354.34L335.179 355.32C334.913 356.013 334.446 356.567 333.779 356.98C333.126 357.393 332.299 357.6 331.299 357.6ZM344.496 357.6C343.456 357.6 342.523 357.373 341.696 356.92C340.883 356.453 340.243 355.82 339.776 355.02C339.31 354.207 339.076 353.28 339.076 352.24C339.076 351.187 339.31 350.26 339.776 349.46C340.243 348.66 340.883 348.033 341.696 347.58C342.523 347.127 343.456 346.9 344.496 346.9C345.39 346.9 346.196 347.073 346.916 347.42C347.636 347.767 348.203 348.287 348.616 348.98L347.556 349.7C347.196 349.167 346.75 348.773 346.216 348.52C345.683 348.267 345.103 348.14 344.476 348.14C343.73 348.14 343.056 348.313 342.456 348.66C341.856 348.993 341.383 349.467 341.036 350.08C340.69 350.693 340.516 351.413 340.516 352.24C340.516 353.067 340.69 353.787 341.036 354.4C341.383 355.013 341.856 355.493 342.456 355.84C343.056 356.173 343.73 356.34 344.476 356.34C345.103 356.34 345.683 356.213 346.216 355.96C346.75 355.707 347.196 355.32 347.556 354.8L348.616 355.52C348.203 356.2 347.636 356.72 346.916 357.08C346.196 357.427 345.39 357.6 344.496 357.6ZM351.33 361.48C350.836 361.48 350.363 361.4 349.91 361.24C349.47 361.08 349.09 360.84 348.77 360.52L349.43 359.46C349.696 359.713 349.983 359.907 350.29 360.04C350.61 360.187 350.963 360.26 351.35 360.26C351.816 360.26 352.216 360.127 352.55 359.86C352.896 359.607 353.223 359.153 353.53 358.5L354.21 356.96L354.37 356.74L358.69 347H360.09L354.83 358.76C354.536 359.44 354.21 359.98 353.85 360.38C353.503 360.78 353.123 361.06 352.71 361.22C352.296 361.393 351.836 361.48 351.33 361.48ZM354.13 357.8L349.29 347H350.77L355.05 356.64L354.13 357.8ZM367.324 357.5V347H368.744V357.5H367.324ZM368.044 344.68C367.75 344.68 367.504 344.58 367.304 344.38C367.104 344.18 367.004 343.94 367.004 343.66C367.004 343.38 367.104 343.147 367.304 342.96C367.504 342.76 367.75 342.66 368.044 342.66C368.337 342.66 368.584 342.753 368.784 342.94C368.984 343.127 369.084 343.36 369.084 343.64C369.084 343.933 368.984 344.18 368.784 344.38C368.597 344.58 368.35 344.68 368.044 344.68ZM378.055 346.9C378.908 346.9 379.655 347.067 380.295 347.4C380.948 347.72 381.455 348.213 381.815 348.88C382.188 349.547 382.375 350.387 382.375 351.4V357.5H380.955V351.54C380.955 350.433 380.675 349.6 380.115 349.04C379.568 348.467 378.795 348.18 377.795 348.18C377.048 348.18 376.395 348.333 375.835 348.64C375.288 348.933 374.862 349.367 374.555 349.94C374.262 350.5 374.115 351.18 374.115 351.98V357.5H372.695V347H374.055V349.88L373.835 349.34C374.168 348.58 374.702 347.987 375.435 347.56C376.168 347.12 377.042 346.9 378.055 346.9ZM394.145 357.5L389.485 347H390.965L395.245 356.74H394.545L398.885 347H400.285L395.605 357.5H394.145ZM406.452 357.6C405.358 357.6 404.398 357.373 403.572 356.92C402.745 356.453 402.098 355.82 401.632 355.02C401.165 354.207 400.932 353.28 400.932 352.24C400.932 351.2 401.152 350.28 401.592 349.48C402.045 348.68 402.658 348.053 403.432 347.6C404.218 347.133 405.098 346.9 406.072 346.9C407.058 346.9 407.932 347.127 408.692 347.58C409.465 348.02 410.072 348.647 410.512 349.46C410.952 350.26 411.172 351.187 411.172 352.24C411.172 352.307 411.165 352.38 411.152 352.46C411.152 352.527 411.152 352.6 411.152 352.68H402.012V351.62H410.392L409.832 352.04C409.832 351.28 409.665 350.607 409.332 350.02C409.012 349.42 408.572 348.953 408.012 348.62C407.452 348.287 406.805 348.12 406.072 348.12C405.352 348.12 404.705 348.287 404.132 348.62C403.558 348.953 403.112 349.42 402.792 350.02C402.472 350.62 402.312 351.307 402.312 352.08V352.3C402.312 353.1 402.485 353.807 402.832 354.42C403.192 355.02 403.685 355.493 404.312 355.84C404.952 356.173 405.678 356.34 406.492 356.34C407.132 356.34 407.725 356.227 408.272 356C408.832 355.773 409.312 355.427 409.712 354.96L410.512 355.88C410.045 356.44 409.458 356.867 408.752 357.16C408.058 357.453 407.292 357.6 406.452 357.6ZM419.422 346.9C420.275 346.9 421.022 347.067 421.662 347.4C422.315 347.72 422.822 348.213 423.182 348.88C423.555 349.547 423.742 350.387 423.742 351.4V357.5H422.322V351.54C422.322 350.433 422.042 349.6 421.482 349.04C420.935 348.467 420.162 348.18 419.162 348.18C418.415 348.18 417.762 348.333 417.202 348.64C416.655 348.933 416.229 349.367 415.922 349.94C415.629 350.5 415.482 351.18 415.482 351.98V357.5H414.062V342.66H415.482V349.88L415.202 349.34C415.535 348.58 416.069 347.987 416.802 347.56C417.535 347.12 418.409 346.9 419.422 346.9ZM427.578 357.5V347H428.998V357.5H427.578ZM428.298 344.68C428.004 344.68 427.758 344.58 427.558 344.38C427.358 344.18 427.258 343.94 427.258 343.66C427.258 343.38 427.358 343.147 427.558 342.96C427.758 342.76 428.004 342.66 428.298 342.66C428.591 342.66 428.838 342.753 429.038 342.94C429.238 343.127 429.338 343.36 429.338 343.64C429.338 343.933 429.238 344.18 429.038 344.38C428.851 344.58 428.604 344.68 428.298 344.68ZM437.309 357.6C436.269 357.6 435.335 357.373 434.509 356.92C433.695 356.453 433.055 355.82 432.589 355.02C432.122 354.207 431.889 353.28 431.889 352.24C431.889 351.187 432.122 350.26 432.589 349.46C433.055 348.66 433.695 348.033 434.509 347.58C435.335 347.127 436.269 346.9 437.309 346.9C438.202 346.9 439.009 347.073 439.729 347.42C440.449 347.767 441.015 348.287 441.429 348.98L440.369 349.7C440.009 349.167 439.562 348.773 439.029 348.52C438.495 348.267 437.915 348.14 437.289 348.14C436.542 348.14 435.869 348.313 435.269 348.66C434.669 348.993 434.195 349.467 433.849 350.08C433.502 350.693 433.329 351.413 433.329 352.24C433.329 353.067 433.502 353.787 433.849 354.4C434.195 355.013 434.669 355.493 435.269 355.84C435.869 356.173 436.542 356.34 437.289 356.34C437.915 356.34 438.495 356.213 439.029 355.96C439.562 355.707 440.009 355.32 440.369 354.8L441.429 355.52C441.015 356.2 440.449 356.72 439.729 357.08C439.009 357.427 438.202 357.6 437.309 357.6ZM444.062 357.5V342.66H445.482V357.5H444.062ZM453.893 357.6C452.8 357.6 451.84 357.373 451.013 356.92C450.186 356.453 449.54 355.82 449.073 355.02C448.606 354.207 448.373 353.28 448.373 352.24C448.373 351.2 448.593 350.28 449.033 349.48C449.486 348.68 450.1 348.053 450.873 347.6C451.66 347.133 452.54 346.9 453.513 346.9C454.5 346.9 455.373 347.127 456.133 347.58C456.906 348.02 457.513 348.647 457.953 349.46C458.393 350.26 458.613 351.187 458.613 352.24C458.613 352.307 458.606 352.38 458.593 352.46C458.593 352.527 458.593 352.6 458.593 352.68H449.453V351.62H457.833L457.273 352.04C457.273 351.28 457.106 350.607 456.773 350.02C456.453 349.42 456.013 348.953 455.453 348.62C454.893 348.287 454.246 348.12 453.513 348.12C452.793 348.12 452.146 348.287 451.573 348.62C451 348.953 450.553 349.42 450.233 350.02C449.913 350.62 449.753 351.307 449.753 352.08V352.3C449.753 353.1 449.926 353.807 450.273 354.42C450.633 355.02 451.126 355.493 451.753 355.84C452.393 356.173 453.12 356.34 453.933 356.34C454.573 356.34 455.166 356.227 455.713 356C456.273 355.773 456.753 355.427 457.153 354.96L457.953 355.88C457.486 356.44 456.9 356.867 456.193 357.16C455.5 357.453 454.733 357.6 453.893 357.6ZM184.98 385.5V375H186.4V385.5H184.98ZM185.7 372.68C185.407 372.68 185.16 372.58 184.96 372.38C184.76 372.18 184.66 371.94 184.66 371.66C184.66 371.38 184.76 371.147 184.96 370.96C185.16 370.76 185.407 370.66 185.7 370.66C185.993 370.66 186.24 370.753 186.44 370.94C186.64 371.127 186.74 371.36 186.74 371.64C186.74 371.933 186.64 372.18 186.44 372.38C186.253 372.58 186.007 372.68 185.7 372.68ZM195.711 374.9C196.564 374.9 197.311 375.067 197.951 375.4C198.604 375.72 199.111 376.213 199.471 376.88C199.844 377.547 200.031 378.387 200.031 379.4V385.5H198.611V379.54C198.611 378.433 198.331 377.6 197.771 377.04C197.224 376.467 196.451 376.18 195.451 376.18C194.704 376.18 194.051 376.333 193.491 376.64C192.944 376.933 192.518 377.367 192.211 377.94C191.918 378.5 191.771 379.18 191.771 379.98V385.5H190.351V375H191.711V377.88L191.491 377.34C191.824 376.58 192.358 375.987 193.091 375.56C193.824 375.12 194.698 374.9 195.711 374.9ZM206.687 385.6C205.82 385.6 205 385.48 204.227 385.24C203.453 384.987 202.847 384.673 202.407 384.3L203.047 383.18C203.473 383.5 204.02 383.78 204.687 384.02C205.353 384.247 206.053 384.36 206.787 384.36C207.787 384.36 208.507 384.207 208.947 383.9C209.387 383.58 209.607 383.16 209.607 382.64C209.607 382.253 209.48 381.953 209.227 381.74C208.987 381.513 208.667 381.347 208.267 381.24C207.867 381.12 207.42 381.02 206.927 380.94C206.433 380.86 205.94 380.767 205.447 380.66C204.967 380.553 204.527 380.4 204.127 380.2C203.727 379.987 203.4 379.7 203.147 379.34C202.907 378.98 202.787 378.5 202.787 377.9C202.787 377.327 202.947 376.813 203.267 376.36C203.587 375.907 204.053 375.553 204.667 375.3C205.293 375.033 206.053 374.9 206.947 374.9C207.627 374.9 208.307 374.993 208.987 375.18C209.667 375.353 210.227 375.587 210.667 375.88L210.047 377.02C209.58 376.7 209.08 376.473 208.547 376.34C208.013 376.193 207.48 376.12 206.947 376.12C206 376.12 205.3 376.287 204.847 376.62C204.407 376.94 204.187 377.353 204.187 377.86C204.187 378.26 204.307 378.573 204.547 378.8C204.8 379.027 205.127 379.207 205.527 379.34C205.94 379.46 206.387 379.56 206.867 379.64C207.36 379.72 207.847 379.82 208.327 379.94C208.82 380.047 209.267 380.2 209.667 380.4C210.08 380.587 210.407 380.86 210.647 381.22C210.9 381.567 211.027 382.027 211.027 382.6C211.027 383.213 210.853 383.747 210.507 384.2C210.173 384.64 209.68 384.987 209.027 385.24C208.387 385.48 207.607 385.6 206.687 385.6ZM219.052 385.6C218.146 385.6 217.326 385.393 216.592 384.98C215.859 384.553 215.272 383.947 214.832 383.16C214.406 382.36 214.192 381.387 214.192 380.24C214.192 379.093 214.406 378.127 214.832 377.34C215.259 376.54 215.839 375.933 216.572 375.52C217.306 375.107 218.132 374.9 219.052 374.9C220.052 374.9 220.946 375.127 221.732 375.58C222.532 376.02 223.159 376.647 223.612 377.46C224.066 378.26 224.292 379.187 224.292 380.24C224.292 381.307 224.066 382.24 223.612 383.04C223.159 383.84 222.532 384.467 221.732 384.92C220.946 385.373 220.052 385.6 219.052 385.6ZM213.632 389.38V375H214.992V378.16L214.852 380.26L215.052 382.38V389.38H213.632ZM218.952 384.34C219.699 384.34 220.366 384.173 220.952 383.84C221.539 383.493 222.006 383.013 222.352 382.4C222.699 381.773 222.872 381.053 222.872 380.24C222.872 379.427 222.699 378.713 222.352 378.1C222.006 377.487 221.539 377.007 220.952 376.66C220.366 376.313 219.699 376.14 218.952 376.14C218.206 376.14 217.532 376.313 216.932 376.66C216.346 377.007 215.879 377.487 215.532 378.1C215.199 378.713 215.032 379.427 215.032 380.24C215.032 381.053 215.199 381.773 215.532 382.4C215.879 383.013 216.346 383.493 216.932 383.84C217.532 384.173 218.206 384.34 218.952 384.34ZM231.647 385.6C230.554 385.6 229.594 385.373 228.767 384.92C227.94 384.453 227.294 383.82 226.827 383.02C226.36 382.207 226.127 381.28 226.127 380.24C226.127 379.2 226.347 378.28 226.787 377.48C227.24 376.68 227.854 376.053 228.627 375.6C229.414 375.133 230.294 374.9 231.267 374.9C232.254 374.9 233.127 375.127 233.887 375.58C234.66 376.02 235.267 376.647 235.707 377.46C236.147 378.26 236.367 379.187 236.367 380.24C236.367 380.307 236.36 380.38 236.347 380.46C236.347 380.527 236.347 380.6 236.347 380.68H227.207V379.62H235.587L235.027 380.04C235.027 379.28 234.86 378.607 234.527 378.02C234.207 377.42 233.767 376.953 233.207 376.62C232.647 376.287 232 376.12 231.267 376.12C230.547 376.12 229.9 376.287 229.327 376.62C228.754 376.953 228.307 377.42 227.987 378.02C227.667 378.62 227.507 379.307 227.507 380.08V380.3C227.507 381.1 227.68 381.807 228.027 382.42C228.387 383.02 228.88 383.493 229.507 383.84C230.147 384.173 230.874 384.34 231.687 384.34C232.327 384.34 232.92 384.227 233.467 384C234.027 383.773 234.507 383.427 234.907 382.96L235.707 383.88C235.24 384.44 234.654 384.867 233.947 385.16C233.254 385.453 232.487 385.6 231.647 385.6ZM243.617 385.6C242.577 385.6 241.644 385.373 240.817 384.92C240.004 384.453 239.364 383.82 238.897 383.02C238.431 382.207 238.197 381.28 238.197 380.24C238.197 379.187 238.431 378.26 238.897 377.46C239.364 376.66 240.004 376.033 240.817 375.58C241.644 375.127 242.577 374.9 243.617 374.9C244.511 374.9 245.317 375.073 246.037 375.42C246.757 375.767 247.324 376.287 247.737 376.98L246.677 377.7C246.317 377.167 245.871 376.773 245.337 376.52C244.804 376.267 244.224 376.14 243.597 376.14C242.851 376.14 242.177 376.313 241.577 376.66C240.977 376.993 240.504 377.467 240.157 378.08C239.811 378.693 239.637 379.413 239.637 380.24C239.637 381.067 239.811 381.787 240.157 382.4C240.504 383.013 240.977 383.493 241.577 383.84C242.177 384.173 242.851 384.34 243.597 384.34C244.224 384.34 244.804 384.213 245.337 383.96C245.871 383.707 246.317 383.32 246.677 382.8L247.737 383.52C247.324 384.2 246.757 384.72 246.037 385.08C245.317 385.427 244.511 385.6 243.617 385.6ZM253.964 385.6C252.977 385.6 252.217 385.333 251.684 384.8C251.151 384.267 250.884 383.513 250.884 382.54V372.68H252.304V382.46C252.304 383.073 252.457 383.547 252.764 383.88C253.084 384.213 253.537 384.38 254.124 384.38C254.751 384.38 255.271 384.2 255.684 383.84L256.184 384.86C255.904 385.113 255.564 385.3 255.164 385.42C254.777 385.54 254.377 385.6 253.964 385.6ZM249.004 376.18V375H255.504V376.18H249.004ZM258.769 385.5V375H260.189V385.5H258.769ZM259.489 372.68C259.196 372.68 258.949 372.58 258.749 372.38C258.549 372.18 258.449 371.94 258.449 371.66C258.449 371.38 258.549 371.147 258.749 370.96C258.949 370.76 259.196 370.66 259.489 370.66C259.782 370.66 260.029 370.753 260.229 370.94C260.429 371.127 260.529 371.36 260.529 371.64C260.529 371.933 260.429 372.18 260.229 372.38C260.042 372.58 259.796 372.68 259.489 372.68ZM268.42 385.6C267.407 385.6 266.493 385.373 265.68 384.92C264.88 384.453 264.247 383.82 263.78 383.02C263.313 382.207 263.08 381.28 263.08 380.24C263.08 379.187 263.313 378.26 263.78 377.46C264.247 376.66 264.88 376.033 265.68 375.58C266.48 375.127 267.393 374.9 268.42 374.9C269.46 374.9 270.38 375.127 271.18 375.58C271.993 376.033 272.627 376.66 273.08 377.46C273.547 378.26 273.78 379.187 273.78 380.24C273.78 381.28 273.547 382.207 273.08 383.02C272.627 383.82 271.993 384.453 271.18 384.92C270.367 385.373 269.447 385.6 268.42 385.6ZM268.42 384.34C269.18 384.34 269.853 384.173 270.44 383.84C271.027 383.493 271.487 383.013 271.82 382.4C272.167 381.773 272.34 381.053 272.34 380.24C272.34 379.413 272.167 378.693 271.82 378.08C271.487 377.467 271.027 376.993 270.44 376.66C269.853 376.313 269.187 376.14 268.44 376.14C267.693 376.14 267.027 376.313 266.44 376.66C265.853 376.993 265.387 377.467 265.04 378.08C264.693 378.693 264.52 379.413 264.52 380.24C264.52 381.053 264.693 381.773 265.04 382.4C265.387 383.013 265.853 383.493 266.44 383.84C267.027 384.173 267.687 384.34 268.42 384.34ZM282.039 374.9C282.893 374.9 283.639 375.067 284.279 375.4C284.933 375.72 285.439 376.213 285.799 376.88C286.173 377.547 286.359 378.387 286.359 379.4V385.5H284.939V379.54C284.939 378.433 284.659 377.6 284.099 377.04C283.553 376.467 282.779 376.18 281.779 376.18C281.033 376.18 280.379 376.333 279.819 376.64C279.273 376.933 278.846 377.367 278.539 377.94C278.246 378.5 278.099 379.18 278.099 379.98V385.5H276.679V375H278.039V377.88L277.819 377.34C278.153 376.58 278.686 375.987 279.419 375.56C280.153 375.12 281.026 374.9 282.039 374.9ZM293.015 385.6C292.148 385.6 291.328 385.48 290.555 385.24C289.782 384.987 289.175 384.673 288.735 384.3L289.375 383.18C289.802 383.5 290.348 383.78 291.015 384.02C291.682 384.247 292.382 384.36 293.115 384.36C294.115 384.36 294.835 384.207 295.275 383.9C295.715 383.58 295.935 383.16 295.935 382.64C295.935 382.253 295.808 381.953 295.555 381.74C295.315 381.513 294.995 381.347 294.595 381.24C294.195 381.12 293.748 381.02 293.255 380.94C292.762 380.86 292.268 380.767 291.775 380.66C291.295 380.553 290.855 380.4 290.455 380.2C290.055 379.987 289.728 379.7 289.475 379.34C289.235 378.98 289.115 378.5 289.115 377.9C289.115 377.327 289.275 376.813 289.595 376.36C289.915 375.907 290.382 375.553 290.995 375.3C291.622 375.033 292.382 374.9 293.275 374.9C293.955 374.9 294.635 374.993 295.315 375.18C295.995 375.353 296.555 375.587 296.995 375.88L296.375 377.02C295.908 376.7 295.408 376.473 294.875 376.34C294.342 376.193 293.808 376.12 293.275 376.12C292.328 376.12 291.628 376.287 291.175 376.62C290.735 376.94 290.515 377.353 290.515 377.86C290.515 378.26 290.635 378.573 290.875 378.8C291.128 379.027 291.455 379.207 291.855 379.34C292.268 379.46 292.715 379.56 293.195 379.64C293.688 379.72 294.175 379.82 294.655 379.94C295.148 380.047 295.595 380.2 295.995 380.4C296.408 380.587 296.735 380.86 296.975 381.22C297.228 381.567 297.355 382.027 297.355 382.6C297.355 383.213 297.182 383.747 296.835 384.2C296.502 384.64 296.008 384.987 295.355 385.24C294.715 385.48 293.935 385.6 293.015 385.6ZM308.895 385.62C307.988 385.62 307.182 385.473 306.475 385.18C305.768 384.873 305.208 384.453 304.795 383.92C304.395 383.387 304.195 382.767 304.195 382.06C304.195 381.46 304.328 380.913 304.595 380.42C304.862 379.913 305.288 379.42 305.875 378.94C306.475 378.447 307.268 377.933 308.255 377.4C309.095 376.933 309.748 376.533 310.215 376.2C310.695 375.853 311.035 375.527 311.235 375.22C311.435 374.9 311.535 374.56 311.535 374.2C311.535 373.68 311.355 373.26 310.995 372.94C310.648 372.62 310.148 372.46 309.495 372.46C308.788 372.46 308.242 372.64 307.855 373C307.468 373.347 307.275 373.8 307.275 374.36C307.275 374.64 307.315 374.907 307.395 375.16C307.488 375.413 307.655 375.693 307.895 376C308.148 376.307 308.495 376.693 308.935 377.16L316.335 384.78L315.515 385.72L307.795 377.78C307.328 377.287 306.955 376.86 306.675 376.5C306.408 376.127 306.222 375.773 306.115 375.44C306.008 375.107 305.955 374.753 305.955 374.38C305.955 373.78 306.095 373.26 306.375 372.82C306.668 372.367 307.082 372.02 307.615 371.78C308.148 371.527 308.775 371.4 309.495 371.4C310.148 371.4 310.715 371.513 311.195 371.74C311.688 371.953 312.068 372.267 312.335 372.68C312.615 373.093 312.755 373.593 312.755 374.18C312.755 374.687 312.628 375.16 312.375 375.6C312.135 376.04 311.735 376.473 311.175 376.9C310.615 377.313 309.855 377.78 308.895 378.3C308.055 378.767 307.388 379.193 306.895 379.58C306.415 379.967 306.075 380.347 305.875 380.72C305.675 381.08 305.575 381.48 305.575 381.92C305.575 382.427 305.715 382.873 305.995 383.26C306.288 383.633 306.688 383.927 307.195 384.14C307.715 384.34 308.308 384.44 308.975 384.44C309.908 384.44 310.742 384.247 311.475 383.86C312.208 383.473 312.822 382.887 313.315 382.1C313.822 381.313 314.188 380.327 314.415 379.14L315.555 379.5C315.302 380.833 314.868 381.953 314.255 382.86C313.642 383.767 312.882 384.453 311.975 384.92C311.068 385.387 310.042 385.62 308.895 385.62ZM330.388 385.5V383.18L330.328 382.8V378.92C330.328 378.027 330.075 377.34 329.568 376.86C329.075 376.38 328.335 376.14 327.348 376.14C326.668 376.14 326.021 376.253 325.408 376.48C324.795 376.707 324.275 377.007 323.848 377.38L323.208 376.32C323.741 375.867 324.381 375.52 325.128 375.28C325.875 375.027 326.661 374.9 327.488 374.9C328.848 374.9 329.895 375.24 330.628 375.92C331.375 376.587 331.748 377.607 331.748 378.98V385.5H330.388ZM326.768 385.6C325.981 385.6 325.295 385.473 324.708 385.22C324.135 384.953 323.695 384.593 323.388 384.14C323.081 383.673 322.928 383.14 322.928 382.54C322.928 381.993 323.055 381.5 323.308 381.06C323.575 380.607 324.001 380.247 324.588 379.98C325.188 379.7 325.988 379.56 326.988 379.56H330.608V380.62H327.028C326.015 380.62 325.308 380.8 324.908 381.16C324.521 381.52 324.328 381.967 324.328 382.5C324.328 383.1 324.561 383.58 325.028 383.94C325.495 384.3 326.148 384.48 326.988 384.48C327.788 384.48 328.475 384.3 329.048 383.94C329.635 383.567 330.061 383.033 330.328 382.34L330.648 383.32C330.381 384.013 329.915 384.567 329.248 384.98C328.595 385.393 327.768 385.6 326.768 385.6ZM341.025 385.6C340.118 385.6 339.298 385.393 338.565 384.98C337.832 384.553 337.245 383.947 336.805 383.16C336.378 382.36 336.165 381.387 336.165 380.24C336.165 379.093 336.378 378.127 336.805 377.34C337.232 376.54 337.812 375.933 338.545 375.52C339.278 375.107 340.105 374.9 341.025 374.9C342.025 374.9 342.918 375.127 343.705 375.58C344.505 376.02 345.132 376.647 345.585 377.46C346.038 378.26 346.265 379.187 346.265 380.24C346.265 381.307 346.038 382.24 345.585 383.04C345.132 383.84 344.505 384.467 343.705 384.92C342.918 385.373 342.025 385.6 341.025 385.6ZM335.605 389.38V375H336.965V378.16L336.825 380.26L337.025 382.38V389.38H335.605ZM340.925 384.34C341.672 384.34 342.338 384.173 342.925 383.84C343.512 383.493 343.978 383.013 344.325 382.4C344.672 381.773 344.845 381.053 344.845 380.24C344.845 379.427 344.672 378.713 344.325 378.1C343.978 377.487 343.512 377.007 342.925 376.66C342.338 376.313 341.672 376.14 340.925 376.14C340.178 376.14 339.505 376.313 338.905 376.66C338.318 377.007 337.852 377.487 337.505 378.1C337.172 378.713 337.005 379.427 337.005 380.24C337.005 381.053 337.172 381.773 337.505 382.4C337.852 383.013 338.318 383.493 338.905 383.84C339.505 384.173 340.178 384.34 340.925 384.34ZM354.58 385.6C353.673 385.6 352.853 385.393 352.12 384.98C351.386 384.553 350.8 383.947 350.36 383.16C349.933 382.36 349.72 381.387 349.72 380.24C349.72 379.093 349.933 378.127 350.36 377.34C350.786 376.54 351.366 375.933 352.1 375.52C352.833 375.107 353.66 374.9 354.58 374.9C355.58 374.9 356.473 375.127 357.26 375.58C358.06 376.02 358.686 376.647 359.14 377.46C359.593 378.26 359.82 379.187 359.82 380.24C359.82 381.307 359.593 382.24 359.14 383.04C358.686 383.84 358.06 384.467 357.26 384.92C356.473 385.373 355.58 385.6 354.58 385.6ZM349.16 389.38V375H350.52V378.16L350.38 380.26L350.58 382.38V389.38H349.16ZM354.48 384.34C355.226 384.34 355.893 384.173 356.48 383.84C357.066 383.493 357.533 383.013 357.88 382.4C358.226 381.773 358.4 381.053 358.4 380.24C358.4 379.427 358.226 378.713 357.88 378.1C357.533 377.487 357.066 377.007 356.48 376.66C355.893 376.313 355.226 376.14 354.48 376.14C353.733 376.14 353.06 376.313 352.46 376.66C351.873 377.007 351.406 377.487 351.06 378.1C350.726 378.713 350.56 379.427 350.56 380.24C350.56 381.053 350.726 381.773 351.06 382.4C351.406 383.013 351.873 383.493 352.46 383.84C353.06 384.173 353.733 384.34 354.48 384.34ZM362.714 385.5V375H364.074V377.86L363.934 377.36C364.228 376.56 364.721 375.953 365.414 375.54C366.108 375.113 366.968 374.9 367.994 374.9V376.28C367.941 376.28 367.888 376.28 367.834 376.28C367.781 376.267 367.728 376.26 367.674 376.26C366.568 376.26 365.701 376.6 365.074 377.28C364.448 377.947 364.134 378.9 364.134 380.14V385.5H362.714ZM376.384 385.5V383.18L376.324 382.8V378.92C376.324 378.027 376.071 377.34 375.564 376.86C375.071 376.38 374.331 376.14 373.344 376.14C372.664 376.14 372.018 376.253 371.404 376.48C370.791 376.707 370.271 377.007 369.844 377.38L369.204 376.32C369.738 375.867 370.378 375.52 371.124 375.28C371.871 375.027 372.658 374.9 373.484 374.9C374.844 374.9 375.891 375.24 376.624 375.92C377.371 376.587 377.744 377.607 377.744 378.98V385.5H376.384ZM372.764 385.6C371.978 385.6 371.291 385.473 370.704 385.22C370.131 384.953 369.691 384.593 369.384 384.14C369.078 383.673 368.924 383.14 368.924 382.54C368.924 381.993 369.051 381.5 369.304 381.06C369.571 380.607 369.998 380.247 370.584 379.98C371.184 379.7 371.984 379.56 372.984 379.56H376.604V380.62H373.024C372.011 380.62 371.304 380.8 370.904 381.16C370.518 381.52 370.324 381.967 370.324 382.5C370.324 383.1 370.558 383.58 371.024 383.94C371.491 384.3 372.144 384.48 372.984 384.48C373.784 384.48 374.471 384.3 375.044 383.94C375.631 383.567 376.058 383.033 376.324 382.34L376.644 383.32C376.378 384.013 375.911 384.567 375.244 384.98C374.591 385.393 373.764 385.6 372.764 385.6ZM381.601 385.5V375H383.021V385.5H381.601ZM382.321 372.68C382.028 372.68 381.781 372.58 381.581 372.38C381.381 372.18 381.281 371.94 381.281 371.66C381.281 371.38 381.381 371.147 381.581 370.96C381.781 370.76 382.028 370.66 382.321 370.66C382.614 370.66 382.861 370.753 383.061 370.94C383.261 371.127 383.361 371.36 383.361 371.64C383.361 371.933 383.261 372.18 383.061 372.38C382.874 372.58 382.628 372.68 382.321 372.68ZM389.792 385.6C388.926 385.6 388.106 385.48 387.332 385.24C386.559 384.987 385.952 384.673 385.512 384.3L386.152 383.18C386.579 383.5 387.126 383.78 387.792 384.02C388.459 384.247 389.159 384.36 389.892 384.36C390.892 384.36 391.612 384.207 392.052 383.9C392.492 383.58 392.712 383.16 392.712 382.64C392.712 382.253 392.586 381.953 392.332 381.74C392.092 381.513 391.772 381.347 391.372 381.24C390.972 381.12 390.526 381.02 390.032 380.94C389.539 380.86 389.046 380.767 388.552 380.66C388.072 380.553 387.632 380.4 387.232 380.2C386.832 379.987 386.506 379.7 386.252 379.34C386.012 378.98 385.892 378.5 385.892 377.9C385.892 377.327 386.052 376.813 386.372 376.36C386.692 375.907 387.159 375.553 387.772 375.3C388.399 375.033 389.159 374.9 390.052 374.9C390.732 374.9 391.412 374.993 392.092 375.18C392.772 375.353 393.332 375.587 393.772 375.88L393.152 377.02C392.686 376.7 392.186 376.473 391.652 376.34C391.119 376.193 390.586 376.12 390.052 376.12C389.106 376.12 388.406 376.287 387.952 376.62C387.512 376.94 387.292 377.353 387.292 377.86C387.292 378.26 387.412 378.573 387.652 378.8C387.906 379.027 388.232 379.207 388.632 379.34C389.046 379.46 389.492 379.56 389.972 379.64C390.466 379.72 390.952 379.82 391.432 379.94C391.926 380.047 392.372 380.2 392.772 380.4C393.186 380.587 393.512 380.86 393.752 381.22C394.006 381.567 394.132 382.027 394.132 382.6C394.132 383.213 393.959 383.747 393.612 384.2C393.279 384.64 392.786 384.987 392.132 385.24C391.492 385.48 390.712 385.6 389.792 385.6ZM403.318 385.5V383.18L403.258 382.8V378.92C403.258 378.027 403.004 377.34 402.498 376.86C402.004 376.38 401.264 376.14 400.278 376.14C399.598 376.14 398.951 376.253 398.338 376.48C397.724 376.707 397.204 377.007 396.778 377.38L396.138 376.32C396.671 375.867 397.311 375.52 398.058 375.28C398.804 375.027 399.591 374.9 400.418 374.9C401.778 374.9 402.824 375.24 403.558 375.92C404.304 376.587 404.678 377.607 404.678 378.98V385.5H403.318ZM399.698 385.6C398.911 385.6 398.224 385.473 397.638 385.22C397.064 384.953 396.624 384.593 396.318 384.14C396.011 383.673 395.858 383.14 395.858 382.54C395.858 381.993 395.984 381.5 396.238 381.06C396.504 380.607 396.931 380.247 397.518 379.98C398.118 379.7 398.918 379.56 399.918 379.56H403.538V380.62H399.958C398.944 380.62 398.238 380.8 397.838 381.16C397.451 381.52 397.258 381.967 397.258 382.5C397.258 383.1 397.491 383.58 397.958 383.94C398.424 384.3 399.078 384.48 399.918 384.48C400.718 384.48 401.404 384.3 401.978 383.94C402.564 383.567 402.991 383.033 403.258 382.34L403.578 383.32C403.311 384.013 402.844 384.567 402.178 384.98C401.524 385.393 400.698 385.6 399.698 385.6ZM408.535 385.5V370.66H409.955V385.5H408.535ZM416.726 385.6C415.859 385.6 415.039 385.48 414.266 385.24C413.492 384.987 412.886 384.673 412.446 384.3L413.086 383.18C413.512 383.5 414.059 383.78 414.726 384.02C415.392 384.247 416.092 384.36 416.826 384.36C417.826 384.36 418.546 384.207 418.986 383.9C419.426 383.58 419.646 383.16 419.646 382.64C419.646 382.253 419.519 381.953 419.266 381.74C419.026 381.513 418.706 381.347 418.306 381.24C417.906 381.12 417.459 381.02 416.966 380.94C416.472 380.86 415.979 380.767 415.486 380.66C415.006 380.553 414.566 380.4 414.166 380.2C413.766 379.987 413.439 379.7 413.186 379.34C412.946 378.98 412.826 378.5 412.826 377.9C412.826 377.327 412.986 376.813 413.306 376.36C413.626 375.907 414.092 375.553 414.706 375.3C415.332 375.033 416.092 374.9 416.986 374.9C417.666 374.9 418.346 374.993 419.026 375.18C419.706 375.353 420.266 375.587 420.706 375.88L420.086 377.02C419.619 376.7 419.119 376.473 418.586 376.34C418.052 376.193 417.519 376.12 416.986 376.12C416.039 376.12 415.339 376.287 414.886 376.62C414.446 376.94 414.226 377.353 414.226 377.86C414.226 378.26 414.346 378.573 414.586 378.8C414.839 379.027 415.166 379.207 415.566 379.34C415.979 379.46 416.426 379.56 416.906 379.64C417.399 379.72 417.886 379.82 418.366 379.94C418.859 380.047 419.306 380.2 419.706 380.4C420.119 380.587 420.446 380.86 420.686 381.22C420.939 381.567 421.066 382.027 421.066 382.6C421.066 383.213 420.892 383.747 420.546 384.2C420.212 384.64 419.719 384.987 419.066 385.24C418.426 385.48 417.646 385.6 416.726 385.6Z" fill="black"/>
<path d="M415.829 130.118C415.829 130.118 442.638 137.928 437.178 109.806C431.718 81.6851 419.821 70.6704 413.403 69.4221C406.985 68.1738 396.379 75.9792 400.196 102.497L415.829 130.118Z" fill="black"/>
<path d="M382.953 106.761L376.684 115.14C371.762 107.72 367.469 98.7771 363.301 94.3853C355.183 85.8321 356.552 92.6708 359.344 96.8523C359.344 96.8523 355.93 95.2354 355.171 99.1492C355.171 99.1492 352.591 99.4378 353.389 102.683C353.389 102.683 350.437 104.648 355.535 108.402C355.535 108.402 358.98 120.216 365.122 132.314C369.199 140.461 380.511 140.75 384.983 132.822L394.2 116.485L382.953 106.761Z" fill="white"/>
<path d="M375.206 138.797C375.104 138.797 375.002 138.796 374.899 138.794C370.616 138.684 366.897 136.295 364.95 132.404C359.103 120.887 355.655 109.484 355.369 108.522C353.333 107.012 352.316 105.591 352.346 104.299C352.368 103.373 352.927 102.807 353.172 102.603C352.927 101.515 353.03 100.631 353.477 99.9751C353.96 99.2673 354.7 99.0424 355.009 98.9771C355.261 97.8075 355.78 97.0121 356.551 96.6122C357.382 96.1817 358.302 96.3154 358.873 96.4751C357.543 94.2976 356.341 91.1193 357.353 90.2794C358.214 89.5633 360.262 90.8995 363.44 94.2479C366.064 97.0125 368.735 101.566 371.563 106.387C373.209 109.194 374.91 112.094 376.694 114.801L382.799 106.641C382.832 106.598 382.88 106.57 382.932 106.565C382.986 106.558 383.038 106.575 383.078 106.61L394.326 116.335C394.397 116.396 394.415 116.501 394.368 116.584L385.152 132.921C383.066 136.617 379.364 138.797 375.206 138.797ZM357.807 96.7199C357.453 96.7199 357.076 96.7828 356.725 96.9654C356.037 97.3231 355.578 98.0707 355.361 99.1875C355.345 99.2721 355.277 99.3361 355.193 99.3455C355.184 99.3465 354.299 99.458 353.792 100.205C353.397 100.788 353.324 101.606 353.577 102.635C353.597 102.717 353.564 102.802 353.495 102.848C353.465 102.869 352.752 103.361 352.733 104.315C352.71 105.462 353.719 106.82 355.649 108.242C355.684 108.267 355.709 108.304 355.721 108.346C355.756 108.464 359.232 120.282 365.294 132.223C367.176 135.985 370.771 138.293 374.909 138.399C379.051 138.502 382.751 136.383 384.816 132.724L393.952 116.53L382.983 107.046L376.838 115.259C376.8 115.31 376.74 115.34 376.679 115.337C376.616 115.335 376.559 115.303 376.524 115.25C374.679 112.469 372.926 109.48 371.231 106.59C368.414 101.789 365.755 97.2545 363.162 94.5225C358.946 90.0807 357.837 90.3867 357.597 90.5856C356.895 91.1685 357.858 94.275 359.504 96.7411C359.553 96.8144 359.548 96.9121 359.492 96.9798C359.435 97.0476 359.341 97.0685 359.263 97.0313C359.253 97.0268 358.588 96.7198 357.807 96.7198L357.807 96.7199Z" fill="black"/>
<path d="M366.016 110.982C365.089 110.982 364.288 110.316 363.853 109.687C363.416 109.055 363.164 108.321 362.921 107.611C362.861 107.436 362.801 107.26 362.738 107.086C362.468 106.339 362.062 105.414 361.316 104.89C360.961 104.64 360.553 104.492 360.122 104.335C359.923 104.263 359.717 104.188 359.518 104.103C358.94 103.856 358.209 103.398 358.006 102.616C357.734 101.569 358.612 100.544 359.571 100.278C360.512 100.017 361.489 100.279 362.405 100.6C364.816 101.446 366.826 102.594 368.379 104.011C368.458 104.084 368.465 104.209 368.394 104.29C368.323 104.371 368.2 104.378 368.12 104.305C366.606 102.923 364.641 101.802 362.279 100.973C361.422 100.673 360.512 100.426 359.673 100.659C358.891 100.876 358.172 101.715 358.38 102.515C358.543 103.141 359.17 103.526 359.668 103.739C359.857 103.82 360.058 103.893 360.252 103.963C360.688 104.122 361.139 104.286 361.536 104.565C362.372 105.152 362.811 106.148 363.101 106.95C363.165 107.126 363.226 107.303 363.287 107.481C363.521 108.165 363.763 108.873 364.169 109.46C364.593 110.071 365.405 110.727 366.299 110.561C366.404 110.542 366.505 110.613 366.524 110.72C366.543 110.828 366.473 110.93 366.368 110.95C366.249 110.972 366.132 110.982 366.016 110.982Z" fill="black"/>
<path d="M360.274 106.168C359.714 106.168 359.202 105.894 358.852 105.677C356.864 104.445 355.54 102.209 355.395 99.8414C355.388 99.7327 355.469 99.6389 355.576 99.6321C355.684 99.6252 355.775 99.7081 355.781 99.8169C355.918 102.057 357.172 104.174 359.053 105.34C359.596 105.676 360.032 105.811 360.425 105.764C360.842 105.714 361.282 105.353 361.246 104.916C361.237 104.807 361.316 104.712 361.423 104.702C361.534 104.693 361.623 104.774 361.632 104.883C361.687 105.555 361.076 106.084 360.471 106.156C360.404 106.164 360.339 106.168 360.274 106.168Z" fill="black"/>
<path d="M357.784 106.627C357.463 106.627 357.114 106.54 356.707 106.362C355.347 105.768 354.243 104.627 353.68 103.232C353.64 103.131 353.687 103.016 353.785 102.974C353.885 102.933 353.998 102.981 354.038 103.082C354.563 104.382 355.591 105.446 356.859 105.999C357.316 106.199 357.679 106.267 357.999 106.214C358.322 106.161 358.682 105.921 358.746 105.566C358.766 105.459 358.865 105.387 358.972 105.407C359.077 105.427 359.146 105.53 359.127 105.637C359.041 106.117 358.602 106.515 358.061 106.604C357.97 106.619 357.878 106.627 357.784 106.627L357.784 106.627Z" fill="black"/>
<path d="M355.903 107.93C355.712 107.93 355.521 107.89 355.347 107.806C355.251 107.76 355.209 107.642 355.255 107.543C355.301 107.445 355.416 107.403 355.513 107.449C355.821 107.598 356.211 107.554 356.481 107.341C356.751 107.127 356.889 106.754 356.825 106.412C356.805 106.305 356.874 106.201 356.978 106.181C357.084 106.16 357.185 106.23 357.205 106.337C357.296 106.822 357.101 107.351 356.718 107.653C356.487 107.836 356.195 107.931 355.903 107.931V107.93Z" fill="black"/>
<path d="M434.888 167.57H379.844C379.844 167.57 386.397 148.604 390.049 140.906L423.344 143.437L434.888 167.571L434.888 167.57Z" fill="white"/>
<path d="M434.888 167.768H379.844C379.781 167.768 379.722 167.737 379.686 167.685C379.65 167.632 379.641 167.565 379.661 167.505C379.727 167.315 386.26 148.44 389.875 140.82C389.909 140.747 389.985 140.702 390.063 140.709L423.358 143.24C423.427 143.246 423.488 143.288 423.518 143.351L435.062 167.484C435.091 167.545 435.088 167.617 435.052 167.675C435.017 167.733 434.955 167.768 434.888 167.768H434.888ZM380.118 167.373H434.578L423.219 143.626L390.166 141.113C386.785 148.291 380.92 165.067 380.118 167.373Z" fill="black"/>
<path d="M422.035 144.212C422.025 144.261 390.19 142.715 390.19 142.715V118.591L381.779 106.761C381.779 106.761 389.489 95.8494 409.949 99.2655C428.226 102.317 433.324 114.256 433.324 114.256L418.65 124.121L422.035 144.211V144.212Z" fill="#195DFF"/>
<path d="M383.045 150.095H404.5C405.374 150.095 406.023 149.269 405.832 148.398L398.385 114.449C398.159 113.419 397.262 112.686 396.226 112.686H375.073C374.004 112.686 373.211 113.696 373.444 114.76L380.792 148.255C381.028 149.33 381.964 150.095 383.045 150.095Z" fill="black"/>
<path d="M431.992 115.14L418.65 124.121L417.418 135.56C417.418 135.56 402.961 125.478 398.907 123.387C394.853 121.297 388.49 121.14 387.436 122.423C386.381 123.706 389.558 124.577 389.558 124.577C389.558 124.577 385.372 124.693 385.337 125.928C385.303 127.164 390.793 128.749 390.793 128.749C390.793 128.749 386.647 127.792 385.6 128.682C384.553 129.572 385.225 130.795 389.634 132.153C389.634 132.153 387.159 131.75 386.891 133.25C386.69 134.37 393.544 137.019 397.348 138.101C397.348 138.101 405.674 147.128 415.575 154.32C420.917 158.202 428.409 156.064 430.972 149.907C434.371 141.743 437.167 129.618 431.992 115.14H431.992Z" fill="white"/>
<path d="M421.527 156.469C419.378 156.469 417.264 155.79 415.462 154.481C405.659 147.36 397.29 138.327 397.207 138.236C397.134 138.157 397.137 138.032 397.215 137.957C397.293 137.883 397.415 137.886 397.489 137.966C397.572 138.056 405.916 147.062 415.687 154.16C418.192 155.979 421.323 156.535 424.279 155.684C427.223 154.836 429.598 152.702 430.794 149.83C435.575 138.346 435.917 126.697 431.81 115.207C431.773 115.105 431.825 114.991 431.926 114.954C432.026 114.917 432.138 114.969 432.174 115.072C436.316 126.659 435.971 138.405 431.15 149.984C429.908 152.967 427.442 155.183 424.384 156.064C423.441 156.335 422.48 156.469 421.527 156.469H421.527Z" fill="black"/>
<path d="M395.571 126.522C395.54 126.522 395.508 126.514 395.478 126.498C393.771 125.544 391.843 124.958 389.901 124.805C389.794 124.797 389.714 124.702 389.723 124.593C389.731 124.485 389.823 124.404 389.931 124.412C391.927 124.569 393.909 125.17 395.664 126.151C395.758 126.204 395.793 126.324 395.741 126.419C395.706 126.485 395.64 126.522 395.571 126.522L395.571 126.522Z" fill="black"/>
<path d="M394.237 130.243C394.211 130.243 394.183 130.237 394.157 130.225C393.139 129.751 392.079 129.349 391.005 129.032C390.902 129.001 390.843 128.892 390.873 128.787C390.903 128.682 391.01 128.622 391.113 128.652C392.205 128.975 393.283 129.383 394.318 129.866C394.415 129.911 394.458 130.028 394.414 130.128C394.381 130.2 394.311 130.243 394.237 130.243L394.237 130.243Z" fill="black"/>
<path d="M393.77 133.69C393.744 133.69 393.717 133.684 393.692 133.673C392.453 133.117 391.153 132.695 389.827 132.421C389.722 132.399 389.655 132.295 389.676 132.188C389.697 132.081 389.798 132.012 389.904 132.034C391.257 132.314 392.584 132.744 393.848 133.312C393.946 133.356 393.99 133.472 393.947 133.572C393.915 133.646 393.844 133.69 393.77 133.69Z" fill="black"/>
<path d="M423.239 140.602C423.197 140.602 423.154 140.588 423.118 140.559L417.529 135.988C417.446 135.919 417.432 135.795 417.499 135.71C417.566 135.625 417.688 135.611 417.771 135.679L423.36 140.25C423.444 140.319 423.457 140.443 423.39 140.528C423.352 140.577 423.296 140.602 423.239 140.602Z" fill="black"/>
<path d="M416.069 86.8232L413.643 99.4988L416.913 101.026C416.913 101.026 407.043 116.491 401.89 119.73C401.89 119.73 400.398 107.743 402.659 98.6046L405.879 98.4072L407.948 91.0029L416.069 86.8232Z" fill="white"/>
<path d="M406.66 77.9509C406.66 77.9509 402.235 89.6229 405.848 92.502C409.461 95.3812 415.27 88.757 415.27 88.757C415.27 88.757 418.89 88.9584 418.89 85.363C418.89 83.0866 415.786 83.0965 415.091 85.363C415.091 85.363 413.654 85.8856 413.802 84.9164C413.949 83.9472 415.352 77.6295 406.66 77.9508L406.66 77.9509Z" fill="white"/>
<path d="M407.959 93.4323C407.178 93.4323 406.419 93.2077 405.728 92.6577C402.045 89.722 406.296 78.3617 406.479 77.8797C406.507 77.806 406.575 77.7564 406.653 77.7535C409.65 77.6432 411.791 78.306 413.01 79.7254C414.561 81.5316 414.15 84.0012 414.015 84.8127L413.993 84.9468C413.961 85.1564 414.028 85.2132 414.05 85.2317C414.205 85.3626 414.634 85.301 414.938 85.2065C415.391 83.892 416.622 83.3378 417.575 83.4865C418.304 83.6003 419.084 84.1529 419.084 85.363C419.084 86.4625 418.757 87.3351 418.114 87.9561C417.132 88.9048 415.728 88.9579 415.354 88.9567C414.816 89.5552 411.202 93.4322 407.959 93.4322V93.4323ZM406.795 78.1439C406.342 79.3894 402.701 89.744 405.967 92.3465C406.571 92.8278 407.244 93.0264 407.944 93.0264C411.22 93.0267 415.079 88.6789 415.126 88.6254C415.165 88.5808 415.223 88.5561 415.281 88.5599C415.295 88.5607 416.853 88.6322 417.85 87.6676C418.411 87.1241 418.696 86.3487 418.696 85.3631C418.696 84.5478 418.255 83.9922 417.516 83.877C416.701 83.7496 415.636 84.2477 415.275 85.4221C415.257 85.4812 415.213 85.5282 415.155 85.549C415.06 85.5838 414.21 85.8792 413.803 85.5362C413.685 85.4365 413.556 85.2429 413.61 84.8862C413.616 84.8478 413.624 84.801 413.633 84.7466C413.76 83.9809 414.149 81.6507 412.718 79.9857C411.597 78.6798 409.599 78.0617 406.795 78.1439Z" fill="black"/>
<path d="M415.288 87.7863C415.262 87.7863 415.235 87.781 415.21 87.7696C415.112 87.7256 415.068 87.6091 415.111 87.5093C415.422 86.7876 416.275 86.2899 417.135 86.3217C417.242 86.3259 417.325 86.4176 417.321 86.5265C417.317 86.6358 417.219 86.7193 417.12 86.7164C416.42 86.6906 415.711 87.0983 415.465 87.6683C415.433 87.7423 415.362 87.7863 415.288 87.7863Z" fill="black"/>
<path d="M306.526 75.4417H199.043C197.828 75.4417 196.843 76.4464 196.843 77.6858V218.443C196.843 219.683 197.828 220.688 199.043 220.688H306.526C307.741 220.688 308.726 219.683 308.726 218.443V77.6858C308.726 76.4464 307.741 75.4417 306.526 75.4417Z" fill="white"/>
<path d="M306.526 220.885H199.044C197.723 220.885 196.649 219.79 196.649 218.443V77.6858C196.649 76.3395 197.723 75.2442 199.044 75.2442H306.526C307.846 75.2442 308.92 76.3395 308.92 77.6858V218.443C308.92 219.79 307.846 220.885 306.526 220.885ZM199.044 75.6391C197.937 75.6391 197.037 76.5573 197.037 77.6858V218.443C197.037 219.572 197.937 220.49 199.044 220.49H306.526C307.633 220.49 308.533 219.572 308.533 218.443V77.6858C308.533 76.5573 307.633 75.6391 306.526 75.6391H199.044Z" fill="black"/>
<path d="M302.91 214.954H202.66C202.553 214.954 202.466 214.865 202.466 214.756V81.3731C202.466 81.264 202.553 81.1756 202.66 81.1756H302.91C303.017 81.1756 303.104 81.264 303.104 81.3731V214.756C303.104 214.865 303.017 214.954 302.91 214.954ZM202.854 214.559H302.717V81.5705H202.854V214.559Z" fill="black"/>
<path d="M275.943 87.0536H229.627C225.673 87.0536 222.467 83.7848 222.467 79.7525V69.2961H283.102V79.7525C283.102 83.7848 279.897 87.0536 275.943 87.0536Z" fill="#E2EAFF"/>
<path d="M294.864 121.17H261.509C261.402 121.17 261.315 121.081 261.315 120.972C261.315 120.863 261.402 120.775 261.509 120.775H294.864C294.971 120.775 295.057 120.863 295.057 120.972C295.057 121.081 294.971 121.17 294.864 121.17Z" fill="black"/>
<path d="M249.727 121.17H234.833C234.726 121.17 234.639 121.081 234.639 120.972C234.639 120.863 234.726 120.775 234.833 120.775H249.727C249.834 120.775 249.92 120.863 249.92 120.972C249.92 121.081 249.834 121.17 249.727 121.17Z" fill="black"/>
<path d="M294.864 129.901H271.512C271.405 129.901 271.318 129.813 271.318 129.704C271.318 129.595 271.405 129.506 271.512 129.506H294.864C294.971 129.506 295.057 129.595 295.057 129.704C295.057 129.813 294.971 129.901 294.864 129.901Z" fill="black"/>
<path d="M263.954 129.901H234.833C234.726 129.901 234.639 129.813 234.639 129.704C234.639 129.595 234.726 129.506 234.833 129.506H263.954C264.061 129.506 264.147 129.595 264.147 129.704C264.147 129.813 264.061 129.901 263.954 129.901Z" fill="black"/>
<path d="M294.864 138.633H258.792C258.685 138.633 258.598 138.544 258.598 138.435C258.598 138.326 258.685 138.238 258.792 138.238H294.864C294.971 138.238 295.058 138.326 295.058 138.435C295.058 138.544 294.971 138.633 294.864 138.633Z" fill="black"/>
<path d="M249.899 138.633H234.833C234.726 138.633 234.639 138.544 234.639 138.435C234.639 138.326 234.726 138.238 234.833 138.238H249.899C250.006 138.238 250.093 138.326 250.093 138.435C250.093 138.544 250.006 138.633 249.899 138.633Z" fill="black"/>
<path d="M227.859 138.633H210.734C210.627 138.633 210.541 138.544 210.541 138.435V120.972C210.541 120.863 210.627 120.775 210.734 120.775H226.878C226.985 120.775 227.072 120.863 227.072 120.972C227.072 121.081 226.985 121.17 226.878 121.17H210.928V138.238H227.665V125.664C227.665 125.555 227.752 125.466 227.859 125.466C227.966 125.466 228.053 125.555 228.053 125.664V138.435C228.053 138.544 227.966 138.633 227.859 138.633Z" fill="black"/>
<path d="M219.296 135.635H219.296C219.234 135.635 219.175 135.604 219.139 135.553L212.43 125.974C212.367 125.885 212.388 125.762 212.475 125.698C212.562 125.635 212.682 125.656 212.745 125.744L219.297 135.099L230.833 118.707C230.895 118.618 231.016 118.598 231.103 118.661C231.19 118.725 231.21 118.848 231.147 118.937L219.454 135.553C219.418 135.605 219.359 135.635 219.297 135.635L219.296 135.635Z" fill="black"/>
<path d="M294.864 150.167H261.509C261.402 150.167 261.315 150.079 261.315 149.97C261.315 149.861 261.402 149.772 261.509 149.772H294.864C294.971 149.772 295.057 149.861 295.057 149.97C295.057 150.079 294.971 150.167 294.864 150.167Z" fill="black"/>
<path d="M249.727 150.167H234.833C234.726 150.167 234.639 150.079 234.639 149.97C234.639 149.861 234.726 149.772 234.833 149.772H249.727C249.834 149.772 249.92 149.861 249.92 149.97C249.92 150.079 249.834 150.167 249.727 150.167Z" fill="black"/>
<path d="M294.864 158.898H271.512C271.405 158.898 271.318 158.81 271.318 158.701C271.318 158.592 271.405 158.504 271.512 158.504H294.864C294.971 158.504 295.057 158.592 295.057 158.701C295.057 158.81 294.971 158.898 294.864 158.898Z" fill="black"/>
<path d="M263.954 158.898H234.833C234.726 158.898 234.639 158.81 234.639 158.701C234.639 158.592 234.726 158.504 234.833 158.504H263.954C264.061 158.504 264.147 158.592 264.147 158.701C264.147 158.81 264.061 158.898 263.954 158.898Z" fill="black"/>
<path d="M294.864 167.63H258.792C258.685 167.63 258.598 167.542 258.598 167.433C258.598 167.324 258.685 167.235 258.792 167.235H294.864C294.971 167.235 295.058 167.324 295.058 167.433C295.058 167.542 294.971 167.63 294.864 167.63Z" fill="black"/>
<path d="M249.899 167.63H234.833C234.726 167.63 234.639 167.542 234.639 167.433C234.639 167.324 234.726 167.235 234.833 167.235H249.899C250.006 167.235 250.093 167.324 250.093 167.433C250.093 167.542 250.006 167.63 249.899 167.63Z" fill="black"/>
<path d="M227.859 167.63H210.734C210.627 167.63 210.541 167.541 210.541 167.432V149.969C210.541 149.86 210.627 149.772 210.734 149.772H226.878C226.985 149.772 227.072 149.86 227.072 149.969C227.072 150.078 226.985 150.167 226.878 150.167H210.928V167.235H227.665V154.661C227.665 154.552 227.752 154.463 227.859 154.463C227.966 154.463 228.053 154.552 228.053 154.661V167.432C228.053 167.541 227.966 167.63 227.859 167.63Z" fill="black"/>
<path d="M219.296 164.633H219.296C219.234 164.632 219.175 164.602 219.139 164.55L212.43 154.971C212.367 154.882 212.388 154.759 212.475 154.696C212.562 154.632 212.682 154.653 212.745 154.742L219.297 164.096L230.833 147.704C230.895 147.615 231.016 147.595 231.103 147.659C231.19 147.722 231.21 147.846 231.147 147.934L219.454 164.55C219.418 164.602 219.359 164.633 219.296 164.633Z" fill="black"/>
<path d="M294.864 179.164H261.509C261.402 179.164 261.315 179.076 261.315 178.967C261.315 178.858 261.402 178.769 261.509 178.769H294.864C294.971 178.769 295.057 178.858 295.057 178.967C295.057 179.076 294.971 179.164 294.864 179.164Z" fill="black"/>
<path d="M249.727 179.164H234.833C234.726 179.164 234.639 179.076 234.639 178.967C234.639 178.858 234.726 178.769 234.833 178.769H249.727C249.834 178.769 249.92 178.858 249.92 178.967C249.92 179.076 249.834 179.164 249.727 179.164Z" fill="black"/>
<path d="M294.864 187.896H271.512C271.405 187.896 271.318 187.807 271.318 187.698C271.318 187.589 271.405 187.501 271.512 187.501H294.864C294.971 187.501 295.057 187.589 295.057 187.698C295.057 187.807 294.971 187.896 294.864 187.896Z" fill="black"/>
<path d="M263.954 187.896H234.833C234.726 187.896 234.639 187.807 234.639 187.698C234.639 187.589 234.726 187.501 234.833 187.501H263.954C264.061 187.501 264.147 187.589 264.147 187.698C264.147 187.807 264.061 187.896 263.954 187.896Z" fill="black"/>
<path d="M294.864 196.627H258.792C258.685 196.627 258.598 196.539 258.598 196.43C258.598 196.321 258.685 196.232 258.792 196.232H294.864C294.971 196.232 295.058 196.321 295.058 196.43C295.058 196.539 294.971 196.627 294.864 196.627Z" fill="black"/>
<path d="M249.899 196.627H234.833C234.726 196.627 234.639 196.539 234.639 196.43C234.639 196.321 234.726 196.232 234.833 196.232H249.899C250.006 196.232 250.093 196.321 250.093 196.43C250.093 196.539 250.006 196.627 249.899 196.627Z" fill="black"/>
<path d="M227.859 196.627H210.734C210.627 196.627 210.541 196.539 210.541 196.43V178.967C210.541 178.858 210.627 178.769 210.734 178.769H226.878C226.985 178.769 227.072 178.858 227.072 178.967C227.072 179.076 226.985 179.164 226.878 179.164H210.928V196.232H227.665V183.658C227.665 183.549 227.752 183.461 227.859 183.461C227.966 183.461 228.053 183.549 228.053 183.658V196.43C228.053 196.539 227.966 196.627 227.859 196.627Z" fill="black"/>
<path d="M219.296 193.63H219.296C219.234 193.63 219.175 193.599 219.139 193.547L212.43 183.969C212.367 183.88 212.388 183.757 212.475 183.693C212.562 183.63 212.682 183.65 212.745 183.739L219.297 193.093L230.833 176.701C230.895 176.613 231.016 176.592 231.103 176.656C231.19 176.72 231.21 176.843 231.147 176.932L219.454 193.548C219.418 193.599 219.359 193.63 219.296 193.63Z" fill="black"/>
<path d="M294.864 95.5663H210.734V110.878H294.864V95.5663Z" fill="#E2EAFF"/>
<path d="M330.707 113.016C337.403 106.189 337.403 95.1189 330.707 88.2913C324.012 81.4636 313.156 81.4636 306.461 88.2913C299.766 95.1189 299.766 106.189 306.461 113.016C313.156 119.844 324.012 119.844 330.707 113.016Z" fill="white"/>
<path d="M318.584 118.335C309.024 118.335 301.246 110.403 301.246 100.654C301.246 90.9046 309.024 82.9731 318.584 82.9731C328.144 82.9731 335.922 90.9047 335.922 100.654C335.922 110.403 328.144 118.335 318.584 118.335ZM318.584 83.368C309.237 83.368 301.633 91.1224 301.633 100.654C301.633 110.185 309.237 117.94 318.584 117.94C327.931 117.94 335.535 110.185 335.535 100.654C335.535 91.1224 327.931 83.368 318.584 83.368Z" fill="#195DFF"/>
<path d="M328.115 110.373C333.379 105.005 333.379 96.3022 328.115 90.9343C322.851 85.5664 314.317 85.5664 309.053 90.9343C303.789 96.3022 303.789 105.005 309.053 110.373C314.317 115.741 322.851 115.741 328.115 110.373Z" fill="white"/>
<path d="M318.584 114.597C311.045 114.597 304.911 108.342 304.911 100.654C304.911 92.9657 311.045 86.711 318.584 86.711C326.123 86.711 332.257 92.9657 332.257 100.654C332.257 108.342 326.123 114.597 318.584 114.597ZM318.584 87.1059C311.258 87.1059 305.298 93.1835 305.298 100.654C305.298 108.124 311.258 114.202 318.584 114.202C325.909 114.202 331.869 108.124 331.869 100.654C331.869 93.1835 325.91 87.1059 318.584 87.1059Z" fill="#195DFF"/>
<path d="M320.378 113.017C327.073 106.189 327.073 95.1191 320.378 88.2914C313.682 81.4637 302.827 81.4637 296.131 88.2914C289.436 95.1191 289.436 106.189 296.131 113.017C302.827 119.844 313.682 119.844 320.378 113.017Z" fill="white"/>
<path d="M308.255 118.335C298.694 118.335 290.917 110.403 290.917 100.654C290.917 90.9046 298.694 82.9732 308.255 82.9732C317.815 82.9732 325.593 90.9047 325.593 100.654C325.593 110.403 317.815 118.335 308.255 118.335ZM308.255 83.3681C298.908 83.3681 291.304 91.1224 291.304 100.654C291.304 110.185 298.908 117.94 308.255 117.94C317.601 117.94 325.206 110.185 325.206 100.654C325.206 91.1224 317.601 83.3681 308.255 83.3681Z" fill="#195DFF"/>
<path d="M317.785 110.373C323.049 105.005 323.049 96.3023 317.785 90.9344C312.522 85.5665 303.987 85.5665 298.723 90.9344C293.459 96.3023 293.459 105.005 298.723 110.373C303.987 115.741 312.522 115.741 317.785 110.373Z" fill="white"/>
<path d="M308.254 114.597C300.715 114.597 294.582 108.342 294.582 100.654C294.582 92.9658 300.715 86.711 308.254 86.711C315.793 86.711 321.927 92.9658 321.927 100.654C321.927 108.342 315.793 114.597 308.254 114.597ZM308.254 87.1059C300.929 87.1059 294.969 93.1836 294.969 100.654C294.969 108.124 300.929 114.202 308.254 114.202C315.58 114.202 321.54 108.124 321.54 100.654C321.54 93.1836 315.58 87.1059 308.254 87.1059Z" fill="#195DFF"/>
<path d="M310.048 113.017C316.743 106.189 316.743 95.119 310.048 88.2913C303.353 81.4636 292.497 81.4636 285.802 88.2913C279.106 95.119 279.106 106.189 285.802 113.017C292.497 119.844 303.353 119.844 310.048 113.017Z" fill="#195DFF"/>
<path d="M297.925 114.597C290.386 114.597 284.252 108.342 284.252 100.654C284.252 92.9657 290.386 86.7109 297.925 86.7109C305.464 86.7109 311.597 92.9657 311.597 100.654C311.597 108.342 305.464 114.597 297.925 114.597ZM297.925 87.1058C290.599 87.1058 284.639 93.1835 284.639 100.654C284.639 108.124 290.599 114.202 297.925 114.202C305.251 114.202 311.21 108.124 311.21 100.654C311.21 93.1835 305.25 87.1058 297.925 87.1058Z" fill="white"/>
<path d="M297.043 111.512V108.841C295.539 108.814 293.982 108.338 293.074 107.677L293.697 105.904C294.631 106.539 295.979 107.042 297.432 107.042C299.274 107.042 300.519 105.957 300.519 104.45C300.519 102.995 299.507 102.096 297.588 101.302C294.942 100.244 293.308 99.0272 293.308 96.726C293.308 94.5304 294.838 92.864 297.225 92.4673V89.7957H298.833V92.3614C300.389 92.4143 301.452 92.8376 302.205 93.2872L301.556 95.0331C301.011 94.7157 299.948 94.1337 298.288 94.1337C296.291 94.1337 295.539 95.3505 295.539 96.4086C295.539 97.784 296.498 98.4718 298.755 99.424C301.427 100.535 302.776 101.91 302.776 104.265C302.776 106.354 301.349 108.312 298.677 108.761V111.512H297.043L297.043 111.512Z" fill="white"/>
<path d="M268.417 202.392H283.305C285.379 202.392 287.062 204.109 287.062 206.223V229.353C287.062 231.467 285.379 233.184 283.305 233.184H268.417C266.343 233.184 264.66 231.467 264.66 229.353V206.223C264.66 204.109 266.343 202.392 268.417 202.392Z" fill="white"/>
<path d="M283.305 233.381H268.416C266.238 233.381 264.466 231.574 264.466 229.353V206.223C264.466 204.002 266.238 202.195 268.416 202.195H283.305C285.483 202.195 287.255 204.002 287.255 206.223V229.353C287.255 231.574 285.483 233.381 283.305 233.381ZM268.416 202.59C266.452 202.59 264.854 204.22 264.854 206.223V229.353C264.854 231.356 266.452 232.986 268.416 232.986H283.305C285.27 232.986 286.868 231.356 286.868 229.353V206.223C286.868 204.22 285.27 202.59 283.305 202.59H268.416Z" fill="black"/>
<path d="M400.251 227.489L390.161 232.762C388.314 233.726 386.051 232.982 385.104 231.099L370.147 201.333C369.201 199.451 369.931 197.142 371.777 196.177L381.867 190.905C383.714 189.94 385.977 190.684 386.924 192.567L401.881 222.333C402.827 224.216 402.097 226.524 400.251 227.489Z" fill="white"/>
<path d="M388.452 233.382C388.044 233.382 387.635 233.317 387.236 233.186C386.231 232.856 385.413 232.147 384.932 231.189L369.975 201.423C368.981 199.447 369.751 197.014 371.689 196.001L381.779 190.729C383.718 189.716 386.103 190.5 387.096 192.477L402.053 222.243C402.535 223.2 402.621 224.292 402.298 225.316C401.974 226.34 401.278 227.174 400.339 227.665L390.249 232.937C389.683 233.233 389.07 233.383 388.452 233.383L388.452 233.382ZM383.575 190.681C383.028 190.681 382.474 190.809 381.956 191.08L371.865 196.353C370.117 197.266 369.424 199.46 370.319 201.243L385.277 231.009C385.711 231.873 386.449 232.513 387.354 232.81C388.26 233.108 389.225 233.028 390.072 232.586L400.163 227.313C401.01 226.871 401.637 226.118 401.929 225.195C402.221 224.271 402.143 223.287 401.709 222.423L386.751 192.657C386.121 191.403 384.87 190.681 383.575 190.681Z" fill="black"/>
<path d="M393.776 157.1L387.994 157.951C386.669 158.146 385.693 159.205 385.693 160.449V164.49C385.693 165.498 385.026 166.403 384.012 166.769L383.854 166.826C379.009 154.478 372.132 140.473 368.659 137.255C362.258 131.323 289.843 131.819 283.978 137.255C278.838 142.017 272.715 155.075 268.459 166.737C267.491 166.354 266.857 165.471 266.857 164.49V160.449C266.857 159.205 265.881 158.146 264.556 157.951L258.774 157.1C255.63 156.638 252.785 158.889 252.785 161.839C252.785 163.863 254.155 165.669 256.209 166.354L267.288 170.049C265.75 174.541 264.55 178.666 263.867 181.816C262.378 188.686 263.857 209.844 263.857 209.844C263.857 209.844 273.733 214.03 277.265 214.639C301.377 218.802 351.26 218.802 375.372 214.639C378.904 214.03 388.779 209.844 388.779 209.844C392.649 201.161 379.844 203.029 388.895 190.793C391.263 187.593 381.381 186.468 380.899 184.247C380.237 181.192 386.787 174.63 385.106 170.101L396.341 166.354C398.396 165.669 399.766 163.863 399.766 161.839C399.766 158.889 396.92 156.638 393.776 157.1V157.1Z" fill="#195DFF"/>
<path d="M379.544 164.554C375.078 153.644 369.322 142.183 366.298 139.38C360.254 133.779 291.877 134.247 286.338 139.38C281.841 143.549 276.544 154.446 272.594 164.786C296.441 160.626 355.115 160.29 379.544 164.554Z" fill="white"/>
<path d="M297.053 214.566C315.164 216.064 337.472 216.064 355.583 214.566L354.402 207.618C353.791 204.021 350.979 201.419 347.704 201.419H304.932C301.658 201.419 298.845 204.021 298.234 207.618L297.053 214.566Z" fill="white"/>
<path d="M342.043 203.928H310.594V213.449H342.043V203.928Z" fill="white"/>
<path d="M342.043 213.646H310.594C310.487 213.646 310.4 213.558 310.4 213.449V203.928C310.4 203.819 310.487 203.731 310.594 203.731H342.043C342.15 203.731 342.237 203.819 342.237 203.928V213.449C342.237 213.558 342.15 213.646 342.043 213.646ZM310.788 213.251H341.849V204.125H310.788V213.251Z" fill="black"/>
<path d="M348.642 187.979C334.827 187.278 317.81 187.278 303.995 187.979L304.896 191.231C305.362 192.915 307.507 194.133 310.005 194.133H342.632C345.13 194.133 347.275 192.915 347.741 191.231L348.642 187.979Z" fill="white"/>
<path d="M281.955 210.274L269.566 207.847C268.475 207.633 267.881 206.536 268.348 205.598L270.092 202.096C270.432 201.414 271.235 201.041 272.028 201.196L285.322 203.8C286.559 204.042 287.111 205.388 286.36 206.331L283.711 209.655C283.307 210.162 282.621 210.404 281.955 210.274Z" fill="white"/>
<path d="M291.919 189.432L284.16 192.669C283.507 192.942 282.755 192.925 282.117 192.625L269.536 186.712C268.989 186.455 268.57 186.01 268.37 185.473L267.401 182.878C266.78 181.216 268.415 179.587 270.249 180.04L291.558 185.311C292.594 185.567 293.315 186.437 293.315 187.431C293.315 188.294 292.769 189.078 291.919 189.432H291.919Z" fill="white"/>
<path d="M370.912 210.274L383.301 207.847C384.392 207.633 384.986 206.536 384.519 205.598L382.775 202.096C382.435 201.414 381.632 201.041 380.839 201.196L367.545 203.8C366.308 204.042 365.756 205.388 366.507 206.331L369.155 209.655C369.56 210.162 370.246 210.404 370.912 210.273L370.912 210.274Z" fill="white"/>
<path d="M371.017 213.646C371.008 213.646 370.999 213.646 370.99 213.645L361.415 212.294C361.342 212.284 361.282 212.233 361.258 212.163L357.976 202.485L353.703 196.547C353.643 196.464 353.656 196.348 353.732 196.28L358.701 191.889C357.052 188.075 354.298 182.036 353.751 181.663C353.677 181.612 353.64 181.53 353.65 181.442C353.679 181.199 353.727 180.794 367.78 175.391C374.673 172.741 381.644 170.161 381.713 170.136C381.813 170.098 381.925 170.151 381.961 170.254C381.998 170.356 381.946 170.47 381.845 170.507C371.302 174.407 355.551 180.422 354.104 181.469C355.155 182.727 358.695 190.893 359.114 191.863C359.148 191.943 359.127 192.035 359.063 192.092L354.121 196.46L358.306 202.276C358.317 202.292 358.326 202.309 358.332 202.328L361.585 211.92L371.043 213.253C371.149 213.268 371.223 213.368 371.208 213.476C371.195 213.575 371.112 213.646 371.017 213.646L371.017 213.646Z" fill="black"/>
<path d="M364.009 196.627C363.994 196.627 363.978 196.625 363.963 196.622C363.891 196.604 363.835 196.545 363.819 196.471L361.252 184.288C361.241 184.237 361.251 184.182 361.28 184.138C361.308 184.094 361.353 184.063 361.404 184.053L377.987 180.755C378.091 180.734 378.194 180.804 378.214 180.911C378.235 181.018 378.166 181.122 378.061 181.143L361.672 184.402L364.114 195.988L370.877 187.573C370.891 187.555 370.909 187.54 370.929 187.528L377.926 183.344C378.018 183.289 378.137 183.32 378.191 183.414C378.245 183.508 378.214 183.629 378.122 183.685L371.154 187.851L364.158 196.555C364.121 196.601 364.066 196.627 364.009 196.627V196.627Z" fill="black"/>
<path d="M356.108 89.9931H335.115C335.008 89.9931 334.922 89.9047 334.922 89.7956C334.922 89.6866 335.008 89.5982 335.115 89.5982H356.108C356.215 89.5982 356.302 89.6866 356.302 89.7956C356.302 89.9047 356.215 89.9931 356.108 89.9931Z" fill="black"/>
<path d="M359.194 92.2481C360.523 90.8936 360.523 88.6976 359.194 87.3431C357.866 85.9887 355.713 85.9887 354.384 87.3431C353.056 88.6976 353.056 90.8936 354.384 92.2481C355.713 93.6025 357.866 93.6025 359.194 92.2481Z" fill="#195DFF"/>
<path d="M150.93 110.5C158.527 110.5 165.112 111.989 170.666 114.986L171.186 115.266C176.512 118.185 180.652 122.042 183.591 126.839C186.661 131.787 188.177 137.208 188.14 143.088L188.138 143.712C188.06 150.138 186.194 155.641 182.523 160.194C178.855 164.791 173.99 167.9 167.949 169.525V169.636C175.64 170.886 181.657 174.015 185.954 179.053L186.361 179.537C190.496 184.575 192.536 190.762 192.499 198.066C192.538 204.646 190.71 210.555 187.017 215.78L187.018 215.781C183.368 220.997 178.384 225.096 172.08 228.081L172.078 228.082C165.769 231.032 158.562 232.5 150.471 232.5C142.535 232.5 135.429 231.129 129.161 228.375L129.16 228.374C122.934 225.621 117.987 221.794 114.335 216.886L114.332 216.883C110.714 211.929 108.772 206.195 108.5 199.7L108.479 199.18H127.479L127.51 199.646C127.733 203.034 128.861 205.961 130.892 208.443L131.289 208.898C133.316 211.141 135.906 212.899 139.07 214.168C142.445 215.521 146.205 216.202 150.356 216.202C154.925 216.202 158.944 215.408 162.425 213.832L162.427 213.831C165.949 212.253 168.685 210.064 170.654 207.271C172.617 204.447 173.604 201.194 173.604 197.494C173.603 193.635 172.615 190.265 170.649 187.365L170.646 187.359C168.718 184.423 165.873 182.103 162.083 180.41L162.081 180.409C158.338 178.72 153.785 177.866 148.406 177.866H137.982V162.374H148.406C152.705 162.374 156.453 161.598 159.662 160.064L159.664 160.063C162.916 158.527 165.443 156.399 167.262 153.684L167.591 153.164C169.186 150.534 169.989 147.488 169.989 144.011C169.989 140.446 169.186 137.376 167.597 134.782L167.593 134.775C166.038 132.14 163.815 130.075 160.911 128.582L160.909 128.581C158.049 127.092 154.652 126.338 150.7 126.338C146.94 126.338 143.431 127.034 140.17 128.425L140.168 128.427C136.951 129.777 134.345 131.721 132.336 134.257L132.334 134.26C130.342 136.737 129.265 139.719 129.116 143.227L129.097 143.705H110.951L110.967 143.19C111.161 136.731 113.064 131.034 116.685 126.116L116.687 126.114C120.335 121.211 125.145 117.383 131.104 114.629C137.065 111.873 143.676 110.5 150.93 110.5Z" stroke="black"/>
<path d="M307 16H109.5L1.24854 420" stroke="black"/>
</svg>
