<svg width="100" height="100" viewBox="0 0 100 100" fill="none" xmlns="http://www.w3.org/2000/svg">
<path d="M80.6737 97.6636H19.4147C16.0604 97.6636 13.3241 94.9018 13.3241 91.5163V8.48358C13.3241 5.09812 16.0604 2.3363 19.4147 2.3363H80.6737C84.0279 2.3363 86.7643 5.09812 86.7643 8.48358V91.5163C86.676 94.9018 83.9397 97.6636 80.6737 97.6636Z" fill="white" stroke="#212121" stroke-width="2" stroke-linecap="round" stroke-linejoin="round"/>
<path d="M46.1603 84.7454C45.2776 84.7454 44.6597 84.0327 44.6597 83.2309V81.0927C43.1591 80.6473 41.7468 80.1127 40.4227 79.3109L38.9222 80.8254C38.6574 81.0927 38.216 81.2709 37.8629 81.2709C37.4216 81.2709 37.0685 81.0927 36.8037 80.8254L31.4193 75.3909C30.8014 74.7673 30.8014 73.7873 31.4193 73.1636L32.9198 71.6491C32.2137 70.3127 31.5958 68.8873 31.1544 67.3727H29.036C28.5946 67.3727 28.2416 67.1945 27.9767 66.9273C27.7119 66.66 27.5354 66.2145 27.5354 65.8582V58.1073C27.5354 57.2164 28.2416 56.5927 29.036 56.5927H31.1544C31.5958 55.0782 32.1254 53.6527 32.9198 52.3164L31.4193 50.8018C31.1544 50.5345 30.9779 50.0891 30.9779 49.7327C30.9779 49.2873 31.1544 48.9309 31.4193 48.6636L36.8037 43.2291C37.0685 42.9618 37.5098 42.7836 37.8629 42.7836C38.216 42.7836 38.6574 42.9618 38.9222 43.2291L40.4227 44.7436C41.7468 44.0309 43.1591 43.4073 44.6597 42.9618V40.8236C44.6597 39.9327 45.3658 39.3091 46.1603 39.3091H53.8397C54.7224 39.3091 55.3403 40.0218 55.3403 40.8236V42.8727C56.8409 43.3182 58.2532 43.8527 59.5772 44.6545L61.0778 43.14C61.3426 42.8727 61.7839 42.6945 62.137 42.6945C62.5784 42.6945 62.9315 42.8727 63.1963 43.14L68.5807 48.5745C68.8455 48.8418 69.022 49.2873 69.022 49.6436C69.022 50.0891 68.8455 50.4454 68.5807 50.7127L67.0801 52.2273C67.7863 53.5636 68.4042 54.9891 68.8455 56.5036H70.964C71.8467 56.5036 72.4646 57.2164 72.4646 58.0182V65.7691C72.4646 66.66 71.7584 67.2836 70.964 67.2836H68.8455C68.4042 68.7982 67.8745 70.2236 67.0801 71.56L68.5807 73.0745C69.1986 73.6982 69.1986 74.6782 68.5807 75.3018L63.1963 80.7364C62.9315 81.0036 62.4901 81.1818 62.137 81.1818C61.6957 81.1818 61.3426 81.0036 61.0778 80.7364L59.5772 79.2218C58.2532 79.9345 56.8409 80.5582 55.3403 81.0036V83.1418C55.3403 84.0327 54.6341 84.6564 53.8397 84.6564H46.1603V84.7454Z" fill="white" stroke="#212121" stroke-width="2" stroke-linecap="round" stroke-linejoin="round"/>
<path d="M50.0441 72.3618C55.7478 72.3618 60.3716 67.695 60.3716 61.9382C60.3716 56.1813 55.7478 51.5145 50.0441 51.5145C44.3403 51.5145 39.7166 56.1813 39.7166 61.9382C39.7166 67.695 44.3403 72.3618 50.0441 72.3618Z" fill="white" stroke="#212121" stroke-width="2" stroke-linecap="round" stroke-linejoin="round"/>
<path d="M27.4471 16.6801H72.5528" stroke="#212121" stroke-width="2" stroke-linecap="round" stroke-linejoin="round"/>
<path d="M27.4471 27.0145H50.0441" stroke="#212121" stroke-width="2" stroke-linecap="round" stroke-linejoin="round"/>
</svg>
