<svg width="358" height="240" viewBox="0 0 358 240" fill="none" xmlns="http://www.w3.org/2000/svg">
<g clip-path="url(#clip0_1069_460)">
<path d="M354.335 145.547H121.482L111.879 146.951V150.556C111.879 154.9 115.382 158.421 119.703 158.421H349.889C354.21 158.421 357.713 154.9 357.713 150.556V147.674L354.335 145.547H354.335Z" fill="white"/>
<path d="M118.264 0.28895H351.328C354.852 0.28895 357.713 3.16488 357.713 6.70731V147.674H111.879V6.70718C111.879 3.16475 114.74 0.288818 118.264 0.288818V0.28895Z" fill="white"/>
<path d="M357.713 147.963H111.879C111.72 147.963 111.592 147.834 111.592 147.674V6.70715C111.592 3.00879 114.585 0 118.264 0H351.328C355.007 0 358 3.00879 358 6.70715V147.674C358 147.834 357.872 147.963 357.713 147.963ZM112.166 147.385H357.426V6.70715C357.426 3.32734 354.69 0.577574 351.328 0.577574H118.264C114.902 0.577574 112.166 3.32734 112.166 6.70715V147.385Z" fill="black"/>
<path d="M349.316 139.523H120.276C120.117 139.523 119.988 139.394 119.988 139.234V9.3707C119.988 8.85752 120.404 8.43994 120.914 8.43994H348.678C349.188 8.43994 349.604 8.85765 349.604 9.37096V139.234C349.604 139.394 349.475 139.523 349.316 139.523ZM120.563 138.945H349.029V9.37096C349.029 9.17607 348.871 9.01752 348.677 9.01752H120.914C120.72 9.01752 120.563 9.17594 120.563 9.37056V138.945Z" fill="black"/>
<path d="M349.889 158.71H119.703C115.231 158.71 111.592 155.052 111.592 150.556C111.592 150.397 111.72 150.268 111.879 150.268C112.038 150.268 112.166 150.397 112.166 150.556C112.166 154.734 115.547 158.132 119.703 158.132H349.889C354.045 158.132 357.426 154.734 357.426 150.556C357.426 150.397 357.554 150.268 357.713 150.268C357.872 150.268 358 150.397 358 150.556C358 155.052 354.362 158.71 349.889 158.71Z" fill="black"/>
<path d="M338.563 19.1182H131.029V40.4067H338.563V19.1182Z" fill="white"/>
<path d="M338.563 40.6956H131.029C130.871 40.6956 130.742 40.5663 130.742 40.4068V19.1181C130.742 18.9587 130.871 18.8293 131.029 18.8293H338.563C338.722 18.8293 338.85 18.9587 338.85 19.1181V40.4068C338.85 40.5663 338.722 40.6956 338.563 40.6956ZM131.317 40.118H338.276V19.4071H131.317V40.118Z" fill="black"/>
<path d="M338.563 46.2395H131.029V104.33H338.563V46.2395Z" fill="white"/>
<path d="M338.563 104.619H131.029C130.871 104.619 130.742 104.49 130.742 104.33V46.2397C130.742 46.0802 130.871 45.9509 131.029 45.9509H338.563C338.722 45.9509 338.85 46.0802 338.85 46.2397V104.33C338.85 104.49 338.722 104.619 338.563 104.619ZM131.317 104.042H338.276V46.5285H131.317V104.042Z" fill="black"/>
<path d="M310.428 75.4704V53.2244C298.281 53.2244 288.434 63.1842 288.434 75.4704C288.434 87.7566 298.281 97.7163 310.428 97.7163C322.575 97.7163 332.422 87.7564 332.422 75.4704C332.422 71.7567 331.521 68.2564 329.93 65.1786L310.428 75.4704Z" fill="white"/>
<path d="M329.93 65.1786L310.428 53.2244C298.281 53.2244 288.434 63.1842 288.434 75.4703C288.434 87.7563 298.281 97.7162 310.428 97.7162C322.575 97.7162 332.422 87.7564 332.422 75.4703C332.422 71.7567 331.521 68.2564 329.93 65.1786Z" fill="white"/>
<path d="M310.428 98.0051C298.142 98.0051 288.146 87.8961 288.146 75.4704C288.146 63.0447 298.142 52.9355 310.428 52.9355C310.481 52.9355 310.533 52.9502 310.578 52.9778L330.08 64.932C330.125 64.9595 330.161 64.9988 330.186 65.0456C331.837 68.2409 332.71 71.8457 332.71 75.4705C332.71 87.8962 322.714 98.0052 310.428 98.0052L310.428 98.0051ZM310.348 53.5133C298.416 53.5577 288.721 63.3904 288.721 75.4704C288.721 87.5504 298.459 97.4275 310.428 97.4275C322.397 97.4275 332.135 87.5775 332.135 75.4704C332.135 71.9649 331.298 68.4788 329.712 65.383L310.348 53.5133Z" fill="black"/>
<path d="M329.93 65.1786C326.258 58.0739 318.903 53.2244 310.428 53.2244V75.4704L329.93 65.1786Z" fill="#5479F7"/>
<path d="M317.897 82.9789C322.023 78.8321 322.023 72.1088 317.897 67.962C313.772 63.8153 307.083 63.8153 302.958 67.962C298.833 72.1088 298.833 78.8321 302.958 82.9789C307.083 87.1256 313.772 87.1256 317.897 82.9789Z" fill="white"/>
<path d="M310.427 86.3776C304.444 86.3776 299.576 81.4846 299.576 75.4703C299.576 69.456 304.444 64.563 310.427 64.563C310.586 64.563 310.714 64.6923 310.714 64.8518C310.714 65.0113 310.586 65.1406 310.427 65.1406C304.761 65.1406 300.151 69.7745 300.151 75.4703C300.151 81.166 304.761 85.8 310.427 85.8C316.094 85.8 320.704 81.166 320.704 75.4703C320.704 73.7505 320.275 72.048 319.464 70.5467C319.388 70.4065 319.439 70.2312 319.579 70.155C319.718 70.0792 319.892 70.1309 319.969 70.2709C320.825 71.8568 321.278 73.6545 321.278 75.4703C321.278 81.4846 316.41 86.3776 310.427 86.3776Z" fill="black"/>
<path d="M215.965 104.619C215.806 104.619 215.678 104.49 215.678 104.33V46.2397C215.678 46.0802 215.806 45.9509 215.965 45.9509C216.124 45.9509 216.252 46.0802 216.252 46.2397V104.33C216.252 104.49 216.124 104.619 215.965 104.619Z" fill="black"/>
<path d="M208.467 58.0461H138.512C138.353 58.0461 138.225 57.9168 138.225 57.7573C138.225 57.5978 138.353 57.4685 138.512 57.4685H208.467C208.625 57.4685 208.754 57.5978 208.754 57.7573C208.754 57.9168 208.625 58.0461 208.467 58.0461Z" fill="black"/>
<path d="M274.838 58.0461H222.936C222.777 58.0461 222.648 57.9168 222.648 57.7573C222.648 57.5978 222.777 57.4685 222.936 57.4685H274.838C274.996 57.4685 275.125 57.5978 275.125 57.7573C275.125 57.9168 274.996 58.0461 274.838 58.0461Z" fill="black"/>
<path d="M208.467 69.1977H138.512C138.353 69.1977 138.225 69.0684 138.225 68.9089C138.225 68.7494 138.353 68.6201 138.512 68.6201H208.467C208.625 68.6201 208.754 68.7494 208.754 68.9089C208.754 69.0684 208.625 69.1977 208.467 69.1977Z" fill="black"/>
<path d="M274.838 69.1977H222.936C222.777 69.1977 222.648 69.0684 222.648 68.9089C222.648 68.7494 222.777 68.6201 222.936 68.6201H274.838C274.996 68.6201 275.125 68.7494 275.125 68.9089C275.125 69.0684 274.996 69.1977 274.838 69.1977Z" fill="black"/>
<path d="M208.467 80.3493H138.512C138.353 80.3493 138.225 80.22 138.225 80.0605C138.225 79.901 138.353 79.7717 138.512 79.7717H208.467C208.625 79.7717 208.754 79.901 208.754 80.0605C208.754 80.22 208.625 80.3493 208.467 80.3493Z" fill="black"/>
<path d="M274.838 80.3493H222.936C222.777 80.3493 222.648 80.22 222.648 80.0605C222.648 79.901 222.777 79.7717 222.936 79.7717H274.838C274.996 79.7717 275.125 79.901 275.125 80.0605C275.125 80.22 274.996 80.3493 274.838 80.3493Z" fill="black"/>
<path d="M102.843 22.1576C98.188 19.0961 90.9555 20.1953 88.2666 25.0906C85.6436 21.6011 80.6365 20.1542 76.5705 21.7106C72.5043 23.2672 69.7232 27.6953 70.0739 32.0546C70.2669 34.4531 71.1514 37.3109 69.3968 38.9479C67.6468 40.5807 64.4755 39.6096 62.7484 41.2667C61.4095 42.5512 61.6314 44.7422 62.1432 46.5299C64.5986 55.1053 72.0001 62.3269 80.7985 63.5139C87.5277 64.4217 94.7281 61.3699 98.7834 55.8949C102.896 50.3416 107.904 43.9337 108.811 36.8925C109.525 31.347 107.498 25.2191 102.843 22.1576Z" fill="black"/>
<path d="M70.4531 83.9478L78.7514 57.304L94.7983 61.3082L89.5184 82.5968L70.4531 83.9478Z" fill="white"/>
<path d="M70.4532 84.2365C70.3657 84.2365 70.2826 84.1964 70.2279 84.1267C70.1689 84.0519 70.1508 83.9525 70.1791 83.8613L78.4775 57.2174C78.5226 57.0714 78.6725 56.9863 78.8209 57.0233L94.8678 61.0273C94.9417 61.0458 95.0053 61.0932 95.0446 61.1587C95.0841 61.2245 95.0956 61.3031 95.0775 61.3775L89.7974 82.6663C89.7672 82.7877 89.6628 82.8759 89.5387 82.8845L70.4735 84.2355C70.4667 84.2359 70.46 84.2361 70.4532 84.2361V84.2365ZM78.945 57.6496L70.8534 83.6298L89.2902 82.3235L94.4502 61.5186L78.945 57.6496Z" fill="black"/>
<path d="M80.0928 50.3152C79.8517 48.6732 79.61 47.0088 79.7969 45.3598C79.9839 43.7106 80.6524 42.0505 81.9391 41.0105C83.7717 39.5294 86.431 39.6108 88.6743 40.3198C90.9177 41.0288 92.9679 42.2734 95.2229 42.9435C97.478 43.6137 100.157 43.5981 101.911 42.0241C101.842 45.8629 101.774 49.7017 101.705 53.5405C101.639 57.2286 101.416 61.3102 98.8303 63.9279C96.5295 66.2578 92.8977 66.7507 89.6817 66.1785C85.0283 65.3506 80.7663 62.5012 78.2078 58.5073C76.335 58.7547 74.3492 58.415 72.7874 57.3472C71.2255 56.2795 70.1513 54.4381 70.2156 52.5406C70.2801 50.6432 71.5984 48.794 73.4288 48.3257C74.6853 48.0041 75.9774 48.4338 76.9333 49.2698C78.3243 50.4862 78.0679 50.9675 80.0928 50.3152Z" fill="white"/>
<path d="M92.1015 66.6859C91.2997 66.6859 90.4722 66.6126 89.6316 66.4631C84.9776 65.6349 80.6672 62.7818 78.0644 58.8159C76.0498 59.0432 74.1225 58.6095 72.6256 57.5862C70.9224 56.4217 69.8638 54.4374 69.9286 52.5308C69.9991 50.4563 71.4735 48.528 73.3579 48.0458C74.6239 47.7212 76.0307 48.098 77.122 49.052C77.429 49.3203 77.6597 49.5557 77.8448 49.7449C78.4481 50.3604 78.5698 50.4853 79.7727 50.1136C79.5442 48.5515 79.3285 46.9414 79.5115 45.3271C79.7306 43.3927 80.5289 41.7799 81.759 40.7856C83.4287 39.4361 85.9804 39.1655 88.7604 40.0443C89.8598 40.3918 90.9229 40.8703 91.9512 41.3331C93.0355 41.8211 94.1566 42.3257 95.3042 42.6666C97.8724 43.4298 100.271 43.109 101.72 41.8087C101.805 41.7321 101.927 41.714 102.031 41.7616C102.135 41.8096 102.2 41.9146 102.198 42.0294L101.992 53.5457C101.922 57.4575 101.636 61.4969 99.0343 64.1316C97.3962 65.7899 94.9063 66.6858 92.1015 66.6859ZM78.2075 58.2186C78.3043 58.2186 78.3958 58.2678 78.4492 58.3511C80.9554 62.2632 85.1731 65.0832 89.7318 65.8942C93.3269 66.5339 96.653 65.723 98.6263 63.7245C101.078 61.2418 101.349 57.3296 101.417 53.5352L101.613 42.6244C100.001 43.7335 97.6361 43.9619 95.1415 43.2205C93.9569 42.8685 92.818 42.356 91.7164 41.8602C90.7032 41.4042 89.6555 40.9327 88.5881 40.5954C87.3609 40.2074 84.2743 39.4937 82.1192 41.2357C81.0074 42.1342 80.2841 43.6104 80.0821 45.3925C79.8983 47.0156 80.1416 48.6716 80.377 50.2731C80.3975 50.4129 80.3144 50.547 80.1806 50.5902C78.4963 51.1327 78.2009 50.9316 77.4354 50.1502C77.2476 49.9586 77.035 49.7415 76.7449 49.4876C75.796 48.6579 74.5819 48.3278 73.5 48.6055C71.8534 49.0269 70.565 50.7228 70.5028 52.5504C70.4447 54.2638 71.4049 56.0529 72.9489 57.1085C74.3529 58.0682 76.2555 58.4741 78.1703 58.221C78.1827 58.2194 78.1951 58.2186 78.2075 58.2186Z" fill="black"/>
<path d="M77.8946 55.9424C77.7934 55.9424 77.6951 55.8885 77.6429 55.7931C76.924 54.4848 75.7151 53.4291 74.3256 52.8967C74.1775 52.84 74.1031 52.673 74.1595 52.5239C74.2161 52.375 74.3817 52.3 74.5304 52.3569C76.0444 52.9373 77.3624 54.088 78.1458 55.5139C78.2226 55.6536 78.1721 55.8292 78.0333 55.9064C77.9892 55.9308 77.9414 55.9424 77.8946 55.9424Z" fill="black"/>
<path d="M157.054 116.573C154.967 114.258 151.24 108.291 147.247 101.457C136.842 83.6511 116.724 73.9797 96.3949 76.9531C79.1692 79.4726 59.3447 82.6324 46.5211 85.5038C32.5873 88.6239 20.8689 98.0189 14.704 110.961C7.92676 125.186 0.234562 144.598 0.00532418 159.805C-0.406574 187.126 23.1623 194.856 42.4231 182.488C61.6837 170.121 93.2225 150.508 93.2225 150.508L128.594 146.206L142.496 125.523L164.443 143.891C170.644 142.713 171.145 106.461 171.145 106.461C171.145 106.461 159.423 119.2 157.054 116.573Z" fill="#5479F7"/>
<path d="M41.7565 138.791C41.7316 138.791 41.7062 138.788 41.6813 138.781C41.5281 138.739 41.4375 138.581 41.4787 138.427C42.9866 132.818 45.1226 127.37 47.8278 122.235C47.9022 122.094 48.0761 122.041 48.2161 122.115C48.3564 122.19 48.41 122.365 48.3356 122.505C45.6504 127.602 43.53 133.01 42.0337 138.577C41.9989 138.706 41.883 138.791 41.7565 138.791V138.791Z" fill="white"/>
<path d="M20.8364 151.735C20.7428 151.735 20.6506 151.689 20.5957 151.604C20.5087 151.471 20.5464 151.292 20.6791 151.205C34.7701 141.958 49.7457 133.864 65.1903 127.148C65.3373 127.085 65.5054 127.153 65.5683 127.299C65.6312 127.445 65.5644 127.615 65.4187 127.679C50.004 134.381 35.0572 142.459 20.9934 151.688C20.9449 151.72 20.8905 151.735 20.8366 151.735H20.8364Z" fill="white"/>
<path d="M131.673 141.966C131.673 141.966 117.909 120.08 110.023 117.175C100.607 113.705 68.0527 126.38 68.0527 126.38C68.0527 126.38 68.4889 138.201 82.1571 153.158C82.1571 153.158 132.138 147.103 131.673 141.966Z" fill="white"/>
<path d="M122.381 144.18C122.273 144.18 122.17 144.119 122.121 144.014C119.67 138.786 116.037 134.068 111.617 130.372C111.495 130.27 111.479 130.088 111.58 129.965C111.681 129.843 111.863 129.825 111.985 129.928C116.469 133.678 120.153 138.464 122.641 143.768C122.708 143.912 122.647 144.085 122.503 144.153C122.464 144.171 122.422 144.18 122.381 144.18H122.381Z" fill="black"/>
<path d="M111.88 146.795C111.767 146.795 111.659 146.726 111.614 146.614C109.821 142.149 107.124 137.951 103.812 134.473C103.702 134.357 103.706 134.175 103.821 134.064C103.935 133.954 104.117 133.958 104.227 134.073C107.589 137.604 110.327 141.865 112.147 146.398C112.206 146.546 112.135 146.714 111.988 146.774C111.953 146.788 111.916 146.795 111.88 146.795Z" fill="black"/>
<path d="M86.3794 78.2295L84.3045 73.7661L69.521 72.6909L66.8066 81.4775L84.0289 91.5865L86.2668 83.9476L93.8977 91.7464L97.1384 78.5402L93.7932 73.7661H88.1079L86.3794 78.2295Z" fill="#5479F7"/>
<path d="M93.898 92.0352C93.822 92.0352 93.7479 92.0049 93.6932 91.9489L86.4049 84.5001L84.3047 91.6681C84.2798 91.7532 84.2172 91.8221 84.1353 91.8549C84.0533 91.8878 83.9604 91.8808 83.8844 91.836L66.662 81.7271C66.5248 81.6466 66.4788 81.4698 66.5588 81.332C66.6388 81.1945 66.8147 81.1482 66.9517 81.2282L83.8572 91.1513L85.9916 83.866C86.0202 83.7679 86.0985 83.6924 86.1972 83.6675C86.2963 83.6427 86.4004 83.672 86.4719 83.7451L93.7421 91.1753L96.8597 78.4711C96.8976 78.3161 97.0548 78.2219 97.2073 78.2598C97.3614 78.2979 97.4556 78.4545 97.4175 78.6094L94.1767 91.8155C94.1518 91.9172 94.0743 91.9973 93.9738 92.025C93.9485 92.0319 93.9231 92.0352 93.8978 92.0352H93.898Z" fill="white"/>
<path d="M182.095 154.438H81.9551V151.406C81.9551 148.739 84.1056 146.578 86.7584 146.578H189.136L188.314 149.647C187.557 152.474 185.008 154.438 182.095 154.438Z" fill="black"/>
<path d="M184.951 150.88H124.535C121.955 150.88 120.06 148.445 120.681 145.928L132.099 99.6259C132.539 97.8452 134.129 96.5947 135.954 96.5947H196.37C198.95 96.5947 200.845 99.0294 200.224 101.547L188.806 147.849C188.367 149.629 186.777 150.88 184.951 150.88Z" fill="black"/>
<path d="M165.853 115.879C166.632 115.096 166.632 113.826 165.853 113.043C165.074 112.26 163.811 112.26 163.032 113.043C162.253 113.826 162.253 115.096 163.032 115.879C163.811 116.662 165.074 116.662 165.853 115.879Z" fill="#5479F7"/>
<path d="M338.563 111.222H215.965V240H338.563V111.222Z" fill="#E2EAFF"/>
<path d="M332.816 234.512H221.711C221.552 234.512 221.424 234.383 221.424 234.224V116.998C221.424 116.839 221.552 116.709 221.711 116.709H332.816C332.975 116.709 333.103 116.839 333.103 116.998V234.224C333.103 234.383 332.975 234.512 332.816 234.512ZM221.998 233.935H332.529V117.287H221.998V233.935Z" fill="white"/>
<path d="M332.423 206.949C332.35 206.949 332.276 206.921 332.22 206.864L298.166 172.634C298.112 172.58 298.082 172.506 298.082 172.43V116.998C298.082 116.839 298.211 116.71 298.369 116.71C298.528 116.71 298.657 116.839 298.657 116.998V172.31L332.627 206.456C332.739 206.569 332.739 206.751 332.627 206.864C332.57 206.921 332.497 206.949 332.423 206.949Z" fill="white"/>
<path d="M258.41 234.544C258.337 234.544 258.263 234.515 258.207 234.459C258.095 234.346 258.095 234.163 258.207 234.051L276.976 215.184V140.967H221.711C221.552 140.967 221.424 140.837 221.424 140.678C221.424 140.518 221.552 140.389 221.711 140.389H277.264C277.422 140.389 277.551 140.518 277.551 140.678V215.303C277.551 215.38 277.521 215.453 277.467 215.508L258.613 234.459C258.557 234.515 258.483 234.544 258.41 234.544Z" fill="white"/>
<path d="M320.465 153.736H255.715C255.556 153.736 255.428 153.607 255.428 153.447V116.998C255.428 116.839 255.556 116.71 255.715 116.71C255.874 116.71 256.002 116.839 256.002 116.998V153.159H320.346L332.372 141.07C332.484 140.958 332.666 140.958 332.778 141.07C332.891 141.183 332.891 141.366 332.778 141.479L320.669 153.651C320.615 153.706 320.542 153.736 320.465 153.736Z" fill="white"/>
<path d="M294.401 234.946C294.004 234.946 293.683 234.623 293.683 234.224V197.067L276.756 180.052C276.621 179.917 276.545 179.733 276.545 179.542V141.4H243.038C242.848 141.4 242.665 141.324 242.53 141.189L222.318 120.872C222.037 120.59 222.037 120.133 222.318 119.851C222.598 119.569 223.053 119.569 223.334 119.851L243.336 139.956H277.264C277.661 139.956 277.982 140.279 277.982 140.678V179.243L294.909 196.258C295.044 196.393 295.119 196.577 295.119 196.768V234.224C295.119 234.623 294.798 234.946 294.401 234.946Z" fill="#5479F7"/>
<path d="M205.496 169.598H162.889V166.868C162.889 165.086 164.328 163.639 166.101 163.639H202.284C204.057 163.639 205.496 165.086 205.496 166.868V169.598Z" fill="white"/>
<path d="M205.496 169.886H162.889C162.73 169.886 162.602 169.757 162.602 169.598V166.868C162.602 164.928 164.171 163.35 166.101 163.35H202.284C204.213 163.35 205.783 164.928 205.783 166.868V169.598C205.783 169.757 205.654 169.886 205.496 169.886ZM163.176 169.309H205.208V166.868C205.208 165.247 203.896 163.928 202.284 163.928H166.101C164.488 163.928 163.176 165.247 163.176 166.868L163.176 169.309Z" fill="black"/>
<path d="M252.056 216.253H119.591C115.332 216.253 111.879 212.783 111.879 208.502V177.254C111.879 171.088 116.852 166.09 122.986 166.09H245.683C251.41 166.09 256.198 170.466 256.741 176.195L259.734 207.767C260.165 212.318 256.604 216.253 252.056 216.253L252.056 216.253Z" fill="white"/>
<path d="M252.056 216.542H119.592C115.18 216.542 111.592 212.935 111.592 208.502V177.254C111.592 170.939 116.704 165.801 122.987 165.801H245.684C251.59 165.801 256.467 170.258 257.027 176.167L260.02 207.739C260.233 209.989 259.488 212.238 257.975 213.911C256.463 215.583 254.305 216.542 252.056 216.542ZM122.987 166.379C117.02 166.379 112.166 171.257 112.166 177.254V208.502C112.166 212.617 115.497 215.964 119.592 215.964H252.056C254.143 215.964 256.146 215.074 257.55 213.522C258.954 211.97 259.646 209.882 259.448 207.794L256.455 176.222C255.923 170.611 251.292 166.379 245.683 166.379H122.987Z" fill="black"/>
<path d="M216.082 193.815H132.633C132.474 193.815 132.346 193.686 132.346 193.526C132.346 193.367 132.474 193.238 132.633 193.238H216.082C216.24 193.238 216.369 193.367 216.369 193.526C216.369 193.686 216.24 193.815 216.082 193.815Z" fill="black"/>
<path d="M209.989 203H147.863C147.705 203 147.576 202.87 147.576 202.711C147.576 202.551 147.705 202.422 147.863 202.422H209.989C210.148 202.422 210.276 202.551 210.276 202.711C210.276 202.87 210.148 203 209.989 203Z" fill="black"/>
<path d="M253.685 201.622H257.148L254.756 176.385C254.308 171.659 250.408 168.095 245.685 168.095H122.988C117.955 168.095 113.875 172.195 113.875 177.253V183.606H215.292C222.033 183.606 228.485 186.36 233.166 191.236L235.811 193.992C240.492 198.868 246.944 201.622 253.685 201.622Z" fill="#5479F7"/>
<path d="M252.426 205.386H233.649C233.49 205.386 233.361 205.257 233.361 205.097V169.598C233.361 169.438 233.49 169.309 233.649 169.309C233.807 169.309 233.936 169.438 233.936 169.598V204.808H252.426C252.585 204.808 252.713 204.937 252.713 205.097C252.713 205.256 252.585 205.386 252.426 205.386Z" fill="black"/>
<path d="M210.506 183.402C210.347 183.402 210.219 183.273 210.219 183.114V168.856C210.219 168.696 210.347 168.567 210.506 168.567C210.665 168.567 210.793 168.696 210.793 168.856V183.114C210.793 183.273 210.665 183.402 210.506 183.402Z" fill="black"/>
<path d="M187.051 183.402C186.892 183.402 186.764 183.273 186.764 183.114V168.856C186.764 168.696 186.892 168.567 187.051 168.567C187.21 168.567 187.338 168.696 187.338 168.856V183.114C187.338 183.273 187.21 183.402 187.051 183.402Z" fill="black"/>
<path d="M163.748 183.402C163.589 183.402 163.461 183.273 163.461 183.114V168.856C163.461 168.696 163.589 168.567 163.748 168.567C163.907 168.567 164.036 168.696 164.036 168.856V183.114C164.036 183.273 163.907 183.402 163.748 183.402Z" fill="black"/>
<path d="M139.381 183.402C139.222 183.402 139.094 183.273 139.094 183.114V168.856C139.094 168.696 139.222 168.567 139.381 168.567C139.54 168.567 139.668 168.696 139.668 168.856V183.114C139.668 183.273 139.54 183.402 139.381 183.402Z" fill="black"/>
<path d="M264.332 189.138C264.173 189.138 264.045 189.008 264.045 188.849V181.515C264.045 180.427 263.165 179.542 262.082 179.542H252.428C252.269 179.542 252.141 179.413 252.141 179.253C252.141 179.094 252.269 178.964 252.428 178.964H262.082C263.481 178.964 264.62 180.108 264.62 181.515V188.849C264.62 189.008 264.491 189.138 264.332 189.138H264.332Z" fill="black"/>
<path d="M261.498 193.526V184.051C262.649 184.051 263.582 184.989 263.582 186.146V191.432C263.582 192.589 262.649 193.526 261.498 193.526Z" fill="white"/>
<path d="M261.498 193.815C261.339 193.815 261.211 193.686 261.211 193.526V184.051C261.211 183.892 261.339 183.762 261.498 183.762C262.806 183.762 263.869 184.832 263.869 186.146V191.431C263.869 192.746 262.806 193.815 261.498 193.815ZM261.786 184.363V193.215C262.64 193.076 263.295 192.329 263.295 191.432V186.146C263.295 185.248 262.64 184.502 261.786 184.363Z" fill="black"/>
<path d="M132.632 223.878C136.737 223.878 140.066 220.533 140.066 216.406C140.066 212.28 136.737 208.934 132.632 208.934C128.526 208.934 125.197 212.28 125.197 216.406C125.197 220.533 128.526 223.878 132.632 223.878Z" fill="white"/>
<path d="M132.632 224.167C128.374 224.167 124.91 220.685 124.91 216.406C124.91 212.127 128.374 208.646 132.632 208.646C136.889 208.646 140.353 212.127 140.353 216.406C140.353 220.685 136.889 224.167 132.632 224.167ZM132.632 209.223C128.691 209.223 125.485 212.445 125.485 216.406C125.485 220.367 128.691 223.589 132.632 223.589C136.572 223.589 139.779 220.367 139.779 216.406C139.779 212.445 136.572 209.223 132.632 209.223Z" fill="black"/>
<path d="M132.631 219.414C134.284 219.414 135.624 218.067 135.624 216.406C135.624 214.745 134.284 213.398 132.631 213.398C130.979 213.398 129.639 214.745 129.639 216.406C129.639 218.067 130.979 219.414 132.631 219.414Z" fill="#5479F7"/>
<path d="M236.641 223.878C240.747 223.878 244.076 220.533 244.076 216.406C244.076 212.28 240.747 208.934 236.641 208.934C232.535 208.934 229.207 212.28 229.207 216.406C229.207 220.533 232.535 223.878 236.641 223.878Z" fill="white"/>
<path d="M236.642 224.167C232.384 224.167 228.92 220.685 228.92 216.406C228.92 212.127 232.384 208.646 236.642 208.646C240.899 208.646 244.363 212.127 244.363 216.406C244.363 220.685 240.899 224.167 236.642 224.167ZM236.642 209.223C232.701 209.223 229.495 212.445 229.495 216.406C229.495 220.367 232.701 223.589 236.642 223.589C240.582 223.589 243.788 220.367 243.788 216.406C243.788 212.445 240.582 209.223 236.642 209.223Z" fill="black"/>
<path d="M236.641 219.414C238.294 219.414 239.634 218.067 239.634 216.406C239.634 214.745 238.294 213.398 236.641 213.398C234.988 213.398 233.648 214.745 233.648 216.406C233.648 218.067 234.988 219.414 236.641 219.414Z" fill="#5479F7"/>
<path d="M154.894 228.777H43.1649C40.8923 228.777 38.8281 227.446 37.8808 225.37C35.839 220.895 35.7759 215.761 37.707 211.236L38.2355 209.998C38.9872 208.237 40.5497 206.959 42.4175 206.576L42.7665 206.505C44.8294 206.082 46.8162 205.346 48.6584 204.322L59.3023 198.401C66.3079 194.505 74.1832 192.46 82.1898 192.46H92.9883C100.756 192.46 108.4 194.418 115.22 198.155L121.161 201.411C123.692 202.797 126.437 203.742 129.281 204.207L136.904 205.45C143.982 206.606 150.934 208.436 157.667 210.916L157.792 210.962C160.362 211.909 161.927 214.529 161.549 217.254L160.652 223.738C160.252 226.627 157.795 228.777 154.894 228.777Z" fill="white"/>
<path d="M120.337 204.428H70.3658C66.8796 204.428 63.4083 203.889 60.0387 202.825L57.4922 202.021L63.0912 199.117C69.7611 195.658 76.9582 193.873 84.2336 193.873H90.9386C100.703 193.873 110.276 197.088 118.601 203.162L120.337 204.428Z" fill="black"/>
<path d="M108.865 204.864H113.822C114.669 204.864 115.355 204.174 115.355 203.323V202.521C115.355 201.67 114.669 200.98 113.822 200.98H108.865C108.018 200.98 107.332 201.67 107.332 202.521V203.323C107.332 204.174 108.018 204.864 108.865 204.864Z" fill="white"/>
<path d="M154.893 229.066H43.164C40.787 229.066 38.6101 227.662 37.6189 225.49C35.5473 220.95 35.4828 215.713 37.4424 211.123L37.9708 209.884C38.7595 208.037 40.4 206.695 42.3597 206.293L42.7087 206.222C44.7455 205.805 46.7003 205.08 48.5185 204.069L59.1624 198.149C66.1922 194.239 74.1546 192.172 82.1889 192.172H92.9878C100.78 192.172 108.515 194.153 115.357 197.902L121.298 201.157C123.806 202.532 126.508 203.462 129.327 203.922L136.949 205.165C144.028 206.321 151.031 208.164 157.765 210.645L157.89 210.691C160.568 211.678 162.226 214.455 161.833 217.294L160.936 223.778C160.519 226.793 157.921 229.066 154.893 229.066V229.066ZM82.1889 192.749C74.2517 192.749 66.3855 194.791 59.4407 198.654L48.7968 204.574C46.9272 205.614 44.9173 206.359 42.8231 206.788L42.4741 206.859C40.6992 207.223 39.2131 208.439 38.4988 210.112L37.9704 211.35C36.0748 215.791 36.137 220.857 38.1413 225.249C39.0392 227.217 41.0109 228.488 43.164 228.488H154.893C157.636 228.488 159.989 226.429 160.367 223.699L161.264 217.214C161.62 214.642 160.118 212.127 157.693 211.233L157.567 211.187C150.868 208.719 143.9 206.885 136.857 205.736L129.235 204.492C126.352 204.021 123.589 203.07 121.023 201.664L115.082 198.409C108.324 194.706 100.684 192.749 92.9879 192.749H82.1891H82.1889Z" fill="black"/>
<path d="M70.3625 232.257C75.0058 227.589 75.0058 220.022 70.3625 215.355C65.7193 210.688 58.1912 210.688 53.5479 215.355C48.9047 220.022 48.9047 227.589 53.5479 232.257C58.1912 236.924 65.7193 236.924 70.3625 232.257Z" fill="#5479F7"/>
<path d="M64.9714 231.127C68.9939 229.452 70.9041 224.817 69.2379 220.773C67.5717 216.73 62.9602 214.81 58.9377 216.485C54.9152 218.159 53.005 222.795 54.6712 226.838C56.3373 230.882 60.9489 232.802 64.9714 231.127Z" fill="white"/>
<path d="M65.0107 224.059C65.1503 222.363 63.8959 220.875 62.2088 220.735C60.5217 220.594 59.0409 221.855 58.9012 223.551C58.7616 225.247 60.0161 226.735 61.7032 226.876C63.3902 227.016 64.8711 225.755 65.0107 224.059Z" fill="white"/>
<path d="M61.9562 227.176C60.1075 227.176 58.6035 225.664 58.6035 223.806C58.6035 221.948 60.1075 220.436 61.9562 220.436C63.805 220.436 65.3087 221.948 65.3087 223.806C65.3087 225.664 63.8048 227.176 61.9562 227.176ZM61.9562 221.013C60.4245 221.013 59.1781 222.266 59.1781 223.806C59.1781 225.346 60.4245 226.598 61.9562 226.598C63.488 226.598 64.7341 225.345 64.7341 223.806C64.7341 222.266 63.488 221.013 61.9562 221.013Z" fill="black"/>
<path d="M149.593 225.108C150.309 218.547 145.599 212.644 139.072 211.924C132.544 211.204 126.672 215.939 125.955 222.5C125.239 229.061 129.95 234.964 136.477 235.684C143.004 236.404 148.876 231.669 149.593 225.108Z" fill="#5479F7"/>
<path d="M140.06 231.39C144.227 230.122 146.582 225.698 145.32 221.509C144.059 217.321 139.658 214.953 135.491 216.221C131.323 217.49 128.968 221.913 130.23 226.102C131.492 230.291 135.892 232.658 140.06 231.39Z" fill="white"/>
<path d="M139.942 225.984C141.139 224.781 141.139 222.83 139.942 221.627C138.745 220.424 136.804 220.424 135.607 221.627C134.41 222.83 134.41 224.781 135.607 225.984C136.804 227.188 138.745 227.188 139.942 225.984Z" fill="white"/>
<path d="M137.774 227.176C135.926 227.176 134.422 225.664 134.422 223.806C134.422 221.948 135.926 220.436 137.774 220.436C139.623 220.436 141.127 221.948 141.127 223.806C141.127 225.664 139.623 227.176 137.774 227.176ZM137.774 221.013C136.243 221.013 134.997 222.266 134.997 223.806C134.997 225.346 136.243 226.598 137.774 226.598C139.306 226.598 140.552 225.345 140.552 223.806C140.552 222.266 139.306 221.013 137.774 221.013Z" fill="black"/>
</g>
<defs>
<clipPath id="clip0_1069_460">
<rect width="358" height="240" fill="white"/>
</clipPath>
</defs>
</svg>
