<svg width="100" height="100" viewBox="0 0 100 100" fill="none" xmlns="http://www.w3.org/2000/svg">
<path d="M50.0815 74.0176H92.7259C92.7259 74.0176 95.4691 64.3086 93.7234 51.8612C93.7234 51.8612 91.479 45.8864 84.995 41.6543C84.995 41.6543 79.0098 22.7342 76.2666 21.2405C73.5234 19.7468 52.0765 19 49.8321 19C47.5876 19 26.1407 19.7468 23.3975 21.2405C20.6543 22.7342 14.6691 41.6543 14.6691 41.6543C8.1852 45.8864 5.94075 51.8612 5.94075 51.8612C4.44446 64.3086 6.93828 74.0176 6.93828 74.0176H50.0815Z" stroke="white" stroke-width="3" stroke-miterlimit="10"/>
<path d="M15.1679 41.6543C15.6667 36.1775 14.1704 33.688 9.18275 34.1859C3.69633 34.6838 2.44942 39.9117 3.19756 41.1565C4.44448 42.6501 15.1679 41.6543 15.1679 41.6543Z" stroke="white" stroke-width="3" stroke-miterlimit="10"/>
<path d="M85.2445 41.6543C84.7457 36.1775 86.242 33.688 91.2297 34.1859C96.7161 34.6838 97.963 39.9117 97.2148 41.1565C95.9679 42.6501 85.2445 41.6543 85.2445 41.6543Z" stroke="white" stroke-width="3" stroke-miterlimit="10"/>
<path d="M9.18298 74.0176V78.0007C9.18298 79.4944 10.4299 80.7392 11.9262 80.7392H22.1509C23.6472 80.7392 24.8941 79.4944 24.8941 78.0007V73.7686" stroke="white" stroke-width="3" stroke-miterlimit="10"/>
<path d="M91.2297 74.0176V78.0007C91.2297 79.4944 89.9827 80.7392 88.4864 80.7392H78.2618C76.7655 80.7392 75.5186 79.4944 75.5186 78.0007V73.7686" stroke="white" stroke-width="3" stroke-miterlimit="10"/>
<path d="M6.3876 53C11.0389 53 22.667 53.7805 24.4112 57.2927C26.1554 60.6098 23.636 61 21.8918 61C20.1476 61 6 61 6 61" stroke="white" stroke-width="3" stroke-miterlimit="10"/>
<path d="M93.6124 53C88.9611 53 77.333 53.7805 75.5888 57.2927C73.8446 60.6098 76.364 61 78.1082 61C79.8524 61 94 61 94 61" stroke="white" stroke-width="3" stroke-miterlimit="10"/>
<path d="M50.0815 65.5534C54.8197 65.5534 65.0444 64.8066 65.0444 61.5702C65.0444 58.3339 53.0741 58.5829 50.0815 58.5829C46.8395 58.5829 35.1185 58.3339 35.1185 61.5702C35.1185 64.8066 45.3432 65.5534 50.0815 65.5534Z" stroke="white" stroke-width="3" stroke-miterlimit="10"/>
<path d="M15.168 41.6544C35.6173 37.4222 62.0519 37.9201 85.2444 41.6544" stroke="white" stroke-width="3" stroke-miterlimit="10"/>
</svg>
