<svg width="575" height="744" viewBox="0 0 575 744" fill="none" xmlns="http://www.w3.org/2000/svg">
<g clip-path="url(#clip0_774_1466)">
<rect width="575" height="744" fill="black"/>
<g filter="url(#filter0_f_774_1466)">
<ellipse cx="197.657" cy="399.385" rx="197.657" ry="399.385" transform="matrix(0.0471482 -0.998888 0.998892 0.0470708 -232.249 830.153)" fill="url(#paint0_linear_774_1466)"/>
</g>
<path d="M-59.9999 190.866C-59.9999 191.417 -59.5524 191.865 -59.0009 191.865L35.8348 191.865C36.0995 191.865 36.3538 191.759 36.5413 191.572L91.8167 136.329C92.0042 136.142 92.1096 135.888 92.1096 135.623L92.1096 -87.7528L109.124 -104.758C109.312 -104.945 109.417 -105.199 109.417 -105.464L109.417 -168.001C109.417 -168.552 108.969 -168.999 108.418 -168.999C107.867 -168.999 107.419 -168.552 107.419 -168.001L107.419 -105.877L90.4041 -88.872C90.2166 -88.6846 90.1112 -88.4307 90.1112 -88.1659L90.1112 135.21L35.4212 189.868L-59.0009 189.868C-59.5527 189.868 -59.9999 190.315 -59.9999 190.866Z" fill="#E2EAFF" fill-opacity="0.26"/>
<path d="M-59.9996 181.953C-59.9996 182.504 -59.552 182.951 -59.0006 182.951L35.8352 182.951C36.0998 182.951 36.3542 182.846 36.5416 182.658L81.6376 137.589C81.825 137.402 81.9304 137.148 81.9304 136.883L81.9304 -68.9036C81.9304 -69.1681 81.825 -69.4223 81.6376 -69.6097L68.6348 -82.6047L68.6348 -168.002C68.6348 -168.553 68.1873 -169 67.6358 -169C67.0844 -169 66.6368 -168.553 66.6368 -168.002L66.6368 -82.1913C66.6368 -81.9268 66.7422 -81.6726 66.9296 -81.4853L79.9324 -68.4902L79.9324 136.47L35.4215 180.954L-59.0006 180.954C-59.5523 180.954 -59.9996 181.401 -59.9996 181.953Z" fill="#E2EAFF" fill-opacity="0.26"/>
<path d="M-59.9999 173.04C-59.9999 173.591 -59.5523 174.038 -59.0008 174.038L35.8349 174.038C36.0996 174.038 36.3539 173.933 36.5414 173.745L72.8339 137.474C73.0213 137.287 73.1267 137.033 73.1267 136.768L73.1267 -19.0963C73.1267 -19.3608 73.0213 -19.615 72.8339 -19.8024L56.6717 -35.955L56.6717 -168.001C56.6717 -168.553 56.2242 -169 55.6727 -169C55.121 -169 54.6737 -168.553 54.6737 -168.001L54.6737 -35.5416C54.6737 -35.2771 54.7791 -35.0228 54.9665 -34.8355L71.1284 -18.6829L71.1284 136.355L35.4212 172.041L-59.0008 172.041C-59.5526 172.041 -59.9999 172.489 -59.9999 173.04Z" fill="#E2EAFF" fill-opacity="0.26"/>
<path d="M31.1775 -168.001L31.1775 -15.9202C31.1775 -15.6557 31.2829 -15.4015 31.4703 -15.2141L56.3868 9.68837C56.7772 10.0785 57.4095 10.0785 57.7995 9.68837C58.1896 9.29826 58.1899 8.66632 57.7995 8.27651L33.1758 -16.3336L33.1758 -168.001C33.1758 -168.552 32.7283 -168.999 32.1768 -168.999C31.6251 -168.999 31.1775 -168.552 31.1775 -168.001Z" fill="#E2EAFF" fill-opacity="0.26"/>
<path d="M79.9322 155.606C79.9322 155.861 80.0297 156.117 80.225 156.312C80.6153 156.702 81.2476 156.702 81.6377 156.312L100.367 137.594C100.554 137.407 100.659 137.153 100.659 136.888L100.659 -77.3688L118.619 -95.3174C118.807 -95.5047 118.912 -95.7586 118.912 -96.0235L118.912 -168.001C118.912 -168.552 118.464 -168.999 117.913 -168.999C117.361 -168.999 116.914 -168.552 116.914 -168.001L116.914 -96.4369L98.9542 -78.4883C98.7667 -78.301 98.6613 -78.0471 98.6613 -77.7823L98.6613 136.475L80.2253 154.9C80.0297 155.095 79.9322 155.35 79.9322 155.606Z" fill="#E2EAFF" fill-opacity="0.26"/>
<path d="M85.514 155.606C85.514 153.077 83.4621 151.026 80.9311 151.026C78.3998 151.026 76.3481 153.077 76.3481 155.606C76.3481 158.136 78.4001 160.187 80.9311 160.187C83.4621 160.187 85.514 158.136 85.514 155.606Z" fill="#E2EAFF" fill-opacity="0.26"/>
<path d="M58.9212 6.53572C58.9212 4.00589 56.8692 1.95514 54.3382 1.95514C51.8072 1.95514 49.7553 4.00589 49.7553 6.53572C49.7553 9.06525 51.8072 11.116 54.3382 11.116C56.8692 11.116 58.9212 9.06525 58.9212 6.53572Z" fill="#E2EAFF" fill-opacity="0.26"/>
<path d="M-59.9994 155.213C-59.9994 155.765 -59.5518 156.212 -59.0004 156.212L35.8353 156.212C36.1 156.212 36.3544 156.107 36.5418 155.919L55.0448 137.427C55.2323 137.24 55.3376 136.986 55.3376 136.721L55.3376 35.4421C55.3376 35.1776 55.2323 34.9234 55.0448 34.7361L25.0802 4.78873C24.6898 4.39862 24.0575 4.39862 23.6675 4.78873C23.2771 5.17885 23.2771 5.81079 23.6675 6.20059L53.3396 35.8552L53.3396 136.307L35.422 154.214L-59.0001 154.214C-59.5521 154.215 -59.9994 154.662 -59.9994 155.213Z" fill="#E2EAFF" fill-opacity="0.26"/>
<path d="M58.9212 117.587C58.9212 115.058 56.8692 113.007 54.3382 113.007C51.8072 113.007 49.7553 115.058 49.7553 117.587C49.7553 120.117 51.8072 122.168 54.3382 122.168C56.8692 122.168 58.9212 120.117 58.9212 117.587Z" fill="#E2EAFF" fill-opacity="0.26"/>
<path d="M20.4784 3.7291C21.447 1.39199 24.128 0.282191 26.4665 1.25027C28.805 2.21836 29.9154 4.89772 28.9468 7.23483C27.9781 9.57194 25.2972 10.6818 22.9587 9.71369C20.6202 8.7456 19.5097 6.06621 20.4784 3.7291Z" fill="#E2EAFF" fill-opacity="0.26"/>
<g clip-path="url(#clip1_774_1466)">
<path d="M472.472 528.958C471.021 426.046 388.248 343.07 286.333 343.07C184.417 343.07 101.645 426.046 100.194 528.958H472.472Z" fill="black"/>
<path d="M455.559 528.713H83.2815C83.121 528.713 82.9667 528.648 82.8541 528.534C82.7412 528.42 82.6788 528.265 82.681 528.104C83.3854 478.773 103.122 432.507 138.255 397.828C173.424 363.115 220.006 343.997 269.42 343.997C318.834 343.997 365.416 363.115 400.585 397.828C435.717 432.506 455.454 478.773 456.159 528.104C456.161 528.265 456.099 528.419 455.986 528.534C455.874 528.648 455.72 528.713 455.559 528.713ZM83.8918 527.512H454.95C453.183 426.927 370.083 345.198 269.42 345.198C168.758 345.198 85.6575 426.927 83.8918 527.512Z" fill="white"/>
<path d="M269.42 397.038C337.307 397.038 393.286 447.93 401.367 513.65H436.888C428.569 428.451 356.781 361.865 269.42 361.865V397.038Z" fill="#195DFF"/>
<path d="M269.42 397.038C201.534 397.038 145.555 447.93 137.474 513.65H101.953C110.272 428.451 182.06 361.865 269.42 361.865V397.038Z" fill="#4ADA85"/>
<path d="M436.889 514.251H401.367C401.064 514.251 400.809 514.025 400.772 513.724C392.634 447.545 336.165 397.639 269.42 397.639C269.089 397.639 268.82 397.37 268.82 397.038C268.82 396.706 269.089 396.438 269.42 396.438C336.594 396.438 393.452 446.531 401.897 513.049H436.225C427.504 427.157 355.91 362.466 269.42 362.466C269.089 362.466 268.82 362.197 268.82 361.865C268.82 361.533 269.089 361.264 269.42 361.264C311.634 361.264 352.041 376.926 383.2 405.364C414.15 433.613 433.429 472.049 437.486 513.592C437.502 513.76 437.447 513.928 437.333 514.053C437.219 514.179 437.058 514.251 436.889 514.251Z" fill="black"/>
<path d="M137.474 514.251H101.953C101.783 514.251 101.621 514.179 101.508 514.054C101.394 513.928 101.338 513.761 101.355 513.592C105.412 472.049 124.691 433.613 155.641 405.365C186.799 376.926 227.207 361.265 269.42 361.265C269.752 361.265 270.021 361.534 270.021 361.865C270.021 362.197 269.752 362.466 269.42 362.466C182.931 362.466 111.337 427.157 102.616 513.05H136.944C145.389 446.531 202.247 396.438 269.42 396.438C269.752 396.438 270.021 396.707 270.021 397.038C270.021 397.37 269.752 397.639 269.42 397.639C202.676 397.639 146.207 447.545 138.07 513.724C138.032 514.024 137.777 514.251 137.474 514.251Z" fill="black"/>
<path d="M269.42 386.201C269.089 386.201 268.82 385.932 268.82 385.6V359.696C268.82 359.365 269.089 359.096 269.42 359.096C269.752 359.096 270.021 359.365 270.021 359.696V385.6C270.021 385.932 269.752 386.201 269.42 386.201Z" fill="black"/>
<path d="M125.335 508.188H99.4388C99.1072 508.188 98.8384 507.919 98.8384 507.587C98.8384 507.255 99.1072 506.987 99.4388 506.987H125.335C125.667 506.987 125.936 507.255 125.936 507.587C125.936 507.919 125.667 508.188 125.335 508.188Z" fill="black"/>
<path d="M440.753 508.188H414.856C414.524 508.188 414.256 507.919 414.256 507.587C414.256 507.255 414.524 506.987 414.856 506.987H440.753C441.085 506.987 441.353 507.255 441.353 507.587C441.353 507.919 441.085 508.188 440.753 508.188Z" fill="black"/>
<path d="M177.966 418.925C177.812 418.925 177.659 418.867 177.542 418.749L159.23 400.433C158.995 400.198 158.995 399.818 159.23 399.583C159.464 399.349 159.844 399.349 160.079 399.583L178.39 417.9C178.625 418.135 178.625 418.515 178.39 418.749C178.273 418.867 178.12 418.925 177.966 418.925Z" fill="black"/>
<path d="M362.604 418.925C362.45 418.925 362.297 418.867 362.179 418.749C361.945 418.515 361.945 418.135 362.179 417.9L380.491 399.583C380.725 399.349 381.105 399.349 381.34 399.583C381.574 399.818 381.574 400.198 381.34 400.433L363.028 418.749C362.911 418.867 362.758 418.925 362.604 418.925Z" fill="black"/>
<path d="M273.266 508.188C269.125 508.188 265.018 507.068 261.361 504.869C255.36 501.26 251.354 495.213 250.372 488.278C249.389 481.344 251.557 474.422 256.32 469.287L329.45 390.435C329.644 390.227 329.957 390.183 330.2 390.329C330.443 390.476 330.551 390.773 330.458 391.041L295.142 492.633C292.842 499.248 287.748 504.411 281.164 506.795C278.591 507.727 275.922 508.187 273.266 508.188ZM328.383 393.352L257.2 470.104C252.685 474.972 250.629 481.535 251.561 488.11C252.493 494.685 256.29 500.418 261.98 503.84C267.669 507.261 274.512 507.926 280.755 505.665C286.997 503.404 291.828 498.51 294.008 492.238L328.383 393.352Z" fill="white"/>
<path d="M342.715 613.817L346.048 620.33C346.048 620.33 357.581 594.671 359.615 588.871C359.846 587.888 362.914 581.947 361.636 572.067C361.556 571.87 361.327 562.619 352.128 559.392L351.882 559.305C348.022 557.951 344.106 561.157 344.649 565.212C345.288 569.991 346.039 573.437 344.243 578.561L340.957 587.931C337.975 596.436 338.61 605.793 342.715 613.817Z" fill="white"/>
<path d="M359.615 588.871C359.847 587.888 362.914 581.947 361.636 572.067C361.556 571.87 361.327 562.619 352.128 559.392L351.882 559.305C348.022 557.951 344.106 561.157 344.649 565.212C344.887 566.986 345.139 568.577 345.272 570.138L359.615 588.871Z" fill="white"/>
<path d="M346.048 620.93C345.823 620.93 345.616 620.805 345.513 620.603L342.181 614.09C338.021 605.959 337.368 596.352 340.391 587.732L343.677 578.362C345.251 573.87 344.805 570.682 344.241 566.645C344.179 566.205 344.116 565.755 344.054 565.292C343.771 563.174 344.589 561.106 346.244 559.758C347.891 558.416 350.075 558.035 352.081 558.739L352.327 558.825C360.323 561.631 361.902 568.841 362.209 571.811C362.215 571.866 362.219 571.908 362.223 571.936C362.227 571.954 362.23 571.972 362.233 571.99C363.347 580.608 361.227 586.242 360.429 588.362C360.319 588.654 360.224 588.907 360.2 589.01C360.195 589.03 360.189 589.05 360.182 589.071C358.163 594.828 347.067 619.528 346.596 620.577C346.501 620.787 346.294 620.925 346.063 620.931C346.058 620.93 346.053 620.93 346.048 620.93ZM350.061 559.594C348.963 559.594 347.886 559.969 347.002 560.689C345.674 561.771 345.017 563.432 345.245 565.132C345.306 565.593 345.369 566.04 345.43 566.479C346.017 570.677 346.481 573.992 344.81 578.759L341.524 588.129C338.61 596.44 339.239 605.703 343.251 613.543L346.012 618.941C348.266 613.908 357.26 593.753 359.039 588.699C359.084 588.524 359.174 588.286 359.305 587.938C360.073 585.897 362.112 580.479 361.045 572.177C361.034 572.119 361.027 572.048 361.014 571.933C360.731 569.191 359.277 562.536 351.929 559.958L351.683 559.872C351.151 559.685 350.603 559.594 350.061 559.594Z" fill="black"/>
<path d="M194.909 613.817L191.576 620.33C191.576 620.33 180.043 594.671 178.009 588.871C177.778 587.888 174.71 581.947 175.988 572.067C176.068 571.87 176.297 562.619 185.496 559.392L185.742 559.305C189.603 557.951 193.518 561.157 192.975 565.212C192.336 569.991 191.585 573.437 193.381 578.561L196.667 587.931C199.649 596.436 199.014 605.793 194.909 613.817Z" fill="white"/>
<path d="M191.576 620.93C191.571 620.93 191.566 620.93 191.561 620.93C191.33 620.924 191.123 620.787 191.028 620.576C190.557 619.528 179.461 594.827 177.442 589.07C177.435 589.051 177.429 589.03 177.424 589.009C177.4 588.907 177.305 588.654 177.195 588.362C176.397 586.241 174.277 580.608 175.392 571.99C175.394 571.972 175.398 571.954 175.402 571.936C175.405 571.908 175.409 571.866 175.415 571.81C175.722 568.841 177.301 561.631 185.297 558.825L185.543 558.739C187.55 558.035 189.732 558.416 191.381 559.758C193.035 561.105 193.853 563.174 193.57 565.292C193.508 565.755 193.445 566.205 193.383 566.646C192.818 570.683 192.373 573.871 193.948 578.362L197.233 587.732C200.256 596.351 199.603 605.959 195.443 614.09L192.11 620.604C192.008 620.805 191.801 620.93 191.576 620.93ZM178.585 588.699C180.364 593.754 189.358 613.909 191.612 618.942L194.374 613.543C198.385 605.703 199.015 596.44 196.1 588.129L192.815 578.76C191.143 573.993 191.607 570.677 192.194 566.48C192.256 566.041 192.318 565.593 192.38 565.133C192.608 563.432 191.951 561.771 190.623 560.69C189.301 559.613 187.55 559.308 185.941 559.872L185.695 559.959C178.347 562.536 176.894 569.192 176.61 571.934C176.598 572.049 176.591 572.12 176.579 572.177C175.513 580.479 177.551 585.898 178.319 587.939C178.45 588.287 178.539 588.524 178.585 588.699Z" fill="black"/>
<path d="M296.626 715.923C295.732 720.263 295.119 724.687 294.806 729.175L296.626 715.923Z" fill="black"/>
<path d="M268.38 506.663C198.442 506.663 141.747 563.374 141.747 633.331C141.747 703.289 198.442 760 268.38 760C338.317 760 395.013 703.289 395.013 633.331C395.013 563.374 338.318 506.663 268.38 506.663ZM268.38 732.733C213.497 732.733 169.006 688.229 169.006 633.331C169.006 578.434 213.498 533.93 268.38 533.93C323.262 533.93 367.754 578.434 367.754 633.331C367.754 688.229 323.262 732.733 268.38 732.733Z" fill="black"/>
<path d="M310.308 616.321L226.455 616.32C205.738 620.538 185.512 627.914 166.51 638.449L167.654 638.834C204.459 651.209 229.98 683.199 235.204 720.092L235.969 729.175L266.969 741.185L294.806 729.175L296.626 715.923C303.713 681.506 328.551 652.471 363.104 640.852L370.25 638.449C351.249 627.915 331.024 620.538 310.308 616.321Z" fill="black"/>
<path d="M289.491 665.604H247.269C238.761 665.604 231.235 660.09 228.669 651.977L223.102 634.374C219.123 621.795 228.511 608.974 241.701 608.974H295.059C308.249 608.974 317.637 621.795 313.658 634.374L308.091 651.977C305.525 660.09 297.998 665.604 289.491 665.604Z" fill="#195DFF"/>
<path d="M289.491 666.205H247.269C238.459 666.205 230.754 660.56 228.096 652.158L222.529 634.555C220.575 628.374 221.65 621.831 225.479 616.601C229.308 611.372 235.221 608.373 241.701 608.373H295.059C301.539 608.373 307.452 611.372 311.281 616.601C315.111 621.831 316.186 628.374 314.231 634.555L308.664 652.158C306.006 660.56 298.301 666.205 289.491 666.205ZM241.701 609.575C235.608 609.575 230.048 612.395 226.447 617.312C222.847 622.228 221.836 628.381 223.674 634.192L229.241 651.796C231.74 659.696 238.985 665.004 247.268 665.004H289.491C297.775 665.004 305.02 659.696 307.518 651.796L313.085 634.192C314.924 628.381 313.913 622.228 310.312 617.312C306.711 612.395 301.151 609.575 295.058 609.575H241.701Z" fill="black"/>
<path d="M368.909 551.129L351.4 594.837L364.857 600.412L382.366 556.704C383.833 553.161 382.151 549.099 378.609 547.632L377.979 547.371C374.436 545.904 370.376 547.586 368.909 551.129Z" fill="white"/>
<path d="M355.463 585.023L343.221 614.59L355.482 639.008L389.837 653.36L408.913 607.284L355.463 585.023Z" fill="white"/>
<path d="M392.276 568.601L385.105 565.63L379.532 579.091L387.689 582.471L379.024 603.399L392.482 608.974L400.738 589.032C404.042 581.053 400.253 571.905 392.276 568.601Z" fill="white"/>
<path d="M403.672 583.085L395.067 579.579L389.493 593.04L397.651 596.42L388.986 617.348L402.444 622.923L411.361 601.581C414.382 594.349 410.928 586.041 403.672 583.085Z" fill="white"/>
<path d="M383.672 594.422L343.216 614.615L368.665 665.629L409.121 645.436L383.672 594.422Z" fill="white"/>
<path d="M364.246 656.745L368.666 665.604L409.122 645.41L402.143 630.844L364.246 656.745Z" fill="black"/>
<path d="M368.667 666.205C368.446 666.205 368.234 666.083 368.129 665.873L342.668 614.907C342.519 614.611 342.64 614.25 342.936 614.102C343.232 613.954 343.594 614.074 343.742 614.371L368.935 664.799L408.325 645.136L399.99 627.815C399.916 627.661 399.911 627.482 399.977 627.323L410.843 601.282C412.235 597.945 412.241 594.268 410.861 590.926C409.48 587.585 406.88 584.984 403.539 583.604L401.745 582.863C401.438 582.736 401.293 582.386 401.42 582.079C401.546 581.772 401.899 581.626 402.203 581.753L403.997 582.494C407.635 583.997 410.467 586.829 411.971 590.468C413.474 594.106 413.467 598.111 411.951 601.744L401.189 627.537L409.663 645.149C409.805 645.445 409.683 645.8 409.39 645.947L368.934 666.141C368.848 666.185 368.757 666.205 368.667 666.205Z" fill="black"/>
<path d="M382.161 557.942L365.751 597.578L379.208 603.153L391.542 573.363C393.794 567.925 391.212 561.691 385.776 559.439L382.161 557.942Z" fill="white"/>
<path d="M392.481 609.575C392.405 609.575 392.327 609.56 392.252 609.529C391.945 609.402 391.8 609.051 391.927 608.744L400.184 588.803C403.328 581.208 399.733 572.418 392.169 569.207C391.863 569.078 391.721 568.725 391.85 568.42C391.98 568.114 392.333 567.972 392.638 568.102C400.806 571.568 404.689 581.061 401.293 589.263L393.036 609.205C392.94 609.435 392.716 609.575 392.481 609.575Z" fill="black"/>
<path d="M379.606 602.793C379.529 602.793 379.451 602.778 379.376 602.747C379.07 602.62 378.925 602.268 379.051 601.962L390.987 573.134C392.015 570.652 392.015 567.918 390.987 565.437C389.959 562.955 388.026 561.022 385.545 559.994L382.17 558.596C381.864 558.469 381.719 558.118 381.845 557.811C381.972 557.505 382.325 557.36 382.63 557.487L386.005 558.885C388.782 560.035 390.946 562.199 392.096 564.977C393.247 567.755 393.247 570.815 392.096 573.593L380.161 602.422C380.065 602.653 379.841 602.793 379.606 602.793Z" fill="black"/>
<path d="M347.745 604.266C347.669 604.266 347.594 604.252 347.52 604.223C347.213 604.098 347.064 603.749 347.188 603.441L368.352 550.905C369.125 549.038 370.575 547.588 372.436 546.816C374.297 546.045 376.347 546.045 378.208 546.816L378.839 547.077C380.7 547.848 382.149 549.298 382.921 551.16C383.692 553.022 383.692 555.073 382.921 556.935L366.154 598.851C366.031 599.159 365.678 599.308 365.374 599.185C365.066 599.062 364.916 598.712 365.039 598.405L381.809 556.481C382.46 554.91 382.46 553.185 381.811 551.62C381.163 550.054 379.944 548.835 378.379 548.187L377.749 547.926C376.183 547.278 374.46 547.278 372.895 547.926C371.33 548.574 370.111 549.794 369.463 551.359L348.301 603.89C348.207 604.124 347.982 604.266 347.745 604.266Z" fill="black"/>
<path d="M392.403 753.501L352.863 674.246L418.741 641.361L472.023 748.16L392.403 753.501Z" fill="white"/>
<path d="M392.404 754.102C392.183 754.102 391.971 753.98 391.866 753.769L352.325 674.514C352.254 674.372 352.243 674.207 352.293 674.056C352.343 673.905 352.452 673.78 352.595 673.709L418.473 640.824C418.772 640.676 419.131 640.797 419.278 641.093L472.56 747.892C472.709 748.189 472.588 748.549 472.291 748.697C471.994 748.847 471.634 748.725 471.486 748.428L418.472 642.167L353.667 674.516L392.94 753.233C393.088 753.53 392.968 753.89 392.671 754.039C392.585 754.081 392.494 754.102 392.404 754.102Z" fill="black"/>
<path d="M168.715 551.13L186.224 594.837L172.767 600.412L155.258 556.705C153.791 553.161 155.473 549.1 159.015 547.632L159.645 547.371C163.188 545.904 167.248 547.586 168.715 551.13Z" fill="white"/>
<path d="M182.161 585.023L194.403 614.59L182.143 639.008L147.787 653.36L128.71 607.284L182.161 585.023Z" fill="white"/>
<path d="M145.348 568.601L152.519 565.63L158.093 579.091L149.935 582.471L158.6 603.399L145.142 608.974L136.886 589.032C133.582 581.053 137.371 571.905 145.348 568.601Z" fill="white"/>
<path d="M133.953 583.085L142.557 579.579L148.131 593.04L139.973 596.42L148.638 617.348L135.18 622.923L126.263 601.581C123.242 594.349 126.696 586.041 133.953 583.085Z" fill="white"/>
<path d="M153.933 594.389L128.484 645.403L168.94 665.596L194.389 614.582L153.933 594.389Z" fill="white"/>
<path d="M173.378 656.745L168.958 665.604L128.502 645.41L135.481 630.845L173.378 656.745Z" fill="black"/>
<path d="M168.957 666.205C168.867 666.205 168.776 666.185 168.689 666.142L128.234 645.947C127.94 645.801 127.819 645.445 127.961 645.149L136.435 627.537L125.673 601.745C124.157 598.111 124.15 594.106 125.654 590.467C127.157 586.829 129.989 583.997 133.627 582.494L135.421 581.753C135.728 581.625 136.078 581.772 136.205 582.079C136.331 582.386 136.185 582.737 135.879 582.863L134.085 583.605C130.744 584.985 128.144 587.585 126.763 590.926C125.383 594.268 125.389 597.945 126.781 601.282L137.647 627.323C137.713 627.482 137.708 627.661 137.634 627.815L129.3 645.136L168.688 664.799L193.882 614.371C194.03 614.074 194.39 613.953 194.687 614.102C194.984 614.25 195.104 614.611 194.956 614.907L169.494 665.873C169.389 666.083 169.177 666.205 168.957 666.205Z" fill="black"/>
<path d="M155.463 557.942L171.873 597.578L158.416 603.153L146.082 573.363C143.83 567.925 146.412 561.691 151.848 559.439L155.463 557.942Z" fill="white"/>
<path d="M145.143 609.575C144.907 609.575 144.684 609.435 144.588 609.204L136.331 589.262C132.935 581.061 136.818 571.568 144.986 568.101C145.29 567.971 145.644 568.114 145.773 568.419C145.903 568.725 145.76 569.077 145.455 569.207C137.891 572.417 134.296 581.208 137.44 588.802L145.697 608.744C145.824 609.05 145.678 609.402 145.372 609.528C145.297 609.56 145.219 609.575 145.143 609.575Z" fill="black"/>
<path d="M158.018 602.793C157.782 602.793 157.559 602.653 157.463 602.422L145.527 573.593C143.153 567.858 145.885 561.26 151.619 558.884L154.994 557.486C155.301 557.359 155.652 557.505 155.779 557.811C155.906 558.118 155.76 558.469 155.454 558.596L152.078 559.994C146.956 562.116 144.515 568.01 146.636 573.133L158.572 601.962C158.699 602.268 158.554 602.62 158.247 602.747C158.172 602.778 158.094 602.793 158.018 602.793Z" fill="black"/>
<path d="M189.88 604.266C189.642 604.266 189.417 604.124 189.323 603.89L168.159 551.354C166.823 548.128 163.107 546.588 159.875 547.926L159.245 548.187C157.68 548.835 156.461 550.054 155.813 551.62C155.165 553.185 155.164 554.909 155.813 556.475L172.586 598.404C172.709 598.712 172.559 599.062 172.252 599.185C171.943 599.308 171.594 599.158 171.471 598.85L154.701 556.927C153.933 555.072 153.933 553.021 154.704 551.16C155.475 549.298 156.925 547.848 158.786 547.077L159.417 546.816C163.258 545.224 167.68 547.056 169.271 550.899L190.438 603.441C190.561 603.748 190.413 604.098 190.105 604.222C190.031 604.252 189.955 604.266 189.88 604.266Z" fill="black"/>
<path d="M145.221 753.501L184.761 674.246L118.883 641.361L65.6007 748.16L145.221 753.501Z" fill="white"/>
<path d="M145.22 754.102C145.13 754.102 145.039 754.081 144.953 754.038C144.656 753.89 144.535 753.53 144.684 753.233L183.956 674.515L119.152 642.166L66.1378 748.428C65.9895 748.725 65.6282 748.845 65.3324 748.697C65.0353 748.549 64.9151 748.188 65.0634 747.891L118.346 641.093C118.417 640.95 118.542 640.842 118.693 640.791C118.844 640.741 119.009 640.752 119.151 640.823L185.029 673.708C185.172 673.78 185.28 673.904 185.33 674.056C185.381 674.207 185.369 674.371 185.298 674.514L145.758 753.768C145.653 753.98 145.441 754.102 145.22 754.102Z" fill="black"/>
</g>
<path d="M533.912 171.481L517.212 177.741V202.347C517.212 221.893 498.291 236.29 478.644 231.691L445.618 220.459V176.377C445.618 157.222 434.198 140.735 417.786 133.332C410.662 130.118 406.012 123.119 406.012 115.312V80.0613C406.012 70.8553 412.383 62.8076 421.39 60.8492C426.957 59.6387 432.747 59 438.691 59C482.053 59 517.212 92.9875 517.212 134.916V135.257L537.239 158.48C540.959 162.788 539.245 169.478 533.912 171.481Z" fill="#195DFF"/>
<path d="M374.908 191.297C374.417 191.297 374.018 190.899 374.018 190.409V176.114C370.168 170.082 367.193 163.605 365.174 156.859C363.067 149.841 362 142.552 362 135.195C362 107.321 380.101 81.9609 407.04 72.0913L407.305 71.9943C407.758 71.81 408.279 72.0305 408.463 72.4853C408.647 72.9405 408.427 73.4584 407.971 73.6419L407.677 73.751C381.411 83.3743 363.78 108.064 363.78 135.196C363.78 142.38 364.822 149.497 366.879 156.35C368.875 163.02 371.828 169.42 375.657 175.374C375.749 175.517 375.798 175.684 375.798 175.854V190.409C375.798 190.9 375.4 191.297 374.908 191.297Z" fill="#195DFF"/>
<path d="M455.532 224.727C455.04 224.727 454.642 224.329 454.642 223.838V217.43C454.642 217.159 454.766 216.903 454.979 216.734C455.193 216.565 455.47 216.503 455.734 216.565L466.98 219.195C475.134 221.101 483.531 219.247 490.02 214.108C496.178 209.231 499.711 202.02 499.711 194.325V172.745C499.711 172.375 499.941 172.043 500.287 171.914L514.933 166.424C516.887 165.692 518.304 164.115 518.82 162.096C519.337 160.079 518.853 158.016 517.491 156.437L499.926 136.07C499.787 135.908 499.71 135.703 499.71 135.49V135.193C499.71 98.9759 469.221 69.5119 431.744 69.5119C423.551 69.5119 415.542 70.9052 407.94 73.6531C407.48 73.8193 406.968 73.5815 406.801 73.1198C406.634 72.6582 406.873 72.1491 407.335 71.9821C415.132 69.1642 423.345 67.7351 431.745 67.7351C470.191 67.7351 501.471 97.9794 501.49 135.161L518.84 155.278C520.586 157.303 521.208 159.949 520.545 162.537C519.882 165.126 518.064 167.15 515.559 168.088L501.49 173.361V194.326C501.49 202.567 497.713 210.285 491.126 215.501C484.208 220.979 475.256 222.957 466.576 220.926L456.422 218.552V223.84C456.421 224.329 456.023 224.727 455.532 224.727Z" fill="white"/>
<path d="M455.846 138.124C455.619 138.124 455.391 138.037 455.217 137.864L419.079 101.773C418.912 101.606 418.818 101.38 418.818 101.145V69.8322C418.818 69.3416 419.216 68.9436 419.708 68.9436C420.2 68.9436 420.597 69.3412 420.597 69.8322V100.777L456.475 136.607C456.823 136.954 456.823 137.517 456.475 137.864C456.302 138.037 456.074 138.124 455.846 138.124Z" fill="white"/>
<path d="M495.905 209.359C495.677 209.359 495.45 209.272 495.276 209.099L473.782 187.634C473.615 187.467 473.521 187.241 473.521 187.005V143.29L453.073 122.867C452.725 122.521 452.725 121.958 453.073 121.611C453.42 121.264 453.983 121.264 454.331 121.611L475.04 142.294C475.207 142.46 475.301 142.686 475.301 142.922V186.638L496.534 207.843C496.882 208.189 496.882 208.752 496.534 209.099C496.36 209.272 496.132 209.359 495.905 209.359Z" fill="white"/>
<path d="M513.211 168.22C512.983 168.22 512.755 168.134 512.582 167.96L435.415 90.8955C435.248 90.7289 435.154 90.5027 435.154 90.2673V68.967C435.154 68.4764 435.552 68.0784 436.044 68.0784C436.536 68.0784 436.934 68.476 436.934 68.967V89.8995L513.84 166.704C514.187 167.051 514.187 167.613 513.84 167.961C513.666 168.134 513.438 168.22 513.211 168.22Z" fill="white"/>
<path d="M499.204 124.24C498.977 124.24 498.749 124.153 498.575 123.98L460.58 86.0342C460.413 85.8676 460.319 85.6418 460.319 85.4059V75.0236C460.319 74.533 460.717 74.135 461.209 74.135C461.701 74.135 462.099 74.533 462.099 75.0236V85.0381L499.833 122.723C500.181 123.07 500.181 123.632 499.833 123.98C499.66 124.153 499.432 124.24 499.204 124.24Z" fill="white"/>
<path d="M487.2 128.071C486.972 128.071 486.745 127.984 486.571 127.811L446.843 88.1353C446.495 87.7884 446.495 87.2261 446.843 86.8788C447.19 86.5319 447.753 86.5319 448.101 86.8788L487.829 126.554C488.177 126.901 488.177 127.464 487.829 127.811C487.655 127.985 487.428 128.071 487.2 128.071Z" fill="white"/>
<path d="M488.027 130.608C489.496 130.608 490.688 129.419 490.688 127.951C490.688 126.483 489.496 125.294 488.027 125.294C486.557 125.294 485.366 126.483 485.366 127.951C485.366 129.419 486.557 130.608 488.027 130.608Z" fill="white"/>
<path d="M446.193 115.629C445.965 115.629 445.738 115.542 445.564 115.368L426.504 96.3342C426.337 96.1676 426.243 95.9418 426.243 95.706V75.6005C426.243 75.1099 426.641 74.7119 427.133 74.7119C427.625 74.7119 428.023 75.1095 428.023 75.6005V95.3381L446.822 114.112C447.169 114.459 447.169 115.021 446.822 115.368C446.648 115.542 446.42 115.629 446.193 115.629Z" fill="white"/>
<path d="M448.647 114.451C448.647 112.984 447.456 111.794 445.986 111.794C444.517 111.794 443.326 112.984 443.326 114.451C443.326 115.919 444.517 117.109 445.986 117.109C447.456 117.109 448.647 115.919 448.647 114.451Z" fill="white"/>
<path d="M477.639 221.112C477.411 221.112 477.184 221.025 477.01 220.851L463.303 207.163C463.136 206.996 463.042 206.77 463.042 206.534V145.311C463.042 144.821 463.44 144.423 463.932 144.423C464.424 144.423 464.822 144.82 464.822 145.311V206.166L478.268 219.595C478.616 219.942 478.616 220.504 478.268 220.851C478.094 221.025 477.867 221.112 477.639 221.112Z" fill="white"/>
<path d="M463.901 147.546C465.371 147.546 466.562 146.356 466.562 144.889C466.562 143.421 465.371 142.231 463.901 142.231C462.432 142.231 461.241 143.421 461.241 144.889C461.241 146.356 462.432 147.546 463.901 147.546Z" fill="white"/>
<path d="M455.455 210.853C454.963 210.853 454.565 210.455 454.565 209.964V151.468L412.312 109.271C412.146 109.105 412.052 108.878 412.052 108.643V71.4391C412.052 70.9486 412.449 70.5505 412.941 70.5505C413.434 70.5505 413.831 70.9482 413.831 71.4391V108.275L456.084 150.472C456.25 150.638 456.344 150.864 456.344 151.1V209.965C456.344 210.455 455.946 210.853 455.455 210.853Z" fill="white"/>
<path d="M426.432 119.829C426.432 118.361 425.241 117.171 423.771 117.171C422.301 117.171 421.11 118.361 421.11 119.829C421.11 121.296 422.301 122.486 423.771 122.486C425.241 122.486 426.432 121.296 426.432 119.829Z" fill="white"/>
<path d="M489.15 216.537C488.922 216.537 488.694 216.45 488.521 216.277L470.853 198.633C470.505 198.286 470.505 197.724 470.853 197.377C471.2 197.03 471.763 197.03 472.111 197.377L489.779 215.021C490.126 215.367 490.126 215.93 489.779 216.277C489.605 216.451 489.378 216.537 489.15 216.537Z" fill="white"/>
<path d="M471.956 201.095C473.426 201.095 474.617 199.906 474.617 198.438C474.617 196.971 473.426 195.781 471.956 195.781C470.487 195.781 469.295 196.971 469.295 198.438C469.295 199.906 470.487 201.095 471.956 201.095Z" fill="white"/>
<path d="M499.896 199.934C499.668 199.934 499.441 199.847 499.267 199.674L483.435 183.863C483.269 183.697 483.175 183.471 483.175 183.235V151.923C483.175 151.432 483.572 151.034 484.064 151.034C484.557 151.034 484.954 151.432 484.954 151.923V182.867L500.525 198.417C500.872 198.764 500.872 199.327 500.525 199.674C500.351 199.847 500.124 199.934 499.896 199.934Z" fill="white"/>
<path d="M493.306 181.879C492.814 181.879 492.416 181.481 492.416 180.99V160.555C492.416 160.064 492.813 159.666 493.306 159.666C493.798 159.666 494.195 160.064 494.195 160.555V180.99C494.195 181.481 493.798 181.879 493.306 181.879Z" fill="white"/>
<path d="M493.347 163.995C494.816 163.995 496.007 162.805 496.007 161.338C496.007 159.87 494.816 158.68 493.347 158.68C491.877 158.68 490.686 159.87 490.686 161.338C490.686 162.805 491.877 163.995 493.347 163.995Z" fill="white"/>
<path d="M455.533 224.72C455.438 224.72 455.341 224.704 455.246 224.673L445.332 221.3C444.971 221.178 444.729 220.84 444.729 220.459V176.377C444.729 158.203 434.01 141.625 417.42 134.141C409.95 130.772 405.123 123.381 405.123 115.312V80.0612C405.123 77.5749 405.564 75.1365 406.434 72.814C406.606 72.3548 407.12 72.1206 407.579 72.2936C408.04 72.4655 408.272 72.9778 408.1 73.437C407.304 75.5595 406.901 77.7886 406.901 80.0612V115.312C406.901 122.684 411.317 129.44 418.152 132.522C435.378 140.292 446.507 157.506 446.507 176.376V219.823L455.819 222.99C456.283 223.148 456.533 223.653 456.374 224.117C456.248 224.487 455.903 224.72 455.533 224.72Z" fill="white"/>
<path d="M402.036 247.173H377.484L371.969 262.488H364L386.379 203.963H393.141L415.56 262.488H407.63L402.036 247.173ZM379.818 240.863H399.742L389.76 213.489L379.818 240.863Z" fill="white"/>
<path d="M431.74 262.488H424.012V203.963H431.74V262.488Z" fill="white"/>
<rect x="32" y="619" width="314" height="601" rx="30" transform="rotate(-90 32 619)" fill="url(#paint1_linear_774_1466)" fill-opacity="0.52" stroke="white" stroke-width="2"/>
<circle cx="528.894" cy="471.759" r="23.3248" transform="rotate(-90 528.894 471.759)" fill="#D9D9D9"/>
<circle cx="529" cy="472" r="14.5" stroke="#195DFF" stroke-width="3"/>
<path d="M425.36 354.12C424.24 354.12 423.273 353.96 422.46 353.64C421.66 353.32 421.04 352.86 420.6 352.26C420.173 351.647 419.96 350.927 419.96 350.1C419.96 349.3 420.167 348.62 420.58 348.06C421.007 347.487 421.62 347.047 422.42 346.74C423.233 346.433 424.213 346.28 425.36 346.28C426.493 346.28 427.467 346.433 428.28 346.74C429.093 347.047 429.713 347.487 430.14 348.06C430.58 348.62 430.8 349.3 430.8 350.1C430.8 350.927 430.58 351.647 430.14 352.26C429.7 352.86 429.073 353.32 428.26 353.64C427.447 353.96 426.48 354.12 425.36 354.12ZM425.36 352.9C426.6 352.9 427.567 352.647 428.26 352.14C428.967 351.633 429.32 350.947 429.32 350.08C429.32 349.213 428.967 348.533 428.26 348.04C427.567 347.533 426.6 347.28 425.36 347.28C424.12 347.28 423.153 347.533 422.46 348.04C421.767 348.533 421.42 349.213 421.42 350.08C421.42 350.947 421.767 351.633 422.46 352.14C423.153 352.647 424.12 352.9 425.36 352.9ZM425.36 347.1C424.32 347.1 423.433 346.96 422.7 346.68C421.98 346.4 421.427 346 421.04 345.48C420.653 344.947 420.46 344.313 420.46 343.58C420.46 342.807 420.66 342.147 421.06 341.6C421.473 341.04 422.047 340.613 422.78 340.32C423.513 340.027 424.373 339.88 425.36 339.88C426.347 339.88 427.207 340.027 427.94 340.32C428.687 340.613 429.267 341.04 429.68 341.6C430.093 342.147 430.3 342.807 430.3 343.58C430.3 344.313 430.107 344.947 429.72 345.48C429.333 346 428.767 346.4 428.02 346.68C427.287 346.96 426.4 347.1 425.36 347.1ZM425.36 346.14C426.453 346.14 427.307 345.913 427.92 345.46C428.533 345.007 428.84 344.4 428.84 343.64C428.84 342.84 428.52 342.22 427.88 341.78C427.253 341.327 426.413 341.1 425.36 341.1C424.307 341.1 423.467 341.327 422.84 341.78C422.213 342.22 421.9 342.833 421.9 343.62C421.9 344.393 422.2 345.007 422.8 345.46C423.413 345.913 424.267 346.14 425.36 346.14ZM438.374 354.12C437.294 354.12 436.334 353.84 435.494 353.28C434.654 352.707 433.994 351.893 433.514 350.84C433.034 349.773 432.794 348.493 432.794 347C432.794 345.507 433.034 344.233 433.514 343.18C433.994 342.113 434.654 341.3 435.494 340.74C436.334 340.167 437.294 339.88 438.374 339.88C439.454 339.88 440.414 340.167 441.254 340.74C442.094 341.3 442.754 342.113 443.234 343.18C443.727 344.233 443.974 345.507 443.974 347C443.974 348.493 443.727 349.773 443.234 350.84C442.754 351.893 442.094 352.707 441.254 353.28C440.414 353.84 439.454 354.12 438.374 354.12ZM438.374 352.8C439.201 352.8 439.921 352.58 440.534 352.14C441.147 351.687 441.627 351.033 441.974 350.18C442.321 349.313 442.494 348.253 442.494 347C442.494 345.747 442.321 344.693 441.974 343.84C441.627 342.973 441.147 342.32 440.534 341.88C439.921 341.427 439.201 341.2 438.374 341.2C437.574 341.2 436.861 341.427 436.234 341.88C435.607 342.32 435.121 342.973 434.774 343.84C434.427 344.693 434.254 345.747 434.254 347C434.254 348.253 434.427 349.313 434.774 350.18C435.121 351.033 435.607 351.687 436.234 352.14C436.861 352.58 437.574 352.8 438.374 352.8ZM451.616 354.12C450.536 354.12 449.576 353.84 448.736 353.28C447.896 352.707 447.236 351.893 446.756 350.84C446.276 349.773 446.036 348.493 446.036 347C446.036 345.507 446.276 344.233 446.756 343.18C447.236 342.113 447.896 341.3 448.736 340.74C449.576 340.167 450.536 339.88 451.616 339.88C452.696 339.88 453.656 340.167 454.496 340.74C455.336 341.3 455.996 342.113 456.476 343.18C456.969 344.233 457.216 345.507 457.216 347C457.216 348.493 456.969 349.773 456.476 350.84C455.996 351.893 455.336 352.707 454.496 353.28C453.656 353.84 452.696 354.12 451.616 354.12ZM451.616 352.8C452.443 352.8 453.163 352.58 453.776 352.14C454.389 351.687 454.869 351.033 455.216 350.18C455.563 349.313 455.736 348.253 455.736 347C455.736 345.747 455.563 344.693 455.216 343.84C454.869 342.973 454.389 342.32 453.776 341.88C453.163 341.427 452.443 341.2 451.616 341.2C450.816 341.2 450.103 341.427 449.476 341.88C448.849 342.32 448.363 342.973 448.016 343.84C447.669 344.693 447.496 345.747 447.496 347C447.496 348.253 447.669 349.313 448.016 350.18C448.363 351.033 448.849 351.687 449.476 352.14C450.103 352.58 450.816 352.8 451.616 352.8ZM464.858 354.12C463.778 354.12 462.818 353.84 461.978 353.28C461.138 352.707 460.478 351.893 459.998 350.84C459.518 349.773 459.278 348.493 459.278 347C459.278 345.507 459.518 344.233 459.998 343.18C460.478 342.113 461.138 341.3 461.978 340.74C462.818 340.167 463.778 339.88 464.858 339.88C465.938 339.88 466.898 340.167 467.738 340.74C468.578 341.3 469.238 342.113 469.718 343.18C470.212 344.233 470.458 345.507 470.458 347C470.458 348.493 470.212 349.773 469.718 350.84C469.238 351.893 468.578 352.707 467.738 353.28C466.898 353.84 465.938 354.12 464.858 354.12ZM464.858 352.8C465.685 352.8 466.405 352.58 467.018 352.14C467.632 351.687 468.112 351.033 468.458 350.18C468.805 349.313 468.978 348.253 468.978 347C468.978 345.747 468.805 344.693 468.458 343.84C468.112 342.973 467.632 342.32 467.018 341.88C466.405 341.427 465.685 341.2 464.858 341.2C464.058 341.2 463.345 341.427 462.718 341.88C462.092 342.32 461.605 342.973 461.258 343.84C460.912 344.693 460.738 345.747 460.738 347C460.738 348.253 460.912 349.313 461.258 350.18C461.605 351.033 462.092 351.687 462.718 352.14C463.345 352.58 464.058 352.8 464.858 352.8ZM479.815 351.28L479.855 349.46L486.395 343.5H488.135L483.515 347.92L482.715 348.6L479.815 351.28ZM478.695 354V339.16H480.115V354H478.695ZM486.835 354L482.455 348.54L483.375 347.44L488.575 354H486.835ZM503.67 343.4C504.524 343.4 505.264 343.567 505.89 343.9C506.53 344.22 507.024 344.713 507.37 345.38C507.73 346.047 507.91 346.887 507.91 347.9V354H506.49V348.04C506.49 346.933 506.224 346.1 505.69 345.54C505.17 344.967 504.43 344.68 503.47 344.68C502.75 344.68 502.124 344.833 501.59 345.14C501.07 345.433 500.664 345.867 500.37 346.44C500.09 347 499.95 347.68 499.95 348.48V354H498.53V348.04C498.53 346.933 498.264 346.1 497.73 345.54C497.197 344.967 496.45 344.68 495.49 344.68C494.784 344.68 494.164 344.833 493.63 345.14C493.097 345.433 492.684 345.867 492.39 346.44C492.11 347 491.97 347.68 491.97 348.48V354H490.55V343.5H491.91V346.34L491.69 345.84C492.01 345.08 492.524 344.487 493.23 344.06C493.95 343.62 494.797 343.4 495.77 343.4C496.797 343.4 497.67 343.66 498.39 344.18C499.11 344.687 499.577 345.453 499.79 346.48L499.23 346.26C499.537 345.407 500.077 344.72 500.85 344.2C501.637 343.667 502.577 343.4 503.67 343.4ZM514.581 354.1C513.715 354.1 512.895 353.98 512.121 353.74C511.348 353.487 510.741 353.173 510.301 352.8L510.941 351.68C511.368 352 511.915 352.28 512.581 352.52C513.248 352.747 513.948 352.86 514.681 352.86C515.681 352.86 516.401 352.707 516.841 352.4C517.281 352.08 517.501 351.66 517.501 351.14C517.501 350.753 517.375 350.453 517.121 350.24C516.881 350.013 516.561 349.847 516.161 349.74C515.761 349.62 515.315 349.52 514.821 349.44C514.328 349.36 513.835 349.267 513.341 349.16C512.861 349.053 512.421 348.9 512.021 348.7C511.621 348.487 511.295 348.2 511.041 347.84C510.801 347.48 510.681 347 510.681 346.4C510.681 345.827 510.841 345.313 511.161 344.86C511.481 344.407 511.948 344.053 512.561 343.8C513.188 343.533 513.948 343.4 514.841 343.4C515.521 343.4 516.201 343.493 516.881 343.68C517.561 343.853 518.121 344.087 518.561 344.38L517.941 345.52C517.475 345.2 516.975 344.973 516.441 344.84C515.908 344.693 515.375 344.62 514.841 344.62C513.895 344.62 513.195 344.787 512.741 345.12C512.301 345.44 512.081 345.853 512.081 346.36C512.081 346.76 512.201 347.073 512.441 347.3C512.695 347.527 513.021 347.707 513.421 347.84C513.835 347.96 514.281 348.06 514.761 348.14C515.255 348.22 515.741 348.32 516.221 348.44C516.715 348.547 517.161 348.7 517.561 348.9C517.975 349.087 518.301 349.36 518.541 349.72C518.795 350.067 518.921 350.527 518.921 351.1C518.921 351.713 518.748 352.247 518.401 352.7C518.068 353.14 517.575 353.487 516.921 353.74C516.281 353.98 515.501 354.1 514.581 354.1Z" fill="white"/>
<path d="M422.6 379.78H430V381.06H422.6V379.78ZM422.76 387H421.28V373H430.88V374.28H422.76V387ZM437.625 387.1C436.731 387.1 435.951 386.933 435.285 386.6C434.618 386.267 434.098 385.767 433.725 385.1C433.365 384.433 433.185 383.6 433.185 382.6V376.5H434.605V382.44C434.605 383.56 434.878 384.407 435.425 384.98C435.985 385.54 436.765 385.82 437.765 385.82C438.498 385.82 439.131 385.673 439.665 385.38C440.211 385.073 440.625 384.633 440.905 384.06C441.198 383.487 441.345 382.8 441.345 382V376.5H442.765V387H441.405V384.12L441.625 384.64C441.291 385.413 440.771 386.02 440.065 386.46C439.371 386.887 438.558 387.1 437.625 387.1ZM451.182 387.1C450.089 387.1 449.129 386.873 448.302 386.42C447.476 385.953 446.829 385.32 446.362 384.52C445.896 383.707 445.662 382.78 445.662 381.74C445.662 380.7 445.882 379.78 446.322 378.98C446.776 378.18 447.389 377.553 448.162 377.1C448.949 376.633 449.829 376.4 450.802 376.4C451.789 376.4 452.662 376.627 453.422 377.08C454.196 377.52 454.802 378.147 455.242 378.96C455.682 379.76 455.902 380.687 455.902 381.74C455.902 381.807 455.896 381.88 455.882 381.96C455.882 382.027 455.882 382.1 455.882 382.18H446.742V381.12H455.122L454.562 381.54C454.562 380.78 454.396 380.107 454.062 379.52C453.742 378.92 453.302 378.453 452.742 378.12C452.182 377.787 451.536 377.62 450.802 377.62C450.082 377.62 449.436 377.787 448.862 378.12C448.289 378.453 447.842 378.92 447.522 379.52C447.202 380.12 447.042 380.807 447.042 381.58V381.8C447.042 382.6 447.216 383.307 447.562 383.92C447.922 384.52 448.416 384.993 449.042 385.34C449.682 385.673 450.409 385.84 451.222 385.84C451.862 385.84 452.456 385.727 453.002 385.5C453.562 385.273 454.042 384.927 454.442 384.46L455.242 385.38C454.776 385.94 454.189 386.367 453.482 386.66C452.789 386.953 452.022 387.1 451.182 387.1ZM458.793 387V372.16H460.213V387H458.793ZM472.818 372.88C474.058 372.88 475.105 373.16 475.958 373.72C476.811 374.267 477.458 375.06 477.898 376.1C478.338 377.14 478.558 378.4 478.558 379.88C478.558 381.453 478.285 382.78 477.738 383.86C477.205 384.94 476.458 385.753 475.498 386.3C474.538 386.847 473.425 387.12 472.158 387.12C471.531 387.12 470.931 387.06 470.358 386.94C469.798 386.82 469.291 386.627 468.838 386.36L469.418 385.2C469.778 385.44 470.191 385.613 470.658 385.72C471.138 385.813 471.631 385.86 472.138 385.86C473.645 385.86 474.845 385.38 475.738 384.42C476.645 383.46 477.098 382.027 477.098 380.12C477.098 379.813 477.078 379.447 477.038 379.02C477.011 378.593 476.938 378.167 476.818 377.74L477.318 378.12C477.185 378.813 476.898 379.407 476.458 379.9C476.031 380.38 475.498 380.747 474.858 381C474.231 381.253 473.531 381.38 472.758 381.38C471.838 381.38 471.018 381.207 470.298 380.86C469.591 380.513 469.038 380.027 468.638 379.4C468.238 378.773 468.038 378.033 468.038 377.18C468.038 376.3 468.245 375.54 468.658 374.9C469.071 374.26 469.638 373.767 470.358 373.42C471.091 373.06 471.911 372.88 472.818 372.88ZM472.878 374.1C472.211 374.1 471.618 374.227 471.098 374.48C470.591 374.72 470.191 375.067 469.898 375.52C469.605 375.973 469.458 376.513 469.458 377.14C469.458 378.06 469.771 378.793 470.398 379.34C471.038 379.887 471.898 380.16 472.978 380.16C473.698 380.16 474.325 380.027 474.858 379.76C475.405 379.493 475.825 379.127 476.118 378.66C476.425 378.193 476.578 377.673 476.578 377.1C476.578 376.58 476.438 376.093 476.158 375.64C475.878 375.187 475.465 374.82 474.918 374.54C474.371 374.247 473.691 374.1 472.878 374.1ZM486.225 387.12C485.145 387.12 484.185 386.84 483.345 386.28C482.505 385.707 481.845 384.893 481.365 383.84C480.885 382.773 480.645 381.493 480.645 380C480.645 378.507 480.885 377.233 481.365 376.18C481.845 375.113 482.505 374.3 483.345 373.74C484.185 373.167 485.145 372.88 486.225 372.88C487.305 372.88 488.265 373.167 489.105 373.74C489.945 374.3 490.605 375.113 491.085 376.18C491.579 377.233 491.825 378.507 491.825 380C491.825 381.493 491.579 382.773 491.085 383.84C490.605 384.893 489.945 385.707 489.105 386.28C488.265 386.84 487.305 387.12 486.225 387.12ZM486.225 385.8C487.052 385.8 487.772 385.58 488.385 385.14C488.999 384.687 489.479 384.033 489.825 383.18C490.172 382.313 490.345 381.253 490.345 380C490.345 378.747 490.172 377.693 489.825 376.84C489.479 375.973 488.999 375.32 488.385 374.88C487.772 374.427 487.052 374.2 486.225 374.2C485.425 374.2 484.712 374.427 484.085 374.88C483.459 375.32 482.972 375.973 482.625 376.84C482.279 377.693 482.105 378.747 482.105 380C482.105 381.253 482.279 382.313 482.625 383.18C482.972 384.033 483.459 384.687 484.085 385.14C484.712 385.58 485.425 385.8 486.225 385.8ZM496.408 383.52L496.348 381.72L504.828 373H506.528L500.348 379.48L499.508 380.38L496.408 383.52ZM495.128 387V373H496.608V387H495.128ZM505.188 387L499.148 380.04L500.148 378.96L506.948 387H505.188ZM521.971 376.4C522.824 376.4 523.564 376.567 524.191 376.9C524.831 377.22 525.324 377.713 525.671 378.38C526.031 379.047 526.211 379.887 526.211 380.9V387H524.791V381.04C524.791 379.933 524.524 379.1 523.991 378.54C523.471 377.967 522.731 377.68 521.771 377.68C521.051 377.68 520.424 377.833 519.891 378.14C519.371 378.433 518.964 378.867 518.671 379.44C518.391 380 518.251 380.68 518.251 381.48V387H516.831V381.04C516.831 379.933 516.564 379.1 516.031 378.54C515.498 377.967 514.751 377.68 513.791 377.68C513.084 377.68 512.464 377.833 511.931 378.14C511.398 378.433 510.984 378.867 510.691 379.44C510.411 380 510.271 380.68 510.271 381.48V387H508.851V376.5H510.211V379.34L509.991 378.84C510.311 378.08 510.824 377.487 511.531 377.06C512.251 376.62 513.098 376.4 514.071 376.4C515.098 376.4 515.971 376.66 516.691 377.18C517.411 377.687 517.878 378.453 518.091 379.48L517.531 379.26C517.838 378.407 518.378 377.72 519.151 377.2C519.938 376.667 520.878 376.4 521.971 376.4ZM532.882 387.1C532.015 387.1 531.195 386.98 530.422 386.74C529.649 386.487 529.042 386.173 528.602 385.8L529.242 384.68C529.669 385 530.215 385.28 530.882 385.52C531.549 385.747 532.249 385.86 532.982 385.86C533.982 385.86 534.702 385.707 535.142 385.4C535.582 385.08 535.802 384.66 535.802 384.14C535.802 383.753 535.675 383.453 535.422 383.24C535.182 383.013 534.862 382.847 534.462 382.74C534.062 382.62 533.615 382.52 533.122 382.44C532.629 382.36 532.135 382.267 531.642 382.16C531.162 382.053 530.722 381.9 530.322 381.7C529.922 381.487 529.595 381.2 529.342 380.84C529.102 380.48 528.982 380 528.982 379.4C528.982 378.827 529.142 378.313 529.462 377.86C529.782 377.407 530.249 377.053 530.862 376.8C531.489 376.533 532.249 376.4 533.142 376.4C533.822 376.4 534.502 376.493 535.182 376.68C535.862 376.853 536.422 377.087 536.862 377.38L536.242 378.52C535.775 378.2 535.275 377.973 534.742 377.84C534.209 377.693 533.675 377.62 533.142 377.62C532.195 377.62 531.495 377.787 531.042 378.12C530.602 378.44 530.382 378.853 530.382 379.36C530.382 379.76 530.502 380.073 530.742 380.3C530.995 380.527 531.322 380.707 531.722 380.84C532.135 380.96 532.582 381.06 533.062 381.14C533.555 381.22 534.042 381.32 534.522 381.44C535.015 381.547 535.462 381.7 535.862 381.9C536.275 382.087 536.602 382.36 536.842 382.72C537.095 383.067 537.222 383.527 537.222 384.1C537.222 384.713 537.049 385.247 536.702 385.7C536.369 386.14 535.875 386.487 535.222 386.74C534.582 386.98 533.802 387.1 532.882 387.1Z" fill="white"/>
</g>
<defs>
<filter id="filter0_f_774_1466" x="-523.04" y="153.171" width="1398.11" height="996.688" filterUnits="userSpaceOnUse" color-interpolation-filters="sRGB">
<feFlood flood-opacity="0" result="BackgroundImageFix"/>
<feBlend mode="normal" in="SourceGraphic" in2="BackgroundImageFix" result="shape"/>
<feGaussianBlur stdDeviation="150" result="effect1_foregroundBlur_774_1466"/>
</filter>
<linearGradient id="paint0_linear_774_1466" x1="2.54582e-06" y1="398.45" x2="357.692" y2="398.45" gradientUnits="userSpaceOnUse">
<stop stop-color="#195DFF"/>
<stop offset="0.789306" stop-color="#4B3BE4"/>
</linearGradient>
<linearGradient id="paint1_linear_774_1466" x1="189" y1="1223" x2="189" y2="620" gradientUnits="userSpaceOnUse">
<stop/>
<stop offset="1" stop-color="#00133F"/>
</linearGradient>
<clipPath id="clip0_774_1466">
<rect width="575" height="744" fill="white"/>
</clipPath>
<clipPath id="clip1_774_1466">
<rect width="432" height="498" fill="white" transform="translate(65 262)"/>
</clipPath>
</defs>
</svg>
