<svg width="64" height="58" viewBox="0 0 64 58" fill="none" xmlns="http://www.w3.org/2000/svg">
<path d="M31.5338 8.2666C37.5627 8.26664 43.7028 8.96215 48.3434 10.2451C50.662 10.8861 52.6223 11.6786 54.0084 12.6143C55.3892 13.5463 56.2496 14.657 56.2496 15.9424C56.2496 16.0442 56.2283 16.1442 56.1881 16.2363V16.2373L52.1364 25.4014C52.0773 26.4064 51.5421 27.3541 50.6188 28.207C49.6801 29.0742 48.327 29.8574 46.6129 30.5254C46.285 30.6536 45.9204 30.5279 45.736 30.2432L45.6686 30.1113C45.5229 29.7363 45.7069 29.3125 46.0826 29.166C47.5808 28.5822 48.7437 27.919 49.527 27.2314C50.3133 26.5411 50.689 25.8535 50.6891 25.2168C50.6891 24.5445 50.2668 23.813 49.3795 23.0811C48.497 22.3532 47.1888 21.6543 45.5045 21.0469C42.1377 19.8326 37.3161 19 31.5338 19C25.7517 19 20.93 19.8327 17.5631 21.0469C15.8787 21.6544 14.5696 22.3531 13.6871 23.0811C12.7999 23.813 12.3785 24.5445 12.3785 25.2168C12.3786 25.8534 12.7534 26.5412 13.5397 27.2314C14.323 27.919 15.4859 28.5822 16.984 29.166C17.3124 29.2939 17.4964 29.6342 17.4391 29.9688L17.399 30.1113C17.2549 30.4814 16.8363 30.6741 16.4547 30.5264H16.4537C14.7393 29.8583 13.3857 29.0744 12.4469 28.207C11.5227 27.3532 10.9872 26.4037 10.9293 25.3975L6.87952 16.2373C6.83881 16.1448 6.81702 16.0442 6.81702 15.9424C6.81705 14.6569 7.6783 13.5464 9.0592 12.6143C10.4453 11.6787 12.4049 10.8861 14.7233 10.2451C19.3639 8.9621 25.5048 8.2666 31.5338 8.2666ZM31.5338 9.72656C24.5918 9.72656 18.787 10.5435 14.7028 11.7412C12.6594 12.3404 11.0578 13.0314 9.96155 13.7549C8.88403 14.466 8.34962 15.1713 8.28381 15.8076L11.566 23.2275C12.2753 22.1499 13.4379 21.2775 14.8444 20.5703C16.4376 19.7692 18.3708 19.1672 20.3844 18.7197C24.4122 17.8246 28.8022 17.5391 31.5338 17.5391C34.5164 17.5391 38.9171 17.8438 42.8883 18.749C44.8738 19.2016 46.7619 19.8068 48.3141 20.6045C49.6813 21.3072 50.8066 22.1699 51.5006 23.2275L54.7819 15.8076C54.7159 15.1714 54.1826 14.466 53.1051 13.7549C52.0088 13.0314 50.4073 12.3405 48.3639 11.7412C44.2798 10.5436 38.4757 9.7266 31.5338 9.72656Z" fill="black" stroke="black" stroke-width="0.5"/>
<path d="M20.6524 25.7635C27.876 23.8493 35.1899 23.8494 42.4141 25.7635L43.1368 25.9618L43.3555 26.0331C44.4281 26.4367 45.1572 27.4809 45.1573 28.6473V36.3661C45.1573 43.8854 39.0292 49.9899 31.5342 49.9901C24.01 49.9901 17.9102 43.8601 17.9102 36.3661V28.6473C17.9103 27.4033 18.7396 26.299 19.9307 25.9618L20.6524 25.7635ZM26.8614 36.0009C26.3731 36.0009 25.9756 36.3993 25.9756 36.8876V47.1796C29.5064 49.0019 33.6551 48.9525 37.0919 47.1796V36.8876C37.0919 36.3993 36.6935 36.0009 36.2051 36.0009H26.8614ZM42.7393 27.3661C35.3037 25.262 27.764 25.2621 20.3282 27.3661C19.7662 27.5251 19.3693 28.0511 19.3692 28.6473V36.3661C19.3692 40.4597 21.4049 44.085 24.5157 46.2909V36.8876C24.5157 35.5939 25.5678 34.5419 26.8614 34.5419H36.2051C37.4986 34.5419 38.5508 35.5939 38.5508 36.8876V46.2909C41.6618 44.0849 43.6973 40.4598 43.6973 36.3661V28.6473C43.6972 28.0512 43.301 27.5252 42.7393 27.3661Z" fill="black" stroke="black" stroke-width="0.5"/>
<path d="M31.5338 37.1552C29.1295 37.1552 27.1733 39.1111 27.1733 41.5154C27.1733 43.9198 29.1295 45.8757 31.5338 45.8757C33.9377 45.8757 35.8936 43.9198 35.8936 41.5154C35.8936 39.1111 33.9377 37.1552 31.5338 37.1552Z" fill="#195DFF"/>
</svg>
