<svg width="509" height="488" viewBox="0 0 509 488" fill="none" xmlns="http://www.w3.org/2000/svg">
<rect width="377" height="488" transform="translate(132)" fill="white"/>
<path d="M183.88 285L191.44 268.2H194.512L202.096 285H198.832L192.328 269.856H193.576L187.096 285H183.88ZM187.36 281.112L188.2 278.664H197.272L198.112 281.112H187.36ZM209.134 285.168C208.046 285.168 207.086 284.968 206.254 284.568C205.422 284.152 204.774 283.528 204.31 282.696C203.846 281.848 203.614 280.784 203.614 279.504V272.184H206.614V279.096C206.614 280.248 206.87 281.112 207.382 281.688C207.91 282.248 208.654 282.528 209.614 282.528C210.318 282.528 210.926 282.384 211.438 282.096C211.966 281.808 212.374 281.376 212.662 280.8C212.966 280.224 213.118 279.512 213.118 278.664V272.184H216.118V285H213.262V281.544L213.766 282.6C213.334 283.432 212.702 284.072 211.87 284.52C211.038 284.952 210.126 285.168 209.134 285.168ZM224.87 285.168C223.462 285.168 222.374 284.808 221.606 284.088C220.838 283.352 220.454 282.272 220.454 280.848V269.352H223.454V280.776C223.454 281.384 223.606 281.856 223.91 282.192C224.23 282.528 224.67 282.696 225.23 282.696C225.902 282.696 226.462 282.52 226.91 282.168L227.75 284.304C227.398 284.592 226.966 284.808 226.454 284.952C225.942 285.096 225.414 285.168 224.87 285.168ZM218.342 274.68V272.28H226.886V274.68H218.342ZM235.556 285.168C234.244 285.168 233.076 284.888 232.052 284.328C231.028 283.752 230.22 282.968 229.628 281.976C229.036 280.984 228.74 279.856 228.74 278.592C228.74 277.312 229.036 276.184 229.628 275.208C230.22 274.216 231.028 273.44 232.052 272.88C233.076 272.32 234.244 272.04 235.556 272.04C236.884 272.04 238.06 272.32 239.084 272.88C240.124 273.44 240.932 274.208 241.508 275.184C242.1 276.16 242.396 277.296 242.396 278.592C242.396 279.856 242.1 280.984 241.508 281.976C240.932 282.968 240.124 283.752 239.084 284.328C238.06 284.888 236.884 285.168 235.556 285.168ZM235.556 282.6C236.292 282.6 236.948 282.44 237.524 282.12C238.1 281.8 238.548 281.336 238.868 280.728C239.204 280.12 239.372 279.408 239.372 278.592C239.372 277.76 239.204 277.048 238.868 276.456C238.548 275.848 238.1 275.384 237.524 275.064C236.948 274.744 236.3 274.584 235.58 274.584C234.844 274.584 234.188 274.744 233.612 275.064C233.052 275.384 232.604 275.848 232.268 276.456C231.932 277.048 231.764 277.76 231.764 278.592C231.764 279.408 231.932 280.12 232.268 280.728C232.604 281.336 233.052 281.8 233.612 282.12C234.188 282.44 234.836 282.6 235.556 282.6ZM261.441 272.04C262.465 272.04 263.369 272.24 264.153 272.64C264.953 273.04 265.577 273.656 266.025 274.488C266.473 275.304 266.697 276.36 266.697 277.656V285H263.697V278.04C263.697 276.904 263.449 276.056 262.953 275.496C262.457 274.936 261.745 274.656 260.817 274.656C260.161 274.656 259.577 274.8 259.065 275.088C258.569 275.376 258.177 275.8 257.889 276.36C257.617 276.92 257.481 277.632 257.481 278.496V285H254.481V278.04C254.481 276.904 254.233 276.056 253.737 275.496C253.241 274.936 252.529 274.656 251.601 274.656C250.945 274.656 250.361 274.8 249.849 275.088C249.353 275.376 248.961 275.8 248.673 276.36C248.401 276.92 248.265 277.632 248.265 278.496V285H245.265V272.184H248.121V275.592L247.617 274.584C248.049 273.752 248.673 273.12 249.489 272.688C250.321 272.256 251.265 272.04 252.321 272.04C253.521 272.04 254.561 272.336 255.441 272.928C256.337 273.52 256.929 274.416 257.217 275.616L256.041 275.208C256.457 274.248 257.145 273.48 258.105 272.904C259.065 272.328 260.177 272.04 261.441 272.04ZM278.427 285V282.408L278.259 281.856V277.32C278.259 276.44 277.995 275.76 277.467 275.28C276.939 274.784 276.139 274.536 275.067 274.536C274.347 274.536 273.635 274.648 272.931 274.872C272.243 275.096 271.659 275.408 271.179 275.808L270.003 273.624C270.691 273.096 271.507 272.704 272.451 272.448C273.411 272.176 274.403 272.04 275.427 272.04C277.283 272.04 278.715 272.488 279.723 273.384C280.747 274.264 281.259 275.632 281.259 277.488V285H278.427ZM274.395 285.168C273.435 285.168 272.595 285.008 271.875 284.688C271.155 284.352 270.595 283.896 270.195 283.32C269.811 282.728 269.619 282.064 269.619 281.328C269.619 280.608 269.787 279.96 270.123 279.384C270.475 278.808 271.043 278.352 271.827 278.016C272.611 277.68 273.651 277.512 274.947 277.512H278.667V279.504H275.163C274.139 279.504 273.451 279.672 273.099 280.008C272.747 280.328 272.571 280.728 272.571 281.208C272.571 281.752 272.787 282.184 273.219 282.504C273.651 282.824 274.251 282.984 275.019 282.984C275.755 282.984 276.411 282.816 276.987 282.48C277.579 282.144 278.003 281.648 278.259 280.992L278.763 282.792C278.475 283.544 277.955 284.128 277.203 284.544C276.467 284.96 275.531 285.168 274.395 285.168ZM289.933 285.168C288.525 285.168 287.437 284.808 286.669 284.088C285.901 283.352 285.517 282.272 285.517 280.848V269.352H288.517V280.776C288.517 281.384 288.669 281.856 288.973 282.192C289.293 282.528 289.733 282.696 290.293 282.696C290.965 282.696 291.525 282.52 291.973 282.168L292.813 284.304C292.461 284.592 292.029 284.808 291.517 284.952C291.005 285.096 290.477 285.168 289.933 285.168ZM283.405 274.68V272.28H291.949V274.68H283.405ZM300.883 285.168C299.459 285.168 298.211 284.888 297.139 284.328C296.083 283.752 295.259 282.968 294.667 281.976C294.091 280.984 293.803 279.856 293.803 278.592C293.803 277.312 294.083 276.184 294.643 275.208C295.219 274.216 296.003 273.44 296.995 272.88C298.003 272.32 299.147 272.04 300.427 272.04C301.675 272.04 302.787 272.312 303.763 272.856C304.739 273.4 305.507 274.168 306.067 275.16C306.627 276.152 306.907 277.32 306.907 278.664C306.907 278.792 306.899 278.936 306.883 279.096C306.883 279.256 306.875 279.408 306.859 279.552H296.179V277.56H305.275L304.099 278.184C304.115 277.448 303.963 276.8 303.643 276.24C303.323 275.68 302.883 275.24 302.323 274.92C301.779 274.6 301.147 274.44 300.427 274.44C299.691 274.44 299.043 274.6 298.483 274.92C297.939 275.24 297.507 275.688 297.187 276.264C296.883 276.824 296.731 277.488 296.731 278.256V278.736C296.731 279.504 296.907 280.184 297.259 280.776C297.611 281.368 298.107 281.824 298.747 282.144C299.387 282.464 300.123 282.624 300.955 282.624C301.675 282.624 302.323 282.512 302.899 282.288C303.475 282.064 303.987 281.712 304.435 281.232L306.043 283.08C305.467 283.752 304.739 284.272 303.859 284.64C302.995 284.992 302.003 285.168 300.883 285.168ZM315.212 285.168C313.98 285.168 312.868 284.896 311.876 284.352C310.9 283.792 310.132 283.024 309.572 282.048C309.012 281.072 308.732 279.92 308.732 278.592C308.732 277.264 309.012 276.112 309.572 275.136C310.132 274.16 310.9 273.4 311.876 272.856C312.868 272.312 313.98 272.04 315.212 272.04C316.284 272.04 317.244 272.28 318.092 272.76C318.94 273.224 319.612 273.936 320.108 274.896C320.604 275.856 320.852 277.088 320.852 278.592C320.852 280.08 320.612 281.312 320.132 282.288C319.652 283.248 318.988 283.968 318.14 284.448C317.292 284.928 316.316 285.168 315.212 285.168ZM315.572 282.6C316.292 282.6 316.932 282.44 317.492 282.12C318.068 281.8 318.524 281.336 318.86 280.728C319.212 280.12 319.388 279.408 319.388 278.592C319.388 277.76 319.212 277.048 318.86 276.456C318.524 275.848 318.068 275.384 317.492 275.064C316.932 274.744 316.292 274.584 315.572 274.584C314.852 274.584 314.204 274.744 313.628 275.064C313.068 275.384 312.612 275.848 312.26 276.456C311.924 277.048 311.756 277.76 311.756 278.592C311.756 279.408 311.924 280.12 312.26 280.728C312.612 281.336 313.068 281.8 313.628 282.12C314.204 282.44 314.852 282.6 315.572 282.6ZM319.46 285V281.976L319.58 278.568L319.34 275.16V267.192H322.316V285H319.46ZM189.112 301.928H197.488V304.568H189.112V301.928ZM189.376 311H186.256V294.2H198.52V296.816H189.376V311ZM206.922 311.168C205.498 311.168 204.25 310.888 203.178 310.328C202.122 309.752 201.298 308.968 200.706 307.976C200.13 306.984 199.842 305.856 199.842 304.592C199.842 303.312 200.122 302.184 200.682 301.208C201.258 300.216 202.042 299.44 203.034 298.88C204.042 298.32 205.186 298.04 206.466 298.04C207.714 298.04 208.826 298.312 209.802 298.856C210.778 299.4 211.546 300.168 212.106 301.16C212.666 302.152 212.946 303.32 212.946 304.664C212.946 304.792 212.938 304.936 212.922 305.096C212.922 305.256 212.914 305.408 212.898 305.552H202.218V303.56H211.314L210.138 304.184C210.154 303.448 210.002 302.8 209.682 302.24C209.362 301.68 208.922 301.24 208.362 300.92C207.818 300.6 207.186 300.44 206.466 300.44C205.73 300.44 205.082 300.6 204.522 300.92C203.978 301.24 203.546 301.688 203.226 302.264C202.922 302.824 202.77 303.488 202.77 304.256V304.736C202.77 305.504 202.946 306.184 203.298 306.776C203.65 307.368 204.146 307.824 204.786 308.144C205.426 308.464 206.162 308.624 206.994 308.624C207.714 308.624 208.362 308.512 208.938 308.288C209.514 308.064 210.026 307.712 210.474 307.232L212.082 309.08C211.506 309.752 210.778 310.272 209.898 310.64C209.034 310.992 208.042 311.168 206.922 311.168ZM221.851 311.168C220.427 311.168 219.179 310.888 218.107 310.328C217.051 309.752 216.227 308.968 215.635 307.976C215.059 306.984 214.771 305.856 214.771 304.592C214.771 303.312 215.051 302.184 215.611 301.208C216.187 300.216 216.971 299.44 217.963 298.88C218.971 298.32 220.115 298.04 221.395 298.04C222.643 298.04 223.755 298.312 224.731 298.856C225.707 299.4 226.475 300.168 227.035 301.16C227.595 302.152 227.875 303.32 227.875 304.664C227.875 304.792 227.867 304.936 227.851 305.096C227.851 305.256 227.843 305.408 227.827 305.552H217.147V303.56H226.243L225.067 304.184C225.083 303.448 224.931 302.8 224.611 302.24C224.291 301.68 223.851 301.24 223.291 300.92C222.747 300.6 222.115 300.44 221.395 300.44C220.659 300.44 220.011 300.6 219.451 300.92C218.907 301.24 218.475 301.688 218.155 302.264C217.851 302.824 217.699 303.488 217.699 304.256V304.736C217.699 305.504 217.875 306.184 218.227 306.776C218.579 307.368 219.075 307.824 219.715 308.144C220.355 308.464 221.091 308.624 221.923 308.624C222.643 308.624 223.291 308.512 223.867 308.288C224.443 308.064 224.955 307.712 225.403 307.232L227.011 309.08C226.435 309.752 225.707 310.272 224.827 310.64C223.963 310.992 222.971 311.168 221.851 311.168ZM236.181 311.168C234.949 311.168 233.837 310.896 232.845 310.352C231.869 309.792 231.101 309.024 230.541 308.048C229.981 307.072 229.701 305.92 229.701 304.592C229.701 303.264 229.981 302.112 230.541 301.136C231.101 300.16 231.869 299.4 232.845 298.856C233.837 298.312 234.949 298.04 236.181 298.04C237.253 298.04 238.213 298.28 239.061 298.76C239.909 299.224 240.581 299.936 241.077 300.896C241.573 301.856 241.821 303.088 241.821 304.592C241.821 306.08 241.581 307.312 241.101 308.288C240.621 309.248 239.957 309.968 239.109 310.448C238.261 310.928 237.285 311.168 236.181 311.168ZM236.541 308.6C237.261 308.6 237.901 308.44 238.461 308.12C239.037 307.8 239.493 307.336 239.829 306.728C240.181 306.12 240.357 305.408 240.357 304.592C240.357 303.76 240.181 303.048 239.829 302.456C239.493 301.848 239.037 301.384 238.461 301.064C237.901 300.744 237.261 300.584 236.541 300.584C235.821 300.584 235.173 300.744 234.597 301.064C234.037 301.384 233.581 301.848 233.229 302.456C232.893 303.048 232.725 303.76 232.725 304.592C232.725 305.408 232.893 306.12 233.229 306.728C233.581 307.336 234.037 307.8 234.597 308.12C235.173 308.44 235.821 308.6 236.541 308.6ZM240.429 311V307.976L240.549 304.568L240.309 301.16V293.192H243.285V311H240.429ZM254.338 311.168C253.25 311.168 252.282 310.928 251.434 310.448C250.586 309.968 249.914 309.248 249.418 308.288C248.938 307.312 248.698 306.08 248.698 304.592C248.698 303.088 248.946 301.856 249.442 300.896C249.954 299.936 250.634 299.224 251.482 298.76C252.346 298.28 253.298 298.04 254.338 298.04C255.602 298.04 256.714 298.312 257.674 298.856C258.65 299.4 259.418 300.16 259.978 301.136C260.554 302.112 260.842 303.264 260.842 304.592C260.842 305.92 260.554 307.072 259.978 308.048C259.418 309.024 258.65 309.792 257.674 310.352C256.714 310.896 255.602 311.168 254.338 311.168ZM247.234 311V293.192H250.234V301.16L249.994 304.568L250.09 307.976V311H247.234ZM254.002 308.6C254.722 308.6 255.362 308.44 255.922 308.12C256.498 307.8 256.954 307.336 257.29 306.728C257.626 306.12 257.794 305.408 257.794 304.592C257.794 303.76 257.626 303.048 257.29 302.456C256.954 301.848 256.498 301.384 255.922 301.064C255.362 300.744 254.722 300.584 254.002 300.584C253.282 300.584 252.634 300.744 252.058 301.064C251.482 301.384 251.026 301.848 250.69 302.456C250.354 303.048 250.186 303.76 250.186 304.592C250.186 305.408 250.354 306.12 250.69 306.728C251.026 307.336 251.482 307.8 252.058 308.12C252.634 308.44 253.282 308.6 254.002 308.6ZM271.419 311V308.408L271.251 307.856V303.32C271.251 302.44 270.987 301.76 270.459 301.28C269.931 300.784 269.131 300.536 268.059 300.536C267.339 300.536 266.627 300.648 265.923 300.872C265.235 301.096 264.651 301.408 264.171 301.808L262.995 299.624C263.683 299.096 264.499 298.704 265.443 298.448C266.403 298.176 267.395 298.04 268.419 298.04C270.275 298.04 271.707 298.488 272.715 299.384C273.739 300.264 274.251 301.632 274.251 303.488V311H271.419ZM267.387 311.168C266.427 311.168 265.587 311.008 264.867 310.688C264.147 310.352 263.587 309.896 263.187 309.32C262.803 308.728 262.611 308.064 262.611 307.328C262.611 306.608 262.779 305.96 263.115 305.384C263.467 304.808 264.035 304.352 264.819 304.016C265.603 303.68 266.643 303.512 267.939 303.512H271.659V305.504H268.155C267.131 305.504 266.443 305.672 266.091 306.008C265.739 306.328 265.563 306.728 265.563 307.208C265.563 307.752 265.779 308.184 266.211 308.504C266.643 308.824 267.243 308.984 268.011 308.984C268.747 308.984 269.403 308.816 269.979 308.48C270.571 308.144 270.995 307.648 271.251 306.992L271.755 308.792C271.467 309.544 270.947 310.128 270.195 310.544C269.459 310.96 268.523 311.168 267.387 311.168ZM284.004 311.168C282.66 311.168 281.46 310.888 280.404 310.328C279.364 309.752 278.548 308.968 277.956 307.976C277.364 306.984 277.068 305.856 277.068 304.592C277.068 303.312 277.364 302.184 277.956 301.208C278.548 300.216 279.364 299.44 280.404 298.88C281.46 298.32 282.66 298.04 284.004 298.04C285.252 298.04 286.348 298.296 287.292 298.808C288.252 299.304 288.98 300.04 289.476 301.016L287.172 302.36C286.788 301.752 286.316 301.304 285.756 301.016C285.212 300.728 284.62 300.584 283.98 300.584C283.244 300.584 282.58 300.744 281.988 301.064C281.396 301.384 280.932 301.848 280.596 302.456C280.26 303.048 280.092 303.76 280.092 304.592C280.092 305.424 280.26 306.144 280.596 306.752C280.932 307.344 281.396 307.8 281.988 308.12C282.58 308.44 283.244 308.6 283.98 308.6C284.62 308.6 285.212 308.456 285.756 308.168C286.316 307.88 286.788 307.432 287.172 306.824L289.476 308.168C288.98 309.128 288.252 309.872 287.292 310.4C286.348 310.912 285.252 311.168 284.004 311.168ZM294.4 308.144L294.472 304.376L301.168 298.184H304.768L299.08 303.896L297.496 305.216L294.4 308.144ZM291.952 311V293.192H294.952V311H291.952ZM301.624 311L296.944 305.216L298.84 302.816L305.272 311H301.624Z" fill="black"/>
<path d="M330.555 58.5143C330.411 58.5143 330.294 58.4026 330.294 58.2648L330.27 33.3329C330.269 33.1948 330.386 33.0831 330.53 33.0829L375.822 33.0416C375.966 33.0416 376.083 33.1533 376.083 33.2912C376.083 33.4292 375.966 33.5409 375.822 33.5412L330.791 33.5822L330.816 58.2643C330.816 58.4024 330.699 58.5141 330.555 58.5143Z" fill="white"/>
<path d="M475.967 152.15C475.967 152.011 476.084 151.9 476.228 151.9C476.372 151.9 476.489 152.011 476.489 152.15" fill="black"/>
<path d="M379.599 179.572C379.521 179.456 379.557 179.301 379.678 179.227C379.799 179.152 379.961 179.186 380.038 179.302" fill="#5479F7"/>
<path d="M187.28 357.5V343.5H192.52C193.707 343.5 194.727 343.693 195.58 344.08C196.433 344.453 197.087 345 197.54 345.72C198.007 346.427 198.24 347.287 198.24 348.3C198.24 349.287 198.007 350.14 197.54 350.86C197.087 351.567 196.433 352.113 195.58 352.5C194.727 352.873 193.707 353.06 192.52 353.06H188.1L188.76 352.38V357.5H187.28ZM196.84 357.5L193.24 352.42H194.84L198.46 357.5H196.84ZM188.76 352.5L188.1 351.8H192.48C193.88 351.8 194.94 351.493 195.66 350.88C196.393 350.267 196.76 349.407 196.76 348.3C196.76 347.18 196.393 346.313 195.66 345.7C194.94 345.087 193.88 344.78 192.48 344.78H188.1L188.76 344.08V352.5ZM205.893 357.6C204.8 357.6 203.84 357.373 203.013 356.92C202.186 356.453 201.54 355.82 201.073 355.02C200.606 354.207 200.373 353.28 200.373 352.24C200.373 351.2 200.593 350.28 201.033 349.48C201.486 348.68 202.1 348.053 202.873 347.6C203.66 347.133 204.54 346.9 205.513 346.9C206.5 346.9 207.373 347.127 208.133 347.58C208.906 348.02 209.513 348.647 209.953 349.46C210.393 350.26 210.613 351.187 210.613 352.24C210.613 352.307 210.606 352.38 210.593 352.46C210.593 352.527 210.593 352.6 210.593 352.68H201.453V351.62H209.833L209.273 352.04C209.273 351.28 209.106 350.607 208.773 350.02C208.453 349.42 208.013 348.953 207.453 348.62C206.893 348.287 206.246 348.12 205.513 348.12C204.793 348.12 204.146 348.287 203.573 348.62C203 348.953 202.553 349.42 202.233 350.02C201.913 350.62 201.753 351.307 201.753 352.08V352.3C201.753 353.1 201.926 353.807 202.273 354.42C202.633 355.02 203.126 355.493 203.753 355.84C204.393 356.173 205.12 356.34 205.933 356.34C206.573 356.34 207.166 356.227 207.713 356C208.273 355.773 208.753 355.427 209.153 354.96L209.953 355.88C209.486 356.44 208.9 356.867 208.193 357.16C207.5 357.453 206.733 357.6 205.893 357.6ZM217.683 357.6C216.683 357.6 215.783 357.373 214.983 356.92C214.197 356.467 213.577 355.84 213.123 355.04C212.67 354.227 212.443 353.293 212.443 352.24C212.443 351.173 212.67 350.24 213.123 349.44C213.577 348.64 214.197 348.02 214.983 347.58C215.783 347.127 216.683 346.9 217.683 346.9C218.603 346.9 219.423 347.107 220.143 347.52C220.877 347.933 221.457 348.54 221.883 349.34C222.323 350.127 222.543 351.093 222.543 352.24C222.543 353.373 222.33 354.34 221.903 355.14C221.477 355.94 220.897 356.553 220.163 356.98C219.443 357.393 218.617 357.6 217.683 357.6ZM217.783 356.34C218.53 356.34 219.197 356.173 219.783 355.84C220.383 355.493 220.85 355.013 221.183 354.4C221.53 353.773 221.703 353.053 221.703 352.24C221.703 351.413 221.53 350.693 221.183 350.08C220.85 349.467 220.383 348.993 219.783 348.66C219.197 348.313 218.53 348.14 217.783 348.14C217.05 348.14 216.39 348.313 215.803 348.66C215.217 348.993 214.75 349.467 214.403 350.08C214.057 350.693 213.883 351.413 213.883 352.24C213.883 353.053 214.057 353.773 214.403 354.4C214.75 355.013 215.217 355.493 215.803 355.84C216.39 356.173 217.05 356.34 217.783 356.34ZM221.743 357.5V354.34L221.883 352.22L221.683 350.1V342.66H223.103V357.5H221.743ZM231.398 357.6C230.505 357.6 229.725 357.433 229.058 357.1C228.391 356.767 227.871 356.267 227.498 355.6C227.138 354.933 226.958 354.1 226.958 353.1V347H228.378V352.94C228.378 354.06 228.651 354.907 229.198 355.48C229.758 356.04 230.538 356.32 231.538 356.32C232.271 356.32 232.905 356.173 233.438 355.88C233.985 355.573 234.398 355.133 234.678 354.56C234.971 353.987 235.118 353.3 235.118 352.5V347H236.538V357.5H235.178V354.62L235.398 355.14C235.065 355.913 234.545 356.52 233.838 356.96C233.145 357.387 232.331 357.6 231.398 357.6ZM244.856 357.6C243.816 357.6 242.882 357.373 242.056 356.92C241.242 356.453 240.602 355.82 240.136 355.02C239.669 354.207 239.436 353.28 239.436 352.24C239.436 351.187 239.669 350.26 240.136 349.46C240.602 348.66 241.242 348.033 242.056 347.58C242.882 347.127 243.816 346.9 244.856 346.9C245.749 346.9 246.556 347.073 247.276 347.42C247.996 347.767 248.562 348.287 248.976 348.98L247.916 349.7C247.556 349.167 247.109 348.773 246.576 348.52C246.042 348.267 245.462 348.14 244.836 348.14C244.089 348.14 243.416 348.313 242.816 348.66C242.216 348.993 241.742 349.467 241.396 350.08C241.049 350.693 240.876 351.413 240.876 352.24C240.876 353.067 241.049 353.787 241.396 354.4C241.742 355.013 242.216 355.493 242.816 355.84C243.416 356.173 244.089 356.34 244.836 356.34C245.462 356.34 246.042 356.213 246.576 355.96C247.109 355.707 247.556 355.32 247.916 354.8L248.976 355.52C248.562 356.2 247.996 356.72 247.276 357.08C246.556 357.427 245.749 357.6 244.856 357.6ZM256.049 357.6C254.956 357.6 253.996 357.373 253.169 356.92C252.343 356.453 251.696 355.82 251.229 355.02C250.763 354.207 250.529 353.28 250.529 352.24C250.529 351.2 250.749 350.28 251.189 349.48C251.643 348.68 252.256 348.053 253.029 347.6C253.816 347.133 254.696 346.9 255.669 346.9C256.656 346.9 257.529 347.127 258.289 347.58C259.063 348.02 259.669 348.647 260.109 349.46C260.549 350.26 260.769 351.187 260.769 352.24C260.769 352.307 260.763 352.38 260.749 352.46C260.749 352.527 260.749 352.6 260.749 352.68H251.609V351.62H259.989L259.429 352.04C259.429 351.28 259.263 350.607 258.929 350.02C258.609 349.42 258.169 348.953 257.609 348.62C257.049 348.287 256.403 348.12 255.669 348.12C254.949 348.12 254.303 348.287 253.729 348.62C253.156 348.953 252.709 349.42 252.389 350.02C252.069 350.62 251.909 351.307 251.909 352.08V352.3C251.909 353.1 252.083 353.807 252.429 354.42C252.789 355.02 253.283 355.493 253.909 355.84C254.549 356.173 255.276 356.34 256.089 356.34C256.729 356.34 257.323 356.227 257.869 356C258.429 355.773 258.909 355.427 259.309 354.96L260.109 355.88C259.643 356.44 259.056 356.867 258.349 357.16C257.656 357.453 256.889 357.6 256.049 357.6ZM282.014 346.9C282.867 346.9 283.607 347.067 284.234 347.4C284.874 347.72 285.367 348.213 285.714 348.88C286.074 349.547 286.254 350.387 286.254 351.4V357.5H284.834V351.54C284.834 350.433 284.567 349.6 284.034 349.04C283.514 348.467 282.774 348.18 281.814 348.18C281.094 348.18 280.467 348.333 279.934 348.64C279.414 348.933 279.007 349.367 278.714 349.94C278.434 350.5 278.294 351.18 278.294 351.98V357.5H276.874V351.54C276.874 350.433 276.607 349.6 276.074 349.04C275.541 348.467 274.794 348.18 273.834 348.18C273.127 348.18 272.507 348.333 271.974 348.64C271.441 348.933 271.027 349.367 270.734 349.94C270.454 350.5 270.314 351.18 270.314 351.98V357.5H268.894V347H270.254V349.84L270.034 349.34C270.354 348.58 270.867 347.987 271.574 347.56C272.294 347.12 273.141 346.9 274.114 346.9C275.141 346.9 276.014 347.16 276.734 347.68C277.454 348.187 277.921 348.953 278.134 349.98L277.574 349.76C277.881 348.907 278.421 348.22 279.194 347.7C279.981 347.167 280.921 346.9 282.014 346.9ZM296.685 357.5V355.18L296.625 354.8V350.92C296.625 350.027 296.372 349.34 295.865 348.86C295.372 348.38 294.632 348.14 293.645 348.14C292.965 348.14 292.318 348.253 291.705 348.48C291.092 348.707 290.572 349.007 290.145 349.38L289.505 348.32C290.038 347.867 290.678 347.52 291.425 347.28C292.172 347.027 292.958 346.9 293.785 346.9C295.145 346.9 296.192 347.24 296.925 347.92C297.672 348.587 298.045 349.607 298.045 350.98V357.5H296.685ZM293.065 357.6C292.278 357.6 291.592 357.473 291.005 357.22C290.432 356.953 289.992 356.593 289.685 356.14C289.378 355.673 289.225 355.14 289.225 354.54C289.225 353.993 289.352 353.5 289.605 353.06C289.872 352.607 290.298 352.247 290.885 351.98C291.485 351.7 292.285 351.56 293.285 351.56H296.905V352.62H293.325C292.312 352.62 291.605 352.8 291.205 353.16C290.818 353.52 290.625 353.967 290.625 354.5C290.625 355.1 290.858 355.58 291.325 355.94C291.792 356.3 292.445 356.48 293.285 356.48C294.085 356.48 294.772 356.3 295.345 355.94C295.932 355.567 296.358 355.033 296.625 354.34L296.945 355.32C296.678 356.013 296.212 356.567 295.545 356.98C294.892 357.393 294.065 357.6 293.065 357.6ZM307.262 346.9C308.115 346.9 308.862 347.067 309.502 347.4C310.155 347.72 310.662 348.213 311.022 348.88C311.395 349.547 311.582 350.387 311.582 351.4V357.5H310.162V351.54C310.162 350.433 309.882 349.6 309.322 349.04C308.775 348.467 308.002 348.18 307.002 348.18C306.255 348.18 305.602 348.333 305.042 348.64C304.495 348.933 304.069 349.367 303.762 349.94C303.469 350.5 303.322 351.18 303.322 351.98V357.5H301.902V347H303.262V349.88L303.042 349.34C303.375 348.58 303.909 347.987 304.642 347.56C305.375 347.12 306.249 346.9 307.262 346.9ZM319.758 357.6C318.864 357.6 318.084 357.433 317.418 357.1C316.751 356.767 316.231 356.267 315.858 355.6C315.498 354.933 315.318 354.1 315.318 353.1V347H316.738V352.94C316.738 354.06 317.011 354.907 317.558 355.48C318.118 356.04 318.898 356.32 319.898 356.32C320.631 356.32 321.264 356.173 321.798 355.88C322.344 355.573 322.758 355.133 323.038 354.56C323.331 353.987 323.478 353.3 323.478 352.5V347H324.898V357.5H323.537V354.62L323.758 355.14C323.424 355.913 322.904 356.52 322.198 356.96C321.504 357.387 320.691 357.6 319.758 357.6ZM335.435 357.5V355.18L335.375 354.8V350.92C335.375 350.027 335.122 349.34 334.615 348.86C334.122 348.38 333.382 348.14 332.395 348.14C331.715 348.14 331.068 348.253 330.455 348.48C329.842 348.707 329.322 349.007 328.895 349.38L328.255 348.32C328.788 347.867 329.428 347.52 330.175 347.28C330.922 347.027 331.708 346.9 332.535 346.9C333.895 346.9 334.942 347.24 335.675 347.92C336.422 348.587 336.795 349.607 336.795 350.98V357.5H335.435ZM331.815 357.6C331.028 357.6 330.342 357.473 329.755 357.22C329.182 356.953 328.742 356.593 328.435 356.14C328.128 355.673 327.975 355.14 327.975 354.54C327.975 353.993 328.102 353.5 328.355 353.06C328.622 352.607 329.048 352.247 329.635 351.98C330.235 351.7 331.035 351.56 332.035 351.56H335.655V352.62H332.075C331.062 352.62 330.355 352.8 329.955 353.16C329.568 353.52 329.375 353.967 329.375 354.5C329.375 355.1 329.608 355.58 330.075 355.94C330.542 356.3 331.195 356.48 332.035 356.48C332.835 356.48 333.522 356.3 334.095 355.94C334.682 355.567 335.108 355.033 335.375 354.34L335.695 355.32C335.428 356.013 334.962 356.567 334.295 356.98C333.642 357.393 332.815 357.6 331.815 357.6ZM340.652 357.5V342.66H342.072V357.5H340.652ZM351.257 357.5V347H352.617V349.86L352.477 349.36C352.771 348.56 353.264 347.953 353.957 347.54C354.651 347.113 355.511 346.9 356.537 346.9V348.28C356.484 348.28 356.431 348.28 356.377 348.28C356.324 348.267 356.271 348.26 356.217 348.26C355.111 348.26 354.244 348.6 353.617 349.28C352.991 349.947 352.677 350.9 352.677 352.14V357.5H351.257ZM363.491 357.6C362.397 357.6 361.437 357.373 360.611 356.92C359.784 356.453 359.137 355.82 358.671 355.02C358.204 354.207 357.971 353.28 357.971 352.24C357.971 351.2 358.191 350.28 358.631 349.48C359.084 348.68 359.697 348.053 360.471 347.6C361.257 347.133 362.137 346.9 363.111 346.9C364.097 346.9 364.971 347.127 365.731 347.58C366.504 348.02 367.111 348.647 367.551 349.46C367.991 350.26 368.211 351.187 368.211 352.24C368.211 352.307 368.204 352.38 368.191 352.46C368.191 352.527 368.191 352.6 368.191 352.68H359.051V351.62H367.431L366.871 352.04C366.871 351.28 366.704 350.607 366.371 350.02C366.051 349.42 365.611 348.953 365.051 348.62C364.491 348.287 363.844 348.12 363.111 348.12C362.391 348.12 361.744 348.287 361.171 348.62C360.597 348.953 360.151 349.42 359.831 350.02C359.511 350.62 359.351 351.307 359.351 352.08V352.3C359.351 353.1 359.524 353.807 359.871 354.42C360.231 355.02 360.724 355.493 361.351 355.84C361.991 356.173 362.717 356.34 363.531 356.34C364.171 356.34 364.764 356.227 365.311 356C365.871 355.773 366.351 355.427 366.751 354.96L367.551 355.88C367.084 356.44 366.497 356.867 365.791 357.16C365.097 357.453 364.331 357.6 363.491 357.6ZM373.606 357.5L368.946 347H370.426L374.706 356.74H374.006L378.346 347H379.746L375.066 357.5H373.606ZM381.746 357.5V347H383.166V357.5H381.746ZM382.466 344.68C382.172 344.68 381.926 344.58 381.726 344.38C381.526 344.18 381.426 343.94 381.426 343.66C381.426 343.38 381.526 343.147 381.726 342.96C381.926 342.76 382.172 342.66 382.466 342.66C382.759 342.66 383.006 342.753 383.206 342.94C383.406 343.127 383.506 343.36 383.506 343.64C383.506 343.933 383.406 344.18 383.206 344.38C383.019 344.58 382.772 344.68 382.466 344.68ZM391.577 357.6C390.483 357.6 389.523 357.373 388.697 356.92C387.87 356.453 387.223 355.82 386.757 355.02C386.29 354.207 386.057 353.28 386.057 352.24C386.057 351.2 386.277 350.28 386.717 349.48C387.17 348.68 387.783 348.053 388.557 347.6C389.343 347.133 390.223 346.9 391.197 346.9C392.183 346.9 393.057 347.127 393.817 347.58C394.59 348.02 395.197 348.647 395.637 349.46C396.077 350.26 396.297 351.187 396.297 352.24C396.297 352.307 396.29 352.38 396.277 352.46C396.277 352.527 396.277 352.6 396.277 352.68H387.137V351.62H395.517L394.957 352.04C394.957 351.28 394.79 350.607 394.457 350.02C394.137 349.42 393.697 348.953 393.137 348.62C392.577 348.287 391.93 348.12 391.197 348.12C390.477 348.12 389.83 348.287 389.257 348.62C388.683 348.953 388.237 349.42 387.917 350.02C387.597 350.62 387.437 351.307 387.437 352.08V352.3C387.437 353.1 387.61 353.807 387.957 354.42C388.317 355.02 388.81 355.493 389.437 355.84C390.077 356.173 390.803 356.34 391.617 356.34C392.257 356.34 392.85 356.227 393.397 356C393.957 355.773 394.437 355.427 394.837 354.96L395.637 355.88C395.17 356.44 394.583 356.867 393.877 357.16C393.183 357.453 392.417 357.6 391.577 357.6ZM401.132 357.5L397.172 347H398.532L402.132 356.74H401.512L405.212 347H406.432L410.092 356.74H409.472L413.132 347H414.432L410.452 357.5H409.112L405.592 348.34H406.012L402.472 357.5H401.132ZM191.44 385.6C190.347 385.6 189.387 385.373 188.56 384.92C187.733 384.453 187.087 383.82 186.62 383.02C186.153 382.207 185.92 381.28 185.92 380.24C185.92 379.2 186.14 378.28 186.58 377.48C187.033 376.68 187.647 376.053 188.42 375.6C189.207 375.133 190.087 374.9 191.06 374.9C192.047 374.9 192.92 375.127 193.68 375.58C194.453 376.02 195.06 376.647 195.5 377.46C195.94 378.26 196.16 379.187 196.16 380.24C196.16 380.307 196.153 380.38 196.14 380.46C196.14 380.527 196.14 380.6 196.14 380.68H187V379.62H195.38L194.82 380.04C194.82 379.28 194.653 378.607 194.32 378.02C194 377.42 193.56 376.953 193 376.62C192.44 376.287 191.793 376.12 191.06 376.12C190.34 376.12 189.693 376.287 189.12 376.62C188.547 376.953 188.1 377.42 187.78 378.02C187.46 378.62 187.3 379.307 187.3 380.08V380.3C187.3 381.1 187.473 381.807 187.82 382.42C188.18 383.02 188.673 383.493 189.3 383.84C189.94 384.173 190.667 384.34 191.48 384.34C192.12 384.34 192.713 384.227 193.26 384C193.82 383.773 194.3 383.427 194.7 382.96L195.5 383.88C195.033 384.44 194.447 384.867 193.74 385.16C193.047 385.453 192.28 385.6 191.44 385.6ZM199.29 385.5V373.68C199.29 372.747 199.564 371.993 200.11 371.42C200.657 370.847 201.444 370.56 202.47 370.56C202.87 370.56 203.257 370.613 203.63 370.72C204.004 370.827 204.317 370.993 204.57 371.22L204.09 372.28C203.89 372.107 203.657 371.98 203.39 371.9C203.124 371.807 202.837 371.76 202.53 371.76C201.93 371.76 201.47 371.927 201.15 372.26C200.83 372.593 200.67 373.087 200.67 373.74V375.34L200.71 376V385.5H199.29ZM197.41 376.18V375H203.91V376.18H197.41ZM206.107 385.5V373.68C206.107 372.747 206.38 371.993 206.927 371.42C207.473 370.847 208.26 370.56 209.287 370.56C209.687 370.56 210.073 370.613 210.447 370.72C210.82 370.827 211.133 370.993 211.387 371.22L210.907 372.28C210.707 372.107 210.473 371.98 210.207 371.9C209.94 371.807 209.653 371.76 209.347 371.76C208.747 371.76 208.287 371.927 207.967 372.26C207.647 372.593 207.487 373.087 207.487 373.74V375.34L207.527 376V385.5H206.107ZM204.227 376.18V375H210.727V376.18H204.227ZM216.748 385.6C215.735 385.6 214.822 385.373 214.008 384.92C213.208 384.453 212.575 383.82 212.108 383.02C211.642 382.207 211.408 381.28 211.408 380.24C211.408 379.187 211.642 378.26 212.108 377.46C212.575 376.66 213.208 376.033 214.008 375.58C214.808 375.127 215.722 374.9 216.748 374.9C217.788 374.9 218.708 375.127 219.508 375.58C220.322 376.033 220.955 376.66 221.408 377.46C221.875 378.26 222.108 379.187 222.108 380.24C222.108 381.28 221.875 382.207 221.408 383.02C220.955 383.82 220.322 384.453 219.508 384.92C218.695 385.373 217.775 385.6 216.748 385.6ZM216.748 384.34C217.508 384.34 218.182 384.173 218.768 383.84C219.355 383.493 219.815 383.013 220.148 382.4C220.495 381.773 220.668 381.053 220.668 380.24C220.668 379.413 220.495 378.693 220.148 378.08C219.815 377.467 219.355 376.993 218.768 376.66C218.182 376.313 217.515 376.14 216.768 376.14C216.022 376.14 215.355 376.313 214.768 376.66C214.182 376.993 213.715 377.467 213.368 378.08C213.022 378.693 212.848 379.413 212.848 380.24C212.848 381.053 213.022 381.773 213.368 382.4C213.715 383.013 214.182 383.493 214.768 383.84C215.355 384.173 216.015 384.34 216.748 384.34ZM225.007 385.5V375H226.367V377.86L226.227 377.36C226.521 376.56 227.014 375.953 227.707 375.54C228.401 375.113 229.261 374.9 230.287 374.9V376.28C230.234 376.28 230.181 376.28 230.127 376.28C230.074 376.267 230.021 376.26 229.967 376.26C228.861 376.26 227.994 376.6 227.367 377.28C226.741 377.947 226.427 378.9 226.427 380.14V385.5H225.007ZM236.648 385.6C235.661 385.6 234.901 385.333 234.368 384.8C233.834 384.267 233.568 383.513 233.568 382.54V372.68H234.988V382.46C234.988 383.073 235.141 383.547 235.448 383.88C235.768 384.213 236.221 384.38 236.808 384.38C237.434 384.38 237.954 384.2 238.368 383.84L238.868 384.86C238.588 385.113 238.248 385.3 237.848 385.42C237.461 385.54 237.061 385.6 236.648 385.6ZM231.688 376.18V375H238.188V376.18H231.688ZM244.273 385.6C243.406 385.6 242.586 385.48 241.813 385.24C241.039 384.987 240.433 384.673 239.993 384.3L240.633 383.18C241.059 383.5 241.606 383.78 242.273 384.02C242.939 384.247 243.639 384.36 244.373 384.36C245.373 384.36 246.093 384.207 246.533 383.9C246.973 383.58 247.193 383.16 247.193 382.64C247.193 382.253 247.066 381.953 246.813 381.74C246.573 381.513 246.253 381.347 245.853 381.24C245.453 381.12 245.006 381.02 244.513 380.94C244.019 380.86 243.526 380.767 243.033 380.66C242.553 380.553 242.113 380.4 241.713 380.2C241.313 379.987 240.986 379.7 240.733 379.34C240.493 378.98 240.373 378.5 240.373 377.9C240.373 377.327 240.533 376.813 240.853 376.36C241.173 375.907 241.639 375.553 242.253 375.3C242.879 375.033 243.639 374.9 244.533 374.9C245.213 374.9 245.893 374.993 246.573 375.18C247.253 375.353 247.813 375.587 248.253 375.88L247.633 377.02C247.166 376.7 246.666 376.473 246.133 376.34C245.599 376.193 245.066 376.12 244.533 376.12C243.586 376.12 242.886 376.287 242.433 376.62C241.993 376.94 241.773 377.353 241.773 377.86C241.773 378.26 241.893 378.573 242.133 378.8C242.386 379.027 242.713 379.207 243.113 379.34C243.526 379.46 243.973 379.56 244.453 379.64C244.946 379.72 245.433 379.82 245.913 379.94C246.406 380.047 246.853 380.2 247.253 380.4C247.666 380.587 247.993 380.86 248.233 381.22C248.486 381.567 248.613 382.027 248.613 382.6C248.613 383.213 248.439 383.747 248.093 384.2C247.759 384.64 247.266 384.987 246.613 385.24C245.973 385.48 245.193 385.6 244.273 385.6ZM258.593 385.5L254.633 375H255.993L259.593 384.74H258.973L262.673 375H263.893L267.553 384.74H266.933L270.593 375H271.893L267.913 385.5H266.573L263.053 376.34H263.473L259.933 385.5H258.593ZM274.031 385.5V375H275.451V385.5H274.031ZM274.751 372.68C274.457 372.68 274.211 372.58 274.011 372.38C273.811 372.18 273.711 371.94 273.711 371.66C273.711 371.38 273.811 371.147 274.011 370.96C274.211 370.76 274.457 370.66 274.751 370.66C275.044 370.66 275.291 370.753 275.491 370.94C275.691 371.127 275.791 371.36 275.791 371.64C275.791 371.933 275.691 372.18 275.491 372.38C275.304 372.58 275.057 372.68 274.751 372.68ZM282.722 385.6C281.735 385.6 280.975 385.333 280.442 384.8C279.909 384.267 279.642 383.513 279.642 382.54V372.68H281.062V382.46C281.062 383.073 281.215 383.547 281.522 383.88C281.842 384.213 282.295 384.38 282.882 384.38C283.509 384.38 284.029 384.2 284.442 383.84L284.942 384.86C284.662 385.113 284.322 385.3 283.922 385.42C283.535 385.54 283.135 385.6 282.722 385.6ZM277.762 376.18V375H284.262V376.18H277.762ZM292.887 374.9C293.74 374.9 294.487 375.067 295.127 375.4C295.78 375.72 296.287 376.213 296.647 376.88C297.02 377.547 297.207 378.387 297.207 379.4V385.5H295.787V379.54C295.787 378.433 295.507 377.6 294.947 377.04C294.4 376.467 293.627 376.18 292.627 376.18C291.88 376.18 291.227 376.333 290.667 376.64C290.12 376.933 289.694 377.367 289.387 377.94C289.094 378.5 288.947 379.18 288.947 379.98V385.5H287.527V370.66H288.947V377.88L288.667 377.34C289 376.58 289.534 375.987 290.267 375.56C291 375.12 291.874 374.9 292.887 374.9ZM312.857 385.5V383.18L312.797 382.8V378.92C312.797 378.027 312.544 377.34 312.037 376.86C311.544 376.38 310.804 376.14 309.817 376.14C309.137 376.14 308.49 376.253 307.877 376.48C307.264 376.707 306.744 377.007 306.317 377.38L305.677 376.32C306.21 375.867 306.85 375.52 307.597 375.28C308.344 375.027 309.13 374.9 309.957 374.9C311.317 374.9 312.364 375.24 313.097 375.92C313.844 376.587 314.217 377.607 314.217 378.98V385.5H312.857ZM309.237 385.6C308.45 385.6 307.764 385.473 307.177 385.22C306.604 384.953 306.164 384.593 305.857 384.14C305.55 383.673 305.397 383.14 305.397 382.54C305.397 381.993 305.524 381.5 305.777 381.06C306.044 380.607 306.47 380.247 307.057 379.98C307.657 379.7 308.457 379.56 309.457 379.56H313.077V380.62H309.497C308.484 380.62 307.777 380.8 307.377 381.16C306.99 381.52 306.797 381.967 306.797 382.5C306.797 383.1 307.03 383.58 307.497 383.94C307.964 384.3 308.617 384.48 309.457 384.48C310.257 384.48 310.944 384.3 311.517 383.94C312.104 383.567 312.53 383.033 312.797 382.34L313.117 383.32C312.85 384.013 312.384 384.567 311.717 384.98C311.064 385.393 310.237 385.6 309.237 385.6ZM322.414 385.6C321.52 385.6 320.74 385.433 320.074 385.1C319.407 384.767 318.887 384.267 318.514 383.6C318.154 382.933 317.974 382.1 317.974 381.1V375H319.394V380.94C319.394 382.06 319.667 382.907 320.214 383.48C320.774 384.04 321.554 384.32 322.554 384.32C323.287 384.32 323.92 384.173 324.454 383.88C325 383.573 325.414 383.133 325.694 382.56C325.987 381.987 326.134 381.3 326.134 380.5V375H327.554V385.5H326.194V382.62L326.414 383.14C326.08 383.913 325.56 384.52 324.854 384.96C324.16 385.387 323.347 385.6 322.414 385.6ZM334.831 385.6C333.845 385.6 333.085 385.333 332.551 384.8C332.018 384.267 331.751 383.513 331.751 382.54V372.68H333.171V382.46C333.171 383.073 333.325 383.547 333.631 383.88C333.951 384.213 334.405 384.38 334.991 384.38C335.618 384.38 336.138 384.2 336.551 383.84L337.051 384.86C336.771 385.113 336.431 385.3 336.031 385.42C335.645 385.54 335.245 385.6 334.831 385.6ZM329.871 376.18V375H336.371V376.18H329.871ZM343.545 385.6C342.532 385.6 341.618 385.373 340.805 384.92C340.005 384.453 339.372 383.82 338.905 383.02C338.438 382.207 338.205 381.28 338.205 380.24C338.205 379.187 338.438 378.26 338.905 377.46C339.372 376.66 340.005 376.033 340.805 375.58C341.605 375.127 342.518 374.9 343.545 374.9C344.585 374.9 345.505 375.127 346.305 375.58C347.118 376.033 347.752 376.66 348.205 377.46C348.672 378.26 348.905 379.187 348.905 380.24C348.905 381.28 348.672 382.207 348.205 383.02C347.752 383.82 347.118 384.453 346.305 384.92C345.492 385.373 344.572 385.6 343.545 385.6ZM343.545 384.34C344.305 384.34 344.978 384.173 345.565 383.84C346.152 383.493 346.612 383.013 346.945 382.4C347.292 381.773 347.465 381.053 347.465 380.24C347.465 379.413 347.292 378.693 346.945 378.08C346.612 377.467 346.152 376.993 345.565 376.66C344.978 376.313 344.312 376.14 343.565 376.14C342.818 376.14 342.152 376.313 341.565 376.66C340.978 376.993 340.512 377.467 340.165 378.08C339.818 378.693 339.645 379.413 339.645 380.24C339.645 381.053 339.818 381.773 340.165 382.4C340.512 383.013 340.978 383.493 341.565 383.84C342.152 384.173 342.812 384.34 343.545 384.34ZM364.924 374.9C365.778 374.9 366.518 375.067 367.144 375.4C367.784 375.72 368.278 376.213 368.624 376.88C368.984 377.547 369.164 378.387 369.164 379.4V385.5H367.744V379.54C367.744 378.433 367.478 377.6 366.944 377.04C366.424 376.467 365.684 376.18 364.724 376.18C364.004 376.18 363.378 376.333 362.844 376.64C362.324 376.933 361.918 377.367 361.624 377.94C361.344 378.5 361.204 379.18 361.204 379.98V385.5H359.784V379.54C359.784 378.433 359.518 377.6 358.984 377.04C358.451 376.467 357.704 376.18 356.744 376.18C356.038 376.18 355.418 376.333 354.884 376.64C354.351 376.933 353.938 377.367 353.644 377.94C353.364 378.5 353.224 379.18 353.224 379.98V385.5H351.804V375H353.164V377.84L352.944 377.34C353.264 376.58 353.778 375.987 354.484 375.56C355.204 375.12 356.051 374.9 357.024 374.9C358.051 374.9 358.924 375.16 359.644 375.68C360.364 376.187 360.831 376.953 361.044 377.98L360.484 377.76C360.791 376.907 361.331 376.22 362.104 375.7C362.891 375.167 363.831 374.9 364.924 374.9ZM379.595 385.5V383.18L379.535 382.8V378.92C379.535 378.027 379.282 377.34 378.775 376.86C378.282 376.38 377.542 376.14 376.555 376.14C375.875 376.14 375.228 376.253 374.615 376.48C374.002 376.707 373.482 377.007 373.055 377.38L372.415 376.32C372.948 375.867 373.588 375.52 374.335 375.28C375.082 375.027 375.868 374.9 376.695 374.9C378.055 374.9 379.102 375.24 379.835 375.92C380.582 376.587 380.955 377.607 380.955 378.98V385.5H379.595ZM375.975 385.6C375.188 385.6 374.502 385.473 373.915 385.22C373.342 384.953 372.902 384.593 372.595 384.14C372.288 383.673 372.135 383.14 372.135 382.54C372.135 381.993 372.262 381.5 372.515 381.06C372.782 380.607 373.208 380.247 373.795 379.98C374.395 379.7 375.195 379.56 376.195 379.56H379.815V380.62H376.235C375.222 380.62 374.515 380.8 374.115 381.16C373.728 381.52 373.535 381.967 373.535 382.5C373.535 383.1 373.768 383.58 374.235 383.94C374.702 384.3 375.355 384.48 376.195 384.48C376.995 384.48 377.682 384.3 378.255 383.94C378.842 383.567 379.268 383.033 379.535 382.34L379.855 383.32C379.588 384.013 379.122 384.567 378.455 384.98C377.802 385.393 376.975 385.6 375.975 385.6ZM388.132 385.6C387.145 385.6 386.385 385.333 385.852 384.8C385.319 384.267 385.052 383.513 385.052 382.54V372.68H386.472V382.46C386.472 383.073 386.625 383.547 386.932 383.88C387.252 384.213 387.705 384.38 388.292 384.38C388.919 384.38 389.439 384.2 389.852 383.84L390.352 384.86C390.072 385.113 389.732 385.3 389.332 385.42C388.945 385.54 388.545 385.6 388.132 385.6ZM383.172 376.18V375H389.672V376.18H383.172ZM397.026 385.6C395.933 385.6 394.973 385.373 394.146 384.92C393.319 384.453 392.673 383.82 392.206 383.02C391.739 382.207 391.506 381.28 391.506 380.24C391.506 379.2 391.726 378.28 392.166 377.48C392.619 376.68 393.233 376.053 394.006 375.6C394.793 375.133 395.673 374.9 396.646 374.9C397.633 374.9 398.506 375.127 399.266 375.58C400.039 376.02 400.646 376.647 401.086 377.46C401.526 378.26 401.746 379.187 401.746 380.24C401.746 380.307 401.739 380.38 401.726 380.46C401.726 380.527 401.726 380.6 401.726 380.68H392.586V379.62H400.966L400.406 380.04C400.406 379.28 400.239 378.607 399.906 378.02C399.586 377.42 399.146 376.953 398.586 376.62C398.026 376.287 397.379 376.12 396.646 376.12C395.926 376.12 395.279 376.287 394.706 376.62C394.133 376.953 393.686 377.42 393.366 378.02C393.046 378.62 392.886 379.307 392.886 380.08V380.3C392.886 381.1 393.059 381.807 393.406 382.42C393.766 383.02 394.259 383.493 394.886 383.84C395.526 384.173 396.253 384.34 397.066 384.34C397.706 384.34 398.299 384.227 398.846 384C399.406 383.773 399.886 383.427 400.286 382.96L401.086 383.88C400.619 384.44 400.033 384.867 399.326 385.16C398.633 385.453 397.866 385.6 397.026 385.6ZM408.816 385.6C407.816 385.6 406.916 385.373 406.116 384.92C405.33 384.467 404.71 383.84 404.256 383.04C403.803 382.227 403.576 381.293 403.576 380.24C403.576 379.173 403.803 378.24 404.256 377.44C404.71 376.64 405.33 376.02 406.116 375.58C406.916 375.127 407.816 374.9 408.816 374.9C409.736 374.9 410.556 375.107 411.276 375.52C412.01 375.933 412.59 376.54 413.016 377.34C413.456 378.127 413.676 379.093 413.676 380.24C413.676 381.373 413.463 382.34 413.036 383.14C412.61 383.94 412.03 384.553 411.296 384.98C410.576 385.393 409.75 385.6 408.816 385.6ZM408.916 384.34C409.663 384.34 410.33 384.173 410.916 383.84C411.516 383.493 411.983 383.013 412.316 382.4C412.663 381.773 412.836 381.053 412.836 380.24C412.836 379.413 412.663 378.693 412.316 378.08C411.983 377.467 411.516 376.993 410.916 376.66C410.33 376.313 409.663 376.14 408.916 376.14C408.183 376.14 407.523 376.313 406.936 376.66C406.35 376.993 405.883 377.467 405.536 378.08C405.19 378.693 405.016 379.413 405.016 380.24C405.016 381.053 405.19 381.773 405.536 382.4C405.883 383.013 406.35 383.493 406.936 383.84C407.523 384.173 408.183 384.34 408.916 384.34ZM412.876 385.5V382.34L413.016 380.22L412.816 378.1V370.66H414.236V385.5H412.876ZM187.22 413.5V401.68C187.22 400.747 187.493 399.993 188.04 399.42C188.587 398.847 189.373 398.56 190.4 398.56C190.8 398.56 191.187 398.613 191.56 398.72C191.933 398.827 192.247 398.993 192.5 399.22L192.02 400.28C191.82 400.107 191.587 399.98 191.32 399.9C191.053 399.807 190.767 399.76 190.46 399.76C189.86 399.76 189.4 399.927 189.08 400.26C188.76 400.593 188.6 401.087 188.6 401.74V403.34L188.64 404V413.5H187.22ZM185.34 404.18V403H191.84V404.18H185.34ZM198.042 413.6C196.948 413.6 195.988 413.373 195.162 412.92C194.335 412.453 193.688 411.82 193.222 411.02C192.755 410.207 192.522 409.28 192.522 408.24C192.522 407.2 192.742 406.28 193.182 405.48C193.635 404.68 194.248 404.053 195.022 403.6C195.808 403.133 196.688 402.9 197.662 402.9C198.648 402.9 199.522 403.127 200.282 403.58C201.055 404.02 201.662 404.647 202.102 405.46C202.542 406.26 202.762 407.187 202.762 408.24C202.762 408.307 202.755 408.38 202.742 408.46C202.742 408.527 202.742 408.6 202.742 408.68H193.602V407.62H201.982L201.422 408.04C201.422 407.28 201.255 406.607 200.922 406.02C200.602 405.42 200.162 404.953 199.602 404.62C199.042 404.287 198.395 404.12 197.662 404.12C196.942 404.12 196.295 404.287 195.722 404.62C195.148 404.953 194.702 405.42 194.382 406.02C194.062 406.62 193.902 407.307 193.902 408.08V408.3C193.902 409.1 194.075 409.807 194.422 410.42C194.782 411.02 195.275 411.493 195.902 411.84C196.542 412.173 197.268 412.34 198.082 412.34C198.722 412.34 199.315 412.227 199.862 412C200.422 411.773 200.902 411.427 201.302 410.96L202.102 411.88C201.635 412.44 201.048 412.867 200.342 413.16C199.648 413.453 198.882 413.6 198.042 413.6ZM210.112 413.6C209.019 413.6 208.059 413.373 207.232 412.92C206.405 412.453 205.759 411.82 205.292 411.02C204.825 410.207 204.592 409.28 204.592 408.24C204.592 407.2 204.812 406.28 205.252 405.48C205.705 404.68 206.319 404.053 207.092 403.6C207.879 403.133 208.759 402.9 209.732 402.9C210.719 402.9 211.592 403.127 212.352 403.58C213.125 404.02 213.732 404.647 214.172 405.46C214.612 406.26 214.832 407.187 214.832 408.24C214.832 408.307 214.825 408.38 214.812 408.46C214.812 408.527 214.812 408.6 214.812 408.68H205.672V407.62H214.052L213.492 408.04C213.492 407.28 213.325 406.607 212.992 406.02C212.672 405.42 212.232 404.953 211.672 404.62C211.112 404.287 210.465 404.12 209.732 404.12C209.012 404.12 208.365 404.287 207.792 404.62C207.219 404.953 206.772 405.42 206.452 406.02C206.132 406.62 205.972 407.307 205.972 408.08V408.3C205.972 409.1 206.145 409.807 206.492 410.42C206.852 411.02 207.345 411.493 207.972 411.84C208.612 412.173 209.339 412.34 210.152 412.34C210.792 412.34 211.385 412.227 211.932 412C212.492 411.773 212.972 411.427 213.372 410.96L214.172 411.88C213.705 412.44 213.119 412.867 212.412 413.16C211.719 413.453 210.952 413.6 210.112 413.6ZM221.902 413.6C220.902 413.6 220.002 413.373 219.202 412.92C218.416 412.467 217.796 411.84 217.342 411.04C216.889 410.227 216.662 409.293 216.662 408.24C216.662 407.173 216.889 406.24 217.342 405.44C217.796 404.64 218.416 404.02 219.202 403.58C220.002 403.127 220.902 402.9 221.902 402.9C222.822 402.9 223.642 403.107 224.362 403.52C225.096 403.933 225.676 404.54 226.102 405.34C226.542 406.127 226.762 407.093 226.762 408.24C226.762 409.373 226.549 410.34 226.122 411.14C225.696 411.94 225.116 412.553 224.382 412.98C223.662 413.393 222.836 413.6 221.902 413.6ZM222.002 412.34C222.749 412.34 223.416 412.173 224.002 411.84C224.602 411.493 225.069 411.013 225.402 410.4C225.749 409.773 225.922 409.053 225.922 408.24C225.922 407.413 225.749 406.693 225.402 406.08C225.069 405.467 224.602 404.993 224.002 404.66C223.416 404.313 222.749 404.14 222.002 404.14C221.269 404.14 220.609 404.313 220.022 404.66C219.436 404.993 218.969 405.467 218.622 406.08C218.276 406.693 218.102 407.413 218.102 408.24C218.102 409.053 218.276 409.773 218.622 410.4C218.969 411.013 219.436 411.493 220.022 411.84C220.609 412.173 221.269 412.34 222.002 412.34ZM225.962 413.5V410.34L226.102 408.22L225.902 406.1V398.66H227.322V413.5H225.962ZM236.697 413.6C235.777 413.6 234.95 413.393 234.217 412.98C233.484 412.553 232.904 411.94 232.477 411.14C232.05 410.34 231.837 409.373 231.837 408.24C231.837 407.093 232.05 406.127 232.477 405.34C232.917 404.54 233.504 403.933 234.237 403.52C234.97 403.107 235.79 402.9 236.697 402.9C237.697 402.9 238.59 403.127 239.377 403.58C240.177 404.02 240.804 404.64 241.257 405.44C241.71 406.24 241.937 407.173 241.937 408.24C241.937 409.293 241.71 410.227 241.257 411.04C240.804 411.84 240.177 412.467 239.377 412.92C238.59 413.373 237.697 413.6 236.697 413.6ZM231.277 413.5V398.66H232.697V406.1L232.497 408.22L232.637 410.34V413.5H231.277ZM236.597 412.34C237.344 412.34 238.01 412.173 238.597 411.84C239.184 411.493 239.65 411.013 239.997 410.4C240.344 409.773 240.517 409.053 240.517 408.24C240.517 407.413 240.344 406.693 239.997 406.08C239.65 405.467 239.184 404.993 238.597 404.66C238.01 404.313 237.344 404.14 236.597 404.14C235.85 404.14 235.177 404.313 234.577 404.66C233.99 404.993 233.524 405.467 233.177 406.08C232.844 406.693 232.677 407.413 232.677 408.24C232.677 409.053 232.844 409.773 233.177 410.4C233.524 411.013 233.99 411.493 234.577 411.84C235.177 412.173 235.85 412.34 236.597 412.34ZM251.353 413.5V411.18L251.293 410.8V406.92C251.293 406.027 251.04 405.34 250.533 404.86C250.04 404.38 249.3 404.14 248.313 404.14C247.633 404.14 246.986 404.253 246.373 404.48C245.76 404.707 245.24 405.007 244.813 405.38L244.173 404.32C244.706 403.867 245.346 403.52 246.093 403.28C246.84 403.027 247.626 402.9 248.453 402.9C249.813 402.9 250.86 403.24 251.593 403.92C252.34 404.587 252.713 405.607 252.713 406.98V413.5H251.353ZM247.733 413.6C246.946 413.6 246.26 413.473 245.673 413.22C245.1 412.953 244.66 412.593 244.353 412.14C244.046 411.673 243.893 411.14 243.893 410.54C243.893 409.993 244.02 409.5 244.273 409.06C244.54 408.607 244.966 408.247 245.553 407.98C246.153 407.7 246.953 407.56 247.953 407.56H251.573V408.62H247.993C246.98 408.62 246.273 408.8 245.873 409.16C245.486 409.52 245.293 409.967 245.293 410.5C245.293 411.1 245.526 411.58 245.993 411.94C246.46 412.3 247.113 412.48 247.953 412.48C248.753 412.48 249.44 412.3 250.013 411.94C250.6 411.567 251.026 411.033 251.293 410.34L251.613 411.32C251.346 412.013 250.88 412.567 250.213 412.98C249.56 413.393 248.733 413.6 247.733 413.6ZM260.93 413.6C259.89 413.6 258.957 413.373 258.13 412.92C257.317 412.453 256.677 411.82 256.21 411.02C255.743 410.207 255.51 409.28 255.51 408.24C255.51 407.187 255.743 406.26 256.21 405.46C256.677 404.66 257.317 404.033 258.13 403.58C258.957 403.127 259.89 402.9 260.93 402.9C261.823 402.9 262.63 403.073 263.35 403.42C264.07 403.767 264.637 404.287 265.05 404.98L263.99 405.7C263.63 405.167 263.183 404.773 262.65 404.52C262.117 404.267 261.537 404.14 260.91 404.14C260.163 404.14 259.49 404.313 258.89 404.66C258.29 404.993 257.817 405.467 257.47 406.08C257.123 406.693 256.95 407.413 256.95 408.24C256.95 409.067 257.123 409.787 257.47 410.4C257.817 411.013 258.29 411.493 258.89 411.84C259.49 412.173 260.163 412.34 260.91 412.34C261.537 412.34 262.117 412.213 262.65 411.96C263.183 411.707 263.63 411.32 263.99 410.8L265.05 411.52C264.637 412.2 264.07 412.72 263.35 413.08C262.63 413.427 261.823 413.6 260.93 413.6ZM268.803 410.78L268.843 408.96L275.383 403H277.123L272.503 407.42L271.703 408.1L268.803 410.78ZM267.683 413.5V398.66H269.103V413.5H267.683ZM275.823 413.5L271.443 408.04L272.363 406.94L277.563 413.5H275.823Z" fill="black"/>
<path d="M421.509 130.118C421.509 130.118 448.679 137.928 443.146 109.806C437.612 81.6851 425.555 70.6704 419.051 69.4221C412.547 68.1738 401.798 75.9792 405.667 102.497L421.509 130.118Z" fill="black"/>
<path d="M388.192 106.761L381.838 115.14C376.851 107.72 372.5 98.7771 368.275 94.3853C360.048 85.8321 361.436 92.6708 364.265 96.8523C364.265 96.8523 360.806 95.2354 360.037 99.1492C360.037 99.1492 357.422 99.4378 358.231 102.683C358.231 102.683 355.239 104.648 360.406 108.402C360.406 108.402 363.897 120.216 370.121 132.314C374.253 140.461 385.717 140.75 390.25 132.822L399.59 116.485L388.192 106.761Z" fill="white"/>
<path d="M380.34 138.797C380.237 138.797 380.134 138.796 380.03 138.794C375.689 138.684 371.92 136.295 369.946 132.404C364.021 120.887 360.527 109.484 360.237 108.522C358.174 107.012 357.143 105.591 357.174 104.299C357.195 103.373 357.762 102.807 358.01 102.603C357.762 101.515 357.866 100.631 358.32 99.9751C358.809 99.2673 359.559 99.0424 359.872 98.9771C360.128 97.8075 360.653 97.0121 361.435 96.6122C362.277 96.1817 363.209 96.3154 363.787 96.4751C362.44 94.2976 361.222 91.1193 362.247 90.2794C363.12 89.5633 365.196 90.8995 368.416 94.2479C371.075 97.0125 373.782 101.566 376.648 106.387C378.317 109.194 380.041 112.094 381.848 114.801L388.036 106.641C388.068 106.598 388.117 106.57 388.171 106.565C388.225 106.558 388.278 106.575 388.319 106.61L399.717 116.335C399.789 116.396 399.807 116.501 399.76 116.584L390.42 132.921C388.306 136.617 384.555 138.797 380.34 138.797ZM362.708 96.7199C362.349 96.7199 361.967 96.7828 361.611 96.9654C360.913 97.3231 360.449 98.0707 360.229 99.1875C360.212 99.2721 360.143 99.3361 360.058 99.3455C360.049 99.3465 359.153 99.458 358.639 100.205C358.238 100.788 358.164 101.606 358.421 102.635C358.441 102.717 358.408 102.802 358.338 102.848C358.308 102.869 357.585 103.361 357.566 104.315C357.543 105.462 358.564 106.82 360.52 108.242C360.556 108.267 360.581 108.304 360.594 108.346C360.629 108.464 364.152 120.282 370.295 132.223C372.203 135.985 375.845 138.293 380.04 138.399C384.237 138.502 387.987 136.383 390.079 132.724L399.339 116.53L388.222 107.046L381.994 115.259C381.956 115.31 381.895 115.34 381.833 115.337C381.77 115.335 381.711 115.303 381.676 115.25C379.806 112.469 378.03 109.48 376.312 106.59C373.458 101.789 370.762 97.2545 368.134 94.5225C363.862 90.0807 362.738 90.3867 362.495 90.5856C361.784 91.1685 362.759 94.275 364.427 96.7411C364.477 96.8144 364.472 96.9121 364.415 96.9798C364.358 97.0476 364.263 97.0685 364.183 97.0313C364.173 97.0268 363.499 96.7198 362.708 96.7198L362.708 96.7199Z" fill="black"/>
<path d="M371.027 110.982C370.088 110.982 369.276 110.316 368.835 109.687C368.392 109.055 368.137 108.321 367.89 107.611C367.829 107.436 367.769 107.26 367.705 107.086C367.431 106.339 367.02 105.414 366.264 104.89C365.905 104.64 365.491 104.492 365.054 104.335C364.852 104.263 364.644 104.188 364.442 104.103C363.857 103.856 363.116 103.398 362.909 102.616C362.633 101.569 363.524 100.544 364.496 100.278C365.449 100.017 366.439 100.279 367.367 100.6C369.811 101.446 371.848 102.594 373.422 104.011C373.502 104.084 373.509 104.209 373.437 104.29C373.365 104.371 373.241 104.378 373.16 104.305C371.626 102.923 369.634 101.802 367.24 100.973C366.371 100.673 365.449 100.426 364.599 100.659C363.806 100.876 363.078 101.715 363.289 102.515C363.454 103.141 364.09 103.526 364.594 103.739C364.786 103.82 364.989 103.893 365.185 103.963C365.628 104.122 366.085 104.286 366.487 104.565C367.334 105.152 367.779 106.148 368.073 106.95C368.138 107.126 368.199 107.303 368.261 107.481C368.499 108.165 368.744 108.873 369.156 109.46C369.585 110.071 370.408 110.727 371.314 110.561C371.421 110.542 371.523 110.613 371.542 110.72C371.561 110.828 371.491 110.93 371.384 110.95C371.264 110.972 371.145 110.982 371.027 110.982Z" fill="black"/>
<path d="M365.207 106.168C364.641 106.168 364.121 105.894 363.767 105.677C361.752 104.445 360.41 102.209 360.263 99.8414C360.256 99.7327 360.339 99.6389 360.447 99.6321C360.556 99.6252 360.648 99.7081 360.655 99.8169C360.794 102.057 362.064 104.174 363.971 105.34C364.521 105.676 364.962 105.811 365.361 105.764C365.784 105.714 366.229 105.353 366.193 104.916C366.184 104.807 366.264 104.712 366.372 104.702C366.485 104.693 366.575 104.774 366.584 104.883C366.64 105.555 366.021 106.084 365.407 106.156C365.34 106.164 365.273 106.168 365.207 106.168Z" fill="black"/>
<path d="M362.684 106.627C362.359 106.627 362.005 106.54 361.593 106.362C360.214 105.768 359.096 104.627 358.525 103.232C358.484 103.131 358.532 103.016 358.632 102.974C358.733 102.933 358.847 102.981 358.888 103.082C359.42 104.382 360.462 105.446 361.747 105.999C362.21 106.199 362.577 106.267 362.902 106.214C363.229 106.161 363.594 105.921 363.659 105.566C363.679 105.459 363.779 105.387 363.888 105.407C363.994 105.427 364.065 105.53 364.045 105.637C363.958 106.117 363.513 106.515 362.964 106.604C362.873 106.619 362.78 106.627 362.684 106.627L362.684 106.627Z" fill="black"/>
<path d="M360.778 107.93C360.584 107.93 360.391 107.89 360.215 107.806C360.117 107.76 360.075 107.642 360.121 107.543C360.168 107.445 360.284 107.403 360.383 107.449C360.695 107.598 361.09 107.554 361.364 107.341C361.638 107.127 361.778 106.754 361.712 106.412C361.692 106.305 361.762 106.201 361.868 106.181C361.975 106.16 362.078 106.23 362.098 106.337C362.19 106.822 361.992 107.351 361.604 107.653C361.37 107.836 361.074 107.931 360.778 107.931V107.93Z" fill="black"/>
<path d="M440.824 167.57H385.041C385.041 167.57 391.682 148.604 395.383 140.906L429.125 143.437L440.824 167.571L440.824 167.57Z" fill="white"/>
<path d="M440.824 167.768H385.04C384.977 167.768 384.917 167.737 384.88 167.685C384.843 167.632 384.834 167.565 384.855 167.505C384.922 167.315 391.542 148.44 395.206 140.82C395.241 140.747 395.317 140.702 395.397 140.709L429.14 143.24C429.209 143.246 429.271 143.288 429.301 143.351L441.001 167.484C441.03 167.545 441.027 167.617 440.991 167.675C440.955 167.733 440.892 167.768 440.824 167.768H440.824ZM385.318 167.373H440.51L428.998 143.626L395.501 141.113C392.074 148.291 386.131 165.067 385.318 167.373Z" fill="black"/>
<path d="M427.799 144.212C427.789 144.261 395.526 142.715 395.526 142.715V118.591L387.002 106.761C387.002 106.761 394.815 95.8494 415.551 99.2655C434.072 102.317 439.239 114.256 439.239 114.256L424.369 124.121L427.799 144.211V144.212Z" fill="#195DFF"/>
<path d="M388.285 150.095H410.028C410.914 150.095 411.572 149.269 411.379 148.398L403.831 114.449C403.602 113.419 402.693 112.686 401.644 112.686H380.206C379.123 112.686 378.319 113.696 378.555 114.76L386.002 148.255C386.241 149.33 387.19 150.095 388.285 150.095Z" fill="black"/>
<path d="M437.89 115.14L424.369 124.121L423.12 135.56C423.12 135.56 408.469 125.478 404.36 123.387C400.252 121.297 393.804 121.14 392.735 122.423C391.666 123.706 394.886 124.577 394.886 124.577C394.886 124.577 390.643 124.693 390.608 125.928C390.573 127.164 396.137 128.749 396.137 128.749C396.137 128.749 391.935 127.792 390.874 128.682C389.813 129.572 390.494 130.795 394.963 132.153C394.963 132.153 392.455 131.75 392.183 133.25C391.98 134.37 398.925 137.019 402.78 138.101C402.78 138.101 411.218 147.128 421.252 154.32C426.666 158.202 434.258 156.064 436.856 149.907C440.301 141.743 443.134 129.618 437.89 115.14H437.89Z" fill="white"/>
<path d="M427.284 156.469C425.106 156.469 422.964 155.79 421.138 154.481C411.203 147.36 402.722 138.327 402.637 138.236C402.563 138.157 402.567 138.032 402.646 137.957C402.724 137.883 402.849 137.886 402.923 137.966C403.007 138.056 411.464 147.062 421.366 154.16C423.904 155.979 427.077 156.535 430.073 155.684C433.057 154.836 435.464 152.702 436.676 149.83C441.521 138.346 441.868 126.697 437.706 115.207C437.668 115.105 437.721 114.991 437.823 114.954C437.924 114.917 438.037 114.969 438.074 115.072C442.272 126.659 441.923 138.405 437.037 149.984C435.778 152.967 433.279 155.183 430.179 156.064C429.224 156.335 428.25 156.469 427.284 156.469H427.284Z" fill="black"/>
<path d="M400.98 126.522C400.948 126.522 400.916 126.514 400.886 126.498C399.156 125.544 397.201 124.958 395.233 124.805C395.125 124.797 395.044 124.702 395.053 124.593C395.061 124.485 395.154 124.404 395.264 124.412C397.286 124.569 399.296 125.17 401.074 126.151C401.169 126.204 401.204 126.324 401.152 126.419C401.117 126.485 401.049 126.522 400.98 126.522L400.98 126.522Z" fill="black"/>
<path d="M399.628 130.243C399.601 130.243 399.573 130.237 399.546 130.225C398.515 129.751 397.44 129.349 396.352 129.032C396.248 129.001 396.188 128.892 396.218 128.787C396.248 128.682 396.357 128.622 396.461 128.652C397.568 128.975 398.661 129.383 399.71 129.866C399.808 129.911 399.852 130.028 399.807 130.128C399.774 130.2 399.703 130.243 399.628 130.243L399.628 130.243Z" fill="black"/>
<path d="M399.154 133.69C399.127 133.69 399.1 133.684 399.075 133.673C397.82 133.117 396.502 132.695 395.158 132.421C395.052 132.399 394.983 132.295 395.005 132.188C395.026 132.081 395.128 132.012 395.236 132.034C396.608 132.314 397.952 132.744 399.233 133.312C399.332 133.356 399.377 133.472 399.334 133.572C399.301 133.646 399.229 133.69 399.154 133.69Z" fill="black"/>
<path d="M429.019 140.602C428.976 140.602 428.932 140.588 428.896 140.559L423.232 135.988C423.148 135.919 423.134 135.795 423.202 135.71C423.269 135.625 423.393 135.611 423.478 135.679L429.142 140.25C429.226 140.319 429.24 140.443 429.172 140.528C429.133 140.577 429.076 140.602 429.019 140.602Z" fill="black"/>
<path d="M421.752 86.8232L419.294 99.4988L422.608 101.026C422.608 101.026 412.605 116.491 407.383 119.73C407.383 119.73 405.871 107.743 408.162 98.6046L411.425 98.4072L413.522 91.0029L421.752 86.8232Z" fill="white"/>
<path d="M412.216 77.9509C412.216 77.9509 407.732 89.6229 411.393 92.502C415.055 95.3812 420.943 88.757 420.943 88.757C420.943 88.757 424.611 88.9584 424.611 85.363C424.611 83.0866 421.465 83.0965 420.761 85.363C420.761 85.363 419.305 85.8856 419.454 84.9164C419.604 83.9472 421.025 77.6295 412.216 77.9508L412.216 77.9509Z" fill="white"/>
<path d="M413.533 93.4323C412.741 93.4323 411.972 93.2077 411.272 92.6577C407.539 89.722 411.848 78.3617 412.033 77.8797C412.062 77.806 412.131 77.7564 412.209 77.7535C415.247 77.6432 417.416 78.306 418.652 79.7254C420.224 81.5316 419.807 84.0012 419.67 84.8127L419.648 84.9468C419.616 85.1564 419.684 85.2132 419.706 85.2317C419.863 85.3626 420.297 85.301 420.605 85.2065C421.065 83.892 422.312 83.3378 423.278 83.4865C424.017 83.6003 424.807 84.1529 424.807 85.363C424.807 86.4625 424.476 87.3351 423.825 87.9561C422.829 88.9048 421.407 88.9579 421.027 88.9567C420.482 89.5552 416.819 93.4322 413.533 93.4322V93.4323ZM412.354 78.1439C411.894 79.3894 408.205 89.744 411.514 92.3465C412.126 92.8278 412.809 93.0264 413.518 93.0264C416.838 93.0267 420.749 88.6789 420.796 88.6254C420.836 88.5808 420.894 88.5561 420.953 88.5599C420.968 88.5607 422.547 88.6322 423.557 87.6676C424.126 87.1241 424.414 86.3487 424.414 85.3631C424.414 84.5478 423.967 83.9922 423.218 83.877C422.392 83.7496 421.313 84.2477 420.947 85.4221C420.929 85.4812 420.884 85.5282 420.826 85.549C420.729 85.5838 419.869 85.8792 419.456 85.5362C419.336 85.4365 419.205 85.2429 419.26 84.8862C419.266 84.8478 419.274 84.801 419.283 84.7466C419.412 83.9809 419.806 81.6507 418.356 79.9857C417.22 78.6798 415.195 78.0617 412.354 78.1439Z" fill="black"/>
<path d="M420.96 87.7863C420.934 87.7863 420.907 87.781 420.881 87.7696C420.782 87.7256 420.737 87.6091 420.781 87.5093C421.097 86.7876 421.961 86.2899 422.832 86.3217C422.94 86.3259 423.025 86.4176 423.021 86.5265C423.017 86.6358 422.917 86.7193 422.817 86.7164C422.108 86.6906 421.389 87.0983 421.14 87.6683C421.108 87.7423 421.036 87.7863 420.96 87.7863Z" fill="black"/>
<path d="M310.737 75.4417H201.81C200.579 75.4417 199.58 76.4464 199.58 77.6858V218.443C199.58 219.683 200.579 220.688 201.81 220.688H310.737C311.969 220.688 312.967 219.683 312.967 218.443V77.6858C312.967 76.4464 311.969 75.4417 310.737 75.4417Z" fill="white"/>
<path d="M310.737 220.885H201.81C200.472 220.885 199.384 219.79 199.384 218.443V77.6858C199.384 76.3395 200.472 75.2442 201.81 75.2442H310.737C312.075 75.2442 313.164 76.3395 313.164 77.6858V218.443C313.164 219.79 312.075 220.885 310.737 220.885ZM201.81 75.6391C200.689 75.6391 199.776 76.5573 199.776 77.6858V218.443C199.776 219.572 200.689 220.49 201.81 220.49H310.737C311.859 220.49 312.771 219.572 312.771 218.443V77.6858C312.771 76.5573 311.859 75.6391 310.737 75.6391H201.81Z" fill="black"/>
<path d="M307.073 214.954H205.475C205.367 214.954 205.279 214.865 205.279 214.756V81.3731C205.279 81.264 205.367 81.1756 205.475 81.1756H307.073C307.181 81.1756 307.269 81.264 307.269 81.3731V214.756C307.269 214.865 307.181 214.954 307.073 214.954ZM205.671 214.559H306.877V81.5705H205.671V214.559Z" fill="black"/>
<path d="M279.742 87.0536H232.804C228.797 87.0536 225.548 83.7848 225.548 79.7525V69.2961H286.998V79.7525C286.998 83.7848 283.75 87.0536 279.742 87.0536Z" fill="#E2EAFF"/>
<path d="M298.918 121.17H265.114C265.006 121.17 264.918 121.081 264.918 120.972C264.918 120.863 265.006 120.775 265.114 120.775H298.918C299.026 120.775 299.114 120.863 299.114 120.972C299.114 121.081 299.026 121.17 298.918 121.17Z" fill="black"/>
<path d="M253.174 121.17H238.08C237.972 121.17 237.884 121.081 237.884 120.972C237.884 120.863 237.972 120.775 238.08 120.775H253.174C253.283 120.775 253.37 120.863 253.37 120.972C253.37 121.081 253.283 121.17 253.174 121.17Z" fill="black"/>
<path d="M298.918 129.901H275.252C275.144 129.901 275.056 129.813 275.056 129.704C275.056 129.595 275.144 129.506 275.252 129.506H298.918C299.027 129.506 299.114 129.595 299.114 129.704C299.114 129.813 299.027 129.901 298.918 129.901Z" fill="black"/>
<path d="M267.592 129.901H238.08C237.972 129.901 237.884 129.813 237.884 129.704C237.884 129.595 237.972 129.506 238.08 129.506H267.592C267.701 129.506 267.789 129.595 267.789 129.704C267.789 129.813 267.701 129.901 267.592 129.901Z" fill="black"/>
<path d="M298.918 138.633H262.361C262.252 138.633 262.165 138.544 262.165 138.435C262.165 138.326 262.252 138.238 262.361 138.238H298.918C299.026 138.238 299.114 138.326 299.114 138.435C299.114 138.544 299.026 138.633 298.918 138.633Z" fill="black"/>
<path d="M253.349 138.633H238.08C237.972 138.633 237.884 138.544 237.884 138.435C237.884 138.326 237.972 138.238 238.08 138.238H253.349C253.458 138.238 253.545 138.326 253.545 138.435C253.545 138.544 253.458 138.633 253.349 138.633Z" fill="black"/>
<path d="M231.013 138.633H213.658C213.549 138.633 213.461 138.544 213.461 138.435V120.972C213.461 120.863 213.549 120.775 213.658 120.775H230.019C230.127 120.775 230.215 120.863 230.215 120.972C230.215 121.081 230.127 121.17 230.019 121.17H213.854V138.238H230.817V125.664C230.817 125.555 230.904 125.466 231.013 125.466C231.121 125.466 231.209 125.555 231.209 125.664V138.435C231.209 138.544 231.121 138.633 231.013 138.633Z" fill="black"/>
<path d="M222.335 135.635H222.335C222.272 135.635 222.212 135.604 222.175 135.553L215.376 125.974C215.313 125.885 215.333 125.762 215.422 125.698C215.51 125.635 215.632 125.656 215.695 125.744L222.335 135.099L234.026 118.707C234.089 118.618 234.212 118.598 234.3 118.661C234.388 118.725 234.408 118.848 234.345 118.937L222.495 135.553C222.458 135.605 222.398 135.635 222.335 135.635L222.335 135.635Z" fill="black"/>
<path d="M298.918 150.167H265.114C265.006 150.167 264.918 150.079 264.918 149.97C264.918 149.861 265.006 149.772 265.114 149.772H298.918C299.026 149.772 299.114 149.861 299.114 149.97C299.114 150.079 299.026 150.167 298.918 150.167Z" fill="black"/>
<path d="M253.174 150.167H238.08C237.972 150.167 237.884 150.079 237.884 149.97C237.884 149.861 237.972 149.772 238.08 149.772H253.174C253.283 149.772 253.37 149.861 253.37 149.97C253.37 150.079 253.283 150.167 253.174 150.167Z" fill="black"/>
<path d="M298.918 158.898H275.252C275.144 158.898 275.056 158.81 275.056 158.701C275.056 158.592 275.144 158.504 275.252 158.504H298.918C299.027 158.504 299.114 158.592 299.114 158.701C299.114 158.81 299.027 158.898 298.918 158.898Z" fill="black"/>
<path d="M267.592 158.898H238.08C237.972 158.898 237.884 158.81 237.884 158.701C237.884 158.592 237.972 158.504 238.08 158.504H267.592C267.701 158.504 267.789 158.592 267.789 158.701C267.789 158.81 267.701 158.898 267.592 158.898Z" fill="black"/>
<path d="M298.918 167.63H262.361C262.252 167.63 262.165 167.542 262.165 167.433C262.165 167.324 262.252 167.235 262.361 167.235H298.918C299.026 167.235 299.114 167.324 299.114 167.433C299.114 167.542 299.026 167.63 298.918 167.63Z" fill="black"/>
<path d="M253.349 167.63H238.08C237.972 167.63 237.884 167.542 237.884 167.433C237.884 167.324 237.972 167.235 238.08 167.235H253.349C253.458 167.235 253.545 167.324 253.545 167.433C253.545 167.542 253.458 167.63 253.349 167.63Z" fill="black"/>
<path d="M231.013 167.63H213.658C213.549 167.63 213.461 167.541 213.461 167.432V149.969C213.461 149.86 213.549 149.772 213.658 149.772H230.019C230.127 149.772 230.215 149.86 230.215 149.969C230.215 150.078 230.127 150.167 230.019 150.167H213.854V167.235H230.817V154.661C230.817 154.552 230.904 154.463 231.013 154.463C231.121 154.463 231.209 154.552 231.209 154.661V167.432C231.209 167.541 231.121 167.63 231.013 167.63Z" fill="black"/>
<path d="M222.335 164.633H222.335C222.272 164.632 222.212 164.602 222.175 164.55L215.376 154.971C215.313 154.882 215.333 154.759 215.422 154.696C215.51 154.632 215.632 154.653 215.695 154.742L222.335 164.096L234.026 147.704C234.089 147.615 234.212 147.595 234.3 147.659C234.388 147.722 234.408 147.846 234.345 147.934L222.495 164.55C222.458 164.602 222.398 164.633 222.335 164.633Z" fill="black"/>
<path d="M298.918 179.164H265.114C265.006 179.164 264.918 179.076 264.918 178.967C264.918 178.858 265.006 178.769 265.114 178.769H298.918C299.026 178.769 299.114 178.858 299.114 178.967C299.114 179.076 299.026 179.164 298.918 179.164Z" fill="black"/>
<path d="M253.174 179.164H238.08C237.972 179.164 237.884 179.076 237.884 178.967C237.884 178.858 237.972 178.769 238.08 178.769H253.174C253.283 178.769 253.37 178.858 253.37 178.967C253.37 179.076 253.283 179.164 253.174 179.164Z" fill="black"/>
<path d="M298.918 187.896H275.252C275.144 187.896 275.056 187.807 275.056 187.698C275.056 187.589 275.144 187.501 275.252 187.501H298.918C299.027 187.501 299.114 187.589 299.114 187.698C299.114 187.807 299.027 187.896 298.918 187.896Z" fill="black"/>
<path d="M267.592 187.896H238.08C237.972 187.896 237.884 187.807 237.884 187.698C237.884 187.589 237.972 187.501 238.08 187.501H267.592C267.701 187.501 267.789 187.589 267.789 187.698C267.789 187.807 267.701 187.896 267.592 187.896Z" fill="black"/>
<path d="M298.918 196.627H262.361C262.252 196.627 262.165 196.539 262.165 196.43C262.165 196.321 262.252 196.232 262.361 196.232H298.918C299.026 196.232 299.114 196.321 299.114 196.43C299.114 196.539 299.026 196.627 298.918 196.627Z" fill="black"/>
<path d="M253.349 196.627H238.08C237.972 196.627 237.884 196.539 237.884 196.43C237.884 196.321 237.972 196.232 238.08 196.232H253.349C253.458 196.232 253.545 196.321 253.545 196.43C253.545 196.539 253.458 196.627 253.349 196.627Z" fill="black"/>
<path d="M231.013 196.627H213.658C213.549 196.627 213.461 196.539 213.461 196.43V178.967C213.461 178.858 213.549 178.769 213.658 178.769H230.019C230.127 178.769 230.215 178.858 230.215 178.967C230.215 179.076 230.127 179.164 230.019 179.164H213.854V196.232H230.817V183.658C230.817 183.549 230.904 183.461 231.013 183.461C231.121 183.461 231.209 183.549 231.209 183.658V196.43C231.209 196.539 231.121 196.627 231.013 196.627Z" fill="black"/>
<path d="M222.335 193.63H222.335C222.272 193.63 222.212 193.599 222.175 193.547L215.376 183.969C215.313 183.88 215.333 183.757 215.422 183.693C215.51 183.63 215.632 183.65 215.695 183.739L222.335 193.093L234.026 176.701C234.089 176.613 234.212 176.592 234.3 176.656C234.388 176.72 234.408 176.843 234.345 176.932L222.495 193.548C222.458 193.599 222.398 193.63 222.335 193.63Z" fill="black"/>
<path d="M298.918 95.5663H213.658V110.878H298.918V95.5663Z" fill="#E2EAFF"/>
<path d="M335.243 113.016C342.029 106.189 342.029 95.1189 335.243 88.2913C328.458 81.4636 317.457 81.4636 310.671 88.2913C303.886 95.1189 303.886 106.189 310.671 113.016C317.457 119.844 328.458 119.844 335.243 113.016Z" fill="white"/>
<path d="M322.957 118.335C313.268 118.335 305.386 110.403 305.386 100.654C305.386 90.9046 313.268 82.9731 322.957 82.9731C332.646 82.9731 340.528 90.9047 340.528 100.654C340.528 110.403 332.646 118.335 322.957 118.335ZM322.957 83.368C313.485 83.368 305.778 91.1224 305.778 100.654C305.778 110.185 313.485 117.94 322.957 117.94C332.429 117.94 340.136 110.185 340.136 100.654C340.136 91.1224 332.429 83.368 322.957 83.368Z" fill="#195DFF"/>
<path d="M332.617 110.373C337.951 105.005 337.951 96.3022 332.617 90.9343C327.282 85.5664 318.633 85.5664 313.298 90.9343C307.963 96.3022 307.963 105.005 313.298 110.373C318.633 115.741 327.282 115.741 332.617 110.373Z" fill="white"/>
<path d="M322.957 114.597C315.317 114.597 309.101 108.342 309.101 100.654C309.101 92.9657 315.317 86.711 322.957 86.711C330.597 86.711 336.814 92.9657 336.814 100.654C336.814 108.342 330.598 114.597 322.957 114.597ZM322.957 87.1059C315.533 87.1059 309.493 93.1835 309.493 100.654C309.493 108.124 315.533 114.202 322.957 114.202C330.381 114.202 336.421 108.124 336.421 100.654C336.421 93.1835 330.381 87.1059 322.957 87.1059Z" fill="#195DFF"/>
<path d="M324.775 113.017C331.561 106.189 331.561 95.1191 324.775 88.2914C317.99 81.4637 306.988 81.4637 300.203 88.2914C293.418 95.1191 293.418 106.189 300.203 113.017C306.988 119.844 317.99 119.844 324.775 113.017Z" fill="white"/>
<path d="M312.489 118.335C302.8 118.335 294.918 110.403 294.918 100.654C294.918 90.9046 302.8 82.9732 312.489 82.9732C322.178 82.9732 330.06 90.9047 330.06 100.654C330.06 110.403 322.178 118.335 312.489 118.335ZM312.489 83.3681C303.017 83.3681 295.31 91.1224 295.31 100.654C295.31 110.185 303.017 117.94 312.489 117.94C321.962 117.94 329.668 110.185 329.668 100.654C329.668 91.1224 321.962 83.3681 312.489 83.3681Z" fill="#195DFF"/>
<path d="M322.148 110.373C327.483 105.005 327.483 96.3023 322.148 90.9344C316.814 85.5665 308.164 85.5665 302.83 90.9344C297.495 96.3023 297.495 105.005 302.83 110.373C308.164 115.741 316.814 115.741 322.148 110.373Z" fill="white"/>
<path d="M312.489 114.597C304.849 114.597 298.633 108.342 298.633 100.654C298.633 92.9658 304.849 86.711 312.489 86.711C320.13 86.711 326.346 92.9658 326.346 100.654C326.346 108.342 320.13 114.597 312.489 114.597ZM312.489 87.1059C305.065 87.1059 299.025 93.1836 299.025 100.654C299.025 108.124 305.065 114.202 312.489 114.202C319.913 114.202 325.953 108.124 325.953 100.654C325.953 93.1836 319.913 87.1059 312.489 87.1059Z" fill="#195DFF"/>
<path d="M314.307 113.017C321.092 106.189 321.092 95.119 314.307 88.2913C307.521 81.4636 296.52 81.4636 289.735 88.2913C282.949 95.119 282.949 106.189 289.735 113.017C296.52 119.844 307.521 119.844 314.307 113.017Z" fill="#195DFF"/>
<path d="M302.021 114.597C294.38 114.597 288.164 108.342 288.164 100.654C288.164 92.9657 294.38 86.7109 302.021 86.7109C309.661 86.7109 315.877 92.9657 315.877 100.654C315.877 108.342 309.661 114.597 302.021 114.597ZM302.021 87.1058C294.596 87.1058 288.556 93.1835 288.556 100.654C288.556 108.124 294.596 114.202 302.021 114.202C309.445 114.202 315.485 108.124 315.485 100.654C315.485 93.1835 309.445 87.1058 302.021 87.1058Z" fill="white"/>
<path d="M301.127 111.512V108.841C299.602 108.814 298.025 108.338 297.105 107.677L297.736 105.904C298.682 106.539 300.049 107.042 301.521 107.042C303.388 107.042 304.649 105.957 304.649 104.45C304.649 102.995 303.624 102.096 301.679 101.302C298.998 100.244 297.341 99.0272 297.341 96.726C297.341 94.5304 298.893 92.864 301.311 92.4673V89.7957H302.941V92.3614C304.518 92.4143 305.596 92.8376 306.358 93.2872L305.701 95.0331C305.149 94.7157 304.071 94.1337 302.389 94.1337C300.365 94.1337 299.602 95.3505 299.602 96.4086C299.602 97.784 300.575 98.4718 302.862 99.424C305.57 100.535 306.937 101.91 306.937 104.265C306.937 106.354 305.491 108.312 302.783 108.761V111.512H301.127L301.127 111.512Z" fill="white"/>
<path d="M272.116 202.392H287.205C289.306 202.392 291.012 204.109 291.012 206.223V229.353C291.012 231.467 289.306 233.184 287.205 233.184H272.116C270.015 233.184 268.309 231.467 268.309 229.353V206.223C268.309 204.109 270.015 202.392 272.116 202.392Z" fill="white"/>
<path d="M287.205 233.381H272.116C269.908 233.381 268.112 231.574 268.112 229.353V206.223C268.112 204.002 269.908 202.195 272.116 202.195H287.205C289.412 202.195 291.208 204.002 291.208 206.223V229.353C291.208 231.574 289.412 233.381 287.205 233.381ZM272.116 202.59C270.124 202.59 268.505 204.22 268.505 206.223V229.353C268.505 231.356 270.124 232.986 272.116 232.986H287.205C289.196 232.986 290.815 231.356 290.815 229.353V206.223C290.815 204.22 289.196 202.59 287.205 202.59H272.116Z" fill="black"/>
<path d="M405.722 227.489L395.496 232.762C393.625 233.726 391.331 232.982 390.372 231.099L375.214 201.333C374.255 199.451 374.994 197.142 376.866 196.177L387.091 190.905C388.963 189.94 391.257 190.684 392.216 192.567L407.374 222.333C408.333 224.216 407.593 226.524 405.722 227.489Z" fill="white"/>
<path d="M393.765 233.382C393.351 233.382 392.937 233.317 392.532 233.186C391.514 232.856 390.685 232.147 390.198 231.189L375.039 201.423C374.032 199.447 374.812 197.014 376.776 196.001L387.002 190.729C388.967 189.716 391.384 190.5 392.39 192.477L407.549 222.243C408.037 223.2 408.125 224.292 407.796 225.316C407.468 226.34 406.764 227.174 405.812 227.665L395.586 232.937C395.013 233.233 394.391 233.383 393.765 233.383L393.765 233.382ZM388.822 190.681C388.268 190.681 387.707 190.809 387.181 191.08L376.955 196.353C375.183 197.266 374.481 199.46 375.388 201.243L390.547 231.009C390.987 231.873 391.734 232.513 392.652 232.81C393.57 233.108 394.548 233.028 395.407 232.586L405.633 227.313C406.491 226.871 407.127 226.118 407.423 225.195C407.719 224.271 407.639 223.287 407.2 222.423L392.041 192.657C391.403 191.403 390.134 190.681 388.822 190.681Z" fill="black"/>
<path d="M399.16 157.1L393.301 157.951C391.958 158.146 390.969 159.205 390.969 160.449V164.49C390.969 165.498 390.292 166.403 389.265 166.769L389.105 166.826C384.195 154.478 377.226 140.473 373.706 137.255C367.219 131.323 293.831 131.819 287.886 137.255C282.678 142.017 276.472 155.075 272.159 166.737C271.177 166.354 270.535 165.471 270.535 164.49V160.449C270.535 159.205 269.547 158.146 268.203 157.951L262.344 157.1C259.158 156.638 256.274 158.889 256.274 161.839C256.274 163.863 257.662 165.669 259.744 166.354L270.972 170.049C269.413 174.541 268.197 178.666 267.505 181.816C265.996 188.686 267.496 209.844 267.496 209.844C267.496 209.844 277.503 214.03 281.083 214.639C305.519 218.802 356.073 218.802 380.509 214.639C384.089 214.03 394.097 209.844 394.097 209.844C398.018 201.161 385.041 203.029 394.214 190.793C396.614 187.593 386.598 186.468 386.111 184.247C385.44 181.192 392.077 174.63 390.373 170.101L401.76 166.354C403.842 165.669 405.23 163.863 405.23 161.839C405.23 158.889 402.347 156.638 399.16 157.1V157.1Z" fill="#195DFF"/>
<path d="M384.737 164.554C380.211 153.644 374.378 142.183 371.313 139.38C365.188 133.779 295.892 134.247 290.279 139.38C285.721 143.549 280.353 154.446 276.35 164.786C300.517 160.626 359.98 160.29 384.737 164.554Z" fill="white"/>
<path d="M301.138 214.566C319.492 216.064 342.1 216.064 360.454 214.566L359.257 207.618C358.638 204.021 355.788 201.419 352.469 201.419H309.123C305.804 201.419 302.954 204.021 302.335 207.618L301.138 214.566Z" fill="white"/>
<path d="M346.732 203.928H314.86V213.449H346.732V203.928Z" fill="white"/>
<path d="M346.732 213.646H314.86C314.752 213.646 314.664 213.558 314.664 213.449V203.928C314.664 203.819 314.752 203.731 314.86 203.731H346.732C346.84 203.731 346.928 203.819 346.928 203.928V213.449C346.928 213.558 346.84 213.646 346.732 213.646ZM315.057 213.251H346.536V204.125H315.057V213.251Z" fill="black"/>
<path d="M353.419 187.979C339.418 187.278 322.173 187.278 308.172 187.979L309.085 191.231C309.558 192.915 311.732 194.133 314.263 194.133H347.328C349.86 194.133 352.034 192.915 352.506 191.231L353.419 187.979Z" fill="white"/>
<path d="M285.836 210.274L273.281 207.847C272.175 207.633 271.573 206.536 272.046 205.598L273.814 202.096C274.158 201.414 274.972 201.041 275.776 201.196L289.249 203.8C290.502 204.042 291.062 205.388 290.301 206.331L287.616 209.655C287.207 210.162 286.511 210.404 285.836 210.274Z" fill="white"/>
<path d="M295.935 189.432L288.071 192.669C287.409 192.942 286.648 192.925 286 192.625L273.251 186.712C272.696 186.455 272.272 186.01 272.069 185.473L271.086 182.878C270.457 181.216 272.115 179.587 273.973 180.04L295.568 185.311C296.619 185.567 297.349 186.437 297.349 187.431C297.349 188.294 296.796 189.078 295.935 189.432H295.935Z" fill="white"/>
<path d="M375.989 210.274L388.545 207.847C389.65 207.633 390.252 206.536 389.779 205.598L388.011 202.096C387.667 201.414 386.853 201.041 386.049 201.196L372.576 203.8C371.323 204.042 370.763 205.388 371.524 206.331L374.209 209.655C374.618 210.162 375.314 210.404 375.989 210.273L375.989 210.274Z" fill="white"/>
<path d="M376.095 213.646C376.086 213.646 376.077 213.646 376.068 213.645L366.364 212.294C366.291 212.284 366.23 212.233 366.206 212.163L362.879 202.485L358.549 196.547C358.488 196.464 358.501 196.348 358.578 196.28L363.615 191.889C361.943 188.075 359.152 182.036 358.598 181.663C358.523 181.612 358.485 181.53 358.495 181.442C358.525 181.199 358.573 180.794 372.815 175.391C379.801 172.741 386.865 170.161 386.936 170.136C387.037 170.098 387.15 170.151 387.187 170.254C387.224 170.356 387.171 170.47 387.069 170.507C376.384 174.407 360.422 180.422 358.955 181.469C360.02 182.727 363.608 190.893 364.032 191.863C364.067 191.943 364.046 192.035 363.981 192.092L358.972 196.46L363.213 202.276C363.225 202.292 363.234 202.309 363.241 202.328L366.537 211.92L376.122 213.253C376.229 213.268 376.304 213.368 376.289 213.476C376.276 213.575 376.192 213.646 376.095 213.646L376.095 213.646Z" fill="black"/>
<path d="M368.993 196.627C368.978 196.627 368.962 196.625 368.947 196.622C368.874 196.604 368.817 196.545 368.801 196.471L366.199 184.288C366.188 184.237 366.198 184.182 366.227 184.138C366.256 184.094 366.302 184.063 366.353 184.053L383.159 180.755C383.265 180.734 383.369 180.804 383.39 180.911C383.41 181.018 383.341 181.122 383.234 181.143L366.625 184.402L369.099 195.988L375.954 187.573C375.968 187.555 375.986 187.54 376.006 187.528L383.098 183.344C383.191 183.289 383.311 183.32 383.366 183.414C383.421 183.508 383.39 183.629 383.296 183.685L376.235 187.851L369.145 196.555C369.107 196.601 369.051 196.627 368.993 196.627V196.627Z" fill="black"/>
<path d="M360.986 89.9931H339.711C339.603 89.9931 339.515 89.9047 339.515 89.7956C339.515 89.6866 339.603 89.5982 339.711 89.5982H360.986C361.095 89.5982 361.182 89.6866 361.182 89.7956C361.182 89.9047 361.095 89.9931 360.986 89.9931Z" fill="black"/>
<path d="M364.114 92.2481C365.46 90.8936 365.46 88.6976 364.114 87.3431C362.768 85.9887 360.586 85.9887 359.24 87.3431C357.893 88.6976 357.893 90.8936 359.24 92.2481C360.586 93.6025 362.768 93.6025 364.114 92.2481Z" fill="#195DFF"/>
<path d="M353.5 15H108L1.35645 413" stroke="black"/>
</svg>
