<svg width="168" height="120" viewBox="0 0 168 120" fill="none" xmlns="http://www.w3.org/2000/svg">
<path d="M130.304 25.3183C129.156 21.9583 125.62 19.7992 121.278 19.7992H121.181C118.549 19.8186 113.78 19.8366 111.597 19.8444L107.234 11.9401C104.188 6.57071 99.7618 0.418945 92.4882 0.418945H92.3931L39.3999 0.810554C33.427 0.854375 28.1569 5.02618 24.5556 12.5622L20.1212 20.5574C17.9443 20.5691 13.1188 20.5954 10.453 20.6151C6.06705 20.6473 2.51844 22.8663 1.41156 26.2682C0.910225 27.8197 0.603265 29.4273 0.497715 31.0543C0.487023 31.3158 0.529304 31.5767 0.622018 31.8215C0.714732 32.0662 0.855965 32.2896 1.03723 32.4784C1.21849 32.6671 1.43605 32.8173 1.67681 32.9198C1.91758 33.0224 2.1766 33.0752 2.43829 33.0751H2.45521L9.12227 33.0174C6.23096 35.2639 4.38746 38.9844 4.41908 43.2625C4.41968 43.344 4.42542 43.4254 4.43627 43.5062L7.72807 68.0586C7.77355 69.7475 8.40527 71.3678 9.51487 72.6418C10.6245 73.9158 12.1428 74.7639 13.8094 75.0408L13.8673 82.9026C13.8765 84.1173 14.3653 85.2792 15.2273 86.135C16.0893 86.9909 17.2546 87.4714 18.4693 87.4719H18.5043L26.5869 87.4123C27.8073 87.4018 28.9737 86.9078 29.8303 86.0384C30.6869 85.1691 31.1637 83.9955 31.1561 82.7751L31.099 75.02L56.5808 74.8322C57.0957 74.8303 57.5887 74.624 57.9515 74.2586C58.3142 73.8932 58.517 73.3986 58.5151 72.8837C58.5132 72.3688 58.3069 71.8758 57.9415 71.513C57.5761 71.1503 57.0815 70.9475 56.5666 70.9494H56.5519L15.0147 71.2545C14.1192 71.2562 13.2591 70.905 12.6207 70.2771C12.3029 69.9671 12.0498 69.5972 11.8759 69.1888C11.7021 68.7803 11.6109 68.3414 11.6078 67.8975C11.6072 67.8163 11.6014 67.7353 11.5906 67.6548L8.30161 43.1163C8.31714 38.0215 11.7784 34.8858 15.2674 34.6529C15.3719 34.6708 15.4778 34.68 15.5838 34.6806H15.5982L116.03 33.9407C116.045 33.9407 116.058 33.9429 116.073 33.9429H116.14C117.146 33.9477 118.14 34.1691 119.054 34.592C119.967 35.0148 120.779 35.6294 121.434 36.3938C122.84 38.0287 123.629 40.1048 123.663 42.261L122.655 50.3436C122.623 50.5967 122.642 50.8536 122.709 51.0996C122.777 51.3456 122.892 51.5759 123.049 51.7773C123.206 51.9786 123.4 52.1472 123.622 52.2732C123.844 52.3993 124.089 52.4804 124.342 52.5119C124.422 52.5219 124.503 52.527 124.584 52.5271C125.057 52.5265 125.514 52.3533 125.868 52.04C126.222 51.7267 126.45 51.2949 126.508 50.8256L127.533 42.6104C127.543 42.526 127.548 42.4409 127.548 42.3558C127.545 39.217 126.406 36.1852 124.341 33.8211C123.81 33.2192 123.218 32.6737 122.575 32.1931L129.365 32.1407C129.628 32.1387 129.887 32.0833 130.128 31.978C130.369 31.8727 130.586 31.7196 130.765 31.528C130.945 31.3363 131.084 31.1102 131.174 30.8633C131.264 30.6164 131.303 30.3538 131.288 30.0914C131.159 28.4658 130.828 26.8625 130.304 25.3183ZM27.217 75.0485L27.2741 82.8039C27.2753 82.9949 27.2007 83.1785 27.0667 83.3145C26.9326 83.4505 26.7501 83.5278 26.5592 83.5294L18.4765 83.5891C18.2861 83.5873 18.1036 83.5132 17.9659 83.3816C17.8984 83.3154 17.8447 83.2364 17.8078 83.1493C17.7709 83.0622 17.7516 82.9687 17.751 82.8741L17.6939 75.1187L27.217 75.0485ZM15.3941 29.0799L4.66092 29.1731C4.77647 28.5972 4.92462 28.0283 5.10467 27.4691C5.67628 25.7113 7.83706 24.5173 10.4815 24.4979C12.4435 24.4835 15.5766 24.4652 17.9609 24.4522L15.3941 29.0799ZM81.4907 30.3136C81.8456 28.2045 82.9325 26.2879 84.5604 24.9008C86.1883 23.5136 88.253 22.7446 90.3917 22.7288C92.5303 22.7131 94.6062 23.4516 96.2543 24.8146C97.9025 26.1776 99.0175 28.0779 99.4035 30.1815L81.4907 30.3136ZM103.326 30.1527C102.919 27.0102 101.376 24.1255 98.9875 22.0426C96.5995 19.9597 93.5318 18.8227 90.3631 18.846C87.1944 18.8693 84.1438 20.0514 81.7867 22.1692C79.4296 24.2871 77.929 27.1943 77.5679 30.3424L18.8942 30.7748L27.98 14.3935C27.9997 14.3582 28.018 14.3222 28.0354 14.2859C29.7314 10.722 33.4664 4.73719 39.4287 4.69337L92.4219 4.30287H92.489C96.6561 4.30287 100.061 7.16561 103.847 13.8377L112.815 30.0831L103.326 30.1527ZM116.298 28.358L113.736 23.7194C116.116 23.71 119.252 23.6964 121.209 23.682H121.275C123.89 23.682 126.037 24.8393 126.629 26.5739C126.818 27.1314 126.976 27.6993 127.101 28.2748L116.298 28.358Z" fill="#0635C9"/>
<path d="M95.9024 36.3779C90.4378 36.3729 85.0258 37.4456 79.9762 39.5345C74.9266 41.6234 70.3385 44.6876 66.4745 48.5516C62.6104 52.4157 59.5463 57.0038 57.4573 62.0534C55.3684 67.103 54.2958 72.5149 54.3008 77.9795C54.3008 100.919 72.963 119.581 95.9024 119.581C118.842 119.581 137.504 100.919 137.504 77.9795C137.504 66.9461 133.121 56.3646 125.319 48.5628C117.517 40.761 106.936 36.3779 95.9024 36.3779ZM95.9024 115.698C75.1044 115.698 58.1836 98.7778 58.1836 77.9795C58.1836 67.9759 62.1575 58.382 69.2312 51.3083C76.3048 44.2347 85.8987 40.2608 95.9024 40.2608C105.906 40.2608 115.5 44.2347 122.574 51.3083C129.647 58.382 133.621 67.9759 133.621 77.9795C133.621 98.7772 116.701 115.698 95.9024 115.698V115.698Z" fill="black"/>
<rect x="68" y="62" width="100" height="31" rx="15.5" fill="black"/>
<path d="M160.747 79.0961V80.6815H158.296V83.8524H156.507V80.6815H149.336V79.3911L155.936 70.9476H157.927L151.603 79.0961H156.563V76.2939H158.296V79.0961H160.747Z" fill="white"/>
<path d="M143.911 76.3676C146.492 76.6073 147.801 78.0637 147.801 80.0547C147.801 82.2301 146.197 83.9999 142.916 83.9999C141.072 83.9999 139.265 83.41 138.178 82.4329L139.026 80.9765C139.892 81.7877 141.33 82.3592 142.916 82.3592C144.851 82.3592 145.957 81.4743 145.957 80.0732C145.957 78.7089 144.98 77.824 142.768 77.824H141.736V76.5336L144.98 72.5515H138.768V70.9476H147.285V72.2012L143.911 76.3676Z" fill="white"/>
<path d="M130.837 82.2487H137.455V83.8526H128.182V82.599L133.436 77.5292C134.8 76.2019 135.058 75.3907 135.058 74.5796C135.058 73.2522 134.118 72.441 132.311 72.441C130.929 72.441 129.804 72.8835 129.011 73.8421L127.758 72.7544C128.753 71.5193 130.468 70.8003 132.477 70.8003C135.169 70.8003 136.902 72.1829 136.902 74.3952C136.902 75.6488 136.533 76.7734 134.782 78.451L130.837 82.2487Z" fill="white"/>
<path d="M120.824 70.9476H125.562V83.8524H123.737V72.5515H120.824V70.9476Z" fill="white"/>
<path d="M114.994 79.557V78.0269H119.953V79.557H114.994Z" fill="white"/>
<path d="M108.38 84.0001C104.471 84.0001 101.559 81.2163 101.559 77.4002C101.559 73.584 104.471 70.8003 108.398 70.8003C110.389 70.8003 112.122 71.4824 113.302 72.8098L112.104 73.9712C111.108 72.9204 109.891 72.441 108.472 72.441C105.559 72.441 103.402 74.5427 103.402 77.4002C103.402 80.2577 105.559 82.3593 108.472 82.3593C109.891 82.3593 111.108 81.8615 112.104 80.8107L113.302 81.9722C112.122 83.2995 110.389 84.0001 108.38 84.0001Z" fill="white"/>
<path d="M97.3413 77.1604C98.7977 77.5659 99.7563 78.6536 99.7563 80.3681C99.7563 82.5804 98.0787 83.8524 94.8156 83.8524H88.6582V70.9476H94.4469C97.415 70.9476 99.0742 72.2012 99.0742 74.2844C99.0742 75.6855 98.3552 76.6626 97.3413 77.1604ZM94.281 72.4409H90.5017V76.5704H94.281C96.1614 76.5704 97.2307 75.8699 97.2307 74.5057C97.2307 73.1414 96.1614 72.4409 94.281 72.4409ZM94.7419 82.3592C96.7882 82.3592 97.8943 81.7139 97.8943 80.2206C97.8943 78.7274 96.7882 78.0637 94.7419 78.0637H90.5017V82.3592H94.7419Z" fill="white"/>
<path d="M84.7971 83.8524L83.3775 80.6262H76.5195L75.1 83.8524H73.2012L79.0452 70.9476H80.8703L86.7328 83.8524H84.7971ZM77.1648 79.1514H82.7323L79.9485 72.828L77.1648 79.1514Z" fill="white"/>
</svg>
