<svg width="173" height="129" viewBox="0 0 173 129" fill="none" xmlns="http://www.w3.org/2000/svg">
<path d="M14.3965 75.0852C14.3991 74.0829 14.5989 73.091 14.9843 72.1665C15.3697 71.242 15.9332 70.4031 16.6424 69.6979C17.3516 68.9927 18.1926 68.4352 19.1169 68.0573C20.0413 67.6795 21.0309 67.4888 22.0289 67.4961H60.7852V65.2012H17.4586C16.4606 65.1938 15.471 65.3846 14.5466 65.7624C13.6223 66.1403 12.7813 66.6978 12.0721 67.403C11.3629 68.1081 10.7994 68.9471 10.414 69.8716C10.0286 70.7961 9.82879 71.788 9.82617 72.7903V84.4785H14.3965V75.0852Z" fill="#D4E1F4"/>
<path d="M68.5547 67.4961H107.174V65.2012H63.9844V83.79H68.5547V67.4961Z" fill="#D4E1F4"/>
<path d="M70.1543 43.8584H66.9551V63.5947H70.1543V43.8584Z" fill="black"/>
<path d="M76.0957 43.8584H72.8965V63.5947H76.0957V43.8584Z" fill="black"/>
<path d="M88.4355 43.8584H85.2363V63.5947H88.4355V43.8584Z" fill="black"/>
<path d="M82.2656 43.8584H79.0664V63.5947H82.2656V43.8584Z" fill="black"/>
<path d="M94.377 43.8584H91.1777V63.5947H94.377V43.8584Z" fill="black"/>
<path d="M100.547 47.0713H97.3477V63.5947H100.547V47.0713Z" fill="black"/>
<path d="M70.1543 43.8584H66.9551V63.5947H70.1543V43.8584Z" fill="black"/>
<path d="M76.0957 43.8584H72.8965V63.5947H76.0957V43.8584Z" fill="black"/>
<path d="M88.4355 43.8584H85.2363V63.5947H88.4355V43.8584Z" fill="black"/>
<path d="M82.2656 43.8584H79.0664V63.5947H82.2656V43.8584Z" fill="black"/>
<path d="M94.377 43.8584H91.1777V63.5947H94.377V43.8584Z" fill="black"/>
<path d="M100.547 47.0713H97.3477V63.5947H100.547V47.0713Z" fill="black"/>
<path d="M110.038 62.724C110.001 62.577 109.945 62.436 109.869 62.3052L101.81 48.3592C101.806 48.3525 101.802 48.2961 101.798 48.2904C100.713 46.4665 99.1796 44.9532 97.3448 43.8958C95.51 42.8384 93.4354 42.2724 91.3201 42.252H63.3692C55.0876 42.252 46.1204 46.5682 38.7581 53.9439L29.5148 61.9883H17.4586C16.0406 61.9814 14.6352 62.2556 13.3229 62.7951C12.0106 63.3346 10.8172 64.1288 9.811 65.1322C8.80482 66.1356 8.00565 67.3286 7.45928 68.6427C6.91291 69.9568 6.63006 71.3662 6.62695 72.7902V86.127C6.62778 86.3357 6.67003 86.5422 6.75124 86.7344C6.83244 86.9266 6.95097 87.1006 7.09989 87.2463C7.24882 87.3919 7.42516 87.5063 7.61861 87.5827C7.81206 87.6592 8.01873 87.6961 8.22656 87.6914H20.1094V84.4785H9.82617V72.7902C9.82879 71.788 10.0286 70.7961 10.414 69.8716C10.7994 68.9471 11.3629 68.1081 12.0721 67.4029C12.7813 66.6978 13.6223 66.1402 14.5466 65.7624C15.471 65.3846 16.4606 65.1938 17.4586 65.2012H60.7852V83.79H40.2188V87.0029H74.7246V83.79H63.9844V65.2012H107.174V79.6491C107.182 80.3106 107.059 80.9672 106.813 81.5808C106.566 82.1943 106.201 82.7526 105.738 83.2232C105.275 83.6938 104.724 84.0674 104.116 84.3223C103.508 84.5772 102.856 84.7083 102.197 84.708H94.1484V87.9209H102.197C103.277 87.9258 104.347 87.7147 105.345 87.3C106.344 86.8853 107.25 86.2752 108.011 85.5053C108.772 84.7354 109.372 83.8211 109.778 82.8157C110.184 81.8103 110.386 80.7338 110.373 79.6491V64.2756C110.373 64.145 110.357 64.0148 110.326 63.888L110.038 62.724ZM34.4307 61.9883L40.886 56.3933C40.9171 56.3664 40.9678 56.3194 40.9968 56.2902C46.984 50.2775 53.9308 46.5139 60.7863 45.7233V53.4207C60.7773 55.6843 59.8802 57.8532 58.2895 59.457C56.6988 61.0608 54.5427 61.9703 52.2887 61.9883H34.4307ZM63.9844 53.4207V45.4648H91.3201C94.5031 45.4648 97.3913 47.2042 99.0487 49.9709L105.943 61.9883H60.2968C62.5397 59.6934 63.9844 56.7614 63.9844 53.4207Z" fill="#0635C9"/>
<path d="M30.233 75.3752C27.9905 75.3752 25.7983 76.043 23.9337 77.2942C22.0691 78.5453 20.6158 80.3237 19.7577 82.4043C18.8995 84.485 18.6749 86.7745 19.1124 88.9833C19.5499 91.1922 20.6297 93.2211 22.2154 94.8136C23.8011 96.4061 25.8214 97.4905 28.0209 97.9299C30.2203 98.3692 32.5001 98.1437 34.5719 97.2819C36.6437 96.42 38.4145 94.9605 39.6603 93.0879C40.9062 91.2154 41.5711 89.0138 41.5711 86.7617C41.5677 83.7429 40.372 80.8487 38.2465 78.714C36.1209 76.5794 33.239 75.3786 30.233 75.3752ZM30.233 94.9356C28.6233 94.9356 27.0496 94.4562 25.7112 93.5581C24.3727 92.66 23.3294 91.3834 22.7134 89.8899C22.0973 88.3963 21.9361 86.7528 22.2501 85.1672C22.5641 83.5816 23.3393 82.1252 24.4775 80.982C25.6158 79.8389 27.066 79.0604 28.6449 78.745C30.2237 78.4296 31.8602 78.5914 33.3474 79.2101C34.8346 79.8287 36.1058 80.8764 37.0001 82.2206C37.8945 83.5648 38.3718 85.1451 38.3718 86.7617C38.3695 88.9288 37.5112 91.0064 35.9854 92.5388C34.4596 94.0712 32.3909 94.9331 30.233 94.9356Z" fill="black"/>
<path d="M84.8695 75.3752C82.627 75.3752 80.4349 76.0431 78.5703 77.2943C76.7057 78.5455 75.2525 80.3238 74.3943 82.4045C73.5361 84.4852 73.3116 86.7747 73.7491 88.9835C74.1866 91.1923 75.2665 93.2212 76.8522 94.8137C78.4379 96.4061 80.4582 97.4906 82.6577 97.9299C84.8571 98.3692 87.1368 98.1437 89.2086 97.2818C91.2804 96.42 93.0512 94.9605 94.297 93.0879C95.5429 91.2153 96.2078 89.0138 96.2078 86.7617C96.2043 83.7429 95.0087 80.8486 92.8831 78.714C90.7575 76.5794 87.8755 75.3786 84.8695 75.3752ZM84.8695 94.9356C83.2598 94.9356 81.6862 94.4562 80.3477 93.558C79.0092 92.6599 77.966 91.3833 77.35 89.8897C76.734 88.3961 76.5728 86.7527 76.8869 85.1671C77.2009 83.5815 77.9761 82.1251 79.1143 80.982C80.2526 79.8388 81.7028 79.0603 83.2817 78.745C84.8605 78.4296 86.497 78.5914 87.9842 79.2101C89.4714 79.8288 90.7426 80.8764 91.6369 82.2206C92.5312 83.5648 93.0086 85.1451 93.0086 86.7617C93.0062 88.9288 92.1479 91.0065 90.6221 92.5389C89.0962 94.0713 87.0274 94.9332 84.8695 94.9356Z" fill="black"/>
<g clip-path="url(#clip0_1066_221)">
<path d="M124.396 75.0852C124.399 74.0829 124.599 73.091 124.984 72.1665C125.37 71.242 125.933 70.4031 126.642 69.6979C127.352 68.9927 128.193 68.4352 129.117 68.0573C130.041 67.6795 131.031 67.4888 132.029 67.4961H170.785V65.2012H127.459C126.461 65.1938 125.471 65.3846 124.547 65.7624C123.622 66.1403 122.781 66.6978 122.072 67.403C121.363 68.1081 120.799 68.9471 120.414 69.8716C120.029 70.7961 119.829 71.788 119.826 72.7903V84.4785H124.396V75.0852Z" fill="#D4E1F4"/>
<path d="M220.038 62.724C220.001 62.577 219.945 62.436 219.869 62.3052L211.81 48.3592C211.806 48.3525 211.802 48.2961 211.798 48.2904C210.713 46.4665 209.18 44.9532 207.345 43.8958C205.51 42.8384 203.435 42.2724 201.32 42.252H173.369C165.088 42.252 156.12 46.5682 148.758 53.9439L139.515 61.9883H127.459C126.041 61.9814 124.635 62.2556 123.323 62.7951C122.011 63.3346 120.817 64.1288 119.811 65.1322C118.805 66.1356 118.006 67.3286 117.459 68.6427C116.913 69.9568 116.63 71.3662 116.627 72.7902V86.127C116.628 86.3357 116.67 86.5422 116.751 86.7344C116.832 86.9266 116.951 87.1006 117.1 87.2463C117.249 87.3919 117.425 87.5063 117.619 87.5827C117.812 87.6592 118.019 87.6961 118.227 87.6914H130.109V84.4785H119.826V72.7902C119.829 71.788 120.029 70.7961 120.414 69.8716C120.799 68.9471 121.363 68.1081 122.072 67.4029C122.781 66.6978 123.622 66.1402 124.547 65.7624C125.471 65.3846 126.461 65.1938 127.459 65.2012H170.785V83.79H150.219V87.0029H184.725V83.79H173.984V65.2012H217.174V79.6491C217.182 80.3106 217.059 80.9672 216.813 81.5808C216.566 82.1943 216.201 82.7526 215.738 83.2232C215.275 83.6938 214.724 84.0674 214.116 84.3223C213.508 84.5772 212.856 84.7083 212.197 84.708H204.148V87.9209H212.197C213.277 87.9258 214.347 87.7147 215.345 87.3C216.344 86.8853 217.25 86.2752 218.011 85.5053C218.772 84.7354 219.372 83.8211 219.778 82.8157C220.184 81.8103 220.386 80.7338 220.373 79.6491V64.2756C220.373 64.145 220.357 64.0148 220.326 63.888L220.038 62.724ZM144.431 61.9883L150.886 56.3933C150.917 56.3664 150.968 56.3194 150.997 56.2902C156.984 50.2775 163.931 46.5139 170.786 45.7233V53.4207C170.777 55.6843 169.88 57.8532 168.289 59.457C166.699 61.0608 164.543 61.9703 162.289 61.9883H144.431ZM173.984 53.4207V45.4648H201.32C204.503 45.4648 207.391 47.2042 209.049 49.9709L215.943 61.9883H170.297C172.54 59.6934 173.984 56.7614 173.984 53.4207Z" fill="#0635C9"/>
<path d="M140.233 75.3752C137.991 75.3752 135.798 76.043 133.934 77.2942C132.069 78.5453 130.616 80.3237 129.758 82.4043C128.899 84.485 128.675 86.7745 129.112 88.9833C129.55 91.1922 130.63 93.2211 132.215 94.8136C133.801 96.4061 135.821 97.4905 138.021 97.9299C140.22 98.3692 142.5 98.1437 144.572 97.2819C146.644 96.42 148.414 94.9605 149.66 93.0879C150.906 91.2154 151.571 89.0138 151.571 86.7617C151.568 83.7429 150.372 80.8487 148.246 78.714C146.121 76.5794 143.239 75.3786 140.233 75.3752ZM140.233 94.9356C138.623 94.9356 137.05 94.4562 135.711 93.5581C134.373 92.66 133.329 91.3834 132.713 89.8899C132.097 88.3963 131.936 86.7528 132.25 85.1672C132.564 83.5816 133.339 82.1252 134.478 80.982C135.616 79.8389 137.066 79.0604 138.645 78.745C140.224 78.4296 141.86 78.5914 143.347 79.2101C144.835 79.8287 146.106 80.8764 147 82.2206C147.894 83.5648 148.372 85.1451 148.372 86.7617C148.369 88.9288 147.511 91.0064 145.985 92.5388C144.46 94.0712 142.391 94.9331 140.233 94.9356Z" fill="black"/>
</g>
<path d="M81.3827 36.5L81.3827 23.3263L126.191 2L171 23.3263V101H55" stroke="black" stroke-width="3"/>
<defs>
<clipPath id="clip0_1066_221">
<rect width="61" height="105" fill="white" transform="translate(110 24)"/>
</clipPath>
</defs>
</svg>
