<svg width="114" height="114" viewBox="0 0 114 114" fill="none" xmlns="http://www.w3.org/2000/svg">
<path d="M41.9155 97.454H38.1303V106.119C38.1303 106.296 38.06 106.466 37.9347 106.592C37.8094 106.717 37.6395 106.787 37.4624 106.787H7.68164V108.346C7.68164 108.523 7.75202 108.693 7.87728 108.818C8.00255 108.943 8.17245 109.014 8.34961 109.014H41.9155C42.0926 109.014 42.2625 108.943 42.3878 108.818C42.5131 108.693 42.5835 108.523 42.5835 108.346V98.1219C42.5835 97.9448 42.5131 97.7749 42.3878 97.6496C42.2625 97.5244 42.0926 97.454 41.9155 97.454Z" fill="#D4E1F4"/>
<path d="M43.2783 76.4521V81.4641C43.2763 82.9262 42.6946 84.3278 41.6607 85.3616C40.6268 86.3954 39.2251 86.9769 37.7631 86.9787C37.3497 86.9787 36.9533 87.1429 36.661 87.4352C36.3687 87.7275 36.2045 88.1239 36.2045 88.5373V92.1102H13.5176V94.3368H37.9857V90.7638C37.9857 90.3505 38.1499 89.954 38.4422 89.6617C38.7345 89.3694 39.1309 89.2052 39.5443 89.2052C41.0063 89.2033 42.4078 88.6217 43.4415 87.5879C44.4753 86.5542 45.0569 85.1526 45.0588 83.6907V76.4521H43.2783Z" fill="#D4E1F4"/>
<path d="M39.5215 52.0321V9.04122C39.5224 8.20226 39.8561 7.39794 40.4494 6.8047C41.0426 6.21147 41.8469 5.87777 42.6859 5.87683H40.4593C39.6204 5.87777 38.816 6.21147 38.2228 6.8047C37.6296 7.39794 37.2959 8.20226 37.2949 9.04122V52.6391L37.85 52.1993C38.0836 52.0148 38.3651 51.9009 38.6613 51.8713C38.9575 51.8417 39.256 51.8975 39.5215 52.0321Z" fill="#D4E1F4"/>
<path d="M39.5224 70.1703V67.1514L43.3977 63.2771C44.683 61.9889 45.4048 60.2435 45.4048 58.4238C45.4048 56.604 44.683 54.8586 43.3977 53.5704L42.1473 52.32C41.8769 52.0494 41.5166 51.8877 41.1347 51.8656C40.7529 51.8436 40.3763 51.9626 40.0766 52.2002L39.9223 52.3227L41.1691 53.5695C42.4548 54.8578 43.1768 56.6034 43.1768 58.4234C43.1768 60.2435 42.4548 61.9891 41.1691 63.2774L37.2949 67.1516V70.1706C37.2958 71.0096 37.6295 71.8139 38.2227 72.4072C38.816 73.0005 39.6203 73.3342 40.4593 73.3352H42.6859C41.847 73.334 41.0428 73.0001 40.4498 72.4068C39.8567 71.8135 39.5232 71.0092 39.5224 70.1703Z" fill="#D4E1F4"/>
<path d="M13.2724 61.4493C13.269 60.0052 13.8246 58.6158 14.8228 57.5722L36.8312 40.0146L34.8872 37.5779L12.7997 55.1978C12.7505 55.2369 12.7038 55.2791 12.6599 55.324C11.0495 56.9554 10.1489 59.157 10.1543 61.4493V96.0441H13.2715L13.2724 61.4493Z" fill="black"/>
<path d="M41.2852 92.2528C43.299 91.885 45.1203 90.8232 46.4325 89.2519C47.7447 87.6806 48.4649 85.6992 48.4678 83.652V74.7789H45.3506V83.652C45.3489 85.1431 44.7558 86.5725 43.7015 87.6269C42.6471 88.6812 41.2176 89.2742 39.7266 89.2759C39.3132 89.2759 38.9168 89.4401 38.6245 89.7324C38.3322 90.0246 38.168 90.4211 38.168 90.8345V96.0446H41.2852V92.2528Z" fill="black"/>
<path d="M45.9543 108.721V98.2706C45.9531 97.2671 45.554 96.305 44.8444 95.5954C44.1348 94.8857 43.1726 94.4866 42.1691 94.4855H8.01563C7.01208 94.4866 6.04996 94.8857 5.34035 95.5954C4.63074 96.305 4.23159 97.2671 4.23047 98.2706V108.721C4.23159 109.725 4.63074 110.687 5.34035 111.397C6.04996 112.106 7.01208 112.505 8.01563 112.507H42.1691C43.1726 112.505 44.1348 112.106 44.8444 111.397C45.554 110.687 45.9531 109.725 45.9543 108.721ZM7.34766 108.721V98.2706C7.34766 98.0935 7.41803 97.9236 7.5433 97.7983C7.66857 97.673 7.83847 97.6027 8.01563 97.6027H42.1691C42.3462 97.6027 42.5161 97.673 42.6414 97.7983C42.7667 97.9236 42.8371 98.0935 42.8371 98.2706V108.721C42.8371 108.899 42.7667 109.069 42.6414 109.194C42.5161 109.319 42.3462 109.389 42.1691 109.389H8.01563C7.83847 109.389 7.66857 109.319 7.5433 109.194C7.41803 109.069 7.34766 108.899 7.34766 108.721Z" fill="#195DFF"/>
<path d="M13.6008 99.3339C12.7385 99.3162 11.8905 99.5558 11.1648 100.022C10.4392 100.488 9.86887 101.16 9.52655 101.952C9.18423 102.743 9.08544 103.619 9.24278 104.467C9.40011 105.315 9.80645 106.097 10.41 106.713C11.0135 107.329 11.7868 107.752 12.6314 107.926C13.476 108.101 14.3535 108.021 15.152 107.695C15.9506 107.369 16.634 106.813 17.1152 106.097C17.5963 105.381 17.8533 104.538 17.8535 103.676C17.864 102.536 17.4221 101.439 16.6249 100.626C15.8276 99.8116 14.7401 99.3471 13.6008 99.3339ZM13.6008 104.9C13.3546 104.919 13.1086 104.863 12.8947 104.74C12.6808 104.616 12.5091 104.431 12.4019 104.209C12.2947 103.987 12.2569 103.737 12.2936 103.493C12.3303 103.249 12.4397 103.022 12.6076 102.841C12.7754 102.66 12.9939 102.533 13.2346 102.478C13.4753 102.423 13.7269 102.442 13.9567 102.532C14.1865 102.622 14.3838 102.78 14.5229 102.984C14.662 103.188 14.7363 103.429 14.7363 103.676C14.7474 103.989 14.6342 104.293 14.4214 104.523C14.2086 104.752 13.9135 104.888 13.6008 104.9Z" fill="#195DFF"/>
<path d="M92.4528 51.9199C91.5986 51.9206 90.7456 51.9839 89.9007 52.1094V22.2358C89.9007 22.0312 89.8604 21.8285 89.7821 21.6394C89.7037 21.4503 89.5889 21.2784 89.4442 21.1337L70.2602 1.94985C70.1154 1.80513 69.9436 1.69033 69.7545 1.61201C69.5654 1.5337 69.3627 1.49339 69.158 1.49341H40.6571C38.9724 1.49529 37.3572 2.16541 36.1659 3.35673C34.9746 4.54805 34.3046 6.16327 34.3027 7.84802V55.5991H37.4199V7.84802C37.4208 6.98971 37.7621 6.16681 38.369 5.55987C38.9759 4.95293 39.7988 4.61154 40.6571 4.6106H67.5985V17.4398C67.6004 19.1246 68.2705 20.7398 69.4618 21.9311C70.6531 23.1224 72.2684 23.7925 73.9531 23.7944H86.7826V52.8733C82.7382 54.2716 79.3555 57.1191 77.2881 60.8658C75.2206 64.6125 74.6151 68.9925 75.5885 73.1596H40.6571C39.7988 73.1586 38.9759 72.8172 38.369 72.2103C37.7621 71.6033 37.4208 70.7804 37.4199 69.9221V65.7807H34.3027V69.9221C34.3046 71.6069 34.9746 73.2221 36.1659 74.4134C37.3572 75.6047 38.9724 76.2749 40.6571 76.2767H76.6384C77.9058 79.1237 79.9181 81.5758 82.463 83.3744C85.0079 85.173 87.9911 86.2514 91.0978 86.4958C94.2045 86.7403 97.3196 86.1418 100.115 84.7634C102.909 83.385 105.28 81.2778 106.978 78.6642C108.675 76.0505 109.635 73.0273 109.757 69.9134C109.879 66.7994 109.159 63.7103 107.672 60.9717C106.184 58.2332 103.986 55.9468 101.307 54.3537C98.6289 52.7606 95.5702 51.92 92.4539 51.9204L92.4528 51.9199ZM73.954 20.6772C73.0957 20.6763 72.2728 20.3349 71.6659 19.728C71.0589 19.1211 70.7175 18.2982 70.7166 17.4398V6.81467L84.5792 20.6772H73.954ZM92.4528 83.4362C89.6443 83.4362 86.8989 82.6034 84.5638 81.0432C82.2287 79.4829 80.4087 77.2652 79.3339 74.6705C78.2592 72.0758 77.978 69.2207 78.5259 66.4663C79.0738 63.7118 80.4263 61.1817 82.4121 59.1958C84.398 57.21 86.9282 55.8576 89.6827 55.3097C92.4371 54.7618 95.2922 55.0431 97.8869 56.1178C100.482 57.1926 102.699 59.0127 104.259 61.3478C105.82 63.683 106.652 66.4284 106.652 69.2368C106.648 73.0014 105.151 76.6107 102.489 79.2727C99.8266 81.9346 96.2174 83.432 92.4528 83.4362Z" fill="#195DFF"/>
<path d="M65.2497 41.9485H54.4297C54.0163 41.9485 53.6199 42.1127 53.3276 42.405C53.0353 42.6973 52.8711 43.0937 52.8711 43.5071C52.8711 43.9204 53.0353 44.3169 53.3276 44.6092C53.6199 44.9015 54.0163 45.0657 54.4297 45.0657H65.2508C65.6642 45.0657 66.0606 44.9015 66.3529 44.6092C66.6452 44.3169 66.8094 43.9204 66.8094 43.5071C66.8094 43.0937 66.6452 42.6973 66.3529 42.405C66.0606 42.1127 65.6642 41.9485 65.2508 41.9485H65.2497Z" fill="#195DFF"/>
<path d="M20.5169 67.5401C20.7735 67.8641 21.1484 68.073 21.5589 68.1207C21.9695 68.1683 22.3822 68.051 22.7063 67.7944L38.8682 54.9974L39.1564 55.2858C39.8733 56.0042 40.2759 56.9778 40.2759 57.9927C40.2759 59.0077 39.8733 59.9812 39.1564 60.6997L31.5384 68.3178C31.2682 68.5882 31.1067 68.9483 31.0844 69.3298L30.9882 70.9911C30.9864 71.0207 30.9855 71.0508 30.9855 71.0812C30.9932 72.369 31.2866 73.639 31.8445 74.7996C32.4365 76.0707 32.6925 77.4725 32.5879 78.8708C32.4834 80.2692 32.0218 81.6173 31.2474 82.7863C31.0767 83.0423 30.9856 83.3431 30.9855 83.6508V87.2421C30.9855 87.6554 31.1497 88.0519 31.442 88.3442C31.7343 88.6365 32.1308 88.8007 32.5441 88.8007C32.9575 88.8007 33.3539 88.6365 33.6462 88.3442C33.9385 88.0519 34.1027 87.6554 34.1027 87.2421V84.1026C35.0596 82.5124 35.6114 80.7115 35.7096 78.8581C35.8078 77.0048 35.4494 75.1557 34.6658 73.4732C34.3101 72.7397 34.118 71.9377 34.1029 71.1227L34.1622 70.1018L41.3609 62.9031C42.6614 61.5995 43.3918 59.8332 43.3918 57.9918C43.3918 56.1504 42.6614 54.3842 41.3609 53.0806L40.0917 51.8115C39.8214 51.5409 39.4611 51.3791 39.0792 51.357C38.6974 51.3349 38.3208 51.4539 38.021 51.6914L20.7712 65.3496C20.6106 65.4767 20.4766 65.6342 20.3769 65.8131C20.2772 65.992 20.2137 66.1887 20.1901 66.3922C20.1665 66.5956 20.1832 66.8017 20.2393 66.9987C20.2953 67.1956 20.3897 67.3796 20.5169 67.5401Z" fill="black"/>
<path d="M72.3222 54.4247H75.0569C75.709 54.424 76.3341 54.1647 76.7952 53.7036C77.2563 53.2425 77.5156 52.6174 77.5163 51.9653V49.9482C78.091 49.6924 78.5825 49.2805 78.9347 48.7593C79.2869 48.2381 79.4859 47.6285 79.5089 46.9998L80.6019 38.7304C80.6108 38.6627 80.6153 38.5945 80.6153 38.5262C80.6153 36.0843 78.9995 34.0392 76.8524 33.5485L73.7034 27.743C72.5611 25.6945 70.8716 23.3446 67.9221 23.3446H51.9084C49.5302 23.3446 47.4537 24.9146 46.057 27.7666L42.8078 33.5244C40.644 33.9978 39.0625 36.0251 39.0625 38.5258C39.0625 38.5912 39.0667 38.6566 39.075 38.7215L40.1215 46.9943C40.1438 47.6327 40.3475 48.2516 40.7086 48.7786C41.0697 49.3055 41.5734 49.7188 42.1608 49.9701V51.9648C42.1615 52.6169 42.4208 53.2421 42.8819 53.7032C43.343 54.1642 43.9681 54.4236 44.6202 54.4243H47.3558C48.0079 54.4236 48.633 54.1642 49.0941 53.7032C49.5552 53.2421 49.8145 52.6169 49.8152 51.9648V50.2415H69.8621V51.9648C69.8627 52.6171 70.1222 53.2424 70.5834 53.7036C71.0446 54.1648 71.67 54.4242 72.3222 54.4247ZM74.4001 51.3076H72.9799V50.2419H74.4001V51.3076ZM48.7946 29.2579C48.8106 29.2296 48.8255 29.2009 48.8391 29.172C49.329 28.16 50.381 26.4622 51.9075 26.4622H67.9212C68.9708 26.4622 69.8855 27.2994 70.9716 29.2454L73.244 33.4343H46.438L48.7946 29.2579ZM46.6983 51.3076H45.2782V50.2419H46.6983V51.3076ZM43.48 47.1247C43.416 47.1232 43.3551 47.0971 43.3098 47.0519C43.2646 47.0067 43.2384 46.9458 43.2369 46.8818C43.2369 46.8164 43.2328 46.751 43.2246 46.6861L42.1808 38.4407C42.2146 37.5501 42.7715 36.6232 43.661 36.5448C43.6969 36.5472 43.732 36.5519 43.7683 36.5519H75.8397C75.8455 36.5519 75.8511 36.5519 75.8569 36.5519C76.8392 36.5519 77.46 37.5133 77.497 38.4367L76.4075 46.6768C76.3985 46.7444 76.394 46.8126 76.3939 46.8809C76.3924 46.9449 76.3663 47.0058 76.3211 47.051C76.2759 47.0962 76.215 47.1223 76.151 47.1238L43.48 47.1247Z" fill="#195DFF"/>
<path d="M91.3672 58.6765V69.9927L97.2348 75.8603" stroke="#195DFF" stroke-width="2" stroke-linecap="round"/>
</svg>
