<svg width="143" height="97" viewBox="0 0 143 97" fill="none" xmlns="http://www.w3.org/2000/svg">
<path d="M107.952 57.3839C93.4495 57.3839 83.1016 46.8792 83.1016 28.692C83.1016 10.5047 93.4495 0 107.952 0C122.455 0 132.803 10.5047 132.803 28.692C132.803 46.8792 122.455 57.3839 107.952 57.3839ZM107.952 42.5676C111.558 42.5676 114.224 39.2751 114.224 28.692C114.224 18.1089 111.558 14.8163 107.952 14.8163C104.346 14.8163 101.681 18.1089 101.681 28.692C101.681 39.2751 104.346 42.5676 107.952 42.5676Z" fill="black"/>
<path d="M60.6002 41.7836H79.101V56.1296H35.1223V44.7626L54.9558 26.4185C58.7187 22.8908 59.2675 20.7742 59.2675 18.8928C59.2675 16.2274 57.4644 14.5812 53.9367 14.5812C50.6442 14.5812 47.5085 16.3842 45.8622 19.6767L31.9082 12.6997C35.9063 5.17396 43.824 0 55.6614 0C68.6747 0 77.8467 6.74182 77.8467 17.1681C77.8467 22.5773 76.4356 27.4377 68.4395 34.6498L60.6002 41.7836Z" fill="black"/>
<path d="M0 1.25439H27.908V56.1297H9.4072V15.2084H0V1.25439Z" fill="black"/>
<path d="M68.8342 47.8117C68.8472 47.7879 68.8594 47.7637 68.8708 47.7393C69.995 45.3388 72.4709 41.3078 76.4229 41.2783L111.552 41.0152H111.596C112.513 41.0116 113.416 41.2422 114.222 41.6858C112.179 38.6252 110.225 37.2791 107.918 37.2791H107.874L72.746 37.5422C68.794 37.5717 66.3181 41.6023 65.1939 44.0032C65.1826 44.0276 65.1703 44.0518 65.1573 44.0756L59.1348 55.1092L64.8743 55.0672L68.8342 47.8117Z" fill="#D4E1F4"/>
<path d="M58.6534 82.1463C58.2255 81.7047 57.9845 81.1106 57.982 80.4909C57.9816 80.4342 57.9778 80.3776 57.9706 80.3213L55.7897 63.251C55.7978 60.4487 57.2344 58.4995 58.978 57.7257L56.9491 57.7409H56.9398C56.8695 57.7402 56.7993 57.7337 56.7301 57.7213C54.4171 57.8782 52.1228 59.9903 52.1133 63.4222L54.2941 79.9498C54.3014 80.0042 54.3052 80.059 54.3055 80.1139C54.3127 80.7142 54.5517 81.2877 54.9709 81.7107C55.3902 82.1336 55.9562 82.3724 56.5471 82.3754H56.564L58.8915 82.3579C58.8074 82.293 58.7279 82.2223 58.6534 82.1463Z" fill="#D4E1F4"/>
<path d="M61.915 64.432H61.8773C60.5381 64.4368 59.2556 64.982 58.312 65.9477C57.3684 66.9133 56.841 68.2202 56.8457 69.581C56.8505 70.9418 57.387 72.2449 58.3374 73.2037C59.2877 74.1625 60.5739 74.6985 61.9131 74.6937H61.9516C63.2903 74.6821 64.5699 74.1315 65.5095 73.1626C66.4492 72.1937 66.9722 70.8857 66.9639 69.5254C66.9526 68.1717 66.4159 66.8772 65.4705 65.9235C64.525 64.9697 63.2473 64.4337 61.915 64.432ZM61.9303 71.7483C61.6467 71.7523 61.3651 71.6993 61.1017 71.5922C60.8384 71.4852 60.5984 71.3263 60.3957 71.1247C60.193 70.923 60.0316 70.6826 59.9207 70.4174C59.8098 70.1521 59.7516 69.8671 59.7495 69.5789C59.7475 69.2907 59.8015 69.0049 59.9085 68.738C60.0156 68.4711 60.1735 68.2283 60.3733 68.0237C60.573 67.819 60.8106 67.6566 61.0724 67.5456C61.3342 67.4346 61.615 67.3774 61.8986 67.3771H61.9148C62.4819 67.3803 63.0248 67.6109 63.4254 68.0187C63.826 68.4266 64.0519 68.9787 64.054 69.5549C64.056 70.1311 63.834 70.6849 63.4363 71.0956C63.0386 71.5064 62.4974 71.741 61.9303 71.7483Z" fill="#0635C9"/>
<path d="M118.294 64.0098H118.256C117.593 64.0122 116.937 64.1473 116.325 64.4073C115.713 64.6674 115.158 65.0473 114.691 65.5255C114.224 66.0036 113.854 66.5706 113.602 67.194C113.351 67.8174 113.222 68.4851 113.225 69.1589C113.227 69.8327 113.36 70.4994 113.616 71.121C113.872 71.7426 114.246 72.3068 114.716 72.7816C115.187 73.2563 115.745 73.6322 116.358 73.8879C116.972 74.1435 117.629 74.2738 118.292 74.2714H118.331C119.665 74.2593 120.941 73.7109 121.879 72.746C122.816 71.7811 123.34 70.4782 123.335 69.1221C123.33 67.766 122.797 66.467 121.853 65.5091C120.908 64.5511 119.628 64.0122 118.294 64.01V64.0098ZM120.444 69.1244C120.449 69.704 120.226 70.2616 119.826 70.6745C119.425 71.0874 118.88 71.3218 118.309 71.3261H118.293C117.722 71.3282 117.175 71.0999 116.77 70.6915C116.365 70.2831 116.136 69.7279 116.134 69.1483C116.132 68.5686 116.357 68.0118 116.759 67.6004C117.161 67.1891 117.707 66.9568 118.277 66.9547H118.294C118.861 66.9553 119.405 67.1835 119.808 67.5897C120.211 67.996 120.44 68.5473 120.444 69.124V69.1244Z" fill="#0635C9"/>
<path d="M105.965 46.9416C103.672 46.9614 101.48 47.9048 99.8704 49.5648C98.2607 51.2247 97.3647 53.4657 97.3791 55.7961C97.3819 56.1847 97.5359 56.5565 97.8073 56.8303C98.0788 57.1041 98.4458 57.2577 98.8283 57.2577H98.8391C99.0294 57.2563 99.2176 57.2168 99.3929 57.1415C99.5682 57.0662 99.7272 56.9565 99.8608 56.8187C99.9944 56.681 100.1 56.5178 100.172 56.3386C100.243 56.1594 100.279 55.9676 100.278 55.7742C100.266 54.2241 100.862 52.733 101.932 51.6289C103.003 50.5248 104.462 49.8981 105.987 49.8867C107.513 49.8753 108.98 50.4801 110.067 51.5681C111.153 52.6561 111.77 54.1381 111.781 55.6882C111.784 56.0787 111.939 56.4521 112.213 56.7263C112.487 57.0005 112.857 57.153 113.241 57.1502C113.625 57.1474 113.993 56.9896 114.263 56.7115C114.533 56.4333 114.683 56.0577 114.68 55.6671C114.66 53.3368 113.731 51.1097 112.098 49.4741C110.464 47.8384 108.259 46.9277 105.965 46.9416Z" fill="black"/>
<path d="M132.201 51.358C131.427 49.0539 129.051 47.5729 126.139 47.5729H126.074C124.4 47.5855 121.398 47.5973 119.93 47.6026L117.135 42.4568C115.122 38.853 112.194 34.7238 107.355 34.7238H107.291L72.7103 34.9842C68.7409 35.0141 65.2454 37.8159 62.8635 42.8761L60.0245 48.0776C58.5581 48.0856 55.5193 48.1024 53.8222 48.1152C50.8805 48.1373 48.4972 49.6587 47.7506 51.9916C47.4186 53.0364 47.2154 54.1189 47.1457 55.2144C47.1379 55.4126 47.1695 55.6104 47.2387 55.7958C47.308 55.9813 47.4134 56.1506 47.5486 56.2937C47.6838 56.4367 47.8461 56.5505 48.0257 56.6283C48.2053 56.706 48.3985 56.7461 48.5937 56.7461H48.6063L52.4451 56.7125C50.7458 58.2568 49.6843 60.6238 49.7036 63.3169C49.7041 63.3787 49.7084 63.4405 49.7166 63.5018L51.8635 79.7711C51.8972 80.9051 52.3079 81.9941 53.0287 82.8606C53.7496 83.727 54.738 84.3198 55.8329 84.5422L55.8696 89.5996C55.8756 90.454 56.2138 91.2714 56.8105 91.8735C57.4071 92.4756 58.2139 92.8136 59.0548 92.8138H59.079L64.3531 92.7742C65.1977 92.7669 66.0049 92.4196 66.5978 91.8083C67.1907 91.197 67.5207 90.3718 67.5155 89.5135L67.4797 84.5569L112.947 84.2165L112.983 89.1732C112.989 90.0274 113.328 90.8442 113.925 91.4459C114.521 92.0475 115.328 92.3852 116.169 92.3853H116.193L121.467 92.3457C122.312 92.3384 123.119 91.991 123.712 91.3797C124.305 90.7685 124.635 89.9432 124.63 89.085L124.593 84.0064C125.663 83.7513 126.62 83.1402 127.31 82.2699C128 81.3997 128.384 80.3202 128.402 79.2027L130.402 62.906C130.41 62.8421 130.414 62.7776 130.413 62.7131C130.411 60.5871 129.652 58.5337 128.275 56.9327C128.034 56.6563 127.774 56.3973 127.497 56.1575L131.418 56.1266C131.614 56.125 131.808 56.0831 131.988 56.0032C132.167 55.9233 132.329 55.8072 132.463 55.6618C132.598 55.5165 132.702 55.345 132.769 55.1577C132.836 54.9704 132.865 54.7712 132.854 54.5722C132.768 53.4775 132.549 52.3979 132.201 51.358ZM65.4195 44.2641C65.4344 44.2375 65.4481 44.2102 65.4609 44.1826C66.5493 41.8589 68.9409 37.9558 72.7319 37.9283L107.311 37.6693H107.353C109.998 37.6693 112.171 39.5392 114.604 43.8961L120.309 54.3938L59.6431 54.848L65.4195 44.2641ZM50.2692 53.7863C50.3313 53.5082 50.4087 53.2084 50.5071 52.9013C50.8557 51.8118 52.1964 51.0711 53.8434 51.0593C55.0398 51.0502 56.9033 51.0383 58.4119 51.0307L56.9395 53.7278L50.2692 53.7863ZM64.3318 89.8283L59.0577 89.8678H59.0554C58.9795 89.8676 58.9068 89.8371 58.853 89.7828C58.7992 89.7285 58.7687 89.6548 58.768 89.5777L58.732 84.6211L64.5813 84.5771L64.6171 89.534C64.6176 89.6114 64.5878 89.6859 64.5343 89.7411C64.4808 89.7962 64.408 89.8276 64.3318 89.8283ZM121.445 89.4006L116.171 89.4401H116.169C116.093 89.4399 116.02 89.4093 115.966 89.355C115.913 89.3007 115.882 89.2271 115.882 89.15L115.845 84.1934L121.695 84.1496L121.731 89.1065C121.731 89.184 121.701 89.2585 121.648 89.3137C121.594 89.3688 121.521 89.4001 121.445 89.4006ZM127.513 62.642L125.514 78.9244C125.507 78.9884 125.503 79.0529 125.503 79.1175C125.505 79.6622 125.294 80.1854 124.918 80.5734C124.542 80.9615 124.03 81.1829 123.494 81.1896L56.7994 81.6903C56.2632 81.6918 55.7482 81.4781 55.3665 81.0955C55.1763 80.9071 55.0247 80.6822 54.9206 80.4338C54.8165 80.1855 54.762 79.9186 54.7601 79.6487C54.7597 79.5867 54.7554 79.5249 54.7473 79.4635L52.602 63.2071C52.6192 60.6232 54.2293 57.9713 56.9497 57.7923C57.0233 57.8046 57.0978 57.811 57.1724 57.8116H57.183L122.715 57.3211C122.725 57.3211 122.734 57.3225 122.744 57.3225H122.787C123.418 57.3258 124.041 57.4671 124.614 57.7367C125.186 58.0062 125.695 58.3979 126.106 58.8849C126.991 59.9326 127.489 61.2617 127.513 62.6427V62.642ZM122.997 53.2471L121.527 50.5418C123.034 50.5357 124.901 50.5273 126.096 50.5182H126.137C127.766 50.5182 129.098 51.2354 129.459 52.3103C129.562 52.6173 129.645 52.9166 129.71 53.1939L122.997 53.2471Z" fill="#195DFF"/>
</svg>
