<svg width="124" height="124" viewBox="0 0 124 124" fill="none" xmlns="http://www.w3.org/2000/svg">
<path d="M31.6704 36.2814C31.6816 36.2613 31.692 36.2407 31.7019 36.2201C32.6661 34.1937 34.7901 30.7903 38.1804 30.7653L68.3153 30.5432H68.3534C69.1402 30.54 69.9153 30.7347 70.6072 31.1095C68.8545 28.5253 67.178 27.389 65.1991 27.389H65.1611L35.0262 27.6111C31.6356 27.6353 29.5118 31.0395 28.5477 33.0659C28.5378 33.0864 28.5273 33.107 28.5162 33.1271L23.3496 42.4424L28.2733 42.4061L31.6704 36.2814Z" fill="#D4E1F4"/>
<path d="M22.935 65.2695C22.568 64.8966 22.3613 64.3951 22.3591 63.8719C22.3589 63.824 22.3556 63.7762 22.3494 63.7288L20.4792 49.3162C20.4862 46.9502 21.7185 45.3046 23.2159 44.6514L21.4756 44.6642H21.4673C21.407 44.6636 21.3468 44.6581 21.2874 44.6478C19.3031 44.7802 17.3351 46.5632 17.3262 49.4605L19.1971 63.4141C19.2033 63.4601 19.2066 63.5063 19.207 63.5527C19.213 64.0595 19.418 64.5437 19.7777 64.9009C20.1374 65.258 20.6231 65.4595 21.13 65.4618H21.1428L23.1394 65.4473C23.0673 65.3928 22.999 65.3334 22.935 65.2695Z" fill="#D4E1F4"/>
<path d="M25.3801 50.1694H25.3442C24.062 50.1818 22.8367 50.7011 21.9361 51.6139C21.0354 52.5266 20.5325 53.7587 20.5371 55.041C20.5418 56.3233 21.0537 57.5517 21.961 58.4578C22.8683 59.364 24.0973 59.8744 25.3796 59.8775H25.4154C26.7023 59.8664 27.9322 59.3455 28.8355 58.4289C29.7388 57.5123 30.2416 56.2748 30.2337 54.9879C30.2228 53.7073 29.7068 52.4827 28.798 51.5804C27.8891 50.6781 26.6608 50.171 25.3801 50.1694ZM25.3907 56.4868H25.3798C24.9948 56.4836 24.6266 56.3287 24.3549 56.0558C24.0833 55.7829 23.9302 55.414 23.9287 55.0289C23.9272 54.6439 24.0776 54.2738 24.3471 53.9988C24.6166 53.7239 24.9837 53.5662 25.3687 53.56H25.3796C25.7646 53.5633 26.1328 53.7181 26.4045 53.991C26.6761 54.2639 26.8292 54.6329 26.8307 55.0179C26.8322 55.4029 26.6818 55.7731 26.4123 56.048C26.1427 56.323 25.7757 56.4806 25.3907 56.4868Z" fill="#0635C9"/>
<path d="M74.8455 49.8049H74.8097C73.5223 49.8094 72.2895 50.3251 71.3824 51.2386C70.4753 52.152 69.9682 53.3884 69.9727 54.6758C69.9772 55.9631 70.4929 57.1959 71.4064 58.1031C72.3198 59.0102 73.5562 59.5172 74.8436 59.5127H74.8809C76.1682 59.5081 77.4009 58.9922 78.3079 58.0786C79.2149 57.165 79.7218 55.9285 79.7171 54.6411C79.7124 53.3538 79.1965 52.1211 78.2829 51.2141C77.3693 50.3071 76.1328 49.8002 74.8455 49.8049ZM76.3083 54.6487C76.3103 54.938 76.2265 55.2215 76.0674 55.4632C75.9083 55.705 75.6811 55.8941 75.4146 56.0067C75.148 56.1193 74.854 56.1504 74.5698 56.096C74.2856 56.0415 74.0239 55.9041 73.8178 55.7009C73.6117 55.4978 73.4705 55.2381 73.412 54.9547C73.3535 54.6713 73.3803 54.3769 73.4891 54.1087C73.5978 53.8406 73.7837 53.6107 74.0231 53.4482C74.2625 53.2856 74.5447 53.1977 74.8341 53.1955H74.8453C75.2315 53.1956 75.6021 53.3485 75.8762 53.6207C76.1502 53.8929 76.3056 54.2624 76.3083 54.6487Z" fill="#0635C9"/>
<path d="M87.4462 39.1678C86.7073 37.0034 84.4661 35.6125 81.7267 35.6125H81.6666C80.2791 35.6227 77.8802 35.6323 76.5281 35.6367L74.1942 31.4088C72.3717 28.1972 69.7098 24.5172 65.2456 24.5172H65.1857L34.8472 24.7409C31.1967 24.7678 27.9974 27.2689 25.8344 31.7845L23.4699 36.047C22.1137 36.0542 19.6744 36.0678 18.2752 36.0782C15.5087 36.0988 13.262 37.5272 12.5485 39.718C12.2435 40.6566 12.0584 41.6299 11.9975 42.6149C11.9882 42.8431 12.0251 43.0709 12.1061 43.2845C12.187 43.4981 12.3103 43.6932 12.4685 43.858C12.6267 44.0228 12.8165 44.1539 13.0267 44.2434C13.2368 44.333 13.4629 44.3792 13.6914 44.3792H13.7069L16.0631 44.3588C14.8501 45.845 14.2047 47.7138 14.2421 49.6318C14.2426 49.703 14.2476 49.7741 14.2571 49.8446L16.1377 63.8704C16.1722 64.8817 16.5288 65.8555 17.1556 66.6499C17.7824 67.4443 18.6465 68.0177 19.622 68.2865L19.6518 72.3255C19.6576 73.175 19.999 73.9879 20.6016 74.5868C21.2042 75.1857 22.0192 75.5221 22.8688 75.5226H22.893L27.5203 75.4884C28.3737 75.4813 29.1895 75.1358 29.7885 74.5279C30.3876 73.92 30.721 73.0992 30.7157 72.2458L30.6874 68.3897L69.7304 68.1019L69.759 71.9578C69.7654 72.8074 70.1073 73.62 70.7101 74.2185C71.313 74.8171 72.1281 75.1532 72.9776 75.1535H73.0019L77.6276 75.1193C78.4814 75.113 79.2977 74.7678 79.897 74.1596C80.4963 73.5515 80.8295 72.7302 80.8233 71.8764L80.7935 67.8193C81.7457 67.522 82.5804 66.9332 83.18 66.136C83.7795 65.3388 84.1136 64.3734 84.135 63.3761L85.887 49.3278C85.896 49.254 85.9004 49.1798 85.9 49.1055C85.8966 47.1768 85.1942 45.3147 83.9228 43.8643L86.3609 43.8454C86.5904 43.8436 86.8171 43.7953 87.0274 43.7033C87.2376 43.6113 87.427 43.4776 87.584 43.3103C87.7411 43.1429 87.8625 42.9454 87.941 42.7298C88.0194 42.5141 88.0533 42.2848 88.0405 42.0556C87.9648 41.0718 87.7651 40.1015 87.4462 39.1678ZM28.8244 33.3851C28.8416 33.3543 28.8576 33.3228 28.8729 33.2911C29.7847 31.3742 31.7772 28.1553 34.8721 28.1325L65.2109 27.9087H65.2434C67.3921 27.9087 69.1889 29.4587 71.2356 33.0656L75.896 41.5076L71.9442 41.5366C71.5843 39.7155 70.6041 38.0754 69.1707 36.8958C67.7373 35.7162 65.9392 35.07 64.0828 35.0673H64.0233C62.1567 35.0837 60.3543 35.7502 58.9262 36.9521C57.4981 38.154 56.5336 39.8161 56.1987 41.6524L24.1088 41.889L28.8244 33.3851ZM68.4441 41.5623L59.6968 41.6267C59.9994 40.7097 60.582 39.9107 61.3626 39.3422C62.1433 38.7737 63.0825 38.4645 64.0482 38.4579H64.0828C65.0418 38.4597 65.9766 38.7594 66.7579 39.3155C67.5392 39.8716 68.1285 40.6567 68.4441 41.5623ZM15.7098 40.9728C15.7296 40.905 15.7508 40.8368 15.7732 40.7682C16.0188 40.0133 17.0568 39.4797 18.3002 39.4705C19.1648 39.464 20.4261 39.4565 21.5835 39.4497L20.763 40.9297L15.7098 40.9728ZM23.0403 72.1307L23.0132 68.4463L27.2975 68.4146L27.3246 72.0993L23.0403 72.1307ZM73.1489 71.7616L73.1217 68.077L77.406 68.0455L77.4334 71.7302L73.1489 71.7616ZM80.7579 63.0552C80.7487 63.129 80.7444 63.2033 80.7448 63.2776C80.7453 63.6356 80.6046 63.9793 80.3533 64.2343C80.102 64.4893 79.7604 64.635 79.4024 64.6399L20.8875 65.0712H20.8775C20.5207 65.0708 20.1784 64.9295 19.9252 64.678C19.6719 64.4266 19.5282 64.0854 19.5252 63.7285C19.5246 63.6574 19.5196 63.5864 19.5102 63.5159L17.632 49.5085C17.6562 46.9793 19.336 45.4223 21.0386 45.2891C21.0978 45.2962 21.1574 45.3002 21.2171 45.301H21.2297L78.7209 44.8771C78.7294 44.8771 78.7378 44.8786 78.7466 44.8786C78.7594 44.8786 78.7722 44.8786 78.7856 44.8786C81.0287 44.8786 82.4462 47.0079 82.5072 49.0282L80.7579 63.0552ZM79.2186 40.5098L78.3963 39.0208C79.555 39.0159 80.8219 39.0099 81.692 39.0034H81.7245C82.9526 39.0034 83.9834 39.5192 84.2379 40.2639C84.2617 40.3334 84.2842 40.4023 84.3055 40.4708L79.2186 40.5098Z" fill="#0635C9"/>
<path d="M59.1095 60.03H59.0969L41.2048 60.162C40.7551 60.1637 40.3246 60.3439 40.0078 60.6629C39.691 60.982 39.514 61.4139 39.5156 61.8635C39.5173 62.3131 39.6975 62.7437 40.0165 63.0605C40.3356 63.3773 40.7675 63.5543 41.2171 63.5527H41.2297L59.1218 63.4207C59.5714 63.419 60.002 63.2388 60.3188 62.9198C60.6355 62.6007 60.8126 62.1688 60.8109 61.7192C60.8093 61.2696 60.6291 60.839 60.31 60.5222C59.9909 60.2054 59.5591 60.0284 59.1095 60.03Z" fill="#0635C9"/>
<path d="M42.0428 56.8245H42.0554C42.2781 56.8229 42.4982 56.7774 42.7033 56.6907C42.9084 56.604 43.0944 56.4777 43.2507 56.3191C43.407 56.1605 43.5305 55.9727 43.6142 55.7664C43.6978 55.56 43.7401 55.3392 43.7384 55.1166L43.7168 52.2062C43.7136 51.7566 43.5319 51.3266 43.2117 51.011C42.8915 50.6953 42.459 50.5198 42.0094 50.523C41.5598 50.5262 41.1299 50.7079 40.8142 51.0281C40.4985 51.3483 40.323 51.7808 40.3262 52.2304L40.3478 55.141C40.3509 55.5885 40.5309 56.0167 40.8484 56.332C41.1659 56.6474 41.5953 56.8244 42.0428 56.8245Z" fill="#0635C9"/>
<path d="M36.6292 50.5627H36.6164C36.3937 50.5643 36.1736 50.6098 35.9685 50.6965C35.7635 50.7833 35.5775 50.9095 35.4213 51.0681C35.265 51.2267 35.1415 51.4145 35.0579 51.6209C34.9742 51.8272 34.932 52.048 34.9336 52.2706L34.9552 55.1814C34.9585 55.6289 35.1386 56.0569 35.4562 56.3721C35.7737 56.6873 36.2031 56.8642 36.6505 56.8642H36.6633C36.886 56.8625 37.1061 56.817 37.3112 56.7303C37.5162 56.6436 37.7022 56.5173 37.8584 56.3587C38.0147 56.2001 38.1382 56.0123 38.2218 55.806C38.3055 55.5997 38.3477 55.3789 38.3461 55.1563L38.3245 52.2456C38.3212 51.7982 38.1412 51.3701 37.8236 51.0549C37.506 50.7396 37.0767 50.5627 36.6292 50.5627Z" fill="#0635C9"/>
<path d="M63.5857 50.3643H63.5734C63.3508 50.366 63.1306 50.4115 62.9256 50.4982C62.7205 50.5849 62.5346 50.7112 62.3783 50.8698C62.222 51.0284 62.0986 51.2162 62.0149 51.4225C61.9312 51.6288 61.889 51.8496 61.8907 52.0722L61.9122 54.9828C61.9155 55.4303 62.0955 55.8584 62.4131 56.1736C62.7307 56.4889 63.16 56.6658 63.6075 56.6658H63.6201C63.8428 56.6642 64.0629 56.6187 64.268 56.532C64.4731 56.4453 64.6591 56.319 64.8154 56.1604C64.9717 56.0018 65.0952 55.814 65.1789 55.6077C65.2625 55.4013 65.3048 55.1805 65.3031 54.9579L65.2808 52.0461C65.2772 51.5988 65.0971 51.1711 64.7796 50.8561C64.4621 50.5411 64.033 50.3644 63.5857 50.3643Z" fill="#0635C9"/>
<path d="M47.4335 56.7848H47.4463C47.6689 56.7831 47.8891 56.7376 48.0941 56.6509C48.2992 56.5642 48.4851 56.4379 48.6414 56.2793C48.7977 56.1207 48.9211 55.9329 49.0048 55.7266C49.0885 55.5203 49.1307 55.2995 49.129 55.0768L49.1077 52.1662C49.1044 51.7188 48.9243 51.2908 48.6067 50.9756C48.2892 50.6604 47.8599 50.4835 47.4124 50.4835H47.3996C47.1769 50.4852 46.9568 50.5307 46.7517 50.6174C46.5467 50.7041 46.3607 50.8304 46.2045 50.989C46.0482 51.1476 45.9247 51.3354 45.8411 51.5417C45.7574 51.748 45.7152 51.9688 45.7168 52.1914L45.7382 55.102C45.7415 55.5495 45.9216 55.9775 46.2391 56.2927C46.5567 56.6079 46.986 56.7848 47.4335 56.7848Z" fill="#0635C9"/>
<path d="M52.8243 56.7445H52.8372C53.0598 56.7429 53.2799 56.6974 53.485 56.6107C53.69 56.524 53.876 56.3977 54.0323 56.2391C54.1885 56.0805 54.312 55.8927 54.3957 55.6864C54.4793 55.48 54.5216 55.2593 54.5199 55.0366L54.4983 52.1258C54.495 51.6783 54.3149 51.2504 53.9974 50.9351C53.6798 50.6199 53.2505 50.443 52.803 50.4431H52.7904C52.5678 50.4447 52.3476 50.4901 52.1425 50.5768C51.9375 50.6635 51.7515 50.7898 51.5952 50.9484C51.4389 51.107 51.3154 51.2948 51.2317 51.5012C51.148 51.7075 51.1058 51.9283 51.1075 52.151L51.129 55.0616C51.1323 55.509 51.3123 55.9371 51.6299 56.2524C51.9475 56.5676 52.3768 56.7445 52.8243 56.7445Z" fill="#0635C9"/>
<path d="M58.2169 56.7055H58.2297C58.4524 56.7039 58.6725 56.6584 58.8776 56.5717C59.0826 56.485 59.2686 56.3587 59.4248 56.2001C59.5811 56.0415 59.7046 55.8537 59.7883 55.6474C59.8719 55.441 59.9141 55.2203 59.9125 54.9976L59.8909 52.0868C59.8876 51.6393 59.7075 51.2114 59.3899 50.8961C59.0724 50.5809 58.6431 50.404 58.1956 50.4041H58.1828C57.9601 50.4057 57.74 50.4512 57.535 50.5379C57.3299 50.6246 57.1439 50.7509 56.9877 50.9095C56.8314 51.0681 56.7079 51.2559 56.6243 51.4622C56.5406 51.6685 56.4984 51.8893 56.5 52.112L56.5216 55.0226C56.5249 55.4701 56.7049 55.8981 57.0225 56.2134C57.3401 56.5286 57.7694 56.7055 58.2169 56.7055Z" fill="#0635C9"/>
<path d="M94.1583 84.4108C94.0008 84.2534 93.8139 84.1285 93.6082 84.0433C93.4025 83.9581 93.1821 83.9142 92.9594 83.9142C92.7368 83.9142 92.5163 83.9581 92.3106 84.0433C92.1049 84.1285 91.918 84.2534 91.7606 84.4108L89.2845 86.8869L83.3407 80.9432C91.4551 72.2156 95.8179 60.6506 95.4899 48.7382C95.162 36.8257 90.1695 25.5183 81.5872 17.2504C73.0049 8.98242 61.5192 4.41506 49.6028 4.5316C37.6864 4.64813 26.2922 9.43922 17.8733 17.8734C9.4391 26.2924 4.648 37.6865 4.53147 49.603C4.41494 61.5194 8.98229 73.005 17.2503 81.5873C25.5182 90.1696 36.8256 95.1621 48.738 95.4901C60.6505 95.818 72.2154 91.4552 80.9431 83.3408L86.8868 89.2846L84.4107 91.7607C84.2533 91.9182 84.1284 92.105 84.0432 92.3107C83.9579 92.5164 83.9141 92.7369 83.9141 92.9596C83.9141 93.1822 83.9579 93.4027 84.0432 93.6084C84.1284 93.8141 84.2533 94.001 84.4107 94.1584L107.849 117.597C109.031 118.776 110.632 119.438 112.301 119.438C113.971 119.438 115.572 118.776 116.754 117.597L117.597 116.754C118.776 115.572 119.438 113.971 119.438 112.302C119.438 110.632 118.776 109.031 117.597 107.849L94.1583 84.4108ZM20.271 79.7686C16.3643 75.8619 13.2654 71.224 11.1511 66.1197C9.03683 61.0154 7.94863 55.5447 7.94863 50.0198C7.94863 44.495 9.03683 39.0242 11.1511 33.9199C13.2654 28.8156 16.3643 24.1777 20.271 20.2711C24.1776 16.3644 28.8155 13.2655 33.9198 11.1512C39.0241 9.03695 44.4949 7.94875 50.0197 7.94875C55.5446 7.94875 61.0153 9.03695 66.1196 11.1512C71.2239 13.2655 75.8618 16.3644 79.7684 20.2711C83.6751 24.1777 86.774 28.8156 88.8883 33.9199C91.0026 39.0242 92.0908 44.495 92.0908 50.0198C92.0908 55.5447 91.0026 61.0154 88.8883 66.1197C86.774 71.224 83.6751 75.8619 79.7684 79.7686C75.8618 83.6752 71.2239 86.7742 66.1196 88.8884C61.0153 91.0027 55.5446 92.0909 50.0197 92.0909C44.4949 92.0909 39.0241 91.0027 33.9198 88.8884C28.8155 86.7742 24.1776 83.6752 20.271 79.7686ZM115.199 114.357L114.356 115.199C113.811 115.743 113.072 116.049 112.301 116.049C111.531 116.049 110.792 115.743 110.247 115.199L88.0072 92.9596L92.9594 88.0073L115.199 110.246C115.743 110.792 116.049 111.531 116.049 112.301C116.049 113.072 115.743 113.811 115.199 114.357Z" fill="black"/>
</svg>
