<svg width="176" height="130" viewBox="0 0 176 130" fill="none" xmlns="http://www.w3.org/2000/svg">
<path d="M31.8342 19.8117C31.8472 19.7879 31.8594 19.7637 31.8708 19.7393C32.995 17.3388 35.4709 13.3078 39.4229 13.2783L74.5518 13.0152H74.5963C75.5131 13.0116 76.4162 13.2422 77.2225 13.6858C75.1793 10.6252 73.2251 9.27905 70.9184 9.27905H70.8741L35.746 9.54222C31.794 9.57167 29.3181 13.6023 28.1939 16.0032C28.1826 16.0276 28.1703 16.0518 28.1573 16.0756L22.1348 27.1092L27.8743 27.0672L31.8342 19.8117Z" fill="#D4E1F4"/>
<path d="M21.6534 54.1463C21.2255 53.7047 20.9845 53.1106 20.982 52.4909C20.9816 52.4342 20.9778 52.3776 20.9706 52.3213L18.7897 35.251C18.7978 32.4487 20.2344 30.4995 21.978 29.7257L19.9491 29.7409H19.9398C19.8695 29.7402 19.7993 29.7337 19.7301 29.7213C17.4171 29.8782 15.1228 31.9903 15.1133 35.4222L17.2941 51.9498C17.3014 52.0042 17.3052 52.059 17.3055 52.1139C17.3127 52.7142 17.5517 53.2877 17.9709 53.7107C18.3902 54.1336 18.9562 54.3724 19.5471 54.3754H19.564L21.8915 54.3579C21.8074 54.293 21.7279 54.2223 21.6534 54.1463Z" fill="#D4E1F4"/>
<path d="M24.915 36.432H24.8773C23.5381 36.4368 22.2556 36.982 21.312 37.9477C20.3684 38.9133 19.841 40.2202 19.8457 41.581C19.8505 42.9418 20.387 44.2449 21.3374 45.2037C22.2877 46.1625 23.5739 46.6985 24.9131 46.6937H24.9516C26.2903 46.6821 27.5699 46.1315 28.5095 45.1626C29.4492 44.1937 29.9722 42.8857 29.9639 41.5254C29.9526 40.1717 29.4159 38.8772 28.4705 37.9235C27.525 36.9697 26.2473 36.4337 24.915 36.432ZM24.9303 43.7483C24.6467 43.7523 24.3651 43.6993 24.1017 43.5922C23.8384 43.4852 23.5984 43.3263 23.3957 43.1247C23.193 42.923 23.0316 42.6826 22.9207 42.4174C22.8098 42.1521 22.7516 41.8671 22.7495 41.5789C22.7475 41.2907 22.8015 41.0049 22.9085 40.738C23.0156 40.4711 23.1735 40.2283 23.3733 40.0237C23.573 39.819 23.8106 39.6566 24.0724 39.5456C24.3342 39.4346 24.615 39.3774 24.8986 39.3771H24.9148C25.4819 39.3803 26.0248 39.6109 26.4254 40.0187C26.826 40.4266 27.0519 40.9787 27.054 41.5549C27.056 42.1311 26.834 42.6849 26.4363 43.0956C26.0386 43.5064 25.4974 43.741 24.9303 43.7483Z" fill="#0635C9"/>
<path d="M81.2938 36.0098H81.2561C80.593 36.0122 79.9369 36.1473 79.3251 36.4073C78.7134 36.6674 78.1581 37.0473 77.6909 37.5255C77.2237 38.0036 76.8537 38.5706 76.6021 39.194C76.3505 39.8174 76.2223 40.4851 76.2246 41.1589C76.227 41.8327 76.36 42.4994 76.6159 43.121C76.8719 43.7426 77.2458 44.3068 77.7163 44.7816C78.1869 45.2563 78.7449 45.6322 79.3584 45.8879C79.972 46.1435 80.629 46.2738 81.2921 46.2714H81.3307C82.6652 46.2593 83.9408 45.7109 84.8785 44.746C85.8163 43.7811 86.34 42.4782 86.3351 41.1221C86.3302 39.766 85.7972 38.467 84.8526 37.5091C83.9079 36.5511 82.6284 36.0122 81.2938 36.01V36.0098ZM83.4444 41.1244C83.4486 41.704 83.226 42.2616 82.8256 42.6745C82.4252 43.0874 81.8798 43.3218 81.3093 43.3261H81.293C80.7225 43.3282 80.1745 43.0999 79.7697 42.6915C79.3648 42.2831 79.1362 41.7279 79.1342 41.1483C79.1321 40.5686 79.3568 40.0118 79.7587 39.6004C80.1606 39.1891 80.707 38.9568 81.2774 38.9547H81.2936C81.8611 38.9553 82.4054 39.1835 82.8082 39.5897C83.211 39.996 83.4396 40.5473 83.4444 41.124V41.1244Z" fill="#0635C9"/>
<path d="M68.9655 18.9416C66.6721 18.9614 64.4801 19.9048 62.8704 21.5648C61.2607 23.2247 60.3647 25.4657 60.3791 27.7961C60.3819 28.1847 60.5359 28.5565 60.8073 28.8303C61.0788 29.1041 61.4458 29.2577 61.8283 29.2577H61.8391C62.0294 29.2563 62.2176 29.2168 62.3929 29.1415C62.5682 29.0662 62.7272 28.9565 62.8608 28.8187C62.9944 28.681 63.1 28.5178 63.1715 28.3386C63.243 28.1594 63.2791 27.9676 63.2777 27.7742C63.2665 26.2241 63.8617 24.733 64.9325 23.6289C66.0032 22.5248 67.4617 21.8981 68.9872 21.8867C70.5127 21.8753 71.9802 22.4801 73.0668 23.5681C74.1534 24.6561 74.7702 26.1381 74.7814 27.6882C74.7842 28.0787 74.9395 28.4521 75.2132 28.7263C75.4869 29.0005 75.8566 29.153 76.241 29.1502C76.6253 29.1474 76.9929 28.9896 77.2627 28.7115C77.5325 28.4333 77.6826 28.0577 77.6798 27.6671C77.6598 25.3368 76.7312 23.1097 75.0977 21.4741C73.4641 19.8384 71.2589 18.9277 68.9655 18.9416Z" fill="black"/>
<path d="M95.2014 23.358C94.4271 21.0539 92.0512 19.5729 89.1387 19.5729H89.0745C87.3998 19.5855 84.3977 19.5973 82.9296 19.6026L80.1347 14.4568C78.1223 10.853 75.1941 6.72375 70.3545 6.72375H70.2908L35.7103 6.98419C31.7409 7.01406 28.2454 9.81592 25.8635 14.8761L23.0245 20.0776C21.5581 20.0856 18.5193 20.1024 16.8222 20.1152C13.8805 20.1373 11.4972 21.6587 10.7506 23.9916C10.4186 25.0364 10.2154 26.1189 10.1457 27.2144C10.1379 27.4126 10.1695 27.6104 10.2387 27.7958C10.308 27.9813 10.4134 28.1506 10.5486 28.2937C10.6838 28.4367 10.8461 28.5505 11.0257 28.6283C11.2053 28.706 11.3985 28.7461 11.5937 28.7461H11.6063L15.4451 28.7125C13.7458 30.2568 12.6843 32.6238 12.7036 35.3169C12.7041 35.3787 12.7084 35.4405 12.7166 35.5018L14.8635 51.7711C14.8972 52.9051 15.3079 53.9941 16.0287 54.8606C16.7496 55.727 17.738 56.3198 18.8329 56.5422L18.8696 61.5996C18.8756 62.454 19.2138 63.2714 19.8105 63.8735C20.4071 64.4756 21.2139 64.8136 22.0548 64.8138H22.079L27.3531 64.7742C28.1977 64.7669 29.0049 64.4196 29.5978 63.8083C30.1907 63.197 30.5207 62.3718 30.5155 61.5135L30.4797 56.5569L75.9466 56.2165L75.9827 61.1732C75.9893 62.0274 76.3279 62.8442 76.9247 63.4459C77.5214 64.0475 78.328 64.3852 79.1687 64.3853H79.1929L84.467 64.3457C85.3116 64.3384 86.1189 63.991 86.7117 63.3797C87.3046 62.7685 87.6347 61.9432 87.6296 61.085L87.5926 56.0064C88.6634 55.7513 89.6198 55.1402 90.3099 54.2699C91 53.3997 91.3844 52.3202 91.4019 51.2027L93.4019 34.906C93.4098 34.8421 93.4135 34.7776 93.413 34.7131C93.4113 32.5871 92.6519 30.5337 91.2752 28.9327C91.0339 28.6563 90.7739 28.3973 90.4972 28.1575L94.418 28.1266C94.6141 28.125 94.8079 28.0831 94.9876 28.0032C95.1673 27.9233 95.3292 27.8072 95.4635 27.6618C95.5977 27.5165 95.7015 27.345 95.7686 27.1577C95.8357 26.9704 95.8646 26.7712 95.8537 26.5722C95.768 25.4775 95.5489 24.3979 95.2014 23.358ZM28.4195 16.2641C28.4344 16.2375 28.4481 16.2102 28.4609 16.1826C29.5493 13.8589 31.9409 9.95582 35.7319 9.92826L70.3113 9.6693H70.3527C72.9977 9.6693 75.1713 11.5392 77.6041 15.8961L83.3093 26.3938L22.6431 26.848L28.4195 16.2641ZM13.2692 25.7863C13.3313 25.5082 13.4087 25.2084 13.5071 24.9013C13.8557 23.8118 15.1964 23.0711 16.8434 23.0593C18.0398 23.0502 19.9033 23.0383 21.4119 23.0307L19.9395 25.7278L13.2692 25.7863ZM27.3318 61.8283L22.0577 61.8678H22.0554C21.9795 61.8676 21.9068 61.8371 21.853 61.7828C21.7992 61.7285 21.7687 61.6548 21.768 61.5777L21.732 56.6211L27.5813 56.5771L27.6171 61.534C27.6176 61.6114 27.5878 61.6859 27.5343 61.7411C27.4808 61.7962 27.408 61.8276 27.3318 61.8283ZM84.4449 61.4006L79.1705 61.4401H79.1687C79.0929 61.4399 79.0202 61.4093 78.9664 61.355C78.9127 61.3007 78.8822 61.2271 78.8815 61.15L78.8455 56.1934L84.6947 56.1496L84.7308 61.1065C84.7312 61.184 84.7013 61.2585 84.6477 61.3137C84.5941 61.3688 84.5211 61.4001 84.4449 61.4006ZM90.5127 34.642L88.5145 50.9244C88.5066 50.9884 88.5029 51.0529 88.5033 51.1175C88.5046 51.6622 88.2942 52.1854 87.918 52.5734C87.5417 52.9615 87.0299 53.1829 86.4939 53.1896L19.7994 53.6903C19.2632 53.6918 18.7482 53.4781 18.3665 53.0955C18.1763 52.9071 18.0247 52.6822 17.9206 52.4338C17.8165 52.1855 17.762 51.9186 17.7601 51.6487C17.7597 51.5867 17.7554 51.5249 17.7473 51.4635L15.602 35.2071C15.6192 32.6232 17.2293 29.9713 19.9497 29.7923C20.0233 29.8046 20.0978 29.811 20.1724 29.8116H20.183L85.715 29.3211C85.7245 29.3211 85.7338 29.3225 85.7436 29.3225H85.7868C86.4179 29.3258 87.0409 29.4671 87.6136 29.7367C88.1862 30.0062 88.695 30.3979 89.1055 30.8849C89.9912 31.9326 90.4889 33.2617 90.5127 34.6427V34.642ZM85.9966 25.2471L84.5266 22.5418C86.0344 22.5357 87.9013 22.5273 89.096 22.5182H89.1374C90.7655 22.5182 92.098 23.2354 92.4588 24.3103C92.5623 24.6173 92.6452 24.9166 92.7102 25.1939L85.9966 25.2471Z" fill="#0635C9"/>
<path d="M125.332 44.4313C125.346 43.6288 125.677 42.8645 126.253 42.3054C126.829 41.7463 127.603 41.4378 128.405 41.4472H153.139C155.089 41.4285 156.993 42.0381 158.568 43.186V42.7211C158.568 39.4905 154.995 36.799 150.815 36.799H126.081C125.279 36.7896 124.505 37.0981 123.929 37.6571C123.353 38.2162 123.022 38.9804 123.008 39.7829V68.873H125.332V44.4313Z" fill="#D4E1F4"/>
<path d="M66.9941 76.7754H132.072V75.6356V72.127H64.6699V94.4395H66.9941V76.7754Z" fill="#D4E1F4"/>
<path d="M96.3281 93.2404C96.4235 93.6359 96.498 94.0361 96.5513 94.4394H97.1983C96.9343 94.0215 96.6436 93.621 96.3281 93.2404Z" fill="#D4E1F4"/>
<path d="M137.65 81.8887H162.944C164.642 81.8887 166.567 83.0471 168.07 84.8539C167.091 80.6292 163.523 77.2402 160.619 77.2402H135.326V94.4395H137.65V81.8887Z" fill="#D4E1F4"/>
<path d="M161.223 93.2506C161.317 93.6427 161.392 94.0395 161.445 94.4394H162.084C161.822 94.0254 161.535 93.6283 161.223 93.2506Z" fill="#D4E1F4"/>
<path d="M158.4 76.6264C158.552 76.4329 158.658 76.2071 158.709 75.9663C158.761 75.7255 158.757 75.4762 158.697 75.2373L156.071 64.7248C155.931 64.1756 155.61 63.6895 155.16 63.3456C154.71 63.0016 154.156 62.82 153.59 62.8301H133.774C132.876 62.8301 132.072 63.4739 132.072 64.3725V75.6366C132.09 76.0732 132.279 76.4854 132.597 76.7851C132.915 77.0847 133.337 77.2481 133.774 77.2403H157.118C157.364 77.2424 157.608 77.1882 157.83 77.0818C158.052 76.9754 158.247 76.8197 158.4 76.6264ZM135.326 73.9864V66.084H153.045L155.037 73.9864H135.326Z" fill="black"/>
<path d="M158.4 76.6264C158.552 76.4329 158.658 76.2071 158.709 75.9663C158.761 75.7255 158.757 75.4762 158.697 75.2373L156.071 64.7248C155.931 64.1756 155.61 63.6895 155.16 63.3456C154.71 63.0016 154.156 62.82 153.59 62.8301H133.774C132.876 62.8301 132.072 63.4739 132.072 64.3725V75.6366C132.09 76.0732 132.279 76.4854 132.597 76.7851C132.915 77.0847 133.337 77.2481 133.774 77.2403H157.118C157.364 77.2424 157.608 77.1882 157.83 77.0818C158.052 76.9754 158.247 76.8197 158.4 76.6264ZM135.326 73.9864V66.084H153.045L155.037 73.9864H135.326Z" fill="black"/>
<path d="M163.877 74.6643L157.792 49.8144H159.223C159.557 49.8235 159.889 49.7664 160.2 49.6465C160.512 49.5266 160.797 49.3463 161.038 49.1159C161.28 48.8854 161.474 48.6095 161.608 48.3039C161.743 47.9984 161.815 47.6692 161.822 47.3354V42.7209C161.822 37.6406 156.861 33.5449 150.815 33.5449H126.081C124.416 33.5363 122.815 34.188 121.629 35.3571C120.443 36.5262 119.769 38.1176 119.754 39.7829V68.873H63.9727C63.2948 68.8738 62.645 69.1434 62.1657 69.6227C61.6864 70.102 61.4168 70.7518 61.416 71.4296V95.2482C61.416 96.6581 62.563 97.6933 63.9727 97.6933H75.1838C75.6153 97.6933 76.0291 97.5219 76.3342 97.2168C76.6393 96.9117 76.8107 96.4979 76.8107 96.0664C76.8107 95.6349 76.6393 95.2211 76.3342 94.9159C76.0291 94.6108 75.6153 94.4394 75.1838 94.4394H64.6699V72.1269H132.072V94.4394H95.0214C94.5899 94.4394 94.1761 94.6108 93.871 94.9159C93.5659 95.2211 93.3945 95.6349 93.3945 96.0664C93.3945 96.4979 93.5659 96.9117 93.871 97.2168C94.1761 97.5219 94.5899 97.6933 95.0214 97.6933H140.079C140.293 97.7061 140.508 97.674 140.708 97.599C140.909 97.524 141.092 97.4079 141.245 97.2581C141.398 97.1083 141.519 96.9281 141.598 96.729C141.677 96.53 141.714 96.3165 141.706 96.1024C141.705 96.041 141.705 95.992 141.705 95.9306C141.707 95.494 141.537 95.074 141.233 94.7607C140.929 94.4474 140.514 94.2657 140.078 94.2546C139.77 94.2546 139.483 94.4406 139.238 94.4406H135.326V77.2402H160.619C164.018 77.2402 168.33 81.8819 168.33 87.074V94.4394H160.76C160.514 94.4394 160.227 94.2616 159.919 94.2616C159.485 94.2677 159.07 94.4449 158.766 94.7547C158.461 95.0646 158.291 95.482 158.292 95.9165C158.292 95.9781 158.292 96.0559 158.291 96.1163C158.285 96.3266 158.322 96.5358 158.401 96.7307C158.48 96.9256 158.599 97.102 158.75 97.2487C158.904 97.398 159.087 97.5144 159.287 97.5908C159.488 97.6672 159.702 97.7021 159.916 97.6933H169.027C170.437 97.6933 171.584 96.6581 171.584 95.2482V87.074C171.584 82.2621 168.35 76.5987 163.877 74.6643ZM135.326 70.5V49.8144H154.441L160.356 73.9863H135.326V70.5ZM123.008 68.873V39.7829C123.022 38.9804 123.353 38.2161 123.929 37.657C124.505 37.0979 125.279 36.7893 126.081 36.7988H150.815C154.995 36.7988 158.568 39.4905 158.568 42.7209V46.5605H133.774C133.327 46.5751 132.902 46.7595 132.586 47.0761C132.27 47.3927 132.086 47.8179 132.072 48.2651V68.873H123.008Z" fill="#0635C9"/>
<path d="M149.997 84.3965C146.936 84.3999 144 85.6177 141.835 87.7827C139.67 89.9476 138.453 92.8829 138.449 95.9446C138.449 96.0376 138.449 96.1329 138.452 96.2156C138.523 99.2293 139.771 102.096 141.927 104.202C144.083 106.309 146.978 107.489 149.992 107.49C153.007 107.492 155.902 106.314 158.061 104.209C160.219 102.105 161.468 99.2395 161.542 96.2258C161.545 96.1329 161.545 96.0373 161.545 95.9446C161.542 92.8829 160.324 89.9477 158.159 87.7827C155.994 85.6178 153.059 84.4 149.997 84.3965ZM158.29 96.1405C158.238 98.3067 157.341 100.367 155.791 101.88C154.24 103.394 152.159 104.24 149.992 104.239C147.825 104.237 145.745 103.388 144.196 101.873C142.648 100.358 141.753 98.2965 141.705 96.1303C141.703 96.0689 141.703 96.006 141.703 95.9444C141.697 94.8515 141.908 93.7682 142.322 92.7568C142.736 91.7455 143.346 90.826 144.117 90.0511C144.888 89.2763 145.804 88.6614 146.813 88.2418C147.822 87.8222 148.904 87.6063 149.997 87.6063C151.09 87.6063 152.172 87.8222 153.181 88.2418C154.191 88.6614 155.107 89.2763 155.878 90.0511C156.648 90.826 157.258 91.7455 157.673 92.7568C158.087 93.7682 158.297 94.8515 158.291 95.9444C158.291 96.006 158.292 96.0689 158.29 96.1405Z" fill="black"/>
<path d="M85.1026 84.3965C82.0401 84.3974 79.1034 85.6144 76.9379 87.7799C74.7725 89.9454 73.5556 92.8822 73.5547 95.9446C73.5547 96.0376 73.5547 96.1329 73.5572 96.2156C73.6287 99.2293 74.8758 102.096 77.0321 104.202C79.1883 106.309 82.0829 107.489 85.0975 107.49C88.112 107.492 91.0076 106.314 93.1658 104.209C95.3239 102.105 96.5735 99.2395 96.6477 96.2258C96.6504 96.1329 96.6507 96.0373 96.6507 95.9446C96.6498 92.8821 95.4329 89.9453 93.2674 87.7798C91.1019 85.6143 88.1651 84.3973 85.1026 84.3965ZM93.3949 96.1405C93.3436 98.3067 92.4467 100.367 90.8961 101.88C89.3455 103.394 87.2642 104.24 85.0975 104.239C82.9307 104.237 80.8505 103.388 79.3017 101.873C77.753 100.358 76.8586 98.2965 76.81 96.1303C76.8084 96.0689 76.8086 96.006 76.8086 95.9444C76.8202 93.7522 77.6992 91.6539 79.2533 90.1079C80.8075 88.5619 82.9105 87.6941 85.1027 87.6941C87.2948 87.6941 89.3978 88.5619 90.952 90.1079C92.5062 91.6539 93.3852 93.7522 93.3968 95.9444C93.3972 96.006 93.3972 96.0689 93.3949 96.1405Z" fill="black"/>
</svg>
