<svg width="113" height="52" viewBox="0 0 113 52" fill="none" xmlns="http://www.w3.org/2000/svg">
<g clip-path="url(#clip0)">
<rect width="113" height="52" fill="black"/>
<g clip-path="url(#clip1)">
<path d="M15 36.54H24.12C28.53 36.54 29.7 35.79 30.93 34.59C31.5178 34.0094 31.9848 33.3181 32.304 32.556C32.6232 31.7939 32.7884 30.9762 32.79 30.15C32.79 28.02 32.1 25.92 29.46 24.93C30.3163 24.5772 31.0357 23.9574 31.5114 23.1629C31.9871 22.3683 32.1935 21.4413 32.1 20.52C32.1 18.3 30.75 15 25.47 15H15V36.54ZM19.32 27.06H25.05C26.67 27.06 28.29 27.78 28.29 29.67C28.29 31.86 27.03 32.82 24.84 32.82H19.32V27.06ZM19.32 18.72H24.48C26.52 18.72 27.78 19.26 27.78 21.03C27.78 22.74 26.37 23.43 24.6 23.43H19.32V18.72ZM45.48 31.86C45.2756 32.4009 44.9029 32.8619 44.4169 33.1752C43.9308 33.4884 43.357 33.6373 42.78 33.6C39.39 33.6 39.15 30.9 39.03 29.7H49.98V28.95C49.98 21.66 45.63 20.16 42.48 20.16C35.49 20.16 34.83 26.31 34.83 28.23C34.83 34.8 38.28 36.96 42.78 36.96C44.3566 37.0393 45.9128 36.5766 47.19 35.6488C48.4671 34.721 49.3882 33.3839 49.8 31.86H45.48ZM39.15 26.97C39.39 24.87 40.44 23.61 42.42 23.61C43.77 23.61 45.42 24.39 45.66 26.97H39.15ZM59.867 20.983V24.264H57.055V30.534C57.0292 31.2747 57.0563 32.0162 57.136 32.753C57.1907 32.9651 57.3208 33.15 57.502 33.273C57.7073 33.4147 57.9527 33.4866 58.202 33.478C58.7715 33.4343 59.3304 33.2992 59.857 33.078L60.209 36.271C59.1782 36.6954 58.0716 36.9047 56.957 36.886C56.2698 36.8963 55.5874 36.7691 54.95 36.512C54.4304 36.3201 53.9758 35.9848 53.639 35.545C53.328 35.062 53.1301 34.5151 53.06 33.945C52.9456 32.9828 52.9015 32.0136 52.928 31.045V24.263H51.038V20.982H52.92V17.891L57.051 15.491V20.984L59.867 20.983ZM69.617 20.983V24.264H66.805V30.534C66.7792 31.2747 66.8063 32.0162 66.886 32.753C66.9407 32.9651 67.0708 33.15 67.252 33.273C67.4573 33.4147 67.7027 33.4866 67.952 33.478C68.5215 33.4343 69.0804 33.2992 69.607 33.078L69.959 36.271C68.9282 36.6954 67.8216 36.9047 66.707 36.886C66.0198 36.8963 65.3374 36.7691 64.7 36.512C64.1804 36.3201 63.7258 35.9848 63.389 35.545C63.078 35.062 62.8801 34.5151 62.81 33.945C62.6956 32.9828 62.6515 32.0136 62.678 31.045V24.263H60.788V20.982H62.678V17.891L66.809 15.491V20.984L69.617 20.983ZM81.42 31.86C81.2156 32.4009 80.8429 32.8619 80.3569 33.1752C79.8708 33.4884 79.297 33.6373 78.72 33.6C75.33 33.6 75.09 30.9 74.97 29.7H85.92V28.95C85.92 21.66 81.57 20.16 78.42 20.16C71.43 20.16 70.77 26.31 70.77 28.23C70.77 34.8 74.22 36.96 78.72 36.96C80.2966 37.0393 81.8528 36.5766 83.13 35.6488C84.4071 34.721 85.3282 33.3839 85.74 31.86H81.42ZM75.09 26.97C75.33 24.87 76.38 23.61 78.36 23.61C79.71 23.61 81.36 24.39 81.6 26.97H75.09ZM88.44 36.54H92.64V28.23C92.64 26.46 93.24 24.42 96.51 24.42C96.9109 24.4093 97.3121 24.4293 97.71 24.48V20.22C97.4413 20.1851 97.1709 20.1651 96.9 20.16C94.35 20.16 93.39 21.72 92.52 23.34H92.46V20.58H88.44V36.54Z" fill="white"/>
</g>
</g>
<defs>
<clipPath id="clip0">
<rect width="113" height="52" fill="white"/>
</clipPath>
<clipPath id="clip1">
<rect width="82.71" height="21.96" fill="white" transform="translate(15 15)"/>
</clipPath>
</defs>
</svg>
