<svg width="312" height="309" viewBox="0 0 312 309" fill="none" xmlns="http://www.w3.org/2000/svg">
<g clip-path="url(#clip0)">
<rect x="-1.5" y="-1.5" width="230.81" height="297.667" rx="10.5" fill="white" stroke="#DBDBDB" stroke-width="3"/>
<path fill-rule="evenodd" clip-rule="evenodd" d="M116.511 160.582C116.511 161.121 116.399 161.603 116.175 162.026C115.952 162.447 115.645 162.8 115.253 163.085C114.862 163.369 114.4 163.583 113.869 163.729C113.338 163.874 112.758 163.947 112.13 163.947C111.598 163.947 111.022 163.887 110.401 163.769C109.779 163.652 109.237 163.495 108.775 163.301L109.195 161.281C109.642 161.462 110.103 161.604 110.578 161.708C111.054 161.812 111.535 161.864 112.025 161.864C112.5 161.864 112.895 161.795 113.209 161.656C113.524 161.518 113.68 161.268 113.68 160.907C113.68 160.588 113.527 160.355 113.22 160.209C112.912 160.063 112.507 159.886 112.004 159.678C111.598 159.511 111.208 159.341 110.83 159.168C110.453 158.995 110.121 158.787 109.835 158.543C109.548 158.301 109.317 158.016 109.143 157.689C108.968 157.364 108.881 156.957 108.881 156.471C108.881 155.944 108.982 155.486 109.184 155.097C109.387 154.708 109.667 154.389 110.023 154.14C110.379 153.889 110.798 153.702 111.281 153.577C111.763 153.451 112.283 153.39 112.842 153.39C113.43 153.39 113.992 153.442 114.53 153.547C115.068 153.652 115.589 153.839 116.092 154.105L115.652 156.139C115.246 155.958 114.823 155.809 114.384 155.691C113.943 155.572 113.499 155.513 113.053 155.513C112.647 155.513 112.322 155.559 112.077 155.649C111.833 155.738 111.711 155.929 111.711 156.22C111.711 156.496 111.857 156.705 112.151 156.843C112.444 156.982 112.794 157.141 113.199 157.321C113.492 157.445 113.831 157.587 114.215 157.746C114.599 157.905 114.959 158.11 115.295 158.359C115.631 158.609 115.917 158.91 116.155 159.263C116.392 159.616 116.511 160.055 116.511 160.582ZM102.11 155.597C101.719 155.597 101.369 155.656 101.062 155.774C100.754 155.893 100.467 156.064 100.202 156.286V161.573C100.37 161.656 100.572 161.718 100.81 161.76C101.047 161.802 101.306 161.823 101.585 161.823C102.089 161.823 102.518 161.743 102.875 161.582C103.231 161.423 103.521 161.201 103.746 160.913C103.968 160.629 104.132 160.291 104.237 159.901C104.342 159.511 104.395 159.086 104.395 158.626C104.395 157.734 104.21 157.007 103.839 156.443C103.469 155.879 102.892 155.597 102.11 155.597ZM97.3306 149.037H100.202V154.431C100.509 154.126 100.88 153.876 101.313 153.681C101.746 153.487 102.278 153.39 102.906 153.39C103.578 153.39 104.181 153.518 104.72 153.774C105.257 154.032 105.715 154.389 106.093 154.847C106.471 155.305 106.76 155.853 106.963 156.492C107.166 157.131 107.266 157.825 107.266 158.574C107.266 159.352 107.148 160.07 106.91 160.73C106.672 161.389 106.316 161.957 105.841 162.438C105.366 162.916 104.768 163.287 104.049 163.551C103.329 163.814 102.494 163.947 101.543 163.947C100.762 163.947 100.014 163.863 99.3006 163.697C98.5881 163.531 97.9314 163.308 97.3306 163.031V149.037ZM89.8045 162.011C90.2099 162.011 90.588 161.941 90.9364 161.803C91.2854 161.664 91.5937 161.489 91.8595 161.281V159.678C91.5658 159.706 91.2511 159.734 90.9161 159.761C90.5805 159.789 90.2728 159.823 89.993 159.865C89.5742 159.935 89.2386 160.05 88.9867 160.209C88.7354 160.369 88.6098 160.637 88.6098 161.01C88.6098 161.344 88.7174 161.593 88.9355 161.76C89.1519 161.927 89.4416 162.011 89.8045 162.011ZM91.9636 162.655C91.5861 163.017 91.133 163.322 90.6014 163.572C90.0703 163.821 89.4555 163.947 88.7575 163.947C88.3097 163.947 87.9043 163.874 87.5407 163.728C87.1778 163.582 86.8695 163.381 86.6188 163.124C86.3669 162.867 86.1709 162.565 86.0313 162.218C85.8917 161.871 85.8219 161.489 85.8219 161.073C85.8219 160.143 86.1366 159.435 86.7654 158.949C87.3936 158.464 88.2544 158.185 89.3439 158.116C89.7632 158.089 90.1954 158.068 90.6439 158.053C91.0911 158.04 91.4954 158.026 91.8595 158.012V157.659C91.8595 157.005 91.699 156.51 91.3773 156.169C91.0557 155.828 90.5525 155.66 89.8679 155.66C89.3363 155.66 88.8337 155.722 88.3591 155.847C87.8827 155.972 87.4645 156.131 87.1004 156.326L86.5345 154.327C87.0661 154.021 87.6524 153.789 88.2963 153.629C88.9379 153.469 89.6306 153.39 90.3711 153.39C91.7263 153.39 92.7925 153.757 93.5678 154.493C94.3432 155.229 94.7306 156.319 94.7306 157.763V163.739H91.9636V162.655ZM82.8456 160.802C82.8456 161.121 82.9119 161.361 83.0451 161.521C83.1771 161.681 83.4046 161.76 83.7256 161.76C83.8519 161.76 83.9839 161.754 84.1241 161.74C84.2637 161.725 84.3963 161.705 84.5225 161.677L84.6272 163.676C84.3893 163.745 84.0962 163.804 83.7472 163.853C83.3976 163.901 83.055 163.925 82.7194 163.925C82.2023 163.925 81.7695 163.846 81.4194 163.686C81.071 163.527 80.7877 163.312 80.5707 163.041C80.3544 162.77 80.2008 162.465 80.1101 162.124C80.0193 161.785 79.9734 161.435 79.9734 161.073V149.038H82.8456V160.802ZM138.704 134.608H141.567V131.983H144.44V134.608H147.5V136.836H144.44V141.187C144.44 141.66 144.527 142.035 144.702 142.312C144.876 142.589 145.222 142.728 145.739 142.728C146.285 142.728 146.801 142.652 147.291 142.499L147.5 144.52C147.192 144.644 146.808 144.748 146.347 144.832C145.887 144.915 145.425 144.956 144.963 144.956C144.348 144.956 143.828 144.863 143.402 144.676C142.975 144.488 142.626 144.227 142.354 143.894C142.081 143.561 141.883 143.172 141.756 142.728C141.63 142.284 141.567 141.798 141.567 141.271V136.835H137.519L138.704 134.607V134.608ZM129.682 144.748V130.047H132.554V139.376L135.95 134.608H139.136L135.509 139.606L139.639 144.748H136.222L132.554 139.814V144.748H129.682ZM123.247 136.315C122.66 136.315 122.21 136.52 121.894 136.929C121.58 137.338 121.395 137.855 121.339 138.481H124.841C124.91 137.828 124.811 137.304 124.546 136.908C124.281 136.513 123.848 136.315 123.247 136.315ZM123.415 134.399C124.086 134.399 124.682 134.503 125.207 134.711C125.732 134.919 126.167 135.216 126.517 135.597C126.866 135.978 127.132 136.437 127.314 136.971C127.495 137.505 127.587 138.106 127.587 138.772C127.587 139.05 127.569 139.331 127.534 139.616C127.499 139.9 127.446 140.16 127.377 140.396H121.319C121.348 141.14 121.577 141.731 122.011 142.172C122.444 142.612 123.135 142.832 124.086 142.832C124.631 142.832 125.162 142.782 125.679 142.682C126.196 142.581 126.657 142.437 127.062 142.249L127.42 144.186C126.916 144.435 126.343 144.627 125.7 144.758C125.057 144.89 124.394 144.956 123.708 144.956C122.856 144.956 122.102 144.832 121.445 144.582C120.788 144.331 120.232 143.978 119.778 143.519C119.324 143.061 118.978 142.51 118.74 141.863C118.502 141.219 118.384 140.507 118.384 139.729C118.384 138.939 118.499 138.213 118.73 137.554C118.961 136.895 119.292 136.332 119.726 135.867C120.159 135.402 120.687 135.041 121.308 134.784C121.931 134.527 122.632 134.399 123.415 134.399H123.415ZM111.864 136.627C111.403 136.627 111.002 136.725 110.659 136.919C110.316 137.114 110.047 137.329 109.852 137.564V142.583C110.032 142.652 110.243 142.704 110.481 142.739C110.718 142.773 110.97 142.791 111.236 142.791C112.213 142.791 112.926 142.493 113.374 141.895C113.82 141.298 114.044 140.528 114.044 139.584C114.044 138.738 113.866 138.033 113.51 137.471C113.153 136.908 112.604 136.627 111.864 136.627ZM106.98 134.608H109.726V135.899C110.062 135.44 110.482 135.076 110.984 134.805C111.486 134.535 112.101 134.399 112.828 134.399C113.443 134.399 114.002 134.523 114.505 134.775C115.009 135.023 115.438 135.375 115.795 135.825C116.151 136.276 116.427 136.818 116.622 137.449C116.818 138.082 116.915 138.786 116.915 139.563C116.915 140.438 116.776 141.211 116.497 141.885C116.217 142.559 115.84 143.124 115.365 143.582C114.89 144.041 114.334 144.384 113.698 144.613C113.061 144.843 112.381 144.956 111.654 144.956C111.276 144.956 110.941 144.932 110.648 144.884C110.355 144.834 110.089 144.775 109.851 144.707V149.037H106.98V134.608ZM105.03 141.592C105.03 142.132 104.918 142.613 104.694 143.035C104.471 143.457 104.164 143.811 103.772 144.095C103.381 144.378 102.92 144.593 102.389 144.738C101.858 144.884 101.278 144.956 100.65 144.956C100.118 144.956 99.5414 144.897 98.9202 144.78C98.2979 144.661 97.7569 144.505 97.2951 144.312L97.715 142.291C98.1623 142.472 98.6224 142.615 99.0982 142.717C99.5734 142.822 100.055 142.875 100.544 142.875C101.019 142.875 101.414 142.805 101.728 142.665C102.044 142.527 102.2 142.277 102.2 141.916C102.2 141.597 102.047 141.364 101.74 141.219C101.432 141.073 101.026 140.896 100.523 140.687C100.118 140.521 99.7276 140.351 99.3495 140.178C98.972 140.004 98.6399 139.796 98.3549 139.553C98.0675 139.31 97.8372 139.025 97.6621 138.699C97.4876 138.373 97.4004 137.967 97.4004 137.481C97.4004 136.954 97.5016 136.495 97.7034 136.106C97.9058 135.718 98.1862 135.399 98.5427 135.149C98.8993 134.9 99.3181 134.711 99.8009 134.586C100.282 134.461 100.802 134.399 101.362 134.399C101.949 134.399 102.511 134.452 103.05 134.556C103.587 134.663 104.109 134.849 104.611 135.114L104.171 137.148C103.765 136.967 103.343 136.818 102.903 136.7C102.463 136.583 102.019 136.523 101.572 136.523C101.167 136.523 100.841 136.569 100.597 136.658C100.352 136.748 100.23 136.939 100.23 137.229C100.23 137.506 100.377 137.714 100.67 137.853C100.964 137.991 101.313 138.151 101.719 138.33C102.012 138.455 102.351 138.597 102.735 138.756C103.119 138.915 103.479 139.119 103.814 139.369C104.15 139.618 104.437 139.919 104.674 140.272C104.911 140.625 105.03 141.066 105.03 141.592ZM85.8504 144.748V134.608H88.6168V135.982C88.953 135.44 89.3788 135.041 89.8953 134.784C90.4129 134.527 90.9789 134.399 91.5937 134.399C92.251 134.399 92.8128 134.538 93.2805 134.815C93.7487 135.093 94.1297 135.465 94.4235 135.929C94.7172 136.395 94.9336 136.937 95.0732 137.554C95.2133 138.172 95.2831 138.813 95.2831 139.48V144.748H92.4115V139.459C92.4115 138.544 92.2678 137.849 91.9811 137.377C91.6949 136.906 91.2232 136.669 90.5665 136.669C90.1477 136.669 89.7836 136.766 89.4765 136.96C89.1688 137.155 88.9175 137.384 88.7215 137.648V144.748H85.8504ZM79.981 144.748H82.9148V130.88H79.981V144.748Z" fill="#DBDBDB"/>
<path fill-rule="evenodd" clip-rule="evenodd" d="M70.5714 121.782V138.053L72.9905 135.65V124.185H84.5329L86.9514 121.782H70.5714Z" fill="#DBDBDB"/>
<path fill-rule="evenodd" clip-rule="evenodd" d="M154.481 159.396V170.861H142.938L140.52 173.264H156.899V156.993L154.481 159.396Z" fill="#DBDBDB"/>
<rect x="9.90479" y="11.1428" width="209.238" height="18.5714" rx="9.28571" fill="#F3F3F3"/>
<path d="M43.037 18.23L41.255 23H40.427L39.05 19.382L37.655 23H36.827L35.054 18.23H35.873L37.259 22.028L38.699 18.23H39.428L40.841 22.046L42.263 18.23H43.037ZM51.0614 18.23L49.2794 23H48.4514L47.0744 19.382L45.6794 23H44.8514L43.0784 18.23H43.8974L45.2834 22.028L46.7234 18.23H47.4524L48.8654 22.046L50.2874 18.23H51.0614ZM59.0858 18.23L57.3038 23H56.4758L55.0988 19.382L53.7038 23H52.8758L51.1028 18.23H51.9218L53.3078 22.028L54.7478 18.23H55.4768L56.8898 22.046L58.3118 18.23H59.0858ZM59.8707 23.054C59.7027 23.054 59.5587 22.997 59.4387 22.883C59.3187 22.763 59.2587 22.613 59.2587 22.433C59.2587 22.259 59.3187 22.115 59.4387 22.001C59.5587 21.881 59.7027 21.821 59.8707 21.821C60.0387 21.821 60.1797 21.878 60.2937 21.992C60.4077 22.106 60.4647 22.253 60.4647 22.433C60.4647 22.613 60.4047 22.763 60.2847 22.883C60.1707 22.997 60.0327 23.054 59.8707 23.054ZM61.7028 18.23H62.5668V23H61.7028V18.23ZM62.1348 17.312C61.9668 17.312 61.8258 17.258 61.7118 17.15C61.6038 17.042 61.5498 16.91 61.5498 16.754C61.5498 16.598 61.6038 16.466 61.7118 16.358C61.8258 16.244 61.9668 16.187 62.1348 16.187C62.3028 16.187 62.4408 16.241 62.5488 16.349C62.6628 16.451 62.7198 16.58 62.7198 16.736C62.7198 16.898 62.6628 17.036 62.5488 17.15C62.4408 17.258 62.3028 17.312 62.1348 17.312ZM66.7635 18.185C67.3695 18.185 67.8495 18.362 68.2035 18.716C68.5635 19.064 68.7435 19.577 68.7435 20.255V23H67.8795V20.354C67.8795 19.892 67.7685 19.544 67.5465 19.31C67.3245 19.076 67.0065 18.959 66.5925 18.959C66.1245 18.959 65.7555 19.097 65.4855 19.373C65.2155 19.643 65.0805 20.033 65.0805 20.543V23H64.2165V18.23H65.0445V18.95C65.2185 18.704 65.4525 18.515 65.7465 18.383C66.0465 18.251 66.3855 18.185 66.7635 18.185ZM71.7104 23.054C71.3204 23.054 70.9454 23.003 70.5854 22.901C70.2254 22.793 69.9434 22.658 69.7394 22.496L70.0994 21.812C70.3094 21.962 70.5644 22.082 70.8644 22.172C71.1644 22.262 71.4674 22.307 71.7734 22.307C72.5294 22.307 72.9074 22.091 72.9074 21.659C72.9074 21.515 72.8564 21.401 72.7544 21.317C72.6524 21.233 72.5234 21.173 72.3674 21.137C72.2174 21.095 72.0014 21.05 71.7194 21.002C71.3354 20.942 71.0204 20.873 70.7744 20.795C70.5344 20.717 70.3274 20.585 70.1534 20.399C69.9794 20.213 69.8924 19.952 69.8924 19.616C69.8924 19.184 70.0724 18.839 70.4324 18.581C70.7924 18.317 71.2754 18.185 71.8814 18.185C72.1994 18.185 72.5174 18.224 72.8354 18.302C73.1534 18.38 73.4144 18.485 73.6184 18.617L73.2494 19.301C72.8594 19.049 72.4004 18.923 71.8724 18.923C71.5064 18.923 71.2274 18.983 71.0354 19.103C70.8434 19.223 70.7474 19.382 70.7474 19.58C70.7474 19.736 70.8014 19.859 70.9094 19.949C71.0174 20.039 71.1494 20.105 71.3054 20.147C71.4674 20.189 71.6924 20.237 71.9804 20.291C72.3644 20.357 72.6734 20.429 72.9074 20.507C73.1474 20.579 73.3514 20.705 73.5194 20.885C73.6874 21.065 73.7714 21.317 73.7714 21.641C73.7714 22.073 73.5854 22.418 73.2134 22.676C72.8474 22.928 72.3464 23.054 71.7104 23.054ZM77.3802 18.185C77.8422 18.185 78.2562 18.287 78.6222 18.491C78.9882 18.695 79.2732 18.98 79.4772 19.346C79.6872 19.712 79.7922 20.135 79.7922 20.615C79.7922 21.095 79.6872 21.521 79.4772 21.893C79.2732 22.259 78.9882 22.544 78.6222 22.748C78.2562 22.952 77.8422 23.054 77.3802 23.054C77.0382 23.054 76.7232 22.988 76.4352 22.856C76.1532 22.724 75.9132 22.532 75.7152 22.28V24.746H74.8512V18.23H75.6792V18.986C75.8712 18.722 76.1142 18.524 76.4082 18.392C76.7022 18.254 77.0262 18.185 77.3802 18.185ZM77.3082 22.298C77.6142 22.298 77.8872 22.229 78.1272 22.091C78.3732 21.947 78.5652 21.749 78.7032 21.497C78.8472 21.239 78.9192 20.945 78.9192 20.615C78.9192 20.285 78.8472 19.994 78.7032 19.742C78.5652 19.484 78.3732 19.286 78.1272 19.148C77.8872 19.01 77.6142 18.941 77.3082 18.941C77.0082 18.941 76.7352 19.013 76.4892 19.157C76.2492 19.295 76.0572 19.49 75.9132 19.742C75.7752 19.994 75.7062 20.285 75.7062 20.615C75.7062 20.945 75.7752 21.239 75.9132 21.497C76.0512 21.749 76.2432 21.947 76.4892 22.091C76.7352 22.229 77.0082 22.298 77.3082 22.298ZM85.297 20.642C85.297 20.708 85.291 20.795 85.279 20.903H81.409C81.463 21.323 81.646 21.662 81.958 21.92C82.276 22.172 82.669 22.298 83.137 22.298C83.707 22.298 84.166 22.106 84.514 21.722L84.991 22.28C84.775 22.532 84.505 22.724 84.181 22.856C83.863 22.988 83.506 23.054 83.11 23.054C82.606 23.054 82.159 22.952 81.769 22.748C81.379 22.538 81.076 22.247 80.86 21.875C80.65 21.503 80.545 21.083 80.545 20.615C80.545 20.153 80.647 19.736 80.851 19.364C81.061 18.992 81.346 18.704 81.706 18.5C82.072 18.29 82.483 18.185 82.939 18.185C83.395 18.185 83.8 18.29 84.154 18.5C84.514 18.704 84.793 18.992 84.991 19.364C85.195 19.736 85.297 20.162 85.297 20.642ZM82.939 18.914C82.525 18.914 82.177 19.04 81.895 19.292C81.619 19.544 81.457 19.874 81.409 20.282H84.469C84.421 19.88 84.256 19.553 83.974 19.301C83.698 19.043 83.353 18.914 82.939 18.914ZM88.3507 20.777L87.3607 21.695V23H86.4967V16.322H87.3607V20.606L89.9617 18.23H91.0057L88.9987 20.201L91.2037 23H90.1417L88.3507 20.777ZM94.7246 22.721C94.5986 22.829 94.4426 22.913 94.2566 22.973C94.0706 23.027 93.8786 23.054 93.6806 23.054C93.2006 23.054 92.8286 22.925 92.5646 22.667C92.3006 22.409 92.1686 22.04 92.1686 21.56V18.941H91.3586V18.23H92.1686V17.186H93.0326V18.23H94.4006V18.941H93.0326V21.524C93.0326 21.782 93.0956 21.98 93.2216 22.118C93.3536 22.256 93.5396 22.325 93.7796 22.325C94.0436 22.325 94.2686 22.25 94.4546 22.1L94.7246 22.721ZM95.7692 16.322H96.6332V23H95.7692V16.322ZM100.02 18.185C100.68 18.185 101.184 18.347 101.532 18.671C101.886 18.995 102.063 19.478 102.063 20.12V23H101.244V22.37C101.1 22.592 100.893 22.763 100.623 22.883C100.359 22.997 100.044 23.054 99.6779 23.054C99.1439 23.054 98.7149 22.925 98.3909 22.667C98.0729 22.409 97.9139 22.07 97.9139 21.65C97.9139 21.23 98.0669 20.894 98.3729 20.642C98.6789 20.384 99.1649 20.255 99.8309 20.255H101.199V20.084C101.199 19.712 101.091 19.427 100.875 19.229C100.659 19.031 100.341 18.932 99.9209 18.932C99.6389 18.932 99.3629 18.98 99.0929 19.076C98.8229 19.166 98.5949 19.289 98.4089 19.445L98.0489 18.797C98.2949 18.599 98.5889 18.449 98.9309 18.347C99.2729 18.239 99.6359 18.185 100.02 18.185ZM99.8219 22.388C100.152 22.388 100.437 22.316 100.677 22.172C100.917 22.022 101.091 21.812 101.199 21.542V20.876H99.8669C99.1349 20.876 98.7689 21.122 98.7689 21.614C98.7689 21.854 98.8619 22.043 99.0479 22.181C99.2339 22.319 99.4919 22.388 99.8219 22.388ZM106.191 18.185C106.653 18.185 107.067 18.287 107.433 18.491C107.799 18.695 108.084 18.98 108.288 19.346C108.498 19.712 108.603 20.135 108.603 20.615C108.603 21.095 108.498 21.521 108.288 21.893C108.084 22.259 107.799 22.544 107.433 22.748C107.067 22.952 106.653 23.054 106.191 23.054C105.837 23.054 105.513 22.985 105.219 22.847C104.925 22.709 104.682 22.508 104.49 22.244V23H103.662V16.322H104.526V18.95C104.718 18.698 104.958 18.509 105.246 18.383C105.534 18.251 105.849 18.185 106.191 18.185ZM106.119 22.298C106.425 22.298 106.698 22.229 106.938 22.091C107.184 21.947 107.376 21.749 107.514 21.497C107.658 21.239 107.73 20.945 107.73 20.615C107.73 20.285 107.658 19.994 107.514 19.742C107.376 19.484 107.184 19.286 106.938 19.148C106.698 19.01 106.425 18.941 106.119 18.941C105.819 18.941 105.546 19.01 105.3 19.148C105.054 19.286 104.862 19.484 104.724 19.742C104.586 19.994 104.517 20.285 104.517 20.615C104.517 20.945 104.586 21.239 104.724 21.497C104.862 21.749 105.054 21.947 105.3 22.091C105.546 22.229 105.819 22.298 106.119 22.298ZM111.165 23.054C110.775 23.054 110.4 23.003 110.04 22.901C109.68 22.793 109.398 22.658 109.194 22.496L109.554 21.812C109.764 21.962 110.019 22.082 110.319 22.172C110.619 22.262 110.922 22.307 111.228 22.307C111.984 22.307 112.362 22.091 112.362 21.659C112.362 21.515 112.311 21.401 112.209 21.317C112.107 21.233 111.978 21.173 111.822 21.137C111.672 21.095 111.456 21.05 111.174 21.002C110.79 20.942 110.475 20.873 110.229 20.795C109.989 20.717 109.782 20.585 109.608 20.399C109.434 20.213 109.347 19.952 109.347 19.616C109.347 19.184 109.527 18.839 109.887 18.581C110.247 18.317 110.73 18.185 111.336 18.185C111.654 18.185 111.972 18.224 112.29 18.302C112.608 18.38 112.869 18.485 113.073 18.617L112.704 19.301C112.314 19.049 111.855 18.923 111.327 18.923C110.961 18.923 110.682 18.983 110.49 19.103C110.298 19.223 110.202 19.382 110.202 19.58C110.202 19.736 110.256 19.859 110.364 19.949C110.472 20.039 110.604 20.105 110.76 20.147C110.922 20.189 111.147 20.237 111.435 20.291C111.819 20.357 112.128 20.429 112.362 20.507C112.602 20.579 112.806 20.705 112.974 20.885C113.142 21.065 113.226 21.317 113.226 21.641C113.226 22.073 113.04 22.418 112.668 22.676C112.302 22.928 111.801 23.054 111.165 23.054ZM114.512 23.054C114.344 23.054 114.2 22.997 114.08 22.883C113.96 22.763 113.9 22.613 113.9 22.433C113.9 22.259 113.96 22.115 114.08 22.001C114.2 21.881 114.344 21.821 114.512 21.821C114.68 21.821 114.821 21.878 114.935 21.992C115.049 22.106 115.106 22.253 115.106 22.433C115.106 22.613 115.046 22.763 114.926 22.883C114.812 22.997 114.674 23.054 114.512 23.054ZM118.318 23.054C117.832 23.054 117.397 22.949 117.013 22.739C116.635 22.529 116.338 22.241 116.122 21.875C115.906 21.503 115.798 21.083 115.798 20.615C115.798 20.147 115.906 19.73 116.122 19.364C116.338 18.992 116.635 18.704 117.013 18.5C117.397 18.29 117.832 18.185 118.318 18.185C118.75 18.185 119.134 18.272 119.47 18.446C119.812 18.62 120.076 18.872 120.262 19.202L119.605 19.625C119.455 19.397 119.269 19.226 119.047 19.112C118.825 18.998 118.579 18.941 118.309 18.941C117.997 18.941 117.715 19.01 117.463 19.148C117.217 19.286 117.022 19.484 116.878 19.742C116.74 19.994 116.671 20.285 116.671 20.615C116.671 20.951 116.74 21.248 116.878 21.506C117.022 21.758 117.217 21.953 117.463 22.091C117.715 22.229 117.997 22.298 118.309 22.298C118.579 22.298 118.825 22.241 119.047 22.127C119.269 22.013 119.455 21.842 119.605 21.614L120.262 22.028C120.076 22.358 119.812 22.613 119.47 22.793C119.134 22.967 118.75 23.054 118.318 23.054ZM123.353 23.054C122.879 23.054 122.453 22.949 122.075 22.739C121.697 22.529 121.4 22.241 121.184 21.875C120.974 21.503 120.869 21.083 120.869 20.615C120.869 20.147 120.974 19.73 121.184 19.364C121.4 18.992 121.697 18.704 122.075 18.5C122.453 18.29 122.879 18.185 123.353 18.185C123.827 18.185 124.25 18.29 124.622 18.5C125 18.704 125.294 18.992 125.504 19.364C125.72 19.73 125.828 20.147 125.828 20.615C125.828 21.083 125.72 21.503 125.504 21.875C125.294 22.241 125 22.529 124.622 22.739C124.25 22.949 123.827 23.054 123.353 23.054ZM123.353 22.298C123.659 22.298 123.932 22.229 124.172 22.091C124.418 21.947 124.61 21.749 124.748 21.497C124.886 21.239 124.955 20.945 124.955 20.615C124.955 20.285 124.886 19.994 124.748 19.742C124.61 19.484 124.418 19.286 124.172 19.148C123.932 19.01 123.659 18.941 123.353 18.941C123.047 18.941 122.771 19.01 122.525 19.148C122.285 19.286 122.093 19.484 121.949 19.742C121.811 19.994 121.742 20.285 121.742 20.615C121.742 20.945 121.811 21.239 121.949 21.497C122.093 21.749 122.285 21.947 122.525 22.091C122.771 22.229 123.047 22.298 123.353 22.298ZM132.99 18.185C133.59 18.185 134.064 18.359 134.412 18.707C134.766 19.055 134.943 19.571 134.943 20.255V23H134.079V20.354C134.079 19.892 133.971 19.544 133.755 19.31C133.545 19.076 133.242 18.959 132.846 18.959C132.408 18.959 132.06 19.097 131.802 19.373C131.544 19.643 131.415 20.033 131.415 20.543V23H130.551V20.354C130.551 19.892 130.443 19.544 130.227 19.31C130.017 19.076 129.714 18.959 129.318 18.959C128.88 18.959 128.532 19.097 128.274 19.373C128.016 19.643 127.887 20.033 127.887 20.543V23H127.023V18.23H127.851V18.941C128.025 18.695 128.253 18.509 128.535 18.383C128.817 18.251 129.138 18.185 129.498 18.185C129.87 18.185 130.2 18.26 130.488 18.41C130.776 18.56 130.998 18.779 131.154 19.067C131.334 18.791 131.583 18.575 131.901 18.419C132.225 18.263 132.588 18.185 132.99 18.185Z" fill="black"/>
<path d="M27.125 20.125H21.875C21.4608 20.125 21.125 20.4608 21.125 20.875V23.5C21.125 23.9142 21.4608 24.25 21.875 24.25H27.125C27.5392 24.25 27.875 23.9142 27.875 23.5V20.875C27.875 20.4608 27.5392 20.125 27.125 20.125Z" stroke="black" stroke-linecap="round" stroke-linejoin="round"/>
<path d="M22.625 20.125V18.625C22.625 18.1277 22.8225 17.6508 23.1742 17.2992C23.5258 16.9475 24.0027 16.75 24.5 16.75C24.9973 16.75 25.4742 16.9475 25.8258 17.2992C26.1775 17.6508 26.375 18.1277 26.375 18.625V20.125" stroke="black" stroke-linecap="round" stroke-linejoin="round"/>
<circle cx="113.905" cy="276.095" r="7.42857" fill="#DBDBDB"/>
<rect x="191.643" y="87.6428" width="121.857" height="222.143" rx="10.5" fill="white" stroke="#DBDBDB" stroke-width="3"/>
<path fill-rule="evenodd" clip-rule="evenodd" d="M254.433 202.606C254.433 202.991 254.353 203.336 254.193 203.638C254.033 203.939 253.814 204.191 253.535 204.394C253.255 204.597 252.925 204.75 252.546 204.854C252.167 204.957 251.753 205.009 251.304 205.009C250.924 205.009 250.512 204.967 250.069 204.883C249.624 204.799 249.237 204.687 248.907 204.549L249.207 203.106C249.527 203.234 249.856 203.336 250.195 203.411C250.535 203.485 250.879 203.522 251.229 203.522C251.568 203.522 251.85 203.473 252.075 203.374C252.3 203.275 252.411 203.096 252.411 202.838C252.411 202.61 252.302 202.444 252.082 202.34C251.862 202.236 251.573 202.109 251.214 201.96C250.924 201.841 250.645 201.72 250.375 201.596C250.106 201.472 249.868 201.324 249.664 201.15C249.46 200.977 249.295 200.773 249.17 200.54C249.045 200.307 248.983 200.017 248.983 199.67C248.983 199.293 249.055 198.966 249.2 198.689C249.345 198.41 249.544 198.183 249.799 198.004C250.053 197.826 250.352 197.692 250.697 197.602C251.041 197.513 251.413 197.469 251.812 197.469C252.232 197.469 252.633 197.506 253.018 197.581C253.402 197.656 253.774 197.79 254.134 197.98L253.819 199.432C253.53 199.304 253.227 199.197 252.913 199.112C252.599 199.028 252.282 198.986 251.963 198.986C251.673 198.986 251.441 199.018 251.266 199.082C251.092 199.146 251.004 199.283 251.004 199.49C251.004 199.688 251.109 199.837 251.319 199.935C251.528 200.034 251.778 200.148 252.067 200.277C252.277 200.365 252.519 200.467 252.793 200.58C253.068 200.694 253.325 200.84 253.564 201.018C253.804 201.197 254.009 201.412 254.178 201.664C254.348 201.916 254.433 202.23 254.433 202.606ZM244.147 199.046C243.867 199.046 243.617 199.087 243.398 199.172C243.178 199.256 242.973 199.379 242.783 199.538V203.314C242.904 203.373 243.048 203.418 243.218 203.447C243.388 203.478 243.572 203.492 243.772 203.492C244.131 203.492 244.438 203.435 244.693 203.32C244.947 203.207 245.155 203.048 245.315 202.843C245.474 202.639 245.591 202.398 245.666 202.119C245.741 201.841 245.779 201.537 245.779 201.209C245.779 200.572 245.646 200.053 245.381 199.65C245.118 199.247 244.705 199.046 244.147 199.046ZM240.733 194.36H242.783V198.212C243.003 197.994 243.268 197.816 243.577 197.677C243.887 197.538 244.267 197.469 244.715 197.469C245.195 197.469 245.626 197.56 246.011 197.744C246.395 197.928 246.722 198.183 246.991 198.509C247.261 198.837 247.468 199.228 247.613 199.685C247.758 200.141 247.83 200.637 247.83 201.172C247.83 201.727 247.745 202.241 247.575 202.712C247.405 203.183 247.151 203.589 246.812 203.932C246.472 204.273 246.045 204.538 245.532 204.727C245.017 204.915 244.421 205.009 243.742 205.009C243.184 205.009 242.649 204.95 242.14 204.831C241.631 204.712 241.162 204.553 240.733 204.355V194.36ZM235.357 203.627C235.647 203.627 235.917 203.577 236.165 203.478C236.415 203.379 236.635 203.254 236.825 203.106V201.96C236.615 201.981 236.39 202 236.151 202.02C235.911 202.04 235.691 202.064 235.492 202.094C235.192 202.144 234.953 202.226 234.773 202.34C234.593 202.454 234.504 202.645 234.504 202.912C234.504 203.15 234.58 203.329 234.736 203.447C234.891 203.567 235.098 203.627 235.357 203.627ZM236.899 204.087C236.63 204.345 236.306 204.563 235.926 204.742C235.547 204.92 235.108 205.009 234.609 205.009C234.289 205.009 234 204.957 233.74 204.853C233.481 204.749 233.261 204.605 233.081 204.422C232.902 204.239 232.762 204.023 232.662 203.775C232.562 203.527 232.512 203.254 232.512 202.957C232.512 202.293 232.737 201.787 233.186 201.44C233.635 201.093 234.25 200.894 235.028 200.845C235.327 200.825 235.636 200.81 235.956 200.8C236.276 200.79 236.565 200.781 236.825 200.771V200.518C236.825 200.051 236.71 199.697 236.48 199.454C236.251 199.211 235.891 199.09 235.402 199.09C235.023 199.09 234.664 199.135 234.325 199.224C233.984 199.313 233.686 199.427 233.425 199.566L233.021 198.138C233.401 197.919 233.82 197.754 234.28 197.64C234.738 197.526 235.233 197.469 235.762 197.469C236.73 197.469 237.491 197.731 238.045 198.257C238.599 198.783 238.876 199.561 238.876 200.592V204.861H236.899V204.087ZM230.386 202.764C230.386 202.991 230.434 203.163 230.529 203.277C230.623 203.391 230.786 203.447 231.015 203.447C231.105 203.447 231.199 203.443 231.299 203.433C231.399 203.423 231.494 203.408 231.584 203.388L231.659 204.816C231.489 204.865 231.28 204.908 231.03 204.943C230.781 204.977 230.536 204.994 230.296 204.994C229.927 204.994 229.618 204.937 229.368 204.823C229.119 204.709 228.916 204.556 228.761 204.362C228.607 204.169 228.497 203.951 228.432 203.708C228.368 203.466 228.335 203.215 228.335 202.957V194.36H230.386V202.764ZM270.285 184.053H272.33V182.179H274.382V184.053H276.568V185.644H274.382V188.753C274.382 189.09 274.445 189.358 274.569 189.556C274.693 189.754 274.941 189.854 275.31 189.854C275.7 189.854 276.069 189.799 276.419 189.69L276.568 191.133C276.348 191.222 276.074 191.296 275.745 191.356C275.416 191.416 275.086 191.445 274.756 191.445C274.317 191.445 273.945 191.378 273.641 191.244C273.336 191.11 273.087 190.924 272.892 190.686C272.698 190.448 272.556 190.171 272.465 189.854C272.375 189.536 272.33 189.189 272.33 188.813V185.644H269.439L270.285 184.053V184.053ZM263.841 191.296V180.796H265.892V187.459L268.318 184.053H270.594L268.003 187.623L270.953 191.296H268.512L265.892 187.771V191.296H263.841ZM259.245 185.273C258.825 185.273 258.504 185.419 258.278 185.711C258.054 186.003 257.922 186.373 257.882 186.819H260.383C260.433 186.353 260.362 185.979 260.172 185.696C259.983 185.414 259.674 185.273 259.245 185.273ZM259.364 183.904C259.843 183.904 260.27 183.978 260.644 184.127C261.019 184.276 261.33 184.487 261.58 184.76C261.829 185.032 262.019 185.36 262.149 185.741C262.279 186.123 262.344 186.552 262.344 187.028C262.344 187.226 262.331 187.427 262.306 187.63C262.281 187.833 262.244 188.019 262.194 188.187H257.867C257.888 188.719 258.051 189.141 258.361 189.456C258.671 189.771 259.165 189.927 259.844 189.927C260.233 189.927 260.612 189.892 260.981 189.82C261.351 189.748 261.68 189.646 261.97 189.511L262.225 190.895C261.865 191.073 261.456 191.21 260.997 191.303C260.537 191.398 260.064 191.445 259.574 191.445C258.965 191.445 258.426 191.356 257.958 191.177C257.488 190.998 257.091 190.746 256.766 190.419C256.442 190.091 256.195 189.698 256.025 189.236C255.855 188.775 255.771 188.267 255.771 187.711C255.771 187.147 255.853 186.628 256.018 186.157C256.183 185.687 256.42 185.285 256.729 184.953C257.039 184.621 257.416 184.363 257.86 184.179C258.304 183.996 258.805 183.904 259.365 183.904H259.364ZM251.114 185.495C250.785 185.495 250.498 185.565 250.253 185.704C250.008 185.843 249.816 185.996 249.676 186.164V189.75C249.805 189.799 249.956 189.836 250.126 189.861C250.295 189.886 250.475 189.898 250.665 189.898C251.363 189.898 251.872 189.685 252.192 189.258C252.511 188.832 252.671 188.282 252.671 187.608C252.671 187.003 252.544 186.5 252.29 186.098C252.035 185.696 251.642 185.495 251.114 185.495ZM247.625 184.053H249.586V184.975C249.826 184.648 250.126 184.388 250.485 184.194C250.844 184.001 251.283 183.904 251.802 183.904C252.242 183.904 252.641 183.993 253 184.172C253.36 184.35 253.667 184.601 253.921 184.923C254.176 185.245 254.373 185.632 254.513 186.083C254.653 186.535 254.722 187.038 254.722 187.592C254.722 188.217 254.622 188.77 254.423 189.251C254.223 189.732 253.954 190.136 253.614 190.463C253.275 190.791 252.878 191.036 252.424 191.2C251.969 191.364 251.483 191.445 250.964 191.445C250.694 191.445 250.455 191.428 250.245 191.393C250.036 191.358 249.846 191.316 249.676 191.267V194.36H247.625V184.053ZM246.232 189.042C246.232 189.427 246.152 189.771 245.993 190.073C245.833 190.374 245.614 190.627 245.334 190.83C245.054 191.032 244.725 191.185 244.346 191.289C243.966 191.393 243.552 191.445 243.104 191.445C242.724 191.445 242.312 191.403 241.868 191.319C241.424 191.234 241.037 191.123 240.707 190.984L241.007 189.541C241.327 189.67 241.655 189.772 241.995 189.846C242.335 189.92 242.679 189.958 243.028 189.958C243.368 189.958 243.65 189.908 243.874 189.809C244.099 189.71 244.211 189.531 244.211 189.273C244.211 189.045 244.101 188.879 243.882 188.775C243.662 188.671 243.373 188.544 243.013 188.395C242.724 188.277 242.445 188.156 242.175 188.031C241.905 187.908 241.668 187.759 241.464 187.585C241.259 187.412 241.095 187.209 240.97 186.975C240.845 186.743 240.783 186.453 240.783 186.105C240.783 185.729 240.855 185.401 240.999 185.123C241.144 184.846 241.344 184.618 241.599 184.44C241.853 184.261 242.152 184.127 242.497 184.038C242.841 183.948 243.213 183.904 243.612 183.904C244.032 183.904 244.433 183.942 244.818 184.016C245.202 184.092 245.574 184.225 245.933 184.415L245.619 185.867C245.329 185.739 245.027 185.632 244.713 185.548C244.398 185.464 244.081 185.421 243.762 185.421C243.473 185.421 243.24 185.454 243.066 185.518C242.891 185.582 242.804 185.718 242.804 185.925C242.804 186.124 242.909 186.272 243.118 186.371C243.328 186.469 243.577 186.584 243.867 186.712C244.076 186.801 244.319 186.903 244.593 187.016C244.867 187.13 245.125 187.275 245.364 187.454C245.604 187.632 245.808 187.847 245.978 188.099C246.147 188.351 246.232 188.666 246.232 189.042ZM232.533 191.296V184.053H234.509V185.034C234.749 184.648 235.053 184.363 235.422 184.179C235.792 183.996 236.196 183.904 236.635 183.904C237.104 183.904 237.506 184.003 237.84 184.201C238.174 184.4 238.446 184.666 238.656 184.997C238.866 185.33 239.021 185.717 239.12 186.157C239.22 186.599 239.27 187.057 239.27 187.533V191.296H237.219V187.519C237.219 186.864 237.116 186.368 236.912 186.031C236.707 185.694 236.37 185.526 235.901 185.526C235.602 185.526 235.342 185.595 235.123 185.734C234.903 185.872 234.723 186.036 234.583 186.225V191.296H232.533ZM228.34 191.296H230.436V181.39H228.34V191.296Z" fill="#DBDBDB"/>
<path fill-rule="evenodd" clip-rule="evenodd" d="M221.619 174.892V186.514L223.347 184.798V176.608H231.592L233.319 174.892H221.619Z" fill="#DBDBDB"/>
<path fill-rule="evenodd" clip-rule="evenodd" d="M281.555 201.759V209.948H273.31L271.582 211.665H283.282V200.043L281.555 201.759Z" fill="#DBDBDB"/>
<rect x="201.809" y="97.8096" width="102.762" height="16.0952" rx="8.04762" fill="#F3F3F3"/>
<path d="M225.144 103.76L223.56 108H222.824L221.6 104.784L220.36 108H219.624L218.048 103.76H218.776L220.008 107.136L221.288 103.76H221.936L223.192 107.152L224.456 103.76H225.144ZM232.277 103.76L230.693 108H229.957L228.733 104.784L227.493 108H226.757L225.181 103.76H225.909L227.141 107.136L228.421 103.76H229.069L230.325 107.152L231.589 103.76H232.277ZM239.41 103.76L237.826 108H237.09L235.866 104.784L234.626 108H233.89L232.314 103.76H233.042L234.274 107.136L235.554 103.76H236.202L237.458 107.152L238.722 103.76H239.41ZM240.107 108.048C239.958 108.048 239.83 107.997 239.723 107.896C239.617 107.789 239.563 107.656 239.563 107.496C239.563 107.341 239.617 107.213 239.723 107.112C239.83 107.005 239.958 106.952 240.107 106.952C240.257 106.952 240.382 107.003 240.483 107.104C240.585 107.205 240.635 107.336 240.635 107.496C240.635 107.656 240.582 107.789 240.475 107.896C240.374 107.997 240.251 108.048 240.107 108.048ZM241.736 103.76H242.504V108H241.736V103.76ZM242.12 102.944C241.97 102.944 241.845 102.896 241.744 102.8C241.648 102.704 241.6 102.587 241.6 102.448C241.6 102.309 241.648 102.192 241.744 102.096C241.845 101.995 241.97 101.944 242.12 101.944C242.269 101.944 242.392 101.992 242.488 102.088C242.589 102.179 242.64 102.293 242.64 102.432C242.64 102.576 242.589 102.699 242.488 102.8C242.392 102.896 242.269 102.944 242.12 102.944ZM246.234 103.72C246.773 103.72 247.2 103.877 247.514 104.192C247.834 104.501 247.994 104.957 247.994 105.56V108H247.226V105.648C247.226 105.237 247.128 104.928 246.93 104.72C246.733 104.512 246.45 104.408 246.082 104.408C245.666 104.408 245.338 104.531 245.098 104.776C244.858 105.016 244.738 105.363 244.738 105.816V108H243.97V103.76H244.706V104.4C244.861 104.181 245.069 104.013 245.33 103.896C245.597 103.779 245.898 103.72 246.234 103.72ZM250.632 108.048C250.285 108.048 249.952 108.003 249.632 107.912C249.312 107.816 249.061 107.696 248.88 107.552L249.2 106.944C249.386 107.077 249.613 107.184 249.88 107.264C250.146 107.344 250.416 107.384 250.688 107.384C251.36 107.384 251.696 107.192 251.696 106.808C251.696 106.68 251.65 106.579 251.56 106.504C251.469 106.429 251.354 106.376 251.216 106.344C251.082 106.307 250.89 106.267 250.64 106.224C250.298 106.171 250.018 106.109 249.8 106.04C249.586 105.971 249.402 105.853 249.248 105.688C249.093 105.523 249.016 105.291 249.016 104.992C249.016 104.608 249.176 104.301 249.496 104.072C249.816 103.837 250.245 103.72 250.784 103.72C251.066 103.72 251.349 103.755 251.632 103.824C251.914 103.893 252.146 103.987 252.328 104.104L252 104.712C251.653 104.488 251.245 104.376 250.776 104.376C250.45 104.376 250.202 104.429 250.032 104.536C249.861 104.643 249.776 104.784 249.776 104.96C249.776 105.099 249.824 105.208 249.92 105.288C250.016 105.368 250.133 105.427 250.272 105.464C250.416 105.501 250.616 105.544 250.872 105.592C251.213 105.651 251.488 105.715 251.696 105.784C251.909 105.848 252.09 105.96 252.24 106.12C252.389 106.28 252.464 106.504 252.464 106.792C252.464 107.176 252.298 107.483 251.968 107.712C251.642 107.936 251.197 108.048 250.632 108.048ZM255.671 103.72C256.082 103.72 256.45 103.811 256.775 103.992C257.101 104.173 257.354 104.427 257.535 104.752C257.722 105.077 257.815 105.453 257.815 105.88C257.815 106.307 257.722 106.685 257.535 107.016C257.354 107.341 257.101 107.595 256.775 107.776C256.45 107.957 256.082 108.048 255.671 108.048C255.367 108.048 255.087 107.989 254.831 107.872C254.581 107.755 254.367 107.584 254.191 107.36V109.552H253.423V103.76H254.159V104.432C254.33 104.197 254.546 104.021 254.807 103.904C255.069 103.781 255.357 103.72 255.671 103.72ZM255.607 107.376C255.879 107.376 256.122 107.315 256.335 107.192C256.554 107.064 256.725 106.888 256.847 106.664C256.975 106.435 257.039 106.173 257.039 105.88C257.039 105.587 256.975 105.328 256.847 105.104C256.725 104.875 256.554 104.699 256.335 104.576C256.122 104.453 255.879 104.392 255.607 104.392C255.341 104.392 255.098 104.456 254.879 104.584C254.666 104.707 254.495 104.88 254.367 105.104C254.245 105.328 254.183 105.587 254.183 105.88C254.183 106.173 254.245 106.435 254.367 106.664C254.49 106.888 254.661 107.064 254.879 107.192C255.098 107.315 255.341 107.376 255.607 107.376ZM262.708 105.904C262.708 105.963 262.703 106.04 262.692 106.136H259.252C259.3 106.509 259.463 106.811 259.74 107.04C260.023 107.264 260.372 107.376 260.788 107.376C261.295 107.376 261.703 107.205 262.012 106.864L262.436 107.36C262.244 107.584 262.004 107.755 261.716 107.872C261.434 107.989 261.116 108.048 260.764 108.048C260.316 108.048 259.919 107.957 259.572 107.776C259.226 107.589 258.956 107.331 258.764 107C258.578 106.669 258.484 106.296 258.484 105.88C258.484 105.469 258.575 105.099 258.756 104.768C258.943 104.437 259.196 104.181 259.516 104C259.842 103.813 260.207 103.72 260.612 103.72C261.018 103.72 261.378 103.813 261.692 104C262.012 104.181 262.26 104.437 262.436 104.768C262.618 105.099 262.708 105.477 262.708 105.904ZM260.612 104.368C260.244 104.368 259.935 104.48 259.684 104.704C259.439 104.928 259.295 105.221 259.252 105.584H261.972C261.93 105.227 261.783 104.936 261.532 104.712C261.287 104.483 260.98 104.368 260.612 104.368ZM265.423 106.024L264.543 106.84V108H263.775V102.064H264.543V105.872L266.855 103.76H267.783L265.999 105.512L267.959 108H267.015L265.423 106.024ZM271.089 107.752C270.977 107.848 270.838 107.923 270.673 107.976C270.507 108.024 270.337 108.048 270.161 108.048C269.734 108.048 269.403 107.933 269.169 107.704C268.934 107.475 268.817 107.147 268.817 106.72V104.392H268.097V103.76H268.817V102.832H269.585V103.76H270.801V104.392H269.585V106.688C269.585 106.917 269.641 107.093 269.753 107.216C269.87 107.339 270.035 107.4 270.249 107.4C270.483 107.4 270.683 107.333 270.849 107.2L271.089 107.752ZM272.017 102.064H272.785V108H272.017V102.064ZM275.795 103.72C276.382 103.72 276.83 103.864 277.139 104.152C277.454 104.44 277.611 104.869 277.611 105.44V108H276.883V107.44C276.755 107.637 276.571 107.789 276.331 107.896C276.097 107.997 275.817 108.048 275.491 108.048C275.017 108.048 274.635 107.933 274.347 107.704C274.065 107.475 273.923 107.173 273.923 106.8C273.923 106.427 274.059 106.128 274.331 105.904C274.603 105.675 275.035 105.56 275.627 105.56H276.843V105.408C276.843 105.077 276.747 104.824 276.555 104.648C276.363 104.472 276.081 104.384 275.707 104.384C275.457 104.384 275.211 104.427 274.971 104.512C274.731 104.592 274.529 104.701 274.363 104.84L274.043 104.264C274.262 104.088 274.523 103.955 274.827 103.864C275.131 103.768 275.454 103.72 275.795 103.72ZM275.619 107.456C275.913 107.456 276.166 107.392 276.379 107.264C276.593 107.131 276.747 106.944 276.843 106.704V106.112H275.659C275.009 106.112 274.683 106.331 274.683 106.768C274.683 106.981 274.766 107.149 274.931 107.272C275.097 107.395 275.326 107.456 275.619 107.456ZM281.281 103.72C281.691 103.72 282.059 103.811 282.385 103.992C282.71 104.173 282.963 104.427 283.145 104.752C283.331 105.077 283.425 105.453 283.425 105.88C283.425 106.307 283.331 106.685 283.145 107.016C282.963 107.341 282.71 107.595 282.385 107.776C282.059 107.957 281.691 108.048 281.281 108.048C280.966 108.048 280.678 107.987 280.417 107.864C280.155 107.741 279.939 107.563 279.769 107.328V108H279.033V102.064H279.801V104.4C279.971 104.176 280.185 104.008 280.441 103.896C280.697 103.779 280.977 103.72 281.281 103.72ZM281.217 107.376C281.489 107.376 281.731 107.315 281.945 107.192C282.163 107.064 282.334 106.888 282.457 106.664C282.585 106.435 282.649 106.173 282.649 105.88C282.649 105.587 282.585 105.328 282.457 105.104C282.334 104.875 282.163 104.699 281.945 104.576C281.731 104.453 281.489 104.392 281.217 104.392C280.95 104.392 280.707 104.453 280.489 104.576C280.27 104.699 280.099 104.875 279.977 105.104C279.854 105.328 279.793 105.587 279.793 105.88C279.793 106.173 279.854 106.435 279.977 106.664C280.099 106.888 280.27 107.064 280.489 107.192C280.707 107.315 280.95 107.376 281.217 107.376ZM285.702 108.048C285.355 108.048 285.022 108.003 284.702 107.912C284.382 107.816 284.131 107.696 283.95 107.552L284.27 106.944C284.456 107.077 284.683 107.184 284.95 107.264C285.216 107.344 285.486 107.384 285.758 107.384C286.43 107.384 286.766 107.192 286.766 106.808C286.766 106.68 286.72 106.579 286.63 106.504C286.539 106.429 286.424 106.376 286.286 106.344C286.152 106.307 285.96 106.267 285.71 106.224C285.368 106.171 285.088 106.109 284.87 106.04C284.656 105.971 284.472 105.853 284.318 105.688C284.163 105.523 284.086 105.291 284.086 104.992C284.086 104.608 284.246 104.301 284.566 104.072C284.886 103.837 285.315 103.72 285.854 103.72C286.136 103.72 286.419 103.755 286.702 103.824C286.984 103.893 287.216 103.987 287.398 104.104L287.07 104.712C286.723 104.488 286.315 104.376 285.846 104.376C285.52 104.376 285.272 104.429 285.102 104.536C284.931 104.643 284.846 104.784 284.846 104.96C284.846 105.099 284.894 105.208 284.99 105.288C285.086 105.368 285.203 105.427 285.342 105.464C285.486 105.501 285.686 105.544 285.942 105.592C286.283 105.651 286.558 105.715 286.766 105.784C286.979 105.848 287.16 105.96 287.31 106.12C287.459 106.28 287.534 106.504 287.534 106.792C287.534 107.176 287.368 107.483 287.038 107.712C286.712 107.936 286.267 108.048 285.702 108.048ZM288.678 108.048C288.528 108.048 288.4 107.997 288.294 107.896C288.187 107.789 288.134 107.656 288.134 107.496C288.134 107.341 288.187 107.213 288.294 107.112C288.4 107.005 288.528 106.952 288.678 106.952C288.827 106.952 288.952 107.003 289.054 107.104C289.155 107.205 289.206 107.336 289.206 107.496C289.206 107.656 289.152 107.789 289.046 107.896C288.944 107.997 288.822 108.048 288.678 108.048ZM292.06 108.048C291.628 108.048 291.242 107.955 290.9 107.768C290.564 107.581 290.3 107.325 290.108 107C289.916 106.669 289.82 106.296 289.82 105.88C289.82 105.464 289.916 105.093 290.108 104.768C290.3 104.437 290.564 104.181 290.9 104C291.242 103.813 291.628 103.72 292.06 103.72C292.444 103.72 292.786 103.797 293.084 103.952C293.388 104.107 293.623 104.331 293.788 104.624L293.204 105C293.071 104.797 292.906 104.645 292.708 104.544C292.511 104.443 292.292 104.392 292.052 104.392C291.775 104.392 291.524 104.453 291.3 104.576C291.082 104.699 290.908 104.875 290.78 105.104C290.658 105.328 290.596 105.587 290.596 105.88C290.596 106.179 290.658 106.443 290.78 106.672C290.908 106.896 291.082 107.069 291.3 107.192C291.524 107.315 291.775 107.376 292.052 107.376C292.292 107.376 292.511 107.325 292.708 107.224C292.906 107.123 293.071 106.971 293.204 106.768L293.788 107.136C293.623 107.429 293.388 107.656 293.084 107.816C292.786 107.971 292.444 108.048 292.06 108.048ZM295.123 108.048C294.974 108.048 294.846 107.997 294.739 107.896C294.632 107.789 294.579 107.656 294.579 107.496C294.579 107.341 294.632 107.213 294.739 107.112C294.846 107.005 294.974 106.952 295.123 106.952C295.272 106.952 295.398 107.003 295.499 107.104C295.6 107.205 295.651 107.336 295.651 107.496C295.651 107.656 295.598 107.789 295.491 107.896C295.39 107.997 295.267 108.048 295.123 108.048ZM296.935 108.048C296.786 108.048 296.658 107.997 296.551 107.896C296.445 107.789 296.391 107.656 296.391 107.496C296.391 107.341 296.445 107.213 296.551 107.112C296.658 107.005 296.786 106.952 296.935 106.952C297.085 106.952 297.21 107.003 297.311 107.104C297.413 107.205 297.463 107.336 297.463 107.496C297.463 107.656 297.41 107.789 297.303 107.896C297.202 107.997 297.079 108.048 296.935 108.048ZM298.748 108.048C298.599 108.048 298.471 107.997 298.364 107.896C298.257 107.789 298.204 107.656 298.204 107.496C298.204 107.341 298.257 107.213 298.364 107.112C298.471 107.005 298.599 106.952 298.748 106.952C298.897 106.952 299.023 107.003 299.124 107.104C299.225 107.205 299.276 107.336 299.276 107.496C299.276 107.656 299.223 107.789 299.116 107.896C299.015 107.997 298.892 108.048 298.748 108.048Z" fill="black"/>
<path d="M213.542 105.208H209.458C209.136 105.208 208.875 105.469 208.875 105.792V107.833C208.875 108.155 209.136 108.417 209.458 108.417H213.542C213.864 108.417 214.125 108.155 214.125 107.833V105.792C214.125 105.469 213.864 105.208 213.542 105.208Z" stroke="black" stroke-linecap="round" stroke-linejoin="round"/>
<path d="M210.042 105.208V104.042C210.042 103.655 210.195 103.284 210.469 103.01C210.742 102.737 211.113 102.583 211.5 102.583C211.887 102.583 212.258 102.737 212.531 103.01C212.805 103.284 212.958 103.655 212.958 104.042V105.208" stroke="black" stroke-linecap="round" stroke-linejoin="round"/>
<circle cx="252.571" cy="290.952" r="7.42857" fill="#DBDBDB"/>
</g>
<defs>
<clipPath id="clip0">
<rect width="312" height="308.286" fill="white"/>
</clipPath>
</defs>
</svg>
