<svg width="303" height="203" viewBox="0 0 303 203" fill="none" xmlns="http://www.w3.org/2000/svg">
<g clip-path="url(#clip0_1059_7603)">
<path d="M209.934 186.002V169.881L226.042 165.465L242.051 168.514L258.06 158.048L274.069 159.771L290.078 149.426V186.002H209.934Z" fill="#E2EAFF"/>
<path d="M293.096 187.919H206.915C206.781 187.919 206.672 187.81 206.672 187.675V152.11C206.672 151.975 206.781 151.866 206.915 151.866C207.049 151.866 207.158 151.975 207.158 152.11V187.431H293.096C293.23 187.431 293.339 187.54 293.339 187.675C293.339 187.81 293.23 187.919 293.096 187.919H293.096Z" fill="black"/>
<path d="M293.014 116.325H206.914V121.685H293.014V116.325Z" fill="#E2EAFF"/>
<path d="M293.014 125.949H206.914V131.309H293.014V125.949Z" fill="#E2EAFF"/>
<path d="M293.014 135.632H206.914V140.992H293.014V135.632Z" fill="#E2EAFF"/>
<path d="M293.014 106.779H206.914V112.139H293.014V106.779Z" fill="#E2EAFF"/>
<path d="M283.384 116.325H206.914V121.685H283.384V116.325Z" fill="#195DFF"/>
<path d="M242.597 125.949H206.914V131.309H242.597V125.949Z" fill="#195DFF"/>
<path d="M252.227 135.632H206.914V140.992H252.227V135.632Z" fill="#195DFF"/>
<path d="M272.394 106.779H206.914V112.139H272.394V106.779Z" fill="#195DFF"/>
<path d="M302.756 67.8373H290.597C290.462 67.8373 290.354 67.7281 290.354 67.5931C290.354 67.4581 290.462 67.3488 290.597 67.3488H302.756C302.89 67.3488 302.999 67.4581 302.999 67.5931C302.999 67.7281 302.89 67.8373 302.756 67.8373ZM278.438 67.8373H266.279C266.144 67.8373 266.036 67.7281 266.036 67.5931C266.036 67.4581 266.144 67.3488 266.279 67.3488H278.438C278.572 67.3488 278.681 67.4581 278.681 67.5931C278.681 67.7281 278.572 67.8373 278.438 67.8373ZM254.12 67.8373H241.961C241.827 67.8373 241.718 67.7281 241.718 67.5931C241.718 67.4581 241.827 67.3488 241.961 67.3488H254.12C254.254 67.3488 254.363 67.4581 254.363 67.5931C254.363 67.7281 254.254 67.8373 254.12 67.8373ZM229.802 67.8373H217.643C217.509 67.8373 217.4 67.7281 217.4 67.5931C217.4 67.4581 217.509 67.3488 217.643 67.3488H229.802C229.936 67.3488 230.045 67.4581 230.045 67.5931C230.045 67.7281 229.936 67.8373 229.802 67.8373ZM205.484 67.8373H193.325C193.191 67.8373 193.082 67.7281 193.082 67.5931C193.082 67.4581 193.191 67.3488 193.325 67.3488H205.484C205.619 67.3488 205.727 67.4581 205.727 67.5931C205.727 67.7281 205.619 67.8373 205.484 67.8373ZM181.166 67.8373H169.008C168.873 67.8373 168.764 67.7281 168.764 67.5931C168.764 67.4581 168.873 67.3488 169.008 67.3488H181.166C181.301 67.3488 181.41 67.4581 181.41 67.5931C181.41 67.7281 181.301 67.8373 181.166 67.8373ZM156.849 67.8373H144.69C144.555 67.8373 144.447 67.7281 144.447 67.5931C144.447 67.4581 144.555 67.3488 144.69 67.3488H156.849C156.983 67.3488 157.092 67.4581 157.092 67.5931C157.092 67.7281 156.983 67.8373 156.849 67.8373ZM132.531 67.8373H120.372C120.238 67.8373 120.129 67.7281 120.129 67.5931C120.129 67.4581 120.238 67.3488 120.372 67.3488H132.531C132.665 67.3488 132.774 67.4581 132.774 67.5931C132.774 67.7281 132.665 67.8373 132.531 67.8373ZM108.213 67.8373H96.0541C95.9197 67.8373 95.811 67.7281 95.811 67.5931C95.811 67.4581 95.9197 67.3488 96.0541 67.3488H108.213C108.347 67.3488 108.456 67.4581 108.456 67.5931C108.456 67.7281 108.347 67.8373 108.213 67.8373ZM84.4658 67.264C84.3314 67.264 84.2227 67.1548 84.2227 67.0198V54.8056C84.2227 54.6706 84.3314 54.5614 84.4658 54.5614C84.6002 54.5614 84.709 54.6706 84.709 54.8056V67.0198C84.709 67.1548 84.6002 67.264 84.4658 67.264ZM84.4658 42.8356C84.3314 42.8356 84.2227 42.7263 84.2227 42.5913V30.3772C84.2227 30.2422 84.3314 30.1329 84.4658 30.1329C84.6002 30.1329 84.709 30.2422 84.709 30.3772V42.5913C84.709 42.7263 84.6002 42.8356 84.4658 42.8356ZM84.4658 18.4073C84.3314 18.4073 84.2227 18.298 84.2227 18.163V5.94873C84.2227 5.81373 84.3314 5.70447 84.4658 5.70447C84.6002 5.70447 84.709 5.81373 84.709 5.94873V18.1629C84.709 18.2979 84.6002 18.4073 84.4658 18.4073Z" fill="#195DFF"/>
<path d="M268.748 43.117L267.116 42.0808C259.475 37.2267 250.841 34.1679 241.859 33.1324L225.889 31.2914L207.912 19.7259C205.352 18.0789 202.414 17.1164 199.378 16.9447C187.584 16.2778 156.529 16.9187 128.504 38.1901C127.916 38.6364 127.568 39.3332 127.568 40.0735V52.2794C127.568 53.2904 128.211 54.1887 129.164 54.5115L149.903 61.5312H260.396C263.733 61.5312 266.718 59.4491 267.885 56.3086L270.663 48.8295C271.45 46.7099 270.651 44.326 268.748 43.1169V43.117Z" fill="#195DFF"/>
<path d="M203.729 18.5952L223.464 31.2916C223.464 31.2916 203.678 36.7787 160.83 32.5109C160.83 32.5109 173.019 20.3022 203.729 18.5952Z" fill="black"/>
<path d="M164.594 64.3104C168.951 59.9337 168.951 52.8378 164.594 48.4611C160.237 44.0844 153.173 44.0844 148.817 48.4611C144.46 52.8378 144.46 59.9337 148.817 64.3104C153.173 68.6871 160.237 68.6871 164.594 64.3104Z" fill="black"/>
<path d="M156.704 60.8604C154.248 60.8604 152.25 58.8532 152.25 56.3858C152.25 53.9184 154.248 51.9111 156.704 51.9111C159.161 51.9111 161.159 53.9184 161.159 56.3858C161.159 58.8532 159.161 60.8604 156.704 60.8604ZM156.704 52.3997C154.517 52.3997 152.736 54.1878 152.736 56.3858C152.736 58.5837 154.517 60.3719 156.704 60.3719C158.892 60.3719 160.672 58.5837 160.672 56.3858C160.672 54.1878 158.892 52.3997 156.704 52.3997Z" fill="white"/>
<path d="M260.382 57.0053C260.723 50.8252 256.012 45.5378 249.86 45.1956C243.707 44.8533 238.444 49.5858 238.103 55.7658C237.763 61.9459 242.474 67.2333 248.626 67.5756C254.778 67.9178 260.041 63.1854 260.382 57.0053Z" fill="black"/>
<path d="M249.243 60.8604C246.787 60.8604 244.789 58.8532 244.789 56.3858C244.789 53.9184 246.787 51.9111 249.243 51.9111C251.7 51.9111 253.698 53.9184 253.698 56.3858C253.698 58.8532 251.7 60.8604 249.243 60.8604ZM249.243 52.3997C247.056 52.3997 245.275 54.1878 245.275 56.3858C245.275 58.5837 247.055 60.3719 249.243 60.3719C251.431 60.3719 253.212 58.5837 253.212 56.3858C253.212 54.1878 251.431 52.3997 249.243 52.3997Z" fill="white"/>
<path d="M251.492 36.7587L253.002 40.4819C253.765 42.3655 255.588 43.597 257.613 43.597H267.399C262.314 40.4281 257.051 37.9857 251.492 36.7588V36.7587Z" fill="white"/>
<path d="M264.077 56.6298C263.943 56.6298 263.834 56.5205 263.834 56.3855V48.6147C263.834 48.4797 263.943 48.3705 264.077 48.3705H268.782C268.916 48.3705 269.025 48.4797 269.025 48.6147C269.025 48.7497 268.916 48.859 268.782 48.859H264.32V56.3855C264.32 56.5205 264.212 56.6298 264.077 56.6298Z" fill="black"/>
<path d="M230.531 51.1007C230.488 51.1007 230.444 51.089 230.404 51.0644L226.836 48.8591H172.028C171.894 48.8591 171.785 48.7499 171.785 48.6149C171.785 48.4799 171.894 48.3706 172.028 48.3706H226.905C226.95 48.3706 226.994 48.3833 227.033 48.4069L230.659 50.6484C230.773 50.7191 230.809 50.8696 230.738 50.9845C230.692 51.0594 230.613 51.1007 230.531 51.1007Z" fill="black"/>
<path d="M230.531 55.5069C230.488 55.5069 230.444 55.4953 230.404 55.4707L226.836 53.2654H172.028C171.894 53.2654 171.785 53.1561 171.785 53.0211C171.785 52.8861 171.894 52.7769 172.028 52.7769H226.905C226.95 52.7769 226.994 52.7895 227.033 52.8131L230.659 55.0547C230.773 55.1252 230.809 55.2758 230.738 55.3908C230.692 55.4657 230.613 55.5069 230.531 55.5069Z" fill="black"/>
<path d="M130.07 40.1777H145.548L144.119 41.8792C142.362 43.9714 139.776 45.1786 137.051 45.1786H130.07V40.1777Z" fill="white"/>
<path d="M302.756 75.1937H72.0751C71.9407 75.1937 71.8319 75.0842 71.8319 74.9494V20.9672H12.0186C11.8842 20.9672 11.7754 20.8579 11.7754 20.7229C11.7754 20.5879 11.8842 20.4786 12.0186 20.4786H72.0751C72.2092 20.4786 72.3182 20.5879 72.3182 20.7229V74.7052H302.756C302.89 74.7052 302.999 74.8146 302.999 74.9494C302.999 75.0842 302.89 75.1937 302.756 75.1937Z" fill="black"/>
<path d="M143.441 20.9672H94.7373C94.6029 20.9672 94.4941 20.8579 94.4941 20.7229C94.4941 20.5879 94.6029 20.4786 94.7373 20.4786H143.441C143.575 20.4786 143.684 20.5879 143.684 20.7229C143.684 20.8579 143.575 20.9672 143.441 20.9672Z" fill="#E2EAFF"/>
<path d="M160.665 14.8138H111.962C111.828 14.8138 111.719 14.7046 111.719 14.5696C111.719 14.4346 111.828 14.3253 111.962 14.3253H160.665C160.8 14.3253 160.908 14.4346 160.908 14.5696C160.908 14.7046 160.8 14.8138 160.665 14.8138Z" fill="#E2EAFF"/>
<path d="M171.28 123.866C173.295 126.937 176.035 129.469 179.11 131.447C182.297 133.504 185.846 134.994 189.485 136.054C190.221 136.267 190.973 136.459 191.71 136.639C195.186 127.812 198.018 118.493 198.018 118.493C201.233 116.56 201.811 115.34 201.811 115.34C204.975 109.521 201.356 108.781 201.356 108.781C202.631 102.517 197.532 103.923 197.532 103.923C198.418 98.7869 193.41 98.3601 193.41 98.3601C198.773 91.9591 200.228 85.5579 196.96 85.9121C194.44 86.1852 183.102 98.2023 178.05 103.675C176.452 105.408 175.109 107.361 174.062 109.475L169.068 119.543C169.648 121.06 170.39 122.51 171.28 123.866Z" fill="white"/>
<path d="M185.65 108.036C184.969 108.036 184.288 107.991 183.61 107.903C183.477 107.886 183.383 107.763 183.4 107.629C183.417 107.495 183.538 107.399 183.673 107.419C186.32 107.764 189.024 107.409 191.494 106.391C192.432 106 194.026 105.13 194.153 103.704C194.235 102.768 193.59 101.751 192.584 101.229C191.584 100.711 190.411 100.662 189.394 100.684C186.165 100.75 182.927 101.543 180.03 102.979C179.91 103.038 179.764 102.988 179.705 102.868C179.645 102.747 179.695 102.6 179.815 102.541C182.775 101.074 186.084 100.263 189.384 100.196C190.459 100.174 191.71 100.227 192.806 100.795C193.802 101.31 194.754 102.424 194.637 103.748C194.495 105.345 192.95 106.313 191.679 106.843C189.763 107.632 187.711 108.035 185.65 108.036Z" fill="black"/>
<path d="M188.138 115.256C187.565 115.256 187.012 115.011 186.626 114.579C186.193 114.027 186.179 113.295 186.205 112.792C186.318 110.844 187.095 108.972 188.392 107.521C188.482 107.421 188.636 107.412 188.736 107.502C188.836 107.593 188.844 107.747 188.754 107.847C187.53 109.216 186.797 110.982 186.691 112.819C186.669 113.242 186.676 113.854 186.999 114.265C187.316 114.62 187.803 114.809 188.292 114.76C188.819 114.704 189.323 114.545 189.787 114.286C193.631 112.343 196.332 108.812 197.206 104.592C197.233 104.46 197.36 104.375 197.494 104.402C197.625 104.43 197.71 104.559 197.682 104.691C196.777 109.058 193.982 112.712 190.015 114.717C189.501 115.004 188.935 115.183 188.342 115.245C188.273 115.253 188.205 115.256 188.138 115.256V115.256Z" fill="black"/>
<path d="M193.238 116.889C193.054 116.889 192.874 116.875 192.697 116.846C191.977 116.732 191.293 116.308 190.867 115.71C190.522 115.227 190.382 114.669 190.472 114.138C190.495 114.005 190.619 113.917 190.753 113.939C190.885 113.961 190.974 114.087 190.951 114.221C190.864 114.734 191.072 115.159 191.262 115.426C191.609 115.912 192.188 116.271 192.773 116.364C193.69 116.51 194.716 116.216 195.907 115.466C198.212 114.003 199.981 111.774 200.887 109.191C200.932 109.063 201.072 108.998 201.198 109.041C201.324 109.086 201.391 109.226 201.346 109.353C200.404 112.04 198.564 114.358 196.166 115.88C195.092 116.556 194.128 116.889 193.238 116.889V116.889Z" fill="black"/>
<path d="M196.214 119.091C195.724 119.091 195.201 118.987 194.743 118.619C194.149 118.141 193.906 116.979 194.262 116.316C194.325 116.197 194.473 116.153 194.591 116.217C194.709 116.281 194.754 116.429 194.69 116.548C194.445 117.006 194.635 117.906 195.048 118.238C195.579 118.666 196.244 118.637 196.823 118.553C198.68 118.267 203.127 114.951 202.915 111.013C202.856 109.907 202.355 109.251 201.428 109.065C201.314 109.043 201.232 108.942 201.232 108.826C201.232 108.587 201.241 108.339 201.251 108.086C201.289 107.063 201.329 106.006 200.791 105.098C200.116 104.201 198.797 103.563 197.671 104.146C197.589 104.189 197.49 104.181 197.415 104.126C197.341 104.071 197.304 103.979 197.32 103.887C197.55 102.542 197.278 101.269 196.553 100.302C195.839 99.3491 194.72 98.7443 193.4 98.5986C193.313 98.5888 193.237 98.5328 193.203 98.4514C193.168 98.3703 193.18 98.2768 193.234 98.2069C194.823 96.1319 196.616 93.6368 197.875 90.8603C198.728 88.2839 198.605 86.7228 197.498 86.0879C197.14 85.9081 196.745 86.1058 196.288 86.3341C193.981 87.7606 192.019 89.6393 190.122 91.4561C189.485 92.0665 188.826 92.698 188.162 93.3047C186.825 94.7437 185.453 96.1412 184.125 97.4926C182.141 99.5125 180.09 101.601 178.075 103.913C175.18 107.402 173.399 111.327 171.513 115.483C171.084 116.429 170.639 117.408 170.186 118.369C170.128 118.491 169.984 118.544 169.862 118.485C169.74 118.427 169.689 118.282 169.746 118.16C170.198 117.202 170.642 116.225 171.071 115.28C172.887 111.278 174.765 107.14 177.706 103.595C179.734 101.269 181.79 99.1745 183.779 97.1494C185.104 95.8004 186.474 94.4052 187.82 92.9572C188.494 92.3405 189.152 91.7112 189.787 91.1027C191.702 89.2684 193.682 87.3716 196.049 85.909C196.055 85.9052 196.065 85.8999 196.071 85.8968C196.572 85.6459 197.14 85.3612 197.728 85.6573C199.733 86.8072 198.678 89.9833 198.332 91.027C198.329 91.0351 198.326 91.043 198.323 91.0509C197.109 93.7306 195.414 96.1417 193.871 98.1743C195.144 98.4083 196.223 99.0497 196.942 100.008C197.67 100.98 197.989 102.222 197.857 103.544C199.119 103.155 200.473 103.857 201.188 104.815C201.193 104.822 201.197 104.829 201.201 104.836C201.82 105.87 201.776 107.057 201.737 108.105C201.73 108.284 201.723 108.461 201.72 108.633C202.74 108.918 203.334 109.746 203.401 110.987C203.631 115.264 198.938 118.722 196.895 119.036C196.683 119.067 196.453 119.092 196.214 119.092L196.214 119.091Z" fill="black"/>
<path d="M191.991 134.731C191.962 134.731 191.932 134.726 191.902 134.714C191.777 134.664 191.716 134.523 191.765 134.397C192.333 132.951 192.985 131.378 193.676 129.712C195.284 125.836 196.946 121.829 197.948 118.472C197.986 118.342 198.121 118.269 198.251 118.308C198.379 118.346 198.452 118.483 198.414 118.612C197.404 121.993 195.737 126.013 194.125 129.9C193.435 131.563 192.784 133.134 192.218 134.576C192.18 134.672 192.088 134.731 191.991 134.731Z" fill="black"/>
<path d="M48.5149 202.023C36.6339 202.023 29.6072 177.45 33.8389 166.298L51.7654 119.053C54.4864 111.882 60.2526 106.308 67.491 103.854C78.8564 100.002 97.7522 94.1701 120.225 89.4769C128.692 87.7087 137.384 91.2567 142.255 98.4347L163.489 129.726L170.817 114.944C170.817 114.944 177.013 127.904 195.4 127.949C195.4 127.949 189.226 145.259 182.029 160.75C176.928 171.727 163.276 175.617 153.275 168.847C145.901 163.856 138.015 156.416 132.716 145.595L125.636 202.756L48.515 202.023H48.5149Z" fill="white"/>
<path d="M125.635 203C125.625 203 125.615 203 125.605 202.998C125.472 202.982 125.377 202.86 125.394 202.726L132.474 145.565C132.487 145.458 132.569 145.372 132.674 145.354C132.781 145.336 132.886 145.391 132.933 145.487C137.452 154.715 144.342 162.506 153.41 168.645C158.089 171.812 163.899 172.757 169.352 171.238C174.852 169.706 179.392 165.845 181.808 160.646C188.381 146.5 194.168 130.643 195.053 128.191C185.678 128.084 179.554 124.568 176.056 121.616C172.986 119.027 171.379 116.47 170.823 115.477L163.706 129.835C163.667 129.913 163.59 129.964 163.504 129.97C163.414 129.976 163.335 129.935 163.287 129.864L142.053 98.5724C137.214 91.44 128.666 87.9628 120.274 89.7162C98.0686 94.3533 79.356 100.09 67.5679 104.086C60.3737 106.524 54.6966 112.011 51.9919 119.14L34.0653 166.385C31.2039 173.926 33.5144 187.569 39.0094 195.58C41.7907 199.635 45.0774 201.779 48.514 201.779C48.6482 201.779 48.7572 201.888 48.7572 202.023C48.7572 202.158 48.6482 202.267 48.514 202.267C44.9102 202.267 41.4851 200.051 38.6091 195.858C33.0366 187.733 30.7011 173.88 33.6108 166.211L51.5374 118.966C54.2941 111.7 60.0802 106.108 67.4126 103.623C79.2131 99.6226 97.9459 93.8799 120.175 89.2377C128.758 87.446 137.504 91.0011 142.455 98.2971L163.455 129.244L170.598 114.835C170.639 114.752 170.724 114.699 170.816 114.699H170.817C170.91 114.7 170.994 114.754 171.035 114.838C171.05 114.87 172.616 118.083 176.387 121.258C179.865 124.186 185.986 127.682 195.399 127.705C195.478 127.705 195.552 127.744 195.598 127.809C195.643 127.874 195.654 127.957 195.627 128.032C195.566 128.205 189.368 145.529 182.248 160.853C179.773 166.181 175.119 170.138 169.482 171.709C163.892 173.266 157.936 172.297 153.139 169.05C144.236 163.024 137.417 155.415 132.857 146.426L125.876 202.786C125.861 202.91 125.756 203 125.635 203L125.635 203Z" fill="black"/>
<path d="M77.3682 149.996C77.338 149.996 77.3073 149.991 77.2777 149.979C77.153 149.928 77.0925 149.786 77.1426 149.661L84.9236 130.176C84.9735 130.051 85.1149 129.989 85.2396 130.04C85.3643 130.09 85.4248 130.232 85.3748 130.358L77.5938 149.843C77.5558 149.938 77.4646 149.996 77.3682 149.996Z" fill="black"/>
<path d="M156.604 142.592C156.565 142.592 156.525 142.582 156.488 142.562C156.37 142.497 156.327 142.348 156.391 142.23L163.275 129.609C163.339 129.49 163.487 129.447 163.605 129.512C163.723 129.577 163.766 129.725 163.701 129.844L156.818 142.465C156.774 142.546 156.69 142.592 156.604 142.592Z" fill="black"/>
<path d="M156.062 178.408H105.235C102.573 178.408 100.748 175.715 101.723 173.228L118.777 129.723C119.345 128.274 120.738 127.321 122.289 127.321H173.116C175.777 127.321 177.602 130.014 176.627 132.502L159.573 176.006C159.005 177.455 157.612 178.408 156.062 178.408Z" fill="#195DFF"/>
<path d="M120.076 141.243C120.076 141.243 124.333 140.274 124.353 139.13C124.372 137.985 119.136 136.029 104.432 137.892C98.517 138.642 90.9352 142.058 84.8281 145.374C84.8303 145.441 84.8318 145.509 84.8342 145.576C84.8775 146.772 84.9353 147.964 85.0526 149.155C85.265 151.313 85.7564 153.38 86.6646 155.353C87.5263 157.225 88.6487 158.975 89.96 160.56C91.1975 162.057 92.5981 163.393 94.1563 164.548C94.8166 165.037 95.4872 165.512 96.1476 166.001C99.8792 162.935 103.39 159.898 106.293 157.126C106.293 157.126 122.75 155.5 122.75 153.427C122.75 151.354 115.225 150.734 115.225 150.734C115.225 150.734 127.878 151.625 127.889 149.52C127.901 147.414 118.096 145.773 118.096 145.773C118.096 145.773 127.764 145.805 128.358 143.894C128.953 141.983 120.076 141.243 120.076 141.243L120.076 141.243Z" fill="white"/>
<path d="M56.9466 163.445C56.8713 163.445 56.797 163.41 56.7495 163.344C56.6706 163.235 56.6948 163.082 56.8036 163.003C57.1313 162.764 89.7616 139.09 104.408 137.649C108.781 137.219 112.617 137.023 115.806 137.064C115.941 137.066 116.048 137.177 116.046 137.311C116.045 137.446 115.933 137.544 115.8 137.553C112.627 137.513 108.81 137.707 104.456 138.135C89.9395 139.563 57.4161 163.16 57.089 163.398C57.0461 163.43 56.9959 163.445 56.9466 163.445Z" fill="black"/>
<path d="M54.954 189.343C54.832 189.343 54.7267 189.251 54.7125 189.126C54.6975 188.992 54.7934 188.871 54.9269 188.855C63.2671 187.91 71.2446 184.766 77.9963 179.764C86.6158 173.379 98.4929 164.238 106.125 156.949C106.165 156.912 106.215 156.888 106.269 156.883C106.27 156.883 106.991 156.812 108.13 156.68C108.266 156.665 108.384 156.761 108.399 156.895C108.415 157.029 108.319 157.15 108.186 157.165C107.268 157.271 106.621 157.338 106.4 157.361C98.7474 164.657 86.893 173.78 78.2851 180.157C71.4647 185.209 63.4063 188.385 54.9815 189.341C54.9722 189.342 54.9629 189.343 54.954 189.343Z" fill="black"/>
<path d="M111.958 146.136C111.831 146.136 111.724 146.037 111.715 145.907C111.707 145.773 111.808 145.656 111.942 145.648C112.636 145.603 113.275 145.552 113.869 145.504C115.222 145.396 116.392 145.302 117.449 145.351C117.583 145.357 117.687 145.471 117.681 145.606C117.674 145.741 117.558 145.849 117.426 145.839C116.401 145.791 115.245 145.884 113.907 145.991C113.311 146.039 112.67 146.09 111.974 146.135C111.968 146.136 111.963 146.136 111.958 146.136V146.136Z" fill="black"/>
<path d="M116.014 151.066C116.01 151.066 116.006 151.066 116.002 151.066L111.523 150.86C111.389 150.854 111.285 150.74 111.291 150.605C111.297 150.47 111.416 150.367 111.545 150.372L116.025 150.578C116.159 150.584 116.263 150.699 116.257 150.833C116.251 150.964 116.143 151.066 116.014 151.066Z" fill="black"/>
<path d="M111.571 141.721C111.448 141.721 111.342 141.627 111.329 141.501C111.316 141.367 111.413 141.247 111.547 141.234C114.195 140.963 116.889 140.856 119.553 140.913C119.687 140.916 119.794 141.027 119.791 141.162C119.788 141.295 119.68 141.401 119.548 141.401H119.543C116.897 141.343 114.225 141.452 111.596 141.72C111.588 141.72 111.579 141.721 111.571 141.721H111.571Z" fill="black"/>
<path d="M111.959 123.418H94.5918V135.024H111.959V123.418Z" fill="#E2EAFF"/>
<path d="M103.275 125.545H100.888C100.753 125.545 100.645 125.436 100.645 125.301V118.167C100.645 118.032 100.753 117.922 100.888 117.922H103.275C103.409 117.922 103.518 118.032 103.518 118.167V125.301C103.518 125.436 103.409 125.545 103.275 125.545ZM101.131 125.056H103.032V118.411H101.131V125.056Z" fill="black"/>
<path d="M111.36 94.9463L111.398 95.1699L111.591 95.2891C112.686 95.9626 113.798 97.2422 114.649 98.7451C115.499 100.246 116.052 101.904 116.091 103.294C116.13 104.675 115.672 105.687 114.617 106.156C113.495 106.655 111.542 106.626 108.394 105.44C102.081 103.064 98.3622 100.621 96.2305 98.793C95.1646 97.879 94.4941 97.1174 94.0947 96.5938C93.8952 96.332 93.763 96.1293 93.6826 95.9961C93.6471 95.9372 93.6212 95.8922 93.6045 95.8613L90.5459 79.1387L108.249 76.542L111.36 94.9463Z" fill="white" stroke="white"/>
<mask id="path-46-inside-1_1059_7603" fill="white">
<path d="M112.945 107.209C111.744 107.209 110.176 106.906 108.131 106.137C95.4697 101.37 93.0052 96.3416 92.9066 96.1298C92.8978 96.111 92.8914 96.091 92.8876 96.0705L89.7208 78.7645C89.7089 78.6994 89.7239 78.6318 89.7623 78.5779C89.8007 78.524 89.8595 78.4881 89.9248 78.4786L108.625 75.7349C108.755 75.7141 108.877 75.8048 108.9 75.9358L112.074 94.7142C115.112 96.6653 117.866 102.439 116.441 105.374C115.981 106.321 115.001 107.209 112.944 107.209L112.945 107.209ZM93.3595 95.9474C93.5634 96.3351 96.3123 101.166 108.302 105.679C112.423 107.231 115.086 107.051 116.004 105.16C117.324 102.442 114.58 96.8267 111.725 95.0714C111.665 95.0346 111.624 94.9735 111.612 94.9039L108.46 76.2528L90.2447 78.9254L93.3595 95.9474Z"/>
</mask>
<path d="M112.945 107.209C111.744 107.209 110.176 106.906 108.131 106.137C95.4697 101.37 93.0052 96.3416 92.9066 96.1298C92.8978 96.111 92.8914 96.091 92.8876 96.0705L89.7208 78.7645C89.7089 78.6994 89.7239 78.6318 89.7623 78.5779C89.8007 78.524 89.8595 78.4881 89.9248 78.4786L108.625 75.7349C108.755 75.7141 108.877 75.8048 108.9 75.9358L112.074 94.7142C115.112 96.6653 117.866 102.439 116.441 105.374C115.981 106.321 115.001 107.209 112.944 107.209L112.945 107.209ZM93.3595 95.9474C93.5634 96.3351 96.3123 101.166 108.302 105.679C112.423 107.231 115.086 107.051 116.004 105.16C117.324 102.442 114.58 96.8267 111.725 95.0714C111.665 95.0346 111.624 94.9735 111.612 94.9039L108.46 76.2528L90.2447 78.9254L93.3595 95.9474Z" fill="black"/>
<path d="M112.945 107.209V108.209H115.252L113.674 106.525L112.945 107.209ZM108.131 106.137L107.779 107.073L107.779 107.073L108.131 106.137ZM92.9066 96.1298L93.8131 95.7077L93.8122 95.7056L92.9066 96.1298ZM92.8876 96.0705L93.8713 95.8905L93.8713 95.8905L92.8876 96.0705ZM89.7208 78.7645L90.7045 78.5845L90.7044 78.5843L89.7208 78.7645ZM89.9248 78.4786L90.0694 79.4681L90.0699 79.468L89.9248 78.4786ZM108.625 75.7349L108.77 76.7244L108.781 76.7225L108.625 75.7349ZM108.9 75.9358L107.913 76.102L107.913 76.1025L108.9 75.9358ZM112.074 94.7142L111.088 94.8808L111.161 95.3167L111.533 95.5556L112.074 94.7142ZM116.441 105.374L117.34 105.811L117.34 105.811L116.441 105.374ZM112.944 107.209V106.209H110.637L112.215 107.893L112.944 107.209ZM93.3595 95.9474L92.3758 96.1274L92.4033 96.2777L92.4745 96.4129L93.3595 95.9474ZM108.302 105.679L108.654 104.743L108.654 104.743L108.302 105.679ZM116.004 105.16L115.104 104.723L115.104 104.723L116.004 105.16ZM111.725 95.0714L112.249 94.2195L112.248 94.219L111.725 95.0714ZM111.612 94.9039L110.626 95.0705L110.626 95.0711L111.612 94.9039ZM108.46 76.2528L109.446 76.0862L109.283 75.1214L108.315 75.2634L108.46 76.2528ZM90.2447 78.9254L90.0995 77.936L89.0745 78.0864L89.261 79.1054L90.2447 78.9254ZM112.945 107.209V106.209C111.904 106.209 110.461 105.945 108.484 105.201L108.131 106.137L107.779 107.073C109.892 107.868 111.584 108.209 112.945 108.209V107.209ZM108.131 106.137L108.484 105.201C96.0058 100.504 93.7765 95.6291 93.8131 95.7077L92.9066 96.1298L92.0001 96.552C92.2339 97.0541 94.9336 102.237 107.779 107.073L108.131 106.137ZM92.9066 96.1298L93.8122 95.7056C93.8395 95.764 93.8595 95.8261 93.8713 95.8905L92.8876 96.0705L91.9039 96.2505C91.9232 96.3559 91.956 96.458 92.0011 96.5541L92.9066 96.1298ZM92.8876 96.0705L93.8713 95.8905L90.7045 78.5845L89.7208 78.7645L88.7371 78.9445L91.904 96.2505L92.8876 96.0705ZM89.7208 78.7645L90.7044 78.5843C90.7412 78.785 90.6953 78.9919 90.5766 79.1583L89.7623 78.5779L88.948 77.9975C88.7525 78.2717 88.6765 78.6137 88.7372 78.9446L89.7208 78.7645ZM89.7623 78.5779L90.5766 79.1583C90.4569 79.3263 90.2738 79.4382 90.0694 79.4681L89.9248 78.4786L89.7801 77.4891C89.4452 77.5381 89.1446 77.7217 88.948 77.9975L89.7623 78.5779ZM89.9248 78.4786L90.0699 79.468L108.77 76.7243L108.625 75.7349L108.479 74.7455L89.7796 77.4892L89.9248 78.4786ZM108.625 75.7349L108.781 76.7225C108.352 76.7907 107.979 76.4934 107.913 76.102L108.9 75.9358L109.886 75.7696C109.775 75.1162 109.159 74.6376 108.468 74.7473L108.625 75.7349ZM108.9 75.9358L107.913 76.1025L111.088 94.8808L112.074 94.7142L113.06 94.5475L109.886 75.7691L108.9 75.9358ZM112.074 94.7142L111.533 95.5556C112.833 96.3904 114.173 98.1339 115.013 100.073C115.428 101.029 115.7 101.988 115.793 102.851C115.886 103.722 115.789 104.428 115.541 104.937L116.441 105.374L117.34 105.811C117.806 104.853 117.899 103.736 117.781 102.638C117.663 101.532 117.324 100.376 116.849 99.2775C115.908 97.108 114.352 94.9891 112.614 93.8728L112.074 94.7142ZM116.441 105.374L115.541 104.937C115.382 105.265 115.143 105.567 114.772 105.792C114.398 106.02 113.827 106.209 112.944 106.209V107.209V108.209C114.118 108.209 115.065 107.954 115.811 107.501C116.559 107.046 117.04 106.43 117.34 105.811L116.441 105.374ZM112.944 107.209L112.215 107.893L112.215 107.893L112.945 107.209L113.674 106.525L113.674 106.525L112.944 107.209ZM93.3595 95.9474L92.4745 96.4129C92.8143 97.059 95.7791 102.034 107.95 106.615L108.302 105.679L108.654 104.743C96.8455 100.298 94.3125 95.6111 94.2445 95.4818L93.3595 95.9474ZM108.302 105.679L107.95 106.615C110.066 107.412 111.918 107.81 113.421 107.708C114.97 107.604 116.247 106.95 116.903 105.597L116.004 105.16L115.104 104.723C114.843 105.261 114.33 105.642 113.287 105.713C112.199 105.786 110.659 105.498 108.654 104.743L108.302 105.679ZM116.004 105.16L116.903 105.597C117.348 104.681 117.416 103.605 117.286 102.561C117.155 101.505 116.812 100.396 116.343 99.3465C115.418 97.278 113.908 95.2399 112.249 94.2195L111.725 95.0714L111.201 95.9232C112.397 96.6582 113.687 98.3055 114.517 100.163C114.926 101.076 115.2 101.991 115.301 102.807C115.404 103.635 115.32 104.28 115.104 104.723L116.004 105.16ZM111.725 95.0714L112.248 94.219C112.437 94.3347 112.562 94.5247 112.598 94.7366L111.612 94.9039L110.626 95.0711C110.686 95.4223 110.894 95.7346 111.202 95.9237L111.725 95.0714ZM111.612 94.9039L112.598 94.7372L109.446 76.0862L108.46 76.2528L107.474 76.4195L110.626 95.0705L111.612 94.9039ZM108.46 76.2528L108.315 75.2634L90.0995 77.936L90.2447 78.9254L90.3898 79.9148L108.605 77.2422L108.46 76.2528ZM90.2447 78.9254L89.261 79.1054L92.3758 96.1274L93.3595 95.9474L94.3431 95.7674L91.2283 78.7454L90.2447 78.9254Z" fill="white" mask="url(#path-46-inside-1_1059_7603)"/>
<path d="M93.6309 46.5559C94.4692 46.6585 95.2229 47.0436 95.8662 47.5354C96.5089 48.0268 97.0227 48.6102 97.3779 49.0764C97.5547 49.3085 97.6909 49.5089 97.7812 49.6497C97.8263 49.7198 97.8599 49.775 97.8818 49.8118C97.8927 49.83 97.9002 49.8441 97.9053 49.8528C97.9077 49.8569 97.9101 49.8598 97.9111 49.8616L97.9121 49.8635L98.3008 50.5579L98.7578 49.9055C99.3633 49.0416 100.01 48.604 100.66 48.4397C101.316 48.274 102.045 48.369 102.841 48.7024C104.454 49.3777 106.198 50.9683 107.832 52.8596C109.454 54.737 110.918 56.8527 111.979 58.5042C112.509 59.3287 112.937 60.0357 113.232 60.5354C113.38 60.7852 113.495 60.9832 113.572 61.1184C113.611 61.1858 113.64 61.238 113.659 61.2727C113.669 61.29 113.676 61.3032 113.681 61.3118C113.683 61.3161 113.685 61.3195 113.687 61.3215L113.688 61.3235H113.688L113.895 61.6956L114.294 61.552L114.293 61.553L114.295 61.552C114.298 61.5511 114.303 61.5495 114.311 61.5471C114.326 61.5423 114.35 61.5339 114.382 61.5247C114.447 61.506 114.544 61.4813 114.666 61.4573C114.911 61.4088 115.245 61.3671 115.609 61.3899C116.324 61.4346 117.138 61.7197 117.673 62.7112C117.756 62.8655 117.801 63.1547 117.734 63.6262C117.67 64.0832 117.511 64.6407 117.274 65.2717C116.803 66.5322 116.052 68.013 115.25 69.4377C114.45 70.8589 113.61 72.2087 112.969 73.2043C112.648 73.7017 112.378 74.1102 112.188 74.3938C112.094 74.5353 112.019 74.646 111.968 74.7209C111.942 74.7584 111.922 74.7878 111.909 74.8069C111.903 74.816 111.898 74.8227 111.895 74.8274L107.119 81.1887L107.053 81.2766L107.029 81.385C105.506 88.5259 101.979 91.8312 98.2227 92.9612C94.4226 94.1041 90.266 93.06 87.457 91.2551C86.1672 90.4263 85.5014 89.0606 85.2578 87.3899C85.0134 85.7136 85.2042 83.7842 85.583 81.9329C85.9606 80.0872 86.5179 78.351 86.9824 77.0735C87.2143 76.4358 87.4226 75.9142 87.5723 75.553C87.6414 75.3862 87.6985 75.2533 87.7393 75.1594C88.3172 74.8527 88.8745 74.2311 89.3506 73.5081C89.8964 72.679 90.3931 71.6316 90.7393 70.5227C91.085 69.4152 91.2879 68.2227 91.2285 67.1067C91.1692 65.991 90.8438 64.9154 90.0938 64.0969C88.9805 62.882 89.0241 61.0097 89.4434 59.2864C89.648 58.4455 89.9314 57.6853 90.165 57.134C90.2815 56.8592 90.3853 56.6381 90.459 56.4866C90.4958 56.4109 90.5251 56.3523 90.5449 56.3137C90.5547 56.2946 90.5616 56.28 90.5664 56.2708C90.5688 56.2661 90.5712 56.263 90.5723 56.261C90.5727 56.2601 90.573 56.2594 90.5732 56.259L90.7666 55.8977L90.4512 55.637C89.014 54.4479 88.0621 53.0221 87.9609 51.6116C87.8632 50.2471 88.5545 48.7325 90.7773 47.3088C91.8485 46.6229 92.803 46.4547 93.6309 46.5559Z" fill="black" stroke="white"/>
<path d="M112.723 73.2284C113.444 73.2136 114.074 73.4741 114.552 73.9237C115.505 74.8218 115.91 76.5528 114.966 78.4471C113.954 80.478 112.176 81.1259 110.585 81.2616C109.788 81.3295 109.052 81.2662 108.513 81.1844C108.359 81.1612 108.222 81.1354 108.105 81.1122L109.147 76.078C109.296 75.3606 109.683 74.7151 110.246 74.2616C111.147 73.537 111.998 73.2433 112.723 73.2284Z" fill="white" stroke="white"/>
<mask id="path-50-inside-2_1059_7603" fill="white">
<path d="M109.875 82.0241C108.511 82.0241 107.475 81.7307 107.451 81.7235C107.329 81.6877 107.255 81.5641 107.28 81.4394L108.42 75.927C108.604 75.0377 109.088 74.2401 109.782 73.6817C111.879 71.9935 113.787 72.3355 114.875 73.2185C116.354 74.4192 116.665 76.7058 115.632 78.7792C114.296 81.4589 111.769 82.0241 109.875 82.0241H109.875ZM107.804 81.3111C108.852 81.5634 113.298 82.3722 115.197 78.5607C116.282 76.3824 115.632 74.4616 114.569 73.5982C113.37 72.6251 111.652 72.803 110.086 74.0629C109.48 74.5507 109.058 75.2478 108.897 76.0262L107.804 81.3111Z"/>
</mask>
<path d="M109.875 82.0241C108.511 82.0241 107.475 81.7307 107.451 81.7235C107.329 81.6877 107.255 81.5641 107.28 81.4394L108.42 75.927C108.604 75.0377 109.088 74.2401 109.782 73.6817C111.879 71.9935 113.787 72.3355 114.875 73.2185C116.354 74.4192 116.665 76.7058 115.632 78.7792C114.296 81.4589 111.769 82.0241 109.875 82.0241H109.875ZM107.804 81.3111C108.852 81.5634 113.298 82.3722 115.197 78.5607C116.282 76.3824 115.632 74.4616 114.569 73.5982C113.37 72.6251 111.652 72.803 110.086 74.0629C109.48 74.5507 109.058 75.2478 108.897 76.0262L107.804 81.3111Z" fill="black"/>
<path d="M108.659 75.9766V76.4766H108.661V75.9766V75.4766H108.659V75.9766ZM107.451 81.7235L107.734 80.7645L107.733 80.7642L107.451 81.7235ZM107.28 81.4394L106.301 81.2369L106.301 81.2382L107.28 81.4394ZM108.42 75.927L109.4 76.1295L109.4 76.1294L108.42 75.927ZM109.782 73.6817L110.409 74.4609L110.409 74.4606L109.782 73.6817ZM114.875 73.2185L115.505 72.4422L115.505 72.4421L114.875 73.2185ZM115.632 78.7792L116.527 79.2253L116.527 79.2252L115.632 78.7792ZM107.804 81.3111L106.825 81.1086L106.629 82.0567L107.57 82.2833L107.804 81.3111ZM115.197 78.5607L114.302 78.1148L114.302 78.1148L115.197 78.5607ZM114.569 73.5982L115.199 72.8219L115.199 72.8218L114.569 73.5982ZM110.086 74.0629L109.459 73.2836L109.459 73.2839L110.086 74.0629ZM108.897 76.0262L109.876 76.2287L109.876 76.2285L108.897 76.0262ZM109.875 82.0241V81.0241C108.639 81.0241 107.703 80.7555 107.734 80.7645L107.451 81.7235L107.167 82.6825C107.246 82.7059 108.383 83.0241 109.875 83.0241V82.0241ZM107.451 81.7235L107.733 80.7642C108.113 80.876 108.338 81.2593 108.26 81.6407L107.28 81.4394L106.301 81.2382C106.171 81.869 106.545 82.4994 107.168 82.6829L107.451 81.7235ZM107.28 81.4394L108.26 81.6419L109.4 76.1295L108.42 75.927L107.441 75.7245L106.301 81.2369L107.28 81.4394ZM108.42 75.927L109.4 76.1294C109.537 75.4626 109.899 74.8707 110.409 74.4609L109.782 73.6817L109.155 72.9026C108.276 73.6096 107.671 74.6129 107.441 75.7247L108.42 75.927ZM109.782 73.6817L110.409 74.4606C112.165 73.0471 113.548 73.4297 114.245 73.9949L114.875 73.2185L115.505 72.4421C114.026 71.2413 111.593 70.9399 109.155 72.9028L109.782 73.6817ZM114.875 73.2185L114.244 73.9948C115.261 74.8205 115.623 76.554 114.737 78.3333L115.632 78.7792L116.527 79.2252C117.706 76.8575 117.446 74.0179 115.505 72.4422L114.875 73.2185ZM115.632 78.7792L114.737 78.3332C113.648 80.5183 111.602 81.0241 109.875 81.0241V82.0241V83.0241C111.937 83.0241 114.945 82.3996 116.527 79.2253L115.632 78.7792ZM109.875 82.0241V81.0241H109.875V82.0241V83.0241H109.875V82.0241ZM107.804 81.3111L107.57 82.2833C108.149 82.4228 109.673 82.7206 111.343 82.4467C113.049 82.1668 114.962 81.2734 116.092 79.0066L115.197 78.5607L114.302 78.1148C113.532 79.6595 112.273 80.2675 111.019 80.473C109.73 80.6845 108.507 80.4517 108.038 80.3389L107.804 81.3111ZM115.197 78.5607L116.092 79.0066C117.363 76.4556 116.665 74.0119 115.199 72.8219L114.569 73.5982L113.939 74.3745C114.6 74.9112 115.201 76.3092 114.302 78.1148L115.197 78.5607ZM114.569 73.5982L115.199 72.8218C113.503 71.4453 111.243 71.8489 109.459 73.2836L110.086 74.0629L110.713 74.8421C112.062 73.7572 113.237 73.8049 113.939 74.3746L114.569 73.5982ZM110.086 74.0629L109.459 73.2839C108.668 73.9206 108.124 74.8235 107.917 75.8239L108.897 76.0262L109.876 76.2285C109.991 75.6721 110.292 75.1808 110.713 74.8418L110.086 74.0629ZM108.897 76.0262L107.917 75.8237L106.825 81.1086L107.804 81.3111L108.783 81.5136L109.876 76.2287L108.897 76.0262Z" fill="white" mask="url(#path-50-inside-2_1059_7603)"/>
<mask id="path-52-inside-3_1059_7603" fill="white">
<path d="M109.132 79.8344C109.089 79.8344 109.046 79.8232 109.006 79.7994C108.891 79.7299 108.854 79.5798 108.924 79.4642C109.718 78.1374 111.228 77.2728 112.769 77.2621H112.771C112.905 77.2621 113.013 77.3704 113.014 77.5047C113.015 77.6395 112.907 77.7497 112.773 77.7506C111.397 77.7604 110.05 78.5319 109.34 79.7161C109.295 79.7922 109.214 79.8344 109.132 79.8344H109.132Z"/>
</mask>
<path d="M109.132 79.8344C109.089 79.8344 109.046 79.8232 109.006 79.7994C108.891 79.7299 108.854 79.5798 108.924 79.4642C109.718 78.1374 111.228 77.2728 112.769 77.2621H112.771C112.905 77.2621 113.013 77.3704 113.014 77.5047C113.015 77.6395 112.907 77.7497 112.773 77.7506C111.397 77.7604 110.05 78.5319 109.34 79.7161C109.295 79.7922 109.214 79.8344 109.132 79.8344H109.132Z" fill="black"/>
<path d="M109.006 79.7994L109.527 78.9457L109.523 78.943L109.006 79.7994ZM108.924 79.4642L109.781 79.9787L109.781 79.9782L108.924 79.4642ZM112.769 77.2621V76.2621L112.762 76.2621L112.769 77.2621ZM113.014 77.5047L112.014 77.5113L112.014 77.5121L113.014 77.5047ZM112.773 77.7506L112.766 76.7506L112.766 76.7506L112.773 77.7506ZM109.34 79.7161L110.198 80.2301L110.198 80.2301L109.34 79.7161ZM109.132 79.8344V78.8344C109.264 78.8344 109.403 78.8697 109.527 78.9457L109.006 79.7994L108.486 80.653C108.688 80.7767 108.913 80.8344 109.132 80.8344V79.8344ZM109.006 79.7994L109.523 78.943C109.883 79.16 109.994 79.6244 109.781 79.9787L108.924 79.4642L108.066 78.9498C107.715 79.5353 107.9 80.2998 108.49 80.6557L109.006 79.7994ZM108.924 79.4642L109.781 79.9782C110.398 78.9494 111.586 78.2704 112.776 78.2621L112.769 77.2621L112.762 76.2621C110.871 76.2753 109.039 77.3255 108.066 78.9503L108.924 79.4642ZM112.769 77.2621V78.2621H112.771V77.2621V76.2621H112.769V77.2621ZM112.771 77.2621V78.2621C112.351 78.2621 112.017 77.9233 112.014 77.5113L113.014 77.5047L114.014 77.4981C114.01 76.8174 113.458 76.2621 112.771 76.2621V77.2621ZM113.014 77.5047L112.014 77.5121C112.011 77.0987 112.344 76.7534 112.766 76.7506L112.773 77.7506L112.779 78.7506C113.471 78.746 114.019 78.1803 114.014 77.4973L113.014 77.5047ZM112.773 77.7506L112.766 76.7506C111.04 76.7629 109.371 77.7199 108.482 79.202L109.34 79.7161L110.198 80.2301C110.729 79.3439 111.755 78.7579 112.78 78.7506L112.773 77.7506ZM109.34 79.7161L108.482 79.202C108.624 78.966 108.875 78.8344 109.132 78.8344V79.8344V80.8344C109.553 80.8344 109.965 80.6183 110.198 80.2301L109.34 79.7161ZM109.132 79.8344V78.8344H109.132V79.8344V80.8344H109.132V79.8344Z" fill="white" mask="url(#path-52-inside-3_1059_7603)"/>
<path d="M90.9658 63.1196C91.7803 63.2508 92.8982 63.4487 94.1133 63.7153C95.3297 63.9822 96.6369 64.3172 97.8311 64.7202C99.032 65.1255 100.088 65.5898 100.822 66.106C102.303 67.1465 102.963 69.0156 102.466 70.7632C101.909 72.7209 101.169 75.0864 100.42 76.8149C99.9903 77.8059 98.942 78.3706 97.8848 78.1851C95.3291 77.7366 90.9494 76.6981 87.9062 74.5679L90.1113 62.9897C90.3308 63.0214 90.6211 63.0641 90.9658 63.1196Z" fill="white" stroke="white"/>
<mask id="path-55-inside-4_1059_7603" fill="white">
<path d="M98.2921 78.965C98.1154 78.965 97.9367 78.9497 97.7576 78.9183C95.199 78.4694 90.4271 77.3615 87.2123 74.9854C87.1368 74.9296 87.1 74.8351 87.1176 74.7428L89.4717 62.3833C89.4959 62.2564 89.6116 62.1725 89.741 62.1868C90.0795 62.2295 98.0661 63.2591 101.25 65.4968C102.989 66.7187 103.765 68.9169 103.181 70.9669C102.671 72.758 101.897 75.2782 101.102 77.1117C100.607 78.2539 99.4976 78.9651 98.2921 78.9651V78.965ZM87.6244 74.6821C90.7574 76.9372 95.3577 78.0012 97.8411 78.4369C99.0222 78.6444 100.178 78.0187 100.656 76.9165C101.441 75.1074 102.208 72.6095 102.714 70.8325C103.24 68.9827 102.54 66.9993 100.971 65.8969C98.1756 63.9321 91.2465 62.8887 89.9063 62.7019L87.6244 74.6821Z"/>
</mask>
<path d="M98.2921 78.965C98.1154 78.965 97.9367 78.9497 97.7576 78.9183C95.199 78.4694 90.4271 77.3615 87.2123 74.9854C87.1368 74.9296 87.1 74.8351 87.1176 74.7428L89.4717 62.3833C89.4959 62.2564 89.6116 62.1725 89.741 62.1868C90.0795 62.2295 98.0661 63.2591 101.25 65.4968C102.989 66.7187 103.765 68.9169 103.181 70.9669C102.671 72.758 101.897 75.2782 101.102 77.1117C100.607 78.2539 99.4976 78.9651 98.2921 78.9651V78.965ZM87.6244 74.6821C90.7574 76.9372 95.3577 78.0012 97.8411 78.4369C99.0222 78.6444 100.178 78.0187 100.656 76.9165C101.441 75.1074 102.208 72.6095 102.714 70.8325C103.24 68.9827 102.54 66.9993 100.971 65.8969C98.1756 63.9321 91.2465 62.8887 89.9063 62.7019L87.6244 74.6821Z" fill="black"/>
<path d="M98.2921 78.965H99.2921V77.965H98.2921V78.965ZM97.7576 78.9183L97.5847 79.9032L97.5849 79.9033L97.7576 78.9183ZM87.2123 74.9854L87.8067 74.1812L87.8065 74.1811L87.2123 74.9854ZM87.1176 74.7428L86.1353 74.5557L86.1352 74.5559L87.1176 74.7428ZM89.4717 62.3833L88.4894 62.1961L88.4893 62.1962L89.4717 62.3833ZM89.741 62.1868L89.8662 61.1946L89.8586 61.1937L89.8509 61.1928L89.741 62.1868ZM101.25 65.4968L101.825 64.6786L101.825 64.6786L101.25 65.4968ZM103.181 70.9669L104.143 71.2407L104.143 71.2407L103.181 70.9669ZM101.102 77.1117L100.185 76.714L100.185 76.714L101.102 77.1117ZM98.2921 78.9651H97.2921V79.9651H98.2921V78.9651ZM87.6244 74.6821L86.642 74.495L86.5227 75.1213L87.0402 75.4938L87.6244 74.6821ZM97.8411 78.4369L98.0142 77.452L98.0139 77.4519L97.8411 78.4369ZM100.656 76.9165L99.7388 76.5187L99.7388 76.5187L100.656 76.9165ZM102.714 70.8325L101.752 70.5586L101.752 70.5588L102.714 70.8325ZM100.971 65.8969L101.546 65.0788L101.546 65.0787L100.971 65.8969ZM89.9063 62.7019L90.0444 61.7115L89.102 61.5801L88.924 62.5148L89.9063 62.7019ZM98.2921 78.965V77.965C98.1732 77.965 98.0522 77.9547 97.9302 77.9333L97.7576 78.9183L97.5849 79.9033C97.8211 79.9447 98.0577 79.965 98.2921 79.965V78.965ZM97.7576 78.9183L97.9304 77.9333C95.3852 77.4868 90.8187 76.4075 87.8067 74.1812L87.2123 74.9854L86.618 75.7896C90.0355 78.3156 95.0127 79.452 97.5847 79.9032L97.7576 78.9183ZM87.2123 74.9854L87.8065 74.1811C88.0418 74.3549 88.1539 74.6465 88.1 74.9297L87.1176 74.7428L86.1352 74.5559C86.0462 75.0237 86.2318 75.5044 86.6182 75.7897L87.2123 74.9854ZM87.1176 74.7428L88.0999 74.9299L90.454 62.5704L89.4717 62.3833L88.4893 62.1962L86.1353 74.5557L87.1176 74.7428ZM89.4717 62.3833L90.454 62.5705C90.3783 62.968 90.0087 63.2225 89.6311 63.1807L89.741 62.1868L89.8509 61.1928C89.2145 61.1225 88.6135 61.5449 88.4894 62.1961L89.4717 62.3833ZM89.741 62.1868L89.6158 63.1789C89.7707 63.1984 91.8175 63.4619 94.2112 63.9948C96.6576 64.5393 99.2655 65.3243 100.675 66.3149L101.25 65.4968L101.825 64.6786C100.051 63.4316 97.0733 62.5829 94.6458 62.0426C92.1655 61.4905 90.0498 61.2178 89.8662 61.1946L89.741 62.1868ZM101.25 65.4968L100.675 66.3149C102.064 67.2912 102.687 69.0507 102.219 70.6931L103.181 70.9669L104.143 71.2407C104.843 68.7832 103.913 66.1461 101.825 64.6786L101.25 65.4968ZM103.181 70.9669L102.219 70.6931C101.711 72.4802 100.951 74.9456 100.185 76.714L101.102 77.1117L102.02 77.5094C102.843 75.6107 103.632 73.0357 104.143 71.2407L103.181 70.9669ZM101.102 77.1117L100.185 76.714C99.8489 77.4884 99.1014 77.9651 98.2921 77.9651V78.9651V79.9651C99.8937 79.9651 101.365 79.0195 102.02 77.5094L101.102 77.1117ZM98.2921 78.9651H99.2921V78.965H98.2921H97.2921V78.9651H98.2921ZM87.6244 74.6821L87.0402 75.4938C90.3718 77.8918 95.1708 78.9837 97.6684 79.4218L97.8411 78.4369L98.0139 77.4519C95.5445 77.0187 91.143 75.9826 88.2085 73.8705L87.6244 74.6821ZM97.8411 78.4369L97.6681 79.4218C99.3073 79.7098 100.913 78.8384 101.574 77.3142L100.656 76.9165L99.7388 76.5187C99.4439 77.1989 98.7371 77.579 98.0142 77.452L97.8411 78.4369ZM100.656 76.9165L101.574 77.3143C102.386 75.4399 103.169 72.887 103.675 71.1061L102.714 70.8325L101.752 70.5588C101.247 72.3321 100.495 74.775 99.7388 76.5187L100.656 76.9165ZM102.714 70.8325L103.675 71.1063C104.318 68.849 103.464 66.4268 101.546 65.0788L100.971 65.8969L100.396 66.715C101.615 67.5718 102.162 69.1164 101.752 70.5586L102.714 70.8325ZM100.971 65.8969L101.546 65.0787C99.973 63.973 97.3656 63.1877 95.1223 62.6593C92.8301 62.1194 90.7286 61.8069 90.0444 61.7115L89.9063 62.7019L89.7683 63.6923C90.4242 63.7838 92.4573 64.0863 94.6637 64.606C96.9189 65.1372 99.1741 65.856 100.396 66.7151L100.971 65.8969ZM89.9063 62.7019L88.924 62.5148L86.642 74.495L87.6244 74.6821L88.6067 74.8693L90.8887 62.889L89.9063 62.7019Z" fill="white" mask="url(#path-55-inside-4_1059_7603)"/>
<path d="M34.8406 148.802C34.8406 148.802 -7.45715 160.94 1.15747 117.234C4.33246 101.126 13.285 94.8633 17.185 84.902C25.0912 64.7089 32.2742 55.6946 38.6678 54.4695C48.7932 52.5294 66.6401 58.7102 59.5043 105.875L34.8407 148.802H34.8406Z" fill="black"/>
<path d="M93.3276 129.56L82.6806 108.246L64.9355 123.36L76.8376 154.051L93.3276 129.56Z" fill="white"/>
<path d="M76.8384 154.295C76.8294 154.295 76.8204 154.295 76.8114 154.294C76.7216 154.283 76.6446 154.224 76.6119 154.14L64.71 123.449C64.6723 123.352 64.7001 123.241 64.7794 123.174L82.5243 108.06C82.5811 108.012 82.6572 107.992 82.7302 108.007C82.8031 108.022 82.8654 108.07 82.8989 108.137L93.546 129.451C93.5854 129.53 93.5795 129.624 93.5301 129.697L77.0401 154.188C76.9945 154.255 76.9189 154.295 76.8386 154.295H76.8384ZM65.2259 123.434L76.8968 153.528L93.0473 129.542L82.6027 108.633L65.2259 123.434Z" fill="black"/>
<path d="M71.4878 161.314L18.9576 165.248L0.744141 202.756H87.5882C87.5882 202.756 77.2495 173.279 71.4878 161.314Z" fill="white"/>
<path d="M87.5873 203C87.4871 203 87.3931 202.937 87.358 202.837C87.2552 202.543 77.044 173.482 71.3398 161.57L19.1142 165.482L0.961815 202.863C0.902847 202.984 0.757084 203.034 0.636608 202.975C0.516022 202.916 0.465778 202.77 0.524635 202.649L18.7382 165.141C18.776 165.063 18.8524 165.011 18.9386 165.005L71.4687 161.07C71.5679 161.061 71.6622 161.117 71.7057 161.207C77.4073 173.048 87.7131 202.38 87.8167 202.675C87.8613 202.802 87.7948 202.941 87.6681 202.986C87.6414 202.996 87.6142 203 87.5873 203Z" fill="black"/>
<path d="M21.0216 166.451C21.0372 166.529 71.2635 164.126 71.2635 164.126V126.632L84.5337 108.246C84.5337 108.246 72.3706 91.2877 40.0891 96.5969C11.2544 101.339 3.21094 119.896 3.21094 119.896L26.3614 135.228L21.0216 166.451Z" fill="#195DFF"/>
<path d="M82.5359 175.596H48.6868C47.3071 175.596 46.2829 174.311 46.5841 172.959L58.3344 120.195C58.691 118.593 60.1059 117.455 61.7394 117.455H95.1132C96.7996 117.455 98.0515 119.025 97.6835 120.678L86.0905 172.735C85.7183 174.407 84.2412 175.596 82.536 175.596H82.5359Z" fill="black"/>
<path d="M5.31207 121.268L26.3618 135.228L28.3051 153.006C28.3051 153.006 51.1143 137.336 57.5108 134.087C63.9073 130.838 73.9455 130.593 75.6096 132.588C77.2736 134.582 72.2607 135.935 72.2607 135.935C72.2607 135.935 78.8657 136.116 78.9198 138.036C78.9738 139.956 70.3128 142.421 70.3128 142.421C70.3128 142.421 76.8538 140.933 78.5058 142.316C80.1578 143.699 79.0968 145.6 72.14 147.711C72.14 147.711 76.0451 147.084 76.4688 149.415C76.785 151.155 65.9722 155.273 59.9709 156.955C59.9709 156.955 46.8348 170.984 31.2138 182.163C22.7847 188.195 10.9655 184.873 6.92121 175.303C1.55866 162.615 -2.853 143.77 5.31207 121.268Z" fill="white"/>
<path d="M21.8221 185.439C20.3237 185.439 18.8142 185.232 17.3319 184.812C12.5248 183.449 8.64845 180.018 6.69633 175.399C-0.903135 157.417 -1.4461 139.177 5.08266 121.185C5.12849 121.058 5.26818 120.993 5.39451 121.039C5.52061 121.085 5.58565 121.225 5.53961 121.352C-0.945429 139.224 -0.405663 157.344 7.14422 175.208C9.03815 179.69 12.7995 183.019 17.4638 184.342C22.1453 185.67 27.105 184.803 31.0718 181.964C46.4947 170.927 59.6617 156.928 59.7927 156.787C59.8852 156.689 60.0388 156.684 60.1366 156.777C60.2345 156.869 60.239 157.024 60.1471 157.122C60.0156 157.262 46.8155 171.297 31.354 182.362C28.5225 184.388 25.2 185.439 21.822 185.439L21.8221 185.439Z" fill="black"/>
<path d="M62.7728 138.896C62.6867 138.896 62.6035 138.85 62.5593 138.769C62.4947 138.65 62.5379 138.502 62.6557 138.437C65.4176 136.917 68.5368 135.985 71.6768 135.741C71.8138 135.728 71.9276 135.832 71.9381 135.966C71.9486 136.101 71.8483 136.218 71.7143 136.229C68.6428 136.467 65.5912 137.379 62.8894 138.866C62.8524 138.886 62.8122 138.896 62.7728 138.896Z" fill="black"/>
<path d="M64.8762 144.679C64.7838 144.679 64.6957 144.626 64.6549 144.536C64.5991 144.414 64.6528 144.269 64.7748 144.213C66.4044 143.464 68.1028 142.831 69.8234 142.33C69.9526 142.293 70.0875 142.367 70.1247 142.497C70.1621 142.626 70.0876 142.762 69.9588 142.799C68.2611 143.293 66.5851 143.919 64.9772 144.657C64.9444 144.672 64.9098 144.679 64.8762 144.679Z" fill="black"/>
<path d="M65.6145 150.036C65.521 150.036 65.4319 149.982 65.3918 149.89C65.3377 149.767 65.3934 149.623 65.5162 149.568C67.5053 148.688 69.5947 148.021 71.7259 147.586C71.8594 147.561 71.9859 147.645 72.0127 147.777C72.0394 147.909 71.9543 148.038 71.8228 148.065C69.7256 148.493 67.6698 149.149 65.7125 150.015C65.6807 150.03 65.6471 150.036 65.6145 150.036Z" fill="black"/>
<path d="M19.1204 160.779C19.0492 160.779 18.9784 160.748 18.9305 160.688C18.8464 160.583 18.8632 160.429 18.968 160.344L27.7858 153.24C27.891 153.156 28.0442 153.173 28.1278 153.278C28.2118 153.383 28.195 153.537 28.0902 153.621L19.2724 160.725C19.2276 160.762 19.1735 160.779 19.1204 160.779Z" fill="black"/>
<path d="M46.3359 126.52H28.9688V138.126H46.3359V126.52Z" fill="white"/>
<path d="M37.6517 128.647H35.2646C35.1303 128.647 35.0215 128.538 35.0215 128.403V121.268C35.0215 121.133 35.1303 121.024 35.2646 121.024H37.6517C37.7861 121.024 37.8949 121.133 37.8949 121.268V128.403C37.8949 128.538 37.7861 128.647 37.6517 128.647ZM35.5078 128.158H37.4086V121.513H35.5078V128.158Z" fill="black"/>
<path d="M37.6529 78.0684L34.2624 96.9595L29.1035 99.3337C29.1035 99.3337 44.6748 123.369 52.8053 128.403C52.8053 128.403 55.1587 109.772 51.5927 95.5698L46.5125 95.2629L48.7266 83.9744L37.6529 78.0684Z" fill="white"/>
<path d="M54.6048 67.049C54.6048 67.049 56.7759 86.3753 50.132 89.2509C43.488 92.1265 37.2224 79.8319 37.2224 79.8319C37.2224 79.8319 31.6193 78.6792 33.0307 73.2741C33.9243 69.8519 38.6572 71.115 38.829 74.802C38.829 74.802 40.8158 76.1652 40.9714 74.6489C41.127 73.1326 41.4668 63.071 54.6048 67.049Z" fill="white"/>
<path d="M48.04 89.9378C42.4156 89.9378 37.6458 81.1687 37.0577 80.0447C36.5311 79.9143 34.3825 79.2833 33.2489 77.4511C32.5203 76.2738 32.3676 74.8477 32.7949 73.2119C33.2596 71.4315 34.6339 70.9268 35.7673 71.0442C37.2627 71.2024 38.904 72.5215 39.0636 74.6646C39.4817 74.9287 40.1626 75.234 40.4934 75.0797C40.5423 75.0568 40.6911 74.9871 40.7285 74.6237C40.7344 74.5657 40.7408 74.4952 40.7479 74.4129C40.8595 73.1458 41.1989 69.2903 44.2512 67.2154C46.6525 65.5827 50.1589 65.4481 54.6742 66.8153C54.7672 66.8435 54.8347 66.9246 54.8456 67.0217C54.935 67.8182 56.9597 86.5616 50.2274 89.4752C49.4893 89.7949 48.7573 89.9378 48.04 89.9378ZM35.4314 71.515C34.3666 71.515 33.5674 72.1789 33.2652 73.3361C32.8734 74.8368 33.0068 76.1346 33.662 77.1933C34.8233 79.07 37.2463 79.5877 37.2706 79.5927C37.343 79.6074 37.4047 79.6547 37.4382 79.7206C37.4999 79.8415 43.6761 91.7788 50.0352 89.0268C56.1247 86.391 54.5656 69.0945 54.3792 67.2365C50.086 65.9628 46.7713 66.092 44.5241 67.6199C41.6631 69.5646 41.339 73.2461 41.2326 74.456C41.2252 74.5408 41.2185 74.614 41.2126 74.6738C41.1582 75.2027 40.9027 75.4274 40.698 75.5228C39.9739 75.8606 38.8205 75.0924 38.6911 75.0037C38.6281 74.9603 38.5889 74.8899 38.5854 74.8133C38.495 72.8683 37.0397 71.67 35.7166 71.53C35.6198 71.5198 35.5245 71.5147 35.4314 71.5147V71.515Z" fill="black"/>
<path d="M37.6536 78.3127C37.536 78.3127 37.4328 78.2271 37.4138 78.1068C37.2556 77.1108 36.3304 76.2077 35.214 75.9591C35.0829 75.9298 35.0003 75.7995 35.0292 75.6676C35.0585 75.5359 35.1869 75.4536 35.3194 75.482C36.6229 75.7723 37.7056 76.8439 37.8939 78.0301C37.915 78.1632 37.8248 78.2884 37.692 78.3096C37.6792 78.3117 37.6662 78.3127 37.6536 78.3127Z" fill="black"/>
<path d="M302.513 202.878H146.642C146.507 202.878 146.398 202.769 146.398 202.634V185.194C146.398 185.059 146.507 184.95 146.642 184.95C146.776 184.95 146.885 185.059 146.885 185.194V202.389H302.27V92.0651H216.847C216.712 92.0651 216.604 91.9558 216.604 91.8208C216.604 91.6858 216.712 91.5765 216.847 91.5765H302.513C302.647 91.5765 302.756 91.6858 302.756 91.8208V202.634C302.756 202.769 302.647 202.878 302.513 202.878H302.513Z" fill="#195DFF"/>
</g>
<defs>
<clipPath id="clip0_1059_7603">
<rect width="303" height="203" fill="white"/>
</clipPath>
</defs>
</svg>
