<svg width="100" height="100" viewBox="0 0 100 100" fill="none" xmlns="http://www.w3.org/2000/svg">
<g clip-path="url(#clip0)">
<path d="M51.3321 47.0164H81.1689C81.1689 47.0164 83.0882 40.2233 81.8668 31.5143C81.8668 31.5143 80.2964 27.334 75.7598 24.3729C75.7598 24.3729 71.5722 11.1352 69.6529 10.0901C67.7336 9.04506 52.728 8.52252 51.1576 8.52252C49.5872 8.52252 34.5816 9.04506 32.6623 10.0901C30.743 11.1352 26.5553 24.3729 26.5553 24.3729C22.0188 27.334 20.4484 31.5143 20.4484 31.5143C19.4015 40.2233 21.1463 47.0164 21.1463 47.0164H51.3321Z" stroke="#212121" stroke-width="2" stroke-miterlimit="10"/>
<path d="M26.9043 24.3729C27.2533 20.541 26.2064 18.7992 22.7167 19.1475C18.8781 19.4959 18.0056 23.1537 18.5291 24.0246C19.4015 25.0697 26.9043 24.3729 26.9043 24.3729Z" stroke="#212121" stroke-width="2" stroke-miterlimit="10"/>
<path d="M75.9344 24.3729C75.5854 20.541 76.6323 18.7992 80.122 19.1475C83.9606 19.4959 84.8331 23.1537 84.3096 24.0246C83.4372 25.0697 75.9344 24.3729 75.9344 24.3729Z" stroke="#212121" stroke-width="2" stroke-miterlimit="10"/>
<path d="M22.7168 47.0164V49.8033C22.7168 50.8483 23.5892 51.7192 24.6361 51.7192H31.79C32.8369 51.7192 33.7093 50.8483 33.7093 49.8033V46.8422" stroke="#212121" stroke-width="2" stroke-miterlimit="10"/>
<path d="M80.122 47.0164V49.8033C80.122 50.8483 79.2496 51.7192 78.2027 51.7192H71.0488C70.0019 51.7192 69.1295 50.8483 69.1295 49.8033V46.8422" stroke="#212121" stroke-width="2" stroke-miterlimit="10"/>
<path d="M20.7973 32.3852C24.9849 32.3852 35.454 33.0819 37.0244 36.2172C38.5947 39.1783 36.3264 39.5266 34.7561 39.5266C33.1857 39.5266 20.4484 39.5266 20.4484 39.5266" stroke="#212121" stroke-width="2" stroke-miterlimit="10"/>
<path d="M81.8668 32.3852C77.6792 32.3852 67.2102 33.0819 65.6398 36.2172C64.0695 39.1783 66.3378 39.5266 67.9081 39.5266C69.4785 39.5266 82.2158 39.5266 82.2158 39.5266" stroke="#212121" stroke-width="2" stroke-miterlimit="10"/>
<path d="M51.3321 41.0943C54.6473 41.0943 61.8011 40.5717 61.8011 38.3074C61.8011 36.043 53.4259 36.2172 51.3321 36.2172C49.0638 36.2172 40.863 36.043 40.863 38.3074C40.863 40.5717 48.0169 41.0943 51.3321 41.0943Z" stroke="#212121" stroke-width="2" stroke-miterlimit="10"/>
<path d="M26.9044 24.3729C41.2121 21.4119 59.7074 21.7602 75.9344 24.3729" stroke="#212121" stroke-width="2" stroke-miterlimit="10"/>
<path d="M17.8312 90.0389V92.4775L3.698 92.1291L4.57042 60.9508L18.7036 61.4733L18.5291 67.5697L17.8312 90.0389Z" stroke="#212121" stroke-width="2"/>
<path d="M70.8743 74.1885L86.5779 66.6988C89.3696 65.3053 92.8593 65.8279 94.9531 67.918C95.6511 68.6148 95.6511 69.834 94.7786 70.5307L64.2439 90.3873C59.8818 92.3033 55.1708 92.8258 50.4597 91.9549L28.4747 85.8586C26.3809 85.3361 24.2871 85.5102 22.3678 86.5553L17.8312 88.9939L18.5291 66.5246H18.7036C25.334 61.8217 33.8837 61.2992 41.0376 64.957L42.4334 65.6537C44.5272 66.6988 46.7955 67.2213 49.0638 67.3955L61.9756 67.7439C65.9888 67.7439 69.6529 70.3566 70.8743 74.1885Z" stroke="#212121" stroke-width="2"/>
<path d="M70.8743 74.1885C71.0488 74.5369 71.0488 74.8853 71.2233 75.4078C71.5723 76.9754 70.1764 78.543 68.606 78.543H52.9025" stroke="#212121" stroke-width="2"/>
</g>
<defs>
<clipPath id="clip0">
<rect width="93" height="85" fill="white" transform="translate(3 8)"/>
</clipPath>
</defs>
</svg>
