<svg width="100" height="100" viewBox="0 0 100 100" fill="none" xmlns="http://www.w3.org/2000/svg">
<path d="M49.8922 69.4476H85.1188C85.1188 69.4476 87.3848 61.4274 85.9428 51.1452C85.9428 51.1452 84.0888 46.2097 78.7327 42.7137C78.7327 42.7137 73.7886 27.0847 71.5225 25.8508C69.2565 24.6169 51.5402 24 49.6861 24C47.8321 24 30.1158 24.6169 27.8498 25.8508C25.5837 27.0847 20.6396 42.7137 20.6396 42.7137C15.2835 46.2097 13.4295 51.1452 13.4295 51.1452C12.1935 61.4274 14.2535 69.4476 14.2535 69.4476H49.8922Z" stroke="#212121" stroke-width="2" stroke-miterlimit="10"/>
<path d="M21.0514 42.7137C21.4634 38.1895 20.2274 36.1331 16.1073 36.5444C11.5752 36.9557 10.5452 41.2742 11.1632 42.3024C12.1932 43.5363 21.0514 42.7137 21.0514 42.7137Z" stroke="#212121" stroke-width="2" stroke-miterlimit="10"/>
<path d="M78.9385 42.7137C78.5265 38.1895 79.7625 36.1331 83.8826 36.5444C88.4147 36.9557 89.4447 41.2742 88.8267 42.3024C87.7967 43.5363 78.9385 42.7137 78.9385 42.7137Z" stroke="#212121" stroke-width="2" stroke-miterlimit="10"/>
<path d="M16.1074 69.4476V72.7379C16.1074 73.9718 17.1374 75 18.3735 75H26.8196C28.0556 75 29.0857 73.9718 29.0857 72.7379V69.2419" stroke="#212121" stroke-width="2" stroke-miterlimit="10"/>
<path d="M83.8825 69.4476V72.7379C83.8825 73.9718 82.8525 75 81.6165 75H73.1703C71.9343 75 70.9043 73.9718 70.9043 72.7379V69.2419" stroke="#212121" stroke-width="2" stroke-miterlimit="10"/>
<path d="M13.8412 52.1734C18.7853 52.1734 31.1455 52.996 32.9996 56.6976C34.8536 60.1936 32.1755 60.6049 30.3215 60.6049C28.4675 60.6049 13.4292 60.6049 13.4292 60.6049" stroke="#212121" stroke-width="2" stroke-miterlimit="10"/>
<path d="M85.9426 52.1734C80.9985 52.1734 68.6383 52.996 66.7843 56.6976C64.9303 60.1936 67.6083 60.6049 69.4623 60.6049C71.3164 60.6049 86.3546 60.6049 86.3546 60.6049" stroke="#212121" stroke-width="2" stroke-miterlimit="10"/>
<path d="M49.8918 62.4556C53.8059 62.4556 62.2521 61.8387 62.2521 59.1653C62.2521 56.4919 52.3639 56.6976 49.8918 56.6976C47.2138 56.6976 37.5316 56.4919 37.5316 59.1653C37.5316 61.8387 45.9778 62.4556 49.8918 62.4556Z" stroke="#212121" stroke-width="2" stroke-miterlimit="10"/>
<path d="M21.0515 42.7137C37.9438 39.2177 59.7802 39.629 78.9386 42.7137" stroke="#212121" stroke-width="2" stroke-miterlimit="10"/>
<circle cx="73" cy="70" r="22" fill="white" stroke="black" stroke-width="2"/>
<g clip-path="url(#clip0)">
<path d="M67.6704 73.0127V74.9211C67.6704 76.7023 69.1453 78.1018 71.0224 78.1018H74.7766C78.1285 78.1018 79.3352 73.8397 76.3185 72.313L69.4134 68.687C66.4637 67.1603 67.6034 62.8982 70.9553 62.8982H74.9777C76.8548 62.8982 78.3296 64.2977 78.3296 66.0789V67.9873" stroke="#212121" stroke-width="2" stroke-miterlimit="10"/>
<path d="M73.0336 58V62.8982" stroke="#212121" stroke-width="2" stroke-miterlimit="10"/>
<path d="M73.0336 78.1018V83" stroke="#212121" stroke-width="2" stroke-miterlimit="10"/>
</g>
<defs>
<clipPath id="clip0">
<rect width="12" height="25" fill="white" transform="translate(67 58)"/>
</clipPath>
</defs>
</svg>
