<svg width="470" height="304" viewBox="0 0 470 304" fill="none" xmlns="http://www.w3.org/2000/svg">
<path d="M406.894 244.55L448.713 245.537C448.713 245.537 442.602 293.132 388.433 289.974C388.433 289.974 348.666 293.283 335.757 254.463L406.894 244.55ZM397.907 265.926C400.821 264.468 399.364 254.509 399.364 254.509L392.32 265.926C392.32 265.926 394.992 267.383 397.907 265.926ZM385.275 262.768L389.648 255.724L375.073 253.78C375.073 253.78 379.931 262.282 385.275 262.768Z" fill="black"/>
<path d="M296.249 69.2914C296.249 69.2914 312.039 67.591 308.881 80.951C305.723 94.3111 296.249 69.2914 296.249 69.2914Z" fill="#0C0C0C"/>
<path d="M62.2073 4.79956C62.3045 4.89182 62.3993 4.98407 62.4965 5.07881C62.7952 5.36553 63.0966 5.65448 63.3952 5.94368C65.4017 7.88454 67.3885 9.84478 69.3538 11.8269C70.7943 13.2794 72.2227 14.7443 73.6389 16.2186C92.7654 36.1275 109.628 57.9819 123.42 82.0445L127.064 84.9594L285.683 86.4168L316.047 84.9594C316.047 84.9594 270.936 40.8084 216.379 17.0131C214.431 16.1629 212.471 15.3371 210.498 14.5429H210.496C208.667 13.8043 206.831 13.0901 204.984 12.4053C199.252 10.275 193.211 9.09455 187.099 8.89537L95.219 5.88326L62.4724 4.80951L62.2073 4.79956Z" fill="url(#paint0_linear_351_395)"/>
<path d="M53.9168 4.86719L55.0293 6.69639L60.7693 16.1505L62.1489 16.1555L73.6386 16.2186L216.379 17.0129C214.431 16.1627 212.471 15.3368 210.498 14.5426H210.496C208.667 13.8041 206.83 13.0899 204.984 12.4051C199.252 10.2747 193.211 9.09429 187.099 8.89511L95.2187 5.88299L62.4965 5.07905L53.9168 4.86719Z" fill="#1A1A1A"/>
<path d="M201.879 170.22L196.778 177.75L114.189 232.162L109.088 250.866L101.072 240.906L106.659 177.022L131.679 147.63L170.301 142.286L201.879 170.22Z" fill="black"/>
<path d="M237.134 253.277C237.134 253.277 224.519 299.101 172.524 303.046C159.082 304.066 145.66 300.381 134.867 292.304C127.765 286.988 121.009 279.249 117.827 268.133C109.57 239.294 156.91 238.082 156.91 238.082L187.548 244.064L144.796 168.762C144.796 168.762 153.784 160.503 172.002 160.989C190.22 161.475 204.309 177.75 204.309 177.75C204.309 177.75 228.907 192.775 237.134 253.277Z" fill="#0C0C0C"/>
<path d="M115.23 261.988C115.235 264.328 111.55 265.492 109.799 266.104C95.1538 271.221 75.761 271.114 64.3919 259.096C59.85 254.295 53.7897 246.806 55.406 239.691L115.161 247.222C115.161 247.222 115.23 261.952 115.23 261.988Z" fill="#0C0C0C"/>
<path d="M-172.2 168.519V189.653L-163.455 203.012V167.548C-163.455 167.548 -155.682 144.472 -132.606 142.771C-109.529 141.071 -97.384 184.551 -97.384 184.551C-97.384 184.551 -93.4976 201.069 -92.0401 209.328C-90.5827 217.587 -80.3806 231.19 -80.3806 231.19L108.359 247.222L106.416 200.826C107.109 187.17 110.752 173.045 119.737 162.41C131.89 148.023 157.578 141.649 174.632 149.923C180.069 152.561 184.606 156.202 189.005 160.261C189.032 160.285 207.712 177.534 212.324 213.215C213.862 225.108 216.046 233.471 218.273 239.335C218.55 240.066 218.829 240.758 219.106 241.412C223.299 251.288 227.385 252.809 227.385 252.809L288.112 255.724H317.989C317.989 255.724 439.686 247.222 454.747 244.793C460.582 243.853 463.899 240.615 465.777 237.003C468.746 231.287 468.107 224.632 468.107 224.632L463.977 221.96L454.504 203.984H336.693L312.402 229.49L242.688 227.547L234.429 214.672L223.012 213.701C223.012 213.701 218.154 194.997 218.397 189.896C218.64 184.795 204.794 161.718 204.794 161.718C204.794 161.718 179.774 128.197 153.054 132.812C126.335 137.428 119.047 150.302 119.047 150.302L102.772 171.192L98.8861 199.612L90.3844 199.369L76.7815 210.786L2.6944 204.713L-65.077 200.098L-80.6232 184.794L-90.5826 184.308L-97.384 159.532C-97.384 159.532 -106.129 141.799 -113.416 137.913C-120.703 134.026 -126.776 133.297 -126.776 133.297C-126.776 133.297 -142.565 130.14 -154.224 141.799C-165.884 153.459 -166.613 168.519 -166.613 168.519H-172.2V168.519Z" fill="#1E1E1E"/>
<path d="M124.877 82.0439C124.877 82.0439 79.6964 9.90021 58.8063 2.1271C37.9163 -5.646 -75.2791 10.3859 -75.2791 10.3859C-75.2791 10.3859 -79.8944 13.7866 -87.4245 19.3735C-87.4245 19.3735 -127.504 23.2601 -119.246 48.0366L-98.6026 48.3186L-71.3927 82.0439L39.3734 87.6308L56.6198 88.8453L94.5135 91.0315H107.388L107.145 84.2302L126.091 83.2584L124.877 82.0439Z" fill="#1A1A1A"/>
<path d="M-172.2 168.52H-166.613C-158.597 130.869 -132.363 134.513 -132.363 134.513C-125.34 133.726 -119.438 135.642 -114.499 139.133C-112.551 140.507 -110.754 142.128 -109.097 143.923C-109.082 143.937 -109.068 143.954 -109.053 143.969C-108.856 144.185 -108.659 144.401 -108.465 144.622C-108.31 144.8 -108.154 144.977 -108.001 145.157C-107.979 145.183 -107.957 145.21 -107.933 145.237C-107.865 145.317 -107.797 145.397 -107.729 145.48C-107.707 145.507 -107.683 145.536 -107.659 145.565C-107.518 145.732 -107.38 145.903 -107.244 146.073C-107.073 146.279 -106.908 146.488 -106.745 146.699C-106.498 147.018 -106.252 147.338 -106.009 147.666C-105.864 147.863 -105.718 148.064 -105.572 148.266C-105.509 148.356 -105.443 148.446 -105.378 148.538C-105.237 148.737 -105.096 148.939 -104.958 149.141C-104.776 149.403 -104.596 149.67 -104.421 149.937C-104.258 150.18 -104.098 150.426 -103.94 150.674C-103.724 151.011 -103.512 151.351 -103.301 151.694C-103.16 151.922 -103.022 152.155 -102.883 152.386C-102.742 152.619 -102.606 152.855 -102.47 153.088C-101.797 154.254 -101.158 155.442 -100.554 156.639C-100.43 156.885 -100.308 157.13 -100.187 157.375C-100.031 157.696 -99.876 158.017 -99.7228 158.34C-99.5868 158.624 -99.4557 158.908 -99.3245 159.192C-99.3073 159.229 -99.2881 159.268 -99.271 159.306C-99.1569 159.554 -99.0452 159.804 -98.9333 160.054C-98.8458 160.249 -98.7607 160.443 -98.676 160.637C-98.5156 160.999 -98.3602 161.361 -98.2073 161.726C-98.1391 161.886 -98.0712 162.046 -98.0056 162.206C-97.9059 162.444 -97.8063 162.683 -97.7116 162.921C-97.6338 163.113 -97.5562 163.302 -97.4808 163.494C-97.3958 163.705 -97.3107 163.917 -97.2307 164.128C-96.9683 164.798 -96.7156 165.464 -96.4752 166.125C-96.3949 166.343 -96.3148 166.562 -96.2372 166.778C-96.1594 166.997 -96.0818 167.213 -96.0065 167.429C-95.8971 167.735 -95.7927 168.036 -95.6907 168.338C-95.4234 169.125 -95.1685 169.897 -94.9281 170.652C-94.8843 170.786 -94.843 170.917 -94.804 171.048C-94.7505 171.216 -94.697 171.384 -94.646 171.551C-94.6072 171.675 -94.5707 171.797 -94.5344 171.918C-94.0801 173.404 -93.682 174.821 -93.3322 176.135C-93.2762 176.344 -93.2229 176.55 -93.1692 176.757C-92.8146 178.124 -92.5157 179.37 -92.268 180.463C-92.2461 180.563 -92.2242 180.66 -92.2023 180.757C-92.1367 181.063 -92.0711 181.352 -92.0129 181.632C-91.9788 181.79 -91.9472 181.943 -91.9156 182.091C-91.8453 182.431 -91.7797 182.747 -91.7215 183.036C-91.6949 183.179 -91.668 183.318 -91.6411 183.446C-91.6048 183.641 -91.5707 183.823 -91.5391 183.988C-91.5222 184.076 -91.5076 184.158 -91.493 184.236C-91.386 184.814 -91.3303 185.166 -91.3156 185.256C-91.3131 185.273 -91.3106 185.28 -91.3106 185.28L-82.0801 185.523L-66.5339 203.013L78.2395 214.186L92.0853 201.312L95.4398 201.404L100.83 201.555C101.68 174.57 112.288 158.922 123.957 149.857C138.964 138.197 155.727 137.427 155.727 137.427C179.554 136.915 194.957 150.901 204.8 167.222C218.237 189.504 221.313 216.13 221.313 216.13H230.543L232.907 219.083L241.231 229.489L313.375 231.19L336.301 208.738L336.937 208.113L455.476 205.685L456.523 208.08L464.707 226.818L468.108 224.631L465.039 215.046V215.044L467.221 196.225L467.612 192.861L469.079 191.353V172.406L460.334 160.989V152.002H458.634C458.634 152.002 458.637 151.851 458.639 151.572C458.658 148.912 458.717 134.568 457.692 127.723C457.543 126.734 457.373 125.901 457.177 125.282C455.476 119.938 442.845 111.193 430.457 105.363C418.068 99.5337 317.504 84.2305 317.504 84.2305L186.091 80.3438L105.688 83.5016V90.3032L-70.6633 81.3156L-98.8406 48.0371H-119.245L-150.145 88.0393L-150.58 88.6028L-156.733 91.3379L-162.539 93.9176C-162.803 94.0342 -162.718 94.4326 -162.429 94.4326H-152.383C-148.824 94.4326 -146.716 98.409 -148.71 101.353L-157.399 114.179C-158.613 115.974 -160.588 117.108 -162.752 117.251L-164.421 117.363C-165.658 117.446 -166.619 118.466 -166.632 119.705L-166.85 144.445L-166.855 144.957C-171.471 148.601 -172.2 168.52 -172.2 168.52Z" fill="#F2F2F2"/>
<path d="M453.046 130.626L454.99 151.03L458.638 151.572C458.658 148.912 458.716 134.568 457.691 127.723L453.046 130.626Z" fill="#333333"/>
<path d="M460.334 200.341L465.039 215.044L467.611 192.861L460.334 200.341Z" fill="black"/>
<path d="M103.259 84.9589C94.7936 68.5588 84.8842 52.2218 72.846 38.2039C65.6324 29.8039 57.1411 22.9297 46.1107 20.6186C35.1061 18.313 23.5433 18.6343 12.411 19.6165C12.411 19.6165 0.0225983 50.223 1.72299 80.1007L103.259 84.9589Z" fill="url(#paint1_linear_351_395)"/>
<path d="M159.614 299.447C132.246 299.447 110.06 269.214 110.06 231.919C110.06 194.624 132.246 164.39 159.614 164.39C186.981 164.39 209.167 194.624 209.167 231.919C209.167 269.214 186.981 299.447 159.614 299.447Z" fill="url(#paint2_radial_351_395)"/>
<path d="M172.731 229.975L186.82 202.77C186.82 202.77 183.419 191.11 166.658 183.823L165.444 231.918L161.8 215.644L144.796 185.523C144.796 185.523 127.55 197.668 127.307 207.87L163.743 230.218L149.897 224.874L122.449 235.562C122.449 235.562 126.335 262.768 129.736 266.411C129.736 266.411 144.796 242.12 156.699 233.133L161.314 233.861L149.654 245.035L147.954 283.658C147.954 283.658 164.472 289.244 172.245 280.986L158.642 262.039L166.172 264.954L159.371 247.222L159.614 239.691L163.986 240.177L164.229 243.578H162.771L163.257 248.922L188.763 263.254C188.763 263.254 196.293 254.266 195.564 229.489L167.144 238.234L165.444 236.291L172.245 232.404L194.592 215.401C194.592 215.401 197.993 218.073 197.75 234.59C197.507 251.108 194.592 256.695 194.592 256.695L189.491 267.626L166.415 254.023L169.087 265.44L182.69 275.885C182.69 275.885 176.374 283.901 168.601 286.33C160.828 288.759 151.598 287.301 151.598 287.301L144.31 284.143L146.739 249.65L137.509 261.796L137.266 277.828C137.266 277.828 118.562 268.84 118.805 231.19L145.039 222.688L131.679 217.587C131.679 217.587 122.448 219.53 121.477 220.016C120.505 220.502 122.448 192.567 145.768 182.608L160.585 210.299V194.025L154.755 180.665C154.755 180.665 176.374 173.377 190.706 203.741L172.731 229.975Z" fill="#ECECEC"/>
<path d="M-172.199 168.896H-166.613C-159.599 136.211 -138.637 134.893 -133.505 135.074C-132.673 135.103 -131.84 135.091 -131.009 135.038C-125.57 134.692 -120.823 135.979 -116.695 138.343C-116.367 138.53 -116.042 138.725 -115.723 138.929C-115.308 139.186 -114.9 139.458 -114.499 139.74C-112.551 141.105 -110.754 142.711 -109.097 144.491C-109.082 144.506 -109.068 144.523 -109.053 144.537C-108.857 144.754 -108.66 144.967 -108.465 145.186C-108.31 145.363 -108.155 145.538 -108.001 145.716C-107.979 145.742 -107.958 145.769 -107.933 145.796C-107.865 145.876 -107.797 145.956 -107.729 146.036C-107.707 146.063 -107.683 146.092 -107.659 146.121C-107.52 146.289 -107.38 146.456 -107.244 146.626C-107.076 146.83 -106.908 147.037 -106.746 147.246C-106.498 147.562 -106.253 147.88 -106.01 148.206C-105.864 148.402 -105.718 148.601 -105.572 148.801C-105.509 148.89 -105.443 148.98 -105.378 149.073C-105.237 149.269 -105.096 149.469 -104.958 149.67C-104.776 149.93 -104.598 150.195 -104.421 150.46C-104.258 150.7 -104.098 150.946 -103.94 151.191C-103.724 151.524 -103.512 151.861 -103.301 152.201C-103.16 152.43 -103.022 152.66 -102.883 152.889C-102.742 153.119 -102.606 153.353 -102.47 153.586C-101.797 154.742 -101.159 155.92 -100.554 157.108C-100.43 157.351 -100.308 157.596 -100.187 157.839C-100.032 158.157 -99.8762 158.476 -99.723 158.796C-99.5869 159.078 -99.4559 159.36 -99.3246 159.642C-99.3074 159.678 -99.2883 159.717 -99.2711 159.756C-99.157 160.001 -99.0453 160.249 -98.9334 160.496C-98.8459 160.688 -98.7586 160.883 -98.6761 161.075C-98.5157 161.434 -98.3603 161.794 -98.2073 162.156C-98.1392 162.313 -98.0713 162.474 -98.0057 162.632C-97.9059 162.867 -97.8065 163.105 -97.7117 163.341C-97.6339 163.53 -97.5563 163.72 -97.481 163.909C-97.3959 164.118 -97.3109 164.329 -97.2308 164.538C-96.9685 165.204 -96.7158 165.865 -96.4753 166.518C-96.3928 166.737 -96.315 166.953 -96.2374 167.166C-96.1595 167.385 -96.082 167.599 -96.0066 167.812C-95.8972 168.116 -95.7928 168.415 -95.6908 168.714C-95.4235 169.496 -95.1686 170.261 -94.9282 171.012C-94.8844 171.143 -94.8431 171.274 -94.8041 171.403C-94.7506 171.57 -94.6971 171.735 -94.6462 171.903C-94.6074 172.024 -94.5708 172.146 -94.5345 172.267C-94.0802 173.742 -93.6821 175.146 -93.3322 176.45C-93.2763 176.657 -93.2231 176.863 -93.1693 177.067C-92.8147 178.423 -92.5158 179.659 -92.2682 180.745C-92.2463 180.842 -92.2244 180.939 -92.2025 181.036C-92.1369 181.34 -92.0712 181.626 -92.013 181.903C-91.9789 182.061 -91.9474 182.212 -91.9158 182.36C-91.8454 182.695 -91.7798 183.008 -91.7216 183.295C-91.695 183.438 -91.6681 183.577 -91.6413 183.703C-91.6049 183.897 -91.5709 184.077 -91.5393 184.24C-91.5224 184.328 -91.5078 184.41 -91.4931 184.488C-91.3861 185.061 -91.3304 185.411 -91.3157 185.498C-91.3133 185.515 -91.3108 185.523 -91.3108 185.523L-82.0803 185.763L-77.1491 191.268L-66.534 203.117L78.2394 214.2L90.5671 202.83L92.0852 201.428L95.4397 201.521L100.83 201.669C101.68 174.898 112.288 159.374 123.957 150.379C138.964 138.812 155.727 138.049 155.727 138.049C181.024 137.507 196.825 153.184 206.558 170.628C212.096 180.555 215.672 191.056 217.912 199.466C220.506 209.199 221.312 216.129 221.312 216.129H227.856C228.063 215.864 228.138 215.335 228.119 214.633C228.043 211.699 226.348 205.801 226.064 204.232C225.284 199.964 224.363 195.72 223.319 191.511C221.548 184.374 219.522 177.393 216.367 170.73C215.276 168.425 214.086 166.163 212.793 163.95C207.578 155.006 200.743 146.942 192.358 140.806C182.352 133.48 170.292 129.328 157.819 129.491C151.649 129.571 145.515 130.502 139.608 132.268C138.296 132.66 128.788 136.025 124.357 138.419C123.109 139.094 121.559 138.497 121.095 137.155C118.536 129.749 112.939 117.594 103.137 114.793C88.8058 110.695 -35.8061 104.671 -35.8061 104.671C-35.8061 104.671 -104.063 92.9287 -113.051 133.176C-113.056 133.2 -114.287 131.26 -115.723 130.23C-116.049 129.999 -116.379 129.775 -116.695 129.566C-117.55 129.003 -118.307 128.558 -118.633 128.383C-127.514 123.569 -137.893 125.571 -146.555 129.829C-154.843 133.907 -166.27 140.662 -169.379 149.893C-169.853 151.295 -172.826 168.896 -172.199 168.896Z" fill="#E6E6E6"/>
<path d="M312.403 129.897H328.092" stroke="#898D94" stroke-miterlimit="10"/>
<path d="M229.126 216.13L228.118 214.621L217.911 199.333" stroke="#898D94" stroke-miterlimit="10"/>
<path opacity="0.76" d="M308.98 129.21C308.803 128.887 308.606 128.544 308.387 128.182C303.733 120.395 290.018 103.877 255.562 98.5618C240.205 96.1935 224.846 93.8274 209.441 91.7896C194.075 89.7589 179.44 87.733 163.993 88.1361C163.466 88.1483 162.938 88.1652 162.411 88.1846C145.595 88.804 120.084 88.5457 103.309 89.8527C127.888 92.4058 161.18 96.1788 185.762 98.7294C197.662 99.9657 209.601 101.202 221.31 103.738C226.824 104.931 232.265 106.429 237.584 108.315C241.184 109.59 245.433 111.057 248.171 114.057C250.393 116.493 251.231 119.743 252.047 122.925C252.132 123.265 252.22 123.603 252.307 123.938" fill="url(#paint3_linear_351_395)"/>
<path d="M100.691 104.266C101.026 104.266 101.359 104.268 101.692 104.271C148.155 104.548 194.191 111.473 240.2 117.305C240.944 117.4 241.291 117.29 241.352 117.043C242.032 114.245 232.991 110.642 231.208 110.049C224.644 107.871 217.926 106.199 211.136 104.9C197.57 102.298 183.78 101.166 170.041 99.9081C148.255 97.9138 126.468 95.9025 104.67 94.0079C104.332 93.9788 103.994 93.9498 103.657 93.9204C102.845 96.1646 101.811 99.4973 100.691 104.266Z" fill="url(#paint4_linear_351_395)"/>
<path d="M204.799 167.223C218.237 189.505 221.312 216.13 221.312 216.13H230.543L232.906 219.083L240.016 194.997C240.016 194.997 238.073 189.41 304.63 195.483C304.63 195.483 326.006 196.697 329.892 203.984L336.3 208.738L336.937 208.114L455.476 205.685L456.523 208.08L467.22 196.226L467.611 192.862L469.079 191.353V172.407L460.334 160.99V159.537L446.245 179.694L329.892 181.394C329.892 181.394 326.734 170.949 225.927 171.435C225.927 171.435 241.474 159.047 322.605 160.99H327.706L328.556 129.29H312.524L294.428 147.387L235.401 145.444L204.799 167.223Z" fill="#E6E6E6"/>
<path d="M331.471 212.365C331.471 212.365 235.928 208.351 235.221 208.321C234.463 208.29 236.275 201.595 236.426 201.057C237.3 197.957 238.349 195.631 240.76 194.266C242.816 193.103 245.104 192.935 247.337 192.838C261.754 192.214 276.169 193.486 290.532 195.013C298.266 195.835 306.07 195.763 313.734 197.533C319.552 198.876 331.471 202.003 331.471 212.365Z" fill="url(#paint5_linear_351_395)"/>
<path d="M-77.1493 191.071L-66.5342 203.012L78.2392 214.186L90.5669 202.723L71.9213 180.92C68.195 176.565 62.868 173.898 57.1452 173.528L-46.7104 166.814C-51.4155 166.511 -56.0089 168.337 -59.2177 171.789L-77.1493 191.071Z" fill="url(#paint6_linear_351_395)"/>
<path d="M204.794 117.509L220.561 139.315C221.188 140.182 221.866 141 222.592 141.771C224.302 143.595 226.27 145.137 228.417 146.354C231.818 148.29 235.668 149.42 239.676 149.585L295.232 151.885C297.207 151.965 299.145 151.293 300.624 149.981C304.117 146.884 310.326 139.852 312.524 129.533C312.524 129.533 263.44 124.597 229.996 120.655H229.994C225.862 120.167 221.966 119.7 218.427 119.265C212.82 118.58 208.112 117.978 204.794 117.509Z" fill="#333333"/>
<path d="M238.593 134.548L230.601 142.36C232.093 143.951 233.808 145.296 235.681 146.357L243.465 138.573L300.555 142.256C301.643 142.326 302.565 141.462 302.565 140.372V139.641C302.565 138.673 301.833 137.862 300.87 137.763L244.948 132.006L237.058 123.946H237.056C233.452 123.52 230.055 123.113 226.968 122.734L238.593 134.548Z" fill="#F3F8FF"/>
<path d="M314.083 129.654H331.593V128.683H314.124C312.222 128.519 214.926 120.137 204.938 117.045C194.799 113.907 104.928 107.343 101.108 107.065L101.037 108.034C101.972 108.102 194.618 114.868 204.651 117.973C214.787 121.11 310.013 129.305 314.062 129.652L314.083 129.654Z" fill="#B3B3B3"/>
<path d="M447.158 126.847C437.758 126.043 386.079 122.097 332.507 127.492C330.617 127.682 328.898 128.69 327.824 130.257C326.653 131.968 325.52 134.653 325.52 138.642V158.507C325.52 159.606 326.054 160.637 326.953 161.27L345.878 174.603C346.54 175.07 347.331 175.321 348.141 175.321H438.947C440.429 175.321 441.772 174.444 442.367 173.086L449.16 157.588C449.16 157.588 453.941 136.389 449.851 128.595C449.323 127.588 448.292 126.944 447.158 126.847Z" fill="black"/>
<path d="M92.2647 201.373L93.2362 201.388C93.8919 154.841 97.4021 125.705 100.232 111.086C100.725 108.538 101.216 106.274 101.692 104.27C102.824 99.4851 103.868 96.1815 104.67 94.0076C105.608 91.4571 106.21 90.4564 106.222 90.4368L105.396 89.9268C105.338 90.019 104.67 91.1291 103.657 93.9201C102.846 96.1646 101.811 99.4972 100.691 104.265C100.232 106.226 99.7585 108.431 99.2801 110.902C96.4428 125.559 92.9206 154.756 92.2647 201.373Z" fill="#B3B3B3"/>
<path opacity="0.78" d="M-0.706358 115.444C-8.01782 115.444 -13.9449 113.541 -13.9449 111.193C-13.9449 108.846 -8.01782 106.942 -0.706358 106.942C6.60511 106.942 12.5322 108.846 12.5322 111.193C12.5322 113.541 6.60511 115.444 -0.706358 115.444Z" fill="#D6D6D6"/>
<path d="M11.8037 112.286C11.8037 112.286 5.67776 105.925 -12.3758 109.445C-12.8624 109.54 -13.2158 109.964 -13.2158 110.46V110.95C-13.2158 111.688 -12.6177 112.286 -11.8797 112.286H11.8037Z" fill="#F3F8FF"/>
<path opacity="0.49" d="M-87.5857 94.2613C-87.4422 91.3822 -48.4344 90.9856 -0.458939 93.3748C47.5165 95.7643 86.292 100.035 86.1485 102.914C86.005 105.793 46.9973 106.19 -0.978195 103.8C-48.9534 101.411 -87.7289 97.1404 -87.5857 94.2613Z" fill="white"/>
<path d="M221.676 140.729L222.083 141.333L197.983 157.56L197.576 156.955L221.676 140.729Z" fill="#B3B3B3"/>
<path d="M218.274 239.335C218.55 240.066 218.83 240.758 219.107 241.412C223.299 251.288 227.385 252.809 227.385 252.809L288.112 255.724H316.328C316.328 255.724 439.393 247.222 454.624 244.793C460.524 243.852 463.879 240.615 465.778 237.003L314.363 239.692L219.301 238.234L218.274 239.335Z" fill="#161616"/>
<path d="M102.831 236.671L92.7607 230.402C89.2421 228.212 85.1709 226.905 80.9442 226.608L-57.7902 216.884C-64.4642 216.416 -70.9152 219.22 -74.7939 224.276L-75.9539 225.788C-76.3804 226.343 -75.9833 227.117 -75.249 227.161L102.402 237.838C103.104 237.88 103.415 237.035 102.831 236.671Z" fill="url(#paint7_linear_351_395)"/>
<path d="M240.65 215.311C240.672 217.971 242.479 220.429 245.355 221.459C246.438 221.848 247.728 222.066 249.247 221.964C254.6 221.6 281.097 221.877 287.298 221.95C288.136 221.957 288.945 221.7 289.569 221.223L292.288 219.156L306.143 208.619C306.503 208.344 306.505 207.868 306.15 207.591L305.497 207.086L300.148 202.947C299.266 202.264 298.164 201.82 296.983 201.672C288.775 200.644 255.237 196.654 247.789 199.007C241.308 201.057 240.614 210.798 240.65 215.311Z" fill="#1A1A1A"/>
<path d="M252.948 205.221L253.012 213.579L292.288 219.156L306.143 208.619C306.503 208.344 306.505 207.869 306.15 207.592L305.497 207.086L305.237 207.021L252.948 205.221Z" fill="#333333"/>
<path d="M292.212 219.394L252.526 214.155V205.099L305.689 206.855L305.691 206.857L306.704 207.715L306.707 207.717L253.498 205.959V213.448L293.15 218.68H293.152L292.212 219.394Z" fill="#141414"/>
<path d="M444.162 134.13H447.46V135.544H444.162V134.13Z" fill="#333333"/>
<path d="M444.162 129.654H447.46V131.068H444.162V129.654Z" fill="#333333"/>
<path d="M444.162 138.606H447.46V140.255H444.162V138.606Z" fill="#333333"/>
<path d="M442.513 144.26H445.811V145.908H442.513V144.26Z" fill="#333333"/>
<path d="M441.452 150.031H444.75V151.68H441.452V150.031Z" fill="#333333"/>
<path d="M439.804 155.685H443.102V157.333H439.804V155.685Z" fill="#333333"/>
<path d="M437.919 161.338H441.217V162.987H437.919V161.338Z" fill="#333333"/>
<path d="M435.093 166.992H438.391V168.641H435.093V166.992Z" fill="#333333"/>
<path d="M436.388 134.13H439.686V135.544H436.388V134.13Z" fill="#333333"/>
<path d="M436.388 129.654H439.686V131.068H436.388V129.654Z" fill="#333333"/>
<path d="M436.388 138.606H439.686V140.255H436.388V138.606Z" fill="#333333"/>
<path d="M434.739 144.26H438.037V145.908H434.739V144.26Z" fill="#333333"/>
<path d="M433.679 150.031H436.977V151.68H433.679V150.031Z" fill="#333333"/>
<path d="M432.03 155.685H435.328V157.333H432.03V155.685Z" fill="#333333"/>
<path d="M430.146 161.338H433.443V162.987H430.146V161.338Z" fill="#333333"/>
<path d="M427.319 166.992H430.617V168.641H427.319V166.992Z" fill="#333333"/>
<path d="M428.615 134.13H431.913V135.544H428.615V134.13Z" fill="#333333"/>
<path d="M428.615 129.654H431.913V131.068H428.615V129.654Z" fill="#333333"/>
<path d="M428.615 138.606H431.913V140.255H428.615V138.606Z" fill="#333333"/>
<path d="M426.965 144.26H430.263V145.908H426.965V144.26Z" fill="#333333"/>
<path d="M425.905 150.031H429.203V151.68H425.905V150.031Z" fill="#333333"/>
<path d="M424.256 155.685H427.554V157.333H424.256V155.685Z" fill="#333333"/>
<path d="M422.372 161.338H425.67V162.987H422.372V161.338Z" fill="#333333"/>
<path d="M419.545 166.992H422.843V168.641H419.545V166.992Z" fill="#333333"/>
<path d="M420.84 134.13H424.138V135.544H420.84V134.13Z" fill="#333333"/>
<path d="M420.84 129.654H424.138V131.068H420.84V129.654Z" fill="#333333"/>
<path d="M420.84 138.606H424.138V140.255H420.84V138.606Z" fill="#333333"/>
<path d="M419.192 144.26H422.49V145.908H419.192V144.26Z" fill="#333333"/>
<path d="M418.131 150.031H421.429V151.68H418.131V150.031Z" fill="#333333"/>
<path d="M416.482 155.685H419.78V157.333H416.482V155.685Z" fill="#333333"/>
<path d="M414.598 161.338H417.896V162.987H414.598V161.338Z" fill="#333333"/>
<path d="M411.771 166.992H415.069V168.641H411.771V166.992Z" fill="#333333"/>
<path d="M413.067 134.13H416.365V135.544H413.067V134.13Z" fill="#333333"/>
<path d="M413.067 129.654H416.365V131.068H413.067V129.654Z" fill="#333333"/>
<path d="M413.067 138.606H416.365V140.255H413.067V138.606Z" fill="#333333"/>
<path d="M411.418 144.26H414.716V145.908H411.418V144.26Z" fill="#333333"/>
<path d="M410.358 150.031H413.656V151.68H410.358V150.031Z" fill="#333333"/>
<path d="M408.708 155.685H412.006V157.333H408.708V155.685Z" fill="#333333"/>
<path d="M406.824 161.338H410.123V162.987H406.824V161.338Z" fill="#333333"/>
<path d="M403.997 166.992H407.295V168.641H403.997V166.992Z" fill="#333333"/>
<path d="M405.293 134.13H408.591V135.544H405.293V134.13Z" fill="#333333"/>
<path d="M405.293 129.654H408.591V131.068H405.293V129.654Z" fill="#333333"/>
<path d="M405.293 138.606H408.591V140.255H405.293V138.606Z" fill="#333333"/>
<path d="M403.644 144.26H406.942V145.908H403.644V144.26Z" fill="#333333"/>
<path d="M402.584 150.031H405.882V151.68H402.584V150.031Z" fill="#333333"/>
<path d="M400.934 155.685H404.232V157.333H400.934V155.685Z" fill="#333333"/>
<path d="M399.05 161.338H402.348V162.987H399.05V161.338Z" fill="#333333"/>
<path d="M396.223 166.992H399.521V168.641H396.223V166.992Z" fill="#333333"/>
<path d="M397.519 134.13H400.817V135.544H397.519V134.13Z" fill="#333333"/>
<path d="M397.519 129.654H400.817V131.068H397.519V129.654Z" fill="#333333"/>
<path d="M397.519 138.606H400.817V140.255H397.519V138.606Z" fill="#333333"/>
<path d="M395.87 144.26H399.168V145.908H395.87V144.26Z" fill="#333333"/>
<path d="M394.81 150.031H398.108V151.68H394.81V150.031Z" fill="#333333"/>
<path d="M393.161 155.685H396.459V157.333H393.161V155.685Z" fill="#333333"/>
<path d="M391.277 161.338H394.575V162.987H391.277V161.338Z" fill="#333333"/>
<path d="M388.45 166.992H391.748V168.641H388.45V166.992Z" fill="#333333"/>
<path d="M389.746 134.13H393.043V135.544H389.746V134.13Z" fill="#333333"/>
<path d="M389.746 129.654H393.043V131.068H389.746V129.654Z" fill="#333333"/>
<path d="M389.746 138.606H393.043V140.255H389.746V138.606Z" fill="#333333"/>
<path d="M388.097 144.26H391.395V145.908H388.097V144.26Z" fill="#333333"/>
<path d="M387.036 150.031H390.334V151.68H387.036V150.031Z" fill="#333333"/>
<path d="M385.387 155.685H388.685V157.333H385.387V155.685Z" fill="#333333"/>
<path d="M383.503 161.338H386.801V162.987H383.503V161.338Z" fill="#333333"/>
<path d="M380.676 166.992H383.974V168.641H380.676V166.992Z" fill="#333333"/>
<path d="M381.971 134.13H385.27V135.544H381.971V134.13Z" fill="#333333"/>
<path d="M381.971 129.654H385.27V131.068H381.971V129.654Z" fill="#333333"/>
<path d="M381.971 138.606H385.27V140.255H381.971V138.606Z" fill="#333333"/>
<path d="M380.323 144.26H383.621V145.908H380.323V144.26Z" fill="#333333"/>
<path d="M379.262 150.031H382.561V151.68H379.262V150.031Z" fill="#333333"/>
<path d="M377.613 155.685H380.911V157.333H377.613V155.685Z" fill="#333333"/>
<path d="M375.729 161.338H379.027V162.987H375.729V161.338Z" fill="#333333"/>
<path d="M372.902 166.992H376.2V168.641H372.902V166.992Z" fill="#333333"/>
<path d="M374.198 134.13H377.496V135.544H374.198V134.13Z" fill="#333333"/>
<path d="M374.198 129.654H377.496V131.068H374.198V129.654Z" fill="#333333"/>
<path d="M374.198 138.606H377.496V140.255H374.198V138.606Z" fill="#333333"/>
<path d="M372.548 144.26H375.846V145.908H372.548V144.26Z" fill="#333333"/>
<path d="M371.488 150.031H374.786V151.68H371.488V150.031Z" fill="#333333"/>
<path d="M369.84 155.685H373.138V157.333H369.84V155.685Z" fill="#333333"/>
<path d="M367.955 161.338H371.253V162.987H367.955V161.338Z" fill="#333333"/>
<path d="M365.128 166.992H368.426V168.641H365.128V166.992Z" fill="#333333"/>
<path d="M366.424 134.13H369.722V135.544H366.424V134.13Z" fill="#333333"/>
<path d="M366.424 129.654H369.722V131.068H366.424V129.654Z" fill="#333333"/>
<path d="M366.424 138.606H369.722V140.255H366.424V138.606Z" fill="#333333"/>
<path d="M364.775 144.26H368.073V145.908H364.775V144.26Z" fill="#333333"/>
<path d="M363.715 150.031H367.013V151.68H363.715V150.031Z" fill="#333333"/>
<path d="M362.066 155.685H365.364V157.333H362.066V155.685Z" fill="#333333"/>
<path d="M360.181 161.338H363.479V162.987H360.181V161.338Z" fill="#333333"/>
<path d="M357.354 166.992H360.652V168.641H357.354V166.992Z" fill="#333333"/>
<path d="M358.65 134.13H361.948V135.544H358.65V134.13Z" fill="#333333"/>
<path d="M358.65 129.654H361.948V131.068H358.65V129.654Z" fill="#333333"/>
<path d="M358.65 138.606H361.948V140.255H358.65V138.606Z" fill="#333333"/>
<path d="M357.001 144.26H360.299V145.908H357.001V144.26Z" fill="#333333"/>
<path d="M355.941 150.031H359.239V151.68H355.941V150.031Z" fill="#333333"/>
<path d="M354.292 155.685H357.59V157.333H354.292V155.685Z" fill="#333333"/>
<path d="M352.408 161.338H355.706V162.987H352.408V161.338Z" fill="#333333"/>
<path d="M349.581 166.992H352.879V168.641H349.581V166.992Z" fill="#333333"/>
<path d="M350.876 134.13H354.174V135.544H350.876V134.13Z" fill="#333333"/>
<path d="M350.876 129.654H354.174V131.068H350.876V129.654Z" fill="#333333"/>
<path d="M350.876 138.606H354.174V140.255H350.876V138.606Z" fill="#333333"/>
<path d="M349.227 144.26H352.525V145.908H349.227V144.26Z" fill="#333333"/>
<path d="M348.168 150.031H351.465V151.68H348.168V150.031Z" fill="#333333"/>
<path d="M346.518 155.685H349.816V157.333H346.518V155.685Z" fill="#333333"/>
<path d="M344.634 161.338H347.932V162.987H344.634V161.338Z" fill="#333333"/>
<path d="M345.105 167.894V166.992H343.824L345.105 167.894Z" fill="#333333"/>
<path d="M343.102 134.13H346.4V135.544H343.102V134.13Z" fill="#333333"/>
<path d="M343.102 129.654H346.4V131.068H343.102V129.654Z" fill="#333333"/>
<path d="M343.102 138.606H346.4V140.255H343.102V138.606Z" fill="#333333"/>
<path d="M341.453 144.26H344.751V145.908H341.453V144.26Z" fill="#333333"/>
<path d="M340.393 150.031H343.691V151.68H340.393V150.031Z" fill="#333333"/>
<path d="M338.744 155.685H342.042V157.333H338.744V155.685Z" fill="#333333"/>
<path d="M336.86 161.338H340.158V162.987H336.86V161.338Z" fill="#333333"/>
<path d="M335.329 134.13H338.627V135.544H335.329V134.13Z" fill="#333333"/>
<path d="M335.329 129.654H338.627V131.068H335.329V129.654Z" fill="#333333"/>
<path d="M335.329 138.606H338.627V140.255H335.329V138.606Z" fill="#333333"/>
<path d="M333.679 144.26H336.978V145.908H333.679V144.26Z" fill="#333333"/>
<path d="M332.619 150.031H335.917V151.68H332.619V150.031Z" fill="#333333"/>
<path d="M330.97 155.685H334.269V157.333H330.97V155.685Z" fill="#333333"/>
<path d="M444.405 133.644H447.703V135.058H444.405V133.644Z" fill="#1A1A1A"/>
<path d="M444.405 129.168H447.703V130.582H444.405V129.168Z" fill="#1A1A1A"/>
<path d="M444.405 138.12H447.703V139.769H444.405V138.12Z" fill="#1A1A1A"/>
<path d="M442.756 143.774H446.054V145.423H442.756V143.774Z" fill="#1A1A1A"/>
<path d="M441.696 149.545H444.994V151.194H441.696V149.545Z" fill="#1A1A1A"/>
<path d="M440.047 155.199H443.345V156.848H440.047V155.199Z" fill="#1A1A1A"/>
<path d="M438.162 160.853H441.46V162.501H438.162V160.853Z" fill="#1A1A1A"/>
<path d="M435.335 166.506H438.633V168.155H435.335V166.506Z" fill="#1A1A1A"/>
<path d="M436.631 133.644H439.929V135.058H436.631V133.644Z" fill="#1A1A1A"/>
<path d="M436.631 129.168H439.929V130.582H436.631V129.168Z" fill="#1A1A1A"/>
<path d="M436.631 138.12H439.929V139.769H436.631V138.12Z" fill="#1A1A1A"/>
<path d="M434.982 143.774H438.28V145.423H434.982V143.774Z" fill="#1A1A1A"/>
<path d="M433.922 149.545H437.22V151.194H433.922V149.545Z" fill="#1A1A1A"/>
<path d="M432.273 155.199H435.571V156.848H432.273V155.199Z" fill="#1A1A1A"/>
<path d="M430.388 160.853H433.687V162.501H430.388V160.853Z" fill="#1A1A1A"/>
<path d="M427.561 166.506H430.859V168.155H427.561V166.506Z" fill="#1A1A1A"/>
<path d="M428.857 133.644H432.155V135.058H428.857V133.644Z" fill="#1A1A1A"/>
<path d="M428.857 129.168H432.155V130.582H428.857V129.168Z" fill="#1A1A1A"/>
<path d="M428.857 138.12H432.155V139.769H428.857V138.12Z" fill="#1A1A1A"/>
<path d="M427.208 143.774H430.506V145.423H427.208V143.774Z" fill="#1A1A1A"/>
<path d="M426.148 149.545H429.446V151.194H426.148V149.545Z" fill="#1A1A1A"/>
<path d="M424.499 155.199H427.797V156.848H424.499V155.199Z" fill="#1A1A1A"/>
<path d="M422.615 160.853H425.913V162.501H422.615V160.853Z" fill="#1A1A1A"/>
<path d="M419.788 166.506H423.086V168.155H419.788V166.506Z" fill="#1A1A1A"/>
<path d="M421.083 133.644H424.381V135.058H421.083V133.644Z" fill="#1A1A1A"/>
<path d="M421.083 129.168H424.381V130.582H421.083V129.168Z" fill="#1A1A1A"/>
<path d="M421.083 138.12H424.381V139.769H421.083V138.12Z" fill="#1A1A1A"/>
<path d="M419.434 143.774H422.732V145.423H419.434V143.774Z" fill="#1A1A1A"/>
<path d="M418.374 149.545H421.672V151.194H418.374V149.545Z" fill="#1A1A1A"/>
<path d="M416.725 155.199H420.023V156.848H416.725V155.199Z" fill="#1A1A1A"/>
<path d="M414.841 160.853H418.139V162.501H414.841V160.853Z" fill="#1A1A1A"/>
<path d="M412.014 166.506H415.312V168.155H412.014V166.506Z" fill="#1A1A1A"/>
<path d="M413.309 133.644H416.607V135.058H413.309V133.644Z" fill="#1A1A1A"/>
<path d="M413.309 129.168H416.607V130.582H413.309V129.168Z" fill="#1A1A1A"/>
<path d="M413.309 138.12H416.607V139.769H413.309V138.12Z" fill="#1A1A1A"/>
<path d="M411.661 143.774H414.958V145.423H411.661V143.774Z" fill="#1A1A1A"/>
<path d="M410.6 149.545H413.898V151.194H410.6V149.545Z" fill="#1A1A1A"/>
<path d="M408.951 155.199H412.25V156.848H408.951V155.199Z" fill="#1A1A1A"/>
<path d="M407.067 160.853H410.365V162.501H407.067V160.853Z" fill="#1A1A1A"/>
<path d="M404.24 166.506H407.538V168.155H404.24V166.506Z" fill="#1A1A1A"/>
<path d="M405.536 133.644H408.834V135.058H405.536V133.644Z" fill="#1A1A1A"/>
<path d="M405.536 129.168H408.834V130.582H405.536V129.168Z" fill="#1A1A1A"/>
<path d="M405.536 138.12H408.834V139.769H405.536V138.12Z" fill="#1A1A1A"/>
<path d="M403.887 143.774H407.185V145.423H403.887V143.774Z" fill="#1A1A1A"/>
<path d="M402.826 149.545H406.125V151.194H402.826V149.545Z" fill="#1A1A1A"/>
<path d="M401.178 155.199H404.476V156.848H401.178V155.199Z" fill="#1A1A1A"/>
<path d="M399.293 160.853H402.591V162.501H399.293V160.853Z" fill="#1A1A1A"/>
<path d="M396.467 166.506H399.765V168.155H396.467V166.506Z" fill="#1A1A1A"/>
<path d="M397.762 133.644H401.06V135.058H397.762V133.644Z" fill="#1A1A1A"/>
<path d="M397.762 129.168H401.06V130.582H397.762V129.168Z" fill="#1A1A1A"/>
<path d="M397.762 138.12H401.06V139.769H397.762V138.12Z" fill="#1A1A1A"/>
<path d="M396.113 143.774H399.411V145.423H396.113V143.774Z" fill="#1A1A1A"/>
<path d="M395.053 149.545H398.351V151.194H395.053V149.545Z" fill="#1A1A1A"/>
<path d="M393.404 155.199H396.702V156.848H393.404V155.199Z" fill="#1A1A1A"/>
<path d="M391.519 160.853H394.817V162.501H391.519V160.853Z" fill="#1A1A1A"/>
<path d="M388.692 166.506H391.99V168.155H388.692V166.506Z" fill="#1A1A1A"/>
<path d="M389.988 133.644H393.286V135.058H389.988V133.644Z" fill="#1A1A1A"/>
<path d="M389.988 129.168H393.286V130.582H389.988V129.168Z" fill="#1A1A1A"/>
<path d="M389.988 138.12H393.286V139.769H389.988V138.12Z" fill="#1A1A1A"/>
<path d="M388.339 143.774H391.637V145.423H388.339V143.774Z" fill="#1A1A1A"/>
<path d="M387.279 149.545H390.577V151.194H387.279V149.545Z" fill="#1A1A1A"/>
<path d="M385.63 155.199H388.928V156.848H385.63V155.199Z" fill="#1A1A1A"/>
<path d="M383.746 160.853H387.043V162.501H383.746V160.853Z" fill="#1A1A1A"/>
<path d="M380.919 166.506H384.217V168.155H380.919V166.506Z" fill="#1A1A1A"/>
<path d="M382.214 133.644H385.512V135.058H382.214V133.644Z" fill="#1A1A1A"/>
<path d="M382.214 129.168H385.512V130.582H382.214V129.168Z" fill="#1A1A1A"/>
<path d="M382.214 138.12H385.512V139.769H382.214V138.12Z" fill="#1A1A1A"/>
<path d="M380.565 143.774H383.863V145.423H380.565V143.774Z" fill="#1A1A1A"/>
<path d="M379.505 149.545H382.803V151.194H379.505V149.545Z" fill="#1A1A1A"/>
<path d="M377.857 155.199H381.155V156.848H377.857V155.199Z" fill="#1A1A1A"/>
<path d="M375.972 160.853H379.27V162.501H375.972V160.853Z" fill="#1A1A1A"/>
<path d="M373.145 166.506H376.443V168.155H373.145V166.506Z" fill="#1A1A1A"/>
<path d="M374.44 133.644H377.738V135.058H374.44V133.644Z" fill="#1A1A1A"/>
<path d="M374.44 129.168H377.738V130.582H374.44V129.168Z" fill="#1A1A1A"/>
<path d="M374.44 138.12H377.738V139.769H374.44V138.12Z" fill="#1A1A1A"/>
<path d="M372.791 143.774H376.089V145.423H372.791V143.774Z" fill="#1A1A1A"/>
<path d="M371.731 149.545H375.029V151.194H371.731V149.545Z" fill="#1A1A1A"/>
<path d="M370.083 155.199H373.381V156.848H370.083V155.199Z" fill="#1A1A1A"/>
<path d="M368.198 160.853H371.496V162.501H368.198V160.853Z" fill="#1A1A1A"/>
<path d="M365.371 166.506H368.669V168.155H365.371V166.506Z" fill="#1A1A1A"/>
<path d="M366.667 133.644H369.965V135.058H366.667V133.644Z" fill="#1A1A1A"/>
<path d="M366.667 129.168H369.965V130.582H366.667V129.168Z" fill="#1A1A1A"/>
<path d="M366.667 138.12H369.965V139.769H366.667V138.12Z" fill="#1A1A1A"/>
<path d="M365.017 143.774H368.315V145.423H365.017V143.774Z" fill="#1A1A1A"/>
<path d="M363.957 149.545H367.255V151.194H363.957V149.545Z" fill="#1A1A1A"/>
<path d="M362.309 155.199H365.607V156.848H362.309V155.199Z" fill="#1A1A1A"/>
<path d="M360.424 160.853H363.722V162.501H360.424V160.853Z" fill="#1A1A1A"/>
<path d="M357.597 166.506H360.896V168.155H357.597V166.506Z" fill="#1A1A1A"/>
<path d="M358.893 133.644H362.191V135.058H358.893V133.644Z" fill="#1A1A1A"/>
<path d="M358.893 129.168H362.191V130.582H358.893V129.168Z" fill="#1A1A1A"/>
<path d="M358.893 138.12H362.191V139.769H358.893V138.12Z" fill="#1A1A1A"/>
<path d="M357.244 143.774H360.542V145.423H357.244V143.774Z" fill="#1A1A1A"/>
<path d="M356.184 149.545H359.482V151.194H356.184V149.545Z" fill="#1A1A1A"/>
<path d="M354.535 155.199H357.833V156.848H354.535V155.199Z" fill="#1A1A1A"/>
<path d="M352.651 160.853H355.949V162.501H352.651V160.853Z" fill="#1A1A1A"/>
<path d="M349.824 166.506H353.122V168.155H349.824V166.506Z" fill="#1A1A1A"/>
<path d="M351.119 133.644H354.417V135.058H351.119V133.644Z" fill="#1A1A1A"/>
<path d="M351.119 129.168H354.417V130.582H351.119V129.168Z" fill="#1A1A1A"/>
<path d="M351.119 138.12H354.417V139.769H351.119V138.12Z" fill="#1A1A1A"/>
<path d="M349.47 143.774H352.768V145.423H349.47V143.774Z" fill="#1A1A1A"/>
<path d="M348.41 149.545H351.708V151.194H348.41V149.545Z" fill="#1A1A1A"/>
<path d="M346.761 155.199H350.059V156.848H346.761V155.199Z" fill="#1A1A1A"/>
<path d="M344.877 160.853H348.175V162.501H344.877V160.853Z" fill="#1A1A1A"/>
<path d="M345.348 167.409V166.506H344.066L345.348 167.409Z" fill="#1A1A1A"/>
<path d="M343.346 133.644H346.644V135.058H343.346V133.644Z" fill="#1A1A1A"/>
<path d="M343.346 129.168H346.644V130.582H343.346V129.168Z" fill="#1A1A1A"/>
<path d="M343.346 138.12H346.644V139.769H343.346V138.12Z" fill="#1A1A1A"/>
<path d="M341.696 143.774H344.994V145.423H341.696V143.774Z" fill="#1A1A1A"/>
<path d="M340.636 149.545H343.934V151.194H340.636V149.545Z" fill="#1A1A1A"/>
<path d="M338.988 155.199H342.286V156.848H338.988V155.199Z" fill="#1A1A1A"/>
<path d="M337.103 160.853H340.401V162.501H337.103V160.853Z" fill="#1A1A1A"/>
<path d="M335.572 133.644H338.87V135.058H335.572V133.644Z" fill="#1A1A1A"/>
<path d="M335.572 129.168H338.87V130.582H335.572V129.168Z" fill="#1A1A1A"/>
<path d="M335.572 138.12H338.87V139.769H335.572V138.12Z" fill="#1A1A1A"/>
<path d="M333.922 143.774H337.22V145.423H333.922V143.774Z" fill="#1A1A1A"/>
<path d="M332.862 149.545H336.16V151.194H332.862V149.545Z" fill="#1A1A1A"/>
<path d="M331.214 155.199H334.512V156.848H331.214V155.199Z" fill="#1A1A1A"/>
<path d="M332.047 227.047L454.7 224.729L454.755 227.632L332.102 229.95L332.047 227.047Z" fill="#161616"/>
<path d="M332.047 220.224L454.7 217.906L454.755 220.809L332.102 223.127L332.047 220.224Z" fill="#161616"/>
<path d="M446.16 219.063H449.354V226.467H446.16V219.063Z" fill="#161616"/>
<path d="M437.014 211.368H440.208V218.772H437.014V211.368Z" fill="#161616"/>
<path d="M417.415 212.24H420.609V219.644H417.415V212.24Z" fill="#161616"/>
<path d="M398.251 212.24H401.445V219.644H398.251V212.24Z" fill="#161616"/>
<path d="M380.103 213.11H383.297V220.514H380.103V213.11Z" fill="#161616"/>
<path d="M361.957 213.546H365.15V220.95H361.957V213.546Z" fill="#161616"/>
<path d="M344.244 213.546H347.438V220.95H344.244V213.546Z" fill="#161616"/>
<path d="M426.997 219.063H430.19V226.467H426.997V219.063Z" fill="#161616"/>
<path d="M407.833 219.063H411.027V226.467H407.833V219.063Z" fill="#161616"/>
<path d="M388.669 219.063H391.863V226.467H388.669V219.063Z" fill="#161616"/>
<path d="M371.102 220.514H374.296V227.918H371.102V220.514Z" fill="#161616"/>
<path d="M352.955 220.514H356.149V227.918H352.955V220.514Z" fill="#161616"/>
<path d="M335.679 220.514H338.873V227.918H335.679V220.514Z" fill="#161616"/>
<path d="M76.8862 92.1758C76.8862 92.1758 85.4518 88.9819 85.8875 95.2245C86.3229 101.467 70.7887 107.129 66.1431 98.5636C61.4972 89.998 76.8862 92.1758 76.8862 92.1758Z" fill="#E6E6E6"/>
<path d="M53.9484 84.2305L66.3368 98.319C66.3368 98.319 75.5673 100.262 78.2393 92.4892L70.4661 82.0442L53.9484 84.2305Z" fill="url(#paint8_linear_351_395)"/>
<path d="M55.1628 84.959C48.5799 84.959 41.9969 84.9563 35.4139 84.9722C34.8639 84.9734 34.3011 84.9727 33.7826 84.7887C30.215 83.5212 29.2765 77.7673 29.7818 74.6147C30.4144 70.6688 32.6788 67.0529 35.2443 64.0687C40.4131 58.0561 48.4025 55.2547 56.1973 55.3678C63.2333 55.4697 73.2004 58.1683 77.445 64.3877C79.2597 67.0475 79.2771 71.2087 79.2916 74.316C79.3033 76.8291 79.4027 80.6692 77.1732 82.4102C76.5209 82.9194 75.7 83.1542 74.8946 83.3437C68.5762 84.8299 61.6379 84.959 55.1628 84.959Z" fill="url(#paint9_linear_351_395)"/>
<defs>
<linearGradient id="paint0_linear_351_395" x1="170.104" y1="99.3539" x2="189.668" y2="43.3288" gradientUnits="userSpaceOnUse">
<stop stop-color="#8E8E8E"/>
<stop offset="1" stop-color="#333333"/>
</linearGradient>
<linearGradient id="paint1_linear_351_395" x1="59.0836" y1="-12.544" x2="53.7479" y2="59.4887" gradientUnits="userSpaceOnUse">
<stop stop-color="#8E8E8E"/>
<stop offset="0.1794" stop-color="#858585"/>
<stop offset="0.4658" stop-color="#6E6E6E"/>
<stop offset="0.8215" stop-color="#494949"/>
<stop offset="1" stop-color="#333333"/>
</linearGradient>
<radialGradient id="paint2_radial_351_395" cx="0" cy="0" r="1" gradientUnits="userSpaceOnUse" gradientTransform="translate(159.614 231.919) rotate(180) scale(50.5447 69.2311)">
<stop offset="0.7947" stop-color="#191919"/>
<stop offset="0.8325" stop-color="#282828"/>
<stop offset="0.9003" stop-color="#404040"/>
<stop offset="0.9545" stop-color="#191919"/>
</radialGradient>
<linearGradient id="paint3_linear_351_395" x1="133.537" y1="87.1902" x2="319.798" y2="124.319" gradientUnits="userSpaceOnUse">
<stop offset="0.1043" stop-color="#CCCCCC"/>
<stop offset="0.2902" stop-color="#D7D7D7"/>
<stop offset="0.713" stop-color="#EBEBEB"/>
<stop offset="1" stop-color="#F2F2F2"/>
</linearGradient>
<linearGradient id="paint4_linear_351_395" x1="172.228" y1="95.0804" x2="171.042" y2="110.495" gradientUnits="userSpaceOnUse">
<stop offset="0.1043" stop-color="#CCCCCC"/>
<stop offset="0.2902" stop-color="#D7D7D7"/>
<stop offset="0.713" stop-color="#EBEBEB"/>
<stop offset="1" stop-color="#F2F2F2"/>
</linearGradient>
<linearGradient id="paint5_linear_351_395" x1="283.976" y1="188.024" x2="283.134" y2="213.712" gradientUnits="userSpaceOnUse">
<stop offset="0.1043" stop-color="#CCCCCC"/>
<stop offset="1" stop-color="#F2F2F2"/>
</linearGradient>
<linearGradient id="paint6_linear_351_395" x1="8.98718" y1="161.581" x2="6.31927" y2="202.933" gradientUnits="userSpaceOnUse">
<stop offset="0.1043" stop-color="#CCCCCC"/>
<stop offset="0.2902" stop-color="#D7D7D7"/>
<stop offset="0.713" stop-color="#EBEBEB"/>
<stop offset="1" stop-color="#F2F2F2"/>
</linearGradient>
<linearGradient id="paint7_linear_351_395" x1="12.7097" y1="238.588" x2="15.5694" y2="213.918" gradientUnits="userSpaceOnUse">
<stop offset="0.2161" stop-color="#404040"/>
<stop offset="0.4674" stop-color="#2D2D2D"/>
<stop offset="0.7609" stop-color="#1E1E1E"/>
<stop offset="1" stop-color="#191919"/>
</linearGradient>
<linearGradient id="paint8_linear_351_395" x1="78.2392" y1="90.2897" x2="53.9483" y2="90.2897" gradientUnits="userSpaceOnUse">
<stop offset="0.3528" stop-color="#161616"/>
<stop offset="0.9604" stop-color="#161616"/>
<stop offset="1" stop-color="#161616"/>
</linearGradient>
<linearGradient id="paint9_linear_351_395" x1="55.2688" y1="47.951" x2="54.6018" y2="71.5172" gradientUnits="userSpaceOnUse">
<stop offset="0.3528" stop-color="#161616"/>
<stop offset="0.484" stop-color="#191919"/>
<stop offset="0.8367" stop-color="#4D4D4D"/>
<stop offset="0.8993" stop-color="#313131"/>
<stop offset="0.9594" stop-color="#1D1D1D"/>
<stop offset="1" stop-color="#161616"/>
</linearGradient>
</defs>
</svg>
