<svg width="100" height="100" viewBox="0 0 100 100" fill="none" xmlns="http://www.w3.org/2000/svg">
<path d="M46.7536 27.4646L50.8237 29.4602L44.8155 34.1814L48.8856 35.1062L45.7361 43.7212L54.9907 40.0708L59.3031 45.3274L62.9371 39.9248L72.967 44.646L69.5752 33.646L76.8917 35.7389" stroke="#212121" stroke-width="3" stroke-linecap="round" stroke-linejoin="round"/>
<path d="M78.8299 32.332C79.7505 33.5001 80.6711 34.8629 81.6402 36.3718C81.6402 36.3718 82.4155 38.0267 83.9175 37.3452C85.4196 36.6638 85.5165 33.9382 87.0185 33.6461C87.8423 33.5001 90.6041 33.5001 92.9783 33.5488C95.0618 33.5974 96.6608 35.301 96.6608 37.3452V38.5134C96.6608 40.6063 94.9649 42.3098 92.8814 42.3098H85.2258C85.2258 42.3098 92.1546 48.978 92.3969 54.2346C92.6392 59.4913 93.8505 66.3054 86.7278 71.6107C79.5567 76.916 76.1649 76.1373 72.9186 76.1373C69.6722 76.1373 51.066 76.1373 51.066 76.1373H48.8371C48.8371 76.1373 30.1825 76.1373 26.9845 76.1373C23.7866 76.1373 20.3464 76.916 13.1753 71.6107C6.00413 66.3054 7.31237 59.4426 7.55464 54.2346C7.79691 49.0267 14.6773 42.3098 14.6773 42.3098H7.02165C4.93815 42.3098 3.24227 40.6063 3.24227 38.5134V37.3452C3.24227 35.2523 4.88969 33.5974 6.92475 33.5488C9.29897 33.5001 12.0608 33.5001 12.8845 33.6461C14.3866 33.9382 14.4835 36.6638 15.9856 37.3452C17.4876 38.0267 18.2629 36.3718 18.2629 36.3718C27.2753 21.8674 35.9 23.6196 47.0443 23.6196" stroke="#212121" stroke-width="3" stroke-linecap="round" stroke-linejoin="round"/>
<path d="M10.4619 69.031V79.6903C10.4619 81.3938 11.8186 82.7567 13.5144 82.7567H23.0113C24.7072 82.7567 26.0639 81.3938 26.0639 79.6903V76.1859" stroke="#212121" stroke-width="3" stroke-linecap="round" stroke-linejoin="round"/>
<path d="M89.5382 69.031V79.6903C89.5382 81.3938 88.1815 82.7567 86.4856 82.7567H76.9887C75.2928 82.7567 73.9361 81.3938 73.9361 79.6903V76.1859" stroke="#212121" stroke-width="3" stroke-linecap="round" stroke-linejoin="round"/>
<path d="M28.3897 32.3318C28.3897 32.3318 24.8526 34.9114 23.2536 40.1681C23.2536 40.1681 27.9536 43.1858 40.6484 43.4778" stroke="#212121" stroke-width="3" stroke-linecap="round" stroke-linejoin="round"/>
<path d="M15.7433 50.8274C15.7433 50.8274 23.9804 56.1327 24.4649 57.3008C24.9495 58.469 24.6588 62.0708 21.9938 61.8761C17.3423 61.5354 14.4835 60.1725 12.3515 57.1062" stroke="#212121" stroke-width="3" stroke-linecap="round" stroke-linejoin="round"/>
<path d="M84.2567 50.8274C84.2567 50.8274 76.0196 56.1327 75.535 57.3008C75.099 58.5177 75.3412 62.0708 78.0062 61.8761C82.6577 61.5354 85.5165 60.1725 87.6484 57.1062" stroke="#212121" stroke-width="3" stroke-linecap="round" stroke-linejoin="round"/>
<path d="M53.5371 17.2434L52.3258 23.0354L58.1402 25.5177L57.5588 19.1416L53.5371 17.2434Z" stroke="#212121" stroke-width="3" stroke-linecap="round" stroke-linejoin="round"/>
<path d="M73.1608 24.4956L72.3371 29.0222L76.5041 27.4646L77.7639 24.4956H73.1608Z" stroke="#212121" stroke-width="3" stroke-linecap="round" stroke-linejoin="round"/>
<path d="M50 69.761C50 69.761 72.5794 70.1017 72.4825 67.23C72.3856 64.3583 55.8144 64.261 50 64.261C44.1856 64.261 27.6144 64.3583 27.5175 67.23C27.4206 70.1017 50 69.761 50 69.761Z" stroke="#212121" stroke-width="3" stroke-linecap="round" stroke-linejoin="round"/>
<rect width="43" height="43" transform="translate(55 47)" fill="white"/>
<path d="M76.5 89.0373C87.8424 89.0373 97.0373 79.8424 97.0373 68.5C97.0373 57.1575 87.8424 47.9626 76.5 47.9626C65.1576 47.9626 55.9627 57.1575 55.9627 68.5C55.9627 79.8424 65.1576 89.0373 76.5 89.0373Z" fill="white" stroke="black" stroke-width="3" stroke-miterlimit="10"/>
<path d="M68.1567 68.5001L73.9328 74.2762L85.806 62.4031" fill="white"/>
<path d="M68.1567 68.5001L73.9328 74.2762L85.806 62.4031" stroke="black" stroke-width="3" stroke-miterlimit="10"/>
</svg>
