<svg xmlns="http://www.w3.org/2000/svg" width="100" height="100" fill="none" viewBox="0 0 103 100">
    <path stroke="#212121" stroke-width="3" d="M78.658 28.918c0 12.08-9.807 21.837-21.95 21.837-12.142 0-21.95-9.757-21.95-21.837S44.567 7.08 56.709 7.08c12.143 0 21.95 9.757 21.95 21.837zM17.596 90.19l-.058 2.73-15.295-.407.934-33.337 15.294.407-.175 6.62-.7 23.987z"/>
    <path stroke="#212121" stroke-width="3" d="M62.605 24.272c-.292-2.556-2.51-4.124-5.313-4.124-2.51 0-5.72 1.278-5.487 4.414.408 5.575 11.558 2.207 10.741 8.944-.35 3.252-4.086 3.775-5.137 3.775-1.05 0-5.546-.465-6.655-5.169M57.409 15.734v26.368"/>
    <path fill="#fff" stroke="#212121" stroke-width="3" d="M74.63 73.347l16.93-7.956c3.035-1.51 6.655-.872 8.99 1.393.817.813.7 2.15-.292 2.73l-32.75 21.082c-4.611 2.09-9.749 2.672-14.769 1.684l-23.643-6.562c-2.16-.581-4.495-.349-6.538.697l-4.962 2.613.642-24.044h.175c7.064-4.995 16.404-5.633 24.11-1.684l1.401.755c2.218 1.161 4.67 1.8 7.18 1.858l13.953.407c4.378.058 8.23 2.904 9.573 7.027z"/>
    <path fill="#fff" d="M74.63 73.347c.117.349.234.755.292 1.22.292 1.742-1.05 3.31-2.802 3.31H55.366"/>
    <path stroke="#212121" stroke-width="3" d="M74.63 73.347c.117.349.234.755.292 1.22.292 1.742-1.05 3.31-2.802 3.31H55.366"/>
</svg>
