<svg width="103" height="100" viewBox="0 0 103 100" fill="none" xmlns="http://www.w3.org/2000/svg">
<path d="M78.9269 28.9179C78.9269 40.998 69.1196 50.755 56.9771 50.755C44.8347 50.755 35.0273 40.998 35.0273 28.9179C35.0273 16.8378 44.8347 7.08081 56.9771 7.08081C69.1196 7.08081 78.9269 16.8378 78.9269 28.9179Z" stroke="white" stroke-width="3"/>
<path d="M17.8644 90.1896L17.806 92.9193L2.51123 92.5127L3.44526 59.1763L18.7401 59.5828L18.5649 66.2036L17.8644 90.1896Z" stroke="white" stroke-width="3"/>
<path d="M62.873 24.2717C62.5811 21.7163 60.3628 20.1482 57.5607 20.1482C55.0505 20.1482 51.8397 21.4259 52.0733 24.5621C52.4819 30.1375 63.6319 26.769 62.8146 33.506C62.4644 36.7583 58.7282 37.281 57.6775 37.281C56.6267 37.281 52.1316 36.8164 51.0225 32.1121" stroke="white" stroke-width="3"/>
<path d="M57.6777 15.7344V42.1015" stroke="white" stroke-width="3"/>
<path d="M74.8987 73.3472L91.8281 65.3906C94.8637 63.8806 98.4831 64.5194 100.818 66.7844C101.635 67.5975 101.519 68.9333 100.526 69.5141L67.7767 90.5962C63.1649 92.687 58.0277 93.2678 53.0073 92.2804L29.3646 85.7177C27.2046 85.1369 24.8695 85.3692 22.8263 86.4146L17.8643 89.0281L18.5064 64.984H18.6815C25.7452 59.9894 35.0855 59.3505 42.7913 63.2998L44.1923 64.0548C46.4107 65.2164 48.8625 65.8552 51.3727 65.9133L65.3249 66.3198C69.7031 66.3779 73.556 69.2237 74.8987 73.3472Z" stroke="white" stroke-width="3"/>
<path d="M74.8987 73.3472C75.0155 73.6956 75.1322 74.1022 75.1906 74.5668C75.4825 76.3091 74.1398 77.8772 72.3885 77.8772H55.6343" stroke="white" stroke-width="3"/>
</svg>
