<svg xmlns="http://www.w3.org/2000/svg" width="65" height="64" fill="none" viewBox="0 0 65 64">
    <path stroke="#F0F0F0" stroke-miterlimit="10" stroke-width="2" d="M26.644 14.947l-2.86-8.705c-.267-.791.332-1.583 1.13-1.583h14.172c.865 0 1.397.792 1.197 1.583l-2.86 8.705H26.643z"/>
    <path stroke="#F0F0F0" stroke-miterlimit="10" stroke-width="2" d="M37.356 14.947c8.65 0 17.165 7.189 17.165 17.146v15.63l4.258 4.352c2.262 2.309.6 6.2-2.661 6.2H7.882c-3.26 0-4.923-3.891-2.661-6.2l4.258-4.352v-15.63c0-9.958 8.582-17.146 17.165-17.146h10.712v0z"/>
    <path stroke="#F0F0F0" stroke-miterlimit="10" stroke-width="2" d="M26.71 39.282v1.978c0 1.847 1.464 3.298 3.327 3.298h3.726c3.327 0 4.524-4.419 1.53-6.002l-6.919-3.693c-2.927-1.582-1.796-6 1.53-6h3.992c1.863 0 3.327 1.45 3.327 3.297v1.978M32.033 23.718v5.078M32.033 44.558v5.078"/>
</svg>
