<svg xmlns="http://www.w3.org/2000/svg" width="65" height="64" fill="none" viewBox="0 0 65 64">
    <path stroke="#F0F0F0" stroke-miterlimit="10" stroke-width="2" d="M26.48 16.156l-2.413-7.28c-.224-.663.28-1.324.954-1.324h11.957c.73 0 1.18.661 1.011 1.323l-2.414 7.28h-9.094z"/>
    <path stroke="#F0F0F0" stroke-miterlimit="10" stroke-width="2" d="M35.52 16.156c7.297 0 14.482 6.012 14.482 14.34v13.072l3.593 3.64c1.909 1.931.505 5.185-2.245 5.185h-40.7c-2.75 0-4.154-3.254-2.245-5.184l3.593-3.64V30.495c0-8.328 7.241-14.34 14.483-14.34h9.038v0z"/>
    <path stroke="#F0F0F0" stroke-miterlimit="10" stroke-width="2" d="M26.537 36.508v1.655c0 1.545 1.235 2.758 2.807 2.758h3.144c2.806 0 3.817-3.696 1.29-5.02l-5.837-3.088c-2.47-1.324-1.516-5.02 1.29-5.02H32.6c1.572 0 2.807 1.214 2.807 2.759v1.654M31.028 23.492v4.247M31.028 40.92v4.248"/>
    <path fill="#202020" stroke="#F0F0F0" stroke-miterlimit="10" stroke-width="2" d="M46.5 58.373c7.122 0 12.895-5.987 12.895-13.373 0-7.386-5.773-13.373-12.895-13.373S33.605 37.614 33.605 45c0 7.386 5.773 13.373 12.895 13.373z"/>
    <path stroke="#F0F0F0" stroke-miterlimit="10" stroke-width="2" d="M41.261 45l3.627 3.761 7.455-7.731"/>
</svg>
