<svg width="65" height="63" viewBox="0 0 65 63" fill="none" xmlns="http://www.w3.org/2000/svg">
<path d="M15.7935 33.2232L13.9231 27.5368C13.753 27.0198 14.1356 26.5029 14.6883 26.5029H23.7429C24.2955 26.5029 24.6356 27.0198 24.5081 27.5368L22.6802 33.2232H15.7935Z" stroke="#212121" stroke-width="2" stroke-miterlimit="10"/>
<path d="M22.6377 33.2231C28.164 33.2231 33.6053 37.9188 33.6053 44.4237C33.6053 52.9103 33.6053 54.6334 33.6053 54.6334L36.3259 57.4767C37.7713 58.9844 36.7085 61.5261 34.6255 61.5261H3.80568C1.72268 61.5261 0.659926 58.9844 2.10527 57.4767L4.82592 54.6334C4.82592 54.6334 4.82592 52.9103 4.82592 44.4237C4.82592 37.9188 10.3097 33.2231 15.7935 33.2231H22.6377Z" stroke="#212121" stroke-width="2" stroke-miterlimit="10"/>
<path d="M15.8361 49.1193V50.4117C15.8361 51.6179 16.7713 52.5657 17.9616 52.5657H20.3422C22.4677 52.5657 23.2328 49.6794 21.3199 48.6455L16.8988 46.233C15.0284 45.1991 15.7511 42.3128 17.8766 42.3128H20.4272C21.6175 42.3128 22.5527 43.2606 22.5527 44.4668V45.7592" stroke="#212121" stroke-width="2" stroke-miterlimit="10"/>
<path d="M19.2369 38.9527V42.2698" stroke="#212121" stroke-width="2" stroke-miterlimit="10"/>
<path d="M19.2369 52.5657V55.8828" stroke="#212121" stroke-width="2" stroke-miterlimit="10"/>
<path d="M21.3624 22.5826V1.43077H52.6074L63.575 12.5452V59.8029H39.2167" stroke="#212121" stroke-width="2" stroke-miterlimit="10"/>
<path d="M52.6073 1.43077V12.5883H63.5749" stroke="#212121" stroke-width="2" stroke-miterlimit="10"/>
<path d="M47.2085 18.2316H58.0911" stroke="#212121" stroke-width="2" stroke-miterlimit="10"/>
<path d="M30.7146 24.995H58.0911" stroke="#212121" stroke-width="2" stroke-miterlimit="10"/>
<path d="M30.7146 31.8016H58.0911" stroke="#212121" stroke-width="2" stroke-miterlimit="10"/>
<path d="M48.3988 38.565H58.0911" stroke="#212121" stroke-width="2" stroke-miterlimit="10"/>
<path d="M36.5385 38.565H45.6356" stroke="#212121" stroke-width="2" stroke-miterlimit="10"/>
<path d="M38.3665 45.3284H58.0911" stroke="#212121" stroke-width="2" stroke-miterlimit="10"/>
<path d="M38.3665 52.0918H58.0911" stroke="#212121" stroke-width="2" stroke-miterlimit="10"/>
<path d="M27.8239 13.7083L31.9898 17.9301L41.8097 7.97881" stroke="#212121" stroke-width="2" stroke-miterlimit="10"/>
</svg>
