<svg width="60" height="60" viewBox="0 0 60 60" fill="none" xmlns="http://www.w3.org/2000/svg">
<path d="M26.0648 15.9568L23.6956 8.83451C23.4753 8.18703 23.9711 7.53955 24.6323 7.53955H36.368C37.0842 7.53955 37.525 8.18703 37.3597 8.83451L34.9905 15.9568H26.0648Z" stroke="#212121" stroke-width="2" stroke-miterlimit="10"/>
<path d="M34.9353 15.9568C42.0979 15.9568 49.1503 21.8381 49.1503 29.9856C49.1503 40.6151 49.1503 42.7733 49.1503 42.7733L52.6765 46.3345C54.5498 48.223 53.1724 51.4064 50.4727 51.4064H10.5273C7.82754 51.4064 6.45011 48.223 8.32341 46.3345L11.8496 42.7733C11.8496 42.7733 11.8496 40.6151 11.8496 29.9856C11.8496 21.8381 18.9571 15.9568 26.0647 15.9568H34.9353V15.9568Z" stroke="#212121" stroke-width="2" stroke-miterlimit="10"/>
<path d="M26.1198 35.867V37.4857C26.1198 38.9965 27.332 40.1835 28.8747 40.1835H31.9601C34.715 40.1835 35.7067 36.5684 33.2273 35.2734L27.4972 32.2519C25.073 30.9569 26.0096 27.3418 28.7645 27.3418H32.0703C33.613 27.3418 34.8252 28.5288 34.8252 30.0396V31.6583" stroke="#212121" stroke-width="2" stroke-miterlimit="10"/>
<path d="M30.5278 23.1331V27.2877" stroke="#212121" stroke-width="2" stroke-miterlimit="10"/>
<path d="M30.5278 40.1833V44.338" stroke="#212121" stroke-width="2" stroke-miterlimit="10"/>
<path d="M45.5 57.3955C52.622 57.3955 58.3955 51.622 58.3955 44.5C58.3955 37.378 52.622 31.6045 45.5 31.6045C38.378 31.6045 32.6045 37.378 32.6045 44.5C32.6045 51.622 38.378 57.3955 45.5 57.3955Z" fill="white" stroke="black" stroke-width="2" stroke-miterlimit="10"/>
<path d="M40.2612 44.5L43.8881 48.1269L51.3433 40.6716" fill="white"/>
<path d="M40.2612 44.5L43.8881 48.1269L51.3433 40.6716" stroke="black" stroke-width="2" stroke-miterlimit="10"/>
</svg>
