<svg width="246" height="165" viewBox="0 0 246 165" fill="none" xmlns="http://www.w3.org/2000/svg">
<path d="M223.245 61.1179C223.245 61.1179 250.487 68.9275 244.939 40.8063C239.391 12.6851 227.302 1.67039 220.781 0.422074C214.259 -0.826238 203.481 6.97917 207.361 33.4974L223.245 61.1179Z" fill="black"/>
<path d="M189.839 37.761L183.469 46.1397C178.468 38.7199 174.106 29.7771 169.87 25.3853C161.621 16.8321 163.012 23.6708 165.849 27.8523C165.849 27.8523 162.381 26.2354 161.61 30.1492C161.61 30.1492 158.988 30.4378 159.799 33.683C159.799 33.683 156.799 35.6476 161.979 39.4018C161.979 39.4018 165.48 51.2161 171.721 63.3139C175.863 71.4607 187.358 71.7504 191.903 63.8225L201.268 47.4854L189.839 37.761Z" fill="white"/>
<path d="M181.967 69.7974C181.863 69.7974 181.76 69.7962 181.656 69.7936C177.304 69.6838 173.524 67.2952 171.545 63.4036C165.605 51.887 162.101 40.4837 161.81 39.5225C159.742 38.012 158.709 36.5912 158.739 35.2989C158.761 34.3728 159.329 33.8072 159.578 33.6032C159.329 32.5147 159.433 31.631 159.888 30.9751C160.379 30.2673 161.131 30.0424 161.444 29.9771C161.701 28.8075 162.228 28.0121 163.012 27.6122C163.856 27.1817 164.791 27.3154 165.37 27.4751C164.02 25.2976 162.798 22.1193 163.826 21.2794C164.701 20.5633 166.782 21.8995 170.012 25.2479C172.678 28.0125 175.392 32.566 178.265 37.387C179.938 40.1939 181.667 43.0937 183.479 45.8011L189.683 37.6411C189.716 37.598 189.765 37.5704 189.818 37.5646C189.873 37.5585 189.926 37.5752 189.967 37.6103L201.395 47.3348C201.468 47.3964 201.486 47.5012 201.439 47.5838L192.073 63.9208C189.954 67.6172 186.193 69.7972 181.967 69.7974ZM164.288 27.7199C163.928 27.7199 163.545 27.7828 163.188 27.9654C162.489 28.3231 162.023 29.0707 161.803 30.1875C161.786 30.2721 161.716 30.3361 161.631 30.3455C161.622 30.3465 160.723 30.458 160.208 31.2047C159.806 31.788 159.733 32.6058 159.99 33.635C160.01 33.7167 159.977 33.8024 159.907 33.8484C159.876 33.8686 159.152 34.3608 159.132 35.3147C159.109 36.4624 160.133 37.8204 162.095 39.2418C162.13 39.2673 162.156 39.3038 162.168 39.3456C162.203 39.4636 165.736 51.2818 171.895 63.2232C173.808 66.9846 177.46 69.2929 181.666 69.3989C185.875 69.5024 189.634 67.3834 191.732 63.7241L201.016 47.5296L189.87 38.0461L183.626 46.2594C183.587 46.3099 183.526 46.3403 183.464 46.337C183.4 46.3352 183.342 46.3028 183.306 46.2502C181.432 43.4692 179.651 40.4803 177.928 37.5898C175.066 32.789 172.364 28.2545 169.729 25.5225C165.445 21.0807 164.318 21.3867 164.075 21.5856C163.361 22.1685 164.339 25.275 166.012 27.7411C166.062 27.8144 166.057 27.9121 166 27.9798C165.942 28.0476 165.847 28.0685 165.767 28.0313C165.757 28.0268 165.081 27.7198 164.288 27.7198L164.288 27.7199Z" fill="black"/>
<path d="M172.629 41.9821C171.687 41.9821 170.873 41.3156 170.431 40.6872C169.987 40.0551 169.731 39.3212 169.484 38.6114C169.423 38.4358 169.362 38.2602 169.298 38.0865C169.023 37.3394 168.611 36.4145 167.853 35.8897C167.493 35.6401 167.078 35.4921 166.64 35.3353C166.438 35.2632 166.229 35.1885 166.026 35.1032C165.439 34.8562 164.696 34.3976 164.49 33.616C164.213 32.5692 165.106 31.5436 166.08 31.278C167.036 31.0173 168.029 31.2787 168.96 31.5999C171.41 32.4458 173.452 33.5935 175.03 35.0111C175.111 35.0839 175.118 35.2086 175.045 35.2899C174.973 35.3714 174.848 35.378 174.767 35.3053C173.229 33.9231 171.232 32.8022 168.832 31.9735C167.96 31.6727 167.036 31.4264 166.183 31.6591C165.389 31.8757 164.659 32.7154 164.87 33.5149C165.036 34.1412 165.673 34.5264 166.178 34.7392C166.371 34.8202 166.575 34.8931 166.772 34.9634C167.215 35.1219 167.674 35.2857 168.077 35.5646C168.926 36.1524 169.373 37.1481 169.667 37.95C169.732 38.1258 169.794 38.3035 169.855 38.4813C170.094 39.1654 170.34 39.8728 170.752 40.4595C171.183 41.0714 172.008 41.7273 172.916 41.5612C173.023 41.5418 173.126 41.6129 173.145 41.7202C173.165 41.8275 173.094 41.9303 172.987 41.9498C172.866 41.9717 172.747 41.9821 172.629 41.9821Z" fill="black"/>
<path d="M166.794 37.1678C166.226 37.1678 165.705 36.894 165.35 36.6772C163.33 35.4452 161.984 33.2091 161.837 30.8414C161.83 30.7327 161.912 30.6389 162.021 30.6321C162.13 30.6252 162.223 30.7081 162.23 30.8169C162.369 33.0575 163.643 35.1738 165.554 36.3397C166.106 36.6761 166.549 36.8113 166.948 36.7639C167.372 36.7139 167.819 36.3532 167.782 35.9156C167.773 35.807 167.854 35.7116 167.962 35.7023C168.075 35.6929 168.165 35.7739 168.174 35.8826C168.23 36.5546 167.61 37.0836 166.994 37.1561C166.927 37.164 166.86 37.1678 166.794 37.1678Z" fill="black"/>
<path d="M164.264 37.6266C163.938 37.6266 163.583 37.5403 163.17 37.3624C161.787 36.7682 160.666 35.6272 160.094 34.232C160.053 34.1311 160.1 34.0157 160.201 33.9742C160.302 33.9329 160.417 33.9806 160.458 34.0816C160.991 35.3821 162.036 36.4457 163.324 36.9994C163.789 37.1991 164.157 37.2672 164.482 37.2144C164.81 37.1611 165.177 36.9212 165.242 36.5657C165.262 36.4586 165.362 36.3875 165.471 36.4071C165.578 36.4268 165.648 36.5298 165.629 36.637C165.541 37.1173 165.095 37.5149 164.545 37.6043C164.453 37.6192 164.36 37.6267 164.264 37.6267L164.264 37.6266Z" fill="black"/>
<path d="M162.353 38.9304C162.158 38.9304 161.964 38.8896 161.788 38.8062C161.69 38.7597 161.648 38.642 161.694 38.5434C161.741 38.4449 161.858 38.4026 161.956 38.4491C162.27 38.5977 162.665 38.5544 162.94 38.341C163.214 38.1275 163.355 37.754 163.289 37.4118C163.269 37.3046 163.339 37.2012 163.445 37.1807C163.553 37.1602 163.656 37.2303 163.676 37.3373C163.769 37.822 163.57 38.3508 163.181 38.6531C162.946 38.8357 162.649 38.9305 162.353 38.9305V38.9304Z" fill="black"/>
<path d="M242.612 98.5705H186.68C186.68 98.5705 193.339 79.6043 197.05 71.9058L230.882 74.4375L242.612 98.5706L242.612 98.5705Z" fill="white"/>
<path d="M242.612 98.7679H186.68C186.616 98.7679 186.556 98.7369 186.52 98.6845C186.483 98.6323 186.473 98.5653 186.495 98.5048C186.561 98.3151 193.199 79.4402 196.872 71.8197C196.908 71.7469 196.984 71.7021 197.064 71.7089L230.896 74.2405C230.966 74.2457 231.028 74.2877 231.058 74.3508L242.789 98.4839C242.818 98.5451 242.815 98.6173 242.779 98.675C242.743 98.7328 242.68 98.7679 242.612 98.7679H242.612ZM186.959 98.3729H242.297L230.754 74.6258L197.169 72.1126C193.733 79.2908 187.773 96.0669 186.959 98.3729Z" fill="black"/>
<path d="M229.551 75.2115C229.541 75.2614 197.193 73.7155 197.193 73.7155V49.5906L188.646 37.7609C188.646 37.7609 196.48 26.8494 217.271 30.2655C235.842 33.3167 241.022 45.2562 241.022 45.2562L226.112 55.1212L229.551 75.2113V75.2115Z" fill="#195DFF"/>
<path d="M189.933 81.0951H211.734C212.622 81.0951 213.282 80.2687 213.088 79.3985L205.52 45.4489C205.29 44.4186 204.379 43.686 203.327 43.686H181.833C180.747 43.686 179.94 44.6963 180.177 45.7599L187.644 79.2548C187.884 80.3304 188.835 81.0951 189.933 81.0951Z" fill="black"/>
<path d="M239.669 46.1396L226.112 55.1213L224.86 66.5603C224.86 66.5603 210.17 56.4777 206.051 54.3875C201.931 52.2973 195.466 52.1395 194.394 53.4227C193.322 54.7058 196.551 55.5766 196.551 55.5766C196.551 55.5766 192.297 55.693 192.262 56.9283C192.227 58.1636 197.805 59.7494 197.805 59.7494C197.805 59.7494 193.593 58.7922 192.529 59.6821C191.464 60.572 192.148 61.795 196.628 63.1531C196.628 63.1531 194.113 62.7499 193.841 64.25C193.637 65.3695 200.601 68.0188 204.466 69.1011C204.466 69.1011 212.926 78.128 222.987 85.3205C228.416 89.2015 236.028 87.0643 238.633 80.907C242.086 72.7427 244.928 60.6178 239.669 46.1396H239.669Z" fill="white"/>
<path d="M229.035 87.4689C226.851 87.4689 224.704 86.7901 222.873 85.4813C212.912 78.36 204.408 69.3269 204.323 69.2364C204.249 69.1569 204.252 69.032 204.331 68.9573C204.41 68.8827 204.535 68.8861 204.61 68.9659C204.694 69.056 213.173 78.0616 223.101 85.1597C225.646 86.9788 228.828 87.5347 231.831 86.6836C234.824 85.8358 237.237 83.7022 238.452 80.8299C243.31 69.3455 243.658 57.6968 239.484 46.2072C239.447 46.1048 239.5 45.9914 239.602 45.9541C239.703 45.9168 239.817 45.9694 239.854 46.0721C244.063 57.6587 243.713 69.405 238.814 80.9842C237.552 83.9673 235.046 86.1832 231.938 87.0637C230.98 87.3352 230.004 87.4689 229.035 87.4689H229.035Z" fill="black"/>
<path d="M202.661 57.5219C202.629 57.5219 202.597 57.5141 202.567 57.4976C200.832 56.5436 198.872 55.9584 196.899 55.8055C196.791 55.797 196.71 55.7021 196.718 55.5933C196.727 55.4846 196.82 55.4037 196.93 55.4116C198.958 55.569 200.973 56.1705 202.756 57.1512C202.851 57.2037 202.886 57.3237 202.834 57.4192C202.798 57.4848 202.731 57.5218 202.661 57.5218L202.661 57.5219Z" fill="black"/>
<path d="M201.305 61.2431C201.278 61.2431 201.25 61.2372 201.224 61.2251C200.19 60.7507 199.112 60.3491 198.021 60.0317C197.917 60.0013 197.857 59.8918 197.887 59.7871C197.917 59.6824 198.026 59.6217 198.131 59.6524C199.24 59.9752 200.336 60.3834 201.388 60.8658C201.486 60.9112 201.53 61.0284 201.485 61.1276C201.452 61.2001 201.38 61.243 201.306 61.243L201.305 61.2431Z" fill="black"/>
<path d="M200.83 64.6898C200.803 64.6898 200.776 64.6844 200.751 64.673C199.492 64.1166 198.171 63.6953 196.824 63.4208C196.717 63.3991 196.648 63.2949 196.67 63.188C196.691 63.0813 196.794 63.0117 196.902 63.0338C198.277 63.3138 199.625 63.7437 200.909 64.3116C201.009 64.3556 201.054 64.4721 201.01 64.5719C200.978 64.6458 200.905 64.6898 200.83 64.6898Z" fill="black"/>
<path d="M230.775 71.602C230.732 71.602 230.688 71.5878 230.652 71.5586L224.973 66.9875C224.888 66.9193 224.874 66.795 224.942 66.7099C225.01 66.6249 225.134 66.6111 225.219 66.6793L230.898 71.2504C230.983 71.3187 230.996 71.4429 230.928 71.528C230.89 71.5767 230.832 71.602 230.775 71.602Z" fill="black"/>
<path d="M223.489 17.8232L221.024 30.4988L224.347 32.0264C224.347 32.0264 214.318 47.491 209.082 50.73C209.082 50.73 207.566 38.7428 209.863 29.6046L213.135 29.4072L215.238 22.0029L223.489 17.8232Z" fill="white"/>
<path d="M213.928 8.95086C213.928 8.95086 209.432 20.6229 213.103 23.502C216.774 26.3812 222.678 19.757 222.678 19.757C222.678 19.757 226.356 19.9584 226.356 16.363C226.356 14.0866 223.202 14.0965 222.495 16.363C222.495 16.363 221.036 16.8856 221.185 15.9164C221.335 14.9472 222.76 8.6295 213.928 8.95077L213.928 8.95086Z" fill="white"/>
<path d="M215.249 24.4323C214.455 24.4323 213.683 24.2077 212.982 23.6577C209.239 20.722 213.559 9.3617 213.745 8.87966C213.773 8.80605 213.843 8.75637 213.921 8.75351C216.967 8.64322 219.142 9.30602 220.381 10.7254C221.958 12.5316 221.539 15.0012 221.402 15.8127L221.38 15.9468C221.348 16.1564 221.416 16.2132 221.438 16.2317C221.596 16.3626 222.031 16.301 222.34 16.2065C222.8 14.892 224.051 14.3378 225.019 14.4865C225.761 14.6003 226.553 15.1529 226.553 16.363C226.553 17.4625 226.221 18.3351 225.567 18.9561C224.569 19.9048 223.143 19.9579 222.763 19.9567C222.216 20.5552 218.544 24.4322 215.249 24.4322V24.4323ZM214.066 9.14391C213.605 10.3894 209.906 20.744 213.224 23.3465C213.838 23.8278 214.523 24.0264 215.234 24.0264C218.563 24.0267 222.483 19.6789 222.531 19.6254C222.571 19.5808 222.629 19.5561 222.688 19.5599C222.703 19.5607 224.286 19.6322 225.299 18.6676C225.87 18.1241 226.159 17.3487 226.159 16.3631C226.159 15.5478 225.711 14.9922 224.96 14.877C224.131 14.7496 223.049 15.2477 222.683 16.4221C222.664 16.4812 222.619 16.5282 222.561 16.549C222.464 16.5838 221.601 16.8792 221.187 16.5362C221.067 16.4365 220.936 16.2429 220.991 15.8862C220.997 15.8478 221.005 15.801 221.014 15.7466C221.144 14.9809 221.538 12.6507 220.085 10.9857C218.945 9.67983 216.915 9.06168 214.066 9.14391Z" fill="black"/>
<path d="M222.696 18.7863C222.669 18.7863 222.642 18.781 222.617 18.7696C222.517 18.7256 222.472 18.6091 222.516 18.5093C222.832 17.7876 223.699 17.2899 224.572 17.3217C224.681 17.3259 224.766 17.4176 224.761 17.5265C224.757 17.6358 224.658 17.7193 224.557 17.7164C223.846 17.6906 223.126 18.0983 222.876 18.6683C222.843 18.7423 222.771 18.7863 222.696 18.7863Z" fill="black"/>
<path d="M112.18 6.44171H2.96369C1.7287 6.44171 0.727539 7.44644 0.727539 8.68584V149.443C0.727539 150.683 1.7287 151.688 2.96369 151.688H112.18C113.415 151.688 114.416 150.683 114.416 149.443V8.68584C114.416 7.44644 113.415 6.44171 112.18 6.44171Z" fill="white"/>
<path d="M112.18 151.885H2.96365C1.62212 151.885 0.530762 150.79 0.530762 149.443V8.68577C0.530762 7.33946 1.62212 6.2442 2.96365 6.2442H112.18C113.521 6.2442 114.612 7.33946 114.612 8.68577V149.443C114.612 150.79 113.521 151.885 112.18 151.885ZM2.96365 6.63908C1.83905 6.63908 0.924241 7.55725 0.924241 8.68577V149.443C0.924241 150.572 1.83905 151.49 2.96365 151.49H112.18C113.304 151.49 114.219 150.572 114.219 149.443V8.68577C114.219 7.55725 113.304 6.63908 112.18 6.63908H2.96365Z" fill="black"/>
<path d="M108.505 145.954H6.63815C6.52941 145.954 6.44141 145.865 6.44141 145.756V12.3731C6.44141 12.264 6.52941 12.1756 6.63815 12.1756H108.505C108.614 12.1756 108.702 12.264 108.702 12.3731V145.756C108.702 145.865 108.614 145.954 108.505 145.954ZM6.83489 145.559H108.309V12.5705H6.83489V145.559Z" fill="black"/>
<path d="M81.1029 18.0536H34.0403C30.0223 18.0536 26.7651 14.7848 26.7651 10.7525V0.296051H88.3781V10.7525C88.3781 14.7848 85.1209 18.0536 81.1029 18.0536Z" fill="#E2EAFF"/>
<path d="M100.329 52.1695H66.436C66.3273 52.1695 66.2393 52.0811 66.2393 51.9721C66.2393 51.8631 66.3273 51.7747 66.436 51.7747H100.329C100.438 51.7747 100.526 51.8631 100.526 51.9721C100.526 52.0811 100.438 52.1695 100.329 52.1695Z" fill="black"/>
<path d="M54.4642 52.1696H39.33C39.2213 52.1696 39.1333 52.0812 39.1333 51.9722C39.1333 51.8631 39.2213 51.7747 39.33 51.7747H54.4642C54.573 51.7747 54.661 51.8631 54.661 51.9722C54.661 52.0812 54.573 52.1696 54.4642 52.1696Z" fill="black"/>
<path d="M100.33 60.9012H76.601C76.4923 60.9012 76.4043 60.8128 76.4043 60.7037C76.4043 60.5947 76.4923 60.5063 76.601 60.5063H100.33C100.438 60.5063 100.526 60.5947 100.526 60.7037C100.526 60.8128 100.438 60.9012 100.33 60.9012Z" fill="black"/>
<path d="M68.9207 60.9012H39.33C39.2213 60.9012 39.1333 60.8128 39.1333 60.7037C39.1333 60.5947 39.2213 60.5063 39.33 60.5063H68.9207C69.0295 60.5063 69.1175 60.5947 69.1175 60.7037C69.1175 60.8128 69.0295 60.9012 68.9207 60.9012Z" fill="black"/>
<path d="M100.329 69.6326H63.6753C63.5665 69.6326 63.4785 69.5441 63.4785 69.4351C63.4785 69.3261 63.5665 69.2377 63.6753 69.2377H100.329C100.438 69.2377 100.526 69.3261 100.526 69.4351C100.526 69.5441 100.438 69.6326 100.329 69.6326Z" fill="black"/>
<path d="M54.6397 69.6326H39.33C39.2213 69.6326 39.1333 69.5441 39.1333 69.4351C39.1333 69.3261 39.2213 69.2377 39.33 69.2377H54.6397C54.7485 69.2377 54.8365 69.3261 54.8365 69.4351C54.8365 69.5441 54.7485 69.6326 54.6397 69.6326Z" fill="black"/>
<path d="M32.2438 69.6325H14.8427C14.734 69.6325 14.646 69.5441 14.646 69.4351V51.9721C14.646 51.863 14.734 51.7746 14.8427 51.7746H31.2474C31.3562 51.7746 31.4442 51.863 31.4442 51.9721C31.4442 52.0811 31.3562 52.1695 31.2474 52.1695H15.0396V69.2376H32.0472V56.6637C32.0472 56.5547 32.1352 56.4662 32.2439 56.4662C32.3526 56.4662 32.4406 56.5547 32.4406 56.6637V69.4351C32.4406 69.5441 32.3526 69.6325 32.2438 69.6325Z" fill="black"/>
<path d="M23.5435 66.6352H23.5434C23.4799 66.6351 23.4204 66.6043 23.3835 66.5525L16.566 56.9738C16.5027 56.8851 16.5234 56.7618 16.6117 56.6984C16.7001 56.6351 16.8229 56.6556 16.8861 56.7444L23.544 66.0986L35.2658 49.7067C35.3291 49.6181 35.4518 49.5978 35.5404 49.6614C35.6287 49.725 35.6489 49.8483 35.5855 49.9369L23.7035 66.5529C23.6666 66.6046 23.6071 66.6353 23.5436 66.6353L23.5435 66.6352Z" fill="black"/>
<path d="M100.329 81.167H66.436C66.3273 81.167 66.2393 81.0786 66.2393 80.9696C66.2393 80.8605 66.3273 80.7721 66.436 80.7721H100.329C100.438 80.7721 100.526 80.8605 100.526 80.9696C100.526 81.0786 100.438 81.167 100.329 81.167Z" fill="black"/>
<path d="M54.4642 81.167H39.33C39.2213 81.167 39.1333 81.0786 39.1333 80.9696C39.1333 80.8606 39.2213 80.7722 39.33 80.7722H54.4642C54.573 80.7722 54.661 80.8606 54.661 80.9696C54.661 81.0786 54.573 81.167 54.4642 81.167Z" fill="black"/>
<path d="M100.33 89.8984H76.601C76.4923 89.8984 76.4043 89.81 76.4043 89.701C76.4043 89.5919 76.4923 89.5035 76.601 89.5035H100.33C100.438 89.5035 100.526 89.5919 100.526 89.701C100.526 89.81 100.438 89.8984 100.33 89.8984Z" fill="black"/>
<path d="M68.9207 89.8984H39.33C39.2213 89.8984 39.1333 89.81 39.1333 89.701C39.1333 89.5919 39.2213 89.5035 39.33 89.5035H68.9207C69.0295 89.5035 69.1175 89.5919 69.1175 89.701C69.1175 89.81 69.0295 89.8984 68.9207 89.8984Z" fill="black"/>
<path d="M100.329 98.6301H63.6753C63.5665 98.6301 63.4785 98.5417 63.4785 98.4327C63.4785 98.3236 63.5665 98.2352 63.6753 98.2352H100.329C100.438 98.2352 100.526 98.3236 100.526 98.4327C100.526 98.5417 100.438 98.6301 100.329 98.6301Z" fill="black"/>
<path d="M54.6397 98.6301H39.33C39.2213 98.6301 39.1333 98.5417 39.1333 98.4327C39.1333 98.3236 39.2213 98.2352 39.33 98.2352H54.6397C54.7485 98.2352 54.8365 98.3236 54.8365 98.4327C54.8365 98.5417 54.7485 98.6301 54.6397 98.6301Z" fill="black"/>
<path d="M32.2438 98.6299H14.8427C14.734 98.6299 14.646 98.5415 14.646 98.4324V80.9693C14.646 80.8603 14.734 80.7719 14.8427 80.7719H31.2474C31.3562 80.7719 31.4442 80.8603 31.4442 80.9693C31.4442 81.0784 31.3562 81.1668 31.2474 81.1668H15.0396V98.235H32.0472V85.6609C32.0472 85.5519 32.1352 85.4635 32.2439 85.4635C32.3526 85.4635 32.4406 85.5519 32.4406 85.6609V98.4324C32.4406 98.5415 32.3526 98.6299 32.2438 98.6299Z" fill="black"/>
<path d="M23.5435 95.6325H23.5434C23.4799 95.6324 23.4204 95.6017 23.3835 95.5498L16.566 85.9711C16.5027 85.8824 16.5234 85.7591 16.6117 85.6956C16.7001 85.6324 16.8229 85.6529 16.8861 85.7416L23.544 95.0959L35.2658 78.7039C35.3291 78.6153 35.4518 78.5951 35.5404 78.6586C35.6287 78.7223 35.6489 78.8456 35.5855 78.9342L23.7035 95.5502C23.6666 95.6019 23.607 95.6325 23.5435 95.6325Z" fill="black"/>
<path d="M100.329 110.164H66.436C66.3273 110.164 66.2393 110.076 66.2393 109.967C66.2393 109.858 66.3273 109.769 66.436 109.769H100.329C100.438 109.769 100.526 109.858 100.526 109.967C100.526 110.076 100.438 110.164 100.329 110.164Z" fill="black"/>
<path d="M54.4642 110.164H39.33C39.2213 110.164 39.1333 110.076 39.1333 109.967C39.1333 109.858 39.2213 109.769 39.33 109.769H54.4642C54.573 109.769 54.661 109.858 54.661 109.967C54.661 110.076 54.573 110.164 54.4642 110.164Z" fill="black"/>
<path d="M100.33 118.896H76.601C76.4923 118.896 76.4043 118.807 76.4043 118.698C76.4043 118.589 76.4923 118.501 76.601 118.501H100.33C100.438 118.501 100.526 118.589 100.526 118.698C100.526 118.807 100.438 118.896 100.33 118.896Z" fill="black"/>
<path d="M68.9207 118.896H39.33C39.2213 118.896 39.1333 118.807 39.1333 118.698C39.1333 118.589 39.2213 118.501 39.33 118.501H68.9207C69.0295 118.501 69.1175 118.589 69.1175 118.698C69.1175 118.807 69.0295 118.896 68.9207 118.896Z" fill="black"/>
<path d="M100.329 127.627H63.6753C63.5665 127.627 63.4785 127.539 63.4785 127.43C63.4785 127.321 63.5665 127.232 63.6753 127.232H100.329C100.438 127.232 100.526 127.321 100.526 127.43C100.526 127.539 100.438 127.627 100.329 127.627Z" fill="black"/>
<path d="M54.6397 127.627H39.33C39.2213 127.627 39.1333 127.539 39.1333 127.43C39.1333 127.321 39.2213 127.232 39.33 127.232H54.6397C54.7485 127.232 54.8365 127.321 54.8365 127.43C54.8365 127.539 54.7485 127.627 54.6397 127.627Z" fill="black"/>
<path d="M32.2438 127.627H14.8427C14.734 127.627 14.646 127.539 14.646 127.43V109.967C14.646 109.858 14.734 109.769 14.8427 109.769H31.2474C31.3562 109.769 31.4442 109.858 31.4442 109.967C31.4442 110.076 31.3562 110.164 31.2474 110.164H15.0396V127.232H32.0472V114.658C32.0472 114.549 32.1352 114.461 32.2439 114.461C32.3526 114.461 32.4406 114.549 32.4406 114.658V127.43C32.4406 127.539 32.3526 127.627 32.2438 127.627Z" fill="black"/>
<path d="M23.5435 124.63H23.5434C23.4799 124.63 23.4204 124.599 23.3835 124.547L16.566 114.969C16.5027 114.88 16.5234 114.757 16.6117 114.693C16.7001 114.63 16.8229 114.65 16.8861 114.739L23.544 124.093L35.2658 107.701C35.3291 107.613 35.4518 107.592 35.5404 107.656C35.6287 107.72 35.6489 107.843 35.5855 107.932L23.7035 124.548C23.6666 124.599 23.607 124.63 23.5435 124.63Z" fill="black"/>
<path d="M100.329 26.5663H14.8428V41.8781H100.329V26.5663Z" fill="#E2EAFF"/>
<path d="M136.751 44.0165C143.554 37.1888 143.554 26.1189 136.751 19.2913C129.947 12.4636 118.917 12.4636 112.114 19.2913C105.31 26.1189 105.31 37.1888 112.114 44.0165C118.917 50.8442 129.947 50.8442 136.751 44.0165Z" fill="white"/>
<path d="M124.432 49.3347C114.717 49.3347 106.814 41.4031 106.814 31.6539C106.814 21.9046 114.717 13.9731 124.432 13.9731C134.146 13.9731 142.05 21.9047 142.05 31.6539C142.05 41.403 134.146 49.3347 124.432 49.3347ZM124.432 14.368C114.934 14.368 107.207 22.1224 107.207 31.6539C107.207 41.1853 114.934 48.9398 124.432 48.9398C133.929 48.9398 141.656 41.1853 141.656 31.6539C141.656 22.1224 133.929 14.368 124.432 14.368Z" fill="#195DFF"/>
<path d="M134.117 41.3733C139.466 36.0053 139.466 27.3022 134.117 21.9343C128.768 16.5664 120.096 16.5664 114.747 21.9343C109.398 27.3022 109.398 36.0053 114.747 41.3733C120.096 46.7412 128.768 46.7412 134.117 41.3733Z" fill="white"/>
<path d="M124.432 45.5967C116.771 45.5967 110.539 39.342 110.539 31.6539C110.539 23.9657 116.771 17.711 124.432 17.711C132.092 17.711 138.325 23.9657 138.325 31.6539C138.325 39.342 132.093 45.5967 124.432 45.5967ZM124.432 18.1059C116.988 18.1059 110.932 24.1835 110.932 31.6539C110.932 39.1242 116.988 45.2018 124.432 45.2018C131.876 45.2018 137.932 39.1242 137.932 31.6539C137.932 24.1835 131.876 18.1059 124.432 18.1059Z" fill="#195DFF"/>
<path d="M126.255 44.0166C133.058 37.1889 133.058 26.1191 126.255 19.2914C119.451 12.4637 108.421 12.4637 101.617 19.2914C94.8141 26.1191 94.8141 37.1889 101.617 44.0166C108.421 50.8443 119.451 50.8443 126.255 44.0166Z" fill="white"/>
<path d="M113.936 49.3347C104.222 49.3347 96.3184 41.4031 96.3184 31.6539C96.3184 21.9046 104.222 13.9732 113.936 13.9732C123.651 13.9732 131.554 21.9047 131.554 31.6539C131.554 41.403 123.651 49.3347 113.936 49.3347ZM113.936 14.3681C104.439 14.3681 96.7118 22.1224 96.7118 31.6539C96.7118 41.1853 104.439 48.9398 113.936 48.9398C123.434 48.9398 131.161 41.1853 131.161 31.6539C131.161 22.1224 123.434 14.3681 113.936 14.3681Z" fill="#195DFF"/>
<path d="M123.621 41.3734C128.97 36.0055 128.97 27.3023 123.621 21.9344C118.272 16.5665 109.6 16.5665 104.251 21.9344C98.9025 27.3023 98.9025 36.0055 104.251 41.3734C109.6 46.7413 118.272 46.7413 123.621 41.3734Z" fill="white"/>
<path d="M113.936 45.5968C106.275 45.5968 100.043 39.342 100.043 31.6539C100.043 23.9658 106.275 17.711 113.936 17.711C121.597 17.711 127.83 23.9658 127.83 31.6539C127.83 39.342 121.597 45.5968 113.936 45.5968ZM113.936 18.1059C106.492 18.1059 100.436 24.1836 100.436 31.6539C100.436 39.1242 106.492 45.2019 113.936 45.2019C121.38 45.2019 127.436 39.1242 127.436 31.6539C127.436 24.1836 121.38 18.1059 113.936 18.1059Z" fill="#195DFF"/>
<path d="M115.759 44.0165C122.562 37.1889 122.562 26.119 115.759 19.2913C108.955 12.4636 97.9248 12.4636 91.1214 19.2913C84.318 26.119 84.318 37.1889 91.1214 44.0165C97.9248 50.8442 108.955 50.8442 115.759 44.0165Z" fill="#195DFF"/>
<path d="M103.44 45.5967C95.7789 45.5967 89.5464 39.3419 89.5464 31.6538C89.5464 23.9657 95.7789 17.7109 103.44 17.7109C111.101 17.7109 117.333 23.9657 117.333 31.6538C117.333 39.3419 111.1 45.5967 103.44 45.5967ZM103.44 18.1058C95.9958 18.1058 89.9399 24.1835 89.9399 31.6538C89.9399 39.1241 95.9958 45.2018 103.44 45.2018C110.884 45.2018 116.939 39.1241 116.939 31.6538C116.939 24.1835 110.884 18.1058 103.44 18.1058Z" fill="white"/>
<path d="M102.544 42.5121V39.8406C101.015 39.814 99.4339 39.3381 98.5112 38.6766L99.1438 36.9045C100.093 37.5393 101.463 38.0419 102.939 38.0419C104.811 38.0419 106.076 36.9574 106.076 35.4497C106.076 33.9949 105.048 33.0955 103.097 32.302C100.409 31.2439 98.7483 30.0272 98.7483 27.726C98.7483 25.5304 100.304 23.864 102.729 23.4673V20.7957H104.362V23.3614C105.944 23.4143 107.025 23.8376 107.789 24.2872L107.13 26.0331C106.576 25.7157 105.496 25.1337 103.809 25.1337C101.78 25.1337 101.015 26.3505 101.015 27.4086C101.015 28.784 101.99 29.4718 104.283 30.424C106.998 31.5349 108.369 32.9104 108.369 35.2645C108.369 37.3542 106.919 39.3116 104.204 39.7612V42.5122H102.544L102.544 42.5121Z" fill="white"/>
<path d="M73.4558 133.392H88.5847C90.6914 133.392 92.4018 135.109 92.4018 137.223V160.353C92.4018 162.467 90.6915 164.184 88.5847 164.184H73.4558C71.3491 164.184 69.6387 162.467 69.6387 160.353V137.223C69.6387 135.109 71.3491 133.392 73.4558 133.392Z" fill="white"/>
<path d="M88.5848 164.381H73.4558C71.2425 164.381 69.4419 162.574 69.4419 160.353V137.223C69.4419 135.002 71.2425 133.195 73.4558 133.195H88.5848C90.798 133.195 92.5986 135.002 92.5986 137.223V160.353C92.5986 162.574 90.798 164.381 88.5848 164.381ZM73.4558 133.59C71.4594 133.59 69.8355 135.22 69.8355 137.223V160.353C69.8355 162.356 71.4594 163.986 73.4558 163.986H88.5848C90.5811 163.986 92.2051 162.356 92.2051 160.353V137.223C92.2051 135.22 90.5811 133.59 88.5848 133.59H73.4558Z" fill="black"/>
<path d="M207.416 158.489L197.164 163.762C195.287 164.726 192.987 163.982 192.026 162.099L176.827 132.333C175.866 130.451 176.607 128.142 178.483 127.177L188.736 121.905C190.613 120.94 192.913 121.684 193.874 123.567L209.073 153.333C210.034 155.216 209.293 157.524 207.416 158.489Z" fill="white"/>
<path d="M195.427 164.382C195.013 164.382 194.597 164.317 194.191 164.186C193.171 163.856 192.34 163.147 191.851 162.189L176.652 132.423C175.643 130.447 176.424 128.014 178.394 127.001L188.647 121.729C190.617 120.716 193.04 121.5 194.049 123.477L209.248 153.243C209.737 154.2 209.825 155.292 209.496 156.316C209.167 157.34 208.461 158.174 207.507 158.665L197.254 163.937C196.679 164.233 196.055 164.383 195.427 164.383L195.427 164.382ZM190.471 121.681C189.916 121.681 189.353 121.809 188.826 122.08L178.573 127.353C176.797 128.266 176.092 130.46 177.002 132.243L192.201 162.009C192.642 162.873 193.392 163.513 194.312 163.81C195.232 164.108 196.213 164.028 197.074 163.586L207.327 158.313C208.188 157.871 208.825 157.118 209.122 156.195C209.418 155.271 209.339 154.287 208.898 153.423L193.699 123.657C193.059 122.403 191.787 121.681 190.471 121.681Z" fill="black"/>
<path d="M200.837 88.1004L194.962 88.9511C193.616 89.1462 192.624 90.2053 192.624 91.4489V95.4901C192.624 96.4983 191.946 97.4033 190.916 97.7691L190.755 97.826C185.832 85.4779 178.844 71.4732 175.315 68.2546C168.811 62.3226 95.2283 62.8186 89.2678 68.2546C84.0457 73.0173 77.8235 86.0747 73.4991 97.7373C72.5149 97.3535 71.871 96.4715 71.871 95.4901V91.4489C71.871 90.2053 70.8797 89.1463 69.5329 88.9511L63.6581 88.1004C60.4633 87.6378 57.5718 89.8892 57.5718 92.8394C57.5718 94.863 58.9638 96.669 61.0515 97.3542L72.3087 101.049C70.7458 105.541 69.5267 109.666 68.8328 112.816C67.3199 119.686 68.8232 140.844 68.8232 140.844C68.8232 140.844 78.8575 145.03 82.4465 145.639C106.947 149.802 157.636 149.802 182.137 145.639C185.726 145.03 195.76 140.844 195.76 140.844C199.692 132.161 186.68 134.029 195.878 121.793C198.284 118.593 188.242 117.468 187.753 115.247C187.08 112.192 193.735 105.63 192.027 101.101L203.443 97.3543C205.531 96.6692 206.923 94.8631 206.923 92.8394C206.923 89.8893 204.032 87.6379 200.837 88.1005V88.1004Z" fill="#195DFF"/>
<path d="M186.375 95.5536C181.838 84.6438 175.989 73.1825 172.916 70.3803C166.774 64.7791 97.2951 65.2475 91.667 70.3803C87.0966 74.5486 81.7151 85.4455 77.7012 95.7858C101.933 91.6257 161.553 91.2897 186.375 95.5536Z" fill="white"/>
<path d="M102.555 145.566C120.958 147.064 143.625 147.064 162.029 145.566L160.829 138.618C160.207 135.021 157.35 132.419 154.022 132.419H110.561C107.233 132.419 104.376 135.021 103.755 138.618L102.555 145.566Z" fill="white"/>
<path d="M148.27 134.928H116.313V144.449H148.27V134.928Z" fill="white"/>
<path d="M148.27 144.646H116.313C116.205 144.646 116.117 144.558 116.117 144.449V134.928C116.117 134.819 116.205 134.731 116.313 134.731H148.27C148.378 134.731 148.466 134.819 148.466 134.928V144.449C148.466 144.558 148.378 144.646 148.27 144.646ZM116.51 144.251H148.073V135.125H116.51V144.251Z" fill="black"/>
<path d="M154.975 118.979C140.937 118.278 123.646 118.278 109.608 118.979L110.523 122.231C110.997 123.915 113.177 125.133 115.715 125.133H148.868C151.406 125.133 153.586 123.915 154.059 122.231L154.975 118.979Z" fill="white"/>
<path d="M87.2128 141.274L74.6236 138.847C73.5151 138.633 72.9114 137.536 73.3861 136.598L75.1582 133.096C75.5034 132.414 76.3198 132.041 77.1255 132.196L90.6342 134.8C91.8908 135.042 92.4519 136.388 91.689 137.331L88.9975 140.655C88.5868 141.162 87.8892 141.404 87.2128 141.274Z" fill="white"/>
<path d="M97.3374 120.432L89.4527 123.669C88.789 123.942 88.0257 123.925 87.3765 123.625L74.5933 117.712C74.0369 117.455 73.612 117.01 73.408 116.473L72.4233 113.878C71.7926 112.216 73.4544 110.587 75.3175 111.04L96.9701 116.311C98.0232 116.567 98.7557 117.437 98.7557 118.431C98.7557 119.294 98.2006 120.078 97.3373 120.432H97.3374Z" fill="white"/>
<path d="M177.604 141.274L190.193 138.847C191.302 138.633 191.905 137.536 191.431 136.598L189.659 133.096C189.313 132.414 188.497 132.041 187.691 132.196L174.183 134.8C172.926 135.042 172.365 136.388 173.128 137.331L175.819 140.655C176.23 141.162 176.928 141.404 177.604 141.273L177.604 141.274Z" fill="white"/>
<path d="M177.711 144.646C177.702 144.646 177.693 144.646 177.684 144.645L167.954 143.294C167.881 143.284 167.819 143.233 167.795 143.163L164.46 133.485L160.118 127.547C160.057 127.464 160.07 127.348 160.147 127.28L165.197 122.889C163.521 119.075 160.723 113.036 160.167 112.663C160.092 112.612 160.053 112.53 160.064 112.442C160.094 112.199 160.142 111.794 174.422 106.391C181.426 103.741 188.509 101.161 188.58 101.136C188.682 101.098 188.795 101.151 188.832 101.254C188.869 101.356 188.816 101.47 188.714 101.507C178.001 105.407 161.996 111.422 160.525 112.469C161.593 113.727 165.19 121.893 165.616 122.863C165.65 122.943 165.63 123.035 165.565 123.092L160.542 127.46L164.795 133.276C164.806 133.292 164.815 133.309 164.822 133.328L168.127 142.92L177.738 144.253C177.845 144.268 177.92 144.368 177.905 144.476C177.892 144.575 177.808 144.646 177.711 144.646L177.711 144.646Z" fill="black"/>
<path d="M170.59 127.627C170.574 127.627 170.559 127.625 170.544 127.622C170.47 127.604 170.413 127.545 170.398 127.471L167.789 115.288C167.777 115.237 167.788 115.182 167.817 115.138C167.846 115.094 167.891 115.063 167.943 115.053L184.794 111.755C184.9 111.734 185.004 111.804 185.024 111.911C185.045 112.018 184.976 112.122 184.869 112.143L168.215 115.402L170.696 126.988L177.569 118.573C177.584 118.555 177.601 118.54 177.621 118.528L184.732 114.344C184.826 114.289 184.946 114.32 185.001 114.414C185.056 114.508 185.025 114.629 184.931 114.685L177.851 118.851L170.742 127.555C170.704 127.601 170.648 127.627 170.59 127.627V127.627Z" fill="black"/>
<path d="M162.562 20.9931H141.23C141.122 20.9931 141.034 20.9047 141.034 20.7956C141.034 20.6866 141.122 20.5982 141.23 20.5982H162.562C162.67 20.5982 162.758 20.6866 162.758 20.7956C162.758 20.9047 162.67 20.9931 162.562 20.9931Z" fill="black"/>
<path d="M165.698 23.2481C167.048 21.8936 167.048 19.6976 165.698 18.3431C164.348 16.9887 162.16 16.9887 160.81 18.3431C159.461 19.6976 159.461 21.8936 160.81 23.2481C162.16 24.6025 164.348 24.6025 165.698 23.2481Z" fill="#195DFF"/>
</svg>
