<svg width="60" height="60" viewBox="0 0 60 60" fill="none" xmlns="http://www.w3.org/2000/svg">
<path d="M25.5627 14.1511L22.9253 6.0792C22.6799 5.34539 23.232 4.61157 23.968 4.61157H37.0322C37.8296 4.61157 38.3202 5.34539 38.1362 6.0792L35.4989 14.1511H25.5627Z" stroke="#212121" stroke-width="2" stroke-miterlimit="10"/>
<path d="M35.4373 14.1511C43.4107 14.1511 51.2615 20.8166 51.2615 30.0504C51.2615 42.0972 51.2615 44.5432 51.2615 44.5432L55.1869 48.5792C57.2723 50.7195 55.739 54.3274 52.7336 54.3274H8.26608C5.2607 54.3274 3.72733 50.7195 5.81271 48.5792L9.73811 44.5432C9.73811 44.5432 9.73811 42.0972 9.73811 30.0504C9.73811 20.8166 17.6503 14.1511 25.5624 14.1511H35.4373V14.1511Z" stroke="#212121" stroke-width="2" stroke-miterlimit="10"/>
<path d="M25.6237 36.7158V38.5504C25.6237 40.2626 26.9731 41.6079 28.6904 41.6079H32.1252C35.1919 41.6079 36.2959 37.5108 33.5359 36.0432L27.1571 32.6187C24.4584 31.1511 25.5011 27.054 28.5678 27.054H32.2478C33.9652 27.054 35.3146 28.3993 35.3146 30.1115V31.946" stroke="#212121" stroke-width="2" stroke-miterlimit="10"/>
<path d="M30.5308 22.2842V26.9928" stroke="#212121" stroke-width="2" stroke-miterlimit="10"/>
<path d="M30.5308 41.6079V46.3165" stroke="#212121" stroke-width="2" stroke-miterlimit="10"/>
</svg>
