<svg width="64" height="58" viewBox="0 0 64 58" fill="none" xmlns="http://www.w3.org/2000/svg">
<g clip-path="url(#clip0_396_282)">
<path d="M27.1953 38.3001V21H35.6476C37.8225 21 39.4537 21.4119 40.5411 22.2357C41.645 23.0595 42.197 24.147 42.197 25.498C42.197 26.4042 41.9745 27.1951 41.5297 27.8706C41.0848 28.5297 40.4752 29.0404 39.7008 29.4029C38.9264 29.7654 38.0367 29.9466 37.0317 29.9466L37.5012 28.9333C38.5887 28.9333 39.5525 29.1146 40.3928 29.477C41.2331 29.8231 41.8839 30.3421 42.3453 31.0341C42.8231 31.7261 43.062 32.5746 43.062 33.5796C43.062 35.0625 42.4771 36.2241 41.3072 37.0644C40.1374 37.8882 38.4157 38.3001 36.1419 38.3001H27.1953ZM31.1743 35.2849H35.8454C36.8834 35.2849 37.666 35.1202 38.1932 34.7906C38.7369 34.4446 39.0088 33.9009 39.0088 33.1595C39.0088 32.4345 38.7369 31.8991 38.1932 31.5531C37.666 31.1906 36.8834 31.0093 35.8454 31.0093H30.8778V28.093H35.1534C36.1255 28.093 36.8669 27.9283 37.3777 27.5988C37.9049 27.2527 38.1685 26.7337 38.1685 26.0417C38.1685 25.3662 37.9049 24.8637 37.3777 24.5342C36.8669 24.1882 36.1255 24.0152 35.1534 24.0152H31.1743V35.2849Z" fill="#195DFF"/>
<path d="M6 38.3001L13.7109 21H17.6652L25.4008 38.3001H21.1994L14.8725 23.0266H16.4542L10.1026 38.3001H6ZM9.85545 34.5929L10.9182 31.5531H19.8154L20.9028 34.5929H9.85545Z" fill="#195DFF"/>
<rect x="3" y="24" width="47" height="11" fill="url(#paint0_linear_396_282)"/>
<path d="M-0.0001297 11.9537V2.76126C-0.0001297 2.34083 0.340693 2 0.761124 2H9.95359C10.374 2 10.7148 2.34083 10.7148 2.76126C10.7148 3.18169 10.374 3.52251 9.95359 3.52251H1.52238V11.9537C1.52238 12.3742 1.18155 12.715 0.761124 12.715C0.340693 12.715 -0.0001297 12.3742 -0.0001297 11.9537Z" fill="black" stroke="black" stroke-width="0.5"/>
<path d="M53.715 11.9537V2.76126C53.715 2.34083 53.3742 2 52.9537 2H43.7612C43.3408 2 43 2.34083 43 2.76126C43 3.18169 43.3408 3.52251 43.7612 3.52251H52.1925V11.9537C52.1925 12.3742 52.5333 12.715 52.9537 12.715C53.3742 12.715 53.715 12.3742 53.715 11.9537Z" fill="black" stroke="black" stroke-width="0.5"/>
<path d="M43.7611 54.715L52.9536 54.715C53.374 54.715 53.7148 54.3742 53.7148 53.9537L53.7148 44.7612C53.7148 44.3408 53.374 44 52.9536 44C52.5332 44 52.1923 44.3408 52.1923 44.7612L52.1923 53.1925L43.7611 53.1925C43.3407 53.1925 42.9998 53.5333 42.9998 53.9537C42.9998 54.3741 43.3407 54.715 43.7611 54.715Z" fill="black" stroke="black" stroke-width="0.5"/>
<path d="M9.95375 54.715L0.761256 54.715C0.340826 54.715 4.53469e-07 54.3742 4.35091e-07 53.9537L3.32753e-08 44.7612C1.48977e-08 44.3408 0.340825 44 0.761256 44C1.18169 44 1.52251 44.3408 1.52251 44.7612L1.52251 53.1925L9.95375 53.1925C10.3742 53.1925 10.715 53.5333 10.715 53.9537C10.715 54.3741 10.3742 54.715 9.95375 54.715Z" fill="black" stroke="black" stroke-width="0.5"/>
</g>
<defs>
<linearGradient id="paint0_linear_396_282" x1="3" y1="20.0714" x2="3" y2="41.2857" gradientUnits="userSpaceOnUse">
<stop offset="0.334629" stop-color="#195DFF" stop-opacity="0"/>
<stop offset="1" stop-color="#195DFF"/>
</linearGradient>
<clipPath id="clip0_396_282">
<rect width="64" height="57.863" fill="white"/>
</clipPath>
</defs>
</svg>
