<svg xmlns="http://www.w3.org/2000/svg" width="160" height="160" fill="none" viewBox="0 0 160 160">
    <path stroke="#fff" stroke-miterlimit="10" stroke-width="4" d="M72.397 124.737c-1.696 0-3.079-1.382-3.079-3.079v-4.21c-2.89-.816-5.717-2.01-8.356-3.455l-3.016 3.016c-.566.565-1.32.879-2.137.879s-1.57-.314-2.136-.879l-10.745-10.745c-1.193-1.194-1.193-3.141 0-4.335l2.954-2.954c-1.508-2.638-2.64-5.466-3.456-8.356h-4.21c-.817 0-1.57-.314-2.136-.88-.566-.565-.88-1.382-.88-2.136V72.397c0-1.696 1.382-3.079 3.079-3.079h4.21c.817-2.89 2.01-5.718 3.456-8.356l-2.954-2.954c-.565-.565-.88-1.382-.88-2.136 0-.817.315-1.57.88-2.136L53.736 42.99c.565-.565 1.32-.88 2.136-.88.817 0 1.57.315 2.136.88l2.954 2.953c2.639-1.508 5.466-2.639 8.356-3.455v-4.21c0-1.697 1.383-3.079 3.08-3.079h15.205c1.696 0 3.079 1.382 3.079 3.079v4.21c2.89.816 5.717 2.01 8.356 3.455l2.954-2.953c.565-.565 1.319-.88 2.136-.88.817 0 1.571.315 2.136.88l10.745 10.745c.565.565.879 1.382.879 2.136 0 .817-.314 1.57-.879 2.136l-2.953 2.953c1.508 2.64 2.639 5.467 3.455 8.357h4.21c1.697 0 3.079 1.383 3.079 3.08v15.205c0 1.696-1.382 3.079-3.079 3.079h-4.21c-.816 2.89-2.01 5.717-3.455 8.356l2.953 2.954c1.194 1.193 1.194 3.141 0 4.335l-10.745 10.744c-.565.566-1.382.88-2.136.88-.817 0-1.571-.314-2.136-.88l-3.016-3.016c-2.64 1.508-5.467 2.639-8.357 3.456v4.21c0 1.697-1.382 3.079-3.079 3.079H72.397v-.063z"/>
    <path stroke="#fff" stroke-miterlimit="10" stroke-width="4" d="M80 100.8c11.487 0 20.8-9.313 20.8-20.8 0-11.488-9.313-20.8-20.8-20.8S59.2 68.512 59.2 80c0 11.487 9.313 20.8 20.8 20.8z"/>
    <path stroke="#8E8E8E" stroke-miterlimit="10" stroke-width="4" d="M97.6 8.706C91.785 7.246 85.664 6.4 79.39 6.4 39.07 6.4 6.4 39.225 6.4 79.738c0 17.758 6.274 33.978 16.68 46.662M62.4 151.351c5.748 1.473 11.802 2.249 18.087 2.249 40.388 0 73.113-33.114 73.113-73.984 0-18.147-6.438-34.742-17.167-47.616"/>
    <path stroke="#8E8E8E" stroke-miterlimit="10" stroke-width="4" d="M129.6 35.2c5.302 0 9.6-4.298 9.6-9.6s-4.298-9.6-9.6-9.6-9.6 4.298-9.6 9.6 4.298 9.6 9.6 9.6zM30.4 144c5.302 0 9.6-4.298 9.6-9.6s-4.298-9.6-9.6-9.6-9.6 4.298-9.6 9.6 4.298 9.6 9.6 9.6z"/>
</svg>
