<svg xmlns="http://www.w3.org/2000/svg" width="100" height="100" fill="none" viewBox="0 0 104 100">
    <path stroke="#212121" stroke-miterlimit="10" stroke-width="3" d="M70.435 21.94l-5.977-5.405c-.94-.8-2.082-1.268-3.358-1.268H27.79c-1.948 0-3.695 1.134-4.5 2.936l-6.65 15.083-6.58 11.546c-.941 1.601-1.411 3.403-1.411 5.272v18.82h53.459c.738 0 1.41-.2 2.014-.534l5.575-3.003c.94-.468 1.947-.668 3.022-.4l16.857 3.937c3.156 0 5.708-2.536 5.708-5.673V49.703c0-1.535-.47-3.07-1.276-4.338l-2.418-3.737 8.194-5.005c1.343-.801 2.149-2.336 2.015-3.938l-.202-2.67c-.134-1.467-1.477-2.602-2.955-2.402l-4.298.534c-2.35.267-4.567 1.469-6.112 3.27l-1.611 1.869-4.03-8.676-4.097-4.07c-.806-.802-1.947-1.002-3.022-.601l-5.037 2.002z"/>
    <path stroke="#212121" stroke-miterlimit="10" stroke-width="3" d="M44.915 29.282l4.768-3.804c1.209-1.001 2.82-1.335 4.365-1.001l6.985 1.468 9.402-4.004M61.033 25.945l4.701 5.339M12.275 40.96L4.62 39.427c-1.343-.267-2.35-1.468-2.35-2.87V32.62c0-1.202 1.007-2.203 2.216-2.203h8.395c1.276 0 2.485.668 3.156 1.802l.672 1.068s2.35 5.005 9.738 5.673c7.387.667 26.192.867 28.878.734 2.687-.134 6.18 1.335 6.784 1.268.47 0 4.432-1.201 6.313-1.735.671-.2 1.343-.067 1.947.267l3.694 2.469c.873.6 2.015.467 2.753-.2l3.761-3.27c.202-.134.403-.267.672-.4l2.82-1.135c.538-.2.94-.601 1.21-1.068l1.343-2.67M15.7 48.302c2.015 2.002 3.358 4.004 14.104 4.004M30.476 60.315h22.028c1.074 0 2.149-.334 3.022-.935l3.156-2.135c.873-.6 1.948-.935 3.023-.935h2.484c1.008 0 2.015.267 2.821.801l1.948 1.202M74.8 58.313s9.269-1.335 12.694-8.009M73.39 65.186v9.21c0 1.869 1.545 3.404 3.425 3.404h13.298c1.88 0 3.425-1.535 3.425-3.404v-7.074M10.126 68.924v6.874c0 1.067.873 1.935 1.948 1.935h15.984c1.276 0 2.35-1.068 2.35-2.336v-6.54"/>
</svg>
