<svg width="252" height="169" viewBox="0 0 252 169" fill="none" xmlns="http://www.w3.org/2000/svg">
<path d="M228.607 62.3175C228.607 62.3175 256.569 70.3192 250.874 41.5064C245.179 12.6937 232.771 1.40819 226.077 0.129185C219.383 -1.14982 208.32 6.84752 212.302 34.0179L228.607 62.3175Z" fill="black"/>
<path d="M194.317 38.3863L187.778 46.9711C182.645 39.3688 178.167 30.2061 173.819 25.7063C165.352 16.9428 166.78 23.9497 169.692 28.234C169.692 28.234 166.132 26.5773 165.34 30.5873C165.34 30.5873 162.649 30.8831 163.481 34.2081C163.481 34.2081 160.402 36.221 165.72 40.0674C165.72 40.0674 169.313 52.1723 175.719 64.5676C179.971 72.9148 191.769 73.2115 196.434 65.0887L206.048 48.3499L194.317 38.3863Z" fill="white"/>
<path d="M186.236 71.2104C186.13 71.2104 186.024 71.2091 185.917 71.2065C181.45 71.094 177.57 68.6466 175.539 64.6594C169.441 52.8596 165.845 41.1759 165.546 40.191C163.423 38.6434 162.363 37.1876 162.394 35.8636C162.416 34.9147 162.999 34.3352 163.255 34.1262C162.999 33.011 163.107 32.1055 163.573 31.4335C164.077 30.7083 164.849 30.4778 165.171 30.411C165.434 29.2125 165.975 28.3976 166.78 27.9879C167.646 27.5467 168.605 27.6838 169.201 27.8474C167.814 25.6164 166.561 22.3599 167.616 21.4993C168.513 20.7657 170.65 22.1347 173.965 25.5654C176.701 28.398 179.487 33.0635 182.437 38.0031C184.154 40.879 185.928 43.8501 187.788 46.624L194.157 38.2634C194.19 38.2192 194.24 38.1909 194.295 38.185C194.351 38.1787 194.405 38.1959 194.448 38.2318L206.179 48.1954C206.253 48.2586 206.272 48.366 206.223 48.4506L196.61 65.1893C194.435 68.9766 190.574 71.2102 186.236 71.2104ZM168.089 28.0982C167.72 28.0982 167.327 28.1626 166.96 28.3498C166.243 28.7162 165.764 29.4823 165.539 30.6265C165.521 30.7132 165.45 30.7787 165.362 30.7884C165.354 30.7894 164.431 30.9037 163.902 31.6687C163.489 32.2664 163.414 33.1042 163.678 34.1588C163.698 34.2425 163.664 34.3303 163.592 34.3774C163.561 34.3981 162.817 34.9025 162.797 35.8798C162.774 37.0557 163.825 38.4471 165.838 39.9035C165.874 39.9296 165.901 39.967 165.914 40.0098C165.95 40.1307 169.576 52.2395 175.898 64.4746C177.862 68.3284 181.61 70.6935 185.927 70.8021C190.247 70.9082 194.106 68.737 196.26 64.9877L205.789 48.3951L194.349 38.6783L187.939 47.0937C187.899 47.1454 187.837 47.1765 187.773 47.1731C187.707 47.1713 187.647 47.1381 187.611 47.0842C185.687 44.2348 183.859 41.1724 182.09 38.2108C179.153 33.292 176.379 28.646 173.674 25.8468C169.277 21.2958 168.121 21.6093 167.871 21.8131C167.138 22.4103 168.142 25.5932 169.859 28.1199C169.91 28.1951 169.905 28.2951 169.846 28.3645C169.788 28.4339 169.69 28.4554 169.608 28.4173C169.598 28.4127 168.904 28.0981 168.089 28.0981L168.089 28.0982Z" fill="black"/>
<path d="M176.652 42.7111C175.684 42.7111 174.849 42.0282 174.395 41.3843C173.939 40.7367 173.677 39.9848 173.423 39.2575C173.36 39.0776 173.298 38.8977 173.232 38.7196C172.95 37.9542 172.527 37.0065 171.749 36.4688C171.379 36.2132 170.954 36.0615 170.503 35.9008C170.296 35.8269 170.082 35.7504 169.874 35.663C169.271 35.4099 168.509 34.94 168.297 34.1393C168.013 33.0667 168.929 32.0159 169.929 31.7438C170.911 31.4766 171.93 31.7444 172.885 32.0736C175.4 32.9403 177.496 34.1162 179.116 35.5686C179.199 35.6432 179.206 35.771 179.131 35.8543C179.057 35.9378 178.929 35.9446 178.846 35.8701C177.267 34.4539 175.217 33.3054 172.753 32.4563C171.859 32.1481 170.911 31.8958 170.035 32.1342C169.22 32.3561 168.47 33.2165 168.687 34.0357C168.857 34.6774 169.511 35.072 170.03 35.29C170.228 35.3731 170.437 35.4477 170.639 35.5198C171.094 35.6821 171.565 35.85 171.979 36.1358C172.85 36.738 173.309 37.7582 173.611 38.5798C173.677 38.76 173.741 38.942 173.804 39.1241C174.049 39.8251 174.301 40.5499 174.725 41.1511C175.167 41.778 176.014 42.45 176.946 42.2799C177.056 42.2599 177.161 42.3328 177.181 42.4427C177.201 42.5527 177.128 42.658 177.019 42.6779C176.894 42.7004 176.772 42.7111 176.652 42.7111Z" fill="black"/>
<path d="M170.662 37.7783C170.079 37.7783 169.545 37.4978 169.179 37.2756C167.106 36.0133 165.724 33.7223 165.574 31.2964C165.567 31.1849 165.651 31.0888 165.763 31.082C165.875 31.0749 165.97 31.1598 165.977 31.2713C166.12 33.5669 167.427 35.7352 169.389 36.9298C169.956 37.2745 170.41 37.4131 170.82 37.3645C171.255 37.3133 171.714 36.9437 171.676 36.4954C171.667 36.384 171.75 36.2863 171.861 36.2768C171.977 36.2672 172.07 36.3501 172.079 36.4616C172.136 37.15 171.499 37.6921 170.868 37.7663C170.799 37.7744 170.73 37.7783 170.662 37.7783Z" fill="black"/>
<path d="M168.065 38.2486C167.731 38.2486 167.367 38.1602 166.942 37.978C165.523 37.3691 164.372 36.2001 163.785 34.7705C163.742 34.6672 163.791 34.5489 163.895 34.5064C163.998 34.4641 164.116 34.513 164.158 34.6165C164.706 35.9489 165.778 37.0387 167.101 37.606C167.577 37.8106 167.955 37.8804 168.289 37.8263C168.626 37.7717 169.002 37.5259 169.069 37.1616C169.089 37.0519 169.192 36.9791 169.304 36.9992C169.414 37.0193 169.486 37.1249 169.466 37.2347C169.376 37.7268 168.918 38.1342 168.354 38.2258C168.259 38.2411 168.164 38.2487 168.065 38.2487L168.065 38.2486Z" fill="black"/>
<path d="M166.103 39.5845C165.904 39.5845 165.705 39.5427 165.524 39.4572C165.423 39.4096 165.38 39.2889 165.428 39.188C165.475 39.087 165.595 39.0437 165.696 39.0913C166.018 39.2436 166.425 39.1993 166.706 38.9805C166.988 38.7618 167.132 38.3792 167.065 38.0285C167.044 37.9187 167.116 37.8128 167.225 37.7917C167.335 37.7707 167.441 37.8425 167.462 37.9522C167.557 38.4488 167.353 38.9906 166.954 39.3003C166.713 39.4875 166.408 39.5846 166.103 39.5846V39.5845Z" fill="black"/>
<path d="M248.485 100.691H191.074C191.074 100.691 197.909 81.2584 201.718 73.3706L236.445 75.9645L248.485 100.691L248.485 100.691Z" fill="white"/>
<path d="M248.486 100.893H191.074C191.009 100.893 190.947 100.862 190.909 100.808C190.871 100.754 190.862 100.686 190.883 100.624C190.952 100.429 197.766 81.0904 201.536 73.2825C201.572 73.2079 201.651 73.1619 201.733 73.1689L236.46 75.7628C236.531 75.7681 236.595 75.8112 236.626 75.8758L248.667 100.602C248.697 100.665 248.694 100.739 248.657 100.798C248.62 100.857 248.555 100.893 248.485 100.893H248.486ZM191.36 100.489H248.162L236.314 76.1575L201.84 73.5825C198.313 80.9372 192.196 98.1259 191.36 100.489Z" fill="black"/>
<path d="M235.08 76.7576C235.069 76.8087 201.866 75.2248 201.866 75.2248V50.5067L193.093 38.3861C193.093 38.3861 201.134 27.2063 222.474 30.7064C241.537 33.8327 246.854 46.0658 246.854 46.0658L231.55 56.1733L235.08 76.7575V76.7576Z" fill="#195DFF"/>
<path d="M194.413 82.786H216.79C217.702 82.786 218.379 81.9393 218.18 81.0477L210.412 46.2633C210.176 45.2076 209.241 44.457 208.161 44.457H186.098C184.983 44.457 184.156 45.4921 184.399 46.582L192.063 80.9005C192.309 82.0026 193.286 82.786 194.413 82.786Z" fill="black"/>
<path d="M245.465 46.9709L231.549 56.1735L230.265 67.8938C230.265 67.8938 215.186 57.5632 210.957 55.4217C206.728 53.2801 200.092 53.1184 198.992 54.4331C197.892 55.7478 201.206 56.64 201.206 56.64C201.206 56.64 196.839 56.7593 196.804 58.025C196.768 59.2907 202.494 60.9155 202.494 60.9155C202.494 60.9155 198.169 59.9347 197.077 60.8465C195.985 61.7583 196.686 63.0114 201.286 64.4028C201.286 64.4028 198.704 63.9897 198.424 65.5267C198.215 66.6738 205.363 69.3881 209.331 70.4971C209.331 70.4971 218.015 79.746 228.341 87.1153C233.914 91.0918 241.727 88.902 244.401 82.5933C247.946 74.2282 250.863 61.8052 245.465 46.9709H245.465Z" fill="white"/>
<path d="M234.55 89.3165C232.308 89.3165 230.104 88.621 228.225 87.28C218 79.9836 209.271 70.7283 209.184 70.6356C209.107 70.5543 209.111 70.4262 209.192 70.3497C209.274 70.2733 209.401 70.2767 209.478 70.3585C209.565 70.4508 218.268 79.6779 228.459 86.9505C231.071 88.8143 234.337 89.3839 237.42 88.5119C240.491 87.6433 242.968 85.4571 244.215 82.5142C249.202 70.7475 249.559 58.8123 245.275 47.0401C245.237 46.9352 245.291 46.8191 245.396 46.7809C245.5 46.7426 245.617 46.7965 245.655 46.9017C249.975 58.7733 249.615 70.8084 244.587 82.6723C243.292 85.7288 240.719 87.9992 237.53 88.9013C236.546 89.1795 235.544 89.3165 234.55 89.3165H234.55Z" fill="black"/>
<path d="M207.478 58.6332C207.445 58.6332 207.412 58.6252 207.381 58.6083C205.6 57.6308 203.589 57.0312 201.564 56.8745C201.453 56.8659 201.369 56.7686 201.378 56.6571C201.387 56.5458 201.483 56.4628 201.595 56.471C203.677 56.6322 205.745 57.2485 207.575 58.2534C207.673 58.3071 207.709 58.43 207.655 58.528C207.619 58.5951 207.549 58.6331 207.478 58.6331L207.478 58.6332Z" fill="black"/>
<path d="M206.087 62.4458C206.059 62.4458 206.03 62.4398 206.003 62.4274C204.941 61.9413 203.835 61.5298 202.715 61.2046C202.608 61.1735 202.546 61.0613 202.577 60.954C202.608 60.8468 202.72 60.7846 202.828 60.816C203.967 61.1467 205.091 61.565 206.171 62.0593C206.272 62.1058 206.317 62.2258 206.27 62.3275C206.236 62.4018 206.163 62.4457 206.087 62.4457L206.087 62.4458Z" fill="black"/>
<path d="M205.599 65.9773C205.572 65.9773 205.544 65.9717 205.517 65.96C204.226 65.39 202.87 64.9583 201.486 64.6771C201.377 64.6548 201.307 64.5481 201.329 64.4386C201.351 64.3292 201.456 64.258 201.567 64.2805C202.978 64.5675 204.362 65.0079 205.68 65.5898C205.782 65.6348 205.829 65.7542 205.784 65.8565C205.75 65.9322 205.676 65.9773 205.599 65.9773Z" fill="black"/>
<path d="M236.335 73.0594C236.291 73.0594 236.246 73.0449 236.209 73.0149L230.38 68.3314C230.293 68.2615 230.279 68.1341 230.349 68.047C230.418 67.9599 230.546 67.9457 230.633 68.0156L236.462 72.6991C236.549 72.7691 236.563 72.8964 236.493 72.9836C236.453 73.0335 236.395 73.0594 236.335 73.0594Z" fill="black"/>
<path d="M228.857 17.9583L226.327 30.9455L229.737 32.5107C229.737 32.5107 219.443 48.3555 214.069 51.6742C214.069 51.6742 212.513 39.3923 214.87 30.0294L218.229 29.8271L220.387 22.2407L228.857 17.9583Z" fill="white"/>
<path d="M219.043 8.86769C219.043 8.86769 214.428 20.8267 218.196 23.7767C221.964 26.7267 228.024 19.9395 228.024 19.9395C228.024 19.9395 231.799 20.1459 231.799 16.4621C231.799 14.1297 228.562 14.1399 227.837 16.4621C227.837 16.4621 226.338 16.9975 226.492 16.0045C226.646 15.0115 228.109 8.53843 219.043 8.8676L219.043 8.86769Z" fill="white"/>
<path d="M220.398 24.7297C219.583 24.7297 218.791 24.4996 218.072 23.9361C214.229 20.9282 218.664 9.28857 218.855 8.79468C218.884 8.71925 218.955 8.66836 219.036 8.66542C222.162 8.55242 224.395 9.23152 225.666 10.6858C227.285 12.5364 226.855 15.0667 226.714 15.8982L226.692 16.0356C226.658 16.2504 226.728 16.3085 226.752 16.3275C226.913 16.4617 227.36 16.3985 227.677 16.3017C228.15 14.9549 229.433 14.3871 230.427 14.5394C231.188 14.656 232.001 15.2221 232.001 16.462C232.001 17.5886 231.661 18.4826 230.99 19.1189C229.966 20.091 228.502 20.1453 228.111 20.1441C227.55 20.7573 223.78 24.7296 220.398 24.7296V24.7297ZM219.184 9.06542C218.711 10.3416 214.914 20.9508 218.32 23.6173C218.95 24.1103 219.653 24.3138 220.383 24.3138C223.8 24.3142 227.824 19.8594 227.873 19.8047C227.914 19.7589 227.974 19.7337 228.035 19.7375C228.05 19.7384 229.675 19.8116 230.714 18.8233C231.3 18.2664 231.597 17.4719 231.597 16.4621C231.597 15.6267 231.137 15.0575 230.366 14.9395C229.516 14.8089 228.405 15.3193 228.029 16.5226C228.01 16.5831 227.964 16.6313 227.904 16.6527C227.804 16.6883 226.919 16.9909 226.494 16.6395C226.371 16.5374 226.236 16.339 226.292 15.9735C226.298 15.9341 226.307 15.8862 226.316 15.8305C226.449 15.0459 226.854 12.6584 225.362 10.9525C224.192 9.61452 222.109 8.98117 219.184 9.06542Z" fill="black"/>
<path d="M228.042 18.945C228.015 18.945 227.987 18.9395 227.961 18.9279C227.859 18.8828 227.813 18.7634 227.858 18.6612C228.183 17.9217 229.072 17.4118 229.969 17.4443C230.08 17.4487 230.167 17.5426 230.163 17.6543C230.158 17.7662 230.056 17.8518 229.953 17.8488C229.223 17.8224 228.484 18.2401 228.227 18.8241C228.194 18.8999 228.12 18.945 228.042 18.945Z" fill="black"/>
<path d="M114.603 6.29688H2.49745C1.22979 6.29688 0.202148 7.32631 0.202148 8.59619V152.815C0.202148 154.085 1.22979 155.114 2.49745 155.114H114.603C115.87 155.114 116.898 154.085 116.898 152.815V8.59619C116.898 7.32631 115.87 6.29688 114.603 6.29688Z" fill="white"/>
<path d="M114.602 155.317H2.49725C1.12023 155.317 0 154.194 0 152.815V8.59609C0 7.21667 1.12023 6.09448 2.49725 6.09448H114.602C115.979 6.09448 117.1 7.21667 117.1 8.59609V152.815C117.1 154.194 115.979 155.317 114.602 155.317ZM2.49725 6.49908C1.3429 6.49908 0.403888 7.43982 0.403888 8.59609V152.815C0.403888 153.971 1.3429 154.912 2.49725 154.912H114.602C115.757 154.912 116.696 153.971 116.696 152.815V8.59609C116.696 7.43982 115.757 6.49908 114.602 6.49908H2.49725Z" fill="black"/>
<path d="M110.831 149.239H6.26884C6.15723 149.239 6.06689 149.149 6.06689 149.037V12.3739C6.06689 12.2622 6.15723 12.1716 6.26884 12.1716H110.831C110.943 12.1716 111.033 12.2622 111.033 12.3739V149.037C111.033 149.149 110.943 149.239 110.831 149.239ZM6.47078 148.835H110.629V12.5762H6.47078V148.835Z" fill="black"/>
<path d="M82.7035 18.1942H34.3958C30.2716 18.1942 26.9282 14.845 26.9282 10.7136V0H90.1712V10.7136C90.1712 14.845 86.8278 18.1942 82.7035 18.1942Z" fill="#E2EAFF"/>
<path d="M102.439 53.1492H67.6492C67.5376 53.1492 67.4473 53.0586 67.4473 52.9469C67.4473 52.8352 67.5376 52.7446 67.6492 52.7446H102.439C102.551 52.7446 102.641 52.8352 102.641 52.9469C102.641 53.0586 102.551 53.1492 102.439 53.1492Z" fill="black"/>
<path d="M55.3605 53.1492H39.826C39.7144 53.1492 39.624 53.0586 39.624 52.9469C39.624 52.8352 39.7144 52.7446 39.826 52.7446H55.3605C55.4721 52.7446 55.5625 52.8352 55.5625 52.9469C55.5625 53.0586 55.4721 53.1492 55.3605 53.1492Z" fill="black"/>
<path d="M102.439 62.0955H78.0828C77.9712 62.0955 77.8809 62.0049 77.8809 61.8932C77.8809 61.7815 77.9712 61.6909 78.0828 61.6909H102.439C102.551 61.6909 102.641 61.7815 102.641 61.8932C102.641 62.0049 102.551 62.0955 102.439 62.0955Z" fill="black"/>
<path d="M70.1995 62.0955H39.826C39.7144 62.0955 39.624 62.0049 39.624 61.8932C39.624 61.7815 39.7144 61.6909 39.826 61.6909H70.1995C70.3111 61.6909 70.4014 61.7815 70.4014 61.8932C70.4014 62.0049 70.3111 62.0955 70.1995 62.0955Z" fill="black"/>
<path d="M102.439 71.0416H64.8152C64.7036 71.0416 64.6133 70.951 64.6133 70.8393C64.6133 70.7275 64.7036 70.637 64.8152 70.637H102.439C102.551 70.637 102.641 70.7275 102.641 70.8393C102.641 70.951 102.551 71.0416 102.439 71.0416Z" fill="black"/>
<path d="M55.5407 71.0416H39.826C39.7144 71.0416 39.624 70.951 39.624 70.8393C39.624 70.7275 39.7144 70.637 39.826 70.637H55.5407C55.6523 70.637 55.7426 70.7275 55.7426 70.8393C55.7426 70.951 55.6523 71.0416 55.5407 71.0416Z" fill="black"/>
<path d="M32.5521 71.0417H14.6907C14.5791 71.0417 14.4888 70.9511 14.4888 70.8394V52.9469C14.4888 52.8352 14.5791 52.7446 14.6907 52.7446H31.5294C31.641 52.7446 31.7313 52.8352 31.7313 52.9469C31.7313 53.0586 31.641 53.1492 31.5294 53.1492H14.8927V70.6371H32.3503V57.7539C32.3503 57.6422 32.4406 57.5516 32.5522 57.5516C32.6638 57.5516 32.7542 57.6422 32.7542 57.7539V70.8394C32.7542 70.9511 32.6638 71.0417 32.5521 71.0417Z" fill="black"/>
<path d="M23.6217 67.9706H23.6215C23.5564 67.9706 23.4953 67.939 23.4574 67.8859L16.4595 58.0717C16.3946 57.9808 16.4158 57.8545 16.5065 57.7895C16.5972 57.7247 16.7232 57.7457 16.7881 57.8366L23.6221 67.4209L35.6541 50.6259C35.719 50.5351 35.845 50.5143 35.9359 50.5795C36.0266 50.6447 36.0473 50.771 35.9822 50.8618L23.7858 67.8864C23.748 67.9393 23.6869 67.9707 23.6218 67.9707L23.6217 67.9706Z" fill="black"/>
<path d="M102.439 82.8597H67.6492C67.5376 82.8597 67.4473 82.7691 67.4473 82.6574C67.4473 82.5457 67.5376 82.4551 67.6492 82.4551H102.439C102.551 82.4551 102.641 82.5457 102.641 82.6574C102.641 82.7691 102.551 82.8597 102.439 82.8597Z" fill="black"/>
<path d="M55.3605 82.8597H39.826C39.7144 82.8597 39.624 82.7691 39.624 82.6574C39.624 82.5457 39.7144 82.4551 39.826 82.4551H55.3605C55.4721 82.4551 55.5625 82.5457 55.5625 82.6574C55.5625 82.7691 55.4721 82.8597 55.3605 82.8597Z" fill="black"/>
<path d="M102.439 91.8057H78.0828C77.9712 91.8057 77.8809 91.7151 77.8809 91.6034C77.8809 91.4917 77.9712 91.4011 78.0828 91.4011H102.439C102.551 91.4011 102.641 91.4917 102.641 91.6034C102.641 91.7151 102.551 91.8057 102.439 91.8057Z" fill="black"/>
<path d="M70.1995 91.8057H39.826C39.7144 91.8057 39.624 91.7151 39.624 91.6034C39.624 91.4917 39.7144 91.4011 39.826 91.4011H70.1995C70.3111 91.4011 70.4014 91.4917 70.4014 91.6034C70.4014 91.7151 70.3111 91.8057 70.1995 91.8057Z" fill="black"/>
<path d="M102.439 100.752H64.8152C64.7036 100.752 64.6133 100.662 64.6133 100.55C64.6133 100.438 64.7036 100.348 64.8152 100.348H102.439C102.551 100.348 102.641 100.438 102.641 100.55C102.641 100.662 102.551 100.752 102.439 100.752Z" fill="black"/>
<path d="M55.5407 100.752H39.826C39.7144 100.752 39.624 100.662 39.624 100.55C39.624 100.438 39.7144 100.348 39.826 100.348H55.5407C55.6523 100.348 55.7426 100.438 55.7426 100.55C55.7426 100.662 55.6523 100.752 55.5407 100.752Z" fill="black"/>
<path d="M32.5521 100.752H14.6907C14.5791 100.752 14.4888 100.661 14.4888 100.55V82.6571C14.4888 82.5454 14.5791 82.4548 14.6907 82.4548H31.5294C31.641 82.4548 31.7313 82.5454 31.7313 82.6571C31.7313 82.7688 31.641 82.8594 31.5294 82.8594H14.8927V100.347H32.3503V87.4641C32.3503 87.3524 32.4406 87.2618 32.5522 87.2618C32.6638 87.2618 32.7542 87.3524 32.7542 87.4641V100.55C32.7542 100.661 32.6638 100.752 32.5521 100.752Z" fill="black"/>
<path d="M23.6217 97.6809H23.6215C23.5564 97.6809 23.4953 97.6493 23.4574 97.5962L16.4595 87.7819C16.3946 87.6911 16.4158 87.5647 16.5065 87.4997C16.5972 87.4349 16.7232 87.456 16.7881 87.5468L23.6221 97.1311L35.6541 80.3361C35.719 80.2453 35.845 80.2245 35.9359 80.2897C36.0266 80.3549 36.0473 80.4812 35.9822 80.572L23.7858 97.5966C23.748 97.6495 23.6868 97.6809 23.6217 97.6809Z" fill="black"/>
<path d="M102.439 112.57H67.6492C67.5376 112.57 67.4473 112.479 67.4473 112.368C67.4473 112.256 67.5376 112.165 67.6492 112.165H102.439C102.551 112.165 102.641 112.256 102.641 112.368C102.641 112.479 102.551 112.57 102.439 112.57Z" fill="black"/>
<path d="M55.3605 112.57H39.826C39.7144 112.57 39.624 112.479 39.624 112.368C39.624 112.256 39.7144 112.165 39.826 112.165H55.3605C55.4721 112.165 55.5625 112.256 55.5625 112.368C55.5625 112.479 55.4721 112.57 55.3605 112.57Z" fill="black"/>
<path d="M102.439 121.516H78.0828C77.9712 121.516 77.8809 121.425 77.8809 121.314C77.8809 121.202 77.9712 121.111 78.0828 121.111H102.439C102.551 121.111 102.641 121.202 102.641 121.314C102.641 121.425 102.551 121.516 102.439 121.516Z" fill="black"/>
<path d="M70.1995 121.516H39.826C39.7144 121.516 39.624 121.425 39.624 121.314C39.624 121.202 39.7144 121.111 39.826 121.111H70.1995C70.3111 121.111 70.4014 121.202 70.4014 121.314C70.4014 121.425 70.3111 121.516 70.1995 121.516Z" fill="black"/>
<path d="M102.439 130.462H64.8152C64.7036 130.462 64.6133 130.372 64.6133 130.26C64.6133 130.148 64.7036 130.058 64.8152 130.058H102.439C102.551 130.058 102.641 130.148 102.641 130.26C102.641 130.372 102.551 130.462 102.439 130.462Z" fill="black"/>
<path d="M55.5407 130.462H39.826C39.7144 130.462 39.624 130.372 39.624 130.26C39.624 130.148 39.7144 130.058 39.826 130.058H55.5407C55.6523 130.058 55.7426 130.148 55.7426 130.26C55.7426 130.372 55.6523 130.462 55.5407 130.462Z" fill="black"/>
<path d="M32.5521 130.462H14.6907C14.5791 130.462 14.4888 130.372 14.4888 130.26V112.368C14.4888 112.256 14.5791 112.165 14.6907 112.165H31.5294C31.641 112.165 31.7313 112.256 31.7313 112.368C31.7313 112.479 31.641 112.57 31.5294 112.57H14.8927V130.058H32.3503V117.175C32.3503 117.063 32.4406 116.972 32.5522 116.972C32.6638 116.972 32.7542 117.063 32.7542 117.175V130.26C32.7542 130.372 32.6638 130.462 32.5521 130.462Z" fill="black"/>
<path d="M23.6217 127.391H23.6215C23.5564 127.391 23.4953 127.36 23.4574 127.307L16.4595 117.492C16.3946 117.402 16.4158 117.275 16.5065 117.21C16.5972 117.145 16.7232 117.166 16.7881 117.257L23.6221 126.842L35.6541 110.047C35.719 109.956 35.845 109.935 35.9359 110C36.0266 110.065 36.0473 110.192 35.9822 110.282L23.7858 127.307C23.748 127.36 23.6868 127.391 23.6217 127.391Z" fill="black"/>
<path d="M102.439 26.9165H14.6909V42.6048H102.439V26.9165Z" fill="#E2EAFF"/>
<path d="M139.824 44.7955C146.807 37.7999 146.807 26.4579 139.824 19.4623C132.84 12.4667 121.518 12.4667 114.535 19.4623C107.551 26.4579 107.551 37.7999 114.535 44.7955C121.518 51.7911 132.84 51.7911 139.824 44.7955Z" fill="white"/>
<path d="M127.179 50.2445C117.208 50.2445 109.095 42.1179 109.095 32.1289C109.095 22.1399 117.208 14.0134 127.179 14.0134C137.151 14.0134 145.263 22.14 145.263 32.1289C145.263 42.1178 137.151 50.2445 127.179 50.2445ZM127.179 14.418C117.43 14.418 109.499 22.3631 109.499 32.1289C109.499 41.8947 117.43 49.8399 127.179 49.8399C136.928 49.8399 144.859 41.8947 144.859 32.1289C144.859 22.3631 136.928 14.418 127.179 14.418Z" fill="#195DFF"/>
<path d="M137.12 42.0874C142.611 36.5875 142.611 27.6703 137.12 22.1704C131.63 16.6705 122.728 16.6705 117.238 22.1704C111.748 27.6703 111.748 36.5875 117.238 42.0874C122.728 47.5873 131.63 47.5873 137.12 42.0874Z" fill="white"/>
<path d="M127.179 46.4147C119.316 46.4147 112.918 40.0062 112.918 32.129C112.918 24.2518 119.316 17.8433 127.179 17.8433C135.043 17.8433 141.44 24.2518 141.44 32.129C141.44 40.0062 135.043 46.4147 127.179 46.4147ZM127.179 18.2479C119.539 18.2479 113.322 24.475 113.322 32.129C113.322 39.783 119.539 46.0101 127.179 46.0101C134.82 46.0101 141.036 39.783 141.036 32.129C141.036 24.475 134.82 18.2479 127.179 18.2479Z" fill="#195DFF"/>
<path d="M129.05 44.7957C136.033 37.8002 136.033 26.4581 129.05 19.4625C122.066 12.467 110.744 12.467 103.761 19.4625C96.7774 26.4581 96.7774 37.8002 103.761 44.7958C110.744 51.7913 122.066 51.7913 129.05 44.7957Z" fill="white"/>
<path d="M116.405 50.2447C106.434 50.2447 98.3213 42.1181 98.3213 32.1292C98.3213 22.1402 106.434 14.0137 116.405 14.0137C126.377 14.0137 134.489 22.1403 134.489 32.1292C134.489 42.118 126.377 50.2447 116.405 50.2447ZM116.405 14.4183C106.656 14.4183 98.7252 22.3633 98.7252 32.1292C98.7252 41.895 106.656 49.8401 116.405 49.8401C126.154 49.8401 134.085 41.895 134.085 32.1292C134.085 22.3633 126.154 14.4183 116.405 14.4183Z" fill="#195DFF"/>
<path d="M126.346 42.0876C131.837 36.5877 131.837 27.6706 126.346 22.1707C120.856 16.6707 111.954 16.6707 106.464 22.1707C100.974 27.6706 100.974 36.5877 106.464 42.0876C111.954 47.5876 120.856 47.5875 126.346 42.0876Z" fill="white"/>
<path d="M116.405 46.4147C108.542 46.4147 102.145 40.0062 102.145 32.129C102.145 24.2518 108.542 17.8433 116.405 17.8433C124.269 17.8433 130.666 24.2518 130.666 32.129C130.666 40.0062 124.269 46.4147 116.405 46.4147ZM116.405 18.2479C108.765 18.2479 102.548 24.475 102.548 32.129C102.548 39.783 108.765 46.0101 116.405 46.0101C124.046 46.0101 130.262 39.783 130.262 32.129C130.262 24.475 124.046 18.2479 116.405 18.2479Z" fill="#195DFF"/>
<path d="M118.276 44.7955C125.259 37.7999 125.259 26.4579 118.276 19.4623C111.292 12.4667 99.9702 12.4667 92.9868 19.4623C86.0034 26.4579 86.0034 37.7999 92.9868 44.7955C99.9702 51.7911 111.292 51.7911 118.276 44.7955Z" fill="#195DFF"/>
<path d="M105.631 46.4145C97.7675 46.4145 91.3701 40.0059 91.3701 32.1287C91.3701 24.2516 97.7675 17.843 105.631 17.843C113.495 17.843 119.892 24.2516 119.892 32.1287C119.892 40.0059 113.494 46.4145 105.631 46.4145ZM105.631 18.2476C97.9902 18.2476 91.774 24.4747 91.774 32.1287C91.774 39.7828 97.9902 46.0099 105.631 46.0099C113.272 46.0099 119.488 39.7828 119.488 32.1287C119.488 24.4747 113.272 18.2476 105.631 18.2476Z" fill="white"/>
<path d="M104.711 43.2541V40.5169C103.142 40.4897 101.519 40.002 100.572 39.3243L101.221 37.5086C102.195 38.159 103.602 38.6739 105.117 38.6739C107.038 38.6739 108.336 37.5628 108.336 36.018C108.336 34.5274 107.281 33.606 105.279 32.7929C102.52 31.7088 100.815 30.4622 100.815 28.1044C100.815 25.8548 102.411 24.1474 104.901 23.741V21.0037H106.578V23.6325C108.201 23.6867 109.31 24.1204 110.095 24.5811L109.419 26.3699C108.85 26.0446 107.741 25.4483 106.01 25.4483C103.927 25.4483 103.142 26.6951 103.142 27.7792C103.142 29.1884 104.143 29.8931 106.497 30.8687C109.283 32.007 110.69 33.4163 110.69 35.8283C110.69 37.9694 109.202 39.9749 106.416 40.4355V43.2542H104.711L104.711 43.2541Z" fill="white"/>
<path d="M74.8541 136.369H90.3833C92.5457 136.369 94.3014 138.128 94.3014 140.294V163.993C94.3014 166.159 92.5458 167.918 90.3833 167.918H74.8541C72.6917 167.918 70.936 166.159 70.936 163.993V140.294C70.936 138.128 72.6917 136.369 74.8541 136.369Z" fill="white"/>
<path d="M90.3832 168.12H74.8539C72.5821 168.12 70.7339 166.268 70.7339 163.993V140.294C70.7339 138.018 72.5821 136.167 74.8539 136.167H90.3832C92.655 136.167 94.5032 138.018 94.5032 140.294V163.993C94.5032 166.268 92.655 168.12 90.3832 168.12ZM74.8539 136.571C72.8048 136.571 71.1379 138.241 71.1379 140.294V163.993C71.1379 166.045 72.8048 167.715 74.8539 167.715H90.3832C92.4323 167.715 94.0993 166.045 94.0993 163.993V140.294C94.0993 138.241 92.4323 136.571 90.3832 136.571H74.8539Z" fill="black"/>
<path d="M212.358 162.083L201.834 167.485C199.908 168.474 197.547 167.711 196.56 165.782L180.96 135.284C179.973 133.355 180.734 130.99 182.66 130.002L193.184 124.599C195.11 123.611 197.471 124.373 198.458 126.302L214.059 156.8C215.045 158.729 214.284 161.095 212.358 162.083Z" fill="white"/>
<path d="M200.052 168.121C199.627 168.121 199.2 168.055 198.783 167.92C197.736 167.582 196.883 166.856 196.381 165.874L180.78 135.376C179.744 133.351 180.546 130.859 182.568 129.821L193.092 124.419C195.114 123.381 197.602 124.184 198.638 126.21L214.238 156.708C214.74 157.689 214.831 158.807 214.493 159.856C214.155 160.906 213.43 161.76 212.451 162.263L201.926 167.665C201.336 167.968 200.696 168.121 200.052 168.121L200.052 168.121ZM194.965 124.37C194.395 124.37 193.817 124.501 193.276 124.779L182.752 130.181C180.929 131.117 180.205 133.365 181.139 135.192L196.74 165.69C197.193 166.575 197.962 167.23 198.907 167.535C199.852 167.84 200.858 167.759 201.742 167.305L212.266 161.903C213.15 161.45 213.804 160.679 214.108 159.732C214.413 158.786 214.331 157.777 213.879 156.892L198.278 126.394C197.621 125.11 196.316 124.37 194.965 124.37Z" fill="black"/>
<path d="M205.605 89.9635L199.575 90.8351C198.193 91.0349 197.175 92.1201 197.175 93.3943V97.5349C197.175 98.5679 196.479 99.4951 195.421 99.8699L195.257 99.9282C190.203 87.2765 183.031 72.9273 179.408 69.6297C172.732 63.5518 97.2025 64.06 91.0844 69.6297C85.7241 74.5094 79.3373 87.8879 74.8985 99.8373C73.8882 99.4441 73.2274 98.5404 73.2274 97.5349V93.3943C73.2274 92.1201 72.2097 91.035 70.8273 90.8351L64.7971 89.9635C61.5178 89.4895 58.5498 91.7963 58.5498 94.819C58.5498 96.8924 59.9786 98.7428 62.1216 99.4449L73.6766 103.23C72.0724 107.833 70.821 112.059 70.1088 115.287C68.5558 122.325 70.0989 144.004 70.0989 144.004C70.0989 144.004 80.3987 148.293 84.0825 148.917C109.232 153.182 161.261 153.182 186.41 148.917C190.094 148.293 200.394 144.004 200.394 144.004C204.43 135.108 191.074 137.021 200.515 124.485C202.984 121.205 192.677 120.053 192.175 117.778C191.484 114.648 198.316 107.924 196.562 103.284L208.281 99.445C210.424 98.743 211.853 96.8924 211.853 94.819C211.853 91.7963 208.885 89.4896 205.605 89.9636V89.9635Z" fill="#195DFF"/>
<path d="M190.761 97.5999C186.103 86.4219 180.099 74.6787 176.945 71.8076C170.641 66.0686 99.3237 66.5486 93.5467 71.8076C88.8554 76.0784 83.3316 87.2433 79.2114 97.8379C104.084 93.5754 165.281 93.2312 190.761 97.5999Z" fill="white"/>
<path d="M104.723 148.842C123.613 150.377 146.88 150.377 165.77 148.842L164.538 141.723C163.901 138.038 160.968 135.372 157.552 135.372H112.941C109.525 135.372 106.592 138.038 105.954 141.723L104.723 148.842Z" fill="white"/>
<path d="M151.647 137.942H118.845V147.697H151.647V137.942Z" fill="white"/>
<path d="M151.647 147.9H118.846C118.734 147.9 118.644 147.809 118.644 147.698V137.943C118.644 137.831 118.734 137.74 118.846 137.74H151.647C151.759 137.74 151.849 137.831 151.849 137.943V147.698C151.849 147.809 151.759 147.9 151.647 147.9ZM119.047 147.495H151.445V138.145H119.047V147.495Z" fill="black"/>
<path d="M158.53 121.602C144.121 120.883 126.372 120.883 111.963 121.602L112.902 124.934C113.389 126.658 115.626 127.906 118.232 127.906H152.261C154.867 127.906 157.104 126.658 157.59 124.934L158.53 121.602Z" fill="white"/>
<path d="M88.975 144.444L76.0527 141.958C74.9149 141.739 74.2952 140.615 74.7826 139.653L76.6015 136.066C76.9558 135.367 77.7938 134.984 78.6209 135.143L92.4869 137.811C93.7768 138.059 94.3527 139.439 93.5696 140.404L90.8069 143.81C90.3854 144.33 89.6693 144.578 88.975 144.444Z" fill="white"/>
<path d="M99.3678 123.09L91.2745 126.407C90.5932 126.686 89.8098 126.67 89.1434 126.362L76.022 120.303C75.4509 120.04 75.0147 119.584 74.8053 119.033L73.7945 116.375C73.1472 114.672 74.853 113.003 76.7654 113.468L98.9908 118.868C100.072 119.13 100.824 120.022 100.824 121.04C100.824 121.925 100.254 122.727 99.3676 123.09H99.3678Z" fill="white"/>
<path d="M181.758 144.444L194.68 141.958C195.818 141.739 196.437 140.615 195.95 139.653L194.131 136.066C193.777 135.367 192.939 134.984 192.112 135.143L178.246 137.811C176.956 138.059 176.38 139.439 177.163 140.404L179.926 143.81C180.347 144.33 181.063 144.578 181.757 144.444L181.758 144.444Z" fill="white"/>
<path d="M181.867 147.9C181.858 147.9 181.849 147.899 181.839 147.898L171.852 146.514C171.777 146.504 171.714 146.452 171.689 146.38L168.266 136.464L163.808 130.38C163.746 130.295 163.76 130.176 163.839 130.107L169.022 125.608C167.301 121.699 164.429 115.512 163.859 115.13C163.782 115.078 163.743 114.994 163.754 114.903C163.784 114.655 163.834 114.24 178.491 108.704C185.681 105.989 192.951 103.345 193.024 103.319C193.128 103.281 193.245 103.335 193.282 103.44C193.32 103.545 193.266 103.661 193.161 103.699C182.165 107.696 165.736 113.858 164.227 114.931C165.323 116.22 169.015 124.587 169.452 125.581C169.488 125.662 169.466 125.757 169.4 125.815L164.244 130.291L168.609 136.249C168.621 136.266 168.631 136.284 168.637 136.303L172.03 146.131L181.895 147.497C182.005 147.513 182.082 147.615 182.067 147.725C182.053 147.827 181.967 147.9 181.867 147.9L181.867 147.9Z" fill="black"/>
<path d="M174.558 130.462C174.542 130.462 174.526 130.46 174.51 130.457C174.435 130.438 174.376 130.378 174.36 130.302L171.682 117.82C171.671 117.767 171.681 117.711 171.711 117.666C171.741 117.621 171.788 117.589 171.841 117.579L189.137 114.2C189.246 114.178 189.353 114.25 189.374 114.36C189.395 114.469 189.324 114.576 189.215 114.597L172.12 117.937L174.667 129.807L181.721 121.186C181.736 121.167 181.755 121.151 181.775 121.139L189.074 116.852C189.17 116.796 189.294 116.828 189.35 116.925C189.406 117.021 189.374 117.145 189.278 117.201L182.011 121.47L174.714 130.388C174.675 130.436 174.617 130.462 174.558 130.462V130.462Z" fill="black"/>
<path d="M166.317 21.2059H144.422C144.31 21.2059 144.22 21.1153 144.22 21.0036C144.22 20.8919 144.31 20.8013 144.422 20.8013H166.317C166.429 20.8013 166.519 20.8919 166.519 21.0036C166.519 21.1153 166.429 21.2059 166.317 21.2059Z" fill="black"/>
<path d="M169.536 23.5164C170.922 22.1287 170.922 19.8786 169.536 18.4909C168.151 17.1031 165.905 17.1031 164.52 18.4909C163.134 19.8787 163.134 22.1287 164.52 23.5164C165.905 24.9042 168.151 24.9042 169.536 23.5164Z" fill="#195DFF"/>
</svg>
