<svg width="47" height="62" viewBox="0 0 47 62" fill="none" xmlns="http://www.w3.org/2000/svg">
<g clip-path="url(#clip0)">
<path d="M13.5496 45.2524H6.94415V51.8499H13.5496V45.2524Z" stroke="#212121" stroke-width="2" stroke-linecap="round" stroke-linejoin="round"/>
<path d="M13.5496 30.4502H6.94415V37.0477H13.5496V30.4502Z" stroke="#212121" stroke-width="2" stroke-linecap="round" stroke-linejoin="round"/>
<path d="M42.0883 6.8513H35.0595C33.7892 5.07504 31.6721 3.89086 29.3009 3.89086H27.1838C26.6757 2.1146 25.0667 0.84584 23.2036 0.84584C21.3406 0.84584 19.7315 2.1146 19.2234 3.89086H17.1063C14.7352 3.89086 12.618 5.07504 11.3478 6.8513H4.91173C2.70993 6.8513 0.846863 8.62756 0.846863 10.9113V57.0941C0.846863 59.3779 2.70993 61.1542 4.91173 61.1542H42.0883C44.3748 61.1542 46.1532 59.2933 46.1532 57.0941V10.9113C46.1532 8.62756 44.2901 6.8513 42.0883 6.8513Z" stroke="#212121" stroke-width="2" stroke-linecap="round" stroke-linejoin="round"/>
<path d="M6.69012 18.6085L9.31535 21.2306L15.0739 15.4789" stroke="#212121" stroke-width="2" stroke-linecap="round" stroke-linejoin="round"/>
<path d="M22.6108 15.3943H39.9712" stroke="#212121" stroke-width="2" stroke-linecap="round" stroke-linejoin="round"/>
<path d="M22.6108 21.146H29.7244" stroke="#212121" stroke-width="2" stroke-linecap="round" stroke-linejoin="round"/>
<path d="M22.6108 30.8731H39.9712" stroke="#212121" stroke-width="2" stroke-linecap="round" stroke-linejoin="round"/>
<path d="M22.6108 36.6248H29.7244" stroke="#212121" stroke-width="2" stroke-linecap="round" stroke-linejoin="round"/>
<path d="M22.6108 45.6753H39.9712" stroke="#212121" stroke-width="2" stroke-linecap="round" stroke-linejoin="round"/>
<path d="M22.6108 51.5116H29.7244" stroke="#212121" stroke-width="2" stroke-linecap="round" stroke-linejoin="round"/>
</g>
<defs>
<clipPath id="clip0">
<rect width="47" height="62" fill="white"/>
</clipPath>
</defs>
</svg>
