<svg width="187" height="89" viewBox="0 0 187 89" fill="none" xmlns="http://www.w3.org/2000/svg">
<path d="M168.206 71.0219L180.351 71.3086C180.351 71.3086 178.576 85.1309 162.844 84.2138C162.844 84.2138 151.295 85.1749 147.546 73.901L168.206 71.0219ZM165.595 77.2298C166.442 76.8066 166.019 73.9142 166.019 73.9142L163.973 77.2298C163.973 77.2298 164.749 77.6531 165.595 77.2298ZM161.927 76.3127L163.197 74.267L158.964 73.7026C158.964 73.7026 160.375 76.1716 161.927 76.3127Z" fill="black"/>
<path d="M136.072 20.1236C136.072 20.1236 140.657 19.6298 139.74 23.5097C138.823 27.3898 136.072 20.1236 136.072 20.1236Z" fill="#0C0C0C"/>
<path d="M68.1015 1.3938C68.1298 1.42059 68.1573 1.44738 68.1855 1.4749C68.2723 1.55817 68.3598 1.64208 68.4465 1.72607C69.0293 2.28973 69.6063 2.85903 70.177 3.43467C70.5954 3.8565 71.0102 4.28193 71.4215 4.71011C76.9762 10.492 81.8735 16.8389 85.879 23.8272L86.9372 24.6737L133.003 25.097L141.821 24.6737C141.821 24.6737 128.72 11.8514 112.876 4.94085C112.31 4.69393 111.741 4.4541 111.168 4.22344H111.167C110.636 4.00895 110.103 3.80154 109.567 3.60265C107.902 2.98396 106.147 2.64114 104.372 2.5833L77.6888 1.70852L68.1785 1.39669L68.1015 1.3938Z" fill="url(#paint0_linear_476_2462)"/>
<path d="M65.6949 1.41345L66.018 1.94469L67.685 4.69033L68.0857 4.69178L71.4225 4.71012L112.877 4.94078C112.311 4.69387 111.742 4.45404 111.169 4.22337H111.168C110.637 4.00889 110.104 3.80148 109.568 3.60259C107.903 2.9839 106.148 2.64108 104.373 2.58324L77.6898 1.70846L68.1866 1.47498L65.6949 1.41345Z" fill="#1A1A1A"/>
<path d="M2.98917 27.3545C2.98917 27.3545 1.78991 27.4956 1.50775 29.1181C1.31508 30.226 1.38549 32.1562 1.44962 33.2691C1.47735 33.7507 1.87557 34.1268 2.35799 34.1268H3.4125L4.47071 33.4214L7.43359 28.836L7.01032 27.3545L4.96454 27.2134L2.98917 27.3545Z" fill="url(#paint1_linear_476_2462)"/>
<path d="M15.3701 13.9862C15.3701 13.9862 12.9764 15.3654 6.58967 25.3634C6.58967 25.3634 15.2291 15.0444 15.3701 13.9862Z" fill="#0C0C0C"/>
<path d="M13.218 48.3063L3.76498 57.2656L3.2006 59.4525L1.29593 55.7136L2.5001 45.4191L8.42102 40.5464H14.4879L18.7206 44.2148L19.2012 47.4336L13.218 48.3063Z" fill="black" stroke="black" stroke-miterlimit="10"/>
<path d="M108.666 49.435L107.185 51.6219L83.1992 67.424L81.7177 72.8561L79.3898 69.9637L81.0123 51.4103L88.2784 42.8743L99.4952 41.3224L108.666 49.435Z" fill="black"/>
<path d="M118.904 73.5562C118.904 73.5562 115.241 86.8645 100.14 88.0102C96.2367 88.3064 92.3386 87.2362 89.2042 84.8905C87.1416 83.3467 85.1795 81.0989 84.2553 77.8709C81.8575 69.4955 95.6059 69.1434 95.6059 69.1434L104.504 70.8807L92.0877 49.0117C92.0877 49.0117 94.6978 46.6132 99.9887 46.7543C105.28 46.8954 109.371 51.6219 109.371 51.6219C109.371 51.6219 116.515 55.9853 118.904 73.5562Z" fill="#0C0C0C"/>
<path d="M83.501 76.0861C83.5024 76.7658 82.4322 77.1037 81.9235 77.2814C77.6703 78.7678 72.0383 78.7365 68.7365 75.2464C67.4174 73.8521 65.6574 71.677 66.1268 69.6108L83.4809 71.7977C83.4809 71.7977 83.501 76.0758 83.501 76.0861Z" fill="#0C0C0C"/>
<path d="M28.4561 66.7187C28.4561 66.7187 27.8917 78.147 20.555 80.2634C16.5045 81.4318 13.5292 81.3101 11.6764 80.9666C10.275 80.7068 8.98816 80.0176 7.9878 79.0024C7.15593 78.1583 6.21233 76.9819 5.91682 75.7629C5.35243 73.4349 19.1442 53.5268 19.1442 53.5268L13.9238 47.5304L11.6997 46.3207C11.6997 46.3207 16.1813 45.1319 19.638 45.4846C23.0946 45.8373 28.4561 66.7187 28.4561 66.7187Z" fill="#0C0C0C"/>
<path d="M0.0263214 48.9412V55.0786L2.56593 58.9586V48.6591C2.56593 48.6591 4.82339 41.9572 11.5251 41.4634C18.2269 40.9696 21.7542 53.5972 21.7542 53.5972C21.7542 53.5972 22.8829 58.3942 23.3061 60.7928C23.7294 63.1914 26.6923 67.1419 26.6923 67.1419L81.5059 71.7978L80.9416 58.3237C81.1426 54.3577 82.2008 50.2555 84.8102 47.167C88.3396 42.9887 95.7998 41.1376 100.753 43.5403C102.332 44.3065 103.649 45.3639 104.927 46.5427C104.935 46.5498 110.36 51.5592 111.699 61.9216C112.146 65.3754 112.78 67.8043 113.427 69.5073C113.507 69.7196 113.588 69.9207 113.669 70.1105C114.886 72.9788 116.073 73.4204 116.073 73.4204L133.709 74.267H142.386C142.386 74.267 177.729 71.7979 182.103 71.0924C183.798 70.8194 184.761 69.879 185.307 68.83C186.169 67.1701 185.983 65.2372 185.983 65.2372L184.784 64.4612L182.033 59.2409H147.818L140.764 66.6481L120.517 66.0838L118.119 62.3448L114.803 62.0627C114.803 62.0627 113.392 56.6307 113.463 55.1493C113.533 53.6678 109.512 46.9661 109.512 46.9661C109.512 46.9661 102.246 37.2308 94.4861 38.5712C86.7262 39.9115 84.6099 43.6504 84.6099 43.6504L79.8833 49.7173L78.7547 57.971L76.2856 57.9005L72.3351 61.2161L50.8188 59.4524L31.1367 58.1121L26.6218 53.6677L23.7294 53.5266L21.7542 46.331C21.7542 46.331 19.2145 41.1812 17.0982 40.0524C14.9819 38.9237 13.2183 38.7121 13.2183 38.7121C13.2183 38.7121 8.63289 37.795 5.24666 41.1811C1.86052 44.5673 1.64885 48.9411 1.64885 48.9411H0.0263214V48.9412Z" fill="#1E1E1E"/>
<path d="M86.3027 23.8271C86.3027 23.8271 73.1813 2.8752 67.1145 0.61775C61.0476 -1.6397 28.1736 3.01625 28.1736 3.01625C28.1736 3.01625 26.8332 4.0039 24.6463 5.62641C24.6463 5.62641 13.0064 6.75517 15.4049 13.9507L21.4 14.0326L29.3022 23.8271L61.4708 25.4496L66.4794 25.8023L77.4845 26.4373H81.2234L81.1528 24.462L86.6553 24.1798L86.3027 23.8271Z" fill="#1A1A1A"/>
<path d="M0.0263824 48.9413H1.64888C3.9769 38.0068 11.5957 39.065 11.5957 39.065C13.6351 38.8364 15.3494 39.393 16.7837 40.4067C17.3494 40.806 17.8714 41.2765 18.3526 41.7979C18.3568 41.8021 18.361 41.807 18.3653 41.8113C18.4224 41.8741 18.4796 41.9369 18.536 42.0011C18.5811 42.0526 18.6263 42.1041 18.6708 42.1563C18.6771 42.164 18.6835 42.1718 18.6906 42.1795C18.7103 42.2028 18.73 42.2261 18.7498 42.2501C18.7561 42.2579 18.7632 42.2664 18.7702 42.2748C18.8111 42.3235 18.8513 42.3729 18.8908 42.4223C18.9402 42.4822 18.9881 42.5429 19.0354 42.6043C19.1074 42.6967 19.1786 42.7898 19.2492 42.885C19.2915 42.9422 19.3339 43.0007 19.3763 43.0593C19.3946 43.0854 19.4137 43.1115 19.4326 43.1383C19.4735 43.1962 19.5145 43.2547 19.5547 43.3133C19.6076 43.3895 19.6598 43.467 19.7106 43.5447C19.7579 43.6152 19.8044 43.6865 19.8503 43.7584C19.9131 43.8565 19.9744 43.9552 20.0358 44.0548C20.0767 44.121 20.1169 44.1888 20.1572 44.2558C20.1981 44.3235 20.2376 44.3919 20.2771 44.4597C20.4725 44.7983 20.6581 45.1433 20.8337 45.491C20.8697 45.5623 20.905 45.6335 20.9402 45.7048C20.9853 45.7979 21.0305 45.891 21.075 45.9848C21.1145 46.0674 21.1525 46.1499 21.1907 46.2325C21.1956 46.243 21.2012 46.2544 21.2062 46.2656C21.2393 46.3376 21.2717 46.4102 21.3042 46.4829C21.3297 46.5393 21.3544 46.5957 21.379 46.6521C21.4256 46.7573 21.4707 46.8624 21.5151 46.9682C21.5349 47.0147 21.5546 47.0613 21.5737 47.1078C21.6026 47.1769 21.6315 47.2461 21.6591 47.3152C21.6817 47.371 21.7042 47.426 21.7261 47.4818C21.7508 47.5432 21.7755 47.6045 21.7987 47.6659C21.8749 47.8606 21.9483 48.0539 22.0181 48.2458C22.0415 48.3092 22.0647 48.3727 22.0872 48.4356C22.1098 48.499 22.1324 48.5619 22.1543 48.6246C22.186 48.7135 22.2164 48.801 22.246 48.8884C22.3236 49.117 22.3976 49.3413 22.4675 49.5607C22.4802 49.5995 22.4922 49.6376 22.5035 49.6757C22.519 49.7244 22.5346 49.773 22.5494 49.8217C22.5606 49.8577 22.5712 49.893 22.5818 49.9282C22.7137 50.3599 22.8293 50.7712 22.9309 51.1529C22.9472 51.2136 22.9627 51.2735 22.9783 51.3335C23.0813 51.7307 23.1681 52.0926 23.24 52.41C23.2463 52.4389 23.2527 52.4671 23.2591 52.4953C23.2781 52.5842 23.2972 52.6682 23.3141 52.7493C23.324 52.7952 23.3331 52.8396 23.3423 52.8827C23.3627 52.9814 23.3818 53.0732 23.3987 53.1571C23.4064 53.1987 23.4142 53.2389 23.422 53.2763C23.4326 53.3327 23.4425 53.3857 23.4517 53.4336C23.4566 53.459 23.4608 53.483 23.4651 53.5055C23.4961 53.6734 23.5123 53.7757 23.5166 53.8018C23.5173 53.8068 23.518 53.8089 23.518 53.8089L26.1987 53.8795L30.7136 58.9587L72.7585 62.2038L76.7796 58.4649L77.7538 58.4917L79.3192 58.5354C79.5661 50.6986 82.6469 46.1541 86.0358 43.5213C90.3941 40.1351 95.2625 39.9115 95.2625 39.9115C102.182 39.7626 106.656 43.8246 109.514 48.5645C113.417 55.0357 114.31 62.7681 114.31 62.7681H116.99L117.677 63.6259L120.094 66.6481L141.046 67.1419L147.704 60.6214L147.889 60.4401L182.315 59.7347L182.619 60.4303L184.996 65.8721L185.983 65.2372L185.092 62.4535V62.4527L185.726 56.9876L185.84 56.0106L186.266 55.5725V50.07L183.726 46.7544V44.1442H183.232C183.232 44.1442 183.233 44.1005 183.234 44.0194C183.239 43.2469 183.256 39.0812 182.958 37.0933C182.915 36.8061 182.866 36.5642 182.809 36.3843C182.315 34.8323 178.647 32.2927 175.049 30.5996C171.451 28.9065 142.246 24.4622 142.246 24.4622L104.081 23.3334L80.7301 24.2505V26.2258L29.5144 23.6156L21.3312 13.9509H15.4054L6.43138 25.5683L6.30507 25.732L4.5181 26.5263L2.83212 27.2755C2.75522 27.3093 2.77991 27.425 2.86383 27.425H5.78156C6.81506 27.425 7.42732 28.5799 6.84821 29.4349L4.32486 33.1596C3.97215 33.681 3.39857 34.0104 2.76999 34.052L2.28534 34.0844C1.92627 34.1084 1.64696 34.4047 1.64342 34.7645L1.57991 41.9495L1.57846 42.0984C0.237961 43.1566 0.0263824 48.9413 0.0263824 48.9413Z" fill="#F2F2F2"/>
<path d="M181.609 37.9363L182.174 43.8621L183.233 44.0194C183.239 43.2469 183.256 39.0812 182.958 37.0933L181.609 37.9363Z" fill="#333333"/>
<path d="M183.726 58.1827L185.093 62.4528L185.84 56.0106L183.726 58.1827Z" fill="black"/>
<path d="M80.0244 24.6737C77.566 19.9108 74.6881 15.1663 71.192 11.0952C69.097 8.65568 66.631 6.6593 63.4275 5.98811C60.2316 5.3185 56.8736 5.41181 53.6405 5.69707C53.6405 5.69707 50.0427 14.5858 50.5365 23.2628L80.0244 24.6737Z" fill="url(#paint2_linear_476_2462)"/>
<path d="M49.5488 5.48535L36.3569 6.33189C36.3569 6.33189 30.5722 20.0882 30.5722 22.8394L44.6812 23.0511C44.6812 23.0511 46.3743 10.6352 49.5488 5.48535Z" fill="url(#paint3_linear_476_2462)"/>
<path d="M34.7344 6.9668C34.6541 7.15745 31.6418 7.37454 31.2576 7.45911C30.0139 7.73296 28.7516 8.13116 27.6881 8.85103C25.8092 10.123 24.5239 12.3683 22.8828 13.9507L29.6552 22.3456C29.6552 22.3456 33.0413 10.9879 34.7344 6.9668Z" fill="url(#paint4_linear_476_2462)"/>
<path d="M96.391 86.965C88.443 86.965 81.9998 78.1846 81.9998 67.3535C81.9998 56.5223 88.443 47.7419 96.391 47.7419C104.339 47.7419 110.782 56.5223 110.782 67.3535C110.782 78.1846 104.339 86.965 96.391 86.965Z" fill="url(#paint5_radial_476_2462)"/>
<path d="M100.2 66.7892L104.292 58.8881C104.292 58.8881 103.304 55.502 98.4364 53.3856L98.0836 67.3535L97.0255 62.627L92.0873 53.8794C92.0873 53.8794 87.0786 57.4066 87.0081 60.3695L97.5898 66.8596L93.5688 65.3077L85.5971 68.4117C85.5971 68.4117 86.7258 76.3127 87.7135 77.3709C87.7135 77.3709 92.0873 70.3164 95.544 67.7062L96.8843 67.9178L93.4982 71.1629L93.0044 82.3795C93.0044 82.3795 97.8014 84.0021 100.059 81.6036L96.1084 76.1011L98.2953 76.9476L96.32 71.7978L96.3905 69.6109L97.6603 69.752L97.7309 70.7397H97.3076L97.4487 72.2917L104.856 76.4539C104.856 76.4539 107.043 73.8437 106.831 66.6481L98.5775 69.1877L98.0836 68.6233L100.059 67.4946L106.549 62.5564C106.549 62.5564 107.537 63.3324 107.466 68.1295C107.396 72.9265 106.549 74.549 106.549 74.549L105.068 77.7236L98.3658 73.7731L99.1418 77.0886L103.092 80.1221C103.092 80.1221 101.258 82.4501 99.0007 83.1555C96.7432 83.8609 94.0625 83.4377 94.0625 83.4377L91.9462 82.5206L92.6516 72.5032L89.9709 76.0304L89.9003 80.6865C89.9003 80.6865 84.4683 78.0763 84.5389 67.1418L92.1578 64.6728L88.2778 63.1913C88.2778 63.1913 85.5971 63.7557 85.3149 63.8967C85.0328 64.0378 85.5971 55.9251 92.3694 53.0328L96.6727 61.0749V56.3484L94.9796 52.4685C94.9796 52.4685 101.258 50.3521 105.42 59.1703L100.2 66.7892Z" fill="#ECECEC"/>
<path d="M10.1019 46.5978C11.0758 46.2555 12.1314 46.2248 13.1175 46.5301C19.254 48.4306 21.4266 56.7723 21.9475 62.3191C22.459 67.7659 21.2124 73.5304 17.353 77.5866C15.92 79.0927 13.9657 80.0255 11.9051 80.2248C9.84441 80.4241 8.02157 79.0183 6.79112 77.4642C4.15257 74.1316 3.04778 69.8536 2.73081 65.6814C2.39803 61.3011 2.59506 56.5329 4.37696 52.4645C5.4985 49.9038 7.39371 47.5496 10.1019 46.5978Z" fill="url(#paint6_radial_476_2462)"/>
<path d="M14.5951 62.5909L17.1754 55.7694C17.1754 55.7694 16.5525 52.8459 13.4828 51.0187L13.2603 63.0782L12.593 58.9975L9.47872 51.4451C9.47872 51.4451 6.31999 54.4904 6.27551 57.0485L12.9489 62.6518L10.413 61.3119L5.38571 63.9918C5.38571 63.9918 6.09748 70.8134 6.72036 71.7269C6.72036 71.7269 9.47873 65.6363 11.6587 63.3827L12.504 63.5655L10.3685 66.3671L10.0571 76.0513C10.0571 76.0513 13.0824 77.4521 14.506 75.3813L12.0146 70.6306L13.3937 71.3614L12.148 66.9153L12.1925 65.0271L12.9933 65.149L13.0378 66.0016H12.7709L12.8599 67.3416L17.5313 70.9351C17.5313 70.9351 18.9104 68.6815 18.777 62.469L13.5717 64.6617L13.2603 64.1744L14.506 63.1999L18.599 58.9364C18.599 58.9364 19.2219 59.6064 19.1774 63.7481C19.1329 67.8897 18.599 69.2906 18.599 69.2906L17.6648 72.0314L13.4383 68.6206L13.9277 71.4833L16.4191 74.1022C16.4191 74.1022 15.2624 76.1121 13.8387 76.7212C12.4151 77.3303 10.7245 76.9649 10.7245 76.9649L9.38983 76.1731L9.83468 67.5244L8.14407 70.5697L8.09957 74.5896C8.09957 74.5896 4.67386 72.336 4.71835 62.8955L9.52321 60.7638L7.07625 59.4847C7.07625 59.4847 5.3857 59.972 5.20769 60.0938C5.02974 60.2156 5.38563 53.2114 9.65659 50.7142L12.3705 57.6575V53.5768L11.3027 50.227C11.3027 50.227 15.2623 48.3998 17.8872 56.0131L14.5951 62.5909Z" fill="#ECECEC"/>
<path opacity="0.78" d="M4.5169 26.5262L24.3987 27.178L28.7725 23.8624C23.799 26.2257 18.5787 25.873 18.5787 25.873L6.43016 25.5682L6.30385 25.7319L4.5169 26.5262Z" fill="#E8E9EA"/>
<path d="M0.0254593 49.0506H1.64798C3.68495 39.5582 9.77276 39.1753 11.2629 39.228C11.5045 39.2365 11.7466 39.2328 11.9878 39.2175C13.5676 39.1171 14.946 39.4909 16.145 40.1774C16.2402 40.2317 16.3348 40.2882 16.4271 40.3474C16.5477 40.4222 16.6663 40.5012 16.7827 40.5831C17.3484 40.9795 17.8705 41.4458 18.3516 41.9629C18.3558 41.9672 18.36 41.9721 18.3643 41.9764C18.4214 42.0391 18.4786 42.1012 18.535 42.1647C18.5801 42.2162 18.6253 42.267 18.6698 42.3185C18.6761 42.3263 18.6825 42.3341 18.6896 42.3418C18.7093 42.365 18.7291 42.3884 18.7488 42.4116C18.7551 42.4194 18.7622 42.4279 18.7692 42.4363C18.8094 42.485 18.8503 42.5337 18.8898 42.5831C18.9385 42.6423 18.9872 42.7023 19.0345 42.763C19.1064 42.8547 19.1777 42.9471 19.2482 43.0416C19.2906 43.0988 19.3329 43.1566 19.3753 43.2145C19.3936 43.2405 19.4127 43.2667 19.4317 43.2935C19.4725 43.3506 19.5135 43.4084 19.5537 43.467C19.6066 43.5425 19.6581 43.6194 19.7096 43.6963C19.7569 43.7661 19.8034 43.8374 19.8493 43.9086C19.9121 44.0053 19.9734 44.1033 20.0348 44.2021C20.0757 44.2684 20.1159 44.3354 20.1562 44.4017C20.1971 44.4687 20.2366 44.5365 20.2761 44.6042C20.4715 44.94 20.6571 45.2821 20.8327 45.6271C20.8687 45.6977 20.904 45.7689 20.9392 45.8394C20.9844 45.9319 21.0295 46.0242 21.074 46.1174C21.1135 46.1992 21.1515 46.281 21.1897 46.3629C21.1946 46.3734 21.2002 46.3847 21.2052 46.396C21.2383 46.4672 21.2708 46.5392 21.3033 46.6111C21.3287 46.6669 21.354 46.7233 21.378 46.7791C21.4246 46.8835 21.4697 46.9879 21.5141 47.093C21.5339 47.1388 21.5536 47.1854 21.5727 47.2312C21.6017 47.2997 21.6306 47.3688 21.6581 47.4372C21.6807 47.4922 21.7032 47.5472 21.7251 47.6023C21.7498 47.6629 21.7745 47.7243 21.7977 47.785C21.8739 47.9783 21.9473 48.1702 22.0171 48.3599C22.0411 48.4234 22.0637 48.4862 22.0863 48.5482C22.1089 48.6117 22.1314 48.6738 22.1533 48.7359C22.185 48.824 22.2154 48.9109 22.245 48.9976C22.3226 49.2247 22.3966 49.4469 22.4665 49.6649C22.4792 49.703 22.4912 49.7411 22.5025 49.7785C22.518 49.8272 22.5336 49.8752 22.5484 49.9238C22.5596 49.9591 22.5703 49.9944 22.5808 50.0296C22.7127 50.4579 22.8284 50.8656 22.93 51.2444C22.9462 51.3044 22.9617 51.3644 22.9773 51.4236C23.0803 51.8172 23.1671 52.1763 23.239 52.4916C23.2453 52.5199 23.2517 52.5481 23.258 52.5763C23.2771 52.6644 23.2962 52.7477 23.3131 52.8281C23.323 52.8739 23.3321 52.9177 23.3413 52.9607C23.3618 53.058 23.3808 53.149 23.3977 53.2323C23.4054 53.2739 23.4132 53.3141 23.4211 53.3508C23.4316 53.4072 23.4415 53.4594 23.4507 53.5067C23.4556 53.5321 23.4598 53.5561 23.4641 53.5787C23.4951 53.7452 23.5113 53.8468 23.5156 53.8722C23.5163 53.8771 23.517 53.8793 23.517 53.8793L26.1977 53.9491L27.6298 55.5477L30.7127 58.9888L72.7575 62.2078L76.3377 58.9056L76.7786 58.4986L77.7528 58.5253L79.3182 58.5684C79.5651 50.7936 82.6459 46.2851 86.0348 43.6728C90.3931 40.3135 95.2615 40.0919 95.2615 40.0919C102.608 39.9346 107.197 44.4876 110.024 49.5534C111.632 52.4367 112.671 55.4863 113.321 57.9285C114.074 60.7553 114.309 62.7679 114.309 62.7679H116.209C116.269 62.691 116.291 62.5373 116.285 62.3334C116.263 61.4812 115.771 59.7684 115.688 59.3127C115.462 58.0732 115.195 56.8408 114.891 55.6182C114.377 53.5456 113.789 51.5181 112.872 49.5831C112.556 48.9137 112.21 48.2568 111.835 47.6142C110.32 45.0167 108.335 42.6746 105.9 40.8927C102.994 38.7651 99.4913 37.5594 95.8688 37.6067C94.0769 37.6299 92.2957 37.9002 90.5801 38.413C90.199 38.5269 87.4377 39.5043 86.151 40.1996C85.7885 40.3955 85.3383 40.222 85.2037 39.8325C84.4606 37.6816 82.8349 34.1515 79.9884 33.338C75.8262 32.1479 39.6366 30.3983 39.6366 30.3983C39.6366 30.3983 19.8134 26.9882 17.2033 38.6768C17.2018 38.6839 16.8442 38.1202 16.4273 37.8211C16.3327 37.7541 16.2368 37.6891 16.1451 37.6285C15.8968 37.4648 15.6767 37.3357 15.5822 37.2849C13.0031 35.8867 9.98862 36.468 7.47298 37.7047C5.06596 38.8891 1.74757 40.851 0.844559 43.5317C0.706909 43.9389 -0.156601 49.0506 0.0254593 49.0506Z" fill="#E6E6E6"/>
<path d="M140.763 37.7246H145.319" stroke="#898D94" stroke-miterlimit="10"/>
<path d="M116.579 62.7681L116.286 62.33L113.322 57.8899" stroke="#898D94" stroke-miterlimit="10"/>
<path opacity="0.76" d="M139.77 37.5249C139.718 37.4311 139.661 37.3316 139.597 37.2265C138.246 34.9649 134.263 30.1678 124.256 28.6242C119.796 27.9364 115.336 27.2493 110.862 26.6574C106.399 26.0677 102.149 25.4794 97.6625 25.5964C97.5094 25.6 97.3563 25.6049 97.2033 25.6105C92.3195 25.7904 84.9105 25.7154 80.0387 26.0949C87.1772 26.8364 96.8457 27.9322 103.985 28.6729C107.441 29.032 110.908 29.391 114.308 30.1275C115.91 30.4739 117.49 30.9091 119.035 31.4566C120.08 31.8269 121.314 32.2531 122.109 33.1243C122.755 33.8318 122.998 34.7757 123.235 35.6998C123.26 35.7986 123.285 35.8966 123.311 35.994" fill="url(#paint7_linear_476_2462)"/>
<path d="M79.2786 30.2806C79.3759 30.2806 79.4726 30.2813 79.5692 30.282C93.0631 30.3625 106.433 32.3737 119.795 34.0675C120.011 34.095 120.111 34.0632 120.129 33.9913C120.327 33.1786 117.701 32.1324 117.183 31.9603C115.277 31.3275 113.326 30.8422 111.354 30.4648C107.414 29.7092 103.409 29.3805 99.4192 29.0151C93.092 28.4359 86.7648 27.8518 80.4341 27.3015C80.336 27.2931 80.2379 27.2846 80.1399 27.2761C79.9043 27.9279 79.6038 28.8957 79.2786 30.2806Z" fill="url(#paint8_linear_476_2462)"/>
<path d="M109.514 48.5645C113.417 55.0356 114.31 62.768 114.31 62.768H116.99L117.677 63.6258L119.742 56.6306C119.742 56.6306 119.177 55.0081 138.507 56.7717C138.507 56.7717 144.715 57.1244 145.843 59.2408L147.704 60.6214L147.889 60.44L182.315 59.7346L182.619 60.4302L185.726 56.9876L185.84 56.0105L186.266 55.5725V50.07L183.726 46.7544V46.3325L179.634 52.1863L145.843 52.6801C145.843 52.6801 144.926 49.6467 115.65 49.7878C115.65 49.7878 120.165 46.19 143.727 46.7544H145.208L145.455 37.5482H140.799L135.544 42.8039L118.401 42.2395L109.514 48.5645Z" fill="#E6E6E6"/>
<path d="M146.302 61.6746C146.302 61.6746 118.554 60.509 118.349 60.5004C118.129 60.4911 118.655 58.5469 118.699 58.3906C118.953 57.4903 119.257 56.8148 119.958 56.4185C120.555 56.0806 121.219 56.0319 121.868 56.0038C126.055 55.8225 130.241 56.192 134.412 56.6353C136.658 56.874 138.925 56.8532 141.151 57.3673C142.84 57.7574 146.302 58.6653 146.302 61.6746Z" fill="url(#paint9_linear_476_2462)"/>
<path d="M27.631 55.4906L30.7138 58.9586L72.7587 62.2037L76.3389 58.8747L70.9238 52.5426C69.8417 51.2777 68.2946 50.5031 66.6326 50.3959L36.471 48.446C35.1045 48.3578 33.7705 48.8883 32.8386 49.8908L27.631 55.4906Z" fill="url(#paint10_linear_476_2462)"/>
<path d="M109.512 34.1268L114.091 40.4597C114.273 40.7115 114.47 40.9492 114.681 41.1729C115.177 41.7027 115.749 42.1507 116.373 42.5041C117.36 43.0663 118.478 43.3944 119.642 43.4423L135.777 44.1104C136.35 44.1337 136.913 43.9383 137.343 43.5573C138.357 42.6578 140.16 40.6156 140.799 37.6188C140.799 37.6188 126.544 36.1854 116.831 35.0405H116.83C115.63 34.8987 114.499 34.7632 113.471 34.637C111.843 34.4379 110.476 34.263 109.512 34.1268Z" fill="#333333"/>
<path d="M119.329 39.0752L117.008 41.344C117.441 41.806 117.939 42.1967 118.483 42.5048L120.744 40.2441L137.324 41.3137C137.64 41.3341 137.907 41.0833 137.907 40.7665V40.5543C137.907 40.2732 137.695 40.0377 137.415 40.0088L121.174 38.337L118.883 35.9962H118.882C117.836 35.8726 116.849 35.7544 115.953 35.6443L119.329 39.0752Z" fill="#F3F8FF"/>
<path d="M141.252 37.6541H146.337V37.3719H141.264C140.711 37.3245 112.455 34.8899 109.554 33.9921C106.61 33.0807 80.5094 31.1745 79.3998 31.0938L79.3793 31.3752C79.6508 31.3949 106.557 33.3597 109.471 34.2616C112.414 35.1727 140.07 37.5527 141.246 37.6535L141.252 37.6541Z" fill="#B3B3B3"/>
<path d="M179.9 36.8388C177.17 36.6051 162.161 35.4594 146.603 37.0259C146.054 37.0812 145.555 37.3739 145.243 37.8292C144.903 38.326 144.574 39.1059 144.574 40.2641V46.0334C144.574 46.3526 144.729 46.652 144.99 46.8359L150.486 50.7081C150.678 50.8437 150.908 50.9164 151.143 50.9164H177.515C177.945 50.9164 178.335 50.6617 178.508 50.2674L180.481 45.7666C180.481 45.7666 181.869 39.6099 180.682 37.3464C180.528 37.0539 180.229 36.8669 179.9 36.8388Z" fill="black"/>
<path d="M76.8312 58.4825L77.1134 58.4868C77.3038 44.9689 78.3233 36.507 79.1451 32.2616C79.2883 31.5216 79.4308 30.8641 79.5691 30.2821C79.8978 28.8924 80.2012 27.9329 80.434 27.3016C80.7063 26.5609 80.8812 26.2703 80.8848 26.2646L80.6449 26.1165C80.628 26.1432 80.434 26.4656 80.1398 27.2762C79.9042 27.928 79.6037 28.8959 79.2785 30.2807C79.1452 30.85 79.0076 31.4905 78.8687 32.208C78.0447 36.4646 77.0218 44.9441 76.8312 58.4825Z" fill="#B3B3B3"/>
<path d="M16.1458 27.6719V40.1774C16.241 40.2317 16.3356 40.2882 16.4279 40.3474V27.6867C16.9979 25.0278 22.147 14.0863 22.1992 13.9755L21.9438 13.8556C21.7308 14.3085 16.7102 24.9763 16.1486 27.6429L16.1458 27.6719Z" fill="#B3B3B3"/>
<path opacity="0.78" d="M22.9883 31.8341C20.8649 31.8341 19.1435 31.2814 19.1435 30.5996C19.1435 29.9177 20.8649 29.365 22.9883 29.365C25.1117 29.365 26.833 29.9177 26.833 30.5996C26.833 31.2814 25.1117 31.8341 22.9883 31.8341Z" fill="#D6D6D6"/>
<path d="M26.6562 30.8464C26.6562 30.8464 24.8498 29.2703 19.513 30.1733C19.4423 30.1853 19.3901 30.2469 19.3901 30.3186V30.5929C19.3901 30.733 19.5037 30.8464 19.6436 30.8464H26.6562Z" fill="#F3F8FF"/>
<path opacity="0.78" d="M49.8301 33.5274C47.7067 33.5274 45.9853 32.9746 45.9853 32.2928C45.9853 31.611 47.7067 31.0582 49.8301 31.0582C51.9535 31.0582 53.6748 31.611 53.6748 32.2928C53.6748 32.9746 51.9535 33.5274 49.8301 33.5274Z" fill="#D6D6D6"/>
<path d="M53.4648 32.6101C53.4648 32.6101 51.6858 30.7625 46.4427 31.7849C46.3013 31.8125 46.1987 31.9356 46.1987 32.0796V32.222C46.1987 32.4363 46.3724 32.6101 46.5868 32.6101H53.4648Z" fill="#F3F8FF"/>
<path opacity="0.49" d="M24.5999 27.3753C24.6416 26.5391 35.9702 26.424 49.9031 27.1178C63.8361 27.8118 75.0972 29.0521 75.0555 29.8882C75.0139 30.7242 63.6853 30.8395 49.7523 30.1455C35.8194 29.4518 24.5583 28.2114 24.5999 27.3753Z" fill="white"/>
<path d="M114.414 40.8704L114.532 41.0459L107.533 45.7583L107.415 45.5828L114.414 40.8704Z" fill="#B3B3B3"/>
<path d="M113.427 69.5072C113.507 69.7195 113.588 69.9206 113.669 70.1104C114.886 72.9787 116.073 73.4203 116.073 73.4203L133.709 74.2669H141.904C141.904 74.2669 177.644 71.7978 182.067 71.0923C183.781 70.8193 184.755 69.8789 185.307 68.83L141.333 69.6109L113.725 69.1877L113.427 69.5072Z" fill="#161616"/>
<path d="M79.9002 68.7337L76.9757 66.9131C75.9538 66.277 74.7715 65.8974 73.544 65.8114L33.2529 62.9871C31.3147 62.8512 29.4412 63.6657 28.3148 65.1339L27.9779 65.573C27.854 65.7344 27.9693 65.9591 28.1826 65.972L79.7758 69.0727C79.9797 69.0849 80.0699 68.8393 79.9002 68.7337Z" fill="url(#paint11_linear_476_2462)"/>
<path d="M119.925 62.5304C119.932 63.3028 120.456 64.0167 121.292 64.3159C121.606 64.4287 121.981 64.4922 122.422 64.4626C123.977 64.3568 131.672 64.4372 133.473 64.4583C133.716 64.4604 133.951 64.3857 134.132 64.2474L134.922 63.6471L138.946 60.5868C139.05 60.5071 139.051 60.3689 138.948 60.2884L138.758 60.1417L137.205 58.9396C136.948 58.7414 136.628 58.6123 136.285 58.5693C133.902 58.2709 124.161 57.1119 121.999 57.7954C120.116 58.3908 119.915 61.2196 119.925 62.5304Z" fill="#1A1A1A"/>
<path d="M123.497 59.6L123.515 62.0274L134.922 63.6471L138.946 60.5869C139.05 60.5072 139.051 60.369 138.948 60.2885L138.758 60.1418L138.682 60.1227L123.497 59.6Z" fill="#333333"/>
<path d="M134.9 63.7161L123.374 62.1947V59.5646L138.814 60.0745L138.815 60.0751L139.109 60.3244L139.109 60.325L123.657 59.8145V61.9893L135.172 63.5088H135.173L134.9 63.7161Z" fill="#141414"/>
<path d="M179.029 38.9539H179.986V39.3643H179.029V38.9539Z" fill="#333333"/>
<path d="M179.029 37.6542H179.986V38.0647H179.029V37.6542Z" fill="#333333"/>
<path d="M179.029 40.2537H179.986V40.7325H179.029V40.2537Z" fill="#333333"/>
<path d="M178.551 41.8956H179.509V42.3745H178.551V41.8956Z" fill="#333333"/>
<path d="M178.242 43.5718H179.2V44.0507H178.242V43.5718Z" fill="#333333"/>
<path d="M177.764 45.2136H178.722V45.6925H177.764V45.2136Z" fill="#333333"/>
<path d="M177.215 46.8556H178.173V47.3345H177.215V46.8556Z" fill="#333333"/>
<path d="M176.395 48.4976H177.353V48.9764H176.395V48.4976Z" fill="#333333"/>
<path d="M176.772 38.9539H177.729V39.3643H176.772V38.9539Z" fill="#333333"/>
<path d="M176.772 37.6539H177.729V38.0644H176.772V37.6539Z" fill="#333333"/>
<path d="M176.772 40.2537H177.729V40.7325H176.772V40.2537Z" fill="#333333"/>
<path d="M176.292 41.8956H177.25V42.3745H176.292V41.8956Z" fill="#333333"/>
<path d="M175.985 43.5718H176.942V44.0507H175.985V43.5718Z" fill="#333333"/>
<path d="M175.506 45.2136H176.464V45.6925H175.506V45.2136Z" fill="#333333"/>
<path d="M174.958 46.8556H175.916V47.3345H174.958V46.8556Z" fill="#333333"/>
<path d="M174.138 48.4976H175.096V48.9764H174.138V48.4976Z" fill="#333333"/>
<path d="M174.514 38.9539H175.472V39.3643H174.514V38.9539Z" fill="#333333"/>
<path d="M174.514 37.6541H175.472V38.0645H174.514V37.6541Z" fill="#333333"/>
<path d="M174.514 40.2537H175.472V40.7325H174.514V40.2537Z" fill="#333333"/>
<path d="M174.034 41.8956H174.992V42.3745H174.034V41.8956Z" fill="#333333"/>
<path d="M173.727 43.5718H174.685V44.0507H173.727V43.5718Z" fill="#333333"/>
<path d="M173.247 45.2136H174.205V45.6925H173.247V45.2136Z" fill="#333333"/>
<path d="M172.7 46.8556H173.658V47.3345H172.7V46.8556Z" fill="#333333"/>
<path d="M171.88 48.4976H172.838V48.9764H171.88V48.4976Z" fill="#333333"/>
<path d="M172.256 38.9539H173.214V39.3643H172.256V38.9539Z" fill="#333333"/>
<path d="M172.256 37.6541H173.214V38.0645H172.256V37.6541Z" fill="#333333"/>
<path d="M172.256 40.2537H173.214V40.7325H172.256V40.2537Z" fill="#333333"/>
<path d="M171.777 41.8956H172.734V42.3745H171.777V41.8956Z" fill="#333333"/>
<path d="M171.469 43.5718H172.427V44.0507H171.469V43.5718Z" fill="#333333"/>
<path d="M170.99 45.2136H171.948V45.6925H170.99V45.2136Z" fill="#333333"/>
<path d="M170.443 46.8556H171.4V47.3345H170.443V46.8556Z" fill="#333333"/>
<path d="M169.621 48.4976H170.579V48.9764H169.621V48.4976Z" fill="#333333"/>
<path d="M169.997 38.9539H170.955V39.3643H169.997V38.9539Z" fill="#333333"/>
<path d="M169.997 37.6541H170.955V38.0645H169.997V37.6541Z" fill="#333333"/>
<path d="M169.997 40.2537H170.955V40.7325H169.997V40.2537Z" fill="#333333"/>
<path d="M169.519 41.8956H170.477V42.3745H169.519V41.8956Z" fill="#333333"/>
<path d="M169.212 43.5718H170.17V44.0507H169.212V43.5718Z" fill="#333333"/>
<path d="M168.733 45.2136H169.69V45.6925H168.733V45.2136Z" fill="#333333"/>
<path d="M168.185 46.8556H169.143V47.3345H168.185V46.8556Z" fill="#333333"/>
<path d="M167.363 48.4976H168.321V48.9764H167.363V48.4976Z" fill="#333333"/>
<path d="M167.74 38.9539H168.698V39.3643H167.74V38.9539Z" fill="#333333"/>
<path d="M167.74 37.6541H168.698V38.0645H167.74V37.6541Z" fill="#333333"/>
<path d="M167.74 40.2537H168.698V40.7325H167.74V40.2537Z" fill="#333333"/>
<path d="M167.262 41.8956H168.22V42.3745H167.262V41.8956Z" fill="#333333"/>
<path d="M166.954 43.5718H167.912V44.0507H166.954V43.5718Z" fill="#333333"/>
<path d="M166.475 45.2136H167.433V45.6925H166.475V45.2136Z" fill="#333333"/>
<path d="M165.928 46.8556H166.886V47.3345H165.928V46.8556Z" fill="#333333"/>
<path d="M165.107 48.4976H166.064V48.9764H165.107V48.4976Z" fill="#333333"/>
<path d="M165.483 38.9539H166.44V39.3643H165.483V38.9539Z" fill="#333333"/>
<path d="M165.483 37.6541H166.44V38.0645H165.483V37.6541Z" fill="#333333"/>
<path d="M165.483 40.2537H166.44V40.7325H165.483V40.2537Z" fill="#333333"/>
<path d="M165.004 41.8956H165.962V42.3745H165.004V41.8956Z" fill="#333333"/>
<path d="M164.695 43.5718H165.653V44.0507H164.695V43.5718Z" fill="#333333"/>
<path d="M164.217 45.2136H165.175V45.6925H164.217V45.2136Z" fill="#333333"/>
<path d="M163.67 46.8556H164.628V47.3345H163.67V46.8556Z" fill="#333333"/>
<path d="M162.849 48.4976H163.807V48.9764H162.849V48.4976Z" fill="#333333"/>
<path d="M163.225 38.9539H164.183V39.3643H163.225V38.9539Z" fill="#333333"/>
<path d="M163.225 37.6541H164.183V38.0645H163.225V37.6541Z" fill="#333333"/>
<path d="M163.225 40.2537H164.183V40.7325H163.225V40.2537Z" fill="#333333"/>
<path d="M162.746 41.8956H163.704V42.3745H162.746V41.8956Z" fill="#333333"/>
<path d="M162.438 43.5718H163.396V44.0507H162.438V43.5718Z" fill="#333333"/>
<path d="M161.959 45.2136H162.917V45.6925H161.959V45.2136Z" fill="#333333"/>
<path d="M161.412 46.8556H162.37V47.3345H161.412V46.8556Z" fill="#333333"/>
<path d="M160.591 48.4976H161.549V48.9764H160.591V48.4976Z" fill="#333333"/>
<path d="M160.968 38.9539H161.926V39.3643H160.968V38.9539Z" fill="#333333"/>
<path d="M160.968 37.6539H161.926V38.0644H160.968V37.6539Z" fill="#333333"/>
<path d="M160.968 40.2537H161.926V40.7325H160.968V40.2537Z" fill="#333333"/>
<path d="M160.49 41.8956H161.447V42.3745H160.49V41.8956Z" fill="#333333"/>
<path d="M160.181 43.5718H161.139V44.0507H160.181V43.5718Z" fill="#333333"/>
<path d="M159.702 45.2136H160.66V45.6925H159.702V45.2136Z" fill="#333333"/>
<path d="M159.155 46.8556H160.113V47.3345H159.155V46.8556Z" fill="#333333"/>
<path d="M158.334 48.4976H159.292V48.9764H158.334V48.4976Z" fill="#333333"/>
<path d="M158.71 38.9539H159.668V39.3643H158.71V38.9539Z" fill="#333333"/>
<path d="M158.71 37.6541H159.668V38.0645H158.71V37.6541Z" fill="#333333"/>
<path d="M158.71 40.2537H159.668V40.7325H158.71V40.2537Z" fill="#333333"/>
<path d="M158.232 41.8956H159.189V42.3745H158.232V41.8956Z" fill="#333333"/>
<path d="M157.923 43.5718H158.881V44.0507H157.923V43.5718Z" fill="#333333"/>
<path d="M157.445 45.2136H158.402V45.6925H157.445V45.2136Z" fill="#333333"/>
<path d="M156.898 46.8556H157.855V47.3345H156.898V46.8556Z" fill="#333333"/>
<path d="M156.076 48.4976H157.034V48.9764H156.076V48.4976Z" fill="#333333"/>
<path d="M156.452 38.9539H157.41V39.3643H156.452V38.9539Z" fill="#333333"/>
<path d="M156.452 37.6541H157.41V38.0645H156.452V37.6541Z" fill="#333333"/>
<path d="M156.452 40.2537H157.41V40.7325H156.452V40.2537Z" fill="#333333"/>
<path d="M155.973 41.8956H156.931V42.3745H155.973V41.8956Z" fill="#333333"/>
<path d="M155.665 43.5718H156.623V44.0507H155.665V43.5718Z" fill="#333333"/>
<path d="M155.186 45.2136H156.144V45.6925H155.186V45.2136Z" fill="#333333"/>
<path d="M154.639 46.8556H155.597V47.3345H154.639V46.8556Z" fill="#333333"/>
<path d="M153.819 48.4976H154.776V48.9764H153.819V48.4976Z" fill="#333333"/>
<path d="M154.195 38.9539H155.152V39.3643H154.195V38.9539Z" fill="#333333"/>
<path d="M154.195 37.6541H155.152V38.0645H154.195V37.6541Z" fill="#333333"/>
<path d="M154.195 40.2537H155.152V40.7325H154.195V40.2537Z" fill="#333333"/>
<path d="M153.715 41.8956H154.673V42.3745H153.715V41.8956Z" fill="#333333"/>
<path d="M153.408 43.5718H154.366V44.0507H153.408V43.5718Z" fill="#333333"/>
<path d="M152.929 45.2136H153.887V45.6925H152.929V45.2136Z" fill="#333333"/>
<path d="M152.381 46.8556H153.339V47.3345H152.381V46.8556Z" fill="#333333"/>
<path d="M151.561 48.4976H152.519V48.9764H151.561V48.4976Z" fill="#333333"/>
<path d="M151.938 38.9539H152.896V39.3643H151.938V38.9539Z" fill="#333333"/>
<path d="M151.938 37.6541H152.896V38.0645H151.938V37.6541Z" fill="#333333"/>
<path d="M151.938 40.2537H152.896V40.7325H151.938V40.2537Z" fill="#333333"/>
<path d="M151.458 41.8956H152.416V42.3745H151.458V41.8956Z" fill="#333333"/>
<path d="M151.151 43.5718H152.108V44.0507H151.151V43.5718Z" fill="#333333"/>
<path d="M150.671 45.2136H151.629V45.6925H150.671V45.2136Z" fill="#333333"/>
<path d="M150.124 46.8556H151.082V47.3345H150.124V46.8556Z" fill="#333333"/>
<path d="M150.262 48.7596V48.4976H149.89L150.262 48.7596Z" fill="#333333"/>
<path d="M149.68 38.9539H150.638V39.3643H149.68V38.9539Z" fill="#333333"/>
<path d="M149.68 37.6541H150.638V38.0645H149.68V37.6541Z" fill="#333333"/>
<path d="M149.68 40.2537H150.638V40.7325H149.68V40.2537Z" fill="#333333"/>
<path d="M149.2 41.8956H150.158V42.3745H149.2V41.8956Z" fill="#333333"/>
<path d="M148.893 43.5718H149.851V44.0507H148.893V43.5718Z" fill="#333333"/>
<path d="M148.413 45.2136H149.371V45.6925H148.413V45.2136Z" fill="#333333"/>
<path d="M147.866 46.8556H148.824V47.3345H147.866V46.8556Z" fill="#333333"/>
<path d="M147.421 38.9539H148.379V39.3643H147.421V38.9539Z" fill="#333333"/>
<path d="M147.421 37.6541H148.379V38.0645H147.421V37.6541Z" fill="#333333"/>
<path d="M147.421 40.2537H148.379V40.7325H147.421V40.2537Z" fill="#333333"/>
<path d="M146.943 41.8956H147.9V42.3745H146.943V41.8956Z" fill="#333333"/>
<path d="M146.635 43.5718H147.593V44.0507H146.635V43.5718Z" fill="#333333"/>
<path d="M146.155 45.2136H147.113V45.6925H146.155V45.2136Z" fill="#333333"/>
<path d="M179.1 38.8129H180.058V39.2234H179.1V38.8129Z" fill="#1A1A1A"/>
<path d="M179.1 37.5129H180.058V37.9234H179.1V37.5129Z" fill="#1A1A1A"/>
<path d="M179.1 40.1127H180.058V40.5915H179.1V40.1127Z" fill="#1A1A1A"/>
<path d="M178.62 41.7546H179.578V42.2335H178.62V41.7546Z" fill="#1A1A1A"/>
<path d="M178.313 43.4307H179.271V43.9095H178.313V43.4307Z" fill="#1A1A1A"/>
<path d="M177.834 45.0726H178.792V45.5515H177.834V45.0726Z" fill="#1A1A1A"/>
<path d="M177.287 46.7146H178.245V47.1935H177.287V46.7146Z" fill="#1A1A1A"/>
<path d="M176.466 48.3566H177.424V48.8354H176.466V48.3566Z" fill="#1A1A1A"/>
<path d="M176.842 38.8129H177.8V39.2234H176.842V38.8129Z" fill="#1A1A1A"/>
<path d="M176.842 37.5129H177.8V37.9234H176.842V37.5129Z" fill="#1A1A1A"/>
<path d="M176.842 40.1127H177.8V40.5915H176.842V40.1127Z" fill="#1A1A1A"/>
<path d="M176.362 41.7546H177.32V42.2335H176.362V41.7546Z" fill="#1A1A1A"/>
<path d="M176.055 43.4308H177.013V43.9097H176.055V43.4308Z" fill="#1A1A1A"/>
<path d="M175.575 45.0728H176.533V45.5516H175.575V45.0728Z" fill="#1A1A1A"/>
<path d="M175.029 46.7146H175.986V47.1935H175.029V46.7146Z" fill="#1A1A1A"/>
<path d="M174.208 48.3567H175.166V48.8356H174.208V48.3567Z" fill="#1A1A1A"/>
<path d="M174.584 38.8129H175.542V39.2234H174.584V38.8129Z" fill="#1A1A1A"/>
<path d="M174.584 37.5129H175.542V37.9234H174.584V37.5129Z" fill="#1A1A1A"/>
<path d="M174.584 40.1127H175.542V40.5915H174.584V40.1127Z" fill="#1A1A1A"/>
<path d="M174.105 41.7546H175.062V42.2335H174.105V41.7546Z" fill="#1A1A1A"/>
<path d="M173.797 43.4308H174.755V43.9097H173.797V43.4308Z" fill="#1A1A1A"/>
<path d="M173.318 45.0728H174.275V45.5516H173.318V45.0728Z" fill="#1A1A1A"/>
<path d="M172.771 46.7146H173.729V47.1935H172.771V46.7146Z" fill="#1A1A1A"/>
<path d="M171.95 48.3567H172.908V48.8356H171.95V48.3567Z" fill="#1A1A1A"/>
<path d="M172.327 38.8129H173.285V39.2234H172.327V38.8129Z" fill="#1A1A1A"/>
<path d="M172.327 37.5129H173.285V37.9234H172.327V37.5129Z" fill="#1A1A1A"/>
<path d="M172.327 40.1127H173.285V40.5915H172.327V40.1127Z" fill="#1A1A1A"/>
<path d="M171.848 41.7546H172.806V42.2335H171.848V41.7546Z" fill="#1A1A1A"/>
<path d="M171.54 43.4308H172.498V43.9097H171.54V43.4308Z" fill="#1A1A1A"/>
<path d="M171.061 45.0728H172.019V45.5516H171.061V45.0728Z" fill="#1A1A1A"/>
<path d="M170.514 46.7146H171.472V47.1935H170.514V46.7146Z" fill="#1A1A1A"/>
<path d="M169.694 48.3567H170.651V48.8356H169.694V48.3567Z" fill="#1A1A1A"/>
<path d="M170.07 38.8129H171.027V39.2234H170.07V38.8129Z" fill="#1A1A1A"/>
<path d="M170.07 37.5129H171.027V37.9234H170.07V37.5129Z" fill="#1A1A1A"/>
<path d="M170.07 40.1127H171.027V40.5915H170.07V40.1127Z" fill="#1A1A1A"/>
<path d="M169.59 41.7546H170.548V42.2335H169.59V41.7546Z" fill="#1A1A1A"/>
<path d="M169.282 43.4308H170.24V43.9097H169.282V43.4308Z" fill="#1A1A1A"/>
<path d="M168.803 45.0728H169.761V45.5516H168.803V45.0728Z" fill="#1A1A1A"/>
<path d="M168.256 46.7146H169.214V47.1935H168.256V46.7146Z" fill="#1A1A1A"/>
<path d="M167.435 48.3567H168.393V48.8356H167.435V48.3567Z" fill="#1A1A1A"/>
<path d="M167.811 38.8129H168.769V39.2234H167.811V38.8129Z" fill="#1A1A1A"/>
<path d="M167.811 37.5129H168.769V37.9234H167.811V37.5129Z" fill="#1A1A1A"/>
<path d="M167.811 40.1127H168.769V40.5915H167.811V40.1127Z" fill="#1A1A1A"/>
<path d="M167.332 41.7546H168.29V42.2335H167.332V41.7546Z" fill="#1A1A1A"/>
<path d="M167.024 43.4308H167.981V43.9097H167.024V43.4308Z" fill="#1A1A1A"/>
<path d="M166.545 45.0728H167.503V45.5516H166.545V45.0728Z" fill="#1A1A1A"/>
<path d="M165.998 46.7146H166.956V47.1935H165.998V46.7146Z" fill="#1A1A1A"/>
<path d="M165.177 48.3567H166.135V48.8356H165.177V48.3567Z" fill="#1A1A1A"/>
<path d="M165.553 38.8129H166.511V39.2234H165.553V38.8129Z" fill="#1A1A1A"/>
<path d="M165.553 37.5129H166.511V37.9234H165.553V37.5129Z" fill="#1A1A1A"/>
<path d="M165.553 40.1127H166.511V40.5915H165.553V40.1127Z" fill="#1A1A1A"/>
<path d="M165.074 41.7546H166.032V42.2335H165.074V41.7546Z" fill="#1A1A1A"/>
<path d="M164.767 43.4308H165.725V43.9097H164.767V43.4308Z" fill="#1A1A1A"/>
<path d="M164.288 45.0728H165.246V45.5516H164.288V45.0728Z" fill="#1A1A1A"/>
<path d="M163.741 46.7146H164.699V47.1935H163.741V46.7146Z" fill="#1A1A1A"/>
<path d="M162.919 48.3567H163.877V48.8356H162.919V48.3567Z" fill="#1A1A1A"/>
<path d="M163.296 38.8129H164.254V39.2234H163.296V38.8129Z" fill="#1A1A1A"/>
<path d="M163.296 37.5129H164.254V37.9234H163.296V37.5129Z" fill="#1A1A1A"/>
<path d="M163.296 40.1127H164.254V40.5915H163.296V40.1127Z" fill="#1A1A1A"/>
<path d="M162.818 41.7546H163.775V42.2335H162.818V41.7546Z" fill="#1A1A1A"/>
<path d="M162.509 43.4308H163.467V43.9097H162.509V43.4308Z" fill="#1A1A1A"/>
<path d="M162.03 45.0728H162.988V45.5516H162.03V45.0728Z" fill="#1A1A1A"/>
<path d="M161.484 46.7146H162.441V47.1935H161.484V46.7146Z" fill="#1A1A1A"/>
<path d="M160.662 48.3567H161.62V48.8356H160.662V48.3567Z" fill="#1A1A1A"/>
<path d="M161.038 38.8129H161.996V39.2234H161.038V38.8129Z" fill="#1A1A1A"/>
<path d="M161.038 37.5129H161.996V37.9234H161.038V37.5129Z" fill="#1A1A1A"/>
<path d="M161.038 40.1127H161.996V40.5915H161.038V40.1127Z" fill="#1A1A1A"/>
<path d="M160.56 41.7546H161.518V42.2335H160.56V41.7546Z" fill="#1A1A1A"/>
<path d="M160.251 43.4308H161.209V43.9097H160.251V43.4308Z" fill="#1A1A1A"/>
<path d="M159.773 45.0728H160.73V45.5516H159.773V45.0728Z" fill="#1A1A1A"/>
<path d="M159.226 46.7146H160.184V47.1935H159.226V46.7146Z" fill="#1A1A1A"/>
<path d="M158.404 48.3567H159.362V48.8356H158.404V48.3567Z" fill="#1A1A1A"/>
<path d="M158.78 38.8129H159.738V39.2234H158.78V38.8129Z" fill="#1A1A1A"/>
<path d="M158.78 37.5129H159.738V37.9234H158.78V37.5129Z" fill="#1A1A1A"/>
<path d="M158.78 40.1127H159.738V40.5915H158.78V40.1127Z" fill="#1A1A1A"/>
<path d="M158.301 41.7546H159.259V42.2335H158.301V41.7546Z" fill="#1A1A1A"/>
<path d="M157.993 43.4308H158.951V43.9097H157.993V43.4308Z" fill="#1A1A1A"/>
<path d="M157.515 45.0728H158.473V45.5516H157.515V45.0728Z" fill="#1A1A1A"/>
<path d="M156.967 46.7146H157.925V47.1935H156.967V46.7146Z" fill="#1A1A1A"/>
<path d="M156.147 48.3567H157.104V48.8356H156.147V48.3567Z" fill="#1A1A1A"/>
<path d="M156.523 38.8129H157.48V39.2234H156.523V38.8129Z" fill="#1A1A1A"/>
<path d="M156.523 37.5129H157.48V37.9234H156.523V37.5129Z" fill="#1A1A1A"/>
<path d="M156.523 40.1127H157.48V40.5915H156.523V40.1127Z" fill="#1A1A1A"/>
<path d="M156.043 41.7546H157.001V42.2335H156.043V41.7546Z" fill="#1A1A1A"/>
<path d="M155.737 43.4308H156.694V43.9097H155.737V43.4308Z" fill="#1A1A1A"/>
<path d="M155.258 45.0728H156.216V45.5516H155.258V45.0728Z" fill="#1A1A1A"/>
<path d="M154.709 46.7146H155.667V47.1935H154.709V46.7146Z" fill="#1A1A1A"/>
<path d="M153.889 48.3567H154.847V48.8356H153.889V48.3567Z" fill="#1A1A1A"/>
<path d="M154.266 38.8129H155.224V39.2234H154.266V38.8129Z" fill="#1A1A1A"/>
<path d="M154.266 37.5129H155.224V37.9234H154.266V37.5129Z" fill="#1A1A1A"/>
<path d="M154.266 40.1127H155.224V40.5915H154.266V40.1127Z" fill="#1A1A1A"/>
<path d="M153.786 41.7546H154.744V42.2335H153.786V41.7546Z" fill="#1A1A1A"/>
<path d="M153.479 43.4308H154.437V43.9097H153.479V43.4308Z" fill="#1A1A1A"/>
<path d="M152.999 45.0728H153.957V45.5516H152.999V45.0728Z" fill="#1A1A1A"/>
<path d="M152.452 46.7146H153.41V47.1935H152.452V46.7146Z" fill="#1A1A1A"/>
<path d="M151.632 48.3567H152.59V48.8356H151.632V48.3567Z" fill="#1A1A1A"/>
<path d="M152.008 38.8129H152.966V39.2234H152.008V38.8129Z" fill="#1A1A1A"/>
<path d="M152.008 37.5129H152.966V37.9234H152.008V37.5129Z" fill="#1A1A1A"/>
<path d="M152.008 40.1127H152.966V40.5915H152.008V40.1127Z" fill="#1A1A1A"/>
<path d="M151.529 41.7546H152.486V42.2335H151.529V41.7546Z" fill="#1A1A1A"/>
<path d="M151.221 43.4308H152.179V43.9097H151.221V43.4308Z" fill="#1A1A1A"/>
<path d="M150.741 45.0728H151.699V45.5516H150.741V45.0728Z" fill="#1A1A1A"/>
<path d="M150.195 46.7146H151.152V47.1935H150.195V46.7146Z" fill="#1A1A1A"/>
<path d="M150.331 48.6187V48.3567H149.959L150.331 48.6187Z" fill="#1A1A1A"/>
<path d="M149.749 38.8129H150.707V39.2234H149.749V38.8129Z" fill="#1A1A1A"/>
<path d="M149.749 37.5129H150.707V37.9234H149.749V37.5129Z" fill="#1A1A1A"/>
<path d="M149.749 40.1127H150.707V40.5915H149.749V40.1127Z" fill="#1A1A1A"/>
<path d="M149.271 41.7546H150.229V42.2335H149.271V41.7546Z" fill="#1A1A1A"/>
<path d="M148.963 43.4307H149.921V43.9095H148.963V43.4307Z" fill="#1A1A1A"/>
<path d="M148.484 45.0726H149.441V45.5515H148.484V45.0726Z" fill="#1A1A1A"/>
<path d="M147.937 46.7146H148.895V47.1935H147.937V46.7146Z" fill="#1A1A1A"/>
<path d="M147.491 38.8129H148.449V39.2234H147.491V38.8129Z" fill="#1A1A1A"/>
<path d="M147.491 37.5131H148.449V37.9235H147.491V37.5131Z" fill="#1A1A1A"/>
<path d="M147.491 40.1127H148.449V40.5915H147.491V40.1127Z" fill="#1A1A1A"/>
<path d="M147.013 41.7546H147.971V42.2335H147.013V41.7546Z" fill="#1A1A1A"/>
<path d="M146.706 43.4308H147.664V43.9097H146.706V43.4308Z" fill="#1A1A1A"/>
<path d="M146.227 45.0728H147.185V45.5516H146.227V45.0728Z" fill="#1A1A1A"/>
<path d="M146.468 65.9387L182.089 65.2654L182.105 66.1085L146.484 66.7819L146.468 65.9387Z" fill="#161616"/>
<path d="M146.468 63.9572L182.089 63.2838L182.105 64.1269L146.484 64.8003L146.468 63.9572Z" fill="#161616"/>
<path d="M179.609 63.6199H180.536V65.7702H179.609V63.6199Z" fill="#161616"/>
<path d="M176.952 61.3853H177.88V63.5355H176.952V61.3853Z" fill="#161616"/>
<path d="M171.261 61.6382H172.188V63.7885H171.261V61.6382Z" fill="#161616"/>
<path d="M165.695 61.6382H166.623V63.7885H165.695V61.6382Z" fill="#161616"/>
<path d="M160.425 61.8911H161.353V64.0414H160.425V61.8911Z" fill="#161616"/>
<path d="M155.155 62.0177H156.083V64.168H155.155V62.0177Z" fill="#161616"/>
<path d="M150.011 62.0177H150.938V64.168H150.011V62.0177Z" fill="#161616"/>
<path d="M174.043 63.6199H174.971V65.7702H174.043V63.6199Z" fill="#161616"/>
<path d="M168.479 63.6199H169.406V65.7702H168.479V63.6199Z" fill="#161616"/>
<path d="M162.913 63.6199H163.841V65.7702H162.913V63.6199Z" fill="#161616"/>
<path d="M157.811 64.0415H158.738V66.1918H157.811V64.0415Z" fill="#161616"/>
<path d="M152.54 64.0415H153.468V66.1918H152.54V64.0415Z" fill="#161616"/>
<path d="M147.523 64.0415H148.45V66.1918H147.523V64.0415Z" fill="#161616"/>
<path d="M43.3761 59.9469H43.6582C43.6582 58.3619 44.5249 55.5113 44.5675 55.3724C45.4195 53.2198 45.119 51.4569 44.7166 50.3566C44.3357 49.315 43.8059 48.6671 43.6582 48.499V29.9599L46.0273 24.7359L45.7704 24.6194L43.376 29.8989V48.6094L43.4146 48.6503C43.4208 48.6568 44.0401 49.3212 44.456 50.4657C44.8385 51.5184 45.1225 53.2071 44.303 55.2737L44.2993 55.284C44.2618 55.4058 43.3761 58.2874 43.3761 59.9469Z" fill="#B3B3B3"/>
<path d="M72.3647 26.7696C72.3647 26.7696 74.8523 25.842 74.9788 27.655C75.1053 29.468 70.5939 31.1123 69.2447 28.6247C67.8954 26.1371 72.3647 26.7696 72.3647 26.7696Z" fill="#E6E6E6"/>
<path d="M65.7033 24.4622L69.3011 28.5538C69.3011 28.5538 71.9818 29.1182 72.7578 26.8607L70.5004 23.8273L65.7033 24.4622Z" fill="url(#paint12_linear_476_2462)"/>
<path d="M66.0559 24.6738C64.1441 24.6738 62.2323 24.673 60.3204 24.6776C60.1607 24.678 59.9973 24.6777 59.8467 24.6243C58.8106 24.2562 58.538 22.5852 58.6848 21.6696C58.8685 20.5236 59.5261 19.4735 60.2712 18.6068C61.7723 16.8607 64.0926 16.0471 66.3563 16.0799C68.3997 16.1095 71.2944 16.8933 72.527 18.6995C73.0541 19.4719 73.0591 20.6804 73.0633 21.5829C73.0667 22.3127 73.0956 23.4279 72.4481 23.9335C72.2587 24.0814 72.0203 24.1496 71.7864 24.2046C69.9514 24.6363 67.9364 24.6738 66.0559 24.6738Z" fill="url(#paint13_linear_476_2462)"/>
<defs>
<linearGradient id="paint0_linear_476_2462" x1="99.4368" y1="28.8541" x2="105.119" y2="12.5834" gradientUnits="userSpaceOnUse">
<stop stop-color="#8E8E8E"/>
<stop offset="1" stop-color="#333333"/>
</linearGradient>
<linearGradient id="paint1_linear_476_2462" x1="7.5963" y1="26.9748" x2="2.51706" y2="31.2793" gradientUnits="userSpaceOnUse">
<stop stop-color="#AA2922"/>
<stop offset="1" stop-color="#6A080B"/>
</linearGradient>
<linearGradient id="paint2_linear_476_2462" x1="67.1951" y1="-3.64295" x2="65.6455" y2="17.2767" gradientUnits="userSpaceOnUse">
<stop stop-color="#8E8E8E"/>
<stop offset="0.1794" stop-color="#858585"/>
<stop offset="0.4658" stop-color="#6E6E6E"/>
<stop offset="0.8215" stop-color="#494949"/>
<stop offset="1" stop-color="#333333"/>
</linearGradient>
<linearGradient id="paint3_linear_476_2462" x1="40.8983" y1="1.08043" x2="39.9943" y2="15.156" gradientUnits="userSpaceOnUse">
<stop stop-color="#8E8E8E"/>
<stop offset="0.1794" stop-color="#858585"/>
<stop offset="0.4658" stop-color="#6E6E6E"/>
<stop offset="0.8215" stop-color="#494949"/>
<stop offset="1" stop-color="#333333"/>
</linearGradient>
<linearGradient id="paint4_linear_476_2462" x1="33.7428" y1="0.54318" x2="27.9318" y2="14.2313" gradientUnits="userSpaceOnUse">
<stop stop-color="#8E8E8E"/>
<stop offset="0.1794" stop-color="#858585"/>
<stop offset="0.4658" stop-color="#6E6E6E"/>
<stop offset="0.8215" stop-color="#494949"/>
<stop offset="1" stop-color="#333333"/>
</linearGradient>
<radialGradient id="paint5_radial_476_2462" cx="0" cy="0" r="1" gradientUnits="userSpaceOnUse" gradientTransform="translate(96.391 67.3535) rotate(180) scale(14.6791 20.106)">
<stop offset="0.7947" stop-color="#191919"/>
<stop offset="0.8325" stop-color="#282828"/>
<stop offset="0.9003" stop-color="#404040"/>
<stop offset="0.9545" stop-color="#191919"/>
</radialGradient>
<radialGradient id="paint6_radial_476_2462" cx="0" cy="0" r="1" gradientUnits="userSpaceOnUse" gradientTransform="translate(12.3268 63.2817) rotate(180) scale(9.77628 17.4976)">
<stop offset="0.7947" stop-color="#191919"/>
<stop offset="0.8325" stop-color="#282828"/>
<stop offset="0.9003" stop-color="#404040"/>
<stop offset="0.9545" stop-color="#191919"/>
</radialGradient>
<linearGradient id="paint7_linear_476_2462" x1="88.8176" y1="25.3217" x2="142.911" y2="36.1045" gradientUnits="userSpaceOnUse">
<stop offset="0.1043" stop-color="#CCCCCC"/>
<stop offset="0.2902" stop-color="#D7D7D7"/>
<stop offset="0.713" stop-color="#EBEBEB"/>
<stop offset="1" stop-color="#F2F2F2"/>
</linearGradient>
<linearGradient id="paint8_linear_476_2462" x1="100.054" y1="27.613" x2="99.7098" y2="32.0896" gradientUnits="userSpaceOnUse">
<stop offset="0.1043" stop-color="#CCCCCC"/>
<stop offset="0.2902" stop-color="#D7D7D7"/>
<stop offset="0.713" stop-color="#EBEBEB"/>
<stop offset="1" stop-color="#F2F2F2"/>
</linearGradient>
<linearGradient id="paint9_linear_476_2462" x1="132.508" y1="54.6056" x2="132.264" y2="62.0659" gradientUnits="userSpaceOnUse">
<stop offset="0.1043" stop-color="#CCCCCC"/>
<stop offset="1" stop-color="#F2F2F2"/>
</linearGradient>
<linearGradient id="paint10_linear_476_2462" x1="52.6466" y1="46.9261" x2="51.8718" y2="58.9355" gradientUnits="userSpaceOnUse">
<stop offset="0.1043" stop-color="#CCCCCC"/>
<stop offset="0.2902" stop-color="#D7D7D7"/>
<stop offset="0.713" stop-color="#EBEBEB"/>
<stop offset="1" stop-color="#F2F2F2"/>
</linearGradient>
<linearGradient id="paint11_linear_476_2462" x1="53.7274" y1="69.2905" x2="54.5579" y2="62.1259" gradientUnits="userSpaceOnUse">
<stop offset="0.2161" stop-color="#404040"/>
<stop offset="0.4674" stop-color="#2D2D2D"/>
<stop offset="0.7609" stop-color="#1E1E1E"/>
<stop offset="1" stop-color="#191919"/>
</linearGradient>
<linearGradient id="paint12_linear_476_2462" x1="72.7578" y1="26.2219" x2="65.7033" y2="26.2219" gradientUnits="userSpaceOnUse">
<stop offset="0.3528" stop-color="#161616"/>
<stop offset="0.9604" stop-color="#161616"/>
<stop offset="1" stop-color="#161616"/>
</linearGradient>
<linearGradient id="paint13_linear_476_2462" x1="66.0867" y1="13.926" x2="65.893" y2="20.77" gradientUnits="userSpaceOnUse">
<stop offset="0.3528" stop-color="#161616"/>
<stop offset="0.484" stop-color="#191919"/>
<stop offset="0.8367" stop-color="#4D4D4D"/>
<stop offset="0.8993" stop-color="#313131"/>
<stop offset="0.9594" stop-color="#1D1D1D"/>
<stop offset="1" stop-color="#161616"/>
</linearGradient>
</defs>
</svg>
