<svg xmlns="http://www.w3.org/2000/svg" width="164" height="165" fill="none" viewBox="0 0 164 165">
    <path stroke="#D3D3D3" stroke-linecap="round" stroke-linejoin="round" stroke-width=".973" d="M81.762 16.58c8.217 0 14.879-2.23 14.879-4.98 0-2.75-6.662-4.979-14.88-4.979-8.217 0-14.878 2.23-14.878 4.98 0 2.75 6.661 4.978 14.879 4.978zM96.64 23.12c0 2.749-6.62 4.979-14.878 4.979s-14.88-2.23-14.88-4.98M96.64 34.713c0 2.75-6.62 4.979-14.878 4.979s-14.88-2.23-14.88-4.98"/>
    <path stroke="#D3D3D3" stroke-linecap="round" stroke-linejoin="round" stroke-width=".973" d="M66.957 11.6v33.888c0 2.75 6.621 4.98 14.879 4.98s14.879-2.23 14.879-4.98V11.601M30.301 119.325c8.218 0 14.88-2.23 14.88-4.979 0-2.75-6.662-4.98-14.88-4.98-8.217 0-14.879 2.23-14.879 4.98 0 2.749 6.662 4.979 14.88 4.979zM45.18 125.865c0 2.749-6.62 4.979-14.879 4.979-8.258 0-14.879-2.23-14.879-4.979M45.18 137.458c0 2.749-6.62 4.979-14.879 4.979-8.258 0-14.879-2.23-14.879-4.979"/>
    <path stroke="#D3D3D3" stroke-linecap="round" stroke-linejoin="round" stroke-width=".973" d="M15.497 114.346v33.887c0 2.75 6.62 4.98 14.879 4.98 8.258 0 14.879-2.23 14.879-4.98v-33.887M133.047 119.325c8.217 0 14.879-2.23 14.879-4.979 0-2.75-6.662-4.98-14.879-4.98-8.218 0-14.88 2.23-14.88 4.98 0 2.749 6.662 4.979 14.88 4.979zM147.926 125.865c0 2.749-6.622 4.979-14.879 4.979-8.258 0-14.88-2.23-14.88-4.979M147.926 137.458c0 2.749-6.622 4.979-14.879 4.979-8.258 0-14.88-2.23-14.88-4.979"/>
    <path stroke="#D3D3D3" stroke-linecap="round" stroke-linejoin="round" stroke-width=".973" d="M118.242 114.346v33.887c0 2.75 6.621 4.98 14.879 4.98s14.879-2.23 14.879-4.98v-33.887M81.982 50.385v39.517l-36.663 23.933M118.644 113.835L81.982 89.902"/>
    <rect width="71.26" height="46.421" x="46.407" y="59.058" fill="#fff" stroke="#000" rx="3.5"/>
    <g clip-path="url(#clip0)">
        <path fill="#D3D3D3" fill-rule="evenodd" d="M83.395 89.173c0 .28-.058.532-.175.752-.116.22-.276.404-.48.552-.204.148-.444.26-.721.336-.277.075-.58.113-.907.113-.277 0-.577-.03-.9-.092-.325-.061-.607-.143-.848-.244l.22-1.053c.232.094.472.168.72.223.248.054.498.081.754.081.247 0 .453-.036.617-.108.164-.073.245-.203.245-.39 0-.167-.08-.289-.24-.365-.16-.075-.371-.168-.633-.276-.212-.087-.415-.176-.612-.266-.197-.09-.37-.199-.519-.326-.149-.126-.27-.274-.36-.445-.091-.17-.137-.381-.137-.634 0-.275.053-.514.158-.716.106-.203.252-.37.437-.5.186-.13.404-.228.656-.293.251-.065.522-.097.814-.097.306 0 .599.027.88.082.28.055.55.152.813.29l-.23 1.06c-.21-.094-.431-.171-.66-.233-.23-.062-.461-.092-.694-.092-.211 0-.38.023-.508.07-.127.047-.191.146-.191.297 0 .145.076.253.23.325.152.073.334.156.545.25l.53.221c.2.083.388.19.563.32.175.13.324.287.448.47.123.185.185.413.185.688zm-7.504-2.598c-.204 0-.386.03-.546.092-.16.062-.31.151-.449.267v2.755c.088.043.194.076.317.098.124.022.259.032.405.032.262 0 .486-.041.672-.125.185-.083.336-.199.453-.349.116-.148.202-.324.256-.527.055-.203.083-.425.083-.665 0-.464-.097-.843-.29-1.137-.193-.294-.493-.44-.901-.44zm-2.49-3.418h1.495v2.81c.16-.159.354-.289.58-.39.225-.101.502-.152.83-.152.35 0 .664.067.945.2.28.135.519.32.715.56.197.238.348.524.454.857.105.332.158.694.158 1.084 0 .406-.062.78-.186 1.124-.124.344-.31.64-.557.89-.248.25-.559.442-.933.58-.376.137-.811.206-1.306.206-.408 0-.797-.043-1.17-.13-.37-.087-.713-.203-1.026-.347v-7.292zm-3.923 6.76c.212 0 .409-.036.59-.108.182-.072.343-.163.481-.272v-.836c-.153.016-.317.03-.491.044-.175.015-.336.032-.481.054-.219.037-.394.097-.525.18-.13.083-.196.222-.196.417 0 .174.056.304.17.39.112.088.263.131.452.131zm1.126.336c-.197.189-.433.347-.71.478-.277.13-.597.195-.961.195-.234 0-.445-.038-.634-.114-.19-.076-.35-.18-.48-.314-.132-.134-.234-.292-.307-.473-.073-.18-.109-.38-.109-.596 0-.485.164-.854.492-1.107.327-.253.776-.398 1.343-.434.219-.014.444-.025.678-.033l.633-.021v-.184c0-.341-.083-.6-.251-.777-.168-.177-.43-.265-.787-.265-.277 0-.538.032-.786.097s-.466.148-.656.25l-.295-1.042c.277-.16.583-.28.918-.363.335-.084.696-.125 1.082-.125.706 0 1.261.191 1.665.575.405.383.606.951.606 1.704v3.114h-1.441v-.565zm-4.752-.965c0 .166.035.29.104.374.069.084.187.125.355.125.065 0 .134-.003.207-.01.073-.008.142-.019.208-.033l.055 1.041c-.125.036-.277.067-.46.093-.181.024-.36.037-.535.037-.27 0-.495-.041-.677-.125-.182-.083-.33-.195-.442-.336-.113-.14-.193-.3-.24-.477-.048-.177-.072-.36-.072-.548v-6.272h1.497v6.13zm29.108-13.65h1.492V74.27h1.497v1.367h1.595v1.161H97.95v2.268c0 .246.046.442.137.586.09.145.271.217.54.217.285 0 .554-.04.809-.12l.11 1.054c-.162.065-.362.119-.602.162-.24.044-.48.065-.721.065-.32 0-.591-.049-.814-.146-.222-.098-.404-.234-.546-.407-.142-.174-.245-.377-.311-.608-.066-.231-.099-.485-.099-.76V76.8h-2.11l.618-1.162zm-4.7 5.284V73.26h1.495v4.861l1.77-2.485h1.66l-1.89 2.605 2.153 2.68h-1.781l-1.912-2.572v2.572H90.26zm-3.354-4.395c-.306 0-.54.107-.705.32-.164.213-.26.483-.29.809h1.825c.036-.34-.015-.613-.153-.82-.139-.206-.364-.309-.677-.309zm.087-.998c.35 0 .66.054.934.162.273.109.5.263.683.462.181.199.32.438.415.716.094.278.142.591.142.939 0 .144-.01.29-.028.44-.018.147-.045.283-.081.406H85.9c.015.387.134.696.36.925.226.23.586.344 1.082.344.284 0 .56-.026.83-.078.27-.053.51-.128.72-.225l.187 1.009c-.262.13-.561.23-.896.298-.335.069-.68.103-1.038.103-.444 0-.837-.065-1.18-.195-.342-.13-.631-.315-.868-.554-.237-.238-.417-.526-.541-.863-.124-.336-.186-.706-.186-1.112 0-.411.06-.79.18-1.133.12-.344.294-.637.52-.88.226-.242.5-.43.824-.564.325-.133.69-.2 1.098-.2zm-6.019 1.16c-.24 0-.45.052-.628.153-.179.101-.319.213-.42.336v2.615c.093.036.203.063.327.082.124.018.255.027.393.027.51 0 .881-.156 1.115-.467.232-.311.35-.712.35-1.204 0-.441-.094-.808-.28-1.102-.185-.293-.471-.44-.857-.44zm-2.546-1.052h1.431v.673c.176-.239.395-.428.656-.57.262-.14.582-.211.961-.211.32 0 .612.065.874.196.263.129.486.312.672.547.186.235.33.517.431.846.103.33.153.697.153 1.102 0 .455-.073.859-.218 1.21-.146.35-.342.645-.59.884-.248.239-.537.418-.868.537-.332.12-.687.18-1.065.18-.197 0-.372-.014-.525-.039-.153-.025-.291-.056-.415-.092v2.257h-1.496v-7.52zm-1.016 3.64c0 .281-.058.532-.174.752-.117.22-.276.404-.48.552-.205.148-.445.26-.722.335-.277.076-.579.114-.906.114-.277 0-.578-.03-.901-.092-.325-.062-.606-.143-.847-.244l.219-1.053c.233.094.472.169.72.222.248.055.5.082.754.082.248 0 .453-.036.617-.109.164-.072.246-.202.246-.39 0-.166-.08-.288-.24-.364-.16-.075-.372-.168-.634-.276-.211-.087-.415-.175-.612-.266-.196-.09-.37-.199-.518-.326-.15-.126-.27-.275-.36-.445-.092-.17-.137-.381-.137-.634 0-.275.052-.514.158-.717.105-.202.251-.368.437-.498s.404-.229.656-.294c.25-.065.522-.097.813-.097.306 0 .6.027.88.082.28.055.551.152.813.29l-.23 1.06c-.21-.094-.43-.172-.66-.233-.23-.061-.46-.093-.693-.093-.212 0-.381.024-.509.071-.127.047-.19.146-.19.297 0 .145.076.253.229.325.152.072.335.156.546.25l.53.221c.2.083.387.19.562.32.175.13.324.286.448.47s.185.414.185.688zm-9.994 1.645v-5.284h1.441v.715c.176-.282.398-.49.667-.624.27-.133.564-.2.885-.2.342 0 .635.072.879.217.244.144.442.338.595.58.153.243.266.525.339.847.073.322.11.656.11 1.004v2.745h-1.497v-2.756c0-.478-.075-.84-.224-1.085-.15-.246-.395-.37-.737-.37-.219 0-.409.051-.569.153-.16.1-.29.22-.393.358v3.7h-1.496zm-3.059 0h1.53v-7.227h-1.53v7.227zM59.456 68.954v8.479l1.26-1.252v-5.975h6.015l1.26-1.252h-8.535zM103.182 88.555v5.974h-6.015l-1.26 1.252h8.535v-8.478l-1.26 1.252z" clip-rule="evenodd"/>
    </g>
    <defs>
        <clipPath id="clip0">
            <path fill="#fff" d="M0 0H45.163V27.098H0z" transform="translate(59.4559 68.72)"/>
        </clipPath>
    </defs>
</svg>
