<svg width="100" height="100" viewBox="0 0 100 100" fill="none" xmlns="http://www.w3.org/2000/svg">
<g clip-path="url(#clip0)">
<path d="M38.6717 51.6338C38.6717 51.6338 39.9235 58.9138 37.42 58.9138C34.9165 58.9138 23.6509 64.5621 23.6509 64.5621" stroke="#212121" stroke-width="2"/>
<path d="M68.4632 21.5724C69.7149 15.9241 66.8985 4.31378 50 4.31378C33.1015 4.31378 30.2851 15.9241 31.5369 21.5724" stroke="#212121" stroke-width="2"/>
<path d="M49.9999 26.5931C58.1362 26.5931 64.3949 29.4172 66.2725 30.0448C68.1502 30.6724 69.7148 26.5931 70.9666 23.4552C70.9666 23.4552 64.7079 18.4345 49.9999 18.7483C35.292 18.4345 29.0333 23.4552 29.0333 23.4552C30.2851 26.5931 31.8497 30.6724 33.7273 30.0448C35.605 29.4172 41.8636 26.5931 49.9999 26.5931Z" stroke="#212121" stroke-width="2"/>
<path d="M67.5243 35.0655C67.5243 35.0655 68.1502 55.5876 50 55.5876C31.8498 55.5876 32.4756 35.0655 32.4756 35.0655" stroke="#212121" stroke-width="2"/>
<path d="M61.2657 51.6338C61.2657 51.6338 60.014 58.9138 62.5174 58.9138C65.0209 58.9138 76.2866 64.5621 76.2866 64.5621" stroke="#212121" stroke-width="2"/>
<path d="M62.5174 58.9138C62.5174 61.4241 60.014 66.8841 50.0001 66.8841C39.9861 66.8841 37.4827 61.4241 37.4827 58.9138" stroke="#212121" stroke-width="2"/>
<path d="M50 87.1552H71.2795C71.968 88.3476 73.6578 90.9834 76.9123 92.8034C79.7913 94.4352 82.4826 94.6862 83.7969 94.6862C85.0486 94.5607 88.3657 94.1214 91.3073 91.5483C92.9972 90.0421 93.936 88.3476 94.4367 87.2807H85.1112C83.8595 86.0255 83.171 85.3352 81.9193 84.08V78.369C83.171 77.1138 83.8595 76.4234 85.1112 75.1683H94.4367C93.8108 74.1641 92.4965 72.2814 90.0556 70.7752C87.4269 69.2062 84.986 68.9552 83.7969 68.8924C82.6703 68.7669 79.9165 68.6414 76.9123 70.1476C73.4075 71.9048 71.7802 74.7917 71.2795 75.7959C64.2072 75.7959 57.0723 75.7959 50 75.7959C42.9276 75.7959 35.7927 75.7959 28.7204 75.7959C28.2197 74.7917 26.5924 71.9048 23.0876 70.1476C20.0834 68.6414 17.3296 68.7669 16.203 68.8924C15.0139 68.9552 12.573 69.2062 9.94432 70.7752C7.50343 72.2814 6.1891 74.1641 5.56323 75.1683H14.8887C16.1404 76.4234 16.8289 77.1138 18.0806 78.369V84.08C16.8289 85.3352 16.1404 86.0255 14.8887 87.2807H5.56323C6.06393 88.3476 7.00273 90.0421 8.69258 91.5483C11.6342 94.1214 14.9513 94.5607 16.203 94.6862C17.5173 94.6862 20.2086 94.4352 23.0876 92.8034C26.3421 90.9834 28.0319 88.3476 28.7204 87.1552H50Z" stroke="#212121" stroke-width="2"/>
</g>
<defs>
<clipPath id="clip0">
<rect width="90" height="91" fill="white" transform="translate(5 4)"/>
</clipPath>
</defs>
</svg>
