<svg xmlns="http://www.w3.org/2000/svg" width="120" height="120" fill="none" viewBox="0 0 120 120">
    <path stroke="#D6D6D6" stroke-linecap="round" stroke-linejoin="round" stroke-width="3" d="M60.5 84s22-10.81 22-27V38.107L60.5 30l-22 8.107V57c0 16.19 22 27 22 27z"/>
    <path stroke="#565656" stroke-linecap="round" stroke-linejoin="round" stroke-miterlimit="10" stroke-width="3" d="M60 52.885c2.055 0 3.721-1.8 3.721-4.022 0-2.22-1.666-4.021-3.721-4.021s-3.721 1.8-3.721 4.021 1.666 4.022 3.721 4.022zM60 52.791v16.274M60 65.137h3.635M60 59.712h3.635"/>
    <path stroke="#565656" stroke-linecap="round" stroke-linejoin="round" stroke-width="3" d="M60 114s43.5-21.62 43.5-54V22.214L60 6 16.5 22.214V60c0 32.38 43.5 54 43.5 54z"/>
</svg>
