<svg width="64" height="58" viewBox="0 0 64 58" fill="none" xmlns="http://www.w3.org/2000/svg">
<path d="M55.6066 41.1178C55.7194 41.1788 55.8438 41.209 55.9679 41.209C56.103 41.209 56.2381 41.173 56.358 41.1015C56.5882 40.9641 56.7292 40.7158 56.7292 40.4478V17.7778C56.7292 17.5097 56.5882 17.2614 56.358 17.1241C56.1281 16.9867 55.8424 16.9805 55.6066 17.1079L45.951 22.3166V20.1857C45.951 18.5204 44.5961 17.1655 42.9308 17.1655H37.8165C39.0756 16.0527 39.8716 14.4274 39.8716 12.6188C39.8716 9.27217 37.1491 6.54948 33.8024 6.54948C31.0756 6.54948 28.7634 8.35725 28.0003 10.8371C27.166 9.99862 26.0117 9.47879 24.7382 9.47879C22.1991 9.47879 20.1335 11.5445 20.1335 14.0835C20.1335 15.2678 20.5832 16.3489 21.3204 17.1656H17.0745C15.4091 17.1656 14.0541 18.5206 14.0541 20.186L14.0544 28.4244C13.88 28.4132 13.7047 28.4054 13.5276 28.4054C9.0602 28.4054 5.42565 32.0399 5.42565 36.5073C5.42565 40.9747 9.0602 44.6092 13.5276 44.6092C16.3079 44.6092 18.7651 43.201 20.2249 41.0608L42.9307 41.0604C44.5959 41.0604 45.9507 39.7057 45.9507 38.0405V35.909L55.6066 41.1178ZM55.2067 19.0534V39.1721L45.9508 34.179L45.951 24.0464L55.2067 19.0534ZM37.2643 18.6878V20.642C37.2643 21.5222 36.5483 22.2382 35.6681 22.2382H24.3373C23.457 22.2382 22.7409 21.5222 22.7409 20.642V18.6878H24.7363H24.7383H24.7404H33.8003H33.8024H33.8044H37.2643ZM28.156 17.1653C28.4348 16.8565 28.6717 16.5095 28.8594 16.1338C29.1293 16.5121 29.4409 16.8583 29.7884 17.1653H28.156ZM33.8025 8.07178C36.3096 8.07178 38.3492 10.1114 38.3492 12.6185C38.3492 15.1257 36.3107 17.1642 33.8047 17.1653H33.8004C31.2943 17.1642 29.2557 15.1249 29.2557 12.6185C29.2557 10.1122 31.2954 8.07178 33.8025 8.07178ZM21.6562 14.0832C21.6562 12.3836 23.0389 11.001 24.7385 11.001C26.438 11.001 27.8206 12.3836 27.8206 14.0832C27.8206 15.7828 26.439 17.1641 24.7405 17.1653H24.7363C23.0377 17.1642 21.6562 15.782 21.6562 14.0832ZM44.4284 38.0402C44.4284 38.8659 43.7566 39.5376 42.9309 39.5376L21.0393 39.5381C21.4187 38.6011 21.6297 37.5785 21.6297 36.5071C21.6297 32.7474 19.0554 29.5782 15.5771 28.6682L15.5769 20.1856C15.5769 19.3597 16.2488 18.6878 17.0747 18.6878H21.2185V20.642C21.2185 22.3616 22.6176 23.7607 24.3374 23.7607H35.6682C37.3878 23.7607 38.787 22.3616 38.787 20.642V18.6878H42.9309C43.7568 18.6878 44.4286 19.3598 44.4286 20.1855L44.4284 38.0402ZM15.715 55.2387C15.715 55.6592 15.3742 56 14.9537 56H5.76125C5.34082 56 5 55.6592 5 55.2387V46.0463C5 45.6258 5.34082 45.285 5.76125 45.285C6.18168 45.285 6.52251 45.6258 6.52251 46.0463V54.4775H14.9537C15.3742 54.4775 15.715 54.8183 15.715 55.2387ZM59 46.0463V55.2387C59 55.6592 58.6592 56 58.2387 56H49.0463C48.6258 56 48.285 55.6592 48.285 55.2387C48.285 54.8183 48.6258 54.4775 49.0463 54.4775H57.4775V46.0463C57.4775 45.6258 57.8183 45.285 58.2387 45.285C58.6592 45.285 59 45.6258 59 46.0463ZM5 11.9537V2.76126C5 2.34083 5.34082 2 5.76125 2H14.9537C15.3742 2 15.715 2.34083 15.715 2.76126C15.715 3.18169 15.3742 3.52251 14.9537 3.52251H6.52251V11.9537C6.52251 12.3742 6.18168 12.715 5.76125 12.715C5.34082 12.715 5 12.3742 5 11.9537ZM58.9999 2.76126V11.9537C58.9999 12.3742 58.6591 12.715 58.2386 12.715C57.8182 12.715 57.4774 12.3742 57.4774 11.9537V3.52251H49.0462C48.6257 3.52251 48.2849 3.18169 48.2849 2.76126C48.2849 2.34083 48.6257 2 49.0462 2H58.2386C58.6591 2 58.9999 2.34083 58.9999 2.76126ZM17.8246 35.3526L12.4566 32.2534C12.0392 32.0122 11.5408 32.0121 11.1232 32.2532C10.7056 32.4942 10.4563 32.9258 10.4563 33.4079V39.6067C10.4563 40.0887 10.7056 40.5203 11.1232 40.7614C11.332 40.8818 11.5608 40.942 11.7898 40.942C12.0189 40.942 12.2477 40.8818 12.4563 40.7613L17.8246 37.6619C18.242 37.4209 18.4913 36.9893 18.4913 36.5073C18.4913 36.0253 18.242 35.5936 17.8246 35.3526ZM11.9789 39.2788V33.7357L16.7795 36.5072L11.9789 39.2788Z" fill="black" stroke="black" stroke-width="0.5"/>
<circle cx="13.5" cy="36.5" r="8.5" fill="#195DFF"/>
<path d="M11.5 40V33.25L18 36.5L11.5 40Z" fill="#D9D9D9"/>
</svg>
