<svg xmlns="http://www.w3.org/2000/svg" width="120" height="120" fill="none" viewBox="0 0 120 120">
    <g stroke-miterlimit="10" stroke-width="3" clip-path="url(#clip0)">
        <path stroke="#565656" d="M2.5 26.75v-20h20M97.5 6.75h20v20M2.5 93.25v20h20M97.5 113.25h20v-20"/>
        <path stroke="#D6D6D6" stroke-linecap="round" stroke-linejoin="bevel" d="M36.3 54.85c1.3-3.7 6.1-11 16.5-4.9s19.1-2.9 19.4-9.9c0 0-.2 4.4 3.3 6.7s8.6 4.6 9.1 10.3c0 0 7.1-17.9-2.1-27.4s-17.6-3.8-17.6-3.8-24.9-3.5-29.3 16.7c-1.3 6.1.7 12.3.7 12.3z"/>
        <path stroke="#D6D6D6" stroke-linecap="round" stroke-linejoin="bevel" d="M36.3 54.85c-1.5-1.2-7.8-.3-5.7 5.9 2.8 8.3 6.8 17.1 8.9 15.9 0 0 6.7 20.7 21 19.9 14.3-.8 17.1-11.5 21.5-19.8 1.8.6 6.5-8.2 8.6-13 2.5-5.7-3-7.6-6-6.6"/>
    </g>
    <defs>
        <clipPath id="clip0">
            <path fill="#fff" d="M0 0H118V109.5H0z" transform="translate(1 5.25)"/>
        </clipPath>
    </defs>
</svg>
