<svg width="100" height="100" viewBox="0 0 100 100" fill="none" xmlns="http://www.w3.org/2000/svg">
<path d="M41 72.3333C41 73.8068 41.6321 75.2198 42.7574 76.2617C43.8826 77.3036 45.4087 77.8889 47 77.8889H83L95 89V44.5556C95 43.0821 94.3679 41.6691 93.2426 40.6272C92.1174 39.5853 90.5913 39 89 39H47C45.4087 39 43.8826 39.5853 42.7574 40.6272C41.6321 41.6691 41 43.0821 41 44.5556V72.3333Z" fill="#CCE7FF"/>
<path d="M77 58C77 60.0333 76.1454 61.9834 74.6243 63.4212C73.1032 64.8589 71.0401 65.6667 68.8889 65.6667H20.2222L4 81V19.6667C4 17.6333 4.85456 15.6833 6.37569 14.2455C7.89682 12.8077 9.95991 12 12.1111 12H68.8889C71.0401 12 73.1032 12.8077 74.6243 14.2455C76.1454 15.6833 77 17.6333 77 19.6667V58Z" fill="#006CC9"/>
<path d="M38.2273 44.1506V43.7159C38.2358 42.2244 38.3679 41.0355 38.6236 40.1491C38.8878 39.2628 39.2713 38.5469 39.7741 38.0014C40.277 37.456 40.8821 36.9616 41.5895 36.5185C42.1179 36.1776 42.5909 35.8239 43.0085 35.4574C43.4261 35.0909 43.7585 34.6861 44.0057 34.2429C44.2528 33.7912 44.3764 33.2884 44.3764 32.7344C44.3764 32.1463 44.2358 31.6307 43.9545 31.1875C43.6733 30.7443 43.294 30.4034 42.8168 30.1648C42.348 29.9261 41.8281 29.8068 41.2571 29.8068C40.7031 29.8068 40.179 29.9304 39.6847 30.1776C39.1903 30.4162 38.7855 30.7741 38.4702 31.2514C38.1548 31.7202 37.9844 32.304 37.9588 33.0028H32.7429C32.7855 31.2983 33.1946 29.892 33.9702 28.7841C34.7457 27.6676 35.7727 26.8366 37.0511 26.2912C38.3295 25.7372 39.7401 25.4602 41.2827 25.4602C42.9787 25.4602 44.4787 25.7415 45.7827 26.304C47.0866 26.858 48.1094 27.6634 48.8509 28.7202C49.5923 29.777 49.9631 31.0511 49.9631 32.5426C49.9631 33.5398 49.7969 34.4261 49.4645 35.2017C49.1406 35.9687 48.6847 36.6506 48.0966 37.2472C47.5085 37.8352 46.8139 38.3679 46.0128 38.8452C45.3395 39.2457 44.7855 39.6634 44.3509 40.098C43.9247 40.5327 43.6051 41.0355 43.392 41.6065C43.1875 42.1776 43.081 42.8807 43.0724 43.7159V44.1506H38.2273ZM40.7585 52.3324C39.9062 52.3324 39.1776 52.0341 38.5724 51.4375C37.9759 50.8324 37.6818 50.108 37.6903 49.2642C37.6818 48.429 37.9759 47.7131 38.5724 47.1165C39.1776 46.5199 39.9062 46.2216 40.7585 46.2216C41.5682 46.2216 42.2798 46.5199 42.8935 47.1165C43.5071 47.7131 43.8182 48.429 43.8267 49.2642C43.8182 49.8267 43.669 50.3423 43.3793 50.8111C43.098 51.2713 42.7273 51.642 42.267 51.9233C41.8068 52.196 41.304 52.3324 40.7585 52.3324Z" fill="white"/>
</svg>
