<svg width="378" height="488" viewBox="0 0 378 488" fill="none" xmlns="http://www.w3.org/2000/svg">
<rect width="378" height="488" fill="white"/>
<path d="M45.112 275.428H53.488V278.068H45.112V275.428ZM45.376 284.5H42.256V267.7H54.52V270.316H45.376V284.5ZM64.7234 284.5V281.908L64.5554 281.356V276.82C64.5554 275.94 64.2914 275.26 63.7634 274.78C63.2354 274.284 62.4354 274.036 61.3634 274.036C60.6434 274.036 59.9314 274.148 59.2274 274.372C58.5394 274.596 57.9554 274.908 57.4754 275.308L56.2994 273.124C56.9874 272.596 57.8034 272.204 58.7474 271.948C59.7074 271.676 60.6994 271.54 61.7234 271.54C63.5794 271.54 65.0114 271.988 66.0194 272.884C67.0434 273.764 67.5554 275.132 67.5554 276.988V284.5H64.7234ZM60.6914 284.668C59.7314 284.668 58.8914 284.508 58.1714 284.188C57.4514 283.852 56.8914 283.396 56.4914 282.82C56.1074 282.228 55.9154 281.564 55.9154 280.828C55.9154 280.108 56.0834 279.46 56.4194 278.884C56.7714 278.308 57.3394 277.852 58.1234 277.516C58.9074 277.18 59.9474 277.012 61.2434 277.012H64.9634V279.004H61.4594C60.4354 279.004 59.7474 279.172 59.3954 279.508C59.0434 279.828 58.8674 280.228 58.8674 280.708C58.8674 281.252 59.0834 281.684 59.5154 282.004C59.9474 282.324 60.5474 282.484 61.3154 282.484C62.0514 282.484 62.7074 282.316 63.2834 281.98C63.8754 281.644 64.2994 281.148 64.5554 280.492L65.0594 282.292C64.7714 283.044 64.2514 283.628 63.4994 284.044C62.7634 284.46 61.8274 284.668 60.6914 284.668ZM75.3655 284.668C74.2935 284.668 73.2615 284.532 72.2695 284.26C71.2935 283.972 70.5175 283.628 69.9415 283.228L71.0935 280.948C71.6695 281.316 72.3575 281.62 73.1575 281.86C73.9575 282.1 74.7575 282.22 75.5575 282.22C76.5015 282.22 77.1815 282.092 77.5975 281.836C78.0295 281.58 78.2455 281.236 78.2455 280.804C78.2455 280.452 78.1015 280.188 77.8135 280.012C77.5255 279.82 77.1495 279.676 76.6855 279.58C76.2215 279.484 75.7015 279.396 75.1255 279.316C74.5655 279.236 73.9975 279.132 73.4215 279.004C72.8615 278.86 72.3495 278.66 71.8855 278.404C71.4215 278.132 71.0455 277.772 70.7575 277.324C70.4695 276.876 70.3255 276.284 70.3255 275.548C70.3255 274.732 70.5575 274.028 71.0215 273.436C71.4855 272.828 72.1335 272.364 72.9655 272.044C73.8135 271.708 74.8135 271.54 75.9655 271.54C76.8295 271.54 77.7015 271.636 78.5815 271.828C79.4615 272.02 80.1895 272.292 80.7655 272.644L79.6135 274.924C79.0055 274.556 78.3895 274.308 77.7655 274.18C77.1575 274.036 76.5495 273.964 75.9415 273.964C75.0295 273.964 74.3495 274.1 73.9015 274.372C73.4695 274.644 73.2535 274.988 73.2535 275.404C73.2535 275.788 73.3975 276.076 73.6855 276.268C73.9735 276.46 74.3495 276.612 74.8135 276.724C75.2775 276.836 75.7895 276.932 76.3495 277.012C76.9255 277.076 77.4935 277.18 78.0535 277.324C78.6135 277.468 79.1255 277.668 79.5895 277.924C80.0695 278.164 80.4535 278.508 80.7415 278.956C81.0295 279.404 81.1735 279.988 81.1735 280.708C81.1735 281.508 80.9335 282.204 80.4535 282.796C79.9895 283.388 79.3255 283.852 78.4615 284.188C77.5975 284.508 76.5655 284.668 75.3655 284.668ZM88.5811 284.668C87.1731 284.668 86.0851 284.308 85.3171 283.588C84.5491 282.852 84.1651 281.772 84.1651 280.348V268.852H87.1651V280.276C87.1651 280.884 87.3171 281.356 87.6211 281.692C87.9411 282.028 88.3811 282.196 88.9411 282.196C89.6131 282.196 90.1731 282.02 90.6211 281.668L91.4611 283.804C91.1091 284.092 90.6771 284.308 90.1651 284.452C89.6531 284.596 89.1251 284.668 88.5811 284.668ZM82.0531 274.18V271.78H90.5971V274.18H82.0531ZM99.5311 284.668C98.1071 284.668 96.8591 284.388 95.7871 283.828C94.7311 283.252 93.9071 282.468 93.3151 281.476C92.7391 280.484 92.4511 279.356 92.4511 278.092C92.4511 276.812 92.7311 275.684 93.2911 274.708C93.8671 273.716 94.6511 272.94 95.6431 272.38C96.6511 271.82 97.7951 271.54 99.0751 271.54C100.323 271.54 101.435 271.812 102.411 272.356C103.387 272.9 104.155 273.668 104.715 274.66C105.275 275.652 105.555 276.82 105.555 278.164C105.555 278.292 105.547 278.436 105.531 278.596C105.531 278.756 105.523 278.908 105.507 279.052H94.8271V277.06H103.923L102.747 277.684C102.763 276.948 102.611 276.3 102.291 275.74C101.971 275.18 101.531 274.74 100.971 274.42C100.427 274.1 99.7951 273.94 99.0751 273.94C98.3391 273.94 97.6911 274.1 97.1311 274.42C96.5871 274.74 96.1551 275.188 95.8351 275.764C95.5311 276.324 95.3791 276.988 95.3791 277.756V278.236C95.3791 279.004 95.5551 279.684 95.9071 280.276C96.2591 280.868 96.7551 281.324 97.3951 281.644C98.0351 281.964 98.7711 282.124 99.6031 282.124C100.323 282.124 100.971 282.012 101.547 281.788C102.123 281.564 102.635 281.212 103.083 280.732L104.691 282.58C104.115 283.252 103.387 283.772 102.507 284.14C101.643 284.492 100.651 284.668 99.5311 284.668ZM108.437 284.5V271.684H111.293V275.212L110.957 274.18C111.341 273.316 111.941 272.66 112.757 272.212C113.589 271.764 114.621 271.54 115.853 271.54V274.396C115.725 274.364 115.605 274.348 115.493 274.348C115.381 274.332 115.269 274.324 115.157 274.324C114.021 274.324 113.117 274.66 112.445 275.332C111.773 275.988 111.437 276.972 111.437 278.284V284.5H108.437ZM133.212 284.74C131.932 284.74 130.74 284.532 129.636 284.116C128.548 283.684 127.596 283.084 126.78 282.316C125.98 281.532 125.356 280.612 124.908 279.556C124.46 278.5 124.236 277.348 124.236 276.1C124.236 274.852 124.46 273.7 124.908 272.644C125.356 271.588 125.988 270.676 126.804 269.908C127.62 269.124 128.572 268.524 129.66 268.108C130.748 267.676 131.94 267.46 133.236 267.46C134.612 267.46 135.868 267.7 137.004 268.18C138.14 268.644 139.1 269.34 139.884 270.268L137.868 272.164C137.26 271.508 136.58 271.02 135.828 270.7C135.076 270.364 134.26 270.196 133.38 270.196C132.5 270.196 131.692 270.34 130.956 270.628C130.236 270.916 129.604 271.324 129.06 271.852C128.532 272.38 128.116 273.004 127.812 273.724C127.524 274.444 127.38 275.236 127.38 276.1C127.38 276.964 127.524 277.756 127.812 278.476C128.116 279.196 128.532 279.82 129.06 280.348C129.604 280.876 130.236 281.284 130.956 281.572C131.692 281.86 132.5 282.004 133.38 282.004C134.26 282.004 135.076 281.844 135.828 281.524C136.58 281.188 137.26 280.684 137.868 280.012L139.884 281.932C139.1 282.844 138.14 283.54 137.004 284.02C135.868 284.5 134.604 284.74 133.212 284.74ZM142.585 284.5V266.692H145.585V284.5H142.585ZM157.419 284.5V281.908L157.251 281.356V276.82C157.251 275.94 156.987 275.26 156.459 274.78C155.931 274.284 155.131 274.036 154.059 274.036C153.339 274.036 152.627 274.148 151.923 274.372C151.235 274.596 150.651 274.908 150.171 275.308L148.995 273.124C149.683 272.596 150.499 272.204 151.443 271.948C152.403 271.676 153.395 271.54 154.419 271.54C156.275 271.54 157.707 271.988 158.715 272.884C159.739 273.764 160.251 275.132 160.251 276.988V284.5H157.419ZM153.387 284.668C152.427 284.668 151.587 284.508 150.867 284.188C150.147 283.852 149.587 283.396 149.187 282.82C148.803 282.228 148.611 281.564 148.611 280.828C148.611 280.108 148.779 279.46 149.115 278.884C149.467 278.308 150.035 277.852 150.819 277.516C151.603 277.18 152.643 277.012 153.939 277.012H157.659V279.004H154.155C153.131 279.004 152.443 279.172 152.091 279.508C151.739 279.828 151.563 280.228 151.563 280.708C151.563 281.252 151.779 281.684 152.211 282.004C152.643 282.324 153.243 282.484 154.011 282.484C154.747 282.484 155.403 282.316 155.979 281.98C156.571 281.644 156.995 281.148 157.251 280.492L157.755 282.292C157.467 283.044 156.947 283.628 156.195 284.044C155.459 284.46 154.523 284.668 153.387 284.668ZM164.101 284.5V271.684H167.101V284.5H164.101ZM165.613 269.572C165.053 269.572 164.589 269.396 164.221 269.044C163.869 268.692 163.693 268.268 163.693 267.772C163.693 267.26 163.869 266.836 164.221 266.5C164.589 266.148 165.053 265.972 165.613 265.972C166.173 265.972 166.629 266.14 166.981 266.476C167.349 266.796 167.533 267.204 167.533 267.7C167.533 268.228 167.357 268.676 167.005 269.044C166.653 269.396 166.189 269.572 165.613 269.572ZM187.214 271.54C188.238 271.54 189.142 271.74 189.926 272.14C190.726 272.54 191.35 273.156 191.798 273.988C192.246 274.804 192.47 275.86 192.47 277.156V284.5H189.47V277.54C189.47 276.404 189.222 275.556 188.726 274.996C188.23 274.436 187.518 274.156 186.59 274.156C185.934 274.156 185.35 274.3 184.838 274.588C184.342 274.876 183.95 275.3 183.662 275.86C183.39 276.42 183.254 277.132 183.254 277.996V284.5H180.254V277.54C180.254 276.404 180.006 275.556 179.51 274.996C179.014 274.436 178.302 274.156 177.374 274.156C176.718 274.156 176.134 274.3 175.622 274.588C175.126 274.876 174.734 275.3 174.446 275.86C174.174 276.42 174.038 277.132 174.038 277.996V284.5H171.038V271.684H173.894V275.092L173.39 274.084C173.822 273.252 174.446 272.62 175.262 272.188C176.094 271.756 177.038 271.54 178.094 271.54C179.294 271.54 180.334 271.836 181.214 272.428C182.11 273.02 182.702 273.916 182.99 275.116L181.814 274.708C182.23 273.748 182.918 272.98 183.878 272.404C184.838 271.828 185.95 271.54 187.214 271.54ZM200.264 284.668C199.192 284.668 198.16 284.532 197.168 284.26C196.192 283.972 195.416 283.628 194.84 283.228L195.992 280.948C196.568 281.316 197.256 281.62 198.056 281.86C198.856 282.1 199.656 282.22 200.456 282.22C201.4 282.22 202.08 282.092 202.496 281.836C202.928 281.58 203.144 281.236 203.144 280.804C203.144 280.452 203 280.188 202.712 280.012C202.424 279.82 202.048 279.676 201.584 279.58C201.12 279.484 200.6 279.396 200.024 279.316C199.464 279.236 198.896 279.132 198.32 279.004C197.76 278.86 197.248 278.66 196.784 278.404C196.32 278.132 195.944 277.772 195.656 277.324C195.368 276.876 195.224 276.284 195.224 275.548C195.224 274.732 195.456 274.028 195.92 273.436C196.384 272.828 197.032 272.364 197.864 272.044C198.712 271.708 199.712 271.54 200.864 271.54C201.728 271.54 202.6 271.636 203.48 271.828C204.36 272.02 205.088 272.292 205.664 272.644L204.512 274.924C203.904 274.556 203.288 274.308 202.664 274.18C202.056 274.036 201.448 273.964 200.84 273.964C199.928 273.964 199.248 274.1 198.8 274.372C198.368 274.644 198.152 274.988 198.152 275.404C198.152 275.788 198.296 276.076 198.584 276.268C198.872 276.46 199.248 276.612 199.712 276.724C200.176 276.836 200.688 276.932 201.248 277.012C201.824 277.076 202.392 277.18 202.952 277.324C203.512 277.468 204.024 277.668 204.488 277.924C204.968 278.164 205.352 278.508 205.64 278.956C205.928 279.404 206.072 279.988 206.072 280.708C206.072 281.508 205.832 282.204 205.352 282.796C204.888 283.388 204.224 283.852 203.36 284.188C202.496 284.508 201.464 284.668 200.264 284.668ZM47.464 310.74C46.152 310.74 44.896 310.556 43.696 310.188C42.496 309.804 41.544 309.316 40.84 308.724L41.92 306.3C42.592 306.828 43.424 307.268 44.416 307.62C45.408 307.972 46.424 308.148 47.464 308.148C48.344 308.148 49.056 308.052 49.6 307.86C50.144 307.668 50.544 307.412 50.8 307.092C51.056 306.756 51.184 306.38 51.184 305.964C51.184 305.452 51 305.044 50.632 304.74C50.264 304.42 49.784 304.172 49.192 303.996C48.616 303.804 47.968 303.628 47.248 303.468C46.544 303.308 45.832 303.124 45.112 302.916C44.408 302.692 43.76 302.412 43.168 302.076C42.592 301.724 42.12 301.26 41.752 300.684C41.384 300.108 41.2 299.372 41.2 298.476C41.2 297.564 41.44 296.732 41.92 295.98C42.416 295.212 43.16 294.604 44.152 294.156C45.16 293.692 46.432 293.46 47.968 293.46C48.976 293.46 49.976 293.588 50.968 293.844C51.96 294.1 52.824 294.468 53.56 294.948L52.576 297.372C51.824 296.924 51.048 296.596 50.248 296.388C49.448 296.164 48.68 296.052 47.944 296.052C47.08 296.052 46.376 296.156 45.832 296.364C45.304 296.572 44.912 296.844 44.656 297.18C44.416 297.516 44.296 297.9 44.296 298.332C44.296 298.844 44.472 299.26 44.824 299.58C45.192 299.884 45.664 300.124 46.24 300.3C46.832 300.476 47.488 300.652 48.208 300.828C48.928 300.988 49.64 301.172 50.344 301.38C51.064 301.588 51.712 301.86 52.288 302.196C52.88 302.532 53.352 302.988 53.704 303.564C54.072 304.14 54.256 304.868 54.256 305.748C54.256 306.644 54.008 307.476 53.512 308.244C53.032 308.996 52.288 309.604 51.28 310.068C50.272 310.516 49 310.74 47.464 310.74ZM63.0858 310.668C61.6618 310.668 60.4138 310.388 59.3418 309.828C58.2858 309.252 57.4618 308.468 56.8698 307.476C56.2938 306.484 56.0058 305.356 56.0058 304.092C56.0058 302.812 56.2858 301.684 56.8458 300.708C57.4218 299.716 58.2058 298.94 59.1978 298.38C60.2058 297.82 61.3498 297.54 62.6298 297.54C63.8778 297.54 64.9898 297.812 65.9658 298.356C66.9418 298.9 67.7098 299.668 68.2698 300.66C68.8298 301.652 69.1098 302.82 69.1098 304.164C69.1098 304.292 69.1018 304.436 69.0858 304.596C69.0858 304.756 69.0778 304.908 69.0618 305.052H58.3818V303.06H67.4778L66.3018 303.684C66.3178 302.948 66.1658 302.3 65.8458 301.74C65.5258 301.18 65.0858 300.74 64.5258 300.42C63.9818 300.1 63.3498 299.94 62.6298 299.94C61.8938 299.94 61.2458 300.1 60.6858 300.42C60.1418 300.74 59.7098 301.188 59.3898 301.764C59.0858 302.324 58.9338 302.988 58.9338 303.756V304.236C58.9338 305.004 59.1098 305.684 59.4618 306.276C59.8138 306.868 60.3098 307.324 60.9498 307.644C61.5898 307.964 62.3258 308.124 63.1578 308.124C63.8778 308.124 64.5258 308.012 65.1018 307.788C65.6778 307.564 66.1898 307.212 66.6378 306.732L68.2458 308.58C67.6698 309.252 66.9418 309.772 66.0618 310.14C65.1978 310.492 64.2058 310.668 63.0858 310.668ZM76.8154 310.668C75.4074 310.668 74.3194 310.308 73.5514 309.588C72.7834 308.852 72.3994 307.772 72.3994 306.348V294.852H75.3994V306.276C75.3994 306.884 75.5514 307.356 75.8554 307.692C76.1754 308.028 76.6154 308.196 77.1754 308.196C77.8474 308.196 78.4074 308.02 78.8554 307.668L79.6954 309.804C79.3434 310.092 78.9114 310.308 78.3994 310.452C77.8874 310.596 77.3594 310.668 76.8154 310.668ZM70.2874 300.18V297.78H78.8314V300.18H70.2874ZM86.6826 310.668C85.2746 310.668 84.1866 310.308 83.4186 309.588C82.6506 308.852 82.2666 307.772 82.2666 306.348V294.852H85.2666V306.276C85.2666 306.884 85.4186 307.356 85.7226 307.692C86.0426 308.028 86.4826 308.196 87.0426 308.196C87.7146 308.196 88.2746 308.02 88.7226 307.668L89.5626 309.804C89.2106 310.092 88.7786 310.308 88.2666 310.452C87.7546 310.596 87.2266 310.668 86.6826 310.668ZM80.1546 300.18V297.78H88.6986V300.18H80.1546ZM92.0305 310.5V292.692H95.0305V310.5H92.0305ZM104.992 310.668C103.568 310.668 102.32 310.388 101.248 309.828C100.192 309.252 99.368 308.468 98.776 307.476C98.2 306.484 97.912 305.356 97.912 304.092C97.912 302.812 98.192 301.684 98.752 300.708C99.328 299.716 100.112 298.94 101.104 298.38C102.112 297.82 103.256 297.54 104.536 297.54C105.784 297.54 106.896 297.812 107.872 298.356C108.848 298.9 109.616 299.668 110.176 300.66C110.736 301.652 111.016 302.82 111.016 304.164C111.016 304.292 111.008 304.436 110.992 304.596C110.992 304.756 110.984 304.908 110.968 305.052H100.288V303.06H109.384L108.208 303.684C108.224 302.948 108.072 302.3 107.752 301.74C107.432 301.18 106.992 300.74 106.432 300.42C105.888 300.1 105.256 299.94 104.536 299.94C103.8 299.94 103.152 300.1 102.592 300.42C102.048 300.74 101.616 301.188 101.296 301.764C100.992 302.324 100.84 302.988 100.84 303.756V304.236C100.84 305.004 101.016 305.684 101.368 306.276C101.72 306.868 102.216 307.324 102.856 307.644C103.496 307.964 104.232 308.124 105.064 308.124C105.784 308.124 106.432 308.012 107.008 307.788C107.584 307.564 108.096 307.212 108.544 306.732L110.152 308.58C109.576 309.252 108.848 309.772 107.968 310.14C107.104 310.492 106.112 310.668 104.992 310.668ZM130.074 297.54C131.098 297.54 132.002 297.74 132.786 298.14C133.586 298.54 134.21 299.156 134.658 299.988C135.106 300.804 135.33 301.86 135.33 303.156V310.5H132.33V303.54C132.33 302.404 132.082 301.556 131.586 300.996C131.09 300.436 130.378 300.156 129.45 300.156C128.794 300.156 128.21 300.3 127.698 300.588C127.202 300.876 126.81 301.3 126.522 301.86C126.25 302.42 126.114 303.132 126.114 303.996V310.5H123.114V303.54C123.114 302.404 122.866 301.556 122.37 300.996C121.874 300.436 121.162 300.156 120.234 300.156C119.578 300.156 118.994 300.3 118.482 300.588C117.986 300.876 117.594 301.3 117.306 301.86C117.034 302.42 116.898 303.132 116.898 303.996V310.5H113.898V297.684H116.754V301.092L116.25 300.084C116.682 299.252 117.306 298.62 118.122 298.188C118.954 297.756 119.898 297.54 120.954 297.54C122.154 297.54 123.194 297.836 124.074 298.428C124.97 299.02 125.562 299.916 125.85 301.116L124.674 300.708C125.09 299.748 125.778 298.98 126.738 298.404C127.698 297.828 128.81 297.54 130.074 297.54ZM145.211 310.668C143.787 310.668 142.539 310.388 141.467 309.828C140.411 309.252 139.587 308.468 138.995 307.476C138.419 306.484 138.131 305.356 138.131 304.092C138.131 302.812 138.411 301.684 138.971 300.708C139.547 299.716 140.331 298.94 141.323 298.38C142.331 297.82 143.475 297.54 144.755 297.54C146.003 297.54 147.115 297.812 148.091 298.356C149.067 298.9 149.835 299.668 150.395 300.66C150.955 301.652 151.235 302.82 151.235 304.164C151.235 304.292 151.227 304.436 151.211 304.596C151.211 304.756 151.203 304.908 151.187 305.052H140.507V303.06H149.603L148.427 303.684C148.443 302.948 148.291 302.3 147.971 301.74C147.651 301.18 147.211 300.74 146.651 300.42C146.107 300.1 145.475 299.94 144.755 299.94C144.019 299.94 143.371 300.1 142.811 300.42C142.267 300.74 141.835 301.188 141.515 301.764C141.211 302.324 141.059 302.988 141.059 303.756V304.236C141.059 305.004 141.235 305.684 141.587 306.276C141.939 306.868 142.435 307.324 143.075 307.644C143.715 307.964 144.451 308.124 145.283 308.124C146.003 308.124 146.651 308.012 147.227 307.788C147.803 307.564 148.315 307.212 148.763 306.732L150.371 308.58C149.795 309.252 149.067 309.772 148.187 310.14C147.323 310.492 146.331 310.668 145.211 310.668ZM161.388 297.54C162.412 297.54 163.324 297.74 164.124 298.14C164.94 298.54 165.58 299.156 166.044 299.988C166.508 300.804 166.74 301.86 166.74 303.156V310.5H163.74V303.54C163.74 302.404 163.468 301.556 162.924 300.996C162.396 300.436 161.652 300.156 160.692 300.156C159.988 300.156 159.364 300.3 158.82 300.588C158.276 300.876 157.852 301.308 157.548 301.884C157.26 302.444 157.116 303.156 157.116 304.02V310.5H154.116V297.684H156.972V301.14L156.468 300.084C156.916 299.268 157.564 298.644 158.412 298.212C159.276 297.764 160.268 297.54 161.388 297.54ZM175.37 310.668C173.962 310.668 172.874 310.308 172.106 309.588C171.338 308.852 170.954 307.772 170.954 306.348V294.852H173.954V306.276C173.954 306.884 174.106 307.356 174.41 307.692C174.73 308.028 175.17 308.196 175.73 308.196C176.402 308.196 176.962 308.02 177.41 307.668L178.25 309.804C177.898 310.092 177.466 310.308 176.954 310.452C176.442 310.596 175.914 310.668 175.37 310.668ZM168.842 300.18V297.78H177.386V300.18H168.842Z" fill="black"/>
<path d="M199.082 58.5143C198.937 58.5143 198.82 58.4026 198.82 58.2648L198.795 33.3329C198.795 33.1948 198.912 33.0831 199.057 33.0829L244.468 33.0416C244.613 33.0416 244.73 33.1533 244.73 33.2912C244.73 33.4292 244.613 33.5409 244.469 33.5412L199.319 33.5822L199.343 58.2643C199.343 58.4024 199.226 58.5141 199.082 58.5143Z" fill="white"/>
<path d="M344.879 152.15C344.879 152.011 344.996 151.9 345.141 151.9C345.285 151.9 345.403 152.011 345.403 152.15" fill="black"/>
<path d="M248.256 179.572C248.178 179.456 248.213 179.301 248.335 179.227C248.457 179.152 248.618 179.186 248.696 179.302" fill="#5479F7"/>
<path d="M49.4 357.62C48.3467 357.62 47.3667 357.447 46.46 357.1C45.5667 356.74 44.7867 356.24 44.12 355.6C43.4667 354.947 42.9533 354.193 42.58 353.34C42.22 352.473 42.04 351.527 42.04 350.5C42.04 349.473 42.22 348.533 42.58 347.68C42.9533 346.813 43.4667 346.06 44.12 345.42C44.7867 344.767 45.5667 344.267 46.46 343.92C47.3533 343.56 48.3333 343.38 49.4 343.38C50.4533 343.38 51.4267 343.56 52.32 343.92C53.2133 344.267 53.9867 344.76 54.64 345.4C55.3067 346.04 55.82 346.793 56.18 347.66C56.5533 348.527 56.74 349.473 56.74 350.5C56.74 351.527 56.5533 352.473 56.18 353.34C55.82 354.207 55.3067 354.96 54.64 355.6C53.9867 356.24 53.2133 356.74 52.32 357.1C51.4267 357.447 50.4533 357.62 49.4 357.62ZM49.4 356.3C50.24 356.3 51.0133 356.16 51.72 355.88C52.44 355.587 53.06 355.18 53.58 354.66C54.1133 354.127 54.5267 353.513 54.82 352.82C55.1133 352.113 55.26 351.34 55.26 350.5C55.26 349.66 55.1133 348.893 54.82 348.2C54.5267 347.493 54.1133 346.88 53.58 346.36C53.06 345.827 52.44 345.42 51.72 345.14C51.0133 344.847 50.24 344.7 49.4 344.7C48.56 344.7 47.78 344.847 47.06 345.14C46.34 345.42 45.7133 345.827 45.18 346.36C44.66 346.88 44.2467 347.493 43.94 348.2C43.6467 348.893 43.5 349.66 43.5 350.5C43.5 351.327 43.6467 352.093 43.94 352.8C44.2467 353.507 44.66 354.127 45.18 354.66C45.7133 355.18 46.34 355.587 47.06 355.88C47.78 356.16 48.56 356.3 49.4 356.3ZM65.1773 357.6C64.2707 357.6 63.4507 357.393 62.7173 356.98C61.984 356.553 61.3973 355.947 60.9573 355.16C60.5307 354.36 60.3173 353.387 60.3173 352.24C60.3173 351.093 60.5307 350.127 60.9573 349.34C61.384 348.54 61.964 347.933 62.6973 347.52C63.4307 347.107 64.2573 346.9 65.1773 346.9C66.1773 346.9 67.0707 347.127 67.8573 347.58C68.6573 348.02 69.284 348.647 69.7373 349.46C70.1907 350.26 70.4173 351.187 70.4173 352.24C70.4173 353.307 70.1907 354.24 69.7373 355.04C69.284 355.84 68.6573 356.467 67.8573 356.92C67.0707 357.373 66.1773 357.6 65.1773 357.6ZM59.7573 361.38V347H61.1173V350.16L60.9773 352.26L61.1773 354.38V361.38H59.7573ZM65.0773 356.34C65.824 356.34 66.4907 356.173 67.0773 355.84C67.664 355.493 68.1307 355.013 68.4773 354.4C68.824 353.773 68.9973 353.053 68.9973 352.24C68.9973 351.427 68.824 350.713 68.4773 350.1C68.1307 349.487 67.664 349.007 67.0773 348.66C66.4907 348.313 65.824 348.14 65.0773 348.14C64.3307 348.14 63.6573 348.313 63.0573 348.66C62.4707 349.007 62.004 349.487 61.6573 350.1C61.324 350.713 61.1573 351.427 61.1573 352.24C61.1573 353.053 61.324 353.773 61.6573 354.4C62.004 355.013 62.4707 355.493 63.0573 355.84C63.6573 356.173 64.3307 356.34 65.0773 356.34ZM76.632 357.6C75.6454 357.6 74.8854 357.333 74.352 356.8C73.8187 356.267 73.552 355.513 73.552 354.54V344.68H74.972V354.46C74.972 355.073 75.1254 355.547 75.432 355.88C75.752 356.213 76.2054 356.38 76.792 356.38C77.4187 356.38 77.9387 356.2 78.352 355.84L78.852 356.86C78.572 357.113 78.232 357.3 77.832 357.42C77.4454 357.54 77.0454 357.6 76.632 357.6ZM71.672 348.18V347H78.172V348.18H71.672ZM81.437 357.5V347H82.857V357.5H81.437ZM82.157 344.68C81.8637 344.68 81.617 344.58 81.417 344.38C81.217 344.18 81.117 343.94 81.117 343.66C81.117 343.38 81.217 343.147 81.417 342.96C81.617 342.76 81.8637 342.66 82.157 342.66C82.4504 342.66 82.697 342.753 82.897 342.94C83.097 343.127 83.197 343.36 83.197 343.64C83.197 343.933 83.097 344.18 82.897 344.38C82.7104 344.58 82.4637 344.68 82.157 344.68ZM99.9281 346.9C100.781 346.9 101.521 347.067 102.148 347.4C102.788 347.72 103.281 348.213 103.628 348.88C103.988 349.547 104.168 350.387 104.168 351.4V357.5H102.748V351.54C102.748 350.433 102.481 349.6 101.948 349.04C101.428 348.467 100.688 348.18 99.7281 348.18C99.0081 348.18 98.3815 348.333 97.8481 348.64C97.3281 348.933 96.9215 349.367 96.6281 349.94C96.3481 350.5 96.2081 351.18 96.2081 351.98V357.5H94.7881V351.54C94.7881 350.433 94.5215 349.6 93.9881 349.04C93.4548 348.467 92.7081 348.18 91.7481 348.18C91.0415 348.18 90.4215 348.333 89.8881 348.64C89.3548 348.933 88.9415 349.367 88.6481 349.94C88.3681 350.5 88.2281 351.18 88.2281 351.98V357.5H86.8081V347H88.1681V349.84L87.9481 349.34C88.2681 348.58 88.7815 347.987 89.4881 347.56C90.2081 347.12 91.0548 346.9 92.0281 346.9C93.0548 346.9 93.9281 347.16 94.6481 347.68C95.3681 348.187 95.8348 348.953 96.0481 349.98L95.4881 349.76C95.7948 348.907 96.3348 348.22 97.1081 347.7C97.8948 347.167 98.8348 346.9 99.9281 346.9ZM108.019 357.5V347H109.439V357.5H108.019ZM108.739 344.68C108.446 344.68 108.199 344.58 107.999 344.38C107.799 344.18 107.699 343.94 107.699 343.66C107.699 343.38 107.799 343.147 107.999 342.96C108.199 342.76 108.446 342.66 108.739 342.66C109.032 342.66 109.279 342.753 109.479 342.94C109.679 343.127 109.779 343.36 109.779 343.64C109.779 343.933 109.679 344.18 109.479 344.38C109.292 344.58 109.046 344.68 108.739 344.68ZM112.25 357.5V356.56L119.25 347.7L119.55 348.18H112.37V347H120.67V347.92L113.69 356.8L113.33 356.32H120.81V357.5H112.25ZM127.889 357.6C126.796 357.6 125.836 357.373 125.009 356.92C124.183 356.453 123.536 355.82 123.069 355.02C122.603 354.207 122.369 353.28 122.369 352.24C122.369 351.2 122.589 350.28 123.029 349.48C123.483 348.68 124.096 348.053 124.869 347.6C125.656 347.133 126.536 346.9 127.509 346.9C128.496 346.9 129.369 347.127 130.129 347.58C130.903 348.02 131.509 348.647 131.949 349.46C132.389 350.26 132.609 351.187 132.609 352.24C132.609 352.307 132.603 352.38 132.589 352.46C132.589 352.527 132.589 352.6 132.589 352.68H123.449V351.62H131.829L131.269 352.04C131.269 351.28 131.103 350.607 130.769 350.02C130.449 349.42 130.009 348.953 129.449 348.62C128.889 348.287 128.243 348.12 127.509 348.12C126.789 348.12 126.143 348.287 125.569 348.62C124.996 348.953 124.549 349.42 124.229 350.02C123.909 350.62 123.749 351.307 123.749 352.08V352.3C123.749 353.1 123.923 353.807 124.269 354.42C124.629 355.02 125.123 355.493 125.749 355.84C126.389 356.173 127.116 356.34 127.929 356.34C128.569 356.34 129.163 356.227 129.709 356C130.269 355.773 130.749 355.427 131.149 354.96L131.949 355.88C131.483 356.44 130.896 356.867 130.189 357.16C129.496 357.453 128.729 357.6 127.889 357.6ZM147.114 357.62C146.061 357.62 145.087 357.447 144.194 357.1C143.301 356.74 142.527 356.24 141.874 355.6C141.221 354.96 140.707 354.207 140.334 353.34C139.974 352.473 139.794 351.527 139.794 350.5C139.794 349.473 139.974 348.527 140.334 347.66C140.707 346.793 141.221 346.04 141.874 345.4C142.541 344.76 143.321 344.267 144.214 343.92C145.107 343.56 146.081 343.38 147.134 343.38C148.147 343.38 149.101 343.553 149.994 343.9C150.887 344.233 151.641 344.74 152.254 345.42L151.314 346.36C150.741 345.773 150.107 345.353 149.414 345.1C148.721 344.833 147.974 344.7 147.174 344.7C146.334 344.7 145.554 344.847 144.834 345.14C144.114 345.42 143.487 345.827 142.954 346.36C142.421 346.88 142.001 347.493 141.694 348.2C141.401 348.893 141.254 349.66 141.254 350.5C141.254 351.34 141.401 352.113 141.694 352.82C142.001 353.513 142.421 354.127 142.954 354.66C143.487 355.18 144.114 355.587 144.834 355.88C145.554 356.16 146.334 356.3 147.174 356.3C147.974 356.3 148.721 356.167 149.414 355.9C150.107 355.633 150.741 355.207 151.314 354.62L152.254 355.56C151.641 356.24 150.887 356.753 149.994 357.1C149.101 357.447 148.141 357.62 147.114 357.62ZM155.109 357.5V342.66H156.529V357.5H155.109ZM167.06 357.5V355.18L167 354.8V350.92C167 350.027 166.747 349.34 166.24 348.86C165.747 348.38 165.007 348.14 164.02 348.14C163.34 348.14 162.693 348.253 162.08 348.48C161.467 348.707 160.947 349.007 160.52 349.38L159.88 348.32C160.413 347.867 161.053 347.52 161.8 347.28C162.547 347.027 163.333 346.9 164.16 346.9C165.52 346.9 166.567 347.24 167.3 347.92C168.047 348.587 168.42 349.607 168.42 350.98V357.5H167.06ZM163.44 357.6C162.653 357.6 161.967 357.473 161.38 357.22C160.807 356.953 160.367 356.593 160.06 356.14C159.753 355.673 159.6 355.14 159.6 354.54C159.6 353.993 159.727 353.5 159.98 353.06C160.247 352.607 160.673 352.247 161.26 351.98C161.86 351.7 162.66 351.56 163.66 351.56H167.28V352.62H163.7C162.687 352.62 161.98 352.8 161.58 353.16C161.193 353.52 161 353.967 161 354.5C161 355.1 161.233 355.58 161.7 355.94C162.167 356.3 162.82 356.48 163.66 356.48C164.46 356.48 165.147 356.3 165.72 355.94C166.307 355.567 166.733 355.033 167 354.34L167.32 355.32C167.053 356.013 166.587 356.567 165.92 356.98C165.267 357.393 164.44 357.6 163.44 357.6ZM172.277 357.5V347H173.697V357.5H172.277ZM172.997 344.68C172.704 344.68 172.457 344.58 172.257 344.38C172.057 344.18 171.957 343.94 171.957 343.66C171.957 343.38 172.057 343.147 172.257 342.96C172.457 342.76 172.704 342.66 172.997 342.66C173.29 342.66 173.537 342.753 173.737 342.94C173.937 343.127 174.037 343.36 174.037 343.64C174.037 343.933 173.937 344.18 173.737 344.38C173.55 344.58 173.304 344.68 172.997 344.68ZM190.768 346.9C191.621 346.9 192.361 347.067 192.988 347.4C193.628 347.72 194.121 348.213 194.468 348.88C194.828 349.547 195.008 350.387 195.008 351.4V357.5H193.588V351.54C193.588 350.433 193.321 349.6 192.788 349.04C192.268 348.467 191.528 348.18 190.568 348.18C189.848 348.18 189.221 348.333 188.688 348.64C188.168 348.933 187.761 349.367 187.468 349.94C187.188 350.5 187.048 351.18 187.048 351.98V357.5H185.628V351.54C185.628 350.433 185.361 349.6 184.828 349.04C184.295 348.467 183.548 348.18 182.588 348.18C181.881 348.18 181.261 348.333 180.728 348.64C180.195 348.933 179.781 349.367 179.488 349.94C179.208 350.5 179.068 351.18 179.068 351.98V357.5H177.648V347H179.008V349.84L178.788 349.34C179.108 348.58 179.621 347.987 180.328 347.56C181.048 347.12 181.895 346.9 182.868 346.9C183.895 346.9 184.768 347.16 185.488 347.68C186.208 348.187 186.675 348.953 186.888 349.98L186.328 349.76C186.635 348.907 187.175 348.22 187.948 347.7C188.735 347.167 189.675 346.9 190.768 346.9ZM201.679 357.6C200.812 357.6 199.992 357.48 199.219 357.24C198.446 356.987 197.839 356.673 197.399 356.3L198.039 355.18C198.466 355.5 199.012 355.78 199.679 356.02C200.346 356.247 201.046 356.36 201.779 356.36C202.779 356.36 203.499 356.207 203.939 355.9C204.379 355.58 204.599 355.16 204.599 354.64C204.599 354.253 204.472 353.953 204.219 353.74C203.979 353.513 203.659 353.347 203.259 353.24C202.859 353.12 202.412 353.02 201.919 352.94C201.426 352.86 200.932 352.767 200.439 352.66C199.959 352.553 199.519 352.4 199.119 352.2C198.719 351.987 198.392 351.7 198.139 351.34C197.899 350.98 197.779 350.5 197.779 349.9C197.779 349.327 197.939 348.813 198.259 348.36C198.579 347.907 199.046 347.553 199.659 347.3C200.286 347.033 201.046 346.9 201.939 346.9C202.619 346.9 203.299 346.993 203.979 347.18C204.659 347.353 205.219 347.587 205.659 347.88L205.039 349.02C204.572 348.7 204.072 348.473 203.539 348.34C203.006 348.193 202.472 348.12 201.939 348.12C200.992 348.12 200.292 348.287 199.839 348.62C199.399 348.94 199.179 349.353 199.179 349.86C199.179 350.26 199.299 350.573 199.539 350.8C199.792 351.027 200.119 351.207 200.519 351.34C200.932 351.46 201.379 351.56 201.859 351.64C202.352 351.72 202.839 351.82 203.319 351.94C203.812 352.047 204.259 352.2 204.659 352.4C205.072 352.587 205.399 352.86 205.639 353.22C205.892 353.567 206.019 354.027 206.019 354.6C206.019 355.213 205.846 355.747 205.499 356.2C205.166 356.64 204.672 356.987 204.019 357.24C203.379 357.48 202.599 357.6 201.679 357.6ZM219.279 357.6C218.372 357.6 217.552 357.393 216.819 356.98C216.086 356.553 215.499 355.947 215.059 355.16C214.632 354.36 214.419 353.387 214.419 352.24C214.419 351.093 214.632 350.127 215.059 349.34C215.486 348.54 216.066 347.933 216.799 347.52C217.532 347.107 218.359 346.9 219.279 346.9C220.279 346.9 221.172 347.127 221.959 347.58C222.759 348.02 223.386 348.647 223.839 349.46C224.292 350.26 224.519 351.187 224.519 352.24C224.519 353.307 224.292 354.24 223.839 355.04C223.386 355.84 222.759 356.467 221.959 356.92C221.172 357.373 220.279 357.6 219.279 357.6ZM213.859 361.38V347H215.219V350.16L215.079 352.26L215.279 354.38V361.38H213.859ZM219.179 356.34C219.926 356.34 220.592 356.173 221.179 355.84C221.766 355.493 222.232 355.013 222.579 354.4C222.926 353.773 223.099 353.053 223.099 352.24C223.099 351.427 222.926 350.713 222.579 350.1C222.232 349.487 221.766 349.007 221.179 348.66C220.592 348.313 219.926 348.14 219.179 348.14C218.432 348.14 217.759 348.313 217.159 348.66C216.572 349.007 216.106 349.487 215.759 350.1C215.426 350.713 215.259 351.427 215.259 352.24C215.259 353.053 215.426 353.773 215.759 354.4C216.106 355.013 216.572 355.493 217.159 355.84C217.759 356.173 218.432 356.34 219.179 356.34ZM227.414 357.5V347H228.774V349.86L228.634 349.36C228.927 348.56 229.42 347.953 230.114 347.54C230.807 347.113 231.667 346.9 232.694 346.9V348.28C232.64 348.28 232.587 348.28 232.534 348.28C232.48 348.267 232.427 348.26 232.374 348.26C231.267 348.26 230.4 348.6 229.774 349.28C229.147 349.947 228.834 350.9 228.834 352.14V357.5H227.414ZM239.467 357.6C238.454 357.6 237.54 357.373 236.727 356.92C235.927 356.453 235.294 355.82 234.827 355.02C234.36 354.207 234.127 353.28 234.127 352.24C234.127 351.187 234.36 350.26 234.827 349.46C235.294 348.66 235.927 348.033 236.727 347.58C237.527 347.127 238.44 346.9 239.467 346.9C240.507 346.9 241.427 347.127 242.227 347.58C243.04 348.033 243.674 348.66 244.127 349.46C244.594 350.26 244.827 351.187 244.827 352.24C244.827 353.28 244.594 354.207 244.127 355.02C243.674 355.82 243.04 356.453 242.227 356.92C241.414 357.373 240.494 357.6 239.467 357.6ZM239.467 356.34C240.227 356.34 240.9 356.173 241.487 355.84C242.074 355.493 242.534 355.013 242.867 354.4C243.214 353.773 243.387 353.053 243.387 352.24C243.387 351.413 243.214 350.693 242.867 350.08C242.534 349.467 242.074 348.993 241.487 348.66C240.9 348.313 240.234 348.14 239.487 348.14C238.74 348.14 238.074 348.313 237.487 348.66C236.9 348.993 236.434 349.467 236.087 350.08C235.74 350.693 235.567 351.413 235.567 352.24C235.567 353.053 235.74 353.773 236.087 354.4C236.434 355.013 236.9 355.493 237.487 355.84C238.074 356.173 238.734 356.34 239.467 356.34ZM252.086 357.6C251.046 357.6 250.113 357.373 249.286 356.92C248.473 356.453 247.833 355.82 247.366 355.02C246.899 354.207 246.666 353.28 246.666 352.24C246.666 351.187 246.899 350.26 247.366 349.46C247.833 348.66 248.473 348.033 249.286 347.58C250.113 347.127 251.046 346.9 252.086 346.9C252.979 346.9 253.786 347.073 254.506 347.42C255.226 347.767 255.793 348.287 256.206 348.98L255.146 349.7C254.786 349.167 254.339 348.773 253.806 348.52C253.273 348.267 252.693 348.14 252.066 348.14C251.319 348.14 250.646 348.313 250.046 348.66C249.446 348.993 248.973 349.467 248.626 350.08C248.279 350.693 248.106 351.413 248.106 352.24C248.106 353.067 248.279 353.787 248.626 354.4C248.973 355.013 249.446 355.493 250.046 355.84C250.646 356.173 251.319 356.34 252.066 356.34C252.693 356.34 253.273 356.213 253.806 355.96C254.339 355.707 254.786 355.32 255.146 354.8L256.206 355.52C255.793 356.2 255.226 356.72 254.506 357.08C253.786 357.427 252.979 357.6 252.086 357.6ZM263.28 357.6C262.187 357.6 261.227 357.373 260.4 356.92C259.573 356.453 258.927 355.82 258.46 355.02C257.993 354.207 257.76 353.28 257.76 352.24C257.76 351.2 257.98 350.28 258.42 349.48C258.873 348.68 259.487 348.053 260.26 347.6C261.047 347.133 261.927 346.9 262.9 346.9C263.887 346.9 264.76 347.127 265.52 347.58C266.293 348.02 266.9 348.647 267.34 349.46C267.78 350.26 268 351.187 268 352.24C268 352.307 267.993 352.38 267.98 352.46C267.98 352.527 267.98 352.6 267.98 352.68H258.84V351.62H267.22L266.66 352.04C266.66 351.28 266.493 350.607 266.16 350.02C265.84 349.42 265.4 348.953 264.84 348.62C264.28 348.287 263.633 348.12 262.9 348.12C262.18 348.12 261.533 348.287 260.96 348.62C260.387 348.953 259.94 349.42 259.62 350.02C259.3 350.62 259.14 351.307 259.14 352.08V352.3C259.14 353.1 259.313 353.807 259.66 354.42C260.02 355.02 260.513 355.493 261.14 355.84C261.78 356.173 262.507 356.34 263.32 356.34C263.96 356.34 264.553 356.227 265.1 356C265.66 355.773 266.14 355.427 266.54 354.96L267.34 355.88C266.873 356.44 266.287 356.867 265.58 357.16C264.887 357.453 264.12 357.6 263.28 357.6ZM273.71 357.6C272.843 357.6 272.023 357.48 271.25 357.24C270.477 356.987 269.87 356.673 269.43 356.3L270.07 355.18C270.497 355.5 271.043 355.78 271.71 356.02C272.377 356.247 273.077 356.36 273.81 356.36C274.81 356.36 275.53 356.207 275.97 355.9C276.41 355.58 276.63 355.16 276.63 354.64C276.63 354.253 276.503 353.953 276.25 353.74C276.01 353.513 275.69 353.347 275.29 353.24C274.89 353.12 274.443 353.02 273.95 352.94C273.457 352.86 272.963 352.767 272.47 352.66C271.99 352.553 271.55 352.4 271.15 352.2C270.75 351.987 270.423 351.7 270.17 351.34C269.93 350.98 269.81 350.5 269.81 349.9C269.81 349.327 269.97 348.813 270.29 348.36C270.61 347.907 271.077 347.553 271.69 347.3C272.317 347.033 273.077 346.9 273.97 346.9C274.65 346.9 275.33 346.993 276.01 347.18C276.69 347.353 277.25 347.587 277.69 347.88L277.07 349.02C276.603 348.7 276.103 348.473 275.57 348.34C275.037 348.193 274.503 348.12 273.97 348.12C273.023 348.12 272.323 348.287 271.87 348.62C271.43 348.94 271.21 349.353 271.21 349.86C271.21 350.26 271.33 350.573 271.57 350.8C271.823 351.027 272.15 351.207 272.55 351.34C272.963 351.46 273.41 351.56 273.89 351.64C274.383 351.72 274.87 351.82 275.35 351.94C275.843 352.047 276.29 352.2 276.69 352.4C277.103 352.587 277.43 352.86 277.67 353.22C277.923 353.567 278.05 354.027 278.05 354.6C278.05 355.213 277.877 355.747 277.53 356.2C277.197 356.64 276.703 356.987 276.05 357.24C275.41 357.48 274.63 357.6 273.71 357.6ZM283.476 357.6C282.609 357.6 281.789 357.48 281.016 357.24C280.242 356.987 279.636 356.673 279.196 356.3L279.836 355.18C280.262 355.5 280.809 355.78 281.476 356.02C282.142 356.247 282.842 356.36 283.576 356.36C284.576 356.36 285.296 356.207 285.736 355.9C286.176 355.58 286.396 355.16 286.396 354.64C286.396 354.253 286.269 353.953 286.016 353.74C285.776 353.513 285.456 353.347 285.056 353.24C284.656 353.12 284.209 353.02 283.716 352.94C283.222 352.86 282.729 352.767 282.236 352.66C281.756 352.553 281.316 352.4 280.916 352.2C280.516 351.987 280.189 351.7 279.936 351.34C279.696 350.98 279.576 350.5 279.576 349.9C279.576 349.327 279.736 348.813 280.056 348.36C280.376 347.907 280.842 347.553 281.456 347.3C282.082 347.033 282.842 346.9 283.736 346.9C284.416 346.9 285.096 346.993 285.776 347.18C286.456 347.353 287.016 347.587 287.456 347.88L286.836 349.02C286.369 348.7 285.869 348.473 285.336 348.34C284.802 348.193 284.269 348.12 283.736 348.12C282.789 348.12 282.089 348.287 281.636 348.62C281.196 348.94 280.976 349.353 280.976 349.86C280.976 350.26 281.096 350.573 281.336 350.8C281.589 351.027 281.916 351.207 282.316 351.34C282.729 351.46 283.176 351.56 283.656 351.64C284.149 351.72 284.636 351.82 285.116 351.94C285.609 352.047 286.056 352.2 286.456 352.4C286.869 352.587 287.196 352.86 287.436 353.22C287.689 353.567 287.816 354.027 287.816 354.6C287.816 355.213 287.642 355.747 287.296 356.2C286.962 356.64 286.469 356.987 285.816 357.24C285.176 357.48 284.396 357.6 283.476 357.6ZM290.421 357.5V347H291.841V357.5H290.421ZM291.141 344.68C290.848 344.68 290.601 344.58 290.401 344.38C290.201 344.18 290.101 343.94 290.101 343.66C290.101 343.38 290.201 343.147 290.401 342.96C290.601 342.76 290.848 342.66 291.141 342.66C291.435 342.66 291.681 342.753 291.881 342.94C292.081 343.127 292.181 343.36 292.181 343.64C292.181 343.933 292.081 344.18 291.881 344.38C291.695 344.58 291.448 344.68 291.141 344.68ZM301.153 346.9C302.006 346.9 302.753 347.067 303.393 347.4C304.046 347.72 304.553 348.213 304.913 348.88C305.286 349.547 305.473 350.387 305.473 351.4V357.5H304.053V351.54C304.053 350.433 303.773 349.6 303.213 349.04C302.666 348.467 301.893 348.18 300.893 348.18C300.146 348.18 299.493 348.333 298.933 348.64C298.386 348.933 297.959 349.367 297.653 349.94C297.359 350.5 297.213 351.18 297.213 351.98V357.5H295.793V347H297.153V349.88L296.933 349.34C297.266 348.58 297.799 347.987 298.533 347.56C299.266 347.12 300.139 346.9 301.153 346.9ZM313.788 361.48C312.828 361.48 311.908 361.34 311.028 361.06C310.148 360.78 309.435 360.38 308.888 359.86L309.608 358.78C310.101 359.22 310.708 359.567 311.428 359.82C312.161 360.087 312.935 360.22 313.748 360.22C315.081 360.22 316.061 359.907 316.688 359.28C317.315 358.667 317.628 357.707 317.628 356.4V353.78L317.828 351.98L317.688 350.18V347H319.048V356.22C319.048 358.033 318.601 359.36 317.708 360.2C316.828 361.053 315.521 361.48 313.788 361.48ZM313.528 357.1C312.528 357.1 311.628 356.887 310.828 356.46C310.028 356.02 309.395 355.413 308.928 354.64C308.475 353.867 308.248 352.98 308.248 351.98C308.248 350.98 308.475 350.1 308.928 349.34C309.395 348.567 310.028 347.967 310.828 347.54C311.628 347.113 312.528 346.9 313.528 346.9C314.461 346.9 315.301 347.093 316.048 347.48C316.795 347.867 317.388 348.44 317.828 349.2C318.268 349.96 318.488 350.887 318.488 351.98C318.488 353.073 318.268 354 317.828 354.76C317.388 355.52 316.795 356.1 316.048 356.5C315.301 356.9 314.461 357.1 313.528 357.1ZM313.668 355.84C314.441 355.84 315.128 355.68 315.728 355.36C316.328 355.027 316.801 354.573 317.148 354C317.495 353.413 317.668 352.74 317.668 351.98C317.668 351.22 317.495 350.553 317.148 349.98C316.801 349.407 316.328 348.96 315.728 348.64C315.128 348.307 314.441 348.14 313.668 348.14C312.908 348.14 312.221 348.307 311.608 348.64C311.008 348.96 310.535 349.407 310.188 349.98C309.855 350.553 309.688 351.22 309.688 351.98C309.688 352.74 309.855 353.413 310.188 354C310.535 354.573 311.008 355.027 311.608 355.36C312.221 355.68 312.908 355.84 313.668 355.84ZM46.68 385.62C45.7733 385.62 44.9667 385.473 44.26 385.18C43.5533 384.873 42.9933 384.453 42.58 383.92C42.18 383.387 41.98 382.767 41.98 382.06C41.98 381.46 42.1133 380.913 42.38 380.42C42.6467 379.913 43.0733 379.42 43.66 378.94C44.26 378.447 45.0533 377.933 46.04 377.4C46.88 376.933 47.5333 376.533 48 376.2C48.48 375.853 48.82 375.527 49.02 375.22C49.22 374.9 49.32 374.56 49.32 374.2C49.32 373.68 49.14 373.26 48.78 372.94C48.4333 372.62 47.9333 372.46 47.28 372.46C46.5733 372.46 46.0267 372.64 45.64 373C45.2533 373.347 45.06 373.8 45.06 374.36C45.06 374.64 45.1 374.907 45.18 375.16C45.2733 375.413 45.44 375.693 45.68 376C45.9333 376.307 46.28 376.693 46.72 377.16L54.12 384.78L53.3 385.72L45.58 377.78C45.1133 377.287 44.74 376.86 44.46 376.5C44.1933 376.127 44.0067 375.773 43.9 375.44C43.7933 375.107 43.74 374.753 43.74 374.38C43.74 373.78 43.88 373.26 44.16 372.82C44.4533 372.367 44.8667 372.02 45.4 371.78C45.9333 371.527 46.56 371.4 47.28 371.4C47.9333 371.4 48.5 371.513 48.98 371.74C49.4733 371.953 49.8533 372.267 50.12 372.68C50.4 373.093 50.54 373.593 50.54 374.18C50.54 374.687 50.4133 375.16 50.16 375.6C49.92 376.04 49.52 376.473 48.96 376.9C48.4 377.313 47.64 377.78 46.68 378.3C45.84 378.767 45.1733 379.193 44.68 379.58C44.2 379.967 43.86 380.347 43.66 380.72C43.46 381.08 43.36 381.48 43.36 381.92C43.36 382.427 43.5 382.873 43.78 383.26C44.0733 383.633 44.4733 383.927 44.98 384.14C45.5 384.34 46.0933 384.44 46.76 384.44C47.6933 384.44 48.5267 384.247 49.26 383.86C49.9933 383.473 50.6067 382.887 51.1 382.1C51.6067 381.313 51.9733 380.327 52.2 379.14L53.34 379.5C53.0867 380.833 52.6533 381.953 52.04 382.86C51.4267 383.767 50.6667 384.453 49.76 384.92C48.8533 385.387 47.8267 385.62 46.68 385.62ZM65.7733 385.6C64.7733 385.6 63.8733 385.373 63.0733 384.92C62.2866 384.467 61.6666 383.84 61.2133 383.04C60.7599 382.227 60.5333 381.293 60.5333 380.24C60.5333 379.173 60.7599 378.24 61.2133 377.44C61.6666 376.64 62.2866 376.02 63.0733 375.58C63.8733 375.127 64.7733 374.9 65.7733 374.9C66.6933 374.9 67.5133 375.107 68.2333 375.52C68.9666 375.933 69.5466 376.54 69.9733 377.34C70.4133 378.127 70.6333 379.093 70.6333 380.24C70.6333 381.373 70.4199 382.34 69.9933 383.14C69.5666 383.94 68.9866 384.553 68.2533 384.98C67.5333 385.393 66.7066 385.6 65.7733 385.6ZM65.8733 384.34C66.6199 384.34 67.2866 384.173 67.8733 383.84C68.4733 383.493 68.9399 383.013 69.2733 382.4C69.6199 381.773 69.7933 381.053 69.7933 380.24C69.7933 379.413 69.6199 378.693 69.2733 378.08C68.9399 377.467 68.4733 376.993 67.8733 376.66C67.2866 376.313 66.6199 376.14 65.8733 376.14C65.1399 376.14 64.4799 376.313 63.8933 376.66C63.3066 376.993 62.8399 377.467 62.4933 378.08C62.1466 378.693 61.9733 379.413 61.9733 380.24C61.9733 381.053 62.1466 381.773 62.4933 382.4C62.8399 383.013 63.3066 383.493 63.8933 383.84C64.4799 384.173 65.1399 384.34 65.8733 384.34ZM69.8333 385.5V382.34L69.9733 380.22L69.7733 378.1V370.66H71.1933V385.5H69.8333ZM81.728 385.5V383.18L81.668 382.8V378.92C81.668 378.027 81.4146 377.34 80.908 376.86C80.4146 376.38 79.6746 376.14 78.688 376.14C78.008 376.14 77.3613 376.253 76.748 376.48C76.1346 376.707 75.6146 377.007 75.188 377.38L74.548 376.32C75.0813 375.867 75.7213 375.52 76.468 375.28C77.2146 375.027 78.0013 374.9 78.828 374.9C80.188 374.9 81.2346 375.24 81.968 375.92C82.7146 376.587 83.088 377.607 83.088 378.98V385.5H81.728ZM78.108 385.6C77.3213 385.6 76.6346 385.473 76.048 385.22C75.4746 384.953 75.0346 384.593 74.728 384.14C74.4213 383.673 74.268 383.14 74.268 382.54C74.268 381.993 74.3946 381.5 74.648 381.06C74.9146 380.607 75.3413 380.247 75.928 379.98C76.528 379.7 77.328 379.56 78.328 379.56H81.948V380.62H78.368C77.3546 380.62 76.648 380.8 76.248 381.16C75.8613 381.52 75.668 381.967 75.668 382.5C75.668 383.1 75.9013 383.58 76.368 383.94C76.8346 384.3 77.488 384.48 78.328 384.48C79.128 384.48 79.8146 384.3 80.388 383.94C80.9746 383.567 81.4013 383.033 81.668 382.34L81.988 383.32C81.7213 384.013 81.2546 384.567 80.588 384.98C79.9346 385.393 79.108 385.6 78.108 385.6ZM100.065 374.9C100.918 374.9 101.658 375.067 102.285 375.4C102.925 375.72 103.418 376.213 103.765 376.88C104.125 377.547 104.305 378.387 104.305 379.4V385.5H102.885V379.54C102.885 378.433 102.618 377.6 102.085 377.04C101.565 376.467 100.825 376.18 99.8648 376.18C99.1448 376.18 98.5182 376.333 97.9848 376.64C97.4648 376.933 97.0582 377.367 96.7648 377.94C96.4848 378.5 96.3448 379.18 96.3448 379.98V385.5H94.9248V379.54C94.9248 378.433 94.6582 377.6 94.1248 377.04C93.5915 376.467 92.8448 376.18 91.8848 376.18C91.1782 376.18 90.5582 376.333 90.0248 376.64C89.4915 376.933 89.0782 377.367 88.7848 377.94C88.5048 378.5 88.3648 379.18 88.3648 379.98V385.5H86.9448V375H88.3048V377.84L88.0848 377.34C88.4048 376.58 88.9182 375.987 89.6248 375.56C90.3448 375.12 91.1915 374.9 92.1648 374.9C93.1915 374.9 94.0648 375.16 94.7848 375.68C95.5048 376.187 95.9715 376.953 96.1848 377.98L95.6248 377.76C95.9315 376.907 96.4715 376.22 97.2448 375.7C98.0315 375.167 98.9715 374.9 100.065 374.9ZM114.736 385.5V383.18L114.676 382.8V378.92C114.676 378.027 114.422 377.34 113.916 376.86C113.422 376.38 112.682 376.14 111.696 376.14C111.016 376.14 110.369 376.253 109.756 376.48C109.142 376.707 108.622 377.007 108.196 377.38L107.556 376.32C108.089 375.867 108.729 375.52 109.476 375.28C110.222 375.027 111.009 374.9 111.836 374.9C113.196 374.9 114.242 375.24 114.976 375.92C115.722 376.587 116.096 377.607 116.096 378.98V385.5H114.736ZM111.116 385.6C110.329 385.6 109.642 385.473 109.056 385.22C108.482 384.953 108.042 384.593 107.736 384.14C107.429 383.673 107.276 383.14 107.276 382.54C107.276 381.993 107.402 381.5 107.656 381.06C107.922 380.607 108.349 380.247 108.936 379.98C109.536 379.7 110.336 379.56 111.336 379.56H114.956V380.62H111.376C110.362 380.62 109.656 380.8 109.256 381.16C108.869 381.52 108.676 381.967 108.676 382.5C108.676 383.1 108.909 383.58 109.376 383.94C109.842 384.3 110.496 384.48 111.336 384.48C112.136 384.48 112.822 384.3 113.396 383.94C113.982 383.567 114.409 383.033 114.676 382.34L114.996 383.32C114.729 384.013 114.262 384.567 113.596 384.98C112.942 385.393 112.116 385.6 111.116 385.6ZM124.433 389.48C123.473 389.48 122.553 389.34 121.673 389.06C120.793 388.78 120.079 388.38 119.533 387.86L120.253 386.78C120.746 387.22 121.353 387.567 122.073 387.82C122.806 388.087 123.579 388.22 124.393 388.22C125.726 388.22 126.706 387.907 127.333 387.28C127.959 386.667 128.273 385.707 128.273 384.4V381.78L128.473 379.98L128.333 378.18V375H129.693V384.22C129.693 386.033 129.246 387.36 128.353 388.2C127.473 389.053 126.166 389.48 124.433 389.48ZM124.173 385.1C123.173 385.1 122.273 384.887 121.473 384.46C120.673 384.02 120.039 383.413 119.573 382.64C119.119 381.867 118.893 380.98 118.893 379.98C118.893 378.98 119.119 378.1 119.573 377.34C120.039 376.567 120.673 375.967 121.473 375.54C122.273 375.113 123.173 374.9 124.173 374.9C125.106 374.9 125.946 375.093 126.693 375.48C127.439 375.867 128.033 376.44 128.473 377.2C128.913 377.96 129.133 378.887 129.133 379.98C129.133 381.073 128.913 382 128.473 382.76C128.033 383.52 127.439 384.1 126.693 384.5C125.946 384.9 125.106 385.1 124.173 385.1ZM124.313 383.84C125.086 383.84 125.773 383.68 126.373 383.36C126.973 383.027 127.446 382.573 127.793 382C128.139 381.413 128.313 380.74 128.313 379.98C128.313 379.22 128.139 378.553 127.793 377.98C127.446 377.407 126.973 376.96 126.373 376.64C125.773 376.307 125.086 376.14 124.313 376.14C123.553 376.14 122.866 376.307 122.253 376.64C121.653 376.96 121.179 377.407 120.833 377.98C120.499 378.553 120.333 379.22 120.333 379.98C120.333 380.74 120.499 381.413 120.833 382C121.179 382.573 121.653 383.027 122.253 383.36C122.866 383.68 123.553 383.84 124.313 383.84ZM138.104 385.6C137.011 385.6 136.051 385.373 135.224 384.92C134.397 384.453 133.751 383.82 133.284 383.02C132.817 382.207 132.584 381.28 132.584 380.24C132.584 379.2 132.804 378.28 133.244 377.48C133.697 376.68 134.311 376.053 135.084 375.6C135.871 375.133 136.751 374.9 137.724 374.9C138.711 374.9 139.584 375.127 140.344 375.58C141.117 376.02 141.724 376.647 142.164 377.46C142.604 378.26 142.824 379.187 142.824 380.24C142.824 380.307 142.817 380.38 142.804 380.46C142.804 380.527 142.804 380.6 142.804 380.68H133.664V379.62H142.044L141.484 380.04C141.484 379.28 141.317 378.607 140.984 378.02C140.664 377.42 140.224 376.953 139.664 376.62C139.104 376.287 138.457 376.12 137.724 376.12C137.004 376.12 136.357 376.287 135.784 376.62C135.211 376.953 134.764 377.42 134.444 378.02C134.124 378.62 133.964 379.307 133.964 380.08V380.3C133.964 381.1 134.137 381.807 134.484 382.42C134.844 383.02 135.337 383.493 135.964 383.84C136.604 384.173 137.331 384.34 138.144 384.34C138.784 384.34 139.377 384.227 139.924 384C140.484 383.773 140.964 383.427 141.364 382.96L142.164 383.88C141.697 384.44 141.111 384.867 140.404 385.16C139.711 385.453 138.944 385.6 138.104 385.6ZM157.529 385.5V383.18L157.469 382.8V378.92C157.469 378.027 157.215 377.34 156.709 376.86C156.215 376.38 155.475 376.14 154.489 376.14C153.809 376.14 153.162 376.253 152.549 376.48C151.935 376.707 151.415 377.007 150.989 377.38L150.349 376.32C150.882 375.867 151.522 375.52 152.269 375.28C153.015 375.027 153.802 374.9 154.629 374.9C155.989 374.9 157.035 375.24 157.769 375.92C158.515 376.587 158.889 377.607 158.889 378.98V385.5H157.529ZM153.909 385.6C153.122 385.6 152.435 385.473 151.849 385.22C151.275 384.953 150.835 384.593 150.529 384.14C150.222 383.673 150.069 383.14 150.069 382.54C150.069 381.993 150.195 381.5 150.449 381.06C150.715 380.607 151.142 380.247 151.729 379.98C152.329 379.7 153.129 379.56 154.129 379.56H157.749V380.62H154.169C153.155 380.62 152.449 380.8 152.049 381.16C151.662 381.52 151.469 381.967 151.469 382.5C151.469 383.1 151.702 383.58 152.169 383.94C152.635 384.3 153.289 384.48 154.129 384.48C154.929 384.48 155.615 384.3 156.189 383.94C156.775 383.567 157.202 383.033 157.469 382.34L157.789 383.32C157.522 384.013 157.055 384.567 156.389 384.98C155.735 385.393 154.909 385.6 153.909 385.6ZM165.566 385.6C164.699 385.6 163.879 385.48 163.106 385.24C162.332 384.987 161.726 384.673 161.286 384.3L161.926 383.18C162.352 383.5 162.899 383.78 163.566 384.02C164.232 384.247 164.932 384.36 165.666 384.36C166.666 384.36 167.386 384.207 167.826 383.9C168.266 383.58 168.486 383.16 168.486 382.64C168.486 382.253 168.359 381.953 168.106 381.74C167.866 381.513 167.546 381.347 167.146 381.24C166.746 381.12 166.299 381.02 165.806 380.94C165.312 380.86 164.819 380.767 164.326 380.66C163.846 380.553 163.406 380.4 163.006 380.2C162.606 379.987 162.279 379.7 162.026 379.34C161.786 378.98 161.666 378.5 161.666 377.9C161.666 377.327 161.826 376.813 162.146 376.36C162.466 375.907 162.932 375.553 163.546 375.3C164.172 375.033 164.932 374.9 165.826 374.9C166.506 374.9 167.186 374.993 167.866 375.18C168.546 375.353 169.106 375.587 169.546 375.88L168.926 377.02C168.459 376.7 167.959 376.473 167.426 376.34C166.892 376.193 166.359 376.12 165.826 376.12C164.879 376.12 164.179 376.287 163.726 376.62C163.286 376.94 163.066 377.353 163.066 377.86C163.066 378.26 163.186 378.573 163.426 378.8C163.679 379.027 164.006 379.207 164.406 379.34C164.819 379.46 165.266 379.56 165.746 379.64C166.239 379.72 166.726 379.82 167.206 379.94C167.699 380.047 168.146 380.2 168.546 380.4C168.959 380.587 169.286 380.86 169.526 381.22C169.779 381.567 169.906 382.027 169.906 382.6C169.906 383.213 169.732 383.747 169.386 384.2C169.052 384.64 168.559 384.987 167.906 385.24C167.266 385.48 166.486 385.6 165.566 385.6ZM175.331 385.6C174.465 385.6 173.645 385.48 172.871 385.24C172.098 384.987 171.491 384.673 171.051 384.3L171.691 383.18C172.118 383.5 172.665 383.78 173.331 384.02C173.998 384.247 174.698 384.36 175.431 384.36C176.431 384.36 177.151 384.207 177.591 383.9C178.031 383.58 178.251 383.16 178.251 382.64C178.251 382.253 178.125 381.953 177.871 381.74C177.631 381.513 177.311 381.347 176.911 381.24C176.511 381.12 176.065 381.02 175.571 380.94C175.078 380.86 174.585 380.767 174.091 380.66C173.611 380.553 173.171 380.4 172.771 380.2C172.371 379.987 172.045 379.7 171.791 379.34C171.551 378.98 171.431 378.5 171.431 377.9C171.431 377.327 171.591 376.813 171.911 376.36C172.231 375.907 172.698 375.553 173.311 375.3C173.938 375.033 174.698 374.9 175.591 374.9C176.271 374.9 176.951 374.993 177.631 375.18C178.311 375.353 178.871 375.587 179.311 375.88L178.691 377.02C178.225 376.7 177.725 376.473 177.191 376.34C176.658 376.193 176.125 376.12 175.591 376.12C174.645 376.12 173.945 376.287 173.491 376.62C173.051 376.94 172.831 377.353 172.831 377.86C172.831 378.26 172.951 378.573 173.191 378.8C173.445 379.027 173.771 379.207 174.171 379.34C174.585 379.46 175.031 379.56 175.511 379.64C176.005 379.72 176.491 379.82 176.971 379.94C177.465 380.047 177.911 380.2 178.311 380.4C178.725 380.587 179.051 380.86 179.291 381.22C179.545 381.567 179.671 382.027 179.671 382.6C179.671 383.213 179.498 383.747 179.151 384.2C178.818 384.64 178.325 384.987 177.671 385.24C177.031 385.48 176.251 385.6 175.331 385.6ZM186.737 385.6C185.644 385.6 184.684 385.373 183.857 384.92C183.03 384.453 182.384 383.82 181.917 383.02C181.45 382.207 181.217 381.28 181.217 380.24C181.217 379.2 181.437 378.28 181.877 377.48C182.33 376.68 182.944 376.053 183.717 375.6C184.504 375.133 185.384 374.9 186.357 374.9C187.344 374.9 188.217 375.127 188.977 375.58C189.75 376.02 190.357 376.647 190.797 377.46C191.237 378.26 191.457 379.187 191.457 380.24C191.457 380.307 191.45 380.38 191.437 380.46C191.437 380.527 191.437 380.6 191.437 380.68H182.297V379.62H190.677L190.117 380.04C190.117 379.28 189.95 378.607 189.617 378.02C189.297 377.42 188.857 376.953 188.297 376.62C187.737 376.287 187.09 376.12 186.357 376.12C185.637 376.12 184.99 376.287 184.417 376.62C183.844 376.953 183.397 377.42 183.077 378.02C182.757 378.62 182.597 379.307 182.597 380.08V380.3C182.597 381.1 182.77 381.807 183.117 382.42C183.477 383.02 183.97 383.493 184.597 383.84C185.237 384.173 185.964 384.34 186.777 384.34C187.417 384.34 188.01 384.227 188.557 384C189.117 383.773 189.597 383.427 189.997 382.96L190.797 383.88C190.33 384.44 189.744 384.867 189.037 385.16C188.344 385.453 187.577 385.6 186.737 385.6ZM197.167 385.6C196.301 385.6 195.481 385.48 194.707 385.24C193.934 384.987 193.327 384.673 192.887 384.3L193.527 383.18C193.954 383.5 194.501 383.78 195.167 384.02C195.834 384.247 196.534 384.36 197.267 384.36C198.267 384.36 198.987 384.207 199.427 383.9C199.867 383.58 200.087 383.16 200.087 382.64C200.087 382.253 199.961 381.953 199.707 381.74C199.467 381.513 199.147 381.347 198.747 381.24C198.347 381.12 197.901 381.02 197.407 380.94C196.914 380.86 196.421 380.767 195.927 380.66C195.447 380.553 195.007 380.4 194.607 380.2C194.207 379.987 193.881 379.7 193.627 379.34C193.387 378.98 193.267 378.5 193.267 377.9C193.267 377.327 193.427 376.813 193.747 376.36C194.067 375.907 194.534 375.553 195.147 375.3C195.774 375.033 196.534 374.9 197.427 374.9C198.107 374.9 198.787 374.993 199.467 375.18C200.147 375.353 200.707 375.587 201.147 375.88L200.527 377.02C200.061 376.7 199.561 376.473 199.027 376.34C198.494 376.193 197.961 376.12 197.427 376.12C196.481 376.12 195.781 376.287 195.327 376.62C194.887 376.94 194.667 377.353 194.667 377.86C194.667 378.26 194.787 378.573 195.027 378.8C195.281 379.027 195.607 379.207 196.007 379.34C196.421 379.46 196.867 379.56 197.347 379.64C197.841 379.72 198.327 379.82 198.807 379.94C199.301 380.047 199.747 380.2 200.147 380.4C200.561 380.587 200.887 380.86 201.127 381.22C201.381 381.567 201.507 382.027 201.507 382.6C201.507 383.213 201.334 383.747 200.987 384.2C200.654 384.64 200.161 384.987 199.507 385.24C198.867 385.48 198.087 385.6 197.167 385.6ZM206.933 385.6C206.066 385.6 205.246 385.48 204.473 385.24C203.699 384.987 203.093 384.673 202.653 384.3L203.293 383.18C203.719 383.5 204.266 383.78 204.933 384.02C205.599 384.247 206.299 384.36 207.033 384.36C208.033 384.36 208.753 384.207 209.193 383.9C209.633 383.58 209.853 383.16 209.853 382.64C209.853 382.253 209.726 381.953 209.473 381.74C209.233 381.513 208.913 381.347 208.513 381.24C208.113 381.12 207.666 381.02 207.173 380.94C206.679 380.86 206.186 380.767 205.693 380.66C205.213 380.553 204.773 380.4 204.373 380.2C203.973 379.987 203.646 379.7 203.393 379.34C203.153 378.98 203.033 378.5 203.033 377.9C203.033 377.327 203.193 376.813 203.513 376.36C203.833 375.907 204.299 375.553 204.913 375.3C205.539 375.033 206.299 374.9 207.193 374.9C207.873 374.9 208.553 374.993 209.233 375.18C209.913 375.353 210.473 375.587 210.913 375.88L210.293 377.02C209.826 376.7 209.326 376.473 208.793 376.34C208.259 376.193 207.726 376.12 207.193 376.12C206.246 376.12 205.546 376.287 205.093 376.62C204.653 376.94 204.433 377.353 204.433 377.86C204.433 378.26 204.553 378.573 204.793 378.8C205.046 379.027 205.373 379.207 205.773 379.34C206.186 379.46 206.633 379.56 207.113 379.64C207.606 379.72 208.093 379.82 208.573 379.94C209.066 380.047 209.513 380.2 209.913 380.4C210.326 380.587 210.653 380.86 210.893 381.22C211.146 381.567 211.273 382.027 211.273 382.6C211.273 383.213 211.099 383.747 210.753 384.2C210.419 384.64 209.926 384.987 209.273 385.24C208.633 385.48 207.853 385.6 206.933 385.6ZM226.998 374.9C227.852 374.9 228.592 375.067 229.218 375.4C229.858 375.72 230.352 376.213 230.698 376.88C231.058 377.547 231.238 378.387 231.238 379.4V385.5H229.818V379.54C229.818 378.433 229.552 377.6 229.018 377.04C228.498 376.467 227.758 376.18 226.798 376.18C226.078 376.18 225.452 376.333 224.918 376.64C224.398 376.933 223.992 377.367 223.698 377.94C223.418 378.5 223.278 379.18 223.278 379.98V385.5H221.858V379.54C221.858 378.433 221.592 377.6 221.058 377.04C220.525 376.467 219.778 376.18 218.818 376.18C218.112 376.18 217.492 376.333 216.958 376.64C216.425 376.933 216.012 377.367 215.718 377.94C215.438 378.5 215.298 379.18 215.298 379.98V385.5H213.878V375H215.238V377.84L215.018 377.34C215.338 376.58 215.852 375.987 216.558 375.56C217.278 375.12 218.125 374.9 219.098 374.9C220.125 374.9 220.998 375.16 221.718 375.68C222.438 376.187 222.905 376.953 223.118 377.98L222.558 377.76C222.865 376.907 223.405 376.22 224.178 375.7C224.965 375.167 225.905 374.9 226.998 374.9ZM239.549 385.6C238.456 385.6 237.496 385.373 236.669 384.92C235.843 384.453 235.196 383.82 234.729 383.02C234.263 382.207 234.029 381.28 234.029 380.24C234.029 379.2 234.249 378.28 234.689 377.48C235.143 376.68 235.756 376.053 236.529 375.6C237.316 375.133 238.196 374.9 239.169 374.9C240.156 374.9 241.029 375.127 241.789 375.58C242.563 376.02 243.169 376.647 243.609 377.46C244.049 378.26 244.269 379.187 244.269 380.24C244.269 380.307 244.263 380.38 244.249 380.46C244.249 380.527 244.249 380.6 244.249 380.68H235.109V379.62H243.489L242.929 380.04C242.929 379.28 242.763 378.607 242.429 378.02C242.109 377.42 241.669 376.953 241.109 376.62C240.549 376.287 239.903 376.12 239.169 376.12C238.449 376.12 237.803 376.287 237.229 376.62C236.656 376.953 236.209 377.42 235.889 378.02C235.569 378.62 235.409 379.307 235.409 380.08V380.3C235.409 381.1 235.583 381.807 235.929 382.42C236.289 383.02 236.783 383.493 237.409 383.84C238.049 384.173 238.776 384.34 239.589 384.34C240.229 384.34 240.823 384.227 241.369 384C241.929 383.773 242.409 383.427 242.809 382.96L243.609 383.88C243.143 384.44 242.556 384.867 241.849 385.16C241.156 385.453 240.389 385.6 239.549 385.6ZM252.52 374.9C253.373 374.9 254.12 375.067 254.76 375.4C255.413 375.72 255.92 376.213 256.28 376.88C256.653 377.547 256.84 378.387 256.84 379.4V385.5H255.42V379.54C255.42 378.433 255.14 377.6 254.58 377.04C254.033 376.467 253.26 376.18 252.26 376.18C251.513 376.18 250.86 376.333 250.3 376.64C249.753 376.933 249.326 377.367 249.02 377.94C248.726 378.5 248.58 379.18 248.58 379.98V385.5H247.16V375H248.52V377.88L248.3 377.34C248.633 376.58 249.166 375.987 249.9 375.56C250.633 375.12 251.506 374.9 252.52 374.9ZM263.995 385.6C263.009 385.6 262.249 385.333 261.715 384.8C261.182 384.267 260.915 383.513 260.915 382.54V372.68H262.335V382.46C262.335 383.073 262.489 383.547 262.795 383.88C263.115 384.213 263.569 384.38 264.155 384.38C264.782 384.38 265.302 384.2 265.715 383.84L266.215 384.86C265.935 385.113 265.595 385.3 265.195 385.42C264.809 385.54 264.409 385.6 263.995 385.6ZM259.035 376.18V375H265.535V376.18H259.035Z" fill="black"/>
<path d="M278.245 130.118C278.245 130.118 305.487 137.928 299.939 109.806C294.391 81.6851 282.302 70.6704 275.781 69.4221C269.259 68.1738 258.481 75.9792 262.361 102.497L278.245 130.118Z" fill="black"/>
<path d="M244.839 106.761L238.469 115.14C233.468 107.72 229.106 98.7771 224.87 94.3853C216.621 85.8321 218.012 92.6708 220.849 96.8523C220.849 96.8523 217.381 95.2354 216.61 99.1492C216.61 99.1492 213.988 99.4378 214.799 102.683C214.799 102.683 211.799 104.648 216.979 108.402C216.979 108.402 220.48 120.216 226.721 132.314C230.863 140.461 242.358 140.75 246.903 132.822L256.268 116.485L244.839 106.761Z" fill="white"/>
<path d="M236.967 138.797C236.863 138.797 236.76 138.796 236.656 138.794C232.304 138.684 228.524 136.295 226.545 132.404C220.605 120.887 217.101 109.484 216.81 108.522C214.742 107.012 213.709 105.591 213.739 104.299C213.761 103.373 214.329 102.807 214.578 102.603C214.329 101.515 214.433 100.631 214.888 99.9751C215.379 99.2673 216.131 99.0424 216.444 98.9771C216.701 97.8075 217.228 97.0121 218.012 96.6122C218.856 96.1817 219.791 96.3154 220.37 96.4751C219.02 94.2976 217.798 91.1193 218.826 90.2794C219.701 89.5633 221.782 90.8995 225.012 94.2479C227.678 97.0125 230.392 101.566 233.265 106.387C234.938 109.194 236.667 112.094 238.479 114.801L244.683 106.641C244.716 106.598 244.765 106.57 244.818 106.565C244.873 106.558 244.926 106.575 244.967 106.61L256.395 116.335C256.468 116.396 256.486 116.501 256.439 116.584L247.073 132.921C244.954 136.617 241.193 138.797 236.967 138.797ZM219.288 96.7199C218.928 96.7199 218.545 96.7828 218.188 96.9654C217.489 97.3231 217.023 98.0707 216.803 99.1875C216.786 99.2721 216.716 99.3361 216.631 99.3455C216.622 99.3465 215.723 99.458 215.208 100.205C214.806 100.788 214.733 101.606 214.99 102.635C215.01 102.717 214.977 102.802 214.907 102.848C214.876 102.869 214.152 103.361 214.132 104.315C214.109 105.462 215.133 106.82 217.095 108.242C217.13 108.267 217.156 108.304 217.168 108.346C217.203 108.464 220.736 120.282 226.895 132.223C228.808 135.985 232.46 138.293 236.666 138.399C240.875 138.502 244.634 136.383 246.732 132.724L256.016 116.53L244.87 107.046L238.626 115.259C238.587 115.31 238.526 115.34 238.464 115.337C238.4 115.335 238.342 115.303 238.306 115.25C236.432 112.469 234.651 109.48 232.928 106.59C230.066 101.789 227.364 97.2545 224.729 94.5225C220.445 90.0807 219.318 90.3867 219.075 90.5856C218.361 91.1685 219.339 94.275 221.012 96.7411C221.062 96.8144 221.057 96.9121 221 96.9798C220.942 97.0476 220.847 97.0685 220.767 97.0313C220.757 97.0268 220.081 96.7198 219.288 96.7198L219.288 96.7199Z" fill="black"/>
<path d="M227.629 110.982C226.687 110.982 225.873 110.316 225.431 109.687C224.987 109.055 224.731 108.321 224.484 107.611C224.423 107.436 224.362 107.26 224.298 107.086C224.023 106.339 223.611 105.414 222.853 104.89C222.493 104.64 222.078 104.492 221.64 104.335C221.438 104.263 221.229 104.188 221.026 104.103C220.439 103.856 219.696 103.398 219.49 102.616C219.213 101.569 220.106 100.544 221.08 100.278C222.036 100.017 223.029 100.279 223.96 100.6C226.41 101.446 228.452 102.594 230.03 104.011C230.111 104.084 230.118 104.209 230.045 104.29C229.973 104.371 229.848 104.378 229.767 104.305C228.229 102.923 226.232 101.802 223.832 100.973C222.96 100.673 222.036 100.426 221.183 100.659C220.389 100.876 219.659 101.715 219.87 102.515C220.036 103.141 220.673 103.526 221.178 103.739C221.371 103.82 221.575 103.893 221.772 103.963C222.215 104.122 222.674 104.286 223.077 104.565C223.926 105.152 224.373 106.148 224.667 106.95C224.732 107.126 224.794 107.303 224.855 107.481C225.094 108.165 225.34 108.873 225.752 109.46C226.183 110.071 227.008 110.727 227.916 110.561C228.023 110.542 228.126 110.613 228.145 110.72C228.165 110.828 228.094 110.93 227.987 110.95C227.866 110.972 227.747 110.982 227.629 110.982Z" fill="black"/>
<path d="M221.794 106.168C221.226 106.168 220.705 105.894 220.35 105.677C218.33 104.445 216.984 102.209 216.837 99.8414C216.83 99.7327 216.912 99.6389 217.021 99.6321C217.13 99.6252 217.223 99.7081 217.23 99.8169C217.369 102.057 218.643 104.174 220.554 105.34C221.106 105.676 221.549 105.811 221.948 105.764C222.372 105.714 222.819 105.353 222.782 104.916C222.773 104.807 222.854 104.712 222.962 104.702C223.075 104.693 223.165 104.774 223.174 104.883C223.23 105.555 222.61 106.084 221.994 106.156C221.927 106.164 221.86 106.168 221.794 106.168Z" fill="black"/>
<path d="M219.264 106.627C218.938 106.627 218.583 106.54 218.17 106.362C216.787 105.768 215.666 104.627 215.094 103.232C215.053 103.131 215.1 103.016 215.201 102.974C215.302 102.933 215.417 102.981 215.458 103.082C215.991 104.382 217.036 105.446 218.324 105.999C218.789 106.199 219.157 106.267 219.482 106.214C219.81 106.161 220.177 105.921 220.242 105.566C220.262 105.459 220.362 105.387 220.471 105.407C220.578 105.427 220.648 105.53 220.629 105.637C220.541 106.117 220.095 106.515 219.545 106.604C219.453 106.619 219.36 106.627 219.264 106.627L219.264 106.627Z" fill="black"/>
<path d="M217.353 107.93C217.158 107.93 216.964 107.89 216.788 107.806C216.69 107.76 216.648 107.642 216.694 107.543C216.741 107.445 216.858 107.403 216.956 107.449C217.27 107.598 217.665 107.554 217.94 107.341C218.214 107.127 218.355 106.754 218.289 106.412C218.269 106.305 218.339 106.201 218.445 106.181C218.553 106.16 218.656 106.23 218.676 106.337C218.769 106.822 218.57 107.351 218.181 107.653C217.946 107.836 217.649 107.931 217.353 107.931V107.93Z" fill="black"/>
<path d="M297.612 167.57H241.68C241.68 167.57 248.339 148.604 252.05 140.906L285.882 143.437L297.612 167.571L297.612 167.57Z" fill="white"/>
<path d="M297.612 167.768H241.68C241.616 167.768 241.556 167.737 241.52 167.685C241.483 167.632 241.473 167.565 241.495 167.505C241.561 167.315 248.199 148.44 251.872 140.82C251.908 140.747 251.984 140.702 252.064 140.709L285.896 143.24C285.966 143.246 286.028 143.288 286.058 143.351L297.789 167.484C297.818 167.545 297.815 167.617 297.779 167.675C297.743 167.733 297.68 167.768 297.612 167.768H297.612ZM241.959 167.373H297.297L285.754 143.626L252.169 141.113C248.733 148.291 242.773 165.067 241.959 167.373Z" fill="black"/>
<path d="M284.551 144.212C284.541 144.261 252.193 142.715 252.193 142.715V118.591L243.646 106.761C243.646 106.761 251.48 95.8494 272.271 99.2655C290.842 102.317 296.022 114.256 296.022 114.256L281.112 124.121L284.551 144.211V144.212Z" fill="#195DFF"/>
<path d="M244.933 150.095H266.734C267.622 150.095 268.282 149.269 268.088 148.398L260.52 114.449C260.29 113.419 259.379 112.686 258.327 112.686H236.833C235.747 112.686 234.94 113.696 235.177 114.76L242.644 148.255C242.884 149.33 243.835 150.095 244.933 150.095Z" fill="black"/>
<path d="M294.669 115.14L281.112 124.121L279.86 135.56C279.86 135.56 265.17 125.478 261.051 123.387C256.931 121.297 250.466 121.14 249.394 122.423C248.322 123.706 251.551 124.577 251.551 124.577C251.551 124.577 247.297 124.693 247.262 125.928C247.227 127.164 252.805 128.749 252.805 128.749C252.805 128.749 248.593 127.792 247.529 128.682C246.464 129.572 247.148 130.795 251.628 132.153C251.628 132.153 249.113 131.75 248.841 133.25C248.637 134.37 255.601 137.019 259.466 138.101C259.466 138.101 267.926 147.128 277.987 154.32C283.416 158.202 291.028 156.064 293.633 149.907C297.086 141.743 299.928 129.618 294.669 115.14H294.669Z" fill="white"/>
<path d="M284.035 156.469C281.851 156.469 279.704 155.79 277.873 154.481C267.912 147.36 259.408 138.327 259.323 138.236C259.249 138.157 259.252 138.032 259.331 137.957C259.41 137.883 259.535 137.886 259.61 137.966C259.694 138.056 268.173 147.062 278.101 154.16C280.646 155.979 283.828 156.535 286.831 155.684C289.824 154.836 292.237 152.702 293.452 149.83C298.31 138.346 298.658 126.697 294.484 115.207C294.447 115.105 294.5 114.991 294.602 114.954C294.703 114.917 294.817 114.969 294.854 115.072C299.063 126.659 298.713 138.405 293.814 149.984C292.552 152.967 290.046 155.183 286.938 156.064C285.98 156.335 285.004 156.469 284.035 156.469H284.035Z" fill="black"/>
<path d="M257.661 126.522C257.629 126.522 257.597 126.514 257.567 126.498C255.832 125.544 253.872 124.958 251.899 124.805C251.791 124.797 251.71 124.702 251.718 124.593C251.727 124.485 251.82 124.404 251.93 124.412C253.958 124.569 255.973 125.17 257.756 126.151C257.851 126.204 257.886 126.324 257.834 126.419C257.798 126.485 257.731 126.522 257.661 126.522L257.661 126.522Z" fill="black"/>
<path d="M256.305 130.243C256.278 130.243 256.25 130.237 256.224 130.225C255.19 129.751 254.112 129.349 253.021 129.032C252.917 129.001 252.857 128.892 252.887 128.787C252.917 128.682 253.026 128.622 253.131 128.652C254.24 128.975 255.336 129.383 256.388 129.866C256.486 129.911 256.53 130.028 256.485 130.128C256.452 130.2 256.38 130.243 256.306 130.243L256.305 130.243Z" fill="black"/>
<path d="M255.83 133.69C255.803 133.69 255.776 133.684 255.751 133.673C254.492 133.117 253.171 132.695 251.824 132.421C251.717 132.399 251.648 132.295 251.67 132.188C251.691 132.081 251.794 132.012 251.902 132.034C253.277 132.314 254.625 132.744 255.909 133.312C256.009 133.356 256.054 133.472 256.01 133.572C255.978 133.646 255.905 133.69 255.83 133.69Z" fill="black"/>
<path d="M285.775 140.602C285.732 140.602 285.688 140.588 285.652 140.559L279.973 135.988C279.888 135.919 279.874 135.795 279.942 135.71C280.01 135.625 280.134 135.611 280.219 135.679L285.898 140.25C285.983 140.319 285.996 140.443 285.928 140.528C285.89 140.577 285.832 140.602 285.775 140.602Z" fill="black"/>
<path d="M278.489 86.8232L276.024 99.4988L279.347 101.026C279.347 101.026 269.318 116.491 264.082 119.73C264.082 119.73 262.566 107.743 264.863 98.6046L268.135 98.4072L270.238 91.0029L278.489 86.8232Z" fill="white"/>
<path d="M268.928 77.9509C268.928 77.9509 264.432 89.6229 268.103 92.502C271.774 95.3812 277.678 88.757 277.678 88.757C277.678 88.757 281.356 88.9584 281.356 85.363C281.356 83.0866 278.202 83.0965 277.495 85.363C277.495 85.363 276.036 85.8856 276.185 84.9164C276.335 83.9472 277.76 77.6295 268.928 77.9508L268.928 77.9509Z" fill="white"/>
<path d="M270.249 93.4323C269.455 93.4323 268.683 93.2077 267.982 92.6577C264.239 89.722 268.559 78.3617 268.745 77.8797C268.773 77.806 268.843 77.7564 268.921 77.7535C271.967 77.6432 274.142 78.306 275.381 79.7254C276.958 81.5316 276.539 84.0012 276.402 84.8127L276.38 84.9468C276.348 85.1564 276.416 85.2132 276.438 85.2317C276.596 85.3626 277.031 85.301 277.34 85.2065C277.8 83.892 279.051 83.3378 280.019 83.4865C280.761 83.6003 281.553 84.1529 281.553 85.363C281.553 86.4625 281.221 87.3351 280.567 87.9561C279.569 88.9048 278.143 88.9579 277.763 88.9567C277.216 89.5552 273.544 93.4322 270.249 93.4322V93.4323ZM269.066 78.1439C268.605 79.3894 264.906 89.744 268.224 92.3465C268.838 92.8278 269.523 93.0264 270.234 93.0264C273.563 93.0267 277.483 88.6789 277.531 88.6254C277.571 88.5808 277.629 88.5561 277.688 88.5599C277.703 88.5607 279.286 88.6322 280.299 87.6676C280.87 87.1241 281.159 86.3487 281.159 85.3631C281.159 84.5478 280.711 83.9922 279.96 83.877C279.131 83.7496 278.049 84.2477 277.683 85.4221C277.664 85.4812 277.619 85.5282 277.561 85.549C277.464 85.5838 276.601 85.8792 276.187 85.5362C276.067 85.4365 275.936 85.2429 275.991 84.8862C275.997 84.8478 276.005 84.801 276.014 84.7466C276.144 83.9809 276.538 81.6507 275.085 79.9857C273.945 78.6798 271.915 78.0617 269.066 78.1439Z" fill="black"/>
<path d="M277.696 87.7863C277.669 87.7863 277.642 87.781 277.617 87.7696C277.517 87.7256 277.472 87.6091 277.516 87.5093C277.832 86.7876 278.699 86.2899 279.572 86.3217C279.681 86.3259 279.766 86.4176 279.761 86.5265C279.757 86.6358 279.658 86.7193 279.557 86.7164C278.846 86.6906 278.126 87.0983 277.876 87.6683C277.843 87.7423 277.771 87.7863 277.696 87.7863Z" fill="black"/>
<path d="M167.18 75.4417H57.9637C56.7287 75.4417 55.7275 76.4464 55.7275 77.6858V218.443C55.7275 219.683 56.7287 220.688 57.9637 220.688H167.18C168.415 220.688 169.416 219.683 169.416 218.443V77.6858C169.416 76.4464 168.415 75.4417 167.18 75.4417Z" fill="white"/>
<path d="M167.18 220.885H57.9636C56.6221 220.885 55.5308 219.79 55.5308 218.443V77.6858C55.5308 76.3395 56.6221 75.2442 57.9636 75.2442H167.18C168.521 75.2442 169.612 76.3395 169.612 77.6858V218.443C169.612 219.79 168.521 220.885 167.18 220.885ZM57.9636 75.6391C56.8391 75.6391 55.9242 76.5573 55.9242 77.6858V218.443C55.9242 219.572 56.8391 220.49 57.9636 220.49H167.18C168.304 220.49 169.219 219.572 169.219 218.443V77.6858C169.219 76.5573 168.304 75.6391 167.18 75.6391H57.9636Z" fill="black"/>
<path d="M163.505 214.954H61.6381C61.5294 214.954 61.4414 214.865 61.4414 214.756V81.3731C61.4414 81.264 61.5294 81.1756 61.6381 81.1756H163.505C163.614 81.1756 163.702 81.264 163.702 81.3731V214.756C163.702 214.865 163.614 214.954 163.505 214.954ZM61.8349 214.559H163.309V81.5705H61.8349V214.559Z" fill="black"/>
<path d="M136.103 87.0536H89.0403C85.0223 87.0536 81.7651 83.7848 81.7651 79.7525V69.2961H143.378V79.7525C143.378 83.7848 140.121 87.0536 136.103 87.0536Z" fill="#E2EAFF"/>
<path d="M155.329 121.17H121.436C121.327 121.17 121.239 121.081 121.239 120.972C121.239 120.863 121.327 120.775 121.436 120.775H155.329C155.438 120.775 155.526 120.863 155.526 120.972C155.526 121.081 155.438 121.17 155.329 121.17Z" fill="black"/>
<path d="M109.464 121.17H94.33C94.2213 121.17 94.1333 121.081 94.1333 120.972C94.1333 120.863 94.2213 120.775 94.33 120.775H109.464C109.573 120.775 109.661 120.863 109.661 120.972C109.661 121.081 109.573 121.17 109.464 121.17Z" fill="black"/>
<path d="M155.33 129.901H131.601C131.492 129.901 131.404 129.813 131.404 129.704C131.404 129.595 131.492 129.506 131.601 129.506H155.33C155.438 129.506 155.526 129.595 155.526 129.704C155.526 129.813 155.438 129.901 155.33 129.901Z" fill="black"/>
<path d="M123.921 129.901H94.33C94.2213 129.901 94.1333 129.813 94.1333 129.704C94.1333 129.595 94.2213 129.506 94.33 129.506H123.921C124.029 129.506 124.117 129.595 124.117 129.704C124.117 129.813 124.029 129.901 123.921 129.901Z" fill="black"/>
<path d="M155.329 138.633H118.675C118.567 138.633 118.479 138.544 118.479 138.435C118.479 138.326 118.567 138.238 118.675 138.238H155.329C155.438 138.238 155.526 138.326 155.526 138.435C155.526 138.544 155.438 138.633 155.329 138.633Z" fill="black"/>
<path d="M109.64 138.633H94.33C94.2213 138.633 94.1333 138.544 94.1333 138.435C94.1333 138.326 94.2213 138.238 94.33 138.238H109.64C109.748 138.238 109.836 138.326 109.836 138.435C109.836 138.544 109.748 138.633 109.64 138.633Z" fill="black"/>
<path d="M87.2438 138.633H69.8427C69.734 138.633 69.646 138.544 69.646 138.435V120.972C69.646 120.863 69.734 120.775 69.8427 120.775H86.2474C86.3562 120.775 86.4442 120.863 86.4442 120.972C86.4442 121.081 86.3562 121.17 86.2474 121.17H70.0396V138.238H87.0472V125.664C87.0472 125.555 87.1352 125.466 87.2439 125.466C87.3526 125.466 87.4406 125.555 87.4406 125.664V138.435C87.4406 138.544 87.3526 138.633 87.2438 138.633Z" fill="black"/>
<path d="M78.5435 135.635H78.5434C78.4799 135.635 78.4204 135.604 78.3835 135.553L71.566 125.974C71.5027 125.885 71.5234 125.762 71.6117 125.698C71.7001 125.635 71.8229 125.656 71.8861 125.744L78.544 135.099L90.2658 118.707C90.3291 118.618 90.4518 118.598 90.5404 118.661C90.6287 118.725 90.6489 118.848 90.5855 118.937L78.7035 135.553C78.6666 135.605 78.6071 135.635 78.5436 135.635L78.5435 135.635Z" fill="black"/>
<path d="M155.329 150.167H121.436C121.327 150.167 121.239 150.079 121.239 149.97C121.239 149.861 121.327 149.772 121.436 149.772H155.329C155.438 149.772 155.526 149.861 155.526 149.97C155.526 150.079 155.438 150.167 155.329 150.167Z" fill="black"/>
<path d="M109.464 150.167H94.33C94.2213 150.167 94.1333 150.079 94.1333 149.97C94.1333 149.861 94.2213 149.772 94.33 149.772H109.464C109.573 149.772 109.661 149.861 109.661 149.97C109.661 150.079 109.573 150.167 109.464 150.167Z" fill="black"/>
<path d="M155.33 158.898H131.601C131.492 158.898 131.404 158.81 131.404 158.701C131.404 158.592 131.492 158.504 131.601 158.504H155.33C155.438 158.504 155.526 158.592 155.526 158.701C155.526 158.81 155.438 158.898 155.33 158.898Z" fill="black"/>
<path d="M123.921 158.898H94.33C94.2213 158.898 94.1333 158.81 94.1333 158.701C94.1333 158.592 94.2213 158.504 94.33 158.504H123.921C124.029 158.504 124.117 158.592 124.117 158.701C124.117 158.81 124.029 158.898 123.921 158.898Z" fill="black"/>
<path d="M155.329 167.63H118.675C118.567 167.63 118.479 167.542 118.479 167.433C118.479 167.324 118.567 167.235 118.675 167.235H155.329C155.438 167.235 155.526 167.324 155.526 167.433C155.526 167.542 155.438 167.63 155.329 167.63Z" fill="black"/>
<path d="M109.64 167.63H94.33C94.2213 167.63 94.1333 167.542 94.1333 167.433C94.1333 167.324 94.2213 167.235 94.33 167.235H109.64C109.748 167.235 109.836 167.324 109.836 167.433C109.836 167.542 109.748 167.63 109.64 167.63Z" fill="black"/>
<path d="M87.2438 167.63H69.8427C69.734 167.63 69.646 167.541 69.646 167.432V149.969C69.646 149.86 69.734 149.772 69.8427 149.772H86.2474C86.3562 149.772 86.4442 149.86 86.4442 149.969C86.4442 150.078 86.3562 150.167 86.2474 150.167H70.0396V167.235H87.0472V154.661C87.0472 154.552 87.1352 154.463 87.2439 154.463C87.3526 154.463 87.4406 154.552 87.4406 154.661V167.432C87.4406 167.541 87.3526 167.63 87.2438 167.63Z" fill="black"/>
<path d="M78.5435 164.633H78.5434C78.4799 164.632 78.4204 164.602 78.3835 164.55L71.566 154.971C71.5027 154.882 71.5234 154.759 71.6117 154.696C71.7001 154.632 71.8229 154.653 71.8861 154.742L78.544 164.096L90.2658 147.704C90.3291 147.615 90.4518 147.595 90.5404 147.659C90.6287 147.722 90.6489 147.846 90.5855 147.934L78.7035 164.55C78.6666 164.602 78.607 164.633 78.5435 164.633Z" fill="black"/>
<path d="M155.329 179.164H121.436C121.327 179.164 121.239 179.076 121.239 178.967C121.239 178.858 121.327 178.769 121.436 178.769H155.329C155.438 178.769 155.526 178.858 155.526 178.967C155.526 179.076 155.438 179.164 155.329 179.164Z" fill="black"/>
<path d="M109.464 179.164H94.33C94.2213 179.164 94.1333 179.076 94.1333 178.967C94.1333 178.858 94.2213 178.769 94.33 178.769H109.464C109.573 178.769 109.661 178.858 109.661 178.967C109.661 179.076 109.573 179.164 109.464 179.164Z" fill="black"/>
<path d="M155.33 187.896H131.601C131.492 187.896 131.404 187.807 131.404 187.698C131.404 187.589 131.492 187.501 131.601 187.501H155.33C155.438 187.501 155.526 187.589 155.526 187.698C155.526 187.807 155.438 187.896 155.33 187.896Z" fill="black"/>
<path d="M123.921 187.896H94.33C94.2213 187.896 94.1333 187.807 94.1333 187.698C94.1333 187.589 94.2213 187.501 94.33 187.501H123.921C124.029 187.501 124.117 187.589 124.117 187.698C124.117 187.807 124.029 187.896 123.921 187.896Z" fill="black"/>
<path d="M155.329 196.627H118.675C118.567 196.627 118.479 196.539 118.479 196.43C118.479 196.321 118.567 196.232 118.675 196.232H155.329C155.438 196.232 155.526 196.321 155.526 196.43C155.526 196.539 155.438 196.627 155.329 196.627Z" fill="black"/>
<path d="M109.64 196.627H94.33C94.2213 196.627 94.1333 196.539 94.1333 196.43C94.1333 196.321 94.2213 196.232 94.33 196.232H109.64C109.748 196.232 109.836 196.321 109.836 196.43C109.836 196.539 109.748 196.627 109.64 196.627Z" fill="black"/>
<path d="M87.2438 196.627H69.8427C69.734 196.627 69.646 196.539 69.646 196.43V178.967C69.646 178.858 69.734 178.769 69.8427 178.769H86.2474C86.3562 178.769 86.4442 178.858 86.4442 178.967C86.4442 179.076 86.3562 179.164 86.2474 179.164H70.0396V196.232H87.0472V183.658C87.0472 183.549 87.1352 183.461 87.2439 183.461C87.3526 183.461 87.4406 183.549 87.4406 183.658V196.43C87.4406 196.539 87.3526 196.627 87.2438 196.627Z" fill="black"/>
<path d="M78.5435 193.63H78.5434C78.4799 193.63 78.4204 193.599 78.3835 193.547L71.566 183.969C71.5027 183.88 71.5234 183.757 71.6117 183.693C71.7001 183.63 71.8229 183.65 71.8861 183.739L78.544 193.093L90.2658 176.701C90.3291 176.613 90.4518 176.592 90.5404 176.656C90.6287 176.72 90.6489 176.843 90.5855 176.932L78.7035 193.548C78.6666 193.599 78.607 193.63 78.5435 193.63Z" fill="black"/>
<path d="M155.329 95.5663H69.8428V110.878H155.329V95.5663Z" fill="#E2EAFF"/>
<path d="M191.751 113.016C198.554 106.189 198.554 95.1189 191.751 88.2913C184.947 81.4636 173.917 81.4636 167.114 88.2913C160.31 95.1189 160.31 106.189 167.114 113.016C173.917 119.844 184.947 119.844 191.751 113.016Z" fill="white"/>
<path d="M179.432 118.335C169.717 118.335 161.814 110.403 161.814 100.654C161.814 90.9046 169.717 82.9731 179.432 82.9731C189.146 82.9731 197.05 90.9047 197.05 100.654C197.05 110.403 189.146 118.335 179.432 118.335ZM179.432 83.368C169.934 83.368 162.207 91.1224 162.207 100.654C162.207 110.185 169.934 117.94 179.432 117.94C188.929 117.94 196.656 110.185 196.656 100.654C196.656 91.1224 188.929 83.368 179.432 83.368Z" fill="#195DFF"/>
<path d="M189.117 110.373C194.466 105.005 194.466 96.3022 189.117 90.9343C183.768 85.5664 175.096 85.5664 169.747 90.9343C164.398 96.3022 164.398 105.005 169.747 110.373C175.096 115.741 183.768 115.741 189.117 110.373Z" fill="white"/>
<path d="M179.432 114.597C171.771 114.597 165.539 108.342 165.539 100.654C165.539 92.9657 171.771 86.711 179.432 86.711C187.092 86.711 193.325 92.9657 193.325 100.654C193.325 108.342 187.093 114.597 179.432 114.597ZM179.432 87.1059C171.988 87.1059 165.932 93.1835 165.932 100.654C165.932 108.124 171.988 114.202 179.432 114.202C186.876 114.202 192.932 108.124 192.932 100.654C192.932 93.1835 186.876 87.1059 179.432 87.1059Z" fill="#195DFF"/>
<path d="M181.255 113.017C188.058 106.189 188.058 95.1191 181.255 88.2914C174.451 81.4637 163.421 81.4637 156.617 88.2914C149.814 95.1191 149.814 106.189 156.617 113.017C163.421 119.844 174.451 119.844 181.255 113.017Z" fill="white"/>
<path d="M168.936 118.335C159.222 118.335 151.318 110.403 151.318 100.654C151.318 90.9046 159.222 82.9732 168.936 82.9732C178.651 82.9732 186.554 90.9047 186.554 100.654C186.554 110.403 178.651 118.335 168.936 118.335ZM168.936 83.3681C159.439 83.3681 151.712 91.1224 151.712 100.654C151.712 110.185 159.439 117.94 168.936 117.94C178.434 117.94 186.161 110.185 186.161 100.654C186.161 91.1224 178.434 83.3681 168.936 83.3681Z" fill="#195DFF"/>
<path d="M178.621 110.373C183.97 105.005 183.97 96.3023 178.621 90.9344C173.272 85.5665 164.6 85.5665 159.251 90.9344C153.902 96.3023 153.902 105.005 159.251 110.373C164.6 115.741 173.272 115.741 178.621 110.373Z" fill="white"/>
<path d="M168.936 114.597C161.275 114.597 155.043 108.342 155.043 100.654C155.043 92.9658 161.275 86.711 168.936 86.711C176.597 86.711 182.83 92.9658 182.83 100.654C182.83 108.342 176.597 114.597 168.936 114.597ZM168.936 87.1059C161.492 87.1059 155.436 93.1836 155.436 100.654C155.436 108.124 161.492 114.202 168.936 114.202C176.38 114.202 182.436 108.124 182.436 100.654C182.436 93.1836 176.38 87.1059 168.936 87.1059Z" fill="#195DFF"/>
<path d="M170.759 113.017C177.562 106.189 177.562 95.119 170.759 88.2913C163.955 81.4636 152.925 81.4636 146.121 88.2913C139.318 95.119 139.318 106.189 146.121 113.017C152.925 119.844 163.955 119.844 170.759 113.017Z" fill="#195DFF"/>
<path d="M158.44 114.597C150.779 114.597 144.546 108.342 144.546 100.654C144.546 92.9657 150.779 86.7109 158.44 86.7109C166.101 86.7109 172.333 92.9657 172.333 100.654C172.333 108.342 166.1 114.597 158.44 114.597ZM158.44 87.1058C150.996 87.1058 144.94 93.1835 144.94 100.654C144.94 108.124 150.996 114.202 158.44 114.202C165.884 114.202 171.939 108.124 171.939 100.654C171.939 93.1835 165.884 87.1058 158.44 87.1058Z" fill="white"/>
<path d="M157.544 111.512V108.841C156.015 108.814 154.434 108.338 153.511 107.677L154.144 105.904C155.093 106.539 156.463 107.042 157.939 107.042C159.811 107.042 161.076 105.957 161.076 104.45C161.076 102.995 160.048 102.096 158.097 101.302C155.409 100.244 153.748 99.0272 153.748 96.726C153.748 94.5304 155.304 92.864 157.729 92.4673V89.7957H159.362V92.3614C160.944 92.4143 162.025 92.8376 162.789 93.2872L162.13 95.0331C161.576 94.7157 160.496 94.1337 158.809 94.1337C156.78 94.1337 156.015 95.3505 156.015 96.4086C156.015 97.784 156.99 98.4718 159.283 99.424C161.998 100.535 163.369 101.91 163.369 104.265C163.369 106.354 161.919 108.312 159.204 108.761V111.512H157.544L157.544 111.512Z" fill="white"/>
<path d="M128.456 202.392H143.585C145.691 202.392 147.402 204.109 147.402 206.223V229.353C147.402 231.467 145.692 233.184 143.585 233.184H128.456C126.349 233.184 124.639 231.467 124.639 229.353V206.223C124.639 204.109 126.349 202.392 128.456 202.392Z" fill="white"/>
<path d="M143.585 233.381H128.456C126.242 233.381 124.442 231.574 124.442 229.353V206.223C124.442 204.002 126.242 202.195 128.456 202.195H143.585C145.798 202.195 147.599 204.002 147.599 206.223V229.353C147.599 231.574 145.798 233.381 143.585 233.381ZM128.456 202.59C126.459 202.59 124.835 204.22 124.835 206.223V229.353C124.835 231.356 126.459 232.986 128.456 232.986H143.585C145.581 232.986 147.205 231.356 147.205 229.353V206.223C147.205 204.22 145.581 202.59 143.585 202.59H128.456Z" fill="black"/>
<path d="M262.416 227.489L252.164 232.762C250.287 233.726 247.987 232.982 247.026 231.099L231.827 201.333C230.866 199.451 231.607 197.142 233.483 196.177L243.736 190.905C245.613 189.94 247.913 190.684 248.874 192.567L264.073 222.333C265.034 224.216 264.293 226.524 262.416 227.489Z" fill="white"/>
<path d="M250.427 233.382C250.013 233.382 249.597 233.317 249.191 233.186C248.171 232.856 247.34 232.147 246.851 231.189L231.652 201.423C230.643 199.447 231.424 197.014 233.394 196.001L243.647 190.729C245.617 189.716 248.04 190.5 249.049 192.477L264.248 222.243C264.737 223.2 264.825 224.292 264.496 225.316C264.167 226.34 263.461 227.174 262.507 227.665L252.254 232.937C251.679 233.233 251.055 233.383 250.427 233.383L250.427 233.382ZM245.471 190.681C244.916 190.681 244.353 190.809 243.826 191.08L233.573 196.353C231.797 197.266 231.092 199.46 232.002 201.243L247.201 231.009C247.642 231.873 248.392 232.513 249.312 232.81C250.232 233.108 251.213 233.028 252.074 232.586L262.327 227.313C263.188 226.871 263.825 226.118 264.122 225.195C264.418 224.271 264.339 223.287 263.898 222.423L248.699 192.657C248.059 191.403 246.787 190.681 245.471 190.681Z" fill="black"/>
<path d="M255.837 157.1L249.962 157.951C248.616 158.146 247.624 159.205 247.624 160.449V164.49C247.624 165.498 246.946 166.403 245.916 166.769L245.755 166.826C240.832 154.478 233.844 140.473 230.315 137.255C223.811 131.323 150.228 131.819 144.268 137.255C139.046 142.017 132.824 155.075 128.499 166.737C127.515 166.354 126.871 165.471 126.871 164.49V160.449C126.871 159.205 125.88 158.146 124.533 157.951L118.658 157.1C115.463 156.638 112.572 158.889 112.572 161.839C112.572 163.863 113.964 165.669 116.052 166.354L127.309 170.049C125.746 174.541 124.527 178.666 123.833 181.816C122.32 188.686 123.823 209.844 123.823 209.844C123.823 209.844 133.858 214.03 137.446 214.639C161.947 218.802 212.636 218.802 237.137 214.639C240.726 214.03 250.76 209.844 250.76 209.844C254.692 201.161 241.68 203.029 250.878 190.793C253.284 187.593 243.242 186.468 242.753 184.247C242.08 181.192 248.735 174.63 247.027 170.101L258.443 166.354C260.531 165.669 261.923 163.863 261.923 161.839C261.923 158.889 259.032 156.638 255.837 157.1V157.1Z" fill="#195DFF"/>
<path d="M241.375 164.554C236.838 153.644 230.989 142.183 227.916 139.38C221.774 133.779 152.295 134.247 146.667 139.38C142.097 143.549 136.715 154.446 132.701 164.786C156.933 160.626 216.553 160.29 241.375 164.554Z" fill="white"/>
<path d="M157.555 214.566C175.958 216.064 198.625 216.064 217.029 214.566L215.829 207.618C215.207 204.021 212.35 201.419 209.022 201.419H165.561C162.233 201.419 159.376 204.021 158.755 207.618L157.555 214.566Z" fill="white"/>
<path d="M203.27 203.928H171.313V213.449H203.27V203.928Z" fill="white"/>
<path d="M203.27 213.646H171.313C171.205 213.646 171.117 213.558 171.117 213.449V203.928C171.117 203.819 171.205 203.731 171.313 203.731H203.27C203.378 203.731 203.466 203.819 203.466 203.928V213.449C203.466 213.558 203.378 213.646 203.27 213.646ZM171.51 213.251H203.073V204.125H171.51V213.251Z" fill="black"/>
<path d="M209.975 187.979C195.937 187.278 178.646 187.278 164.608 187.979L165.523 191.231C165.997 192.915 168.177 194.133 170.715 194.133H203.868C206.406 194.133 208.586 192.915 209.059 191.231L209.975 187.979Z" fill="white"/>
<path d="M142.213 210.274L129.624 207.847C128.515 207.633 127.911 206.536 128.386 205.598L130.158 202.096C130.503 201.414 131.32 201.041 132.126 201.196L145.634 203.8C146.891 204.042 147.452 205.388 146.689 206.331L143.997 209.655C143.587 210.162 142.889 210.404 142.213 210.274Z" fill="white"/>
<path d="M152.337 189.432L144.453 192.669C143.789 192.942 143.026 192.925 142.377 192.625L129.593 186.712C129.037 186.455 128.612 186.01 128.408 185.473L127.423 182.878C126.793 181.216 128.454 179.587 130.318 180.04L151.97 185.311C153.023 185.567 153.756 186.437 153.756 187.431C153.756 188.294 153.201 189.078 152.337 189.432H152.337Z" fill="white"/>
<path d="M232.604 210.274L245.193 207.847C246.302 207.633 246.905 206.536 246.431 205.598L244.659 202.096C244.313 201.414 243.497 201.041 242.691 201.196L229.183 203.8C227.926 204.042 227.365 205.388 228.128 206.331L230.819 209.655C231.23 210.162 231.928 210.404 232.604 210.273L232.604 210.274Z" fill="white"/>
<path d="M232.711 213.646C232.702 213.646 232.693 213.646 232.684 213.645L222.954 212.294C222.881 212.284 222.819 212.233 222.795 212.163L219.46 202.485L215.118 196.547C215.057 196.464 215.07 196.348 215.147 196.28L220.197 191.889C218.521 188.075 215.723 182.036 215.167 181.663C215.092 181.612 215.053 181.53 215.064 181.442C215.094 181.199 215.142 180.794 229.422 175.391C236.426 172.741 243.509 170.161 243.58 170.136C243.682 170.098 243.795 170.151 243.832 170.254C243.869 170.356 243.816 170.47 243.714 170.507C233.001 174.407 216.996 180.422 215.525 181.469C216.593 182.727 220.19 190.893 220.616 191.863C220.65 191.943 220.63 192.035 220.565 192.092L215.542 196.46L219.795 202.276C219.806 202.292 219.815 202.309 219.822 202.328L223.127 211.92L232.738 213.253C232.845 213.268 232.92 213.368 232.905 213.476C232.892 213.575 232.808 213.646 232.711 213.646L232.711 213.646Z" fill="black"/>
<path d="M225.59 196.627C225.574 196.627 225.559 196.625 225.544 196.622C225.47 196.604 225.413 196.545 225.398 196.471L222.789 184.288C222.777 184.237 222.788 184.182 222.817 184.138C222.846 184.094 222.891 184.063 222.943 184.053L239.794 180.755C239.9 180.734 240.004 180.804 240.024 180.911C240.045 181.018 239.976 181.122 239.869 181.143L223.215 184.402L225.696 195.988L232.569 187.573C232.584 187.555 232.601 187.54 232.621 187.528L239.732 183.344C239.826 183.289 239.946 183.32 240.001 183.414C240.056 183.508 240.025 183.629 239.931 183.685L232.851 187.851L225.742 196.555C225.704 196.601 225.648 196.627 225.59 196.627V196.627Z" fill="black"/>
<path d="M217.562 89.9931H196.23C196.122 89.9931 196.034 89.9047 196.034 89.7956C196.034 89.6866 196.122 89.5982 196.23 89.5982H217.562C217.67 89.5982 217.758 89.6866 217.758 89.7956C217.758 89.9047 217.67 89.9931 217.562 89.9931Z" fill="black"/>
<path d="M220.698 92.2481C222.048 90.8936 222.048 88.6976 220.698 87.3431C219.348 85.9887 217.16 85.9887 215.81 87.3431C214.461 88.6976 214.461 90.8936 215.81 92.2481C217.16 93.6025 219.348 93.6025 220.698 92.2481Z" fill="#195DFF"/>
</svg>
