<svg width="164" height="164" viewBox="0 0 164 164" fill="none" xmlns="http://www.w3.org/2000/svg">
<g opacity="0.2">
<path d="M81.7283 57.1013H79.0299C74.3078 57.1013 70.4851 60.9176 70.4851 65.6319V71.5809L70.9349 73.6013L71.3846 92.7952L70.71 94.1421L70.5976 101.663C70.5976 105.703 73.8581 109.071 77.9056 109.183H78.018H81.8407" stroke="#262626" stroke-linecap="round" stroke-linejoin="round"/>
<path d="M81.7282 65.5197C77.1185 64.9584 72.8461 67.6523 71.2721 72.0298L72.1715 72.5911C73.2958 76.7441 73.858 81.0094 73.7456 85.2748C73.858 94.1421 73.1834 101.214 73.1834 101.214" stroke="#262626" stroke-linecap="round" stroke-linejoin="round"/>
<path d="M81.7282 104.918C77.0061 104.918 71.497 103.795 71.2721 92.9074" stroke="#262626" stroke-linecap="round" stroke-linejoin="round"/>
<path d="M70.7099 73.7136L68.7986 74.1625" stroke="#262626" stroke-linecap="round" stroke-linejoin="round"/>
<path d="M81.7282 96.1625C79.0299 96.1625 76.2191 95.8258 73.5208 95.3768" stroke="#262626" stroke-linecap="round" stroke-linejoin="round"/>
<path d="M81.7283 76.6319C78.805 76.4074 75.9943 76.9686 73.2959 77.9788" stroke="#262626" stroke-linecap="round" stroke-linejoin="round"/>
<path d="M81.7282 57.1013H84.4266C89.1488 57.1013 92.9714 60.9176 92.9714 65.6319V71.5809L92.5217 73.6013L92.072 92.7952L92.7466 94.1421L92.859 101.663C92.859 105.703 89.5985 109.071 85.5509 109.183H85.4385H81.6158" stroke="#262626" stroke-linecap="round" stroke-linejoin="round"/>
<path d="M81.7281 65.5197C86.3378 64.9584 90.6103 67.6523 92.1843 72.0298L91.2848 72.5911C90.1605 76.7441 89.5984 81.0094 89.7108 85.2748C89.5984 94.1421 90.273 101.214 90.273 101.214" stroke="#262626" stroke-linecap="round" stroke-linejoin="round"/>
<path d="M81.7281 104.918C86.4503 104.918 91.9595 103.795 92.1843 92.9074" stroke="#262626" stroke-linecap="round" stroke-linejoin="round"/>
<path d="M92.634 73.7136L94.5454 74.1625" stroke="#262626" stroke-linecap="round" stroke-linejoin="round"/>
<path d="M81.7281 96.1625C84.4265 96.1625 87.2373 95.8258 89.9357 95.3768" stroke="#262626" stroke-linecap="round" stroke-linejoin="round"/>
<path d="M81.7281 76.6319C84.6514 76.4074 87.4622 76.9686 90.1605 77.9788" stroke="#262626" stroke-linecap="round" stroke-linejoin="round"/>
</g>
<path d="M31.0247 92.5H12.6983C11.4616 92.5 10.3373 91.4898 10.3373 90.1429V77.3469C10.3373 76.1123 11.3492 74.9898 12.6983 74.9898H31.0247C32.2614 74.9898 33.3857 76 33.3857 77.3469V90.2551C33.2733 91.4898 32.2614 92.5 31.0247 92.5Z" fill="white" stroke="black" stroke-miterlimit="10"/>
<path d="M33.2733 80.3775L39.3446 77.0102V88.4592L33.2733 85.9898V80.3775Z" fill="white" stroke="black" stroke-miterlimit="10"/>
<path d="M132.088 74.9898H150.414C151.651 74.9898 152.775 76 152.775 77.3469V90.2551C152.775 91.4898 151.763 92.6123 150.414 92.6123H132.088C130.851 92.6123 129.727 91.6021 129.727 90.2551V77.3469C129.727 76 130.739 74.9898 132.088 74.9898Z" fill="white" stroke="black" stroke-miterlimit="10"/>
<path d="M129.727 87.1123L123.655 90.4796V79.0306L129.727 81.5V87.1123Z" fill="white" stroke="black" stroke-miterlimit="10"/>
<path d="M72.7303 30.9898V12.6939C72.7303 11.4592 73.7422 10.3367 75.0914 10.3367H88.021C89.2578 10.3367 90.3821 11.3469 90.3821 12.6939V30.9898C90.3821 32.2245 89.3702 33.3469 88.021 33.3469H75.0914C73.7422 33.2347 72.7303 32.2245 72.7303 30.9898Z" fill="white" stroke="black" stroke-miterlimit="10"/>
<path d="M84.8729 33.2347L88.2459 39.2959H75.6536L79.2514 33.2347H84.8729Z" fill="white" stroke="black" stroke-miterlimit="10"/>
<path d="M90.2696 132.122V150.418C90.2696 151.653 89.2578 152.776 87.9086 152.776H75.0914C73.8547 152.776 72.7303 151.765 72.7303 150.418V132.122C72.7303 130.888 73.7422 129.765 75.0914 129.765H88.021C89.2578 129.765 90.2696 130.776 90.2696 132.122Z" fill="white" stroke="black" stroke-miterlimit="10"/>
<path d="M79.2514 129.765L75.8784 123.704H87.3464L84.8729 129.765H79.2514Z" fill="white" stroke="black" stroke-miterlimit="10"/>
<path opacity="0.1" d="M81.6124 133.806C108.934 133.806 131.082 111.695 131.082 84.4184C131.082 57.1423 108.934 35.0306 81.6124 35.0306C54.291 35.0306 32.1426 57.1423 32.1426 84.4184C32.1426 111.695 54.291 133.806 81.6124 133.806Z" stroke="black" stroke-miterlimit="10"/>
</svg>
