<svg width="64" height="58" viewBox="0 0 64 58" fill="none" xmlns="http://www.w3.org/2000/svg">
<path d="M42.4326 43.1969L51.6822 39.4971C52.7347 39.0492 54.0859 39.3663 54.6879 40.2003C55.2894 41.0343 54.9931 42.2099 54.0283 42.8122L37.6155 53.2569C36.6514 53.8585 34.9449 54.1566 33.8239 53.9197L18.9277 50.5688" stroke="black" stroke-width="2" stroke-miterlimit="10" stroke-linecap="round" stroke-linejoin="round"/>
<path d="M18.9282 39.6936H22.8023C25.1321 39.6936 27.0673 40.028 28.2127 40.4364L28.2635 40.4561C29.4081 40.8641 31.343 41.1989 32.5639 41.1989H40.2178C41.4017 41.1989 42.378 42.0883 42.433 43.1971C42.4349 43.2294 42.4359 43.2629 42.4359 43.2964C42.4359 43.4339 42.4211 43.568 42.3942 43.7C42.194 44.6621 41.2923 45.3931 40.2178 45.3931H32.5639C32.5639 45.3931 30.5669 45.286 28.9404 46.6486" stroke="black" stroke-width="2" stroke-miterlimit="10" stroke-linecap="round" stroke-linejoin="round"/>
<path d="M15.3779 53.5097H17.7118C18.3843 53.5097 18.9292 52.9815 18.9292 52.3292V50.5691V39.9793V38.3069C18.9292 37.6547 18.3843 37.1265 17.7118 37.1265H15.3779" stroke="black" stroke-width="2" stroke-miterlimit="10" stroke-linecap="round" stroke-linejoin="round"/>
<path d="M22.5669 14.8042L13.3172 18.5039C12.2648 18.9518 10.9136 18.6348 10.3115 17.8008C9.70994 16.9668 10.0063 15.7912 10.971 15.1889L27.3839 4.74427C28.3478 4.14251 30.0544 3.84445 31.1755 4.08144L46.0715 7.43233" stroke="black" stroke-width="2" stroke-miterlimit="10" stroke-linecap="round" stroke-linejoin="round"/>
<path d="M46.071 18.3077H42.1969C39.8671 18.3077 37.932 17.9733 36.7865 17.5648L36.7358 17.5452C35.5912 17.137 33.6563 16.8024 32.4353 16.8024H24.7815C23.5976 16.8024 22.6214 15.9129 22.5664 14.8042C22.5644 14.7717 22.5635 14.7384 22.5635 14.7048C22.5635 14.5673 22.5781 14.4331 22.6051 14.3012C22.8052 13.3391 23.7069 12.608 24.7815 12.608H32.4353C32.4353 12.608 34.4323 12.7152 36.0588 11.3525" stroke="black" stroke-width="2" stroke-miterlimit="10" stroke-linecap="round" stroke-linejoin="round"/>
<path d="M49.6227 4.4917H47.2888C46.6163 4.4917 46.0713 5.02009 46.0713 5.67222V7.4323V18.0221V19.6945C46.0713 20.3466 46.6162 20.8748 47.2888 20.8748H49.6227" stroke="black" stroke-width="2" stroke-miterlimit="10" stroke-linecap="round" stroke-linejoin="round"/>
<circle cx="32.8568" cy="28.5314" r="9.28552" fill="#195DFF"/>
<path d="M35.4716 24.668H34.466H32.7233C31.7606 24.668 30.98 25.4243 30.98 26.3582C30.98 27.2911 31.7602 28.0481 32.7233 28.0481H33.729C34.6917 28.0481 35.4716 28.8047 35.4716 29.7383C35.4716 30.6715 34.6917 31.4282 33.729 31.4282H31.9858H30.98" stroke="white" stroke-width="2" stroke-miterlimit="10" stroke-linecap="round" stroke-linejoin="round"/>
<path d="M33.2261 24.6679V22.7695" stroke="white" stroke-width="2" stroke-miterlimit="10" stroke-linecap="round" stroke-linejoin="round"/>
<path d="M33.2261 33.3275V31.4287" stroke="white" stroke-width="2" stroke-miterlimit="10" stroke-linecap="round" stroke-linejoin="round"/>
</svg>
