<svg xmlns="http://www.w3.org/2000/svg" width="1440" height="752" fill="none" viewBox="0 0 1440 752">
    <path fill="#fff" d="M0 0H1440V752H0z"/>
    <path fill="#202020" d="M435.547 107.336c-1.549 0-3.052-.205-4.508-.616-1.437-.429-2.595-.98-3.472-1.652l1.54-3.416c.84.616 1.839 1.111 2.996 1.484s2.315.56 3.472.56c1.288 0 2.24-.187 2.856-.56.616-.392.924-.905.924-1.54 0-.467-.187-.849-.56-1.148-.355-.317-.821-.57-1.4-.756-.56-.187-1.325-.392-2.296-.616-1.493-.355-2.716-.71-3.668-1.064-.952-.355-1.773-.924-2.464-1.708-.672-.784-1.008-1.83-1.008-3.136 0-1.139.308-2.165.924-3.08.616-.933 1.54-1.67 2.772-2.212 1.251-.541 2.772-.812 4.564-.812 1.251 0 2.473.15 3.668.448 1.195.299 2.24.728 3.136 1.288l-1.4 3.444c-1.811-1.027-3.621-1.54-5.432-1.54-1.269 0-2.212.205-2.828.616-.597.41-.896.952-.896 1.624 0 .672.345 1.176 1.036 1.512.709.317 1.783.635 3.22.952 1.493.355 2.716.71 3.668 1.064.952.355 1.764.915 2.436 1.68.691.765 1.036 1.801 1.036 3.108 0 1.12-.317 2.147-.952 3.08-.616.915-1.549 1.643-2.8 2.184-1.251.541-2.772.812-4.564.812zm16.624-15.624c2.333 0 4.125.56 5.376 1.68 1.25 1.101 1.876 2.772 1.876 5.012V107h-4.088v-1.876c-.822 1.4-2.352 2.1-4.592 2.1-1.158 0-2.166-.196-3.024-.588-.84-.392-1.484-.933-1.932-1.624-.448-.691-.672-1.475-.672-2.352 0-1.4.522-2.501 1.568-3.304 1.064-.803 2.697-1.204 4.9-1.204h3.472c0-.952-.29-1.68-.868-2.184-.579-.523-1.447-.784-2.604-.784-.803 0-1.596.13-2.38.392-.766.243-1.419.579-1.96 1.008l-1.568-3.052c.821-.579 1.801-1.027 2.94-1.344 1.157-.317 2.342-.476 3.556-.476zm-.336 12.572c.746 0 1.409-.168 1.988-.504.578-.355.989-.868 1.232-1.54v-1.54h-2.996c-1.792 0-2.688.588-2.688 1.764 0 .56.214 1.008.644 1.344.448.317 1.054.476 1.82.476zm30.273-12.572c1.885 0 3.379.56 4.48 1.68 1.12 1.101 1.68 2.763 1.68 4.984V107H483.9v-7.952c0-1.195-.252-2.081-.756-2.66-.485-.597-1.185-.896-2.1-.896-1.027 0-1.839.336-2.436 1.008-.597.653-.896 1.633-.896 2.94V107h-4.368v-7.952c0-2.37-.952-3.556-2.856-3.556-1.008 0-1.811.336-2.408 1.008-.597.653-.896 1.633-.896 2.94V107h-4.368V91.936h4.172v1.736c.56-.635 1.241-1.12 2.044-1.456.821-.336 1.717-.504 2.688-.504 1.064 0 2.025.215 2.884.644.859.41 1.549 1.017 2.072 1.82.616-.784 1.391-1.39 2.324-1.82.952-.43 1.988-.644 3.108-.644zm18.419 0c1.4 0 2.669.327 3.808.98 1.157.635 2.063 1.54 2.716 2.716.653 1.157.98 2.51.98 4.06 0 1.549-.327 2.912-.98 4.088-.653 1.157-1.559 2.063-2.716 2.716-1.139.635-2.408.952-3.808.952-1.923 0-3.435-.607-4.536-1.82v7.028h-4.368V91.936h4.172v1.736c1.083-1.307 2.66-1.96 4.732-1.96zm-.756 11.928c1.12 0 2.035-.373 2.744-1.12.728-.765 1.092-1.783 1.092-3.052 0-1.27-.364-2.277-1.092-3.024-.709-.765-1.624-1.148-2.744-1.148s-2.044.383-2.772 1.148c-.709.747-1.064 1.755-1.064 3.024 0 1.269.355 2.287 1.064 3.052.728.747 1.652 1.12 2.772 1.12zm10.624-17.416h4.368V107h-4.368V86.224zm22.618 13.3c0 .056-.028.448-.084 1.176h-11.396c.205.933.691 1.671 1.456 2.212.765.541 1.717.812 2.856.812.784 0 1.475-.112 2.072-.336.616-.243 1.185-.616 1.708-1.12l2.324 2.52c-1.419 1.624-3.491 2.436-6.216 2.436-1.699 0-3.201-.327-4.508-.98-1.307-.672-2.315-1.596-3.024-2.772-.709-1.176-1.064-2.511-1.064-4.004 0-1.475.345-2.8 1.036-3.976.709-1.195 1.671-2.119 2.884-2.772 1.232-.672 2.604-1.008 4.116-1.008 1.475 0 2.809.317 4.004.952 1.195.635 2.128 1.55 2.8 2.744.691 1.176 1.036 2.548 1.036 4.116zm-7.812-4.508c-.989 0-1.82.28-2.492.84-.672.56-1.083 1.325-1.232 2.296h7.42c-.149-.952-.56-1.708-1.232-2.268-.672-.579-1.493-.868-2.464-.868zm26.322-7.616c1.736 0 3.238.29 4.508.868 1.288.579 2.277 1.4 2.968 2.464.69 1.064 1.036 2.324 1.036 3.78 0 1.437-.346 2.697-1.036 3.78-.691 1.064-1.68 1.885-2.968 2.464-1.27.56-2.772.84-4.508.84h-3.948V107h-4.536V87.4h8.484zm-.252 10.5c1.362 0 2.398-.29 3.108-.868.709-.597 1.064-1.437 1.064-2.52 0-1.101-.355-1.941-1.064-2.52-.71-.597-1.746-.896-3.108-.896h-3.696V97.9h3.696zm15.306-3.976c.523-.728 1.223-1.279 2.1-1.652.896-.373 1.923-.56 3.08-.56v4.032c-.485-.037-.812-.056-.98-.056-1.251 0-2.231.355-2.94 1.064-.709.69-1.064 1.736-1.064 3.136V107h-4.368V91.936h4.172v1.988zm21.837 5.6c0 .056-.028.448-.084 1.176h-11.396c.205.933.69 1.671 1.456 2.212.765.541 1.717.812 2.856.812.784 0 1.474-.112 2.072-.336.616-.243 1.185-.616 1.708-1.12l2.324 2.52c-1.419 1.624-3.491 2.436-6.216 2.436-1.699 0-3.202-.327-4.508-.98-1.307-.672-2.315-1.596-3.024-2.772-.71-1.176-1.064-2.511-1.064-4.004 0-1.475.345-2.8 1.036-3.976.709-1.195 1.67-2.119 2.884-2.772 1.232-.672 2.604-1.008 4.116-1.008 1.474 0 2.809.317 4.004.952 1.194.635 2.128 1.55 2.8 2.744.69 1.176 1.036 2.548 1.036 4.116zm-7.812-4.508c-.99 0-1.82.28-2.492.84-.672.56-1.083 1.325-1.232 2.296h7.42c-.15-.952-.56-1.708-1.232-2.268-.672-.579-1.494-.868-2.464-.868zm9.873 2.352h7.924v3.5h-7.924v-3.5zm10.801-5.432h4.368V107h-4.368V91.936zm2.184-2.1c-.803 0-1.456-.233-1.96-.7-.504-.467-.756-1.045-.756-1.736 0-.69.252-1.27.756-1.736.504-.467 1.157-.7 1.96-.7.802 0 1.456.224 1.96.672.504.448.756 1.008.756 1.68 0 .728-.252 1.335-.756 1.82-.504.467-1.158.7-1.96.7zm14.834 1.876c1.866 0 3.369.56 4.508 1.68 1.157 1.12 1.736 2.781 1.736 4.984V107h-4.368v-7.952c0-1.195-.262-2.081-.784-2.66-.523-.597-1.279-.896-2.268-.896-1.102 0-1.979.345-2.632 1.036-.654.672-.98 1.68-.98 3.024V107h-4.368V91.936h4.172V93.7c.578-.635 1.297-1.12 2.156-1.456.858-.355 1.801-.532 2.828-.532zm14.711 15.512c-1.251 0-2.473-.149-3.668-.448-1.195-.317-2.147-.709-2.856-1.176l1.456-3.136c.672.429 1.484.784 2.436 1.064.952.261 1.885.392 2.8.392 1.848 0 2.772-.457 2.772-1.372 0-.429-.252-.737-.756-.924-.504-.187-1.279-.345-2.324-.476-1.232-.187-2.249-.401-3.052-.644-.803-.243-1.503-.672-2.1-1.288-.579-.616-.868-1.493-.868-2.632 0-.952.271-1.792.812-2.52.56-.747 1.363-1.325 2.408-1.736 1.064-.41 2.315-.616 3.752-.616 1.064 0 2.119.121 3.164.364 1.064.224 1.941.541 2.632.952l-1.456 3.108c-1.325-.747-2.772-1.12-4.34-1.12-.933 0-1.633.13-2.1.392-.467.261-.7.597-.7 1.008 0 .467.252.793.756.98.504.187 1.307.364 2.408.532 1.232.205 2.24.43 3.024.672.784.224 1.465.644 2.044 1.26s.868 1.475.868 2.576c0 .933-.28 1.764-.84 2.492-.56.728-1.381 1.297-2.464 1.708-1.064.392-2.333.588-3.808.588zm18.151-15.512c1.4 0 2.669.327 3.808.98 1.157.635 2.063 1.54 2.716 2.716.653 1.157.98 2.51.98 4.06 0 1.549-.327 2.912-.98 4.088-.653 1.157-1.559 2.063-2.716 2.716-1.139.635-2.408.952-3.808.952-1.923 0-3.435-.607-4.536-1.82v7.028h-4.368V91.936h4.172v1.736c1.083-1.307 2.66-1.96 4.732-1.96zm-.756 11.928c1.12 0 2.035-.373 2.744-1.12.728-.765 1.092-1.783 1.092-3.052 0-1.27-.364-2.277-1.092-3.024-.709-.765-1.624-1.148-2.744-1.148s-2.044.383-2.772 1.148c-.709.747-1.064 1.755-1.064 3.024 0 1.269.355 2.287 1.064 3.052.728.747 1.652 1.12 2.772 1.12zm25.38-4.116c0 .056-.028.448-.084 1.176H664.3c.205.933.691 1.671 1.456 2.212.765.541 1.717.812 2.856.812.784 0 1.475-.112 2.072-.336.616-.243 1.185-.616 1.708-1.12l2.324 2.52c-1.419 1.624-3.491 2.436-6.216 2.436-1.699 0-3.201-.327-4.508-.98-1.307-.672-2.315-1.596-3.024-2.772-.709-1.176-1.064-2.511-1.064-4.004 0-1.475.345-2.8 1.036-3.976.709-1.195 1.671-2.119 2.884-2.772 1.232-.672 2.604-1.008 4.116-1.008 1.475 0 2.809.317 4.004.952 1.195.635 2.128 1.55 2.8 2.744.691 1.176 1.036 2.548 1.036 4.116zm-7.812-4.508c-.989 0-1.82.28-2.492.84-.672.56-1.083 1.325-1.232 2.296h7.42c-.149-.952-.56-1.708-1.232-2.268-.672-.579-1.493-.868-2.464-.868zm17.44 12.208c-1.605 0-3.052-.327-4.34-.98-1.269-.672-2.268-1.596-2.996-2.772-.709-1.176-1.064-2.511-1.064-4.004 0-1.493.355-2.828 1.064-4.004.728-1.176 1.727-2.09 2.996-2.744 1.288-.672 2.735-1.008 4.34-1.008 1.587 0 2.968.336 4.144 1.008 1.195.653 2.063 1.596 2.604 2.828l-3.388 1.82c-.784-1.381-1.913-2.072-3.388-2.072-1.138 0-2.081.373-2.828 1.12-.746.747-1.12 1.764-1.12 3.052s.374 2.305 1.12 3.052c.747.747 1.69 1.12 2.828 1.12 1.494 0 2.623-.691 3.388-2.072l3.388 1.848c-.541 1.195-1.409 2.128-2.604 2.8-1.176.672-2.557 1.008-4.144 1.008zm18.638-.952c-.429.317-.961.56-1.596.728-.616.149-1.269.224-1.96.224-1.792 0-3.183-.457-4.172-1.372-.971-.915-1.456-2.259-1.456-4.032v-6.188h-2.324v-3.36h2.324v-3.668h4.368v3.668h3.752v3.36h-3.752v6.132c0 .635.159 1.129.476 1.484.336.336.803.504 1.4.504.691 0 1.279-.187 1.764-.56l1.176 3.08zm1.892-14.336h4.368V107h-4.368V91.936zm2.184-2.1c-.803 0-1.456-.233-1.96-.7-.504-.467-.756-1.045-.756-1.736 0-.69.252-1.27.756-1.736.504-.467 1.157-.7 1.96-.7.803 0 1.456.224 1.96.672.504.448.756 1.008.756 1.68 0 .728-.252 1.335-.756 1.82-.504.467-1.157.7-1.96.7zm12.846 17.388c-1.587 0-3.015-.327-4.284-.98-1.251-.672-2.231-1.596-2.94-2.772-.71-1.176-1.064-2.511-1.064-4.004 0-1.493.354-2.828 1.064-4.004.709-1.176 1.689-2.09 2.94-2.744 1.269-.672 2.697-1.008 4.284-1.008 1.586 0 3.005.336 4.256 1.008 1.25.653 2.23 1.568 2.94 2.744.709 1.176 1.064 2.51 1.064 4.004 0 1.493-.355 2.828-1.064 4.004-.71 1.176-1.69 2.1-2.94 2.772-1.251.653-2.67.98-4.256.98zm0-3.584c1.12 0 2.034-.373 2.744-1.12.728-.765 1.092-1.783 1.092-3.052 0-1.27-.364-2.277-1.092-3.024-.71-.765-1.624-1.148-2.744-1.148s-2.044.383-2.772 1.148c-.728.747-1.092 1.755-1.092 3.024 0 1.269.364 2.287 1.092 3.052.728.747 1.652 1.12 2.772 1.12zm19.775-11.928c1.867 0 3.37.56 4.508 1.68 1.158 1.12 1.736 2.781 1.736 4.984V107h-4.368v-7.952c0-1.195-.261-2.081-.784-2.66-.522-.597-1.278-.896-2.268-.896-1.101 0-1.978.345-2.632 1.036-.653.672-.98 1.68-.98 3.024V107h-4.368V91.936h4.172V93.7c.579-.635 1.298-1.12 2.156-1.456.859-.355 1.802-.532 2.828-.532zm24.181 15.512c-1.586 0-3.014-.327-4.284-.98-1.25-.672-2.23-1.596-2.94-2.772-.709-1.176-1.064-2.511-1.064-4.004 0-1.493.355-2.828 1.064-4.004.71-1.176 1.69-2.09 2.94-2.744 1.27-.672 2.698-1.008 4.284-1.008 1.587 0 3.006.336 4.256 1.008 1.251.653 2.231 1.568 2.94 2.744.71 1.176 1.064 2.51 1.064 4.004 0 1.493-.354 2.828-1.064 4.004-.709 1.176-1.689 2.1-2.94 2.772-1.25.653-2.669.98-4.256.98zm0-3.584c1.12 0 2.035-.373 2.744-1.12.728-.765 1.092-1.783 1.092-3.052 0-1.27-.364-2.277-1.092-3.024-.709-.765-1.624-1.148-2.744-1.148s-2.044.383-2.772 1.148c-.728.747-1.092 1.755-1.092 3.024 0 1.269.364 2.287 1.092 3.052.728.747 1.652 1.12 2.772 1.12zm14.792-9.716c.523-.728 1.223-1.279 2.1-1.652.896-.373 1.923-.56 3.08-.56v4.032c-.485-.037-.812-.056-.98-.056-1.251 0-2.231.355-2.94 1.064-.709.69-1.064 1.736-1.064 3.136V107h-4.368V91.936h4.172v1.988zm19.54-2.884v5.18h9.072v3.64h-9.072V107h-4.536V87.4h14.812v3.64h-10.276zm30.763-3.64V107h-3.724l-9.772-11.9V107h-4.48V87.4h3.752l9.744 11.9V87.4h4.48zm13.569 19.936c-2.034 0-3.873-.439-5.516-1.316-1.624-.877-2.902-2.081-3.836-3.612-.914-1.549-1.372-3.285-1.372-5.208s.458-3.65 1.372-5.18c.934-1.55 2.212-2.763 3.836-3.64 1.643-.877 3.482-1.316 5.516-1.316 2.035 0 3.864.439 5.488 1.316 1.624.877 2.903 2.09 3.836 3.64.934 1.53 1.4 3.257 1.4 5.18 0 1.923-.466 3.659-1.4 5.208-.933 1.531-2.212 2.735-3.836 3.612-1.624.877-3.453 1.316-5.488 1.316zm0-3.864c1.158 0 2.203-.261 3.136-.784.934-.541 1.662-1.288 2.184-2.24.542-.952.812-2.035.812-3.248s-.27-2.296-.812-3.248c-.522-.952-1.25-1.69-2.184-2.212-.933-.541-1.978-.812-3.136-.812-1.157 0-2.202.27-3.136.812-.933.523-1.67 1.26-2.212 2.212-.522.952-.784 2.035-.784 3.248s.262 2.296.784 3.248c.542.952 1.279 1.699 2.212 2.24.934.523 1.979.784 3.136.784zM857.162 87.4h4.536v15.904h9.828V107h-14.364V87.4zm47.592 4.536L899.294 107h-4.2l-3.388-9.352-3.5 9.352h-4.2l-5.432-15.064h4.116l3.556 10.192 3.696-10.192h3.696l3.584 10.192 3.668-10.192h3.864zm8.228 15.288c-1.587 0-3.015-.327-4.284-.98-1.251-.672-2.231-1.596-2.94-2.772-.709-1.176-1.064-2.511-1.064-4.004 0-1.493.355-2.828 1.064-4.004.709-1.176 1.689-2.09 2.94-2.744 1.269-.672 2.697-1.008 4.284-1.008 1.587 0 3.005.336 4.256 1.008 1.251.653 2.231 1.568 2.94 2.744.709 1.176 1.064 2.51 1.064 4.004 0 1.493-.355 2.828-1.064 4.004-.709 1.176-1.689 2.1-2.94 2.772-1.251.653-2.669.98-4.256.98zm0-3.584c1.12 0 2.035-.373 2.744-1.12.728-.765 1.092-1.783 1.092-3.052 0-1.27-.364-2.277-1.092-3.024-.709-.765-1.624-1.148-2.744-1.148s-2.044.383-2.772 1.148c-.728.747-1.092 1.755-1.092 3.024 0 1.269.364 2.287 1.092 3.052.728.747 1.652 1.12 2.772 1.12zm14.792-9.716c.522-.728 1.222-1.279 2.1-1.652.896-.373 1.922-.56 3.08-.56v4.032c-.486-.037-.812-.056-.98-.056-1.251 0-2.231.355-2.94 1.064-.71.69-1.064 1.736-1.064 3.136V107h-4.368V91.936h4.172v1.988zm13.685 7.168l-2.1 2.072V107h-4.368V86.224h4.368v11.76l6.384-6.048h5.208l-6.272 6.384 6.832 8.68h-5.292l-4.76-5.908zm16.244-8.82h3.864v3.36h-3.752V107h-4.368V95.632h-2.324v-3.36h2.324V91.6c0-1.717.504-3.08 1.512-4.088 1.027-1.008 2.464-1.512 4.312-1.512.654 0 1.27.075 1.848.224.598.13 1.092.327 1.484.588l-1.148 3.164c-.504-.355-1.092-.532-1.764-.532-1.325 0-1.988.728-1.988 2.184v.644zm6.048-6.048h4.368V107h-4.368V86.224zm15.05 21c-1.587 0-3.015-.327-4.284-.98-1.251-.672-2.231-1.596-2.94-2.772-.71-1.176-1.064-2.511-1.064-4.004 0-1.493.354-2.828 1.064-4.004.709-1.176 1.689-2.09 2.94-2.744 1.269-.672 2.697-1.008 4.284-1.008 1.586 0 3.005.336 4.256 1.008 1.25.653 2.23 1.568 2.94 2.744.709 1.176 1.064 2.51 1.064 4.004 0 1.493-.355 2.828-1.064 4.004-.71 1.176-1.69 2.1-2.94 2.772-1.251.653-2.67.98-4.256.98zm0-3.584c1.12 0 2.034-.373 2.744-1.12.728-.765 1.092-1.783 1.092-3.052 0-1.27-.364-2.277-1.092-3.024-.71-.765-1.624-1.148-2.744-1.148s-2.044.383-2.772 1.148c-.728.747-1.092 1.755-1.092 3.024 0 1.269.364 2.287 1.092 3.052.728.747 1.652 1.12 2.772 1.12zm34.399-11.704L1007.74 107h-4.2l-3.39-9.352-3.496 9.352h-4.2l-5.432-15.064h4.116l3.556 10.192 3.696-10.192h3.7l3.58 10.192 3.67-10.192h3.86zM763.756 296.8l-4.912 11.2h-1.584l-4.928-11.2h1.728l4.032 9.2 4.064-9.2h1.6zm.9 2.72h1.536V308h-1.536v-8.48zm.768-1.632c-.299 0-.549-.096-.752-.288-.192-.192-.288-.427-.288-.704 0-.277.096-.512.288-.704.203-.203.453-.304.752-.304s.544.096.736.288c.203.181.304.411.304.688 0 .288-.101.533-.304.736-.192.192-.437.288-.736.288zm11.381-1.76V308h-1.472v-1.344c-.342.469-.774.827-1.296 1.072-.523.245-1.099.368-1.728.368-.822 0-1.558-.181-2.208-.544-.651-.363-1.163-.869-1.536-1.52-.363-.661-.544-1.419-.544-2.272 0-.853.181-1.605.544-2.256.373-.651.885-1.157 1.536-1.52.65-.363 1.386-.544 2.208-.544.608 0 1.168.117 1.68.352.512.224.938.56 1.28 1.008v-4.672h1.536zm-4.368 10.624c.533 0 1.018-.123 1.456-.368.437-.256.778-.608 1.024-1.056.245-.459.368-.981.368-1.568 0-.587-.123-1.104-.368-1.552-.246-.459-.587-.811-1.024-1.056-.438-.245-.923-.368-1.456-.368-.544 0-1.035.123-1.472.368-.427.245-.768.597-1.024 1.056-.246.448-.368.965-.368 1.552 0 .587.122 1.109.368 1.568.256.448.597.8 1.024 1.056.437.245.928.368 1.472.368zm14.618-2.944c0 .117-.011.272-.032.464h-6.88c.096.747.421 1.349.976 1.808.565.448 1.264.672 2.096.672 1.013 0 1.829-.341 2.448-1.024l.848.992c-.384.448-.864.789-1.44 1.024-.565.235-1.2.352-1.904.352-.896 0-1.691-.181-2.384-.544-.693-.373-1.232-.891-1.616-1.552-.373-.661-.56-1.408-.56-2.24 0-.821.181-1.563.544-2.224.373-.661.88-1.173 1.52-1.536.651-.373 1.381-.56 2.192-.56.811 0 1.531.187 2.16.56.64.363 1.136.875 1.488 1.536.363.661.544 1.419.544 2.272zm-4.192-3.072c-.736 0-1.355.224-1.856.672-.491.448-.779 1.035-.864 1.76h5.44c-.085-.715-.379-1.296-.88-1.744-.491-.459-1.104-.688-1.84-.688zm9.637 7.36c-.843 0-1.6-.187-2.272-.56-.672-.373-1.2-.885-1.584-1.536-.373-.661-.56-1.408-.56-2.24 0-.832.187-1.573.56-2.224.384-.661.912-1.173 1.584-1.536.672-.373 1.429-.56 2.272-.56.843 0 1.595.187 2.256.56.672.363 1.195.875 1.568 1.536.384.651.576 1.392.576 2.224 0 .832-.192 1.579-.576 2.24-.373.651-.896 1.163-1.568 1.536-.661.373-1.413.56-2.256.56zm0-1.344c.544 0 1.029-.123 1.456-.368.437-.256.779-.608 1.024-1.056.245-.459.368-.981.368-1.568 0-.587-.123-1.104-.368-1.552-.245-.459-.587-.811-1.024-1.056-.427-.245-.912-.368-1.456-.368-.544 0-1.035.123-1.472.368-.427.245-.768.597-1.024 1.056-.245.448-.368.965-.368 1.552 0 .587.123 1.109.368 1.568.256.448.597.8 1.024 1.056.437.245.928.368 1.472.368zm9.58-12.224h1.392l-5.28 15.072H796.8l5.28-15.072zm6.521 2.272c1.451 0 2.592.347 3.424 1.04.832.693 1.248 1.648 1.248 2.864s-.416 2.171-1.248 2.864c-.832.693-1.973 1.04-3.424 1.04h-2.768V308h-1.6v-11.2h4.368zm-.048 6.416c1.013 0 1.787-.213 2.32-.64.533-.437.8-1.061.8-1.872 0-.811-.267-1.429-.8-1.856-.533-.437-1.307-.656-2.32-.656h-2.72v5.024h2.72zm11.211-3.776c1.077 0 1.931.315 2.56.944.64.619.96 1.531.96 2.736V308h-1.536v-4.704c0-.821-.197-1.44-.592-1.856-.395-.416-.96-.624-1.696-.624-.832 0-1.488.245-1.968.736-.48.48-.72 1.173-.72 2.08V308h-1.536v-11.872h1.536v4.592c.32-.405.736-.72 1.248-.944.523-.224 1.104-.336 1.744-.336zm9.721 8.656c-.842 0-1.6-.187-2.272-.56-.672-.373-1.2-.885-1.584-1.536-.373-.661-.56-1.408-.56-2.24 0-.832.187-1.573.56-2.224.384-.661.912-1.173 1.584-1.536.672-.373 1.43-.56 2.272-.56.843 0 1.595.187 2.256.56.672.363 1.195.875 1.568 1.536.384.651.576 1.392.576 2.224 0 .832-.192 1.579-.576 2.24-.373.651-.896 1.163-1.568 1.536-.661.373-1.413.56-2.256.56zm0-1.344c.544 0 1.03-.123 1.456-.368.438-.256.779-.608 1.024-1.056.246-.459.368-.981.368-1.568 0-.587-.122-1.104-.368-1.552-.245-.459-.586-.811-1.024-1.056-.426-.245-.912-.368-1.456-.368-.544 0-1.034.123-1.472.368-.426.245-.768.597-1.024 1.056-.245.448-.368.965-.368 1.552 0 .587.123 1.109.368 1.568.256.448.598.8 1.024 1.056.438.245.928.368 1.472.368zm10.973.752c-.224.192-.502.341-.832.448-.331.096-.672.144-1.024.144-.854 0-1.515-.229-1.984-.688-.47-.459-.704-1.115-.704-1.968v-4.656h-1.44v-1.264h1.44v-1.856h1.536v1.856h2.432v1.264h-2.432v4.592c0 .459.112.811.336 1.056.234.245.565.368.992.368.469 0 .869-.133 1.2-.4l.48 1.104zm4.887.592c-.842 0-1.6-.187-2.272-.56-.672-.373-1.2-.885-1.584-1.536-.373-.661-.56-1.408-.56-2.24 0-.832.187-1.573.56-2.224.384-.661.912-1.173 1.584-1.536.672-.373 1.43-.56 2.272-.56.843 0 1.595.187 2.257.56.671.363 1.194.875 1.568 1.536.384.651.576 1.392.576 2.224 0 .832-.192 1.579-.576 2.24-.374.651-.897 1.163-1.568 1.536-.662.373-1.414.56-2.257.56zm0-1.344c.544 0 1.03-.123 1.456-.368.438-.256.779-.608 1.025-1.056.245-.459.368-.981.368-1.568 0-.587-.123-1.104-.368-1.552-.246-.459-.587-.811-1.025-1.056-.426-.245-.912-.368-1.456-.368-.543 0-1.034.123-1.472.368-.426.245-.768.597-1.024 1.056-.245.448-.368.965-.368 1.552 0 .587.123 1.109.368 1.568.256.448.598.8 1.024 1.056.438.245.929.368 1.472.368zm11.654-5.808c.266-.491.661-.864 1.184-1.12.522-.256 1.157-.384 1.904-.384v1.488c-.086-.011-.203-.016-.352-.016-.832 0-1.488.251-1.968.752-.47.491-.704 1.195-.704 2.112V308h-1.536v-8.48h1.472v1.424zm12.247 2.864c0 .117-.011.272-.032.464h-6.88c.096.747.421 1.349.976 1.808.565.448 1.264.672 2.096.672 1.013 0 1.829-.341 2.448-1.024l.848.992c-.384.448-.864.789-1.44 1.024-.566.235-1.2.352-1.904.352-.896 0-1.691-.181-2.384-.544-.694-.373-1.232-.891-1.616-1.552-.374-.661-.56-1.408-.56-2.24 0-.821.181-1.563.544-2.224.373-.661.88-1.173 1.52-1.536.65-.373 1.381-.56 2.192-.56.81 0 1.53.187 2.16.56.64.363 1.136.875 1.488 1.536.362.661.544 1.419.544 2.272zm-4.192-3.072c-.736 0-1.355.224-1.856.672-.491.448-.779 1.035-.864 1.76h5.44c-.086-.715-.379-1.296-.88-1.744-.491-.459-1.104-.688-1.84-.688zm4.916 10.464c-.373 0-.72-.043-1.04-.128-.32-.085-.586-.213-.8-.384l.496-1.184c.32.267.736.4 1.248.4.406 0 .715-.128.928-.384.224-.245.336-.613.336-1.104v-8.896h1.536v8.864c0 .875-.234 1.563-.704 2.064-.469.501-1.136.752-2 .752zm1.936-13.312c-.298 0-.549-.096-.752-.288-.192-.192-.288-.427-.288-.704 0-.277.096-.512.288-.704.203-.203.454-.304.752-.304.299 0 .544.096.736.288.203.181.304.411.304.688 0 .288-.101.533-.304.736-.192.192-.437.288-.736.288zm11.043 5.92c0 .117-.01.272-.032.464h-6.88c.096.747.422 1.349.976 1.808.566.448 1.264.672 2.096.672 1.014 0 1.83-.341 2.448-1.024l.848.992c-.384.448-.864.789-1.44 1.024-.565.235-1.2.352-1.904.352-.896 0-1.69-.181-2.384-.544-.693-.373-1.232-.891-1.616-1.552-.373-.661-.56-1.408-.56-2.24 0-.821.182-1.563.544-2.224.374-.661.88-1.173 1.52-1.536.651-.373 1.382-.56 2.192-.56.811 0 1.531.187 2.16.56.64.363 1.136.875 1.488 1.536.363.661.544 1.419.544 2.272zm-4.192-3.072c-.736 0-1.354.224-1.856.672-.49.448-.778 1.035-.864 1.76h5.44c-.085-.715-.378-1.296-.88-1.744-.49-.459-1.104-.688-1.84-.688zm9.701 7.36c-.864 0-1.637-.187-2.32-.56-.672-.373-1.2-.885-1.584-1.536-.384-.661-.576-1.408-.576-2.24 0-.832.192-1.573.576-2.224.384-.661.912-1.173 1.584-1.536.683-.373 1.456-.56 2.32-.56.768 0 1.451.155 2.048.464.608.309 1.078.757 1.408 1.344l-1.168.752c-.266-.405-.597-.709-.992-.912-.394-.203-.832-.304-1.312-.304-.554 0-1.056.123-1.504.368-.437.245-.784.597-1.04 1.056-.245.448-.368.965-.368 1.552 0 .597.123 1.125.368 1.584.256.448.603.795 1.04 1.04.448.245.95.368 1.504.368.48 0 .918-.101 1.312-.304.395-.203.726-.507.992-.912l1.168.736c-.33.587-.8 1.04-1.408 1.36-.597.309-1.28.464-2.048.464zm10.002-.592c-.224.192-.501.341-.832.448-.33.096-.672.144-1.024.144-.853 0-1.514-.229-1.984-.688-.469-.459-.704-1.115-.704-1.968v-4.656h-1.44v-1.264h1.44v-1.856h1.536v1.856h2.432v1.264h-2.432v4.592c0 .459.112.811.336 1.056.235.245.566.368.992.368.47 0 .87-.133 1.2-.4l.48 1.104zm1.537-7.984h1.536V308h-1.536v-8.48zm.768-1.632c-.298 0-.549-.096-.752-.288-.192-.192-.288-.427-.288-.704 0-.277.096-.512.288-.704.203-.203.454-.304.752-.304.299 0 .544.096.736.288.203.181.304.411.304.688 0 .288-.101.533-.304.736-.192.192-.437.288-.736.288zm7.013 10.208c-.843 0-1.6-.187-2.272-.56-.672-.373-1.2-.885-1.584-1.536-.373-.661-.56-1.408-.56-2.24 0-.832.187-1.573.56-2.224.384-.661.912-1.173 1.584-1.536.672-.373 1.429-.56 2.272-.56.843 0 1.595.187 2.256.56.672.363 1.195.875 1.568 1.536.384.651.576 1.392.576 2.224 0 .832-.192 1.579-.576 2.24-.373.651-.896 1.163-1.568 1.536-.661.373-1.413.56-2.256.56zm0-1.344c.544 0 1.029-.123 1.456-.368.437-.256.779-.608 1.024-1.056.245-.459.368-.981.368-1.568 0-.587-.123-1.104-.368-1.552-.245-.459-.587-.811-1.024-1.056-.427-.245-.912-.368-1.456-.368-.544 0-1.035.123-1.472.368-.427.245-.768.597-1.024 1.056-.245.448-.368.965-.368 1.552 0 .587.123 1.109.368 1.568.256.448.597.8 1.024 1.056.437.245.928.368 1.472.368zm10.732-7.312c1.078 0 1.931.315 2.56.944.64.619.96 1.531.96 2.736V308h-1.536v-4.704c0-.821-.197-1.44-.592-1.856-.394-.416-.96-.624-1.696-.624-.832 0-1.488.245-1.968.736-.48.48-.72 1.173-.72 2.08V308h-1.536v-8.48h1.472v1.28c.31-.437.726-.773 1.248-1.008.534-.235 1.136-.352 1.808-.352zm10.507 2.4v.928h-4.624v-.928h1.856v-4.784h-1.728v-.928h2.864v5.712h1.632zm-120.203 16.68l-3.168 8.48h-1.472l-2.448-6.432-2.48 6.432h-1.472l-3.152-8.48h1.456l2.464 6.752 2.56-6.752h1.296l2.512 6.784 2.528-6.784h1.376zm1.238 0h1.536V327h-1.536v-8.48zm.768-1.632c-.298 0-.549-.096-.752-.288-.192-.192-.288-.427-.288-.704 0-.277.096-.512.288-.704.203-.203.454-.304.752-.304.299 0 .544.096.736.288.203.181.304.411.304.688 0 .288-.101.533-.304.736-.192.192-.437.288-.736.288zm8.149 9.616c-.224.192-.501.341-.832.448-.331.096-.672.144-1.024.144-.853 0-1.515-.229-1.984-.688-.469-.459-.704-1.115-.704-1.968v-4.656h-1.44v-1.264h1.44v-1.856h1.536v1.856h2.432v1.264h-2.432v4.592c0 .459.112.811.336 1.056.235.245.565.368.992.368.469 0 .869-.133 1.2-.4l.48 1.104zm6.065-8.064c1.077 0 1.931.315 2.56.944.64.619.96 1.531.96 2.736V327h-1.536v-4.704c0-.821-.197-1.44-.592-1.856-.395-.416-.96-.624-1.696-.624-.832 0-1.488.245-1.968.736-.48.48-.72 1.173-.72 2.08V327h-1.536v-11.872h1.536v4.592c.32-.405.736-.72 1.248-.944.523-.224 1.104-.336 1.744-.336zm6.043.08h1.536V327h-1.536v-8.48zm.768-1.632c-.299 0-.55-.096-.752-.288-.192-.192-.288-.427-.288-.704 0-.277.096-.512.288-.704.202-.203.453-.304.752-.304.298 0 .544.096.736.288.202.181.304.411.304.688 0 .288-.102.533-.304.736-.192.192-.438.288-.736.288zm7.908 1.552c1.078 0 1.931.315 2.56.944.64.619.96 1.531.96 2.736V327h-1.536v-4.704c0-.821-.197-1.44-.592-1.856-.394-.416-.96-.624-1.696-.624-.832 0-1.488.245-1.968.736-.48.48-.72 1.173-.72 2.08V327h-1.536v-8.48h1.472v1.28c.31-.437.726-.773 1.248-1.008.534-.235 1.136-.352 1.808-.352zm12.532 1.824c1.6 0 2.773.304 3.52.912.757.597 1.136 1.419 1.136 2.464 0 .661-.16 1.259-.48 1.792-.309.523-.784.939-1.424 1.248-.629.299-1.408.448-2.336.448-.789 0-1.552-.117-2.288-.352-.736-.245-1.344-.581-1.824-1.008l.736-1.264c.384.363.875.656 1.472.88.597.213 1.227.32 1.888.32.843 0 1.493-.176 1.952-.528.469-.363.704-.853.704-1.472 0-.672-.256-1.179-.768-1.52-.512-.352-1.387-.528-2.624-.528h-2.544l.592-5.856h6.32v1.392h-4.976l-.304 3.072h1.248zm12.764 6.832c-.693 0-1.36-.091-2-.272-.64-.192-1.141-.432-1.504-.72l.64-1.216c.374.267.827.48 1.36.64.534.16 1.072.24 1.616.24 1.344 0 2.016-.384 2.016-1.152 0-.256-.09-.459-.272-.608-.181-.149-.41-.256-.688-.32-.266-.075-.65-.155-1.152-.24-.682-.107-1.242-.229-1.68-.368-.426-.139-.794-.373-1.104-.704-.309-.331-.464-.795-.464-1.392 0-.768.32-1.381.96-1.84.64-.469 1.499-.704 2.576-.704.566 0 1.131.069 1.696.208.566.139 1.03.325 1.392.56l-.656 1.216c-.693-.448-1.509-.672-2.448-.672-.65 0-1.146.107-1.488.32-.341.213-.512.496-.512.848 0 .277.096.496.288.656.192.16.427.277.704.352.288.075.688.16 1.2.256.683.117 1.232.245 1.648.384.427.128.79.352 1.088.672.299.32.448.768.448 1.344 0 .768-.33 1.381-.992 1.84-.65.448-1.541.672-2.672.672zm12.928-4.288c0 .117-.011.272-.032.464h-6.88c.096.747.421 1.349.976 1.808.565.448 1.264.672 2.096.672 1.013 0 1.829-.341 2.448-1.024l.848.992c-.384.448-.864.789-1.44 1.024-.565.235-1.2.352-1.904.352-.896 0-1.691-.181-2.384-.544-.693-.373-1.232-.891-1.616-1.552-.373-.661-.56-1.408-.56-2.24 0-.821.181-1.563.544-2.224.373-.661.88-1.173 1.52-1.536.651-.373 1.381-.56 2.192-.56.811 0 1.531.187 2.16.56.64.363 1.136.875 1.488 1.536.363.661.544 1.419.544 2.272zm-4.192-3.072c-.736 0-1.355.224-1.856.672-.491.448-.779 1.035-.864 1.76h5.44c-.085-.715-.379-1.296-.88-1.744-.491-.459-1.104-.688-1.84-.688zm9.701 7.36c-.864 0-1.638-.187-2.32-.56-.672-.373-1.2-.885-1.584-1.536-.384-.661-.576-1.408-.576-2.24 0-.832.192-1.573.576-2.224.384-.661.912-1.173 1.584-1.536.682-.373 1.456-.56 2.32-.56.768 0 1.45.155 2.048.464.608.309 1.077.757 1.408 1.344l-1.168.752c-.267-.405-.598-.709-.992-.912-.395-.203-.832-.304-1.312-.304-.555 0-1.056.123-1.504.368-.438.245-.784.597-1.04 1.056-.246.448-.368.965-.368 1.552 0 .597.122 1.125.368 1.584.256.448.602.795 1.04 1.04.448.245.949.368 1.504.368.48 0 .917-.101 1.312-.304.394-.203.725-.507.992-.912l1.168.736c-.331.587-.8 1.04-1.408 1.36-.598.309-1.28.464-2.048.464zM507.835 308.128c-1.12 0-2.134-.245-3.04-.736-.896-.501-1.6-1.184-2.112-2.048-.512-.875-.768-1.856-.768-2.944 0-1.088.256-2.064.768-2.928.512-.875 1.221-1.557 2.128-2.048.906-.501 1.92-.752 3.04-.752.874 0 1.674.149 2.4.448.725.288 1.344.72 1.856 1.296l-1.04 1.008c-.843-.885-1.894-1.328-3.152-1.328-.832 0-1.584.187-2.256.56-.672.373-1.2.891-1.584 1.552-.374.651-.56 1.381-.56 2.192 0 .811.186 1.547.56 2.208.384.651.912 1.163 1.584 1.536s1.424.56 2.256.56c1.248 0 2.298-.448 3.152-1.344l1.04 1.008c-.512.576-1.136 1.013-1.872 1.312-.726.299-1.526.448-2.4.448zm6.01-12h1.536V308h-1.536v-11.872zm7.781 11.968c-.843 0-1.6-.187-2.272-.56-.672-.373-1.2-.885-1.584-1.536-.374-.661-.56-1.408-.56-2.24 0-.832.186-1.573.56-2.224.384-.661.912-1.173 1.584-1.536.672-.373 1.429-.56 2.272-.56.842 0 1.594.187 2.256.56.672.363 1.194.875 1.568 1.536.384.651.576 1.392.576 2.224 0 .832-.192 1.579-.576 2.24-.374.651-.896 1.163-1.568 1.536-.662.373-1.414.56-2.256.56zm0-1.344c.544 0 1.029-.123 1.456-.368.437-.256.778-.608 1.024-1.056.245-.459.368-.981.368-1.568 0-.587-.123-1.104-.368-1.552-.246-.459-.587-.811-1.024-1.056-.427-.245-.912-.368-1.456-.368-.544 0-1.035.123-1.472.368-.427.245-.768.597-1.024 1.056-.246.448-.368.965-.368 1.552 0 .587.122 1.109.368 1.568.256.448.597.8 1.024 1.056.437.245.928.368 1.472.368zm14.108-7.232V308h-1.456v-1.28c-.309.437-.72.779-1.232 1.024-.501.235-1.051.352-1.648.352-1.131 0-2.021-.309-2.672-.928-.651-.629-.976-1.552-.976-2.768v-4.88h1.536v4.704c0 .821.197 1.445.592 1.872.395.416.96.624 1.696.624.811 0 1.451-.245 1.92-.736.469-.491.704-1.184.704-2.08v-4.384h1.536zm10.604-3.392V308h-1.472v-1.344c-.341.469-.773.827-1.296 1.072-.522.245-1.098.368-1.728.368-.821 0-1.557-.181-2.208-.544-.65-.363-1.162-.869-1.536-1.52-.362-.661-.544-1.419-.544-2.272 0-.853.182-1.605.544-2.256.374-.651.886-1.157 1.536-1.52.651-.363 1.387-.544 2.208-.544.608 0 1.168.117 1.68.352.512.224.939.56 1.28 1.008v-4.672h1.536zm-4.368 10.624c.534 0 1.019-.123 1.456-.368.438-.256.779-.608 1.024-1.056.246-.459.368-.981.368-1.568 0-.587-.122-1.104-.368-1.552-.245-.459-.586-.811-1.024-1.056-.437-.245-.922-.368-1.456-.368-.544 0-1.034.123-1.472.368-.426.245-.768.597-1.024 1.056-.245.448-.368.965-.368 1.552 0 .587.123 1.109.368 1.568.256.448.598.8 1.024 1.056.438.245.928.368 1.472.368zm14.419 1.376c-.842 0-1.658-.128-2.448-.384-.778-.267-1.392-.608-1.84-1.024l.592-1.248c.427.384.971.699 1.632.944.672.235 1.36.352 2.064.352.928 0 1.622-.155 2.08-.464.459-.32.688-.741.688-1.264 0-.384-.128-.693-.384-.928-.245-.245-.554-.432-.928-.56-.362-.128-.88-.272-1.552-.432-.842-.203-1.525-.405-2.048-.608-.512-.203-.954-.512-1.328-.928-.362-.427-.544-.997-.544-1.712 0-.597.155-1.136.464-1.616.32-.48.8-.864 1.44-1.152.64-.288 1.435-.432 2.384-.432.662 0 1.312.085 1.952.256.64.171 1.19.416 1.648.736l-.528 1.28c-.469-.299-.97-.523-1.504-.672-.533-.16-1.056-.24-1.568-.24-.906 0-1.589.165-2.048.496-.448.331-.672.757-.672 1.28 0 .384.128.699.384.944.256.235.571.421.944.56.384.128.902.267 1.552.416.843.203 1.52.405 2.032.608.512.203.95.512 1.312.928.374.416.56.976.56 1.68 0 .587-.16 1.125-.48 1.616-.32.48-.805.864-1.456 1.152-.65.277-1.45.416-2.4.416zm10.898-.624c-.224.192-.502.341-.832.448-.331.096-.672.144-1.024.144-.854 0-1.515-.229-1.984-.688-.47-.459-.704-1.115-.704-1.968v-4.656h-1.44v-1.264h1.44v-1.856h1.536v1.856h2.432v1.264h-2.432v4.592c0 .459.112.811.336 1.056.234.245.565.368.992.368.469 0 .869-.133 1.2-.4l.48 1.104zm4.888.592c-.843 0-1.6-.187-2.272-.56-.672-.373-1.2-.885-1.584-1.536-.374-.661-.56-1.408-.56-2.24 0-.832.186-1.573.56-2.224.384-.661.912-1.173 1.584-1.536.672-.373 1.429-.56 2.272-.56.842 0 1.594.187 2.256.56.672.363 1.194.875 1.568 1.536.384.651.576 1.392.576 2.224 0 .832-.192 1.579-.576 2.24-.374.651-.896 1.163-1.568 1.536-.662.373-1.414.56-2.256.56zm0-1.344c.544 0 1.029-.123 1.456-.368.437-.256.778-.608 1.024-1.056.245-.459.368-.981.368-1.568 0-.587-.123-1.104-.368-1.552-.246-.459-.587-.811-1.024-1.056-.427-.245-.912-.368-1.456-.368-.544 0-1.035.123-1.472.368-.427.245-.768.597-1.024 1.056-.246.448-.368.965-.368 1.552 0 .587.122 1.109.368 1.568.256.448.597.8 1.024 1.056.437.245.928.368 1.472.368zm7.676-5.808c.266-.491.661-.864 1.184-1.12.522-.256 1.157-.384 1.904-.384v1.488c-.086-.011-.203-.016-.352-.016-.832 0-1.488.251-1.968.752-.47.491-.704 1.195-.704 2.112V308h-1.536v-8.48h1.472v1.424zm7.733-1.504c1.174 0 2.07.288 2.688.864.63.576.944 1.435.944 2.576V308h-1.456v-1.12c-.256.395-.624.699-1.104.912-.469.203-1.029.304-1.68.304-.949 0-1.712-.229-2.288-.688-.565-.459-.848-1.061-.848-1.808 0-.747.272-1.344.816-1.792.544-.459 1.408-.688 2.592-.688h2.432v-.304c0-.661-.192-1.168-.576-1.52-.384-.352-.949-.528-1.696-.528-.501 0-.992.085-1.472.256-.48.16-.885.379-1.216.656l-.64-1.152c.438-.352.96-.619 1.568-.8.608-.192 1.254-.288 1.936-.288zm-.352 7.472c.587 0 1.094-.128 1.52-.384.427-.267.736-.64.928-1.12v-1.184h-2.368c-1.301 0-1.952.437-1.952 1.312 0 .427.166.763.496 1.008.331.245.79.368 1.376.368zm14.666-7.392v7.328c0 1.483-.368 2.576-1.104 3.28-.736.715-1.835 1.072-3.296 1.072-.8 0-1.563-.112-2.288-.336-.726-.213-1.312-.523-1.76-.928l.736-1.184c.394.341.88.608 1.456.8.586.203 1.189.304 1.808.304.992 0 1.722-.235 2.192-.704.48-.469.72-1.184.72-2.144v-.672c-.363.437-.811.768-1.344.992-.523.213-1.094.32-1.712.32-.811 0-1.547-.171-2.208-.512-.651-.352-1.163-.837-1.536-1.456-.374-.629-.56-1.344-.56-2.144s.186-1.509.56-2.128c.373-.629.885-1.115 1.536-1.456.661-.341 1.397-.512 2.208-.512.64 0 1.232.117 1.776.352.554.235 1.008.581 1.36 1.04v-1.312h1.456zm-4.416 6.784c.554 0 1.05-.117 1.488-.352.448-.235.794-.56 1.04-.976.256-.427.384-.907.384-1.44 0-.821-.272-1.483-.816-1.984-.544-.512-1.243-.768-2.096-.768-.864 0-1.568.256-2.112.768-.544.501-.816 1.163-.816 1.984 0 .533.122 1.013.368 1.44.256.416.602.741 1.04.976.448.235.954.352 1.52.352zm14.695-2.496c0 .117-.011.272-.032.464h-6.88c.096.747.421 1.349.976 1.808.565.448 1.264.672 2.096.672 1.013 0 1.829-.341 2.448-1.024l.848.992c-.384.448-.864.789-1.44 1.024-.566.235-1.2.352-1.904.352-.896 0-1.691-.181-2.384-.544-.694-.373-1.232-.891-1.616-1.552-.374-.661-.56-1.408-.56-2.24 0-.821.181-1.563.544-2.224.373-.661.88-1.173 1.52-1.536.65-.373 1.381-.56 2.192-.56.81 0 1.53.187 2.16.56.64.363 1.136.875 1.488 1.536.362.661.544 1.419.544 2.272zm-4.192-3.072c-.736 0-1.355.224-1.856.672-.491.448-.779 1.035-.864 1.76h5.44c-.086-.715-.379-1.296-.88-1.744-.491-.459-1.104-.688-1.84-.688zM232.605 301.504c1.099.107 1.936.448 2.512 1.024.576.565.864 1.291.864 2.176 0 .64-.16 1.221-.48 1.744-.32.512-.8.923-1.44 1.232-.629.299-1.403.448-2.32.448-.8 0-1.568-.117-2.304-.352-.736-.245-1.339-.581-1.808-1.008l.736-1.264c.384.363.875.656 1.472.88.597.213 1.232.32 1.904.32.832 0 1.477-.176 1.936-.528.469-.352.704-.837.704-1.456s-.229-1.099-.688-1.44c-.459-.341-1.152-.512-2.08-.512h-.896v-1.12l2.816-3.456h-5.392V296.8h7.392v1.088l-2.928 3.616zm9.38-.304c.736 0 1.392.139 1.968.416.587.277 1.046.677 1.376 1.2.331.512.496 1.104.496 1.776 0 .704-.176 1.323-.528 1.856-.341.533-.816.949-1.424 1.248-.597.288-1.269.432-2.016.432-1.504 0-2.666-.485-3.488-1.456-.81-.971-1.216-2.347-1.216-4.128 0-1.248.219-2.309.656-3.184.448-.885 1.067-1.552 1.856-2 .8-.459 1.728-.688 2.784-.688.544 0 1.056.059 1.536.176.48.107.896.267 1.248.48l-.608 1.248c-.533-.352-1.248-.528-2.144-.528-1.162 0-2.074.363-2.736 1.088-.661.715-.992 1.76-.992 3.136 0 .171.006.304.016.4.32-.48.758-.843 1.312-1.088.566-.256 1.2-.384 1.904-.384zm-.192 5.632c.736 0 1.334-.197 1.792-.592.459-.395.688-.923.688-1.584s-.234-1.184-.704-1.568c-.458-.395-1.077-.592-1.856-.592-.501 0-.949.096-1.344.288-.384.192-.688.453-.912.784-.213.331-.32.699-.32 1.104 0 .395.102.757.304 1.088.214.32.518.581.912.784.406.192.886.288 1.44.288zm9.491 1.296c-.885 0-1.674-.224-2.368-.672-.682-.459-1.221-1.12-1.616-1.984-.394-.864-.592-1.888-.592-3.072 0-1.184.198-2.208.592-3.072.395-.864.934-1.52 1.616-1.968.694-.459 1.483-.688 2.368-.688.875 0 1.654.229 2.336.688.694.448 1.238 1.104 1.632 1.968.395.864.592 1.888.592 3.072 0 1.184-.197 2.208-.592 3.072-.394.864-.938 1.525-1.632 1.984-.682.448-1.461.672-2.336.672zm0-1.424c.896 0 1.611-.368 2.144-1.104.544-.736.816-1.803.816-3.2 0-1.397-.272-2.464-.816-3.2-.533-.736-1.248-1.104-2.144-1.104-.906 0-1.632.368-2.176 1.104-.533.736-.8 1.803-.8 3.2 0 1.397.267 2.464.8 3.2.544.736 1.27 1.104 2.176 1.104zm8.448-3.856c-.896 0-1.621-.304-2.176-.912-.544-.619-.816-1.451-.816-2.496 0-1.035.272-1.856.816-2.464.555-.619 1.28-.928 2.176-.928.896 0 1.616.309 2.16.928.555.608.832 1.429.832 2.464 0 1.045-.277 1.877-.832 2.496-.544.608-1.264.912-2.16.912zm0-.96c.566 0 1.019-.213 1.36-.64.342-.427.512-1.029.512-1.808 0-.779-.17-1.376-.512-1.792-.341-.427-.794-.64-1.36-.64-.565 0-1.018.213-1.36.64-.341.416-.512 1.013-.512 1.792 0 .779.171 1.381.512 1.808.342.427.795.64 1.36.64zm13.78 6.24c-1.12 0-2.133-.245-3.04-.736-.896-.501-1.6-1.184-2.112-2.048-.512-.875-.768-1.856-.768-2.944 0-1.088.256-2.064.768-2.928.512-.875 1.221-1.557 2.128-2.048.907-.501 1.92-.752 3.04-.752.875 0 1.675.149 2.4.448.725.288 1.344.72 1.856 1.296l-1.04 1.008c-.843-.885-1.893-1.328-3.152-1.328-.832 0-1.584.187-2.256.56-.672.373-1.2.891-1.584 1.552-.373.651-.56 1.381-.56 2.192 0 .811.187 1.547.56 2.208.384.651.912 1.163 1.584 1.536s1.424.56 2.256.56c1.248 0 2.299-.448 3.152-1.344l1.04 1.008c-.512.576-1.136 1.013-1.872 1.312-.725.299-1.525.448-2.4.448zm8.989-8.688c1.174 0 2.07.288 2.688.864.63.576.944 1.435.944 2.576V308h-1.456v-1.12c-.256.395-.624.699-1.104.912-.469.203-1.029.304-1.68.304-.949 0-1.712-.229-2.288-.688-.565-.459-.848-1.061-.848-1.808 0-.747.272-1.344.816-1.792.544-.459 1.408-.688 2.592-.688h2.432v-.304c0-.661-.192-1.168-.576-1.52-.384-.352-.949-.528-1.696-.528-.501 0-.992.085-1.472.256-.48.16-.885.379-1.216.656l-.64-1.152c.438-.352.96-.619 1.568-.8.608-.192 1.254-.288 1.936-.288zm-.352 7.472c.587 0 1.094-.128 1.52-.384.427-.267.736-.64.928-1.12v-1.184h-2.368c-1.301 0-1.952.437-1.952 1.312 0 .427.166.763.496 1.008.331.245.79.368 1.376.368zm11.003-7.472c.821 0 1.557.181 2.208.544.65.363 1.157.869 1.52 1.52.373.651.56 1.403.56 2.256 0 .853-.187 1.611-.56 2.272-.363.651-.87 1.157-1.52 1.52-.651.363-1.387.544-2.208.544-.608 0-1.168-.117-1.68-.352-.502-.235-.928-.576-1.28-1.024v4.384h-1.536V299.52h1.472v1.344c.341-.469.773-.821 1.296-1.056.522-.245 1.098-.368 1.728-.368zm-.128 7.312c.544 0 1.029-.123 1.456-.368.437-.256.778-.608 1.024-1.056.256-.459.384-.981.384-1.568 0-.587-.128-1.104-.384-1.552-.246-.459-.587-.811-1.024-1.056-.427-.245-.912-.368-1.456-.368-.534 0-1.019.128-1.456.384-.427.245-.768.592-1.024 1.04-.246.448-.368.965-.368 1.552 0 .587.122 1.109.368 1.568.245.448.586.8 1.024 1.056.437.245.922.368 1.456.368zm10.986.752c-.224.192-.501.341-.832.448-.331.096-.672.144-1.024.144-.853 0-1.515-.229-1.984-.688-.469-.459-.704-1.115-.704-1.968v-4.656h-1.44v-1.264h1.44v-1.856h1.536v1.856h2.432v1.264h-2.432v4.592c0 .459.112.811.336 1.056.235.245.565.368.992.368.469 0 .869-.133 1.2-.4l.48 1.104zm9.441-7.984V308h-1.456v-1.28c-.309.437-.72.779-1.232 1.024-.501.235-1.051.352-1.648.352-1.131 0-2.021-.309-2.672-.928-.651-.629-.976-1.552-.976-2.768v-4.88h1.536v4.704c0 .821.197 1.445.592 1.872.395.416.96.624 1.696.624.811 0 1.451-.245 1.92-.736.469-.491.704-1.184.704-2.08v-4.384h1.536zm4.076 1.424c.267-.491.661-.864 1.184-1.12.523-.256 1.157-.384 1.904-.384v1.488c-.085-.011-.203-.016-.352-.016-.832 0-1.488.251-1.968.752-.469.491-.704 1.195-.704 2.112V308h-1.536v-8.48h1.472v1.424zm12.247 2.864c0 .117-.011.272-.032.464h-6.88c.096.747.421 1.349.976 1.808.565.448 1.264.672 2.096.672 1.013 0 1.829-.341 2.448-1.024l.848.992c-.384.448-.864.789-1.44 1.024-.565.235-1.2.352-1.904.352-.896 0-1.691-.181-2.384-.544-.693-.373-1.232-.891-1.616-1.552-.373-.661-.56-1.408-.56-2.24 0-.821.181-1.563.544-2.224.373-.661.88-1.173 1.52-1.536.651-.373 1.381-.56 2.192-.56.811 0 1.531.187 2.16.56.64.363 1.136.875 1.488 1.536.363.661.544 1.419.544 2.272zm-4.192-3.072c-.736 0-1.355.224-1.856.672-.491.448-.779 1.035-.864 1.76h5.44c-.085-.715-.379-1.296-.88-1.744-.491-.459-1.104-.688-1.84-.688zM204.773 587.128c-.843 0-1.659-.128-2.448-.384-.779-.267-1.392-.608-1.84-1.024l.592-1.248c.427.384.971.699 1.632.944.672.235 1.36.352 2.064.352.928 0 1.621-.155 2.08-.464.459-.32.688-.741.688-1.264 0-.384-.128-.693-.384-.928-.245-.245-.555-.432-.928-.56-.363-.128-.88-.272-1.552-.432-.843-.203-1.525-.405-2.048-.608-.512-.203-.955-.512-1.328-.928-.363-.427-.544-.997-.544-1.712 0-.597.155-1.136.464-1.616.32-.48.8-.864 1.44-1.152.64-.288 1.435-.432 2.384-.432.661 0 1.312.085 1.952.256.64.171 1.189.416 1.648.736l-.528 1.28c-.469-.299-.971-.523-1.504-.672-.533-.16-1.056-.24-1.568-.24-.907 0-1.589.165-2.048.496-.448.331-.672.757-.672 1.28 0 .384.128.699.384.944.256.235.571.421.944.56.384.128.901.267 1.552.416.843.203 1.52.405 2.032.608.512.203.949.512 1.312.928.373.416.56.976.56 1.68 0 .587-.16 1.125-.48 1.616-.32.48-.805.864-1.456 1.152-.651.277-1.451.416-2.4.416zm16.738-.128l-.016-8.16-4.048 6.8h-.736l-4.048-6.752V587h-1.536v-11.2h1.312l4.672 7.872 4.608-7.872h1.312l.016 11.2h-1.536zm7.841.128c-.843 0-1.659-.128-2.448-.384-.779-.267-1.392-.608-1.84-1.024l.592-1.248c.426.384.97.699 1.632.944.672.235 1.36.352 2.064.352.928 0 1.621-.155 2.08-.464.458-.32.688-.741.688-1.264 0-.384-.128-.693-.384-.928-.246-.245-.555-.432-.928-.56-.363-.128-.88-.272-1.552-.432-.843-.203-1.526-.405-2.048-.608-.512-.203-.955-.512-1.328-.928-.363-.427-.544-.997-.544-1.712 0-.597.154-1.136.464-1.616.32-.48.8-.864 1.44-1.152.64-.288 1.434-.432 2.384-.432.661 0 1.312.085 1.952.256.64.171 1.189.416 1.648.736l-.528 1.28c-.47-.299-.971-.523-1.504-.672-.534-.16-1.056-.24-1.568-.24-.907 0-1.59.165-2.048.496-.448.331-.672.757-.672 1.28 0 .384.128.699.384.944.256.235.57.421.944.56.384.128.901.267 1.552.416.842.203 1.52.405 2.032.608.512.203.949.512 1.312.928.373.416.56.976.56 1.68 0 .587-.16 1.125-.48 1.616-.32.48-.806.864-1.456 1.152-.651.277-1.451.416-2.4.416zm22.938-8.608l-3.168 8.48h-1.472l-2.448-6.432-2.48 6.432h-1.472l-3.152-8.48h1.456l2.464 6.752 2.56-6.752h1.296l2.512 6.784 2.528-6.784h1.376zm8.668 4.288c0 .117-.01.272-.032.464h-6.88c.096.747.422 1.349.976 1.808.566.448 1.264.672 2.096.672 1.014 0 1.83-.341 2.448-1.024l.848.992c-.384.448-.864.789-1.44 1.024-.565.235-1.2.352-1.904.352-.896 0-1.69-.181-2.384-.544-.693-.373-1.232-.891-1.616-1.552-.373-.661-.56-1.408-.56-2.24 0-.821.182-1.563.544-2.224.374-.661.88-1.173 1.52-1.536.651-.373 1.382-.56 2.192-.56.811 0 1.531.187 2.16.56.64.363 1.136.875 1.488 1.536.363.661.544 1.419.544 2.272zm-4.192-3.072c-.736 0-1.354.224-1.856.672-.49.448-.778 1.035-.864 1.76h5.44c-.085-.715-.378-1.296-.88-1.744-.49-.459-1.104-.688-1.84-.688zm10.501-1.296c.822 0 1.558.181 2.208.544.651.363 1.158.869 1.52 1.52.374.651.56 1.403.56 2.256 0 .853-.186 1.611-.56 2.272-.362.651-.869 1.157-1.52 1.52-.65.363-1.386.544-2.208.544-.629 0-1.205-.123-1.728-.368-.522-.245-.954-.603-1.296-1.072V587h-1.472v-11.872h1.536v4.672c.342-.448.768-.784 1.28-1.008.512-.235 1.072-.352 1.68-.352zm-.128 7.312c.544 0 1.03-.123 1.456-.368.438-.256.779-.608 1.024-1.056.256-.459.384-.981.384-1.568 0-.587-.128-1.104-.384-1.552-.245-.459-.586-.811-1.024-1.056-.426-.245-.912-.368-1.456-.368-.533 0-1.018.123-1.456.368-.437.245-.778.597-1.024 1.056-.245.448-.368.965-.368 1.552 0 .587.123 1.109.368 1.568.246.448.587.8 1.024 1.056.438.245.923.368 1.456.368zm6.219-10.624h1.536V587h-1.536v-11.872zm4.148 3.392h1.536V587h-1.536v-8.48zm.768-1.632c-.298 0-.549-.096-.752-.288-.192-.192-.288-.427-.288-.704 0-.277.096-.512.288-.704.203-.203.454-.304.752-.304.299 0 .544.096.736.288.203.181.304.411.304.688 0 .288-.101.533-.304.736-.192.192-.437.288-.736.288zm7.909 1.552c1.077 0 1.931.315 2.56.944.64.619.96 1.531.96 2.736V587h-1.536v-4.704c0-.821-.197-1.44-.592-1.856-.395-.416-.96-.624-1.696-.624-.832 0-1.488.245-1.968.736-.48.48-.72 1.173-.72 2.08V587h-1.536v-8.48h1.472v1.28c.309-.437.725-.773 1.248-1.008.533-.235 1.136-.352 1.808-.352zm9.339 4.608l-1.76 1.632V587h-1.536v-11.872h1.536v7.616l4.624-4.224h1.856l-3.568 3.504 3.92 4.976h-1.888l-3.184-3.952zm12.652 4.048c-.693 0-1.36-.091-2-.272-.64-.192-1.141-.432-1.504-.72l.64-1.216c.373.267.827.48 1.36.64.533.16 1.072.24 1.616.24 1.344 0 2.016-.384 2.016-1.152 0-.256-.091-.459-.272-.608-.181-.149-.411-.256-.688-.32-.267-.075-.651-.155-1.152-.24-.683-.107-1.243-.229-1.68-.368-.427-.139-.795-.373-1.104-.704-.309-.331-.464-.795-.464-1.392 0-.768.32-1.381.96-1.84.64-.469 1.499-.704 2.576-.704.565 0 1.131.069 1.696.208.565.139 1.029.325 1.392.56l-.656 1.216c-.693-.448-1.509-.672-2.448-.672-.651 0-1.147.107-1.488.32-.341.213-.512.496-.512.848 0 .277.096.496.288.656.192.16.427.277.704.352.288.075.688.16 1.2.256.683.117 1.232.245 1.648.384.427.128.789.352 1.088.672.299.32.448.768.448 1.344 0 .768-.331 1.381-.992 1.84-.651.448-1.541.672-2.672.672zm12.928-4.288c0 .117-.011.272-.032.464h-6.88c.096.747.421 1.349.976 1.808.565.448 1.264.672 2.096.672 1.013 0 1.829-.341 2.448-1.024l.848.992c-.384.448-.864.789-1.44 1.024-.566.235-1.2.352-1.904.352-.896 0-1.691-.181-2.384-.544-.694-.373-1.232-.891-1.616-1.552-.374-.661-.56-1.408-.56-2.24 0-.821.181-1.563.544-2.224.373-.661.88-1.173 1.52-1.536.65-.373 1.381-.56 2.192-.56.81 0 1.53.187 2.16.56.64.363 1.136.875 1.488 1.536.362.661.544 1.419.544 2.272zm-4.192-3.072c-.736 0-1.355.224-1.856.672-.491.448-.779 1.035-.864 1.76h5.44c-.086-.715-.379-1.296-.88-1.744-.491-.459-1.104-.688-1.84-.688zm10.532-1.296c1.078 0 1.931.315 2.56.944.64.619.96 1.531.96 2.736V587h-1.536v-4.704c0-.821-.197-1.44-.592-1.856-.394-.416-.96-.624-1.696-.624-.832 0-1.488.245-1.968.736-.48.48-.72 1.173-.72 2.08V587h-1.536v-8.48h1.472v1.28c.31-.437.726-.773 1.248-1.008.534-.235 1.136-.352 1.808-.352zm10.811 8.064c-.224.192-.501.341-.832.448-.331.096-.672.144-1.024.144-.853 0-1.515-.229-1.984-.688-.469-.459-.704-1.115-.704-1.968v-4.656h-1.44v-1.264h1.44v-1.856h1.536v1.856h2.432v1.264h-2.432v4.592c0 .459.112.811.336 1.056.235.245.565.368.992.368.469 0 .869-.133 1.2-.4l.48 1.104zm10.282 0c-.224.192-.501.341-.832.448-.331.096-.672.144-1.024.144-.853 0-1.515-.229-1.984-.688-.469-.459-.704-1.115-.704-1.968v-4.656h-1.44v-1.264h1.44v-1.856h1.536v1.856h2.432v1.264h-2.432v4.592c0 .459.112.811.336 1.056.235.245.565.368.992.368.469 0 .869-.133 1.2-.4l.48 1.104zm4.888.592c-.843 0-1.6-.187-2.272-.56-.672-.373-1.2-.885-1.584-1.536-.374-.661-.56-1.408-.56-2.24 0-.832.186-1.573.56-2.224.384-.661.912-1.173 1.584-1.536.672-.373 1.429-.56 2.272-.56.842 0 1.594.187 2.256.56.672.363 1.194.875 1.568 1.536.384.651.576 1.392.576 2.224 0 .832-.192 1.579-.576 2.24-.374.651-.896 1.163-1.568 1.536-.662.373-1.414.56-2.256.56zm0-1.344c.544 0 1.029-.123 1.456-.368.437-.256.778-.608 1.024-1.056.245-.459.368-.981.368-1.568 0-.587-.123-1.104-.368-1.552-.246-.459-.587-.811-1.024-1.056-.427-.245-.912-.368-1.456-.368-.544 0-1.035.123-1.472.368-.427.245-.768.597-1.024 1.056-.246.448-.368.965-.368 1.552 0 .587.122 1.109.368 1.568.256.448.597.8 1.024 1.056.437.245.928.368 1.472.368zm-107.049 20.344c-.864 0-1.638-.187-2.32-.56-.672-.373-1.2-.885-1.584-1.536-.384-.661-.576-1.408-.576-2.24 0-.832.192-1.573.576-2.224.384-.661.912-1.173 1.584-1.536.682-.373 1.456-.56 2.32-.56.768 0 1.45.155 2.048.464.608.309 1.077.757 1.408 1.344l-1.168.752c-.267-.405-.598-.709-.992-.912-.395-.203-.832-.304-1.312-.304-.555 0-1.056.123-1.504.368-.438.245-.784.597-1.04 1.056-.246.448-.368.965-.368 1.552 0 .597.122 1.125.368 1.584.256.448.602.795 1.04 1.04.448.245.949.368 1.504.368.48 0 .917-.101 1.312-.304.394-.203.725-.507.992-.912l1.168.736c-.331.587-.8 1.04-1.408 1.36-.598.309-1.28.464-2.048.464zm13.028-8.576V606h-1.456v-1.28c-.309.437-.72.779-1.232 1.024-.501.235-1.05.352-1.648.352-1.13 0-2.021-.309-2.672-.928-.65-.629-.976-1.552-.976-2.768v-4.88h1.536v4.704c0 .821.198 1.445.592 1.872.395.416.96.624 1.696.624.811 0 1.451-.245 1.92-.736.47-.491.704-1.184.704-2.08v-4.384h1.536zm5.036 8.576c-.693 0-1.36-.091-2-.272-.64-.192-1.141-.432-1.504-.72l.64-1.216c.374.267.827.48 1.36.64.534.16 1.072.24 1.616.24 1.344 0 2.016-.384 2.016-1.152 0-.256-.09-.459-.272-.608-.181-.149-.41-.256-.688-.32-.266-.075-.65-.155-1.152-.24-.682-.107-1.242-.229-1.68-.368-.426-.139-.794-.373-1.104-.704-.309-.331-.464-.795-.464-1.392 0-.768.32-1.381.96-1.84.64-.469 1.499-.704 2.576-.704.566 0 1.131.069 1.696.208.566.139 1.03.325 1.392.56l-.656 1.216c-.693-.448-1.509-.672-2.448-.672-.65 0-1.146.107-1.488.32-.341.213-.512.496-.512.848 0 .277.096.496.288.656.192.16.427.277.704.352.288.075.688.16 1.2.256.683.117 1.232.245 1.648.384.427.128.79.352 1.088.672.299.32.448.768.448 1.344 0 .768-.33 1.381-.992 1.84-.65.448-1.541.672-2.672.672zm10.032-.592c-.224.192-.501.341-.832.448-.331.096-.672.144-1.024.144-.853 0-1.515-.229-1.984-.688-.469-.459-.704-1.115-.704-1.968v-4.656h-1.44v-1.264h1.44v-1.856h1.536v1.856h2.432v1.264h-2.432v4.592c0 .459.112.811.336 1.056.235.245.565.368.992.368.469 0 .869-.133 1.2-.4l.48 1.104zm4.888.592c-.843 0-1.6-.187-2.272-.56-.672-.373-1.2-.885-1.584-1.536-.374-.661-.56-1.408-.56-2.24 0-.832.186-1.573.56-2.224.384-.661.912-1.173 1.584-1.536.672-.373 1.429-.56 2.272-.56.842 0 1.594.187 2.256.56.672.363 1.194.875 1.568 1.536.384.651.576 1.392.576 2.224 0 .832-.192 1.579-.576 2.24-.374.651-.896 1.163-1.568 1.536-.662.373-1.414.56-2.256.56zm0-1.344c.544 0 1.029-.123 1.456-.368.437-.256.778-.608 1.024-1.056.245-.459.368-.981.368-1.568 0-.587-.123-1.104-.368-1.552-.246-.459-.587-.811-1.024-1.056-.427-.245-.912-.368-1.456-.368-.544 0-1.035.123-1.472.368-.427.245-.768.597-1.024 1.056-.246.448-.368.965-.368 1.552 0 .587.122 1.109.368 1.568.256.448.597.8 1.024 1.056.437.245.928.368 1.472.368zm16.812-7.312c1.067 0 1.909.309 2.528.928.629.619.944 1.536.944 2.752V606h-1.536v-4.704c0-.821-.192-1.44-.576-1.856-.373-.416-.912-.624-1.616-.624-.779 0-1.397.245-1.856.736-.459.48-.688 1.173-.688 2.08V606h-1.536v-4.704c0-.821-.192-1.44-.576-1.856-.373-.416-.912-.624-1.616-.624-.779 0-1.397.245-1.856.736-.459.48-.688 1.173-.688 2.08V606h-1.536v-8.48h1.472v1.264c.309-.437.715-.768 1.216-.992.501-.235 1.072-.352 1.712-.352.661 0 1.248.133 1.76.4s.907.656 1.184 1.168c.32-.491.763-.875 1.328-1.152.576-.277 1.221-.416 1.936-.416zm13.689 4.368c0 .117-.011.272-.032.464h-6.88c.096.747.421 1.349.976 1.808.565.448 1.264.672 2.096.672 1.013 0 1.829-.341 2.448-1.024l.848.992c-.384.448-.864.789-1.44 1.024-.565.235-1.2.352-1.904.352-.896 0-1.691-.181-2.384-.544-.693-.373-1.232-.891-1.616-1.552-.373-.661-.56-1.408-.56-2.24 0-.821.181-1.563.544-2.224.373-.661.88-1.173 1.52-1.536.651-.373 1.381-.56 2.192-.56.811 0 1.531.187 2.16.56.64.363 1.136.875 1.488 1.536.363.661.544 1.419.544 2.272zm-4.192-3.072c-.736 0-1.355.224-1.856.672-.491.448-.779 1.035-.864 1.76h5.44c-.085-.715-.379-1.296-.88-1.744-.491-.459-1.104-.688-1.84-.688zm7.477.208c.267-.491.661-.864 1.184-1.12.523-.256 1.157-.384 1.904-.384v1.488c-.085-.011-.203-.016-.352-.016-.832 0-1.488.251-1.968.752-.469.491-.704 1.195-.704 2.112V606h-1.536v-8.48h1.472v1.424zM780.897 575.8h1.6V587h-1.6v-11.2zm8.937 2.64c1.077 0 1.93.315 2.56.944.64.619.96 1.531.96 2.736V587h-1.536v-4.704c0-.821-.198-1.44-.592-1.856-.395-.416-.96-.624-1.696-.624-.832 0-1.488.245-1.968.736-.48.48-.72 1.173-.72 2.08V587h-1.536v-8.48h1.472v1.28c.309-.437.725-.773 1.248-1.008.533-.235 1.136-.352 1.808-.352zm8.474 8.656c-.693 0-1.36-.091-2-.272-.64-.192-1.141-.432-1.504-.72l.64-1.216c.374.267.827.48 1.36.64.534.16 1.072.24 1.616.24 1.344 0 2.016-.384 2.016-1.152 0-.256-.09-.459-.272-.608-.181-.149-.41-.256-.688-.32-.266-.075-.65-.155-1.152-.24-.682-.107-1.242-.229-1.68-.368-.426-.139-.794-.373-1.104-.704-.309-.331-.464-.795-.464-1.392 0-.768.32-1.381.96-1.84.64-.469 1.499-.704 2.576-.704.566 0 1.131.069 1.696.208.566.139 1.03.325 1.392.56l-.656 1.216c-.693-.448-1.509-.672-2.448-.672-.65 0-1.146.107-1.488.32-.341.213-.512.496-.512.848 0 .277.096.496.288.656.192.16.427.277.704.352.288.075.688.16 1.2.256.683.117 1.232.245 1.648.384.427.128.79.352 1.088.672.299.32.448.768.448 1.344 0 .768-.33 1.381-.992 1.84-.65.448-1.541.672-2.672.672zm13.168-8.576V587h-1.456v-1.28c-.309.437-.72.779-1.232 1.024-.501.235-1.051.352-1.648.352-1.131 0-2.021-.309-2.672-.928-.651-.629-.976-1.552-.976-2.768v-4.88h1.536v4.704c0 .821.197 1.445.592 1.872.395.416.96.624 1.696.624.811 0 1.451-.245 1.92-.736.469-.491.704-1.184.704-2.08v-4.384h1.536zm4.076 1.424c.267-.491.661-.864 1.184-1.12.523-.256 1.157-.384 1.904-.384v1.488c-.085-.011-.203-.016-.352-.016-.832 0-1.488.251-1.968.752-.469.491-.704 1.195-.704 2.112V587h-1.536v-8.48h1.472v1.424zm12.247 2.864c0 .117-.011.272-.032.464h-6.88c.096.747.421 1.349.976 1.808.565.448 1.264.672 2.096.672 1.013 0 1.829-.341 2.448-1.024l.848.992c-.384.448-.864.789-1.44 1.024-.565.235-1.2.352-1.904.352-.896 0-1.691-.181-2.384-.544-.693-.373-1.232-.891-1.616-1.552-.373-.661-.56-1.408-.56-2.24 0-.821.181-1.563.544-2.224.373-.661.88-1.173 1.52-1.536.651-.373 1.381-.56 2.192-.56.811 0 1.531.187 2.16.56.64.363 1.136.875 1.488 1.536.363.661.544 1.419.544 2.272zm-4.192-3.072c-.736 0-1.355.224-1.856.672-.491.448-.779 1.035-.864 1.76h5.44c-.085-.715-.379-1.296-.88-1.744-.491-.459-1.104-.688-1.84-.688zm7.477.208c.267-.491.661-.864 1.184-1.12.523-.256 1.157-.384 1.904-.384v1.488c-.085-.011-.203-.016-.352-.016-.832 0-1.488.251-1.968.752-.469.491-.704 1.195-.704 2.112V587h-1.536v-8.48h1.472v1.424zm18.603-4.144V587h-1.312l-6.72-8.352V587h-1.6v-11.2h1.312l6.72 8.352V575.8h1.6zm6.441 11.296c-.843 0-1.6-.187-2.272-.56-.672-.373-1.2-.885-1.584-1.536-.374-.661-.56-1.408-.56-2.24 0-.832.186-1.573.56-2.224.384-.661.912-1.173 1.584-1.536.672-.373 1.429-.56 2.272-.56.842 0 1.594.187 2.256.56.672.363 1.194.875 1.568 1.536.384.651.576 1.392.576 2.224 0 .832-.192 1.579-.576 2.24-.374.651-.896 1.163-1.568 1.536-.662.373-1.414.56-2.256.56zm0-1.344c.544 0 1.029-.123 1.456-.368.437-.256.778-.608 1.024-1.056.245-.459.368-.981.368-1.568 0-.587-.123-1.104-.368-1.552-.246-.459-.587-.811-1.024-1.056-.427-.245-.912-.368-1.456-.368-.544 0-1.035.123-1.472.368-.427.245-.768.597-1.024 1.056-.246.448-.368.965-.368 1.552 0 .587.122 1.109.368 1.568.256.448.597.8 1.024 1.056.437.245.928.368 1.472.368zm10.972.752c-.224.192-.501.341-.832.448-.331.096-.672.144-1.024.144-.853 0-1.515-.229-1.984-.688-.469-.459-.704-1.115-.704-1.968v-4.656h-1.44v-1.264h1.44v-1.856h1.536v1.856h2.432v1.264h-2.432v4.592c0 .459.112.811.336 1.056.235.245.565.368.992.368.469 0 .869-.133 1.2-.4l.48 1.104zm1.537-7.984h1.536V587h-1.536v-8.48zm.768-1.632c-.299 0-.549-.096-.752-.288-.192-.192-.288-.427-.288-.704 0-.277.096-.512.288-.704.203-.203.453-.304.752-.304s.544.096.736.288c.203.181.304.411.304.688 0 .288-.101.533-.304.736-.192.192-.437.288-.736.288zm6.485-.592c-.918 0-1.376.496-1.376 1.488v.736h2.464v1.264h-2.432V587h-1.536v-7.216h-1.44v-1.264h1.44v-.752c0-.843.245-1.509.736-2 .49-.491 1.178-.736 2.064-.736.341 0 .661.043.96.128.298.085.554.208.768.368l-.464 1.168c-.352-.267-.747-.4-1.184-.4zm3.824 2.224h1.536V587h-1.536v-8.48zm.768-1.632c-.299 0-.55-.096-.752-.288-.192-.192-.288-.427-.288-.704 0-.277.096-.512.288-.704.202-.203.453-.304.752-.304.298 0 .544.096.736.288.202.181.304.411.304.688 0 .288-.102.533-.304.736-.192.192-.438.288-.736.288zm11.038 5.92c0 .117-.01.272-.032.464h-6.88c.096.747.422 1.349.976 1.808.566.448 1.264.672 2.096.672 1.014 0 1.83-.341 2.448-1.024l.848.992c-.384.448-.864.789-1.44 1.024-.565.235-1.2.352-1.904.352-.896 0-1.69-.181-2.384-.544-.693-.373-1.232-.891-1.616-1.552-.373-.661-.56-1.408-.56-2.24 0-.821.182-1.563.544-2.224.374-.661.88-1.173 1.52-1.536.651-.373 1.382-.56 2.192-.56.811 0 1.531.187 2.16.56.64.363 1.136.875 1.488 1.536.363.661.544 1.419.544 2.272zm-4.192-3.072c-.736 0-1.354.224-1.856.672-.49.448-.778 1.035-.864 1.76h5.44c-.085-.715-.378-1.296-.88-1.744-.49-.459-1.104-.688-1.84-.688zm14.005-4.608V587h-1.472v-1.344c-.341.469-.773.827-1.296 1.072-.522.245-1.098.368-1.728.368-.821 0-1.557-.181-2.208-.544-.65-.363-1.162-.869-1.536-1.52-.362-.661-.544-1.419-.544-2.272 0-.853.182-1.605.544-2.256.374-.651.886-1.157 1.536-1.52.651-.363 1.387-.544 2.208-.544.608 0 1.168.117 1.68.352.512.224.939.56 1.28 1.008v-4.672h1.536zm-4.368 10.624c.534 0 1.019-.123 1.456-.368.438-.256.779-.608 1.024-1.056.246-.459.368-.981.368-1.568 0-.587-.122-1.104-.368-1.552-.245-.459-.586-.811-1.024-1.056-.437-.245-.922-.368-1.456-.368-.544 0-1.034.123-1.472.368-.426.245-.768.597-1.024 1.056-.245.448-.368.965-.368 1.552 0 .587.123 1.109.368 1.568.256.448.598.8 1.024 1.056.438.245.928.368 1.472.368zM1070.34 296.8h4.72c1.18 0 2.23.235 3.15.704.92.469 1.63 1.131 2.13 1.984.51.843.77 1.813.77 2.912s-.26 2.075-.77 2.928c-.5.843-1.21 1.499-2.13 1.968-.92.469-1.97.704-3.15.704h-4.72v-11.2zm4.62 9.808c.91 0 1.7-.176 2.39-.528.69-.352 1.22-.843 1.6-1.472.37-.64.56-1.376.56-2.208 0-.832-.19-1.563-.56-2.192-.38-.64-.91-1.136-1.6-1.488-.69-.352-1.48-.528-2.39-.528h-3.02v8.416h3.02zm11.14-7.168c1.17 0 2.07.288 2.69.864.63.576.94 1.435.94 2.576V308h-1.45v-1.12c-.26.395-.63.699-1.11.912-.47.203-1.03.304-1.68.304-.95 0-1.71-.229-2.29-.688-.56-.459-.84-1.061-.84-1.808 0-.747.27-1.344.81-1.792.55-.459 1.41-.688 2.59-.688h2.44v-.304c0-.661-.2-1.168-.58-1.52-.38-.352-.95-.528-1.7-.528-.5 0-.99.085-1.47.256-.48.16-.88.379-1.21.656l-.64-1.152c.43-.352.96-.619 1.56-.8.61-.192 1.26-.288 1.94-.288zm-.35 7.472c.58 0 1.09-.128 1.52-.384.42-.267.73-.64.93-1.12v-1.184h-2.37c-1.3 0-1.95.437-1.95 1.312 0 .427.16.763.49 1.008.33.245.79.368 1.38.368zm17.11-7.472c1.07 0 1.91.309 2.53.928.63.619.94 1.536.94 2.752V308h-1.53v-4.704c0-.821-.19-1.44-.58-1.856-.37-.416-.91-.624-1.61-.624-.78 0-1.4.245-1.86.736-.46.48-.69 1.173-.69 2.08V308h-1.53v-4.704c0-.821-.2-1.44-.58-1.856-.37-.416-.91-.624-1.62-.624-.77 0-1.39.245-1.85.736-.46.48-.69 1.173-.69 2.08V308h-1.54v-8.48h1.48v1.264c.31-.437.71-.768 1.21-.992.5-.235 1.07-.352 1.71-.352.67 0 1.25.133 1.76.4.52.267.91.656 1.19 1.168.32-.491.76-.875 1.33-1.152.57-.277 1.22-.416 1.93-.416zm9.07 0c1.17 0 2.07.288 2.69.864.63.576.94 1.435.94 2.576V308h-1.45v-1.12c-.26.395-.63.699-1.11.912-.47.203-1.03.304-1.68.304-.95 0-1.71-.229-2.29-.688-.56-.459-.84-1.061-.84-1.808 0-.747.27-1.344.81-1.792.55-.459 1.41-.688 2.59-.688h2.44v-.304c0-.661-.2-1.168-.58-1.52-.38-.352-.95-.528-1.7-.528-.5 0-.99.085-1.47.256-.48.16-.88.379-1.21.656l-.64-1.152c.43-.352.96-.619 1.56-.8.61-.192 1.26-.288 1.94-.288zm-.35 7.472c.58 0 1.09-.128 1.52-.384.42-.267.73-.64.93-1.12v-1.184h-2.37c-1.3 0-1.95.437-1.95 1.312 0 .427.16.763.49 1.008.33.245.79.368 1.38.368zm14.66-7.392v7.328c0 1.483-.37 2.576-1.1 3.28-.74.715-1.84 1.072-3.3 1.072-.8 0-1.56-.112-2.29-.336-.72-.213-1.31-.523-1.76-.928l.74-1.184c.4.341.88.608 1.46.8.58.203 1.19.304 1.8.304 1 0 1.73-.235 2.2-.704.48-.469.72-1.184.72-2.144v-.672c-.37.437-.81.768-1.35.992-.52.213-1.09.32-1.71.32-.81 0-1.55-.171-2.21-.512-.65-.352-1.16-.837-1.53-1.456-.38-.629-.56-1.344-.56-2.144s.18-1.509.56-2.128c.37-.629.88-1.115 1.53-1.456.66-.341 1.4-.512 2.21-.512.64 0 1.23.117 1.78.352s1 .581 1.36 1.04v-1.312h1.45zm-4.41 6.784c.55 0 1.05-.117 1.48-.352.45-.235.8-.56 1.04-.976.26-.427.39-.907.39-1.44 0-.821-.27-1.483-.82-1.984-.54-.512-1.24-.768-2.09-.768-.87 0-1.57.256-2.12.768-.54.501-.81 1.163-.81 1.984 0 .533.12 1.013.37 1.44.25.416.6.741 1.04.976.44.235.95.352 1.52.352zm14.69-2.496c0 .117-.01.272-.03.464h-6.88c.1.747.42 1.349.98 1.808.56.448 1.26.672 2.09.672 1.01 0 1.83-.341 2.45-1.024l.85.992c-.39.448-.87.789-1.44 1.024s-1.2.352-1.91.352c-.89 0-1.69-.181-2.38-.544-.69-.373-1.23-.891-1.62-1.552-.37-.661-.56-1.408-.56-2.24 0-.821.18-1.563.55-2.224.37-.661.88-1.173 1.52-1.536.65-.373 1.38-.56 2.19-.56s1.53.187 2.16.56c.64.363 1.14.875 1.49 1.536.36.661.54 1.419.54 2.272zm-4.19-3.072c-.74 0-1.36.224-1.86.672-.49.448-.78 1.035-.86 1.76h5.44c-.09-.715-.38-1.296-.88-1.744-.49-.459-1.1-.688-1.84-.688zm13.07-1.296c1.17 0 2.07.288 2.69.864.63.576.94 1.435.94 2.576V308h-1.45v-1.12c-.26.395-.63.699-1.11.912-.47.203-1.03.304-1.68.304-.95 0-1.71-.229-2.29-.688-.56-.459-.84-1.061-.84-1.808 0-.747.27-1.344.81-1.792.55-.459 1.41-.688 2.59-.688h2.44v-.304c0-.661-.2-1.168-.58-1.52-.38-.352-.95-.528-1.7-.528-.5 0-.99.085-1.47.256-.48.16-.88.379-1.21.656l-.64-1.152c.43-.352.96-.619 1.56-.8.61-.192 1.26-.288 1.94-.288zm-.35 7.472c.58 0 1.09-.128 1.52-.384.42-.267.73-.64.93-1.12v-1.184h-2.37c-1.3 0-1.95.437-1.95 1.312 0 .427.16.763.49 1.008.33.245.79.368 1.38.368zm8.94 1.184c-.7 0-1.36-.091-2-.272-.64-.192-1.15-.432-1.51-.72l.64-1.216c.37.267.83.48 1.36.64.53.16 1.07.24 1.62.24 1.34 0 2.01-.384 2.01-1.152 0-.256-.09-.459-.27-.608-.18-.149-.41-.256-.69-.32-.26-.075-.65-.155-1.15-.24-.68-.107-1.24-.229-1.68-.368-.43-.139-.79-.373-1.1-.704-.31-.331-.47-.795-.47-1.392 0-.768.32-1.381.96-1.84.64-.469 1.5-.704 2.58-.704.56 0 1.13.069 1.7.208.56.139 1.02.325 1.39.56l-.66 1.216c-.69-.448-1.51-.672-2.45-.672-.65 0-1.14.107-1.48.32-.35.213-.52.496-.52.848 0 .277.1.496.29.656.19.16.43.277.71.352.28.075.68.16 1.2.256.68.117 1.23.245 1.64.384.43.128.79.352 1.09.672.3.32.45.768.45 1.344 0 .768-.33 1.381-.99 1.84-.65.448-1.54.672-2.67.672zm7.69 0c-.69 0-1.36-.091-2-.272-.64-.192-1.14-.432-1.5-.72l.64-1.216c.37.267.82.48 1.36.64.53.16 1.07.24 1.61.24 1.35 0 2.02-.384 2.02-1.152 0-.256-.09-.459-.27-.608-.18-.149-.41-.256-.69-.32-.27-.075-.65-.155-1.15-.24-.69-.107-1.25-.229-1.68-.368-.43-.139-.8-.373-1.11-.704-.31-.331-.46-.795-.46-1.392 0-.768.32-1.381.96-1.84.64-.469 1.5-.704 2.58-.704.56 0 1.13.069 1.69.208.57.139 1.03.325 1.39.56l-.65 1.216c-.7-.448-1.51-.672-2.45-.672-.65 0-1.15.107-1.49.32-.34.213-.51.496-.51.848 0 .277.1.496.29.656.19.16.42.277.7.352.29.075.69.16 1.2.256.68.117 1.23.245 1.65.384.43.128.79.352 1.09.672.3.32.45.768.45 1.344 0 .768-.34 1.381-1 1.84-.65.448-1.54.672-2.67.672zm12.93-4.288c0 .117-.01.272-.03.464h-6.88c.09.747.42 1.349.97 1.808.57.448 1.27.672 2.1.672 1.01 0 1.83-.341 2.45-1.024l.84.992c-.38.448-.86.789-1.44 1.024-.56.235-1.2.352-1.9.352-.9 0-1.69-.181-2.38-.544-.7-.373-1.24-.891-1.62-1.552-.37-.661-.56-1.408-.56-2.24 0-.821.18-1.563.54-2.224.38-.661.88-1.173 1.52-1.536.66-.373 1.39-.56 2.2-.56.81 0 1.53.187 2.16.56.64.363 1.13.875 1.48 1.536.37.661.55 1.419.55 2.272zm-4.19-3.072c-.74 0-1.36.224-1.86.672-.49.448-.78 1.035-.86 1.76h5.44c-.09-.715-.38-1.296-.88-1.744-.49-.459-1.11-.688-1.84-.688zm8.43 7.36c-.69 0-1.36-.091-2-.272-.64-.192-1.14-.432-1.5-.72l.64-1.216c.37.267.83.48 1.36.64.53.16 1.07.24 1.62.24 1.34 0 2.01-.384 2.01-1.152 0-.256-.09-.459-.27-.608-.18-.149-.41-.256-.69-.32-.27-.075-.65-.155-1.15-.24-.68-.107-1.24-.229-1.68-.368-.43-.139-.8-.373-1.1-.704-.31-.331-.47-.795-.47-1.392 0-.768.32-1.381.96-1.84.64-.469 1.5-.704 2.58-.704.56 0 1.13.069 1.69.208.57.139 1.03.325 1.4.56l-.66 1.216c-.69-.448-1.51-.672-2.45-.672-.65 0-1.15.107-1.49.32-.34.213-.51.496-.51.848 0 .277.1.496.29.656.19.16.43.277.7.352.29.075.69.16 1.2.256.69.117 1.24.245 1.65.384.43.128.79.352 1.09.672.3.32.45.768.45 1.344 0 .768-.33 1.381-.99 1.84-.66.448-1.55.672-2.68.672zm7.7 0c-.69 0-1.36-.091-2-.272-.64-.192-1.14-.432-1.5-.72l.64-1.216c.37.267.82.48 1.36.64.53.16 1.07.24 1.61.24 1.35 0 2.02-.384 2.02-1.152 0-.256-.09-.459-.27-.608-.19-.149-.42-.256-.69-.32-.27-.075-.65-.155-1.15-.24-.69-.107-1.25-.229-1.68-.368-.43-.139-.8-.373-1.11-.704-.31-.331-.46-.795-.46-1.392 0-.768.32-1.381.96-1.84.64-.469 1.5-.704 2.57-.704.57 0 1.13.069 1.7.208.56.139 1.03.325 1.39.56l-.65 1.216c-.7-.448-1.51-.672-2.45-.672-.65 0-1.15.107-1.49.32-.34.213-.51.496-.51.848 0 .277.09.496.29.656.19.16.42.277.7.352.29.075.69.16 1.2.256.68.117 1.23.245 1.65.384.42.128.79.352 1.09.672.29.32.44.768.44 1.344 0 .768-.33 1.381-.99 1.84-.65.448-1.54.672-2.67.672zm15.87-8.656c1.07 0 1.91.309 2.53.928.63.619.94 1.536.94 2.752V308h-1.53v-4.704c0-.821-.2-1.44-.58-1.856-.37-.416-.91-.624-1.62-.624-.77 0-1.39.245-1.85.736-.46.48-.69 1.173-.69 2.08V308h-1.54v-4.704c0-.821-.19-1.44-.57-1.856-.37-.416-.91-.624-1.62-.624-.78 0-1.39.245-1.85.736-.46.48-.69 1.173-.69 2.08V308h-1.54v-8.48h1.47v1.264c.31-.437.72-.768 1.22-.992.5-.235 1.07-.352 1.71-.352.66 0 1.25.133 1.76.4s.91.656 1.19 1.168c.32-.491.76-.875 1.32-1.152.58-.277 1.23-.416 1.94-.416zm13.69 4.368c0 .117-.01.272-.03.464h-6.88c.09.747.42 1.349.97 1.808.57.448 1.27.672 2.1.672 1.01 0 1.83-.341 2.45-1.024l.85.992c-.39.448-.87.789-1.44 1.024s-1.2.352-1.91.352c-.89 0-1.69-.181-2.38-.544-.7-.373-1.23-.891-1.62-1.552-.37-.661-.56-1.408-.56-2.24 0-.821.18-1.563.55-2.224.37-.661.88-1.173 1.52-1.536.65-.373 1.38-.56 2.19-.56s1.53.187 2.16.56c.64.363 1.13.875 1.49 1.536.36.661.54 1.419.54 2.272zm-4.19-3.072c-.74 0-1.36.224-1.86.672-.49.448-.78 1.035-.86 1.76h5.44c-.09-.715-.38-1.296-.88-1.744-.49-.459-1.11-.688-1.84-.688zm10.53-1.296c1.08 0 1.93.315 2.56.944.64.619.96 1.531.96 2.736V308h-1.54v-4.704c0-.821-.19-1.44-.59-1.856-.39-.416-.96-.624-1.69-.624-.84 0-1.49.245-1.97.736-.48.48-.72 1.173-.72 2.08V308h-1.54v-8.48h1.47v1.28c.31-.437.73-.773 1.25-1.008.54-.235 1.14-.352 1.81-.352zm10.81 8.064c-.22.192-.5.341-.83.448-.33.096-.67.144-1.02.144-.86 0-1.52-.229-1.99-.688-.47-.459-.7-1.115-.7-1.968v-4.656h-1.44v-1.264h1.44v-1.856h1.53v1.856h2.44v1.264h-2.44v4.592c0 .459.12.811.34 1.056.23.245.56.368.99.368.47 0 .87-.133 1.2-.4l.48 1.104zm-103.86 12.44c.27-.491.66-.864 1.18-1.12.53-.256 1.16-.384 1.91-.384v1.488c-.09-.011-.2-.016-.35-.016-.84 0-1.49.251-1.97.752-.47.491-.71 1.195-.71 2.112V327h-1.53v-8.48h1.47v1.424zm12.25 2.864c0 .117-.01.272-.04.464h-6.88c.1.747.43 1.349.98 1.808.57.448 1.26.672 2.1.672 1.01 0 1.83-.341 2.44-1.024l.85.992c-.38.448-.86.789-1.44 1.024-.56.235-1.2.352-1.9.352-.9 0-1.69-.181-2.39-.544-.69-.373-1.23-.891-1.61-1.552-.37-.661-.56-1.408-.56-2.24 0-.821.18-1.563.54-2.224.38-.661.88-1.173 1.52-1.536.65-.373 1.38-.56 2.19-.56.82 0 1.54.187 2.16.56.64.363 1.14.875 1.49 1.536.37.661.55 1.419.55 2.272zm-4.2-3.072c-.73 0-1.35.224-1.85.672-.49.448-.78 1.035-.87 1.76h5.44c-.08-.715-.37-1.296-.88-1.744-.49-.459-1.1-.688-1.84-.688zm10.51-1.296c.82 0 1.55.181 2.2.544.65.363 1.16.869 1.52 1.52.38.651.56 1.403.56 2.256 0 .853-.18 1.611-.56 2.272-.36.651-.87 1.157-1.52 1.52s-1.38.544-2.2.544c-.61 0-1.17-.117-1.68-.352s-.93-.576-1.28-1.024v4.384h-1.54V318.52h1.47v1.344c.34-.469.78-.821 1.3-1.056.52-.245 1.1-.368 1.73-.368zm-.13 7.312c.54 0 1.03-.123 1.45-.368.44-.256.78-.608 1.03-1.056.25-.459.38-.981.38-1.568 0-.587-.13-1.104-.38-1.552-.25-.459-.59-.811-1.03-1.056-.42-.245-.91-.368-1.45-.368-.54 0-1.02.128-1.46.384-.42.245-.77.592-1.02 1.04-.25.448-.37.965-.37 1.552 0 .587.12 1.109.37 1.568.24.448.58.8 1.02 1.056.44.245.92.368 1.46.368zm9.85 1.344c-.84 0-1.6-.187-2.27-.56-.68-.373-1.2-.885-1.59-1.536-.37-.661-.56-1.408-.56-2.24 0-.832.19-1.573.56-2.224.39-.661.91-1.173 1.59-1.536.67-.373 1.43-.56 2.27-.56.84 0 1.59.187 2.25.56.68.363 1.2.875 1.57 1.536.39.651.58 1.392.58 2.224 0 .832-.19 1.579-.58 2.24-.37.651-.89 1.163-1.57 1.536-.66.373-1.41.56-2.25.56zm0-1.344c.54 0 1.03-.123 1.45-.368.44-.256.78-.608 1.03-1.056.24-.459.37-.981.37-1.568 0-.587-.13-1.104-.37-1.552-.25-.459-.59-.811-1.03-1.056-.42-.245-.91-.368-1.45-.368-.55 0-1.04.123-1.47.368-.43.245-.77.597-1.03 1.056-.24.448-.37.965-.37 1.552 0 .587.13 1.109.37 1.568.26.448.6.8 1.03 1.056.43.245.92.368 1.47.368zm7.67-5.808c.27-.491.67-.864 1.19-1.12.52-.256 1.16-.384 1.9-.384v1.488c-.08-.011-.2-.016-.35-.016-.83 0-1.49.251-1.97.752-.47.491-.7 1.195-.7 2.112V327h-1.54v-8.48h1.47v1.424zm9.78 6.56c-.23.192-.5.341-.83.448-.34.096-.68.144-1.03.144-.85 0-1.51-.229-1.98-.688-.47-.459-.71-1.115-.71-1.968v-4.656h-1.44v-1.264h1.44v-1.856h1.54v1.856h2.43v1.264h-2.43v4.592c0 .459.11.811.34 1.056.23.245.56.368.99.368.47 0 .87-.133 1.2-.4l.48 1.104zM944.086 493.644h-2.88V492.6h6.948v1.044h-2.88V501h-1.188v-7.356zm7.034 7.428c-.632 0-1.2-.14-1.704-.42-.504-.28-.9-.664-1.188-1.152-.28-.496-.42-1.056-.42-1.68 0-.624.14-1.18.42-1.668.288-.496.684-.88 1.188-1.152.504-.28 1.072-.42 1.704-.42.632 0 1.196.14 1.692.42.504.272.896.656 1.176 1.152.288.488.432 1.044.432 1.668 0 .624-.144 1.184-.432 1.68-.28.488-.672.872-1.176 1.152-.496.28-1.06.42-1.692.42zm0-1.008c.408 0 .772-.092 1.092-.276.328-.192.584-.456.768-.792.184-.344.276-.736.276-1.176 0-.44-.092-.828-.276-1.164-.184-.344-.44-.608-.768-.792-.32-.184-.684-.276-1.092-.276-.408 0-.776.092-1.104.276-.32.184-.576.448-.768.792-.184.336-.276.724-.276 1.164 0 .44.092.832.276 1.176.192.336.448.6.768.792.328.184.696.276 1.104.276zm8.229.564c-.168.144-.376.256-.624.336-.248.072-.504.108-.768.108-.64 0-1.136-.172-1.488-.516-.352-.344-.528-.836-.528-1.476v-3.492h-1.08v-.948h1.08v-1.392h1.152v1.392h1.824v.948h-1.824v3.444c0 .344.084.608.252.792.176.184.424.276.744.276.352 0 .652-.1.9-.3l.36.828zm3.469-6.048c.88 0 1.552.216 2.016.648.472.432.708 1.076.708 1.932V501h-1.092v-.84c-.192.296-.468.524-.828.684-.352.152-.772.228-1.26.228-.712 0-1.284-.172-1.716-.516-.424-.344-.636-.796-.636-1.356s.204-1.008.612-1.344c.408-.344 1.056-.516 1.944-.516h1.824v-.228c0-.496-.144-.876-.432-1.14-.288-.264-.712-.396-1.272-.396-.376 0-.744.064-1.104.192-.36.12-.664.284-.912.492l-.48-.864c.328-.264.72-.464 1.176-.6.456-.144.94-.216 1.452-.216zm-.264 5.604c.44 0 .82-.096 1.14-.288.32-.2.552-.48.696-.84v-.888h-1.776c-.976 0-1.464.328-1.464.984 0 .32.124.572.372.756.248.184.592.276 1.032.276zm4.88-8.088h1.152V501h-1.152v-8.904zm6.094 0h1.152V501h-1.152v-8.904zm5.836 8.976c-.632 0-1.2-.14-1.704-.42-.504-.28-.9-.664-1.188-1.152-.28-.496-.42-1.056-.42-1.68 0-.624.14-1.18.42-1.668.288-.496.684-.88 1.188-1.152.504-.28 1.072-.42 1.704-.42.632 0 1.196.14 1.692.42.504.272.896.656 1.176 1.152.288.488.432 1.044.432 1.668 0 .624-.144 1.184-.432 1.68-.28.488-.672.872-1.176 1.152-.496.28-1.06.42-1.692.42zm0-1.008c.408 0 .772-.092 1.092-.276.328-.192.584-.456.768-.792.184-.344.276-.736.276-1.176 0-.44-.092-.828-.276-1.164-.184-.344-.44-.608-.768-.792-.32-.184-.684-.276-1.092-.276-.408 0-.776.092-1.104.276-.32.184-.576.448-.768.792-.184.336-.276.724-.276 1.164 0 .44.092.832.276 1.176.192.336.448.6.768.792.328.184.696.276 1.104.276zm6.477 1.008c-.52 0-1.02-.068-1.5-.204-.48-.144-.856-.324-1.128-.54l.48-.912c.28.2.62.36 1.02.48s.804.18 1.212.18c1.008 0 1.512-.288 1.512-.864 0-.192-.068-.344-.204-.456-.136-.112-.308-.192-.516-.24-.2-.056-.488-.116-.864-.18-.512-.08-.932-.172-1.26-.276-.32-.104-.596-.28-.828-.528-.232-.248-.348-.596-.348-1.044 0-.576.24-1.036.72-1.38.48-.352 1.124-.528 1.932-.528.424 0 .848.052 1.272.156.424.104.772.244 1.044.42l-.492.912c-.52-.336-1.132-.504-1.836-.504-.488 0-.86.08-1.116.24-.256.16-.384.372-.384.636 0 .208.072.372.216.492.144.12.32.208.528.264.216.056.516.12.9.192.512.088.924.184 1.236.288.32.096.592.264.816.504.224.24.336.576.336 1.008 0 .576-.248 1.036-.744 1.38-.488.336-1.156.504-2.004.504zm5.772 0c-.52 0-1.02-.068-1.5-.204-.48-.144-.856-.324-1.128-.54l.48-.912c.28.2.62.36 1.02.48s.804.18 1.212.18c1.008 0 1.512-.288 1.512-.864 0-.192-.068-.344-.204-.456-.136-.112-.308-.192-.516-.24-.2-.056-.488-.116-.864-.18-.512-.08-.932-.172-1.26-.276-.32-.104-.596-.28-.828-.528-.232-.248-.348-.596-.348-1.044 0-.576.24-1.036.72-1.38.48-.352 1.124-.528 1.932-.528.424 0 .848.052 1.272.156.424.104.772.244 1.044.42l-.492.912c-.52-.336-1.132-.504-1.836-.504-.488 0-.86.08-1.116.24-.256.16-.384.372-.384.636 0 .208.072.372.216.492.144.12.32.208.528.264.216.056.516.12.9.192.512.088.924.184 1.236.288.32.096.592.264.816.504.224.24.336.576.336 1.008 0 .576-.248 1.036-.744 1.38-.488.336-1.156.504-2.004.504zm9.467-10.176h1.04l-3.961 11.304h-1.044l3.965-11.304zM1011.29 501l-1.81-2.58c-.23.016-.4.024-.53.024h-2.08V501h-1.2v-8.4h3.28c1.09 0 1.94.26 2.57.78.62.52.93 1.236.93 2.148 0 .648-.16 1.2-.48 1.656-.32.456-.77.788-1.37.996l2 2.82h-1.31zm-2.38-3.576c.76 0 1.34-.164 1.74-.492.4-.328.6-.796.6-1.404 0-.608-.2-1.072-.6-1.392-.4-.328-.98-.492-1.74-.492h-2.04v3.78h2.04zm10.82.432c0 .088-.01.204-.02.348h-5.16c.07.56.31 1.012.73 1.356.42.336.95.504 1.57.504.76 0 1.37-.256 1.84-.768l.63.744c-.28.336-.64.592-1.08.768-.42.176-.9.264-1.42.264-.68 0-1.27-.136-1.79-.408-.52-.28-.93-.668-1.21-1.164-.28-.496-.42-1.056-.42-1.68 0-.616.13-1.172.4-1.668.28-.496.66-.88 1.14-1.152.49-.28 1.04-.42 1.65-.42.61 0 1.15.14 1.62.42.48.272.85.656 1.11 1.152.28.496.41 1.064.41 1.704zm-3.14-2.304c-.55 0-1.02.168-1.39.504-.37.336-.59.776-.65 1.32h4.08c-.07-.536-.29-.972-.66-1.308-.37-.344-.83-.516-1.38-.516zm7.87-.972c.62 0 1.17.136 1.66.408.49.272.87.652 1.14 1.14.28.488.42 1.052.42 1.692 0 .64-.14 1.208-.42 1.704-.27.488-.65.868-1.14 1.14-.49.272-1.04.408-1.66.408-.45 0-.87-.088-1.26-.264-.37-.176-.69-.432-.96-.768v3.288h-1.15v-8.688h1.1v1.008c.26-.352.58-.616.98-.792.39-.184.82-.276 1.29-.276zm-.09 5.484c.4 0 .77-.092 1.09-.276.33-.192.58-.456.77-.792.19-.344.28-.736.28-1.176 0-.44-.09-.828-.28-1.164-.19-.344-.44-.608-.77-.792-.32-.184-.69-.276-1.09-.276-.4 0-.77.096-1.1.288-.32.184-.57.444-.76.78-.19.336-.28.724-.28 1.164 0 .44.09.832.28 1.176.18.336.44.6.76.792.33.184.7.276 1.1.276zm6.92-5.484c.88 0 1.55.216 2.01.648.48.432.71 1.076.71 1.932V501h-1.09v-.84c-.19.296-.47.524-.83.684-.35.152-.77.228-1.26.228-.71 0-1.28-.172-1.71-.516-.43-.344-.64-.796-.64-1.356s.2-1.008.61-1.344c.41-.344 1.06-.516 1.95-.516h1.82v-.228c0-.496-.14-.876-.43-1.14-.29-.264-.71-.396-1.27-.396-.38 0-.75.064-1.11.192-.36.12-.66.284-.91.492l-.48-.864c.33-.264.72-.464 1.18-.6.45-.144.94-.216 1.45-.216zm-.27 5.604c.44 0 .82-.096 1.14-.288.32-.2.56-.48.7-.84v-.888h-1.78c-.97 0-1.46.328-1.46.984 0 .32.12.572.37.756.25.184.59.276 1.03.276zm4.88-5.544h1.16V501h-1.16v-6.36zm.58-1.224c-.22 0-.41-.072-.56-.216-.15-.144-.22-.32-.22-.528 0-.208.07-.384.22-.528.15-.152.34-.228.56-.228.22 0 .41.072.55.216.15.136.23.308.23.516 0 .216-.08.4-.23.552-.14.144-.33.216-.55.216zm3.64 2.292c.2-.368.5-.648.89-.84.39-.192.87-.288 1.43-.288v1.116c-.07-.008-.16-.012-.27-.012-.62 0-1.11.188-1.47.564-.36.368-.53.896-.53 1.584V501h-1.15v-6.36h1.1v1.068zm5.8-1.128c.88 0 1.55.216 2.02.648.47.432.7 1.076.7 1.932V501h-1.09v-.84c-.19.296-.47.524-.83.684-.35.152-.77.228-1.26.228-.71 0-1.28-.172-1.71-.516-.43-.344-.64-.796-.64-1.356s.21-1.008.61-1.344c.41-.344 1.06-.516 1.95-.516h1.82v-.228c0-.496-.14-.876-.43-1.14-.29-.264-.71-.396-1.27-.396-.38 0-.75.064-1.11.192-.36.12-.66.284-.91.492l-.48-.864c.33-.264.72-.464 1.18-.6.45-.144.94-.216 1.45-.216zm-.26 5.604c.44 0 .82-.096 1.14-.288.32-.2.55-.48.69-.84v-.888h-1.77c-.98 0-1.47.328-1.47.984 0 .32.13.572.37.756.25.184.6.276 1.04.276zm8.25-5.604c.61 0 1.17.136 1.65.408.49.272.87.652 1.14 1.14.28.488.42 1.052.42 1.692 0 .64-.14 1.208-.42 1.704-.27.488-.65.868-1.14 1.14-.48.272-1.04.408-1.65.408-.47 0-.91-.092-1.3-.276-.39-.184-.71-.452-.97-.804V501h-1.1v-8.904h1.15v3.504c.25-.336.57-.588.96-.756.38-.176.8-.264 1.26-.264zm-.1 5.484c.41 0 .77-.092 1.09-.276.33-.192.59-.456.77-.792.19-.344.29-.736.29-1.176 0-.44-.1-.828-.29-1.164-.18-.344-.44-.608-.77-.792-.32-.184-.68-.276-1.09-.276-.4 0-.76.092-1.09.276-.33.184-.58.448-.77.792-.18.336-.27.724-.27 1.164 0 .44.09.832.27 1.176.19.336.44.6.77.792.33.184.69.276 1.09.276zm4.67-7.968h1.15V501h-1.15v-8.904zm8.85 5.76c0 .088 0 .204-.02.348h-5.16c.07.56.32 1.012.73 1.356.43.336.95.504 1.57.504.76 0 1.38-.256 1.84-.768l.64.744c-.29.336-.65.592-1.08.768-.43.176-.9.264-1.43.264-.67 0-1.27-.136-1.79-.408-.52-.28-.92-.668-1.21-1.164-.28-.496-.42-1.056-.42-1.68 0-.616.13-1.172.41-1.668.28-.496.66-.88 1.14-1.152.48-.28 1.03-.42 1.64-.42.61 0 1.15.14 1.62.42.48.272.85.656 1.12 1.152.27.496.4 1.064.4 1.704zm-3.14-2.304c-.55 0-1.02.168-1.39.504-.37.336-.59.776-.65 1.32h4.08c-.06-.536-.28-.972-.66-1.308-.37-.344-.83-.516-1.38-.516zM1118.72 508.8h4.72c1.19 0 2.24.235 3.15.704.92.469 1.63 1.131 2.13 1.984.51.843.77 1.813.77 2.912s-.26 2.075-.77 2.928c-.5.843-1.21 1.499-2.13 1.968-.91.469-1.96.704-3.15.704h-4.72v-11.2zm4.63 9.808c.9 0 1.7-.176 2.38-.528.69-.352 1.23-.843 1.6-1.472.37-.64.56-1.376.56-2.208 0-.832-.19-1.563-.56-2.192-.37-.64-.91-1.136-1.6-1.488-.68-.352-1.48-.528-2.38-.528h-3.03v8.416h3.03zm15.71-2.8c0 .117-.01.272-.03.464h-6.88c.09.747.42 1.349.97 1.808.57.448 1.27.672 2.1.672 1.01 0 1.83-.341 2.45-1.024l.85.992c-.39.448-.87.789-1.44 1.024s-1.2.352-1.91.352c-.89 0-1.69-.181-2.38-.544-.69-.373-1.23-.891-1.62-1.552-.37-.661-.56-1.408-.56-2.24 0-.821.18-1.563.55-2.224.37-.661.88-1.173 1.52-1.536.65-.373 1.38-.56 2.19-.56s1.53.187 2.16.56c.64.363 1.13.875 1.49 1.536.36.661.54 1.419.54 2.272zm-4.19-3.072c-.74 0-1.36.224-1.86.672-.49.448-.78 1.035-.86 1.76h5.44c-.09-.715-.38-1.296-.88-1.744-.49-.459-1.11-.688-1.84-.688zm9.7 7.36c-.86 0-1.64-.187-2.32-.56-.67-.373-1.2-.885-1.58-1.536-.39-.661-.58-1.408-.58-2.24 0-.832.19-1.573.58-2.224.38-.661.91-1.173 1.58-1.536.68-.373 1.46-.56 2.32-.56.77 0 1.45.155 2.05.464.61.309 1.07.757 1.41 1.344l-1.17.752c-.27-.405-.6-.709-.99-.912-.4-.203-.84-.304-1.32-.304-.55 0-1.05.123-1.5.368-.44.245-.78.597-1.04 1.056-.25.448-.37.965-.37 1.552 0 .597.12 1.125.37 1.584.26.448.6.795 1.04 1.04.45.245.95.368 1.5.368.48 0 .92-.101 1.32-.304.39-.203.72-.507.99-.912l1.17.736c-.34.587-.8 1.04-1.41 1.36-.6.309-1.28.464-2.05.464zm5.12-8.576h1.54V520h-1.54v-8.48zm.77-1.632c-.3 0-.55-.096-.75-.288-.19-.192-.29-.427-.29-.704 0-.277.1-.512.29-.704.2-.203.45-.304.75-.304s.55.096.74.288c.2.181.3.411.3.688 0 .288-.1.533-.3.736-.19.192-.44.288-.74.288zm5.81 10.208c-.69 0-1.36-.091-2-.272-.64-.192-1.14-.432-1.5-.72l.64-1.216c.37.267.83.48 1.36.64.53.16 1.07.24 1.62.24 1.34 0 2.01-.384 2.01-1.152 0-.256-.09-.459-.27-.608-.18-.149-.41-.256-.69-.32-.26-.075-.65-.155-1.15-.24-.68-.107-1.24-.229-1.68-.368-.43-.139-.79-.373-1.1-.704-.31-.331-.47-.795-.47-1.392 0-.768.32-1.381.96-1.84.64-.469 1.5-.704 2.58-.704.56 0 1.13.069 1.69.208.57.139 1.03.325 1.4.56l-.66 1.216c-.69-.448-1.51-.672-2.45-.672-.65 0-1.14.107-1.49.32-.34.213-.51.496-.51.848 0 .277.1.496.29.656.19.16.43.277.7.352.29.075.69.16 1.2.256.69.117 1.24.245 1.65.384.43.128.79.352 1.09.672.3.32.45.768.45 1.344 0 .768-.33 1.381-.99 1.84-.65.448-1.54.672-2.68.672zm5.27-8.576h1.53V520h-1.53v-8.48zm.77-1.632c-.3 0-.55-.096-.76-.288-.19-.192-.28-.427-.28-.704 0-.277.09-.512.28-.704.21-.203.46-.304.76-.304s.54.096.73.288c.21.181.31.411.31.688 0 .288-.1.533-.31.736-.19.192-.43.288-.73.288zm7.01 10.208c-.84 0-1.6-.187-2.27-.56-.67-.373-1.2-.885-1.59-1.536-.37-.661-.56-1.408-.56-2.24 0-.832.19-1.573.56-2.224.39-.661.92-1.173 1.59-1.536.67-.373 1.43-.56 2.27-.56.84 0 1.59.187 2.26.56.67.363 1.19.875 1.56 1.536.39.651.58 1.392.58 2.224 0 .832-.19 1.579-.58 2.24-.37.651-.89 1.163-1.56 1.536s-1.42.56-2.26.56zm0-1.344c.54 0 1.03-.123 1.46-.368.43-.256.77-.608 1.02-1.056.24-.459.37-.981.37-1.568 0-.587-.13-1.104-.37-1.552-.25-.459-.59-.811-1.02-1.056-.43-.245-.92-.368-1.46-.368-.54 0-1.04.123-1.47.368-.43.245-.77.597-1.03 1.056-.24.448-.36.965-.36 1.552 0 .587.12 1.109.36 1.568.26.448.6.8 1.03 1.056.43.245.93.368 1.47.368zm10.73-7.312c1.08 0 1.93.315 2.56.944.64.619.96 1.531.96 2.736V520h-1.53v-4.704c0-.821-.2-1.44-.6-1.856-.39-.416-.96-.624-1.69-.624-.83 0-1.49.245-1.97.736-.48.48-.72 1.173-.72 2.08V520h-1.54v-8.48h1.48v1.28c.3-.437.72-.773 1.24-1.008.54-.235 1.14-.352 1.81-.352z"/>
    <path stroke="#212121" stroke-linecap="round" stroke-linejoin="round" stroke-miterlimit="10" stroke-width="2" d="M583.462 256.158c8.937-2.456 15.834-10.667 15.834-19.93 0-10.667-8.726-19.509-19.213-20.561-4.433-8.492-13.371-13.965-23.083-13.965-12.386 0-23.083 8.842-25.476 20.772-9.008.631-16.82 8.14-16.82 17.263 0 8.842 7.319 16.21 16.116 17.193"/>
    <path stroke="#212121" stroke-linecap="round" stroke-linejoin="round" stroke-miterlimit="10" stroke-width="2" d="M548.414 244.719l-7.038 7.088 6.968 6.947M572.694 251.737h-31.318M565.656 258.333l7.038 7.018-7.038 6.947M541.376 265.351h31.318"/>
    <g stroke="#212121" stroke-linecap="round" stroke-linejoin="round" stroke-width="2" clip-path="url(#clip0)">
        <path d="M1139 247.5h-7.8v7.8h7.8v-7.8zM1139 230h-7.8v7.8h7.8V230z"/>
        <path d="M1172.7 202.1h-8.3c-1.5-2.1-4-3.5-6.8-3.5h-2.5c-.6-2.1-2.5-3.6-4.7-3.6s-4.1 1.5-4.7 3.6h-2.5c-2.8 0-5.3 1.4-6.8 3.5h-7.6c-2.6 0-4.8 2.1-4.8 4.8v54.6c0 2.7 2.2 4.8 4.8 4.8h43.9c2.7 0 4.8-2.2 4.8-4.8v-54.6c0-2.7-2.2-4.8-4.8-4.8z"/>
        <path d="M1130.9 216l3.1 3.1 6.8-6.8M1149.7 212.2h20.5M1149.7 219h8.4M1149.7 230.5h20.5M1149.7 237.3h8.4M1149.7 248h20.5M1149.7 254.9h8.4"/>
    </g>
    <path fill="#202020" fill-rule="evenodd" d="M843.405 249.229c0 .498-.103.943-.309 1.334-.207.388-.49.714-.851.977-.362.262-.788.46-1.278.594-.49.134-1.025.201-1.605.201-.491 0-1.023-.054-1.596-.163-.575-.109-1.075-.253-1.501-.432l.388-1.865c.413.167.837.298 1.276.394.439.096.884.144 1.336.144.438 0 .802-.064 1.093-.192.291-.128.435-.359.435-.691 0-.295-.141-.51-.425-.645-.284-.134-.658-.298-1.123-.49-.374-.154-.735-.311-1.084-.471-.348-.16-.654-.352-.918-.576-.264-.224-.478-.487-.639-.789-.161-.3-.241-.675-.241-1.124 0-.487.093-.91.279-1.268.188-.36.446-.654.775-.884.329-.231.715-.405 1.161-.52.445-.116.925-.173 1.441-.173.542 0 1.061.049 1.558.146.497.097.977.269 1.442.515l-.407 1.877c-.374-.166-.764-.304-1.17-.413-.407-.11-.816-.164-1.229-.164-.374 0-.674.042-.9.125-.225.082-.338.259-.338.527 0 .255.135.448.406.575.27.128.594.275.967.441.271.115.584.246.939.393.354.147.686.336.996.566.31.231.575.508.794.834.219.326.328.731.328 1.217zm-13.293-4.601c-.361 0-.684.054-.967.163-.284.11-.549.268-.794.473v4.88c.156.077.342.134.561.173.22.039.458.058.716.058.465 0 .861-.074 1.191-.222.328-.147.596-.352.803-.618.205-.262.357-.574.454-.934.097-.36.145-.752.145-1.177 0-.823-.17-1.494-.513-2.015-.341-.521-.873-.781-1.596-.781zm-4.411-6.055h2.65v4.978c.284-.281.626-.512 1.025-.692.4-.178.892-.269 1.472-.269.619 0 1.176.119 1.674.356.496.237.918.567 1.267.989.349.424.616.93.803 1.519.187.59.28 1.231.28 1.922 0 .718-.109 1.381-.328 1.99-.22.609-.549 1.133-.987 1.576-.439.442-.991.784-1.654 1.028-.666.243-1.436.365-2.313.365-.722 0-1.413-.077-2.071-.23-.658-.154-1.264-.359-1.818-.615v-12.917zm-6.947 11.975c.374 0 .723-.064 1.044-.192.323-.128.607-.289.852-.481v-1.48c-.271.026-.561.051-.87.077-.31.026-.594.057-.852.096-.387.065-.697.171-.929.317-.232.148-.348.395-.348.74 0 .308.099.538.3.692.2.154.468.231.803.231zm1.993.595c-.349.334-.767.615-1.258.846-.49.231-1.058.346-1.702.346-.413 0-.788-.067-1.123-.202-.335-.134-.62-.32-.851-.557-.233-.237-.414-.516-.542-.836-.129-.32-.194-.673-.194-1.057 0-.858.291-1.512.871-1.961.58-.448 1.375-.705 2.38-.769.387-.025.786-.044 1.2-.058.413-.012.786-.025 1.122-.037v-.327c0-.603-.148-1.061-.445-1.375-.297-.314-.761-.47-1.393-.47-.491 0-.955.057-1.393.173-.439.115-.825.262-1.162.442l-.522-1.846c.491-.282 1.032-.496 1.626-.643.593-.148 1.232-.222 1.916-.222 1.251 0 2.235.34 2.95 1.019.716.68 1.074 1.685 1.074 3.018v5.516h-2.554v-1zm-8.417-1.71c0 .294.061.516.184.663.122.148.332.221.628.221.117 0 .239-.006.368-.019s.251-.032.368-.057l.097 1.845c-.22.063-.491.118-.813.163-.323.044-.639.067-.949.067-.477 0-.876-.074-1.2-.221-.321-.147-.583-.346-.783-.596-.2-.249-.341-.531-.425-.846-.084-.313-.126-.636-.126-.97v-11.11h2.651v10.86zm51.562-24.18h2.643v-2.422h2.651v2.422h2.825v2.057h-2.825v4.017c0 .436.081.782.242 1.038.16.256.48.384.958.384.503 0 .98-.07 1.432-.211l.193 1.865c-.285.115-.639.211-1.064.288-.425.077-.852.115-1.278.115-.568 0-1.048-.087-1.441-.259-.394-.174-.716-.414-.967-.722-.252-.307-.435-.666-.552-1.076-.117-.41-.174-.858-.174-1.345v-4.095h-3.737l1.094-2.056zm-8.328 9.361v-13.57h2.651v8.61l3.134-4.401h2.941l-3.347 4.614 3.812 4.747H861.6l-3.385-4.555v4.555h-2.651zm-5.94-7.785c-.542 0-.958.189-1.249.567-.29.378-.461.855-.513 1.432h3.233c.064-.602-.027-1.086-.272-1.451-.245-.365-.644-.548-1.199-.548zm.155-1.768c.619 0 1.169.096 1.654.288.484.192.886.465 1.209.818.322.351.567.775.735 1.268.168.493.252 1.047.252 1.663 0 .256-.016.515-.049.778-.032.262-.08.503-.145.72h-5.591c.026.687.238 1.233.638 1.64.4.406 1.038.609 1.916.609.503 0 .993-.046 1.47-.139.478-.093.903-.225 1.278-.399l.329 1.788c-.464.23-.994.407-1.587.528-.594.122-1.206.183-1.839.183-.786 0-1.483-.115-2.088-.346-.608-.231-1.12-.558-1.54-.981-.419-.422-.738-.931-.958-1.528-.219-.595-.328-1.252-.328-1.97 0-.729.106-1.4.319-2.008.213-.609.519-1.128.919-1.557.4-.429.887-.763 1.461-1 .574-.237 1.222-.355 1.945-.355zm-10.662 2.056c-.426 0-.797.09-1.113.27-.317.179-.565.378-.745.595v4.633c.166.064.361.112.581.144.218.032.451.048.696.048.902 0 1.56-.275 1.974-.827.412-.551.619-1.262.619-2.133 0-.781-.165-1.432-.493-1.951-.33-.519-.837-.779-1.519-.779zm-4.509-1.864h2.534v1.192c.311-.423.698-.759 1.162-1.009.464-.25 1.031-.375 1.702-.375.568 0 1.084.114 1.548.346.465.23.861.555 1.19.97.329.417.584.917.764 1.499.181.584.271 1.234.271 1.951 0 .808-.129 1.522-.386 2.144-.259.622-.607 1.144-1.045 1.566-.439.424-.952.74-1.539.952-.588.212-1.216.317-1.886.317-.349 0-.659-.023-.929-.067-.271-.046-.516-.1-.736-.163v3.997h-2.65v-13.32zm-1.8 6.447c0 .498-.103.943-.31 1.333-.206.389-.489.715-.851.978-.361.261-.787.459-1.277.593-.491.135-1.025.202-1.605.202-.491 0-1.024-.055-1.597-.163-.574-.11-1.074-.254-1.5-.432l.388-1.865c.412.167.837.298 1.276.393.439.097.884.145 1.335.145.439 0 .803-.064 1.093-.193.291-.128.436-.358.436-.692 0-.294-.142-.509-.425-.643-.285-.135-.659-.298-1.123-.491-.374-.153-.735-.31-1.084-.47-.348-.16-.655-.352-.918-.577-.265-.224-.478-.487-.639-.788-.161-.301-.242-.676-.242-1.124 0-.487.094-.91.28-1.27.187-.358.445-.652.775-.883.329-.23.715-.404 1.161-.519.445-.116.925-.173 1.441-.173.542 0 1.061.048 1.558.145.496.098.977.27 1.441.515l-.406 1.877c-.374-.167-.765-.304-1.171-.413-.406-.109-.816-.164-1.228-.164-.374 0-.675.042-.901.125-.225.083-.338.259-.338.527 0 .256.136.448.407.576.27.127.593.275.967.441.271.115.584.246.939.393.354.146.686.335.996.565.309.23.574.508.793.834.219.326.329.732.329 1.218zm-17.704 2.914v-9.36h2.553v1.268c.311-.5.704-.869 1.18-1.106.478-.237 1.001-.355 1.568-.355.607 0 1.125.128 1.557.384.432.256.784.6 1.055 1.028.271.43.471.93.6 1.5s.194 1.162.194 1.778v4.863h-2.651v-4.882c0-.846-.133-1.487-.397-1.922-.264-.436-.7-.654-1.306-.654-.387 0-.723.09-1.006.269-.284.179-.516.391-.697.635v6.554h-2.65zm-5.418 0h2.708v-12.802h-2.708v12.802zM801 213.414v15.02l2.233-2.219v-10.583h10.655l2.232-2.218H801zM878.455 248.134v10.583H867.8l-2.232 2.219h15.119v-15.019l-2.232 2.217z" clip-rule="evenodd"/>
    <path fill="#0C8DEB" d="M854.446 249.643h-4.964l-.947 2.357H846l4.765-11h2.444l4.781 11h-2.597l-.947-2.357zm-.779-1.933l-1.695-4.211-1.695 4.211h3.39zM863.421 241c.947 0 1.767.162 2.46.487.702.325 1.242.786 1.619 1.383.376.597.565 1.304.565 2.121 0 .807-.189 1.514-.565 2.122-.377.597-.917 1.058-1.619 1.383-.693.314-1.513.471-2.46.471h-2.153V252h-2.474v-11h4.627zm-.137 5.893c.743 0 1.308-.163 1.695-.487.387-.336.581-.807.581-1.415 0-.618-.194-1.089-.581-1.414-.387-.335-.952-.503-1.695-.503h-2.016v3.819h2.016zM869.526 241H872v11h-2.474v-11z"/>
    <path stroke="#202020" stroke-linecap="round" stroke-linejoin="round" stroke-width="1.962" d="M294.414 523.758v19.476c0 2.28-1.862 4.144-4.138 4.144h-29.448c-2.276 0-4.138-1.864-4.138-4.144v-61.399c0-2.28 1.862-4.144 4.138-4.144h29.517c2.276 0 4.138 1.864 4.138 4.144v19.822"/>
    <path stroke="#202020" stroke-linecap="round" stroke-linejoin="round" stroke-width="1.879" d="M266.069 477.691l.896 3.108c.345 1.174 1.38 1.934 2.552 1.934h12.345c1.241 0 2.276-.829 2.552-2.003l.689-3.039"/>
    <path stroke="#202020" stroke-linecap="round" stroke-linejoin="round" stroke-width="1.962" d="M307.31 520.581c0 1.726-1.379 3.177-3.172 3.177h-23.724l-6.345 6.354v-25.347c0-1.727 1.379-3.177 3.172-3.177h26.897c1.724 0 3.172 1.381 3.172 3.177v15.816z"/>
    <path stroke="#202020" stroke-linecap="round" stroke-linejoin="round" stroke-width="1.962" d="M282.896 514.743c.686 0 1.242-.556 1.242-1.243s-.556-1.243-1.242-1.243c-.685 0-1.241.556-1.241 1.243s.556 1.243 1.241 1.243zM291.069 514.743c.686 0 1.241-.556 1.241-1.243s-.555-1.243-1.241-1.243-1.241.556-1.241 1.243.555 1.243 1.241 1.243zM298.828 514.743c.685 0 1.241-.556 1.241-1.243s-.556-1.243-1.241-1.243c-.686 0-1.242.556-1.242 1.243s.556 1.243 1.242 1.243z"/>
    <path stroke="#202020" stroke-linecap="round" stroke-linejoin="round" stroke-miterlimit="10" stroke-width="2" d="M827.663 515.49h-17.579v46.651h17.579V515.49zM885.916 515.49h-17.579v46.651h17.579V515.49z"/>
    <path stroke="#202020" stroke-linecap="round" stroke-linejoin="round" stroke-miterlimit="10" stroke-width="2" d="M868.337 499.681h-40.76v62.46h40.76v-62.46zM805.862 562.141h84.276M821.89 533.188h-5.774v5.756h5.774v-5.756zM821.717 521.504h-5.773v5.756h5.773v-5.756z"/>
    <path stroke="#202020" stroke-linecap="round" stroke-linejoin="round" stroke-miterlimit="10" stroke-width="2" d="M843.519 517.122h-5.774v5.756h5.774v-5.756zM843.519 505.523h-5.774v5.757h5.774v-5.757zM858.599 505.523h-5.773v5.757h5.773v-5.757zM858.599 517.122h-5.773v5.756h5.773v-5.756zM858.599 528.72h-5.773v5.757h5.773v-5.757zM843.519 528.72h-5.774v5.757h5.774v-5.757zM879.97 521.504h-5.774v5.756h5.774v-5.756zM879.97 533.188h-5.774v5.756h5.774v-5.756zM836.367 540.319h23.266M839.297 540.319v21.478M848 540.319v21.822M856.79 540.319v21.822M834.385 482.069s5.859-4.21 13.701-4.21c7.842 0 13.702 4.21 13.702 4.21M838.349 487.911s4.222-2.749 9.651-2.749c5.429 0 9.651 2.749 9.651 2.749M842.485 493.753s2.413-1.374 5.515-1.374 5.515 1.374 5.515 1.374"/>
    <path fill="#000" d="M727.354 239.354c.195-.196.195-.512 0-.708l-3.182-3.182c-.196-.195-.512-.195-.708 0-.195.196-.195.512 0 .708l2.829 2.828-2.829 2.828c-.195.196-.195.512 0 .708.196.195.512.195.708 0l3.182-3.182zM632 239.5h95v-1h-95v1zM475.354 239.354c.195-.196.195-.512 0-.708l-3.182-3.182c-.196-.195-.512-.195-.708 0-.195.196-.195.512 0 .708l2.829 2.828-2.829 2.828c-.195.196-.195.512 0 .708.196.195.512.195.708 0l3.182-3.182zM380 239.5h95v-1h-95v1zM279.354 349.646c-.196-.195-.512-.195-.708 0l-3.182 3.182c-.195.196-.195.512 0 .708.196.195.512.195.708 0l2.828-2.829 2.828 2.829c.196.195.512.195.708 0 .195-.196.195-.512 0-.708l-3.182-3.182zM279.5 445v-95h-1v95h1zM1149.65 445.354c.19.195.51.195.7 0l3.19-3.182c.19-.196.19-.512 0-.708-.2-.195-.52-.195-.71 0l-2.83 2.829-2.83-2.829c-.19-.195-.51-.195-.71 0-.19.196-.19.512 0 .708l3.19 3.182zM1149.5 350v95h1v-95h-1zM1056.35 239.354c.2-.196.2-.512 0-.708l-3.18-3.182c-.19-.195-.51-.195-.71 0-.19.196-.19.512 0 .708l2.83 2.828-2.83 2.828c-.19.196-.19.512 0 .708.2.195.52.195.71 0l3.18-3.182zM961 239.5h95v-1h-95v1zM932.646 514.646c-.195.196-.195.512 0 .708l3.182 3.182c.196.195.512.195.708 0 .195-.196.195-.512 0-.708L933.707 515l2.829-2.828c.195-.196.195-.512 0-.708-.196-.195-.512-.195-.708 0l-3.182 3.182zM1075 514.5H933v1h142v-1z"/>
    <path stroke="#202020" stroke-linecap="round" stroke-linejoin="round" stroke-width="2" d="M301.141 231.52c3.788 0 6.86-3.096 6.86-6.916 0-3.82-3.072-6.916-6.86-6.916-3.789 0-6.86 3.096-6.86 6.916 0 3.82 3.071 6.916 6.86 6.916zM249.072 231.52c3.789 0 6.86-3.096 6.86-6.916 0-3.82-3.071-6.916-6.86-6.916s-6.86 3.096-6.86 6.916c0 3.82 3.071 6.916 6.86 6.916z"/>
    <path stroke="#202020" stroke-linecap="round" stroke-linejoin="round" stroke-width="2" d="M242.212 225.965h-4.611c-.45 0-.787-.34-.787-.794v-5.783c0-2.721.675-5.215 4.161-6.916 3.824-1.814 10.908-3.175 15.519-3.175h40.261l4.386-4.081s3.374 1.02 5.51 2.721l9.559 1.587v9.411c0 2.948-.112 3.855-2.361 5.102-2.249 1.247-5.961 1.814-5.961 1.814"/>
    <path stroke="#202020" stroke-linecap="round" stroke-linejoin="round" stroke-width="2" d="M255.145 209.297s11.471-8.163 25.528-8.163c11.808 0 20.355 4.082 20.355 4.082M280.673 201.134v24.831M275.05 213.493h-5.51M310.7 213.493h5.51M255.932 225.965h38.349"/>
    <path stroke="#212121" stroke-miterlimit="10" stroke-width="2" d="M330.043 219.162c8.659 3.401 13.72 7.71 13.72 12.358 0 9.751-22.829 17.915-53.418 19.956M275.5 251.929c-37.786 0-68.375-9.07-68.375-20.409 0-6.009 8.659-11.451 22.379-15.193"/>
    <path stroke="#212121" stroke-miterlimit="10" stroke-width="2" d="M268.865 243.539l7.647 8.39-7.647 8.277"/>
    <path stroke="#D6D6D6" d="M1087.87 514.5l62.63-43.889 62.63 43.889-62.63 43.889-62.63-43.889z"/>
    <defs>
        <clipPath id="clip0">
            <path fill="#fff" d="M0 0H55.5V73.3H0z" transform="translate(1123 194)"/>
        </clipPath>
    </defs>
</svg>
