<svg xmlns="http://www.w3.org/2000/svg" width="65" height="64" fill="none" viewBox="0 0 65 64">
    <path fill="#fff" d="M15.256 10.61v7.32h10.53v2.58h-10.53V29h-3V8h14.82v2.61h-11.82zM54.759 8v21h-2.46l-12.6-15.66V29h-3V8h2.46l12.6 15.66V8h3zM21.926 56.24c-2.12 0-4.03-.46-5.73-1.38-1.7-.94-3.04-2.23-4.02-3.87-.96-1.64-1.44-3.47-1.44-5.49s.48-3.85 1.44-5.49c.98-1.64 2.32-2.92 4.02-3.84 1.7-.94 3.61-1.41 5.73-1.41 2.1 0 4 .47 5.7 1.41 1.7.92 3.03 2.2 3.99 3.84.96 1.62 1.44 3.45 1.44 5.49s-.48 3.88-1.44 5.52c-.96 1.62-2.29 2.9-3.99 3.84-1.7.92-3.6 1.38-5.7 1.38zm0-2.67c1.54 0 2.92-.35 4.14-1.05 1.24-.7 2.21-1.66 2.91-2.88.72-1.24 1.08-2.62 1.08-4.14 0-1.52-.36-2.89-1.08-4.11-.7-1.24-1.67-2.21-2.91-2.91-1.22-.7-2.6-1.05-4.14-1.05-1.54 0-2.94.35-4.2 1.05-1.24.7-2.22 1.67-2.94 2.91-.7 1.22-1.05 2.59-1.05 4.11 0 1.52.35 2.9 1.05 4.14.72 1.22 1.7 2.18 2.94 2.88 1.26.7 2.66 1.05 4.2 1.05zM43.041 35h3v18.39h11.37V56h-14.37V35z"/>
</svg>
