<svg width="100" height="100" viewBox="0 0 100 100" fill="none" xmlns="http://www.w3.org/2000/svg">
<path d="M57.2159 72.9189C62.1337 74.5874 66.454 75.6997 72.6588 77.6C70.2688 108.05 41.773 95.9536 57.2159 72.9189ZM82.7242 44.9713C82.4025 35.8408 80.7939 23.8367 68.1086 25.737C62.1337 27.3128 57.7674 33.8942 55.6992 45.2957C54.5501 51.5526 55.2396 60.3587 56.5724 65.5959C57.8134 69.3037 57.3997 69.072 58.6866 69.7672C63.7883 70.9259 68.844 72.2236 73.9457 73.5214C79.1393 69.8136 83.4137 50.0695 82.7242 44.9713ZM43.4735 44.276C44.8064 38.9924 45.4958 30.2327 44.3468 23.9758C42.2786 12.5743 37.8663 5.99291 31.9373 4.41709C19.2061 2.56319 17.6435 14.5209 17.3217 23.6514C16.5864 28.7496 20.8148 47.5667 26.1003 52.2015C31.2479 50.9037 36.2577 49.606 41.3593 48.4473C42.6922 47.7521 42.2786 47.9838 43.4735 44.276ZM27.3412 56.2801C29.7312 86.6841 58.227 74.6337 42.7841 51.599C37.8663 53.3138 33.546 54.3798 27.3412 56.2801Z" stroke="black" stroke-width="3" stroke-miterlimit="10"/>
</svg>
