<svg xmlns="http://www.w3.org/2000/svg" width="61" height="60" fill="none" viewBox="0 0 61 60">
    <path stroke="#212121" stroke-linejoin="round" stroke-miterlimit="10" stroke-width="2" d="M24.885 12.138L14.29 20.907l5.933 4.823-4.238 4.384-2.966 12.714 8.052 8.769 13.985.965 2.543-11.049 12.756-7.453-5.976-4.823 3.814-7.892-13.137-2.762-2.967-9.952-7.204 3.507zM4.12 9.946l4.66-3.508 8.9 8.33L4.12 9.947zM2.424 25.291l10.17-.439-8.475 6.182-1.695-5.743z"/>
    <path stroke="#212121" stroke-linejoin="round" stroke-miterlimit="10" stroke-width="2" d="M16.494 30.34l5.914.54-8.541 11.146 2.627-11.685zM14.29 20.907l8.052 1.753 5.086-1.315L29.97 23.1l1.696-.35"/>
    <path stroke="#212121" stroke-linejoin="round" stroke-miterlimit="10" stroke-width="2" d="M30.818 27.045l-2.543-3.07-.847-2.63M37.599 41.513l-5.086-2.192-2.119 1.754-4.662-1.316M28.699 31.867l.423 2.061 1.696.57v2.06l1.695 2.763M51.16 26.606l5.509-6.138 1.907 3.07-7.416 3.068zM47.346 16.084l4.661-8.769-3.687-.877-.974 9.646zM42.006 45.678l7.67 5.875 1.484-2.937-9.154-2.938z"/>
</svg>
