<svg xmlns="http://www.w3.org/2000/svg" width="61" height="60" fill="none" viewBox="0 0 61 60">
    <path stroke="#000" stroke-linecap="round" stroke-linejoin="round" stroke-width="2" d="M34.55 34.55c-2.383 2.6-6.5 2.817-9.1.217-2.6-2.6-2.817-6.5-.217-9.1 0-.217.217-.217.217-.217m17.333 17.333C39.1 45.6 34.55 47.117 30 47.333 14.833 47.333 6.166 30 6.166 30c2.6-4.983 6.5-9.317 11.05-12.783l25.567 25.566zM25.45 13.1c1.517-.217 3.033-.433 4.55-.433C45.166 12.667 53.833 30 53.833 30c-1.3 2.383-2.816 4.767-4.767 6.933L25.45 13.1zM6.167 6.167l47.666 47.666"/>
</svg>
