<svg xmlns="http://www.w3.org/2000/svg" width="86" height="99" fill="none" viewBox="0 0 86 99">
    <path stroke="#fff" stroke-miterlimit="10" stroke-width="3" d="M64.875 62.056H49v8.83h15.875v-8.83z"/>
    <path stroke="#fff" stroke-miterlimit="10" stroke-width="3" d="M64.875 70.885H49v8.83h15.875v-8.83zM49 86.79v-7.075h15.875v8.83H50.312"/>
    <path stroke="#fff" stroke-miterlimit="10" stroke-width="3" d="M50.313 88.544h14.562v8.83h-14.25M80.938 70.885H64.874v8.83h16.063v-8.83z"/>
    <path stroke="#fff" stroke-miterlimit="10" stroke-width="3" d="M80.938 79.715H64.874v8.83h16.063v-8.83z"/>
    <path stroke="#fff" stroke-miterlimit="10" stroke-width="3" d="M80.938 88.544H64.874v8.83h16.063v-8.83zM72.938 70.885c4.452 0 8.062-3.617 8.062-8.078 0-4.461-3.61-8.078-8.063-8.078-4.452 0-8.062 3.617-8.062 8.078 0 4.461 3.61 8.078 8.063 8.078zM22.75 56.17L20 47.902c-.25-.751.313-1.503 1.125-1.503h13.313c.812 0 1.312.752 1.124 1.503l-2.687 8.266H22.75z"/>
    <path stroke="#fff" stroke-miterlimit="10" stroke-width="3" d="M32.813 56.17c8.124 0 16.124 6.825 16.124 16.28v14.842l4 4.133c2.126 2.192.563 5.886-2.5 5.886H5.126c-3.063 0-4.625-3.695-2.5-5.886l4-4.133V72.45c0-9.456 8.063-16.282 16.125-16.282h10.063v0zM45 1.626c22.813 0 38.75 17.722 39.313 37.448-5.563-4.07-12.563-5.386-19.626.125 0 0-9.25-8.266-19.624-.125-10.438-8.204-19.688.062-19.688.062-7.125-5.448-14.063-4.195-19.625-.125C6.25 19.348 22.188 1.626 45 1.626zM15 27.927c1.875-4.947 6.813-10.708 9.938-12.9M27.75 13.336c.938-.563 2.688-1.565 3.688-2.004M45 51.598V39.136"/>
    <path stroke="#fff" stroke-miterlimit="10" stroke-width="3" d="M22.813 79.276v1.879c0 1.753 1.375 3.131 3.125 3.131h3.5c3.125 0 4.25-4.196 1.437-5.698l-6.5-3.507c-2.75-1.503-1.688-5.699 1.438-5.699h3.75c1.75 0 3.125 1.378 3.125 3.131v1.879M27.813 64.498v4.822M27.813 84.286v4.822"/>
</svg>
