<svg width="100" height="100" viewBox="0 0 100 100" fill="none" xmlns="http://www.w3.org/2000/svg">
<g clip-path="url(#clip0)">
<path d="M67.4175 57.324C66.3181 60.458 64.463 63.2513 62.0582 65.5677C59.3786 68.1567 55.8745 70.2006 51.6146 71.6995C51.2711 71.8357 50.9275 71.9039 50.584 71.9039H50.5153C50.3092 71.9039 50.1031 71.9039 49.8969 71.8357C49.7595 71.8357 49.6221 71.7676 49.4847 71.6995C45.2248 70.2006 41.7207 68.1567 39.0411 65.5677C36.6363 63.2513 34.8499 60.458 33.6818 57.324C31.5519 51.5329 31.6206 45.1287 31.758 40.0189V39.9508C31.758 39.542 31.758 39.0651 31.8267 38.5882C31.8954 36.1355 33.8193 34.1597 36.224 34.0235C41.3084 33.7509 45.2248 32.1158 48.5915 28.8456C49.6908 27.8236 51.3398 27.8236 52.4391 28.8456C55.8058 32.1158 59.7222 33.7509 64.8066 34.0235C67.2113 34.1597 69.1352 36.1355 69.2039 38.5882C69.2039 39.0651 69.2039 39.542 69.2726 39.9508C69.41 45.1287 69.5474 51.5329 67.4175 57.324Z" stroke="#212121" stroke-width="2"/>
<path d="M44.1255 49.5571L49.5534 54.9394L59.7222 44.5155" stroke="#212121" stroke-width="2" stroke-miterlimit="4.0018" stroke-linecap="round" stroke-linejoin="round"/>
<path d="M71.1964 79.7389L67.761 90.6397L78.823 94.1144" stroke="#212121" stroke-width="2" stroke-miterlimit="10"/>
<path d="M19.3906 68.0885L8.3973 64.682L4.89319 75.5828" stroke="#212121" stroke-width="2" stroke-miterlimit="10"/>
<path d="M29.0784 20.3292L32.5825 9.42839L21.5892 5.88562" stroke="#212121" stroke-width="2" stroke-miterlimit="10"/>
<path d="M80.8843 31.2302L92.1524 33.751L94.6259 22.5776" stroke="#212121" stroke-width="2" stroke-miterlimit="10"/>
<path d="M50.584 94.1143C31.5519 94.1143 15.2681 82.2596 8.94696 65.5677" stroke="#212121" stroke-width="2" stroke-miterlimit="10"/>
<path d="M95.0381 50.0341C95.0381 67.9523 84.3197 83.3497 68.8604 90.2309" stroke="#212121" stroke-width="2" stroke-miterlimit="10"/>
<path d="M50.584 5.88562C68.9977 5.88562 84.8006 16.9908 91.5339 32.797" stroke="#212121" stroke-width="2" stroke-miterlimit="10"/>
<path d="M6.12994 50.034C6.12994 32.4564 16.5049 17.2634 31.5519 10.1779" stroke="#212121" stroke-width="2" stroke-miterlimit="10"/>
</g>
<defs>
<clipPath id="clip0">
<rect width="92" height="90" fill="white" transform="translate(4 5)"/>
</clipPath>
</defs>
</svg>
