<svg xmlns="http://www.w3.org/2000/svg" width="120" height="120" fill="none" viewBox="0 0 120 120">
    <g stroke-miterlimit="10" stroke-width="3" clip-path="url(#clip0)">
        <path stroke="#D6D6D6" d="M105.244 93.57H14.756c-3.232 0-5.817-2.572-5.817-5.787V32.217c0-3.215 2.585-5.788 5.817-5.788h90.488c3.232 0 5.817 2.573 5.817 5.788v55.566c0 3.215-2.585 5.788-5.817 5.788z"/>
        <path stroke="#565656" d="M21.22 42.764c2.356 0 4.265-1.9 4.265-4.244s-1.91-4.245-4.265-4.245c-2.356 0-4.266 1.9-4.266 4.245 0 2.344 1.91 4.244 4.265 4.244zM21.22 85.21c2.356 0 4.265-1.9 4.265-4.244 0-2.345-1.91-4.245-4.265-4.245-2.356 0-4.266 1.9-4.266 4.245 0 2.344 1.91 4.244 4.265 4.244zM100.332 42.764c2.356 0 4.266-1.9 4.266-4.244s-1.91-4.245-4.266-4.245-4.266 1.9-4.266 4.245c0 2.344 1.91 4.244 4.266 4.244zM100.332 85.21c2.356 0 4.266-1.9 4.266-4.244 0-2.345-1.91-4.245-4.266-4.245s-4.266 1.9-4.266 4.245c0 2.344 1.91 4.244 4.266 4.244z"/>
    </g>
    <defs>
        <clipPath id="clip0">
            <path fill="#fff" d="M0 0H106V71H0z" transform="translate(7 24.5)"/>
        </clipPath>
    </defs>
</svg>
