<svg width="311" height="209" viewBox="0 0 311 209" fill="none" xmlns="http://www.w3.org/2000/svg">
<g clip-path="url(#clip0_1068_341)">
<path d="M105.752 36.1605C104.298 40.0679 99.9907 71.7728 99.9907 71.7728L98.5987 70.1255C98.5987 70.1255 85.7179 77.8524 80.3926 87.0497C80.3926 87.0497 87.7119 98.8685 104.045 98.8855C129.906 98.9125 123.148 44.7395 123.148 44.7395C123.148 44.7395 126.006 44.8283 127.097 41.7166C128.188 38.6048 128.036 36.2895 124.941 36.5839C124.941 36.5839 126.442 31.6978 122.26 31.4988C122.26 31.4988 121.987 25.4293 116.121 30.1561C116.121 30.1561 123.716 18.9395 119.19 17.7017C117.947 17.3616 117.316 16.7495 115.528 19.8847C113.741 23.0199 107.205 32.2533 105.752 36.1605Z" fill="white"/>
<path d="M104.063 99.1367H104.044C95.5376 99.128 89.5053 95.8825 85.9426 93.1615C82.0789 90.2107 80.2561 87.3052 80.1804 87.1829C80.1314 87.1037 80.1299 87.0039 80.1765 86.9233C85.4731 77.7756 98.3412 69.9874 98.4705 69.9098C98.575 69.8472 98.7092 69.8697 98.7881 69.9627L99.819 71.1827C100.419 66.7999 104.16 39.7226 105.518 36.0724C106.508 33.41 109.778 28.3862 112.406 24.3496C113.655 22.4304 114.734 20.7732 115.312 19.7596C116.938 16.9066 117.698 16.9794 118.903 17.3541C119.015 17.3891 119.132 17.4255 119.255 17.4592C119.972 17.6552 120.459 18.0907 120.702 18.7533C121.64 21.3158 118.543 26.7709 117.063 29.1541C118.591 28.1512 119.846 27.8644 120.806 28.302C122.115 28.8992 122.422 30.6367 122.49 31.2626C123.557 31.3576 124.351 31.7694 124.852 32.4884C125.724 33.7408 125.441 35.5551 125.268 36.3105C126.295 36.2743 127.037 36.5483 127.483 37.1234C128.173 38.0132 128.123 39.5429 127.332 41.8001C126.402 44.4541 124.212 44.9016 123.426 44.9759C123.603 46.536 124.457 54.6902 124.11 64.1049C123.754 73.751 122.028 86.7347 115.825 93.81C112.726 97.3444 108.768 99.1364 104.063 99.1365V99.1367ZM80.6859 87.0422C81.536 88.3049 88.9503 98.6188 104.045 98.6344H104.063C108.62 98.6344 112.451 96.8997 115.451 93.4778C127.156 80.1281 122.944 45.1228 122.9 44.7708C122.891 44.698 122.914 44.6248 122.963 44.5705C123.012 44.5159 123.079 44.4848 123.155 44.4885C123.263 44.4912 125.847 44.5253 126.861 41.6331C127.581 39.5794 127.658 38.1663 127.09 37.4328C126.706 36.9379 125.992 36.7369 124.964 36.8341C124.882 36.842 124.799 36.8077 124.747 36.7425C124.694 36.6774 124.677 36.5901 124.702 36.51C124.709 36.4865 125.405 34.1565 124.442 32.7759C124.001 32.1433 123.263 31.7981 122.248 31.7499C122.12 31.7437 122.017 31.64 122.011 31.5106C122.01 31.489 121.895 29.3491 120.599 28.7594C119.605 28.3068 118.15 28.8425 116.276 30.3524C116.18 30.43 116.042 30.4253 115.951 30.3406C115.86 30.2561 115.845 30.1175 115.914 30.0147C115.969 29.9344 121.34 21.947 120.234 18.9273C120.047 18.419 119.685 18.0974 119.125 17.9442C118.996 17.9091 118.873 17.871 118.756 17.8344C117.818 17.5429 117.252 17.3661 115.744 20.01C115.159 21.0364 114.077 22.6995 112.823 24.6253C110.209 28.641 106.956 33.6389 105.985 36.249C104.558 40.0856 100.28 71.4903 100.237 71.8071C100.224 71.9052 100.155 71.9863 100.06 72.0141C99.9659 72.0413 99.864 72.0112 99.8002 71.9359L98.5461 70.4519C96.9789 71.4231 85.6198 78.6518 80.6856 87.0424L80.6859 87.0422Z" fill="black"/>
<path d="M108.834 45.4526C108.587 45.4526 108.341 45.433 108.096 45.3928C107.96 45.3704 107.868 45.2414 107.89 45.1045C107.912 44.9674 108.04 44.8739 108.177 44.8971C109.87 45.1758 111.693 44.3473 112.604 42.8815C112.88 42.4375 113.088 41.9253 113.289 41.4297C113.63 40.5866 113.984 39.715 114.692 39.0934C115.1 38.7352 115.583 38.5014 116.051 38.2753C116.242 38.1826 116.434 38.0898 116.62 37.9886C117.128 37.7118 117.761 37.2439 117.895 36.5862C118.031 35.9167 117.606 35.256 117.125 34.8982C116.541 34.4641 115.799 34.3024 115.15 34.2013C112.545 33.7957 109.783 34.1597 107.371 35.2261C107.245 35.2825 107.098 35.224 107.043 35.097C106.987 34.9699 107.045 34.8218 107.171 34.766C109.669 33.6616 112.529 33.2849 115.226 33.7047C115.935 33.8151 116.75 33.9951 117.421 34.4939C118.153 35.0379 118.54 35.9192 118.384 36.687C118.245 37.3673 117.732 37.9539 116.857 38.4305C116.664 38.5356 116.466 38.632 116.267 38.7282C115.809 38.9497 115.377 39.1588 115.02 39.4723C114.401 40.0156 114.085 40.7949 113.75 41.6199C113.541 42.1349 113.325 42.6675 113.027 43.1481C112.144 44.5691 110.493 45.4526 108.834 45.4527L108.834 45.4526Z" fill="black"/>
<path d="M116.572 41.7885C116.197 41.7885 115.838 41.7017 115.534 41.5273C114.774 41.0926 114.443 40.1176 114.81 39.3984C114.873 39.275 115.024 39.2267 115.146 39.2901C115.269 39.3536 115.317 39.505 115.254 39.6283C114.991 40.1424 115.315 40.8243 115.78 41.0905C116.265 41.3683 116.944 41.3511 117.552 41.0453C118.176 40.7317 118.663 40.1763 119.017 39.7276C120.749 37.5334 121.715 34.7827 121.737 31.9826C121.739 31.8445 121.85 31.7334 121.987 31.7334H121.989C122.127 31.7345 122.237 31.8478 122.236 31.9866C122.213 34.8984 121.208 37.7587 119.408 40.0403C119.021 40.5296 118.487 41.1371 117.775 41.4947C117.387 41.6904 116.97 41.7885 116.572 41.7885Z" fill="black"/>
<path d="M120.03 43.3196C118.82 43.3196 117.666 42.622 117.277 41.5714C117.229 41.4414 117.295 41.2967 117.424 41.2483C117.552 41.2 117.697 41.2659 117.745 41.396C118.122 42.4172 119.406 43.0269 120.605 42.7532C121.659 42.513 122.626 41.6852 123.257 40.4818C123.837 39.3759 124.088 38.1154 124.331 36.8963C124.358 36.7602 124.49 36.6721 124.625 36.6994C124.76 36.7267 124.847 36.8591 124.82 36.9951C124.57 38.2491 124.312 39.546 123.698 40.7164C122.998 42.0496 121.911 42.9707 120.715 43.2433C120.488 43.2949 120.258 43.3196 120.03 43.3196Z" fill="black"/>
<path d="M122.923 44.6653C122.918 44.6653 122.914 44.6652 122.909 44.6649C122.037 44.6169 121.253 43.8988 121.124 43.0304C121.104 42.8931 121.197 42.7653 121.334 42.7449C121.471 42.7238 121.597 42.819 121.617 42.956C121.711 43.5867 122.303 44.1283 122.936 44.1632C123.074 44.1709 123.179 44.2893 123.172 44.4278C123.165 44.5617 123.054 44.6653 122.923 44.6653Z" fill="black"/>
<path d="M97.9919 80.0288C97.9707 80.0288 97.9492 80.026 97.928 80.0204C97.7948 79.985 97.7154 79.8476 97.7505 79.7134L99.735 72.1435C99.77 72.0094 99.9083 71.9299 100.04 71.9647C100.173 72.0001 100.252 72.1375 100.217 72.2717L98.2327 79.8416C98.2032 79.9542 98.1022 80.0288 97.9919 80.0288Z" fill="black"/>
<path d="M80.569 51.5747C75.4286 49.9688 51.9004 48.8768 35.8697 48.3044C26.4038 47.9664 17.4737 52.7237 12.4284 60.798L0.25 80.288L23.4421 95.9196L23.5442 120.096H80.3925L84.4423 91.0692L98.7262 70.2086C98.7262 70.2086 88.5312 54.0619 80.569 51.5747Z" fill="white"/>
<path d="M80.3919 120.348H23.5437C23.4063 120.348 23.2948 120.236 23.2943 120.098L23.1927 96.0541L0.110721 80.4968C-0.00141983 80.421 -0.0336219 80.2694 0.0383793 80.1541L12.2167 60.6642C17.2896 52.5454 26.3586 47.7168 35.8781 48.0531C53.5245 48.6833 75.6148 49.7641 80.6422 51.3346C88.6006 53.8206 98.518 69.4112 98.9362 70.0737C98.9901 70.1588 98.9878 70.2681 98.9311 70.3511L84.6805 91.1627L80.6387 120.131C80.6214 120.255 80.5162 120.348 80.3917 120.348L80.3919 120.348ZM23.7921 119.845H80.1752L84.195 91.0342C84.2003 90.9956 84.2147 90.9586 84.2366 90.9266L98.4261 70.204C97.4039 68.6194 87.888 54.1243 80.4947 51.8147C75.2573 50.1785 50.282 49.0704 35.8606 48.5554C26.5103 48.2225 17.6176 52.9643 12.639 60.9319L0.58967 80.215L23.5802 95.7108C23.6491 95.7572 23.6907 95.8351 23.6909 95.9185L23.7921 119.845Z" fill="black"/>
<path d="M23.4407 96.1708C23.3029 96.1708 23.1914 96.0583 23.1914 95.9196V75.2565C23.1914 75.1178 23.303 75.0054 23.4407 75.0054C23.5785 75.0054 23.6902 75.1179 23.6902 75.2565V95.9196C23.6902 96.0584 23.5786 96.1708 23.4407 96.1708Z" fill="black"/>
<path d="M58.5206 3.84542C58.5206 3.84542 71.2488 0.92056 72.7995 12.8153C74.3502 24.71 67.5014 28.5449 70.6027 30.1048C73.704 31.6648 71.5073 41.2846 63.5602 41.0896C55.6131 40.8946 48.5016 38.7293 41.4634 41.0896C35.8423 42.9746 30.2294 41.3015 29.3813 34.1348C28.7352 28.6748 34.6793 29.1948 33.7102 24.32C32.7411 19.4452 29.0759 13.9978 34.5502 9.69536C38.6852 6.44535 39.6085 9.33755 43.0141 5.01548C47.2137 -0.314367 52.8995 -1.80935 58.5206 3.84553V3.84542Z" fill="black"/>
<path d="M46.982 27.8457L44.4945 47.8837C44.4945 47.8837 43.5116 52.6875 52.1778 52.6449C60.2116 52.6052 60.3896 48.6141 60.3896 48.6141L61.1383 31.1182L46.982 27.8459V27.8457Z" fill="white"/>
<path d="M52.0622 52.8963C48.6227 52.8963 46.2647 52.1402 45.0513 50.6482C43.9638 49.3106 44.2383 47.8926 44.2505 47.833L46.7347 27.8146C46.7434 27.7441 46.7814 27.6806 46.8392 27.6399C46.8969 27.5991 46.9688 27.5847 47.038 27.6009L61.1943 30.8732C61.3115 30.9002 61.3929 31.0077 61.3878 31.1288L60.6391 48.6247C60.6313 48.7978 60.3563 52.8556 52.1792 52.8959C52.1402 52.8962 52.1011 52.8962 52.0623 52.8962L52.0622 52.8963ZM47.1953 28.1527L44.7422 47.9148C44.7291 47.9843 44.5042 49.1901 45.4447 50.3388C46.5585 51.6994 48.8846 52.4116 52.1767 52.3935C59.8428 52.3557 60.1387 48.6387 60.1406 48.6013L60.8803 31.3161L47.1953 28.1527Z" fill="black"/>
<path d="M68.6641 19.64C69.14 22.783 69.2267 26.8494 68.1159 29.8191C67.005 32.7889 64.763 35.4001 61.8356 36.4541C59.2974 37.368 56.4291 37.0507 53.9762 35.9184C51.5234 34.786 49.4602 32.8905 47.7925 30.7267C45.117 31.6175 41.9192 30.4011 40.458 27.937C39.6148 26.5152 39.3548 24.649 40.1136 23.1781C40.8725 21.7072 42.7886 20.8693 44.2365 21.6211C45.0616 22.0496 45.634 22.8923 46.4758 23.2851C47.4142 23.723 52.9836 21.1348 55.5479 18.21C57.3614 16.1416 59.4891 12.2301 60.2644 10.4752C60.8459 11.8401 62.1381 14.5701 63.495 16.0651C65.0903 17.8229 66.8548 18.795 68.6638 19.64H68.6641Z" fill="white"/>
<path d="M58.6946 37.235C57.0954 37.235 55.4375 36.8688 53.8732 36.1467C51.6316 35.1118 49.5565 33.3868 47.7036 31.0185C44.9714 31.8343 41.7249 30.5613 40.2451 28.0659C39.2776 26.4346 39.1429 24.5174 39.8933 23.0624C40.756 21.3905 42.8398 20.6124 44.3521 21.398C44.7768 21.6184 45.1324 21.9358 45.4763 22.2428C45.8372 22.5647 46.178 22.869 46.5818 23.0573C47.321 23.4006 52.7729 20.997 55.3621 18.0438C57.1946 15.9539 59.3119 12.0167 60.0379 10.3732C60.078 10.2825 60.1675 10.2241 60.2659 10.2241H60.2676C60.3667 10.2248 60.4562 10.2845 60.4951 10.3764C60.8736 11.2647 62.2214 14.2881 63.6805 15.8957C65.1703 17.5373 66.7926 18.4886 68.77 19.4121C68.8457 19.4475 68.899 19.5188 68.9115 19.6022C69.1969 21.4867 69.7135 26.2633 68.3501 29.9077C67.1409 33.1408 64.7373 35.6767 61.9206 36.6907C60.9094 37.0548 59.8165 37.235 58.6946 37.235ZM47.7937 30.4755C47.8692 30.4755 47.9425 30.5103 47.9908 30.5727C49.8211 32.9474 51.8701 34.6692 54.0813 35.69C56.6255 36.8648 59.4218 37.0566 61.7526 36.2178C64.433 35.2526 66.7252 32.8274 67.8835 29.7306C69.1746 26.2791 68.7207 21.7395 68.4383 19.8108C66.4614 18.8795 64.8272 17.9039 63.3123 16.2348C62.0162 14.8066 60.8186 12.3331 60.2598 11.085C59.3691 12.9548 57.4351 16.4387 55.7363 18.3765C53.135 21.343 47.4813 24.0326 46.3724 23.5131C45.9021 23.2938 45.5176 22.9507 45.1457 22.6189C44.81 22.3192 44.4927 22.0363 44.1237 21.8445C42.8677 21.193 41.0635 21.8842 40.3362 23.294C39.6749 24.5759 39.8073 26.3478 40.6733 27.8083C42.0687 30.1609 45.1615 31.3387 47.7157 30.4882C47.7413 30.4798 47.7679 30.4755 47.794 30.4755H47.7937Z" fill="black"/>
<path d="M46.9809 28.0972C46.8842 28.0972 46.7921 28.0402 46.7518 27.9448C46.1972 26.6421 44.8399 25.76 43.4584 25.7868C43.3188 25.7922 43.2064 25.6802 43.2032 25.5414C43.2 25.4027 43.3091 25.2878 43.4468 25.2846C45.0381 25.2424 46.5774 26.2605 47.2101 27.7468C47.2644 27.8742 47.2057 28.022 47.0794 28.0766C47.0471 28.0904 47.0138 28.0971 46.9809 28.0971V28.0972Z" fill="black"/>
<path d="M311 89H0V209H311V89Z" fill="#E2EAFF"/>
<path d="M289.118 161.885L286.606 160.286C274.842 152.792 261.549 148.071 247.721 146.472L223.134 143.63L195.457 125.777C191.516 123.234 186.992 121.748 182.319 121.484C164.161 120.454 116.351 121.443 73.2036 154.28C72.2983 154.969 71.7637 156.044 71.7637 157.187V176.029C71.7637 177.59 72.7525 178.976 74.2209 179.475L106.149 190.311H276.26C281.397 190.311 285.994 187.096 287.79 182.249L292.067 170.703C293.279 167.431 292.048 163.752 289.118 161.885Z" fill="#5479F7"/>
<path d="M189.019 124.031L219.401 143.63C219.401 143.63 188.94 152.101 122.973 145.513C122.973 145.513 141.739 126.666 189.019 124.031Z" fill="black"/>
<path d="M116.621 199.668C126.107 199.668 133.797 191.922 133.797 182.368C133.797 172.813 126.107 165.068 116.621 165.068C107.135 165.068 99.4453 172.813 99.4453 182.368C99.4453 191.922 107.135 199.668 116.621 199.668Z" fill="black"/>
<path d="M116.621 189.149C112.909 189.149 109.889 186.107 109.889 182.368C109.889 178.629 112.909 175.586 116.621 175.586C120.334 175.586 123.354 178.628 123.354 182.368C123.354 186.107 120.334 189.149 116.621 189.149ZM116.621 176.089C113.184 176.089 110.387 178.906 110.387 182.368C110.387 185.83 113.184 188.647 116.621 188.647C120.059 188.647 122.855 185.83 122.855 182.368C122.855 178.906 120.059 176.089 116.621 176.089Z" fill="white"/>
<path d="M259.09 199.668C268.576 199.668 276.266 191.922 276.266 182.368C276.266 172.813 268.576 165.068 259.09 165.068C249.604 165.068 241.914 172.813 241.914 182.368C241.914 191.922 249.604 199.668 259.09 199.668Z" fill="black"/>
<path d="M259.09 189.149C255.378 189.149 252.357 186.107 252.357 182.368C252.357 178.629 255.378 175.586 259.09 175.586C262.803 175.586 265.823 178.628 265.823 182.368C265.823 186.107 262.803 189.149 259.09 189.149ZM259.09 176.089C255.653 176.089 252.856 178.906 252.856 182.368C252.856 185.83 255.653 188.647 259.09 188.647C262.528 188.647 265.324 185.83 265.324 182.368C265.324 178.906 262.528 176.089 259.09 176.089Z" fill="white"/>
<path d="M262.553 152.07L264.877 157.817C266.052 160.725 268.859 162.626 271.976 162.626H287.041C279.213 157.734 271.111 153.964 262.553 152.07Z" fill="white"/>
<path d="M281.929 182.619C281.791 182.619 281.68 182.506 281.68 182.368V170.372C281.68 170.233 281.791 170.121 281.929 170.121H289.172C289.31 170.121 289.422 170.233 289.422 170.372C289.422 170.511 289.31 170.623 289.172 170.623H282.179V182.368C282.179 182.507 282.067 182.619 281.929 182.619Z" fill="black"/>
<path d="M230.281 174.083C230.236 174.083 230.191 174.071 230.15 174.046L224.628 170.623H140.212C140.074 170.623 139.963 170.511 139.963 170.372C139.963 170.233 140.074 170.121 140.212 170.121H224.698C224.744 170.121 224.79 170.134 224.829 170.158L230.412 173.618C230.529 173.691 230.565 173.846 230.493 173.964C230.446 174.041 230.365 174.083 230.281 174.083Z" fill="black"/>
<path d="M230.281 180.885C230.236 180.885 230.191 180.873 230.15 180.848L224.628 177.425H140.212C140.074 177.425 139.963 177.312 139.963 177.174C139.963 177.035 140.074 176.922 140.212 176.922H224.698C224.744 176.922 224.79 176.935 224.829 176.96L230.412 180.42C230.529 180.493 230.565 180.647 230.493 180.765C230.446 180.843 230.365 180.885 230.281 180.885Z" fill="black"/>
<path d="M75.6172 157.348H99.4465L97.2467 159.974C94.5415 163.204 90.5599 165.068 86.3646 165.068H75.6173V157.348H75.6172Z" fill="white"/>
<path d="M310.56 158.083C310.534 158.083 310.507 158.079 310.481 158.07C304.858 156.196 299.303 153.283 293.93 150.467C287.875 147.293 281.614 144.01 275.123 142.12C268.203 140.105 260.829 139.637 253.698 139.183C245.676 138.673 237.381 138.146 229.698 135.415C222.837 132.977 216.667 128.849 210.699 124.858C206.352 121.95 201.857 118.943 197.124 116.607C178.031 107.184 157.003 109.255 142.724 112.653C125.378 116.78 108.954 124.725 93.0708 132.408L91.0349 133.392C79.0517 139.183 67.2942 144.713 55.2024 148.725C55.0719 148.768 54.9306 148.697 54.8875 148.565C54.8446 148.433 54.9155 148.291 55.0466 148.248C67.1098 144.245 78.8512 138.723 90.8192 132.939L92.8548 131.955C108.762 124.26 125.211 116.304 142.61 112.164C156.968 108.748 178.118 106.667 197.343 116.156C202.106 118.507 206.615 121.523 210.975 124.439C216.917 128.414 223.062 132.524 229.864 134.942C237.481 137.649 245.741 138.174 253.729 138.682C260.887 139.137 268.289 139.608 275.261 141.638C281.8 143.542 288.084 146.836 294.16 150.021C299.515 152.829 305.052 155.731 310.638 157.593C310.769 157.637 310.84 157.779 310.797 157.911C310.762 158.016 310.665 158.083 310.56 158.083Z" fill="#5479F7"/>
<path d="M310.31 146.337C310.272 146.337 310.233 146.328 310.197 146.309C308.793 145.588 307.366 144.84 305.986 144.116C299.211 140.564 292.205 136.891 284.94 134.776C277.195 132.521 268.943 131.996 260.963 131.489C251.99 130.919 242.712 130.329 234.121 127.275C226.448 124.548 219.546 119.931 212.871 115.467C208.006 112.213 202.976 108.848 197.679 106.234C176.311 95.687 152.778 98.0055 136.798 101.807C117.388 106.426 99.0107 115.315 81.2391 123.911L78.9609 125.013C71.4152 128.659 63.3672 132.507 55.2286 135.948C55.1028 136.001 54.9554 135.942 54.9023 135.813C54.849 135.685 54.9087 135.538 55.0358 135.484C63.1634 132.048 71.205 128.203 78.7451 124.56L81.0231 123.458C98.8189 114.85 117.22 105.949 136.683 101.319C147.442 98.7586 157.933 97.7323 167.865 98.2681C178.897 98.8631 189.002 101.391 197.899 105.783C203.225 108.412 208.269 111.785 213.147 115.048C219.796 119.496 226.672 124.095 234.287 126.801C242.813 129.832 252.056 130.419 260.995 130.988C269.002 131.497 277.282 132.023 285.079 134.293C292.391 136.423 299.42 140.107 306.217 143.671C307.596 144.394 309.022 145.141 310.424 145.862C310.546 145.925 310.595 146.076 310.533 146.2C310.488 146.287 310.401 146.337 310.31 146.337L310.31 146.337Z" fill="#5479F7"/>
<path d="M83.6772 106.463H41.6333L26.0391 53.5426H68.083L83.6772 106.463Z" fill="black"/>
<path d="M83.6766 106.715H41.6327C41.5224 106.715 41.425 106.641 41.3936 106.535L25.7994 53.6141C25.7769 53.5381 25.7916 53.4558 25.8386 53.3923C25.8859 53.3288 25.9599 53.2914 26.0386 53.2914H68.0825C68.1928 53.2914 68.2902 53.3645 68.3216 53.471L83.9158 106.392C83.9383 106.468 83.9236 106.55 83.8766 106.614C83.8293 106.677 83.7553 106.715 83.6766 106.715ZM41.8188 106.212H83.3424L67.8963 53.7938H26.3727L41.8188 106.212Z" fill="black"/>
<path d="M3.94948 82.3225C3.94948 82.3225 -6.21709 108.905 7.15688 115.964C20.531 123.022 32.3338 92.6593 34.6959 82.6984C34.6959 82.6984 38.8319 78.1484 42.7974 77.0214C46.6679 75.9213 46.686 71.782 41.2468 73.2721C41.2468 73.2721 47.711 71.2931 47.9028 68.5682C48.0944 65.8433 38.5937 68.9422 38.5937 68.9422C38.5937 68.9422 46.0322 66.2766 47.6374 65.5547C48.8829 64.9945 49.1091 60.8672 42.3177 62.6382C42.3177 62.6382 45.5171 61.4242 45.9087 59.0923C46.3004 56.7603 36.3354 56.5243 29.9146 61.0985C20.1626 68.0458 8.95747 85.5872 8.95747 85.5872L3.94948 82.3225Z" fill="white"/>
<path d="M11.209 117.267C9.79853 117.267 8.40567 116.907 7.04128 116.186C1.47349 113.248 -0.860941 106.429 0.290171 96.4672C1.15373 88.994 3.69112 82.2989 3.71675 82.2322C3.74373 82.1615 3.80088 82.107 3.87243 82.0835C3.94364 82.0602 4.02187 82.0705 4.08503 82.1116L8.88451 85.2403C10.1967 83.2235 20.6696 67.3771 29.7706 60.8933C35.4116 56.8747 43.3517 56.5774 45.5083 57.9429C46.1408 58.3436 46.209 58.8118 46.1549 59.1342C45.9333 60.4536 44.8994 61.4225 43.9729 62.0433C47.3369 61.5717 48.2282 62.9166 48.462 63.5895C48.7612 64.4509 48.4236 65.4764 47.7394 65.7841C47.0324 66.1021 45.234 66.7828 43.4226 67.4523C45.2179 67.1354 46.9888 67.0333 47.7426 67.6276C48.0377 67.8604 48.1792 68.1919 48.1515 68.586C48.0244 70.3958 45.4386 71.8521 43.4833 72.7002C44.8501 72.7392 45.5421 73.3261 45.7318 74.016C46.0369 75.1249 45.0482 76.6428 42.8651 77.2633C39.2255 78.2978 35.3724 82.3398 34.9231 82.8216C33.1498 90.2295 25.2284 111.73 15.0993 116.37C13.7934 116.968 12.4938 117.267 11.2087 117.267L11.209 117.267ZM4.07505 82.7037C3.58374 84.0639 1.53834 90.0006 0.784542 96.534C0.00159952 103.321 0.491662 112.162 7.27259 115.741C9.73741 117.042 12.3014 117.099 14.8929 115.912C24.8823 111.336 32.7263 89.9227 34.4534 82.6402C34.4632 82.5987 34.4834 82.5604 34.5122 82.5289C34.6829 82.341 38.742 77.9131 42.7299 76.7796C44.5887 76.2513 45.486 75.0033 45.2515 74.1501C45.0488 73.4143 43.8953 72.8069 41.3125 73.5145C41.181 73.5505 41.0448 73.4735 41.0074 73.3417C40.9696 73.2097 41.0441 73.0717 41.1745 73.0319C41.2375 73.0125 47.4769 71.0724 47.6545 68.5505C47.6706 68.3214 47.601 68.1538 47.4353 68.0233C46.1842 67.0363 40.6845 68.5244 38.6708 69.1812C38.5417 69.2242 38.4019 69.1529 38.3578 69.0232C38.3139 68.8932 38.382 68.7517 38.5106 68.7056C38.5848 68.679 45.9582 66.0351 47.5365 65.3254C47.9366 65.1453 48.2226 64.4204 47.9916 63.7555C47.8167 63.2528 46.8956 61.7042 42.3808 62.8814C42.2525 62.9148 42.1207 62.8413 42.0805 62.7141C42.0406 62.5869 42.1063 62.4504 42.2302 62.4032C42.2607 62.3916 45.3004 61.211 45.6632 59.0505C45.6787 58.9576 45.7262 58.6746 45.2428 58.3684C43.2379 57.0984 35.4476 57.4649 30.0588 61.3038C20.4577 68.1439 9.27932 85.5485 9.16752 85.7234C9.13169 85.7796 9.07523 85.819 9.01048 85.8331C8.94517 85.8471 8.87793 85.8348 8.82248 85.7983L4.07551 82.7039L4.07505 82.7037Z" fill="black"/>
<path d="M34.8278 65.4487C34.7358 65.4487 34.6473 65.3973 34.604 65.3088C34.5429 65.1843 34.5938 65.0337 34.7173 64.9723C37.0453 63.8145 39.5109 62.9338 42.0448 62.3553C42.1788 62.3239 42.3126 62.4093 42.3432 62.5446C42.3737 62.6799 42.2893 62.8145 42.1549 62.8451C39.6593 63.4151 37.2313 64.2823 34.9379 65.4226C34.9027 65.4403 34.8649 65.4487 34.8278 65.4487Z" fill="black"/>
<path d="M38.9705 74.4498C38.8761 74.4498 38.7855 74.3954 38.7435 74.3033C38.686 74.1772 38.741 74.0281 38.8663 73.9702L40.6673 73.1389C40.7938 73.0809 40.9408 73.1368 40.9981 73.2627C41.0556 73.3888 41.0005 73.538 40.8753 73.5957L39.0743 74.4271C39.0404 74.4425 39.0051 74.4498 38.9705 74.4498Z" fill="black"/>
<path d="M4.46625 95.6046C4.43734 95.6046 4.4082 95.5995 4.37951 95.5889C4.25048 95.5407 4.18449 95.3962 4.23245 95.266C5.45318 91.95 6.92495 88.6945 8.6074 85.5905C8.67339 85.4685 8.82465 85.4238 8.94598 85.4902C9.06674 85.5567 9.1113 85.7093 9.04531 85.8311C7.37431 88.9141 5.91252 92.1472 4.70006 95.4406C4.66276 95.5419 4.56762 95.6046 4.46625 95.6046Z" fill="black"/>
<path d="M265.73 13.7627H260.16V26.9884H265.73V13.7627Z" fill="#E2EAFF"/>
<path d="M275.068 9.1925H269.498V26.9883H275.068V9.1925Z" fill="#E2EAFF"/>
<path d="M284.403 16.8434H278.834V26.9883H284.403V16.8434Z" fill="#E2EAFF"/>
<path d="M293.741 13.0869H288.172V26.9884H293.741V13.0869Z" fill="#E2EAFF"/>
<path d="M303.079 16.0966H297.51V26.9883H303.079V16.0966Z" fill="#E2EAFF"/>
<path d="M265.729 30.4518H260.16C260.022 30.4518 259.91 30.3393 259.91 30.2006V5.98026C259.91 5.8415 260.022 5.729 260.16 5.729H265.729C265.867 5.729 265.978 5.8415 265.978 5.98026V30.2005C265.978 30.3393 265.867 30.4517 265.729 30.4517V30.4518ZM260.409 29.9494H265.48V6.23152H260.409V29.9494Z" fill="black"/>
<path d="M275.067 30.4518H269.498C269.36 30.4518 269.248 30.3393 269.248 30.2006V5.98026C269.248 5.8415 269.36 5.729 269.498 5.729H275.067C275.205 5.729 275.317 5.8415 275.317 5.98026V30.2005C275.317 30.3393 275.205 30.4517 275.067 30.4517V30.4518ZM269.747 29.9494H274.818V6.23152H269.747V29.9494Z" fill="black"/>
<path d="M284.403 30.4518H278.833C278.695 30.4518 278.584 30.3393 278.584 30.2006V5.98026C278.584 5.8415 278.696 5.729 278.833 5.729H284.403C284.541 5.729 284.652 5.8415 284.652 5.98026V30.2005C284.652 30.3393 284.541 30.4517 284.403 30.4517V30.4518ZM279.083 29.9494H284.153V6.23152H279.083V29.9494Z" fill="black"/>
<path d="M293.741 30.4518H288.171C288.033 30.4518 287.922 30.3393 287.922 30.2006V5.98026C287.922 5.8415 288.033 5.729 288.171 5.729H293.741C293.879 5.729 293.99 5.8415 293.99 5.98026V30.2005C293.99 30.3393 293.879 30.4517 293.741 30.4517V30.4518ZM288.421 29.9494H293.492V6.23152H288.421V29.9494Z" fill="black"/>
<path d="M303.079 30.4518H297.509C297.371 30.4518 297.26 30.3393 297.26 30.2006V5.98026C297.26 5.8415 297.371 5.729 297.509 5.729H303.079C303.217 5.729 303.328 5.8415 303.328 5.98026V30.2005C303.328 30.3393 303.217 30.4517 303.079 30.4517V30.4518ZM297.759 29.9494H302.829V6.23152H297.759V29.9494Z" fill="black"/>
<path d="M310.75 76.6796H110.138C110 76.6796 109.889 76.5671 109.889 76.4284V0.251257C109.889 0.112495 110 0 110.138 0H310.75C310.888 0 311 0.112495 311 0.251257V76.4284C311 76.5672 310.888 76.6796 310.75 76.6796ZM110.388 76.1772H310.501V0.502399H110.388V76.1772Z" fill="#5479F7"/>
<path d="M259.743 49.8368L258.381 48.9689C251.998 44.9033 244.786 42.3414 237.283 41.4742L223.943 39.9323L208.926 30.2457C206.788 28.8663 204.334 28.0601 201.798 27.9163C191.946 27.3577 166.006 27.8945 142.596 45.7103C142.105 46.0841 141.814 46.6677 141.814 47.2878V57.5107C141.814 58.3574 142.351 59.1098 143.148 59.3802L160.471 65.2595H252.767C255.554 65.2595 258.048 63.5155 259.023 60.8852L261.343 54.6211C262.001 52.8459 261.333 50.8494 259.743 49.8368Z" fill="white"/>
<path d="M252.766 65.5109H160.47C160.443 65.5109 160.416 65.5064 160.391 65.4977L143.067 59.6184C142.168 59.3133 141.564 58.4662 141.564 57.5108V47.2879C141.564 46.5942 141.894 45.9295 142.445 45.51C165.856 27.6937 191.76 27.0957 201.812 27.6656C204.377 27.8111 206.884 28.6302 209.06 30.0343L224.028 39.6896L237.311 41.2249C244.805 42.0913 252.137 44.6958 258.513 48.7568L259.876 49.6248C261.556 50.6948 262.271 52.8332 261.576 54.7094L259.256 60.9735C258.25 63.6875 255.642 65.5111 252.767 65.5111L252.766 65.5109ZM160.511 65.0084H252.766C255.435 65.0084 257.855 63.3162 258.789 60.7976L261.109 54.5336C261.722 52.8789 261.091 50.9929 259.609 50.0492L258.247 49.1812C251.934 45.1603 244.674 42.5815 237.254 41.7239L223.913 40.182C223.876 40.1775 223.839 40.1645 223.808 40.144L208.791 30.4572C206.686 29.0995 204.263 28.3077 201.784 28.1671C191.788 27.6008 166.025 28.1949 142.746 45.9106C142.318 46.2358 142.063 46.7506 142.063 47.2878V57.5107C142.063 58.2503 142.531 58.906 143.227 59.1422L160.511 65.0083L160.511 65.0084Z" fill="black"/>
<path d="M175.224 63.1072C176.407 58.0619 173.305 53.0063 168.295 51.8152C163.286 50.6241 158.267 53.7486 157.085 58.7939C155.902 63.8393 159.004 68.8949 164.013 70.086C169.022 71.2771 174.042 68.1526 175.224 63.1072Z" fill="white"/>
<path d="M166.152 70.5875C160.876 70.5875 156.584 66.2641 156.584 60.9499C156.584 55.6357 160.876 51.3123 166.152 51.3123C171.428 51.3123 175.721 55.6357 175.721 60.9499C175.721 66.2641 171.428 70.5875 166.152 70.5875ZM166.152 51.8145C161.151 51.8145 157.083 55.9127 157.083 60.9498C157.083 65.9869 161.151 70.085 166.152 70.085C171.154 70.085 175.222 65.9869 175.222 60.9498C175.222 55.9127 171.153 51.8145 166.152 51.8145Z" fill="black"/>
<path d="M246.15 69.9335C251.076 68.4313 253.86 63.1914 252.369 58.2299C250.877 53.2683 245.675 50.464 240.749 51.9663C235.823 53.4685 233.039 58.7084 234.531 63.6699C236.022 68.6314 241.224 71.4358 246.15 69.9335Z" fill="white"/>
<path d="M243.449 70.5877C238.173 70.5877 233.881 66.2642 233.881 60.95C233.881 55.6358 238.173 51.3124 243.449 51.3124C248.725 51.3124 253.018 55.6358 253.018 60.95C253.018 66.2642 248.725 70.5877 243.449 70.5877ZM243.449 51.8147C238.448 51.8147 234.38 55.9128 234.38 60.9499C234.38 65.987 238.448 70.0851 243.449 70.0851C248.45 70.0851 252.519 65.987 252.519 60.9499C252.519 55.9128 248.45 51.8147 243.449 51.8147Z" fill="black"/>
<path d="M223.943 40.1835H170.044C169.943 40.1835 169.851 40.1212 169.813 40.0262C169.775 39.931 169.798 39.8222 169.872 39.7511C169.984 39.6425 172.692 37.0632 178.883 34.5504C184.578 32.2389 194.412 29.5724 208.934 29.9945C209.071 29.9984 209.18 30.1142 209.176 30.2528C209.172 30.3891 209.061 30.4968 208.927 30.4968C208.924 30.4968 208.922 30.4968 208.919 30.4968C194.507 30.077 184.75 32.7157 179.104 35.0026C174.466 36.8809 171.766 38.8354 170.721 39.6813H223.943C224.081 39.6813 224.192 39.7937 224.192 39.9324C224.192 40.071 224.081 40.1835 223.943 40.1835Z" fill="black"/>
<path d="M268.761 49.5091H266.267C266.129 49.5091 266.017 49.3966 266.017 49.2578C266.017 49.1191 266.129 49.0066 266.267 49.0066H268.761C268.899 49.0066 269.01 49.1191 269.01 49.2578C269.01 49.3966 268.899 49.5091 268.761 49.5091ZM263.773 49.5091H261.279C261.141 49.5091 261.03 49.3966 261.03 49.2578C261.03 49.1191 261.141 49.0066 261.279 49.0066H263.773C263.911 49.0066 264.022 49.1191 264.022 49.2578C264.022 49.3966 263.911 49.5091 263.773 49.5091ZM258.785 49.5091H256.291C256.153 49.5091 256.042 49.3966 256.042 49.2578C256.042 49.1191 256.153 49.0066 256.291 49.0066H258.785C258.923 49.0066 259.034 49.1191 259.034 49.2578C259.034 49.3966 258.923 49.5091 258.785 49.5091ZM253.797 49.5091H251.303C251.165 49.5091 251.053 49.3966 251.053 49.2578C251.053 49.1191 251.165 49.0066 251.303 49.0066H253.797C253.935 49.0066 254.046 49.1191 254.046 49.2578C254.046 49.3966 253.935 49.5091 253.797 49.5091ZM248.809 49.5091H246.315C246.177 49.5091 246.066 49.3966 246.066 49.2578C246.066 49.1191 246.177 49.0066 246.315 49.0066H248.809C248.947 49.0066 249.058 49.1191 249.058 49.2578C249.058 49.3966 248.947 49.5091 248.809 49.5091ZM243.821 49.5091H241.327C241.189 49.5091 241.077 49.3966 241.077 49.2578C241.077 49.1191 241.189 49.0066 241.327 49.0066H243.821C243.959 49.0066 244.07 49.1191 244.07 49.2578C244.07 49.3966 243.959 49.5091 243.821 49.5091ZM238.833 49.5091H236.339C236.201 49.5091 236.09 49.3966 236.09 49.2578C236.09 49.1191 236.201 49.0066 236.339 49.0066H238.833C238.971 49.0066 239.082 49.1191 239.082 49.2578C239.082 49.3966 238.971 49.5091 238.833 49.5091ZM233.845 49.5091H231.351C231.213 49.5091 231.102 49.3966 231.102 49.2578C231.102 49.1191 231.213 49.0066 231.351 49.0066H233.845C233.983 49.0066 234.095 49.1191 234.095 49.2578C234.095 49.3966 233.983 49.5091 233.845 49.5091ZM228.857 49.5091H226.363C226.225 49.5091 226.114 49.3966 226.114 49.2578C226.114 49.1191 226.225 49.0066 226.363 49.0066H228.857C228.995 49.0066 229.106 49.1191 229.106 49.2578C229.106 49.3966 228.995 49.5091 228.857 49.5091ZM223.869 49.5091H221.375C221.237 49.5091 221.126 49.3966 221.126 49.2578C221.126 49.1191 221.237 49.0066 221.375 49.0066H223.869C224.007 49.0066 224.119 49.1191 224.119 49.2578C224.119 49.3966 224.007 49.5091 223.869 49.5091ZM218.881 49.5091H216.387C216.249 49.5091 216.138 49.3966 216.138 49.2578C216.138 49.1191 216.249 49.0066 216.387 49.0066H218.881C219.019 49.0066 219.131 49.1191 219.131 49.2578C219.131 49.3966 219.019 49.5091 218.881 49.5091ZM213.893 49.5091H211.399C211.261 49.5091 211.15 49.3966 211.15 49.2578C211.15 49.1191 211.261 49.0066 211.399 49.0066H213.893C214.031 49.0066 214.142 49.1191 214.142 49.2578C214.142 49.3966 214.031 49.5091 213.893 49.5091ZM208.905 49.5091H206.411C206.273 49.5091 206.162 49.3966 206.162 49.2578C206.162 49.1191 206.273 49.0066 206.411 49.0066H208.905C209.043 49.0066 209.155 49.1191 209.155 49.2578C209.155 49.3966 209.043 49.5091 208.905 49.5091ZM203.917 49.5091H201.423C201.285 49.5091 201.174 49.3966 201.174 49.2578C201.174 49.1191 201.285 49.0066 201.423 49.0066H203.917C204.055 49.0066 204.167 49.1191 204.167 49.2578C204.167 49.3966 204.055 49.5091 203.917 49.5091ZM198.929 49.5091H196.435C196.297 49.5091 196.186 49.3966 196.186 49.2578C196.186 49.1191 196.297 49.0066 196.435 49.0066H198.929C199.067 49.0066 199.179 49.1191 199.179 49.2578C199.179 49.3966 199.067 49.5091 198.929 49.5091ZM193.941 49.5091H191.447C191.309 49.5091 191.198 49.3966 191.198 49.2578C191.198 49.1191 191.309 49.0066 191.447 49.0066H193.941C194.079 49.0066 194.191 49.1191 194.191 49.2578C194.191 49.3966 194.079 49.5091 193.941 49.5091ZM188.953 49.5091H186.459C186.321 49.5091 186.21 49.3966 186.21 49.2578C186.21 49.1191 186.322 49.0066 186.459 49.0066H188.953C189.091 49.0066 189.203 49.1191 189.203 49.2578C189.203 49.3966 189.091 49.5091 188.953 49.5091ZM183.965 49.5091H181.471C181.333 49.5091 181.222 49.3966 181.222 49.2578C181.222 49.1191 181.333 49.0066 181.471 49.0066H183.965C184.103 49.0066 184.215 49.1191 184.215 49.2578C184.215 49.3966 184.103 49.5091 183.965 49.5091ZM178.977 49.5091H176.483C176.345 49.5091 176.234 49.3966 176.234 49.2578C176.234 49.1191 176.345 49.0066 176.483 49.0066H178.977C179.115 49.0066 179.227 49.1191 179.227 49.2578C179.227 49.3966 179.115 49.5091 178.977 49.5091ZM173.989 49.5091H171.495C171.358 49.5091 171.246 49.3966 171.246 49.2578C171.246 49.1191 171.358 49.0066 171.495 49.0066H173.989C174.127 49.0066 174.239 49.1191 174.239 49.2578C174.239 49.3966 174.127 49.5091 173.989 49.5091ZM169.001 49.5091H166.507C166.37 49.5091 166.258 49.3966 166.258 49.2578C166.258 49.1191 166.37 49.0066 166.507 49.0066H169.001C169.139 49.0066 169.251 49.1191 169.251 49.2578C169.251 49.3966 169.139 49.5091 169.001 49.5091ZM164.013 49.5091H161.519C161.382 49.5091 161.27 49.3966 161.27 49.2578C161.27 49.1191 161.382 49.0066 161.519 49.0066H164.013C164.151 49.0066 164.263 49.1191 164.263 49.2578C164.263 49.3966 164.151 49.5091 164.013 49.5091ZM159.025 49.5091H156.532C156.394 49.5091 156.282 49.3966 156.282 49.2578C156.282 49.1191 156.394 49.0066 156.532 49.0066H159.025C159.163 49.0066 159.275 49.1191 159.275 49.2578C159.275 49.3966 159.163 49.5091 159.025 49.5091ZM154.037 49.5091H151.543C151.406 49.5091 151.294 49.3966 151.294 49.2578C151.294 49.1191 151.406 49.0066 151.543 49.0066H154.037C154.175 49.0066 154.287 49.1191 154.287 49.2578C154.287 49.3966 154.175 49.5091 154.037 49.5091ZM149.05 49.5091H146.556C146.418 49.5091 146.306 49.3966 146.306 49.2578C146.306 49.1191 146.418 49.0066 146.556 49.0066H149.05C149.187 49.0066 149.299 49.1191 149.299 49.2578C149.299 49.3966 149.187 49.5091 149.05 49.5091ZM144.062 49.5091H141.568C141.43 49.5091 141.318 49.3966 141.318 49.2578C141.318 49.1191 141.43 49.0066 141.568 49.0066H144.062C144.199 49.0066 144.311 49.1191 144.311 49.2578C144.311 49.3966 144.199 49.5091 144.062 49.5091ZM139.074 49.5091H136.58C136.442 49.5091 136.33 49.3966 136.33 49.2578C136.33 49.1191 136.442 49.0066 136.58 49.0066H139.074C139.211 49.0066 139.323 49.1191 139.323 49.2578C139.323 49.3966 139.211 49.5091 139.074 49.5091ZM134.086 49.5091H133.392C133.254 49.5091 133.143 49.3966 133.143 49.2578C133.143 49.1191 133.254 49.0066 133.392 49.0066H134.086C134.224 49.0066 134.335 49.1191 134.335 49.2578C134.335 49.3966 134.223 49.5091 134.086 49.5091Z" fill="#5479F7"/>
<path d="M268.76 43.1105H266.266C266.129 43.1105 266.017 42.998 266.017 42.8594C266.017 42.7207 266.129 42.6081 266.266 42.6081H268.76C268.898 42.6081 269.01 42.7206 269.01 42.8594C269.01 42.9982 268.898 43.1105 268.76 43.1105ZM263.773 43.1105H261.279C261.141 43.1105 261.029 42.998 261.029 42.8594C261.029 42.7207 261.141 42.6081 261.279 42.6081H263.773C263.91 42.6081 264.022 42.7206 264.022 42.8594C264.022 42.9982 263.91 43.1105 263.773 43.1105ZM258.785 43.1105H256.291C256.153 43.1105 256.041 42.998 256.041 42.8594C256.041 42.7207 256.153 42.6081 256.291 42.6081H258.785C258.922 42.6081 259.034 42.7206 259.034 42.8594C259.034 42.9982 258.922 43.1105 258.785 43.1105ZM253.797 43.1105H251.303C251.165 43.1105 251.053 42.998 251.053 42.8594C251.053 42.7207 251.165 42.6081 251.303 42.6081H253.797C253.934 42.6081 254.046 42.7206 254.046 42.8594C254.046 42.9982 253.934 43.1105 253.797 43.1105ZM140.826 43.1105H138.851C138.713 43.1105 138.601 42.998 138.601 42.8594C138.601 42.7207 138.713 42.6081 138.851 42.6081H140.796L141.27 42.4908C141.404 42.4582 141.539 42.5401 141.572 42.6749C141.605 42.8097 141.523 42.9457 141.389 42.9787L140.885 43.1032C140.866 43.108 140.846 43.1104 140.826 43.1104V43.1105ZM136.357 43.1105H133.863C133.725 43.1105 133.613 42.998 133.613 42.8594C133.613 42.7207 133.725 42.6081 133.863 42.6081H136.357C136.495 42.6081 136.606 42.7206 136.606 42.8594C136.606 42.9982 136.495 43.1105 136.357 43.1105ZM248.88 42.5828C248.858 42.5828 248.835 42.5798 248.813 42.5735L246.409 41.9059C246.276 41.8691 246.198 41.7307 246.235 41.5971C246.271 41.463 246.41 41.3846 246.541 41.4216L248.946 42.0893C249.078 42.1261 249.156 42.2645 249.12 42.3981C249.089 42.5096 248.989 42.5827 248.88 42.5827V42.5828ZM143.752 42.3874C143.64 42.3874 143.538 42.3107 143.51 42.1961C143.477 42.0614 143.559 41.9254 143.693 41.8923L146.115 41.2937C146.248 41.2615 146.384 41.3431 146.416 41.4778C146.449 41.6125 146.367 41.7485 146.234 41.7816L143.811 42.3802C143.791 42.3851 143.771 42.3874 143.752 42.3874ZM244.071 41.2476C244.049 41.2476 244.027 41.2446 244.005 41.2383L241.6 40.5707C241.468 40.5339 241.39 40.3955 241.426 40.2619C241.463 40.128 241.6 40.0485 241.733 40.0864L244.137 40.7541C244.27 40.7909 244.348 40.9293 244.311 41.0629C244.281 41.1744 244.181 41.2475 244.071 41.2475V41.2476ZM148.596 41.1902C148.484 41.1902 148.382 41.1136 148.354 40.9989C148.321 40.8642 148.403 40.7282 148.537 40.6952L150.959 40.0966C151.092 40.0637 151.228 40.1458 151.261 40.2807C151.293 40.4153 151.212 40.5514 151.078 40.5845L148.656 41.1831C148.636 41.188 148.616 41.1902 148.596 41.1902ZM153.44 39.9931C153.328 39.9931 153.226 39.9165 153.198 39.8018C153.166 39.6672 153.247 39.5312 153.381 39.498L155.803 38.8994C155.937 38.8668 156.072 38.9487 156.105 39.0835C156.138 39.2181 156.056 39.3541 155.922 39.3872L153.5 39.9859C153.48 39.9908 153.46 39.9931 153.44 39.9931ZM239.263 39.9121C239.24 39.9121 239.218 39.9092 239.196 39.9029L236.792 39.2352C236.659 39.1985 236.581 39.06 236.618 38.9264C236.654 38.7926 236.792 38.7138 236.924 38.751L239.329 39.4187C239.461 39.4554 239.539 39.5939 239.503 39.7275C239.472 39.8389 239.372 39.912 239.263 39.912V39.9121ZM158.285 38.7959C158.173 38.7959 158.07 38.7192 158.043 38.6046C158.01 38.4699 158.092 38.3339 158.225 38.3008L160.647 37.7022C160.781 37.6692 160.916 37.7516 160.949 37.8863C160.982 38.021 160.9 38.157 160.766 38.1901L158.344 38.7887C158.324 38.7936 158.304 38.7959 158.285 38.7959ZM234.454 38.5769C234.432 38.5769 234.41 38.574 234.388 38.5677L231.983 37.9C231.85 37.8633 231.773 37.7248 231.809 37.5912C231.846 37.4575 231.982 37.3785 232.116 37.4158L234.52 38.0835C234.653 38.1202 234.731 38.2586 234.694 38.3923C234.664 38.5037 234.563 38.5769 234.454 38.5769ZM163.129 37.5988C163.017 37.5988 162.915 37.5221 162.887 37.4075C162.854 37.2728 162.936 37.1368 163.07 37.1037L165.492 36.505C165.625 36.4723 165.761 36.5542 165.794 36.6891C165.826 36.8237 165.744 36.9598 165.611 36.9929L163.189 37.5916C163.169 37.5965 163.149 37.5988 163.129 37.5988H163.129ZM229.646 37.2415C229.623 37.2415 229.601 37.2385 229.579 37.2323L227.175 36.5646C227.042 36.5278 226.964 36.3894 227.001 36.2558C227.037 36.1218 227.176 36.0436 227.307 36.0804L229.712 36.748C229.844 36.7848 229.922 36.9232 229.886 37.0568C229.855 37.1683 229.755 37.2414 229.646 37.2414V37.2415ZM167.973 36.4016C167.861 36.4016 167.759 36.3249 167.731 36.2101C167.698 36.0755 167.78 35.9394 167.914 35.9063L170.336 35.3078C170.47 35.2753 170.605 35.3571 170.638 35.4919C170.67 35.6266 170.589 35.7626 170.455 35.7956L168.033 36.3942C168.013 36.3991 167.993 36.4015 167.973 36.4015V36.4016ZM224.837 35.9063C224.815 35.9063 224.793 35.9033 224.77 35.8971L222.366 35.2294C222.234 35.1926 222.155 35.0542 222.192 34.9206C222.229 34.7867 222.366 34.7074 222.499 34.7452L224.903 35.4128C225.036 35.4496 225.114 35.588 225.077 35.7216C225.047 35.8331 224.946 35.9063 224.837 35.9063ZM172.817 35.2043C172.705 35.2043 172.603 35.1276 172.575 35.013C172.543 34.8783 172.624 34.7423 172.758 34.7092L175.18 34.1105C175.314 34.0776 175.449 34.1597 175.482 34.2946C175.515 34.4293 175.433 34.5653 175.299 34.5984L172.877 35.1971C172.857 35.202 172.837 35.2043 172.817 35.2043ZM220.028 34.5709C220.007 34.5709 219.984 34.5679 219.962 34.5616L218.59 34.1808H217.587C217.449 34.1808 217.337 34.0683 217.337 33.9296C217.337 33.791 217.449 33.6785 217.587 33.6785H218.624C218.646 33.6785 218.668 33.6816 218.69 33.6875L220.094 34.0774C220.227 34.1142 220.305 34.2526 220.268 34.3862C220.238 34.4977 220.138 34.5708 220.028 34.5708L220.028 34.5709ZM215.093 34.1809H212.599C212.461 34.1809 212.349 34.0684 212.349 33.9297C212.349 33.7911 212.461 33.6786 212.599 33.6786H215.093C215.23 33.6786 215.342 33.7911 215.342 33.9297C215.342 34.0684 215.23 34.1809 215.093 34.1809ZM210.105 34.1809H207.611C207.473 34.1809 207.361 34.0684 207.361 33.9297C207.361 33.7911 207.473 33.6786 207.611 33.6786H210.105C210.243 33.6786 210.354 33.7911 210.354 33.9297C210.354 34.0684 210.243 34.1809 210.105 34.1809ZM205.117 34.1809H202.623C202.485 34.1809 202.373 34.0684 202.373 33.9297C202.373 33.7911 202.485 33.6786 202.623 33.6786H205.117C205.254 33.6786 205.366 33.7911 205.366 33.9297C205.366 34.0684 205.254 34.1809 205.117 34.1809ZM200.129 34.1809H197.635C197.497 34.1809 197.385 34.0684 197.385 33.9297C197.385 33.7911 197.497 33.6786 197.635 33.6786H200.129C200.267 33.6786 200.378 33.7911 200.378 33.9297C200.378 34.0684 200.267 34.1809 200.129 34.1809ZM195.141 34.1809H192.647C192.509 34.1809 192.397 34.0684 192.397 33.9297C192.397 33.7911 192.509 33.6786 192.647 33.6786H195.141C195.279 33.6786 195.39 33.7911 195.39 33.9297C195.39 34.0684 195.278 34.1809 195.141 34.1809ZM190.153 34.1809H187.659C187.521 34.1809 187.409 34.0684 187.409 33.9297C187.409 33.7911 187.521 33.6786 187.659 33.6786H190.153C190.291 33.6786 190.402 33.7911 190.402 33.9297C190.402 34.0684 190.291 34.1809 190.153 34.1809ZM185.165 34.1809H182.671C182.533 34.1809 182.421 34.0684 182.421 33.9297C182.421 33.7911 182.533 33.6786 182.671 33.6786H185.165C185.303 33.6786 185.414 33.7911 185.414 33.9297C185.414 34.0684 185.303 34.1809 185.165 34.1809ZM180.177 34.1809H177.683C177.545 34.1809 177.433 34.0684 177.433 33.9297C177.433 33.7911 177.545 33.6786 177.683 33.6786H180.177C180.315 33.6786 180.426 33.7911 180.426 33.9297C180.426 34.0684 180.315 34.1809 180.177 34.1809Z" fill="#5479F7"/>
<path d="M268.761 36.7122H266.267C266.129 36.7122 266.017 36.5997 266.017 36.4611C266.017 36.3224 266.129 36.2099 266.267 36.2099H268.761C268.899 36.2099 269.01 36.3224 269.01 36.4611C269.01 36.5997 268.899 36.7122 268.761 36.7122ZM263.773 36.7122H261.279C261.141 36.7122 261.03 36.5997 261.03 36.4611C261.03 36.3224 261.141 36.2099 261.279 36.2099H263.773C263.911 36.2099 264.022 36.3224 264.022 36.4611C264.022 36.5997 263.911 36.7122 263.773 36.7122ZM258.785 36.7122H256.291C256.153 36.7122 256.042 36.5997 256.042 36.4611C256.042 36.3224 256.153 36.2099 256.291 36.2099H258.785C258.923 36.2099 259.035 36.3224 259.035 36.4611C259.035 36.5997 258.923 36.7122 258.785 36.7122ZM253.797 36.7122H251.303C251.165 36.7122 251.054 36.5997 251.054 36.4611C251.054 36.3224 251.165 36.2099 251.303 36.2099H253.797C253.935 36.2099 254.046 36.3224 254.046 36.4611C254.046 36.5997 253.935 36.7122 253.797 36.7122ZM139.343 36.7122H136.849C136.711 36.7122 136.599 36.5997 136.599 36.4611C136.599 36.3224 136.711 36.2099 136.849 36.2099H139.343C139.48 36.2099 139.592 36.3224 139.592 36.4611C139.592 36.5997 139.48 36.7122 139.343 36.7122ZM134.355 36.7122H133.392C133.254 36.7122 133.143 36.5997 133.143 36.4611C133.143 36.3224 133.254 36.2099 133.392 36.2099H134.355C134.492 36.2099 134.604 36.3224 134.604 36.4611C134.604 36.5997 134.492 36.7122 134.355 36.7122ZM141.835 36.7039C141.736 36.7039 141.642 36.644 141.603 36.5459C141.552 36.417 141.614 36.2708 141.742 36.2194L144.058 35.2864C144.185 35.2349 144.331 35.2975 144.382 35.4262C144.433 35.5552 144.371 35.7014 144.243 35.7529L141.927 36.6857C141.897 36.6979 141.866 36.7039 141.835 36.7039ZM248.879 36.3224C248.85 36.3224 248.82 36.3173 248.792 36.3064L246.455 35.4284C246.326 35.38 246.26 35.2353 246.309 35.1052C246.357 34.9751 246.5 34.9093 246.629 34.9576L248.966 35.8357C249.095 35.8841 249.161 36.0289 249.112 36.1589C249.075 36.2599 248.98 36.3224 248.879 36.3224ZM146.466 34.8381C146.367 34.8381 146.274 34.7782 146.235 34.6801C146.184 34.5512 146.246 34.4051 146.374 34.3536L148.689 33.4205C148.816 33.3695 148.962 33.4317 149.013 33.5604C149.065 33.6892 149.002 33.8354 148.874 33.8871L146.559 34.82C146.529 34.8321 146.497 34.8381 146.466 34.8381ZM244.206 34.5665C244.177 34.5665 244.147 34.5613 244.118 34.5505L241.782 33.6725C241.652 33.624 241.587 33.4792 241.635 33.3492C241.683 33.2193 241.827 33.1533 241.956 33.2017L244.293 34.0797C244.422 34.1281 244.487 34.2728 244.439 34.4029C244.402 34.504 244.307 34.5665 244.206 34.5665ZM151.097 32.9722C150.999 32.9722 150.905 32.9124 150.866 32.8143C150.815 32.6855 150.877 32.5393 151.005 32.4877L153.32 31.5547C153.447 31.5037 153.593 31.5659 153.645 31.6947C153.696 31.8237 153.633 31.9697 153.505 32.0212L151.19 32.9542C151.16 32.9664 151.128 32.9722 151.097 32.9722ZM239.532 32.8103C239.503 32.8103 239.474 32.8052 239.445 32.7943L237.108 31.9163C236.979 31.8677 236.914 31.7232 236.962 31.5931C237.01 31.4631 237.154 31.3971 237.283 31.4455L239.619 32.3235C239.748 32.3721 239.814 32.5167 239.766 32.6468C239.728 32.7478 239.633 32.8103 239.532 32.8103ZM155.729 31.1064C155.63 31.1064 155.536 31.0466 155.497 30.9485C155.446 30.8195 155.508 30.6734 155.636 30.622L157.952 29.689C158.079 29.6376 158.225 29.7001 158.276 29.8288C158.327 29.9577 158.265 30.1039 158.137 30.1554L155.821 31.0883C155.791 31.1005 155.759 31.1064 155.729 31.1064ZM234.859 31.0544C234.83 31.0544 234.8 31.0492 234.772 31.0384L232.435 30.1603C232.306 30.1119 232.24 29.9671 232.288 29.8371C232.336 29.7072 232.48 29.6413 232.609 29.6896L234.946 30.5676C235.075 30.6161 235.141 30.7607 235.092 30.8908C235.055 30.9919 234.96 31.0544 234.859 31.0544ZM230.185 29.2983C230.156 29.2983 230.127 29.2932 230.098 29.2823L227.762 28.4043C227.633 28.3559 227.567 28.2112 227.615 28.0811C227.663 27.9511 227.807 27.8852 227.936 27.9335L230.273 28.8115C230.402 28.86 230.467 29.0047 230.419 29.1348C230.382 29.2358 230.286 29.2983 230.185 29.2983ZM160.36 29.2405C160.261 29.2405 160.167 29.1807 160.128 29.0826C160.077 28.9536 160.139 28.8076 160.267 28.7559L162.583 27.823C162.709 27.772 162.856 27.8342 162.907 27.9629C162.958 28.0918 162.896 28.2379 162.768 28.2895L160.452 29.2225C160.422 29.2346 160.391 29.2405 160.36 29.2405ZM225.512 27.5424C225.483 27.5424 225.454 27.5372 225.425 27.5264L223.088 26.6483C222.959 26.5999 222.894 26.4552 222.942 26.3251C222.99 26.1952 223.134 26.1292 223.262 26.1776L225.599 27.0556C225.728 27.104 225.794 27.2487 225.746 27.3788C225.708 27.4799 225.613 27.5424 225.512 27.5424ZM164.991 27.3747C164.892 27.3747 164.799 27.3149 164.76 27.2168C164.708 27.0879 164.771 26.9417 164.899 26.8901L167.214 25.9572C167.341 25.9062 167.487 25.9682 167.538 26.0971C167.589 26.226 167.527 26.3721 167.399 26.4236L165.084 27.3567C165.053 27.3688 165.022 27.3747 164.991 27.3747ZM220.839 25.7863C220.81 25.7863 220.78 25.7812 220.751 25.7703L218.415 24.8924C218.286 24.8439 218.22 24.6992 218.268 24.5692C218.316 24.4392 218.461 24.3732 218.589 24.4216L220.926 25.2997C221.055 25.3482 221.12 25.4928 221.072 25.6229C221.035 25.7239 220.94 25.7864 220.839 25.7864V25.7863ZM169.622 25.5088C169.523 25.5088 169.43 25.4489 169.391 25.3507C169.34 25.2219 169.402 25.0757 169.53 25.0242L171.845 24.0913C171.972 24.0404 172.118 24.1025 172.17 24.2314C172.221 24.3602 172.158 24.5064 172.031 24.5579L169.715 25.4907C169.685 25.5028 169.653 25.5088 169.622 25.5088ZM216.165 24.0304C216.136 24.0304 216.107 24.0252 216.078 24.0144L213.741 23.1363C213.612 23.0878 213.547 22.9432 213.595 22.8131C213.643 22.6832 213.787 22.6173 213.916 22.6656L216.252 23.5435C216.382 23.592 216.447 23.7367 216.399 23.8667C216.362 23.9678 216.266 24.0304 216.165 24.0304ZM174.253 23.6431C174.155 23.6431 174.061 23.5832 174.022 23.4851C173.971 23.3562 174.033 23.2101 174.161 23.1585L176.477 22.2255C176.604 22.1746 176.75 22.2366 176.801 22.3654C176.852 22.4944 176.79 22.6405 176.662 22.6921L174.346 23.625C174.316 23.6371 174.284 23.6431 174.253 23.6431ZM211.448 22.518H208.954C208.816 22.518 208.705 22.4055 208.705 22.2668C208.705 22.128 208.816 22.0156 208.954 22.0156H211.448C211.586 22.0156 211.698 22.1281 211.698 22.2668C211.698 22.4054 211.586 22.518 211.448 22.518ZM206.46 22.518H203.966C203.828 22.518 203.717 22.4055 203.717 22.2668C203.717 22.128 203.828 22.0156 203.966 22.0156H206.46C206.598 22.0156 206.71 22.1281 206.71 22.2668C206.71 22.4054 206.598 22.518 206.46 22.518ZM201.472 22.518H198.978C198.84 22.518 198.729 22.4055 198.729 22.2668C198.729 22.128 198.841 22.0156 198.978 22.0156H201.472C201.61 22.0156 201.722 22.1281 201.722 22.2668C201.722 22.4054 201.61 22.518 201.472 22.518ZM196.484 22.518H193.99C193.852 22.518 193.741 22.4055 193.741 22.2668C193.741 22.128 193.852 22.0156 193.99 22.0156H196.484C196.622 22.0156 196.734 22.1281 196.734 22.2668C196.734 22.4054 196.622 22.518 196.484 22.518ZM191.496 22.518H189.002C188.864 22.518 188.753 22.4055 188.753 22.2668C188.753 22.128 188.864 22.0156 189.002 22.0156H191.496C191.634 22.0156 191.746 22.1281 191.746 22.2668C191.746 22.4054 191.634 22.518 191.496 22.518ZM186.508 22.518H184.014C183.877 22.518 183.765 22.4055 183.765 22.2668C183.765 22.128 183.877 22.0156 184.014 22.0156H186.508C186.646 22.0156 186.758 22.1281 186.758 22.2668C186.758 22.4054 186.646 22.518 186.508 22.518ZM181.52 22.518H179.026C178.889 22.518 178.777 22.4055 178.777 22.2668C178.777 22.128 178.889 22.0156 179.026 22.0156H181.52C181.658 22.0156 181.77 22.1281 181.77 22.2668C181.77 22.4054 181.658 22.518 181.52 22.518Z" fill="#5479F7"/>
<path d="M303.079 43.1106H278.835C278.697 43.1106 278.586 42.9981 278.586 42.8594C278.586 42.7208 278.698 42.6082 278.835 42.6082H303.079C303.217 42.6082 303.329 42.7207 303.329 42.8594C303.329 42.9982 303.217 43.1106 303.079 43.1106Z" fill="black"/>
<path d="M303.079 49.509H278.835C278.697 49.509 278.586 49.3965 278.586 49.2577C278.586 49.119 278.698 49.0065 278.835 49.0065H303.079C303.217 49.0065 303.329 49.119 303.329 49.2577C303.329 49.3965 303.217 49.509 303.079 49.509Z" fill="black"/>
<path d="M303.079 55.9074H278.835C278.697 55.9074 278.586 55.7949 278.586 55.6562C278.586 55.5174 278.698 55.405 278.835 55.405H303.079C303.217 55.405 303.329 55.5175 303.329 55.6562C303.329 55.7948 303.217 55.9074 303.079 55.9074Z" fill="black"/>
<path d="M303.079 62.3056H278.835C278.697 62.3056 278.586 62.1931 278.586 62.0544C278.586 61.9156 278.698 61.8032 278.835 61.8032H303.079C303.217 61.8032 303.329 61.9157 303.329 62.0544C303.329 62.193 303.217 62.3056 303.079 62.3056Z" fill="black"/>
<path d="M121.618 18.3182C121.481 18.3182 121.369 18.2057 121.369 18.067V9.19242C121.369 9.05366 121.481 8.94116 121.618 8.94116H210.444C210.582 8.94116 210.694 9.05366 210.694 9.19242C210.694 9.33118 210.582 9.44356 210.444 9.44356H121.868V18.0669C121.868 18.2057 121.756 18.3181 121.618 18.3181L121.618 18.3182Z" fill="black"/>
<path d="M121.618 21.9159C123.728 21.9159 125.439 20.1927 125.439 18.0671C125.439 15.9414 123.728 14.2183 121.618 14.2183C119.508 14.2183 117.797 15.9414 117.797 18.0671C117.797 20.1927 119.508 21.9159 121.618 21.9159Z" fill="#5479F7"/>
</g>
<defs>
<clipPath id="clip0_1068_341">
<rect width="311" height="209" fill="white"/>
</clipPath>
</defs>
</svg>
