<svg width="100" height="100" viewBox="0 0 100 100" fill="none" xmlns="http://www.w3.org/2000/svg">
<path d="M59.1454 74.2H10.2087C7.66493 74.2 5.60571 72.16 5.60571 69.64V27.16C5.60571 24.64 7.66493 22.6 10.2087 22.6H59.1454C61.6892 22.6 63.7484 24.64 63.7484 27.16V69.64C63.7484 72.16 61.6892 74.2 59.1454 74.2Z" stroke="#212121" stroke-width="2"/>
<path d="M63.7484 37H76.9516C77.7995 37 78.6474 37.36 79.1319 38.08L89.6703 52.6C90.1548 53.32 91.0027 53.68 91.8506 53.68C93.3042 53.68 94.5155 54.88 94.5155 56.32V71.44C94.5155 72.88 93.3042 74.08 91.8506 74.08H57.0862" stroke="#212121" stroke-width="2"/>
<path d="M72.2274 43V49.84C72.2274 52 74.0444 53.8 76.2247 53.8H92.5" stroke="#212121" stroke-width="2"/>
<path d="M25 82C29.4183 82 33 78.4183 33 74C33 69.5817 29.4183 66 25 66C20.5817 66 17 69.5817 17 74C17 78.4183 20.5817 82 25 82Z" fill="white" stroke="#212121" stroke-width="2"/>
<path d="M79 82C83.4183 82 87 78.4183 87 74C87 69.5817 83.4183 66 79 66C74.5817 66 71 69.5817 71 74C71 78.4183 74.5817 82 79 82Z" fill="white" stroke="#212121" stroke-width="2"/>
</svg>
