<svg xmlns="http://www.w3.org/2000/svg" width="149" height="90" viewBox="0 0 149 90">
    <g fill="#FFF" fill-rule="evenodd">
        <path d="M78.98 67.93c0 .934-.192 1.768-.577 2.5-.384.729-.912 1.34-1.585 1.832-.673.492-1.466.863-2.379 1.115-.913.251-1.91.377-2.99.377-.915 0-1.905-.103-2.973-.307-1.07-.203-2.001-.474-2.795-.81l.722-3.496c.769.312 1.56.558 2.378.739.817.18 1.645.27 2.487.27.816 0 1.495-.12 2.036-.36.542-.24.81-.673.81-1.297 0-.553-.263-.956-.791-1.208-.53-.252-1.226-.56-2.091-.92-.698-.288-1.369-.582-2.019-.882-.648-.3-1.219-.66-1.71-1.081-.493-.42-.89-.913-1.19-1.478-.301-.564-.45-1.267-.45-2.108 0-.913.173-1.706.521-2.378.349-.674.83-1.226 1.442-1.658.613-.433 1.333-.758 2.163-.974.828-.217 1.723-.324 2.684-.324 1.01 0 1.976.091 2.902.273.925.182 1.82.505 2.685.965l-.757 3.52c-.697-.312-1.424-.57-2.18-.775-.757-.205-1.52-.307-2.288-.307-.698 0-1.256.078-1.677.234-.42.155-.63.486-.63.988 0 .479.252.84.757 1.079.503.24 1.105.516 1.801.827.505.215 1.087.461 1.748.736.66.276 1.279.63 1.856 1.061.577.433 1.07.954 1.478 1.564.408.612.612 1.372.612 2.283zm-24.758-8.627c-.673 0-1.274.101-1.802.306-.529.205-1.022.501-1.479.886v9.15c.29.144.637.252 1.046.324.408.073.853.109 1.333.109.865 0 1.604-.138 2.218-.417.611-.275 1.11-.66 1.496-1.157.382-.493.665-1.078.845-1.753.18-.675.271-1.41.271-2.206 0-1.543-.318-2.802-.956-3.778-.635-.977-1.627-1.464-2.972-1.464zm-8.217-11.354h4.936v9.335c.529-.528 1.166-.96 1.91-1.298.745-.335 1.66-.504 2.74-.504 1.154 0 2.192.222 3.118.666.924.446 1.711 1.064 2.36 1.856.65.794 1.148 1.742 1.496 2.848.349 1.105.522 2.307.522 3.603 0 1.346-.204 2.59-.612 3.731-.41 1.142-1.022 2.125-1.838 2.956-.818.828-1.845 1.47-3.081 1.927-1.239.456-2.674.685-4.308.685-1.344 0-2.63-.145-3.856-.432-1.225-.288-2.354-.673-3.387-1.153v-24.22zM33.066 70.403c.697 0 1.347-.121 1.946-.36.6-.24 1.13-.542 1.587-.902v-2.776c-.505.05-1.046.097-1.622.145-.577.048-1.106.107-1.587.18-.72.121-1.297.32-1.73.595-.432.276-.648.74-.648 1.387 0 .577.185 1.009.56 1.297.372.289.87.434 1.494.434zm3.712 1.116c-.649.626-1.428 1.153-2.342 1.586-.913.432-1.97.649-3.17.649-.77 0-1.467-.126-2.092-.379-.624-.252-1.154-.6-1.585-1.045-.433-.444-.77-.967-1.01-1.568-.24-.6-.36-1.261-.36-1.981 0-1.61.541-2.835 1.622-3.677 1.08-.84 2.56-1.322 4.433-1.442.721-.047 1.464-.083 2.235-.108.769-.023 1.464-.047 2.09-.071v-.612c0-1.131-.276-1.989-.829-2.578-.553-.59-1.418-.882-2.595-.882-.914 0-1.778.108-2.594.324-.819.216-1.538.492-2.164.83l-.973-3.461c.914-.53 1.922-.931 3.029-1.207 1.103-.277 2.294-.415 3.567-.415 2.33 0 4.163.636 5.496 1.91 1.333 1.274 1.999 3.16 1.999 5.659v10.343h-4.757v-1.875zm-15.676-3.207c0 .552.114.967.343 1.243.227.278.618.414 1.17.414.217 0 .444-.01.685-.035.24-.025.468-.06.685-.108l.18 3.46c-.409.119-.913.221-1.513.306-.601.083-1.19.125-1.767.125-.889 0-1.633-.138-2.235-.414-.599-.276-1.086-.648-1.459-1.117-.372-.468-.636-.996-.792-1.586-.156-.587-.235-1.194-.235-1.82V47.95h4.938v20.362zm96.034-45.337h4.922v-4.542h4.939v4.542h5.261v3.856h-5.261v7.532c0 .817.15 1.466.45 1.946.299.48.895.721 1.784.721.938 0 1.825-.132 2.667-.397l.36 3.497c-.53.216-1.19.396-1.982.54-.792.145-1.586.216-2.38.216-1.057 0-1.951-.162-2.684-.486-.733-.325-1.333-.776-1.801-1.353-.469-.576-.81-1.249-1.028-2.017-.217-.769-.325-1.61-.325-2.522V26.83h-6.96l2.038-3.856zm-15.511 17.551V15.082h4.937v16.145l5.838-8.252h5.478l-6.235 8.65 7.1 8.901h-5.875l-6.306-8.541v8.541h-4.937zM90.562 25.93c-1.01 0-1.784.354-2.326 1.062-.54.709-.858 1.604-.955 2.686h6.02c.12-1.129-.05-2.036-.506-2.721-.456-.684-1.2-1.027-2.233-1.027zm.288-3.316c1.153 0 2.179.18 3.081.54.902.36 1.651.873 2.253 1.534.599.659 1.056 1.453 1.369 2.378.312.924.469 1.963.469 3.117 0 .48-.031.967-.091 1.46-.06.491-.15.942-.27 1.35H87.246c.05 1.287.444 2.311 1.19 3.074.744.762 1.933 1.142 3.568 1.142.937 0 1.85-.086 2.738-.26.889-.174 1.682-.423 2.379-.748l.614 3.352c-.865.431-1.851.763-2.956.99-1.106.229-2.246.343-3.425.343-1.465 0-2.762-.216-3.89-.648-1.131-.434-2.086-1.046-2.867-1.839-.781-.793-1.375-1.747-1.784-2.866-.409-1.116-.612-2.347-.612-3.694 0-1.367.197-2.624.594-3.765.397-1.141.967-2.115 1.713-2.919.745-.805 1.652-1.43 2.72-1.875 1.07-.444 2.276-.666 3.623-.666zM70.992 26.47c-.793 0-1.483.169-2.072.505-.59.337-1.052.709-1.388 1.116v8.687c.31.12.672.21 1.082.27.407.06.84.09 1.297.09 1.68 0 2.906-.516 3.676-1.55.768-1.033 1.153-2.366 1.153-4 0-1.465-.307-2.684-.918-3.658-.614-.973-1.558-1.46-2.83-1.46zm-8.398-3.495h4.721v2.234c.578-.793 1.3-1.423 2.163-1.892.864-.468 1.921-.703 3.171-.703 1.057 0 2.018.215 2.883.65.866.43 1.604 1.039 2.217 1.818.612.781 1.087 1.719 1.423 2.811.337 1.095.504 2.314.504 3.658 0 1.514-.24 2.853-.719 4.02-.482 1.165-1.13 2.144-1.947 2.936-.817.794-1.772 1.388-2.865 1.785-1.095.397-2.265.594-3.514.594-.65 0-1.226-.042-1.73-.126-.504-.085-.961-.187-1.37-.305v7.494h-4.937V22.975zm-3.352 12.088c0 .934-.192 1.768-.577 2.498-.384.73-.911 1.342-1.585 1.834-.673.49-1.466.862-2.378 1.113-.914.252-1.91.378-2.99.378-.915 0-1.906-.102-2.974-.306-1.07-.205-2-.475-2.794-.81l.722-3.497c.769.313 1.56.56 2.378.738.817.181 1.645.272 2.486.272.817 0 1.496-.12 2.036-.362.542-.24.811-.672.811-1.297 0-.552-.264-.955-.791-1.207-.53-.252-1.227-.559-2.092-.92-.697-.287-1.368-.581-2.018-.882-.649-.3-1.22-.66-1.71-1.081-.494-.42-.89-.913-1.191-1.478-.3-.564-.45-1.267-.45-2.108 0-.913.174-1.706.521-2.38.348-.671.83-1.223 1.443-1.656.613-.432 1.333-.758 2.163-.974.828-.217 1.722-.324 2.684-.324 1.01 0 1.976.091 2.902.272.924.184 1.82.506 2.684.965l-.757 3.52c-.697-.312-1.424-.57-2.18-.774-.757-.204-1.52-.307-2.288-.307-.697 0-1.256.079-1.677.234-.42.155-.63.486-.63.988 0 .48.253.84.757 1.079s1.105.516 1.802.827c.504.216 1.087.462 1.748.737.66.275 1.279.628 1.855 1.06.577.432 1.07.953 1.478 1.564.408.611.612 1.373.612 2.284zm-32.974 5.463v-17.55h4.756v2.377c.578-.937 1.31-1.628 2.198-2.073.89-.444 1.863-.666 2.92-.666 1.13 0 2.096.24 2.9.72.805.481 1.46 1.125 1.965 1.928.505.806.877 1.744 1.117 2.812.241 1.07.361 2.18.361 3.334v9.118h-4.937v-9.154c0-1.585-.247-2.788-.74-3.604-.492-.816-1.303-1.225-2.432-1.225-.72 0-1.346.168-1.874.504-.529.336-.961.733-1.298 1.19v12.289h-4.936zm-10.091 0h5.044V16.523h-5.044v24.003z"/>
        <path d="M0 0.12L0 28.282 4.159 24.123 4.159 4.279 24.003 4.279 28.161 0.12z" transform="translate(0 .656)"/>
        <path d="M144.26 65.877L144.26 85.72 124.415 85.72 120.257 89.88 148.417 89.88 148.417 61.719z"/>
    </g>
</svg>
