<svg width="100" height="100" viewBox="0 0 100 100" fill="none" xmlns="http://www.w3.org/2000/svg">
<path d="M46 65.6364C46 80.9091 26 94 26 94C26 94 6 80.9091 6 65.6364C6 54.7273 14.8889 46 26 46C37.1111 46 46 54.7273 46 65.6364Z" stroke="black" stroke-width="3" stroke-linecap="round" stroke-linejoin="round"/>
<path d="M26 72.1817C29.8158 72.1817 32.9091 69.0884 32.9091 65.2726C32.9091 61.4568 29.8158 58.3635 26 58.3635C22.1842 58.3635 19.0909 61.4568 19.0909 65.2726C19.0909 69.0884 22.1842 72.1817 26 72.1817Z" stroke="black" stroke-width="3" stroke-linecap="round" stroke-linejoin="round"/>
<path d="M92.8333 25.6818C92.8333 35.5455 79.9167 44 79.9167 44C79.9167 44 67 35.5455 67 25.6818C67 18.6364 72.7407 13 79.9167 13C87.0926 13 92.8333 18.6364 92.8333 25.6818Z" stroke="black" stroke-width="3" stroke-linecap="round" stroke-linejoin="round"/>
<path d="M79.9166 29.9091C82.381 29.9091 84.3788 27.9113 84.3788 25.447C84.3788 22.9826 82.381 20.9849 79.9166 20.9849C77.4523 20.9849 75.4545 22.9826 75.4545 25.447C75.4545 27.9113 77.4523 29.9091 79.9166 29.9091Z" stroke="black" stroke-width="3" stroke-linecap="round" stroke-linejoin="round"/>
<path d="M36.5 95H75.75C83.6201 95 90 88.6201 90 80.75V80.75C90 72.8799 83.6201 66.5 75.75 66.5H66C59.9249 66.5 55 61.5751 55 55.5V55.5C55 49.4249 59.9249 44.5 66 44.5H66.5" stroke="black" stroke-width="3" stroke-linecap="round" stroke-linejoin="round" stroke-dasharray="7 6"/>
</svg>
