<svg xmlns="http://www.w3.org/2000/svg" width="60" height="60" fill="none" viewBox="0 0 60 60">
    <path stroke="#212121" stroke-linejoin="round" stroke-miterlimit="10" stroke-width="2" d="M55.32 6.622v6.841h-7.956c-5.1 0-9.316 3.484-9.996 7.961l-4.488-1.927-2.108-3.483-.544-2.924-3.74-2.923-.884-3.545H55.32zM51.92 49.537v6.841H5.68v-6.841h9.316c5.576 0 10.064-4.105 10.064-9.205V24.534c0-5.1-4.488-9.205-10.064-9.205H5.68V8.488h16.524l.884 3.483 3.74 2.923.544 2.923L29.48 21.3l4.488 1.928c-.068.373-.068.809-.068 1.244v15.797c0 5.1 4.488 9.205 10.064 9.205h7.956v.063zM34.24 23.415l-.272-.125"/>
</svg>
