<svg xmlns="http://www.w3.org/2000/svg" width="164" height="165" fill="none" viewBox="0 0 164 165">
    <g stroke-linejoin="round" stroke-miterlimit="10" clip-path="url(#clip0)">
        <path stroke="#D3D3D3" d="M18.5 19l8 21M52 23.5l-20 18M32.5 48l41 29M49 83h22M22.5 99l17-13M35.5 145l5-18M18.5 130l18-6M99.5 145l4-23M108.5 118l23 6M90.5 85l53 11M113.5 55l30 2M111.5 51l23-22M103.5 22l4 28M104.5 58l-17 17M45.5 118l28-28M88.5 89l13 23"/>
        <path stroke="#212121" d="M16 19.5c2.761 0 5-2.239 5-5s-2.239-5-5-5-5 2.239-5 5 2.239 5 5 5zM55.5 25c2.761 0 5-2.239 5-5s-2.239-5-5-5-5 2.239-5 5 2.239 5 5 5zM28.5 50c2.761 0 5-2.239 5-5s-2.239-5-5-5-5 2.239-5 5 2.239 5 5 5zM43.5 88c2.761 0 5-2.239 5-5s-2.239-5-5-5-5 2.239-5 5 2.239 5 5 5zM18.5 107c2.761 0 5-2.239 5-5s-2.239-5-5-5-5 2.239-5 5 2.239 5 5 5zM41.5 127c2.761 0 5-2.239 5-5s-2.239-5-5-5-5 2.239-5 5 2.239 5 5 5zM13.5 137c2.761 0 5-2.239 5-5s-2.239-5-5-5-5 2.239-5 5 2.239 5 5 5zM33.5 155c2.761 0 5-2.239 5-5s-2.239-5-5-5-5 2.239-5 5 2.239 5 5 5zM98.5 155c2.761 0 5-2.239 5-5s-2.239-5-5-5-5 2.239-5 5 2.239 5 5 5zM103.5 122c2.761 0 5-2.239 5-5s-2.239-5-5-5-5 2.239-5 5 2.239 5 5 5z"/>
        <path fill="#fff" stroke="#212121" d="M81 103c11.046 0 20-8.954 20-20s-8.954-20-20-20-20 8.954-20 20 8.954 20 20 20z"/>
        <path stroke="#212121" d="M136.5 130c2.761 0 5-2.239 5-5s-2.239-5-5-5-5 2.239-5 5 2.239 5 5 5zM148.5 103c2.761 0 5-2.239 5-5s-2.239-5-5-5-5 2.239-5 5 2.239 5 5 5zM148.5 62c2.761 0 5-2.239 5-5s-2.239-5-5-5-5 2.239-5 5 2.239 5 5 5zM138.5 30c2.761 0 5-2.239 5-5s-2.239-5-5-5-5 2.239-5 5 2.239 5 5 5zM103.5 22c2.761 0 5-2.239 5-5s-2.239-5-5-5-5 2.239-5 5 2.239 5 5 5zM108.5 60c2.761 0 5-2.239 5-5s-2.239-5-5-5-5 2.239-5 5 2.239 5 5 5z"/>
    </g>
    <g clip-path="url(#clip1)">
        <path fill="#212121" fill-rule="evenodd" d="M82.747 86.711c0 .163-.034.308-.101.435s-.16.233-.278.319c-.117.085-.256.15-.416.193-.16.044-.334.066-.523.066-.16 0-.334-.018-.52-.053-.188-.036-.35-.083-.49-.141l.127-.608c.134.054.273.097.416.128.143.032.288.047.435.047.143 0 .262-.02.356-.062.095-.042.142-.117.142-.226 0-.096-.046-.166-.138-.21-.093-.044-.215-.097-.366-.16-.122-.05-.24-.1-.354-.153-.113-.052-.213-.115-.299-.188s-.156-.159-.208-.257c-.053-.098-.079-.22-.079-.366 0-.159.03-.297.092-.413.06-.118.145-.214.252-.289.107-.075.233-.132.378-.17.145-.037.302-.055.47-.055.177 0 .346.015.508.047.162.032.318.088.47.168l-.133.612c-.122-.055-.249-.1-.381-.135-.133-.036-.266-.053-.4-.053-.123 0-.22.013-.294.04-.074.027-.11.085-.11.172 0 .083.044.146.132.188.088.041.194.09.315.143l.306.128c.116.048.224.11.325.185.1.075.187.166.259.272.071.106.107.238.107.396zm-4.333-1.5c-.118 0-.223.018-.315.054-.093.036-.179.087-.259.154v1.59c.05.026.111.044.183.057.071.013.15.019.233.019.152 0 .281-.024.388-.073.107-.047.195-.114.262-.2.067-.087.117-.188.148-.305.032-.118.047-.246.047-.384 0-.268-.055-.487-.167-.657-.11-.17-.284-.254-.52-.254zm-1.438-1.973h.864v1.623c.093-.092.204-.167.334-.226.13-.058.29-.087.48-.087.202 0 .383.038.545.115.162.078.3.185.413.323.114.138.201.303.262.495s.092.401.092.626c0 .234-.036.45-.108.649-.071.198-.178.37-.321.514-.143.144-.323.255-.54.335-.216.079-.467.119-.753.119-.236 0-.46-.025-.675-.075-.214-.05-.412-.117-.593-.2v-4.21zm-2.264 3.903c.122 0 .236-.02.34-.062.105-.042.198-.094.278-.157v-.483c-.088.01-.183.017-.284.026-.1.008-.193.018-.277.03-.126.022-.227.056-.303.104-.076.048-.113.129-.113.241 0 .1.032.176.098.226.065.05.152.075.26.075zm.65.194c-.114.11-.25.2-.41.276-.16.075-.345.113-.555.113-.135 0-.257-.022-.366-.066-.11-.044-.202-.104-.278-.182-.075-.077-.134-.168-.176-.272-.042-.105-.063-.22-.063-.345 0-.28.094-.492.284-.639.189-.146.448-.23.775-.25.127-.009.257-.015.392-.02.134-.003.256-.007.365-.012v-.106c0-.197-.048-.346-.145-.448-.097-.103-.248-.153-.454-.153-.16 0-.311.018-.454.056-.143.037-.27.085-.379.144l-.17-.601c.16-.093.337-.162.53-.21.193-.048.402-.072.624-.072.408 0 .729.11.962.332.233.221.35.549.35.983v1.798h-.832v-.326zm-2.744-.557c0 .096.02.168.06.216.04.048.109.072.205.072.038 0 .078-.002.12-.006.042-.005.082-.01.12-.019l.031.602c-.071.02-.16.038-.264.053-.106.014-.209.021-.31.021-.155 0-.285-.024-.39-.072-.106-.047-.19-.112-.256-.194-.065-.081-.111-.173-.139-.275-.027-.103-.04-.208-.04-.317v-3.62h.863v3.539zm16.806-7.881h.861v-.79h.865v.79h.92v.67h-.92v1.31c0 .142.026.254.078.338.053.083.157.125.313.125.164 0 .319-.023.466-.069l.063.608c-.093.037-.208.069-.347.094-.138.025-.277.037-.416.037-.185 0-.342-.028-.47-.084-.128-.057-.233-.135-.315-.235-.082-.1-.142-.217-.18-.35-.038-.135-.057-.28-.057-.44v-1.334h-1.218l.357-.67zm-2.715 3.05v-4.422h.864v2.806l1.022-1.434h.959L88.463 80.4l1.242 1.547h-1.028l-1.104-1.485v1.485h-.863zm-1.936-2.536c-.176 0-.312.061-.406.184-.095.124-.15.279-.168.467h1.054c.02-.196-.009-.354-.089-.473s-.21-.178-.39-.178zm.05-.577c.203 0 .382.031.54.094.158.063.289.152.394.267.105.114.185.252.24.413.055.16.082.341.082.542 0 .083-.005.168-.016.254-.01.085-.026.163-.047.234h-1.823c.009.224.078.402.209.535.13.132.338.198.624.198.164 0 .324-.015.479-.045.156-.03.294-.073.416-.13l.108.583c-.152.075-.324.132-.517.172-.194.04-.394.06-.6.06-.256 0-.483-.038-.68-.113-.198-.076-.366-.182-.502-.32-.137-.138-.241-.304-.313-.498-.071-.194-.107-.408-.107-.642 0-.238.035-.456.104-.655.07-.198.17-.367.3-.507.13-.14.29-.249.476-.326.187-.077.398-.116.634-.116zm-3.474.67c-.139 0-.26.03-.363.088-.103.059-.184.124-.243.194v1.51c.055.021.118.037.19.047.07.01.147.016.227.016.294 0 .508-.09.643-.27.134-.18.202-.41.202-.695 0-.255-.054-.466-.16-.636-.108-.169-.274-.254-.496-.254zm-1.47-.607h.826v.388c.102-.138.228-.247.379-.329.151-.081.336-.122.555-.122.185 0 .353.038.504.113.152.075.281.18.388.316.107.136.19.299.25.489.058.19.087.402.087.636 0 .263-.041.496-.125.698-.085.203-.198.373-.341.51-.143.139-.31.242-.501.311-.192.07-.397.103-.615.103-.114 0-.215-.007-.303-.022-.088-.014-.168-.032-.24-.052v1.302h-.864v-4.341zm-.586 2.101c0 .162-.034.307-.101.434s-.16.234-.278.32c-.118.084-.256.15-.416.193-.16.044-.334.065-.523.065-.16 0-.334-.017-.52-.053-.188-.035-.35-.082-.49-.14l.127-.608c.135.054.273.097.416.128.143.031.288.047.435.047.143 0 .262-.02.356-.063.095-.042.142-.117.142-.225 0-.096-.046-.166-.138-.21-.093-.044-.215-.097-.366-.16-.122-.05-.24-.101-.353-.153-.114-.052-.214-.115-.3-.188s-.155-.159-.208-.257c-.052-.098-.079-.22-.079-.367 0-.158.03-.296.091-.413.061-.117.146-.213.253-.288.107-.075.233-.132.378-.17.145-.037.302-.056.47-.056.177 0 .346.016.508.047.162.032.318.088.47.168l-.133.612c-.122-.054-.249-.099-.381-.135-.133-.035-.266-.053-.4-.053-.123 0-.22.014-.294.04-.074.028-.11.085-.11.173 0 .083.044.146.132.187.088.042.193.09.315.144l.306.128c.116.048.224.11.325.184.1.075.187.166.258.272.072.106.108.239.108.397zm-5.77.95v-3.05h.832v.412c.1-.163.229-.283.384-.36.156-.077.326-.116.511-.116.198 0 .367.042.508.125.14.084.255.196.344.335.088.14.153.304.195.49.042.185.063.378.063.579v1.585h-.864v-1.591c0-.276-.043-.485-.13-.627-.085-.142-.227-.213-.425-.213-.126 0-.235.03-.328.088-.092.058-.168.127-.227.207v2.136h-.864zm-1.767 0h.883v-4.173h-.883v4.173zM68.925 75.038v4.895l.728-.723v-3.449h3.473l.728-.723h-4.928zM94.17 86.355v3.449h-3.472l-.728.723h4.928v-4.895l-.727.723z" clip-rule="evenodd"/>
    </g>
    <defs>
        <clipPath id="clip0">
            <path fill="#fff" d="M0 0H146V146.5H0z" transform="translate(8 9)"/>
        </clipPath>
        <clipPath id="clip1">
            <path fill="#fff" d="M0 0H26.074V15.645H0z" transform="translate(68.9255 74.9032)"/>
        </clipPath>
    </defs>
</svg>
