<svg xmlns="http://www.w3.org/2000/svg" width="306" height="153" fill="none" viewBox="0 0 306 153">
    <path stroke="#D6D6D6" stroke-linecap="round" stroke-miterlimit="10" stroke-width="3" d="M128.2 71.8c3.203 0 5.8-2.597 5.8-5.8s-2.597-5.8-5.8-5.8-5.8 2.597-5.8 5.8 2.597 5.8 5.8 5.8z"/>
    <path stroke="#D6D6D6" stroke-linecap="round" stroke-miterlimit="10" stroke-width="3" d="M142.4 71.7c-.5 1.2-.3 2.6.6 3.5l.1.1c1.5 1.5 1.5 3.9 0 5.4-1.5 1.5-3.9 1.5-5.4 0l-.1-.1c-.9-.9-2.3-1.2-3.5-.6-1.2.5-1.9 1.6-1.9 2.9v.4c0 2.1-1.7 3.8-3.8 3.8-2.1 0-3.9-1.7-3.9-3.8v-.2c0-1.3-.9-2.5-2.1-2.9-1.2-.5-2.6-.3-3.5.6l-.1.1c-1.5 1.5-3.9 1.5-5.4 0-1.5-1.5-1.5-3.9 0-5.4l.1-.1c.9-.9 1.2-2.3.6-3.5-.5-1.2-1.6-1.9-2.9-1.9h-.3c-2.1 0-3.8-1.7-3.8-3.8 0-2.1 1.7-3.8 3.8-3.8h.2c1.3 0 2.5-.9 2.9-2.1.5-1.2.3-2.6-.6-3.5l-.1-.1c-1.5-1.5-1.5-3.9 0-5.4 1.5-1.5 3.9-1.5 5.4 0l.1.1c.9.9 2.3 1.2 3.5.6h.2c1.2-.5 1.9-1.6 1.9-2.9v-.3c0-2.1 1.7-3.8 3.8-3.8 2.1 0 3.8 1.7 3.8 3.8v.2c0 1.3.8 2.4 1.9 2.9 1.2.5 2.6.3 3.5-.6l.1-.1c1.5-1.5 3.9-1.5 5.4 0 1.5 1.5 1.5 3.9 0 5.4l-.1.1c-.9.9-1.2 2.3-.6 3.5v.2c.5 1.2 1.6 1.9 2.9 1.9h.4c2.1 0 3.8 1.7 3.8 3.8 0 2.1-1.7 3.8-3.8 3.8h-.2c-1.3-.1-2.4.7-2.9 1.8zM117 105.9c2.761 0 5-2.239 5-5s-2.239-5-5-5-5 2.239-5 5 2.239 5 5 5zM141 105.9c2.761 0 5-2.239 5-5s-2.239-5-5-5-5 2.239-5 5 2.239 5 5 5zM195.9 59.2H168c-3.1 0-5.6-2.5-5.6-5.6 0-3.1 2.5-5.6 5.6-5.6h27.9c3.1 0 5.6 2.5 5.6 5.6 0 3.2-2.5 5.6-5.6 5.6zM195.9 82.2H168c-3.1 0-5.6-2.5-5.6-5.6 0-3.1 2.5-5.6 5.6-5.6h27.9c3.1 0 5.6 2.5 5.6 5.6 0 3.2-2.5 5.6-5.6 5.6zM195.9 106.2H168c-3.1 0-5.6-2.5-5.6-5.6 0-3.1 2.5-5.6 5.6-5.6h27.9c3.1 0 5.6 2.5 5.6 5.6 0 3.2-2.5 5.6-5.6 5.6z"/>
    <rect width="122" height="85" x="92.5" y="34.5" stroke="#565656" stroke-width="3" rx="6.5"/>
</svg>
