<svg width="92" height="47" viewBox="0 0 92 47" fill="none" xmlns="http://www.w3.org/2000/svg">
<g clip-path="url(#clip0)">
<path d="M45.7001 20.6V21.6" stroke="black" stroke-width="2" stroke-miterlimit="10" stroke-linecap="round"/>
<path d="M53.5 25.2L54.1 24.6" stroke="black" stroke-width="2" stroke-miterlimit="10" stroke-linecap="round"/>
<path d="M56.9 33H57.7" stroke="black" stroke-width="2" stroke-miterlimit="10" stroke-linecap="round"/>
<path d="M45.7001 36C47.3569 36 48.7001 34.6569 48.7001 33C48.7001 31.3431 47.3569 30 45.7001 30C44.0432 30 42.7001 31.3431 42.7001 33C42.7001 34.6569 44.0432 36 45.7001 36Z" stroke="black" stroke-width="2" stroke-miterlimit="10" stroke-linecap="round"/>
<path d="M62.2001 27.3C63.3001 26.5 64.7001 26.1 66.2001 26.1C70.1001 26.1 73.3001 29.3 73.3001 33.2C73.3001 34.1 73.1001 35 72.8001 35.8" stroke="black" stroke-width="2" stroke-miterlimit="10" stroke-linecap="round"/>
<path d="M66.8 33.4L68.1 32.7" stroke="black" stroke-width="2" stroke-miterlimit="10" stroke-linecap="round"/>
<path d="M45.7 45.6H14.7C13.2 45.6 11.9 44.8 11.2 43.5L1.40001 25.5C0.900015 24.5 0.900015 23.3 1.60001 22.4C4.30001 18.5 12.7 8.40001 29.3 3.50001C40 0.300006 51.5 0.300006 62.3 3.50001C78.9 8.40001 87.3 18.5 90 22.4C90.6 23.3 90.7 24.5 90.2 25.5L80.4 43.5C79.7 44.8 78.4 45.6 76.9 45.6H45.7Z" stroke="black" stroke-width="2" stroke-miterlimit="10" stroke-linecap="round"/>
<path d="M45.7 40.5H17.9C16.4 40.5 15.1 39.7 14.4 38.4L7.59997 25.6C6.99997 24.5 7.19997 23.2 7.99997 22.2C11.9 17.8 24.2 6.1 45.6 5.8C67 6.1 79.4 17.8 83.2 22.2C84 23.1 84.2 24.5 83.6 25.6L77 38.4C76.3 39.7 74.9 40.5 73.5 40.5H45.7Z" stroke="black" stroke-width="2" stroke-miterlimit="10" stroke-linecap="round"/>
<path d="M29.2 35.8C29.1 35.2 29.1 34.7 29.1 34.1C29.1 24.9 36.5 17.5 45.7 17.5C54.9 17.5 62.3 24.9 62.3 34.1C62.3 34.7 62.3 35.2 62.2 35.8" stroke="black" stroke-width="2" stroke-miterlimit="10" stroke-linecap="round"/>
<path d="M37.8001 25.2L37.2001 24.6" stroke="black" stroke-width="2" stroke-miterlimit="10" stroke-linecap="round"/>
<path d="M34.5 33H33.6" stroke="black" stroke-width="2" stroke-miterlimit="10" stroke-linecap="round"/>
<path d="M45.7001 36C47.3569 36 48.7001 34.6569 48.7001 33C48.7001 31.3431 47.3569 30 45.7001 30C44.0432 30 42.7001 31.3431 42.7001 33C42.7001 34.6569 44.0432 36 45.7001 36Z" stroke="black" stroke-width="2" stroke-miterlimit="10" stroke-linecap="round"/>
<path d="M29.2 27.3C28.1 26.5 26.7 26.1 25.2 26.1C21.3 26.1 18.1 29.3 18.1 33.2C18.1 34.1 18.3 35 18.6 35.8" stroke="black" stroke-width="2" stroke-miterlimit="10" stroke-linecap="round"/>
<path d="M24.5 33.4L23.3 32.7" stroke="black" stroke-width="2" stroke-miterlimit="10" stroke-linecap="round"/>
<path d="M43 31.7L39.1 29.8" stroke="black" stroke-width="2" stroke-miterlimit="10" stroke-linecap="round"/>
</g>
<defs>
<clipPath id="clip0">
<rect width="91.4" height="46.6" fill="white"/>
</clipPath>
</defs>
</svg>
