<svg width="100" height="100" viewBox="0 0 100 100" fill="none" xmlns="http://www.w3.org/2000/svg">
<path d="M12.6924 80.197C9.39106 80.197 3.18256 79.4609 3.18256 74.1116C3.18256 68.7623 5.69552 64.4927 7.37083 63.6585C9.09542 62.8732 22.4979 56.7878 22.4979 56.7878" stroke="#212121" stroke-width="3" stroke-miterlimit="10" stroke-linecap="round"/>
<path d="M11.3127 45.2058L29.347 53.5978C29.347 53.5978 47.3812 45.9419 50.4362 45.9419C53.4912 45.9419 82.1686 44.1261 90.8408 48.0031C90.8408 48.0031 90.6437 48.8865 88.3771 50.8005C88.3771 50.8005 95.5218 60.4193 96.2116 63.462C96.9014 66.5047 97.0985 73.768 95.2754 75.4365C93.4523 77.1051 92.2204 77.3505 90.348 77.2523" stroke="#212121" stroke-width="3" stroke-miterlimit="10" stroke-linecap="round"/>
<path d="M39.5959 80.5896H62.7054" stroke="#212121" stroke-width="3" stroke-miterlimit="10" stroke-linecap="round"/>
<path d="M26.5877 87.6565C31.2956 87.6565 35.1121 83.8554 35.1121 79.1664C35.1121 74.4774 31.2956 70.6763 26.5877 70.6763C21.8798 70.6763 18.0633 74.4774 18.0633 79.1664C18.0633 83.8554 21.8798 87.6565 26.5877 87.6565Z" stroke="#212121" stroke-width="3" stroke-miterlimit="10" stroke-linecap="round"/>
<path d="M76.9948 87.7547C81.7027 87.7547 85.5192 83.9535 85.5192 79.2645C85.5192 74.5756 81.7027 70.7744 76.9948 70.7744C72.2869 70.7744 68.4704 74.5756 68.4704 79.2645C68.4704 83.9535 72.2869 87.7547 76.9948 87.7547Z" stroke="#212121" stroke-width="3" stroke-miterlimit="10" stroke-linecap="round"/>
<path d="M30.3818 58.7998L31.9585 60.0758C31.9585 60.0758 63.1982 60.861 74.679 57.5729L79.4585 51.6838" stroke="#212121" stroke-width="3" stroke-miterlimit="10" stroke-linecap="round"/>
<path d="M67.9777 50.7515L67.6821 58.8981" stroke="#212121" stroke-width="3" stroke-miterlimit="10" stroke-linecap="round"/>
<path d="M54.0332 51.2422L52.555 59.9777" stroke="#212121" stroke-width="3" stroke-miterlimit="10" stroke-linecap="round"/>
<path d="M12.8895 52.9108C12.8895 51.0459 14.1706 48.7884 16.388 47.6106" stroke="#212121" stroke-width="3" stroke-miterlimit="10" stroke-linecap="round"/>
<path d="M4.46372 54.0395C3.1826 52.7144 2.2464 51.2912 2.2464 48.5921C2.2464 45.8438 4.11881 43.2428 7.66652 41.7214" stroke="#212121" stroke-width="3" stroke-miterlimit="10" stroke-linecap="round"/>
<path d="M4.95644 43.3409C2.83766 41.1816 2.64056 38.7278 2.64056 36.961C2.64056 34.2128 4.66079 29.2561 11.707 28.8145" stroke="#212121" stroke-width="3" stroke-miterlimit="10" stroke-linecap="round"/>
<path d="M11.5591 33.035C10.9678 29.6487 11.8547 23.5633 18.7038 22.3364" stroke="#212121" stroke-width="3" stroke-miterlimit="10" stroke-linecap="round"/>
<path d="M14.6141 24.0542C13.8258 22.2384 13.3823 18.8522 15.0576 16.791" stroke="#212121" stroke-width="3" stroke-miterlimit="10" stroke-linecap="round"/>
<path d="M20.1328 37.6972C23.3356 37.8444 30.3325 37.2064 30.7267 28.52" stroke="#212121" stroke-width="3" stroke-miterlimit="10" stroke-linecap="round"/>
<path d="M23.4341 44.4698C24.3703 43.0466 25.1587 40.6909 24.0747 37.3047" stroke="#212121" stroke-width="3" stroke-miterlimit="10" stroke-linecap="round"/>
<path d="M86.4554 55.9043L85.1743 58.8979L90.9886 62.824" stroke="#212121" stroke-width="3" stroke-miterlimit="10" stroke-linecap="round"/>
<path d="M8.7998 69.9402C8.7998 69.9402 12.1012 70.0874 13.4808 69.204C15.0083 68.2225 19.098 65.4252 19.1966 64.9344C19.2459 64.4437 19.1966 63.8548 16.8314 63.6094" stroke="#212121" stroke-width="3" stroke-miterlimit="10" stroke-linecap="round"/>
</svg>
