<svg width="503" height="156" viewBox="0 0 503 156" fill="none" xmlns="http://www.w3.org/2000/svg">
<g clip-path="url(#clip0_421_389)">
<path d="M11.9785 41.4933C23.1444 40.3547 34.3022 39.114 45.3336 37.1089C56.3604 35.0981 67.2436 32.298 77.688 28.1676C82.9592 26.2601 88.2316 24.3185 93.5575 22.538C98.8788 20.7472 104.234 19.0574 109.612 17.4447C120.367 14.2171 131.204 11.2752 142.053 8.39008C131.229 11.3671 120.417 14.3997 109.696 17.7158C104.335 19.3727 98.9974 21.1067 93.6965 22.9406C88.3911 24.7631 83.1461 26.7455 77.8806 28.7018C67.4715 32.9207 56.5302 35.8387 45.4909 37.9447C34.4379 40.0485 23.2629 41.3867 12.0993 42.6206L11.9785 41.4933Z" fill="#97FFFF" fill-opacity="0.51"/>
<path d="M11.4005 41.9005C10.646 46.4766 13.2457 51.2613 11.421 55.6945C10.9834 56.7572 10.4192 57.7597 10.0146 58.8371C9.57923 59.9973 9.2829 61.204 9.1108 62.43C8.78484 64.7469 8.93073 67.0934 9.52452 69.3559C9.70916 70.0613 10.809 69.7619 10.6232 69.0542C10.0192 66.7543 9.90063 64.3398 10.3269 61.9979C10.5332 60.8626 10.8534 59.7444 11.2956 58.6772C11.7333 57.618 12.3157 56.6222 12.6952 55.538C14.2316 51.1491 11.7664 46.649 12.5003 42.201C12.6177 41.4865 11.5202 41.1803 11.4016 41.8993L11.4005 41.9005Z" fill="#97FFFF" fill-opacity="0.51"/>
<path d="M9.5567 69.0576C8.25286 71.0378 6.51137 72.7083 5.13117 74.6408C3.83416 76.4565 2.72407 78.3981 1.87612 80.4621C1.00765 82.5772 0.445771 84.8137 0.274813 87.0944C0.182495 88.326 0.309004 89.5531 0.252018 90.7836C0.193892 92.0322 -0.0830599 93.2525 0.048008 94.508C0.12323 95.227 1.26409 95.2338 1.18773 94.508C1.06122 93.2979 1.31424 92.1218 1.38376 90.9174C1.45214 89.7289 1.3245 88.5403 1.3963 87.3507C1.53306 85.0881 2.10976 82.8562 2.97481 80.7638C3.82049 78.7202 4.96477 76.8001 6.26177 75.0105C7.60664 73.154 9.28089 71.5447 10.5414 69.6303C10.9449 69.0179 9.95675 68.4486 9.5567 69.0576Z" fill="#97FFFF" fill-opacity="0.51"/>
<path d="M10.0317 69.061C15.3257 68.3057 20.7018 67.488 25.5559 65.2436C30.4031 63.0435 34.75 59.7387 38.0689 55.597C38.4575 55.0764 38.9875 54.5627 39.1163 54.0512C39.2519 53.5261 38.9237 52.9602 38.4986 52.4986C37.5879 51.5913 36.5599 50.6784 35.5102 49.9072C34.448 49.1315 33.2661 48.5361 31.9816 48.2934C30.6983 48.0393 29.3637 48.0495 28.0336 48.1176C25.3633 48.2639 22.6986 48.5576 20.0556 48.9818C18.7324 49.187 17.4137 49.4252 16.1019 49.6985C15.4511 49.8493 14.7787 49.9457 14.1496 50.1544C13.5136 50.3676 13.0235 50.8621 12.5995 51.3724C13.0041 50.8485 13.4794 50.3325 14.1245 50.0898C14.7616 49.8539 15.4226 49.7382 16.0711 49.5636C17.375 49.2437 18.6879 48.9602 20.0077 48.7084C22.6519 48.2265 25.3222 47.8828 28.0063 47.6832C29.3477 47.5845 30.7222 47.5483 32.0774 47.8136C33.4393 48.0609 34.7124 48.6948 35.8134 49.4898C36.9246 50.2996 37.9127 51.1638 38.902 52.1368C39.3579 52.629 39.8468 53.348 39.6588 54.1782C39.4252 54.9777 38.9009 55.4042 38.5122 55.9531C35.1033 60.1334 30.6869 63.496 25.7337 65.6406C23.2628 66.7304 20.6494 67.4608 18.0121 67.9779C15.3679 68.4769 12.6987 68.7775 10.0317 69.061Z" fill="#97FFFF" fill-opacity="0.51"/>
<path d="M26.3459 65.4648C27.0628 67.4517 28.7074 69.0406 30.6051 70.1123C32.5107 71.2067 34.6989 71.7704 36.9134 72.1787C39.1313 72.5858 41.413 72.8523 43.6514 73.3649C45.891 73.8549 48.0895 74.4854 50.2675 75.1591C54.619 76.5257 58.9169 78.0023 63.3264 79.1318C67.7258 80.2886 72.1878 81.2152 76.6885 81.9104C72.1741 81.3093 67.6882 80.4746 63.2558 79.4085C58.8154 78.3686 54.4651 76.9748 50.1034 75.7034C47.9197 75.0774 45.7246 74.4968 43.5044 74.059C41.2911 73.5997 39.0356 73.3842 36.7664 73.0156C34.5097 72.6471 32.2007 72.1129 30.1195 70.9777C28.0623 69.8696 26.1704 68.1628 25.2803 65.8606L26.3471 65.4625L26.3459 65.4648Z" fill="#97FFFF" fill-opacity="0.51"/>
<path d="M52.1855 125.98C54.6724 118.968 53.9931 111.455 55.2719 104.175C56.5564 96.8521 60.2092 90.0498 65.2012 84.5494C70.1715 78.9946 76.6371 74.8302 83.6396 72.2739C90.658 69.7018 98.2052 68.7548 105.648 69.0542C109.373 69.2198 113.077 69.7438 116.715 70.5399C120.351 71.3236 123.95 72.4009 127.347 73.991C134.176 77.1755 139.684 82.6884 143.546 89.0087C147.463 95.3472 149.768 102.524 151.059 109.775C152.312 117.057 152.604 124.437 152.692 131.786C152.418 124.44 151.939 117.075 150.509 109.876C149.114 102.692 146.737 95.6375 142.8 89.4692C138.894 83.3382 133.551 77.9682 126.906 74.9255C123.602 73.3956 120.07 72.3544 116.484 71.5991C112.902 70.8314 109.257 70.338 105.596 70.1872C98.2884 69.8594 90.8791 70.7554 83.994 73.2436C77.1135 75.7046 70.8166 79.7851 65.8451 85.1369C60.8714 90.4626 57.198 97.088 55.8178 104.277C54.3715 111.428 54.8514 119.033 52.1867 125.982L52.1855 125.98Z" fill="#97FFFF" fill-opacity="0.51"/>
<path d="M58.1123 127.442C60.3838 121.037 60.3769 114.178 61.3696 107.524C61.8415 104.186 62.6564 100.88 63.9671 97.7617C65.2903 94.652 67.0295 91.7169 69.1323 89.0643C73.3264 83.7397 78.9658 79.6048 85.2046 76.9453C91.4514 74.2722 98.3388 73.1324 105.125 73.5475C108.516 73.7619 111.891 74.33 115.156 75.2827C118.422 76.2353 121.58 77.5373 124.583 79.1273C130.547 82.3141 136.085 86.677 139.675 92.5074C141.506 95.3801 142.824 98.5408 143.89 101.751C144.962 104.967 145.756 108.266 146.354 111.594C147.566 118.254 148.04 125.005 148.528 131.726L148.228 131.443L267.597 133.01L327.281 133.662L357.124 133.899C367.053 133.925 377.059 134.079 386.916 133.806L386.484 134.306C386.27 127.329 386.802 120.384 387.95 113.519C389.115 106.668 390.988 99.8847 394.033 93.5814C397.004 87.2701 401.434 81.5134 407.239 77.467C410.153 75.4653 413.416 74.0114 416.791 72.9963L419.353 72.3318C420.218 72.1651 421.093 72.0494 421.963 71.9065L423.27 71.7057L424.587 71.6241L427.224 71.4631L427.168 71.4664C431.037 71.1296 434.861 71.353 438.652 71.945C442.439 72.5234 446.154 73.5838 449.69 75.0718C456.778 78.0227 462.983 83.057 467.303 89.3852C471.676 95.7056 474.16 103.093 475.55 110.543C476.923 118.028 477.09 125.663 476.718 133.22L476.165 132.664C478.396 132.547 480.631 132.474 482.857 132.312C485.086 132.179 487.31 131.997 489.529 131.779C491.743 131.543 493.96 131.292 496.137 130.885C497.224 130.683 498.301 130.444 499.347 130.141C499.856 129.969 500.377 129.806 500.83 129.574C501.07 129.473 501.266 129.329 501.435 129.203C501.5 129.139 501.598 129.065 501.604 129.025C501.629 128.999 501.635 128.983 501.626 128.997C501.646 129.013 501.597 128.994 501.677 129.141L501.63 128.735C501.637 128.723 501.645 128.588 501.621 128.46C501.601 128.327 501.569 128.183 501.527 128.036C501.443 127.746 501.328 127.438 501.209 127.161L501.12 126.957L501.238 126.69C501.422 126.275 501.566 125.659 501.637 125.057C501.732 124.455 501.772 123.831 501.829 123.213C501.905 121.968 501.96 120.717 501.977 119.46C502.021 116.951 501.994 114.434 501.932 111.919L501.476 96.8011L501.498 96.9304C501.127 95.7725 500.646 94.6406 500.071 93.5553C499.502 92.4722 498.847 91.4051 498.13 90.4388L498.011 90.2778L498.034 90.0804C498.151 89.1244 498.118 88.0946 498.055 87.0807C497.99 86.0634 497.894 85.0428 497.772 84.0232C497.531 81.9852 497.223 79.9438 496.867 77.9229L496.977 78.1497C496.272 77.4976 495.64 76.7808 494.882 76.1786C494.107 75.5946 493.375 74.9595 492.565 74.4151L490.128 72.7922L487.608 71.2839C484.205 69.34 480.705 67.5504 477.154 65.8663C470.041 62.5218 462.771 59.4733 455.415 56.6971L455.384 56.6846C453.871 56.0665 452.264 55.5891 450.64 55.174C449.015 54.7555 447.374 54.3869 445.727 54.0387C442.431 53.3503 439.118 52.7277 435.794 52.1573C429.15 51.0039 422.477 49.99 415.797 49.0385C412.457 48.5588 409.115 48.0926 405.752 47.7955L395.682 46.7726L375.539 44.7266L365.468 43.7037L360.432 43.1922C358.757 42.9813 357.063 42.9665 355.378 42.7522C352.002 42.4051 348.653 41.7973 345.371 40.9263C343.732 40.4794 342.109 39.9748 340.522 39.3578C339.734 39.0369 338.926 38.7545 338.182 38.2895L336.006 36.9977L318.598 26.665C312.858 23.1345 306.99 19.8309 300.921 16.9094C294.859 13.9778 288.628 11.392 282.265 9.18054C275.902 6.98379 269.415 5.06943 262.807 3.81852C249.534 1.40402 236.024 0.489931 222.534 0.419617C209.039 0.361778 195.543 1.1341 182.114 2.49729C168.691 3.91038 155.305 5.78731 142.066 8.42636L141.998 8.43997L142.023 8.37533L142.819 6.28632C142.953 5.94382 143.143 5.58091 143.491 5.39491C143.831 5.21006 144.213 5.16809 144.577 5.09324C146.052 4.82219 147.551 4.72012 149.047 4.67703C150.544 4.64187 152.04 4.64754 153.538 4.65888C155.027 4.6895 156.553 4.79384 157.946 5.36316C156.551 4.79951 155.026 4.70198 153.538 4.67703C152.041 4.67136 150.545 4.67249 149.05 4.71445C147.555 4.76322 146.059 4.87209 144.59 5.14881C144.226 5.22366 143.846 5.26903 143.524 5.44822C143.197 5.62514 143.016 5.9699 142.884 6.31013L142.097 8.40141L142.053 8.35038C155.286 5.65349 168.666 3.71871 182.091 2.24892C195.513 0.830161 209.016 0 222.53 0C236.034 0.0204138 249.584 0.853977 262.902 3.2526C269.567 4.50465 276.067 6.41447 282.458 8.61009C288.848 10.8193 295.105 13.4051 301.192 16.3378C307.286 19.2604 313.188 22.5709 318.94 26.0979L336.34 36.391L338.515 37.6782C339.199 38.1103 340 38.3916 340.771 38.7034C342.329 39.3068 343.934 39.8024 345.551 40.2413C348.794 41.0964 352.108 41.6941 355.45 42.032C357.115 42.2418 358.807 42.2543 360.484 42.463L365.525 42.9677L375.606 43.9759C402.46 46.7941 429.511 48.5395 455.747 55.8919L455.717 55.8794C463.11 58.6579 470.391 61.6984 477.541 65.0474C481.111 66.7338 484.632 68.5269 488.071 70.4843L490.622 72.0063L493.102 73.6541C493.926 74.2076 494.687 74.8619 495.483 75.4619C496.264 76.0822 496.948 76.8432 497.683 77.5294L497.767 77.6076L497.793 77.7562C498.156 79.8032 498.468 81.8491 498.716 83.9132C498.841 84.9441 498.939 85.9807 499.008 87.024C499.07 88.0697 499.114 89.1142 498.984 90.212L498.888 89.8536C499.665 90.8993 500.325 91.9755 500.924 93.1085C501.522 94.2358 502.028 95.4175 502.422 96.6423L502.442 96.7036L502.444 96.7728L502.923 111.895C502.988 114.42 503.02 116.947 502.979 119.479C502.964 120.744 502.911 122.012 502.834 123.283C502.777 123.921 502.737 124.556 502.638 125.201C502.547 125.845 502.453 126.484 502.106 127.217L502.135 126.746C502.282 127.084 502.402 127.404 502.506 127.758C502.557 127.932 502.6 128.116 502.63 128.314C502.655 128.515 502.688 128.723 502.605 129.036L502.558 128.63C502.686 128.906 502.653 129.033 502.63 129.182C502.604 129.338 502.549 129.446 502.49 129.534C502.372 129.751 502.237 129.843 502.104 129.975C501.835 130.186 501.564 130.366 501.292 130.485C500.747 130.762 500.198 130.933 499.647 131.12C498.545 131.442 497.436 131.689 496.325 131.897C494.102 132.317 491.867 132.572 489.634 132.813C487.399 133.036 485.162 133.223 482.924 133.36C480.687 133.527 478.447 133.602 476.209 133.723L475.628 133.755L475.656 133.166C476.014 125.668 475.836 118.111 474.471 110.739C473.089 103.402 470.638 96.1683 466.371 90.0237C464.243 86.9662 461.713 84.1865 458.822 81.8333C455.934 79.4766 452.692 77.5566 449.252 76.0958C445.81 74.6408 442.184 73.5986 438.477 73.027C434.787 72.4406 430.981 72.2229 427.297 72.5382H427.279L427.24 72.5416L424.668 72.6958L423.383 72.7718L422.112 72.9657C421.266 73.1041 420.415 73.2141 419.574 73.374L417.087 74.0159C413.815 74.9969 410.657 76.3964 407.832 78.33C402.211 82.2393 397.878 87.827 394.951 94.0226C391.953 100.206 390.088 106.903 388.926 113.684C387.778 120.469 387.241 127.396 387.442 134.256L387.456 134.745L387.01 134.757C376.978 135.026 367.08 134.85 357.116 134.812L327.271 134.531L267.585 133.792L148.218 132.052L147.937 132.048L147.918 131.769C147.44 125.047 146.976 118.317 145.782 111.698C145.195 108.388 144.404 105.116 143.358 101.926C142.314 98.737 141.027 95.6182 139.237 92.7807C135.732 87.0308 130.285 82.6952 124.38 79.5061C121.41 77.9184 118.28 76.6119 115.048 75.6547C111.814 74.6964 108.47 74.1191 105.105 73.8912C98.373 73.4511 91.5278 74.5535 85.3072 77.1834C79.0946 79.8009 73.4678 83.8882 69.2702 89.172C67.1663 91.8043 65.4202 94.72 64.089 97.8127C62.7692 100.914 61.9429 104.205 61.4574 107.538C60.4362 114.178 60.4134 121.048 58.1146 127.443L58.1123 127.442Z" fill="#97FFFF" fill-opacity="0.51"/>
<path d="M202.621 43.5494C202.09 44.1097 202.028 43.8091 201.563 44.4885C198.658 48.7436 195.834 53.3027 195.26 58.4152C194.705 63.3576 196.315 68.2581 197.902 72.9737" stroke="#97FFFF" stroke-opacity="0.51" stroke-width="0.75" stroke-miterlimit="10"/>
<path d="M198.12 72.3544L214.246 118.763L197.311 72.63L198.12 72.3544Z" fill="#97FFFF" fill-opacity="0.51"/>
<path d="M146.676 115.581C146.676 115.581 241.998 121.459 386.964 123.176" stroke="#97FFFF" stroke-opacity="0.51" stroke-miterlimit="10"/>
<path d="M380.518 123.096C380.919 116.253 382.215 109.461 384.232 102.888C386.302 96.3338 389.256 90.0078 393.334 84.4031C395.394 81.6212 397.759 79.0502 400.419 76.8126C401.728 75.6626 403.176 74.6941 404.608 73.7029C406.116 72.8319 407.598 71.911 409.207 71.2271C410.76 70.4287 412.438 69.9229 414.072 69.323C415.759 68.8898 417.425 68.3522 419.154 68.1129C422.577 67.4154 426.076 67.3304 429.55 67.3236H429.507C433.381 67.26 437.153 67.8124 440.868 68.6845C444.577 69.5623 448.179 70.8778 451.593 72.5665C458.43 75.9359 464.385 81.0462 468.756 87.252C470.96 90.3481 472.699 93.7334 474.205 97.1958C474.898 98.9547 475.612 100.704 476.132 102.52C476.749 104.307 477.169 106.146 477.618 107.977C479.295 115.333 479.798 122.889 479.695 130.389C479.607 122.888 478.898 115.365 477.057 108.108C476.586 106.298 476.142 104.481 475.505 102.722C474.965 100.931 474.232 99.2122 473.523 97.4861C471.987 94.0895 470.226 90.7802 468.019 87.7748C463.64 81.7527 457.843 76.7593 451.126 73.5044C444.447 70.2371 436.95 68.4554 429.558 68.4384H429.515C426.112 68.4316 422.686 68.4951 419.344 69.1619C417.653 69.3854 416.03 69.9048 414.382 70.3176C412.789 70.8971 411.15 71.3791 409.635 72.1503C408.066 72.8069 406.618 73.6995 405.144 74.5398C403.744 75.5004 402.326 76.4372 401.044 77.5543C398.442 79.7318 396.069 82.1927 394.011 84.9055C389.915 90.3549 386.918 96.5822 384.736 103.051C382.565 109.529 381.094 116.268 380.518 123.096Z" fill="#97FFFF" fill-opacity="0.51"/>
<path d="M191.424 7.01666C192.554 9.79521 193.565 12.6112 194.559 15.4317C195.564 18.2488 196.484 21.0931 197.403 23.9386C198.297 26.7908 199.188 29.6442 199.996 32.5248L201.203 36.8458C201.566 38.2985 201.966 39.74 202.296 41.203C201.719 39.8171 201.215 38.4097 200.671 37.0136L199.161 32.788C198.157 29.9697 197.236 27.1254 196.318 24.2811C195.426 21.4277 194.535 18.5743 193.728 15.6948C192.908 12.8187 192.108 9.93697 191.425 7.0178L191.424 7.01666Z" fill="#97FFFF" fill-opacity="0.51"/>
<path d="M117.742 38.514L205.981 41.3198L194.497 6.66962" stroke="#97FFFF" stroke-opacity="0.51" stroke-miterlimit="10"/>
<path d="M113.255 40.0598L171.615 42.0921L229.968 44.2639C249.419 44.9988 268.872 45.6759 288.319 46.5026L346.663 48.8877L346.726 48.8899L346.781 48.9183C349.764 50.4357 352.806 52.0166 355.302 54.3518C357.807 56.6823 359.474 59.7671 360.502 62.9652C361.546 66.1781 362.039 69.5226 362.375 72.8523C362.704 76.1888 362.815 79.5481 362.69 82.8982C362.321 89.5826 361.824 96.2511 361.163 102.908C360.49 109.561 359.696 116.211 358.401 122.774C359.628 116.199 360.354 109.545 360.958 102.889C361.549 96.2318 361.98 89.5554 362.276 82.8846C362.371 79.5526 362.259 76.2138 361.917 72.8977C361.571 69.585 361.067 66.2723 360.029 63.1183C359.005 59.9746 357.37 56.9851 354.937 54.7385C352.507 52.4794 349.508 50.9279 346.522 49.4241L346.639 49.4547L288.286 47.284C268.833 46.5922 249.387 45.7507 229.938 44.9671L171.593 42.5821L113.253 40.0576L113.255 40.0598Z" fill="#97FFFF" fill-opacity="0.51"/>
<path d="M206.007 40.7527L318.853 46.5355L205.955 41.8857L206.007 40.7527Z" fill="#97FFFF" fill-opacity="0.51"/>
<path d="M103.407 147.103C120.182 147.103 133.78 133.571 133.78 116.879C133.78 100.187 120.182 86.6555 103.407 86.6555C86.6319 86.6555 73.0332 100.187 73.0332 116.879C73.0332 133.571 86.6319 147.103 103.407 147.103Z" stroke="#97FFFF" stroke-opacity="0.51" stroke-width="0.75" stroke-miterlimit="10"/>
<path d="M103.407 121.115C105.758 121.115 107.664 119.219 107.664 116.879C107.664 114.54 105.758 112.643 103.407 112.643C101.056 112.643 99.1499 114.54 99.1499 116.879C99.1499 119.219 101.056 121.115 103.407 121.115Z" stroke="#97FFFF" stroke-opacity="0.51" stroke-width="0.75" stroke-miterlimit="10"/>
<path d="M103.407 155.575C124.884 155.575 142.294 138.25 142.294 116.879C142.294 95.5083 124.884 78.1837 103.407 78.1837C81.93 78.1837 64.5195 95.5083 64.5195 116.879C64.5195 138.25 81.93 155.575 103.407 155.575Z" stroke="#97FFFF" stroke-opacity="0.51" stroke-width="0.75" stroke-miterlimit="10"/>
<path d="M103.407 154.201C124.122 154.201 140.914 137.492 140.914 116.879C140.914 96.2668 124.122 79.5571 103.407 79.5571C82.6924 79.5571 65.8999 96.2668 65.8999 116.879C65.8999 137.492 82.6924 154.201 103.407 154.201Z" stroke="#97FFFF" stroke-opacity="0.51" stroke-width="0.25" stroke-miterlimit="10"/>
<path d="M103.407 119.379C104.794 119.379 105.919 118.26 105.919 116.879C105.919 115.499 104.794 114.38 103.407 114.38C102.02 114.38 100.895 115.499 100.895 116.879C100.895 118.26 102.02 119.379 103.407 119.379Z" stroke="#97FFFF" stroke-opacity="0.51" stroke-width="0.25" stroke-miterlimit="10"/>
<path d="M103.407 152.575C123.219 152.575 139.28 136.593 139.28 116.879C139.28 97.165 123.219 81.1834 103.407 81.1834C83.5949 81.1834 67.5342 97.165 67.5342 116.879C67.5342 136.593 83.5949 152.575 103.407 152.575Z" stroke="#97FFFF" stroke-opacity="0.51" stroke-width="0.5" stroke-miterlimit="10"/>
<path d="M90.3296 89.5928C92.9874 93.0949 95.2726 96.8419 97.3822 100.68C99.4588 104.533 101.367 108.491 102.799 112.644C100.549 108.872 98.4775 105.044 96.3804 101.22C94.3118 97.3806 92.2204 93.5553 90.3296 89.5928Z" fill="#97FFFF" fill-opacity="0.51"/>
<path d="M86.9814 91.4515C89.8205 94.7688 92.3484 98.3072 94.7623 101.919C97.1466 105.551 99.4169 109.263 101.319 113.189C98.6511 109.735 96.2177 106.151 93.8118 102.543C91.4343 98.9173 89.082 95.2746 86.9814 91.4515Z" fill="#97FFFF" fill-opacity="0.51"/>
<path d="M82.4111 95.0387C85.7938 97.807 88.9315 100.818 92.0087 103.887C95.062 106.981 98.0527 110.135 100.797 113.532C97.4121 110.765 94.2745 107.755 91.1995 104.684C88.1485 101.589 85.1567 98.4342 82.4111 95.0387Z" fill="#97FFFF" fill-opacity="0.51"/>
<path d="M79.8589 97.7878C83.5767 100.087 87.0574 102.706 90.4412 105.44C93.8034 108.2 97.0755 111.078 100.049 114.276C96.4817 111.754 93.0956 109.047 89.7198 106.317C86.3667 103.563 83.0273 100.792 79.8589 97.7878Z" fill="#97FFFF" fill-opacity="0.51"/>
<path d="M112.526 88.0413C111.486 92.2885 110.119 96.428 108.671 100.539C107.192 104.638 105.631 108.709 103.743 112.657C104.784 108.4 106.15 104.266 107.598 100.159C109.078 96.0651 110.638 91.9993 112.526 88.0413Z" fill="#97FFFF" fill-opacity="0.51"/>
<path d="M117.388 90.0408C115.565 94.0056 113.506 97.8196 111.429 101.628C109.323 105.419 107.2 109.199 104.819 112.86C106.397 108.792 108.346 104.9 110.43 101.084C112.543 97.2843 114.793 93.5553 117.388 90.0408Z" fill="#97FFFF" fill-opacity="0.51"/>
<path d="M122.563 93.4238C120.403 97.2309 117.507 100.558 114.603 103.778C111.664 106.986 108.69 110.102 105.82 113.39C107.961 109.57 110.852 106.236 113.758 103.017C116.698 99.8099 119.68 96.7002 122.563 93.4238Z" fill="#97FFFF" fill-opacity="0.51"/>
<path d="M124.511 95.1431C122.188 98.8901 119.468 102.359 116.588 105.683C113.681 108.985 110.606 112.148 107.199 114.955C109.963 111.519 112.86 108.246 115.728 104.939C118.622 101.655 121.478 98.3446 124.511 95.1431Z" fill="#97FFFF" fill-opacity="0.51"/>
<path d="M74.0957 124.834C76.0332 123.813 78.1292 123.101 80.2434 122.534C82.3473 121.961 84.4637 121.458 86.5848 120.968C90.8336 120.02 95.1042 119.164 99.4511 118.652C95.3048 120.05 91.081 121.107 86.8355 122.07C84.7099 122.536 82.5786 122.987 80.436 123.372C78.3127 123.781 76.1882 124.204 74.0957 124.834Z" fill="#97FFFF" fill-opacity="0.51"/>
<path d="M73.4131 121.673C77.6221 120.436 81.8903 119.536 86.1757 118.72C90.4667 117.937 94.7737 117.239 99.1503 116.879C94.9481 118.118 90.6764 119.018 86.3877 119.832C82.0932 120.614 77.7828 121.312 73.4131 121.673Z" fill="#97FFFF" fill-opacity="0.51"/>
<path d="M100.395 119.93C97.094 122.794 93.594 125.376 90.0449 127.89C86.4764 130.376 82.8578 132.792 79.0386 134.924C82.3381 132.058 85.8382 129.476 89.3884 126.964C92.958 124.48 96.5777 122.064 100.395 119.93Z" fill="#97FFFF" fill-opacity="0.51"/>
<path d="M99.7474 119.048C95.9293 121.181 92.0645 123.145 88.2191 125.163C84.36 127.153 80.5328 129.186 76.5894 131.085C80.0609 128.422 83.8266 126.187 87.6914 124.159C91.5733 122.163 95.568 120.364 99.7462 119.049L99.7474 119.048Z" fill="#97FFFF" fill-opacity="0.51"/>
<path d="M101.994 120.876C101.321 125.19 100.496 129.436 99.7952 133.706C99.0658 137.97 98.4583 142.269 97.4805 146.529C97.5659 142.165 97.9705 137.829 98.6715 133.52C99.4123 129.219 100.451 124.966 101.994 120.876Z" fill="#97FFFF" fill-opacity="0.51"/>
<path d="M102.584 121.036C102.598 123.214 102.771 125.367 102.757 127.553C102.762 129.763 102.501 131.917 102.375 134.061C102.062 138.376 101.771 142.713 101.019 147.012C100.88 142.656 100.962 138.325 101.24 133.984C101.321 132.901 101.434 131.809 101.539 130.723C101.672 129.639 101.784 128.601 101.869 127.518C102.031 125.371 102.156 123.178 102.584 121.036Z" fill="#97FFFF" fill-opacity="0.51"/>
<path d="M103.66 121.115C104.799 125.369 105.489 129.708 106.044 134.055C106.303 136.232 106.535 138.41 106.693 140.597C106.778 141.689 106.841 142.784 106.897 143.879L106.951 145.524L106.977 146.348C106.989 146.479 106.957 146.649 106.951 146.759C106.945 146.812 106.994 146.882 107.022 146.871C107.057 146.867 107.092 146.695 107.022 146.767C107.036 146.714 107.095 146.753 107.083 146.795C107.083 146.831 107.084 146.869 107.05 146.905C106.94 146.953 106.883 146.84 106.864 146.773C106.839 146.611 106.845 146.506 106.802 146.366L106.648 145.557L106.34 143.94C106.153 142.859 105.97 141.778 105.809 140.696C105.471 138.533 105.192 136.363 104.915 134.194C104.398 129.849 103.915 125.509 103.661 121.116L103.66 121.115Z" fill="#97FFFF" fill-opacity="0.51"/>
<path d="M105.265 120.69C106.32 122.616 107.008 124.726 107.674 126.787C108.369 128.854 108.948 130.97 109.458 133.093C110.455 137.353 111.078 141.675 111.488 146.021C110.237 141.823 109.364 137.564 108.348 133.352C107.863 131.238 107.34 129.14 106.825 127.026C106.298 124.904 105.913 122.779 105.265 120.69Z" fill="#97FFFF" fill-opacity="0.51"/>
<path d="M106.694 119.572C110.641 121.404 114.487 123.342 118.387 125.192C122.273 127.07 126.194 128.853 130.096 130.783C125.875 129.693 121.82 128.076 117.894 126.214C113.984 124.32 110.184 122.173 106.695 119.573L106.694 119.572Z" fill="#97FFFF" fill-opacity="0.51"/>
<path d="M107.591 117.657C111.692 119.025 115.678 120.602 119.662 122.211C123.631 123.849 127.591 125.517 131.434 127.491C127.263 126.351 123.22 124.871 119.229 123.259C115.252 121.614 111.322 119.837 107.591 117.657Z" fill="#97FFFF" fill-opacity="0.51"/>
<path d="M107.426 115.483C111.801 115.197 116.174 115.33 120.531 115.622C124.886 115.946 129.233 116.43 133.524 117.333C129.14 117.323 124.796 117.044 120.451 116.751C116.107 116.424 111.767 116.088 107.426 115.483Z" fill="#97FFFF" fill-opacity="0.51"/>
<path d="M107.664 116.879C109.842 116.835 111.982 117.359 114.083 117.771C116.193 118.203 118.286 118.703 120.375 119.217C124.546 120.276 128.694 121.427 132.755 122.917C128.469 122.306 124.271 121.356 120.096 120.312C118.012 119.775 115.932 119.223 113.87 118.605C111.792 118.018 109.792 117.246 107.664 116.879Z" fill="#97FFFF" fill-opacity="0.51"/>
<path d="M84.3679 101.233C84.3679 101.233 77.867 107.36 79.2016 120.616" stroke="#97FFFF" stroke-opacity="0.51" stroke-miterlimit="10"/>
<path d="M79.3589 123.176C79.3589 123.176 80.2091 127.398 81.0844 128.435" stroke="#97FFFF" stroke-opacity="0.51" stroke-miterlimit="10"/>
<path d="M83.5073 131.786C83.5073 131.786 87.5727 138.399 98.285 141.491" stroke="#97FFFF" stroke-opacity="0.51" stroke-miterlimit="10"/>
<path d="M125.805 129.107C125.805 129.107 120.972 139.086 110.613 141.491" stroke="#97FFFF" stroke-opacity="0.51" stroke-miterlimit="10"/>
<path d="M128.327 121.802C128.327 121.802 127.955 125.115 127.163 125.806" stroke="#97FFFF" stroke-opacity="0.51" stroke-miterlimit="10"/>
<path d="M86.7236 99.185C87.6343 97.9024 89.1296 97.1822 90.4289 96.36" stroke="#97FFFF" stroke-opacity="0.51" stroke-miterlimit="10"/>
<path d="M93.4399 94.6361C98.5835 91.6965 105.25 92.3067 110.872 93.1924" stroke="#97FFFF" stroke-opacity="0.51" stroke-miterlimit="10"/>
<path d="M114.947 94.2403C114.947 94.2403 117.218 94.635 119.993 96.7512" stroke="#97FFFF" stroke-opacity="0.51" stroke-miterlimit="10"/>
<path d="M122.253 97.9896C122.253 97.9896 130.045 106.461 128.956 116.879" stroke="#97FFFF" stroke-opacity="0.51" stroke-miterlimit="10"/>
<path d="M25.2835 48.1278C25.4373 49.6021 24.6475 51.0288 23.6514 52.1006C23.1396 52.6585 22.5037 53.068 21.8859 53.449C21.2614 53.8369 20.6106 54.1828 19.9461 54.4924C18.6058 55.0935 17.2142 55.5573 15.8055 55.9327C14.3934 56.2979 12.9699 56.5916 11.5327 56.8196L15.6802 55.5074C17.0524 55.0617 18.4155 54.5899 19.7114 53.9809C21.0049 53.4025 22.3111 52.7073 23.355 51.8023C24.3512 50.8394 25.2116 49.5817 25.2846 48.1255L25.2835 48.1278Z" fill="#97FFFF" fill-opacity="0.51"/>
<path d="M10.146 60.2627C11.9958 59.4552 13.9435 58.8689 15.9278 58.4549C16.9182 58.2372 17.9257 58.0943 18.9401 58.0013C19.9476 57.9253 21.0725 57.8913 22.0447 58.532C22.5188 58.853 22.8482 59.3962 22.9291 59.9576C23.0157 60.519 22.9086 61.077 22.6943 61.5737C22.2419 62.5762 21.427 63.2692 20.6896 63.9292C19.2091 65.2743 17.8289 66.7384 16.3917 68.1481C17.6511 66.5785 18.9503 65.0406 20.3841 63.6105C21.0885 62.8949 21.8589 62.2371 22.2134 61.3718C22.5826 60.5258 22.4664 59.4801 21.7142 58.9891C20.9882 58.4753 19.9442 58.4413 18.9788 58.5094C17.9839 58.5831 16.9934 58.718 16.003 58.87C14.0256 59.1943 12.0687 59.665 10.1426 60.2615L10.146 60.2627Z" fill="#97FFFF" fill-opacity="0.51"/>
<path d="M17.3817 49.3481C18.8668 52.3035 19.1221 55.7716 18.6605 59.0322C18.4018 60.6641 17.9949 62.2723 17.441 63.8237C16.8802 65.3741 16.1987 66.8711 15.418 68.3148C15.9764 66.7724 16.5531 65.2425 17.017 63.6842C17.4911 62.1294 17.8706 60.5496 18.1032 58.9482C18.3676 57.3537 18.4223 55.7308 18.3243 54.1181C18.2183 52.5043 17.9105 50.9007 17.3817 49.3481Z" fill="#97FFFF" fill-opacity="0.51"/>
<path d="M1.50312 94.8074C1.14297 96.3917 1.29228 98.0804 1.59772 99.752C1.90089 101.429 2.35677 103.116 2.59156 104.871C2.85825 106.638 2.71693 108.41 2.70325 110.117C2.72035 110.96 2.64854 111.877 2.99616 112.498C3.34719 113.123 4.2225 113.426 4.96902 113.906C6.48029 114.832 7.81148 116.045 8.87826 117.439C9.94048 118.796 10.9206 120.304 12.5094 120.969C13.2913 121.297 14.1597 121.419 15.0077 121.628C15.8579 121.828 16.6967 122.073 17.5219 122.354C19.1722 122.917 20.7667 123.636 22.2768 124.498C20.7439 123.678 19.1346 123.003 17.4775 122.488C16.6489 122.233 15.8089 122.012 14.9598 121.835C14.1164 121.652 13.24 121.555 12.4011 121.232C10.6847 120.563 9.6282 119.008 8.54318 117.705C7.465 116.371 6.15205 115.244 4.67497 114.392C3.9843 113.945 3.03833 113.725 2.44339 112.824C2.17214 112.381 2.0935 111.89 2.05133 111.442C2.01372 110.993 1.9989 110.56 1.98978 110.121C1.95787 108.37 2.04563 106.659 1.74474 104.995C1.47463 103.32 0.978852 101.664 0.61756 99.9426C0.257408 98.2301 0.026045 96.3985 0.386197 94.5737L1.50084 94.8085L1.50312 94.8074Z" fill="#97FFFF" fill-opacity="0.51"/>
<path d="M3.99382 115.036C4.49301 115.062 4.96828 115.257 5.40479 115.483C5.84814 115.705 6.24363 115.992 6.63341 116.27C7.4107 116.842 8.09453 117.447 8.96756 117.893C8.46722 117.899 7.97942 117.72 7.53607 117.503C7.08588 117.29 6.68584 117.005 6.29377 116.725C5.5142 116.148 4.83721 115.53 3.99268 115.035L3.99382 115.036Z" fill="#97FFFF" fill-opacity="0.51"/>
<path d="M3.99371 115.036C3.629 115.226 3.39194 115.553 3.25859 115.912C3.10815 116.265 3.03749 116.647 2.99988 117.036L2.81068 119.429C2.67392 121.027 2.5759 122.603 2.71722 124.222C2.42318 123.459 2.28641 122.643 2.22259 121.827C2.15306 121.011 2.18498 120.193 2.24424 119.382C2.32288 118.569 2.39582 117.779 2.5645 116.963C2.65796 116.557 2.78903 116.149 3.00899 115.781C3.24036 115.43 3.57885 115.1 3.99485 115.035L3.99371 115.036Z" fill="#97FFFF" fill-opacity="0.51"/>
<path d="M2.71729 124.224C5.93472 124.308 9.13164 124.483 12.3377 124.517C15.5414 124.617 18.7429 124.575 21.9615 124.629C18.768 125.047 15.5426 125.118 12.3251 125.083C9.10884 124.982 5.89027 124.774 2.71729 124.224Z" fill="#97FFFF" fill-opacity="0.51"/>
<path d="M17.1777 121.899C20.5958 122.028 24.0058 122.289 27.4102 122.602C30.8156 122.913 34.2086 123.337 37.6015 123.758C40.9854 124.246 44.3692 124.736 47.7359 125.334C51.1015 125.933 54.4592 126.581 57.7894 127.361L37.4887 124.6C34.1106 124.11 30.7233 123.7 27.3383 123.249L17.1789 121.899H17.1777Z" fill="#97FFFF" fill-opacity="0.51"/>
<path d="M1.22268 99.6897C1.96236 99.7634 2.53222 100.123 2.99039 100.501C3.45425 100.884 3.84062 101.311 4.19507 101.75C4.90284 102.634 5.48524 103.55 6.10183 104.445C7.32247 106.247 8.53399 108.06 9.69081 109.909C11.9987 113.605 14.0742 117.481 15.4373 121.615C13.8907 117.546 11.6614 113.794 9.20643 110.223C7.97553 108.437 6.69106 106.687 5.39406 104.943C4.73758 104.075 4.11187 103.179 3.42462 102.391C2.75788 101.629 1.90765 100.853 1.15771 100.82L1.22496 99.6885L1.22268 99.6897Z" fill="#97FFFF" fill-opacity="0.51"/>
<path d="M1.08375 93.9387C9.54276 101.07 15.3553 111.112 17.3248 121.832C14.9826 111.187 8.85323 101.483 0.362305 94.8165L1.08375 93.9387Z" fill="#97FFFF" fill-opacity="0.51"/>
<path d="M6.90088 72.9022C7.74541 73.3672 8.65833 73.6485 9.5929 73.7585C10.5229 73.8946 11.4677 73.9036 12.4103 73.8299C14.2943 73.7029 16.16 73.374 17.9972 72.8988C19.8401 72.4452 21.6557 71.8543 23.4941 71.3077C25.3279 70.744 27.1628 70.1758 29.0286 69.6995C27.2745 70.4957 25.4954 71.2181 23.7049 71.9122C21.9167 72.6164 20.0863 73.2356 18.2069 73.7222C16.3275 74.1917 14.3843 74.5104 12.4285 74.4854C11.4541 74.4809 10.4693 74.3958 9.51312 74.169C8.56829 73.915 7.63828 73.5305 6.90202 72.9022H6.90088Z" fill="#97FFFF" fill-opacity="0.51"/>
<path d="M6.74955 99.6432L55.5285 104.296L6.65381 100.773L6.74955 99.6432Z" fill="#97FFFF" fill-opacity="0.51"/>
<path d="M150.957 110.783L179.744 111.278L208.528 111.889L266.092 113.297L323.648 114.966L352.423 115.894L381.196 116.942L352.408 116.449L323.624 115.838L266.061 114.428L208.505 112.757L179.729 111.829L150.957 110.783Z" fill="#97FFFF" fill-opacity="0.51"/>
<path d="M161.861 128.436L369.476 129.944C369.476 129.944 178.369 118.469 161.861 128.436Z" fill="#97FFFF" fill-opacity="0.51"/>
<path d="M33.9468 71.6933C34.0756 71.5867 34.2112 71.4846 34.348 71.3905L34.7241 71.2158C34.9759 71.099 35.2073 71.0559 35.4512 70.9731C35.9253 70.8563 36.3949 70.7656 36.8622 70.6987C37.7956 70.5683 38.7245 70.4787 39.6511 70.4299C41.5054 70.321 43.3529 70.3074 45.1981 70.3358C48.8885 70.4027 52.5687 70.6306 56.2329 71.0004C59.8982 71.3655 63.5476 71.8714 67.1662 72.5507C70.7769 73.2516 74.3738 74.0931 77.8169 75.3848C74.3419 74.1826 70.7324 73.4364 67.1161 72.8297C63.4918 72.2456 59.8424 71.8351 56.1827 71.5651C52.5242 71.2907 48.8555 71.158 45.1947 71.1864C43.3643 71.2045 41.535 71.2669 39.7217 71.42C38.8145 71.4903 37.9141 71.6014 37.032 71.7489C36.5909 71.8237 36.1601 71.919 35.7453 72.0324C35.3692 72.1515 34.9019 72.325 34.7776 72.4702L33.9468 71.6933Z" fill="#97FFFF" fill-opacity="0.51"/>
<path d="M12.1358 41.643C13.7485 41.9855 15.3498 42.3881 16.9466 42.8032L21.7437 44.0257C24.9303 44.8434 28.1819 45.7564 30.972 47.546C28.1056 45.8789 24.8585 45.119 21.6456 44.4397L16.8007 43.4247C15.1868 43.0788 13.5707 42.7453 11.9409 42.472L12.1347 41.6441L12.1358 41.643Z" fill="#97FFFF" fill-opacity="0.51"/>
<path d="M393.595 69.2096L256.769 68.841L188.356 68.6562C176.954 68.6516 165.55 68.5325 154.151 68.6391C142.762 68.7877 131.326 69.3843 120.125 71.5731C131.317 69.3378 142.757 68.6936 154.149 68.4974C165.552 68.3431 176.953 68.4157 188.356 68.3726L256.769 68.274L393.595 68.0755V69.2096Z" fill="#97FFFF" fill-opacity="0.51"/>
<path d="M37.8911 50.9086L58.9156 50.3586L79.9468 50.0739C93.9688 49.9526 107.992 50.0251 122.013 50.1748C136.034 50.3937 150.053 50.6931 164.067 51.1831L185.083 52.0234L206.085 53.1303L185.067 52.4396L164.047 51.8374C150.033 51.4836 136.019 51.1774 122.001 51.0254C107.985 50.8043 93.9677 50.7442 79.9491 50.726L58.9213 50.7725L37.8911 50.9086Z" fill="#97FFFF" fill-opacity="0.51"/>
<path d="M70.168 50.455C78.5894 50.802 87.0073 51.2522 95.4208 51.7751C103.835 52.2865 112.241 52.9386 120.637 53.6973C129.033 54.4629 137.421 55.3373 145.78 56.4657C149.96 57.0259 154.13 57.6712 158.282 58.4356C162.43 59.2147 166.569 60.0903 170.608 61.4036L170.51 61.3854L211.926 63.1739L253.338 65.0724L294.752 66.9164C308.559 67.4778 322.358 68.2694 336.17 68.6437C329.26 68.5801 322.354 68.3136 315.449 68.1061L294.733 67.3735L253.311 65.7075L211.891 63.9882L170.479 62.0931L170.43 62.0908L170.381 62.0749C166.409 60.7651 162.289 59.8725 158.162 59.0798C154.03 58.3007 149.871 57.6383 145.701 57.0611C137.36 55.8998 128.982 54.9891 120.595 54.1884C112.207 53.3934 103.806 52.73 95.4025 52.0858C86.9982 51.4598 78.5882 50.9063 70.1714 50.455H70.168Z" fill="#97FFFF" fill-opacity="0.51"/>
<path d="M233.945 55.3418C247.269 56.2173 260.582 57.2165 273.892 58.2349L313.812 61.4285L353.712 64.883L373.658 66.7032L393.596 68.6437L373.621 67.2589L353.653 65.754L313.728 62.5581L273.823 59.1002C260.524 57.9015 247.229 56.6834 233.945 55.3418Z" fill="#97FFFF" fill-opacity="0.51"/>
<path d="M448.334 74.2949C450.799 73.2561 453.366 72.452 455.98 71.8521C458.592 71.243 461.251 70.8506 463.912 70.5422C466.579 70.2791 469.254 70.1021 471.929 70.0273C474.604 69.9468 477.279 69.9581 479.953 70.0023L471.948 70.4628C469.284 70.6272 466.621 70.7985 463.974 71.1047C461.322 71.3644 458.685 71.7625 456.072 72.2762C453.461 72.7979 450.871 73.4511 448.334 74.2949Z" fill="#97FFFF" fill-opacity="0.51"/>
<path d="M273.062 46.5854L298.744 48.2242L324.415 49.9934L350.085 51.7672C352.222 51.9078 354.367 52.0802 356.498 52.1936L362.928 52.485L375.781 53.1882C392.904 54.3245 410.012 55.7626 427.049 57.8561C435.562 58.9347 444.067 60.1221 452.49 61.7926C456.7 62.625 460.883 63.6117 465.001 64.8229C466.03 65.1257 467.06 65.4263 468.068 65.7982C469.081 66.1521 470.101 66.4866 471.08 66.9278L472.564 67.5493C473.047 67.7795 473.516 68.0415 473.994 68.2865C474.974 68.7322 475.816 69.4092 476.704 70.0035C475.805 69.4228 474.956 68.7616 473.969 68.3318C473.489 68.0959 473.017 67.843 472.531 67.6207L471.04 67.0242C470.056 66.6012 469.033 66.2825 468.016 65.9468C467.006 65.5918 465.973 65.3083 464.941 65.0225C460.814 63.8816 456.625 62.9641 452.409 62.2009C443.992 60.5916 435.49 59.445 426.979 58.4175C409.949 56.4192 392.842 55.0833 375.726 54.0354L362.887 53.2619L356.465 52.9353C354.314 52.8094 352.184 52.6257 350.043 52.4726L324.378 50.5571L298.714 48.637L273.06 46.5866L273.062 46.5854Z" fill="#97FFFF" fill-opacity="0.51"/>
<path d="M355.517 42.412C358.561 44.5611 361.885 46.2826 365.344 47.6458C368.794 49.034 372.367 50.1057 375.992 50.9461C379.613 51.8068 383.294 52.3909 386.977 52.9443C390.662 53.4944 394.362 53.9367 398.07 54.2826C405.48 55.0504 412.931 55.4144 420.384 55.419C424.111 55.4088 427.836 55.3033 431.559 55.1139C433.421 55.03 435.281 54.9234 437.141 54.7895C437.603 54.7442 438.085 54.7691 438.511 54.6285C438.95 54.5128 439.201 53.939 438.844 53.5931C438.261 52.9115 437.203 52.5735 436.941 51.6254C437.229 52.5656 438.274 52.8604 438.899 53.5488C439.057 53.7201 439.162 53.99 439.062 54.2282C438.982 54.4618 438.776 54.6432 438.549 54.7249C438.087 54.8882 437.615 54.8689 437.154 54.9268C435.297 55.1071 433.437 55.2602 431.576 55.3906C427.851 55.6197 424.12 55.7513 420.387 55.7955C412.922 55.8522 405.45 55.5596 398.016 54.8417C394.3 54.4629 390.596 53.9877 386.908 53.4059C383.223 52.8196 379.535 52.2027 375.905 51.3078C372.275 50.4312 368.691 49.3322 365.241 47.8965C361.8 46.4426 358.507 44.6325 355.518 42.4108L355.517 42.412Z" fill="#97FFFF" fill-opacity="0.51"/>
<path d="M459.2 58.5377C458.368 59.3429 457.239 59.724 456.156 59.8612C455.062 60.0041 453.974 59.9497 452.903 59.8726L453.004 59.4416C456.724 61.0123 460.568 62.2995 464.491 63.2896C466.451 63.7886 468.436 64.2547 470.321 65.0214C472.192 65.7778 473.991 66.8972 475.163 68.5643C473.959 66.9199 472.152 65.8436 470.279 65.1257C468.391 64.3988 466.408 63.9701 464.437 63.5073C460.486 62.5876 456.602 61.3662 452.832 59.8555L451.572 59.3509L452.932 59.4246C453.994 59.4824 455.056 59.513 456.083 59.3588C457.104 59.2091 458.097 58.8394 458.802 58.1317L459.2 58.5377Z" fill="#97FFFF" fill-opacity="0.51"/>
<path d="M479.808 70.0295C480.971 70.8121 482.174 71.5141 483.432 72.0913C484.692 72.6629 485.996 73.1245 487.332 73.5101C488.662 73.9116 490.02 74.2393 491.367 74.6317C492.715 75.015 494.063 75.4324 495.347 76.0062C492.635 75.2872 489.883 74.8461 487.17 74.0533C484.466 73.2776 481.842 71.9711 479.809 70.0295H479.808Z" fill="#97FFFF" fill-opacity="0.51"/>
<path d="M462.707 71.0309C465.571 73.0746 468.469 75.0547 471.454 76.8954C472.954 77.8038 474.446 78.7213 475.971 79.5832L480.59 82.1134L489.79 87.2724C492.84 88.9985 495.955 90.6271 499.336 91.6341C495.859 90.9696 492.599 89.4601 489.476 87.8474C486.351 86.2211 483.277 84.5199 480.177 82.8573C477.117 81.1244 474.011 79.4369 471.098 77.442C468.17 75.4766 465.353 73.3502 462.708 71.0309H462.707Z" fill="#97FFFF" fill-opacity="0.51"/>
<path d="M489.061 74.5262C489.878 75.615 490.703 76.689 491.475 77.8163C492.25 78.9379 492.941 80.1423 493.416 81.4477C493.898 82.7553 494.067 84.1661 494.03 85.5304C494.006 86.9015 493.842 88.25 493.65 89.595C493.577 86.8902 493.83 84.1264 492.88 81.6393C491.987 79.133 490.301 76.951 489.061 74.5262Z" fill="#97FFFF" fill-opacity="0.51"/>
<path d="M486.035 73.399C486.863 74.3096 487.498 75.3859 488.015 76.503C488.538 77.6223 488.922 78.8064 489.154 80.0289C489.367 81.2503 489.451 82.4797 489.453 83.7045C489.457 84.9305 489.405 86.1508 489.282 87.3688C489.164 86.1496 489.107 84.9328 489.009 83.7227C488.907 82.5137 488.805 81.307 488.594 80.1276C488.387 78.9526 488.031 77.7981 487.617 76.6674C487.191 75.539 486.675 74.4423 486.034 73.3978L486.035 73.399Z" fill="#97FFFF" fill-opacity="0.51"/>
<path d="M493.895 85.4817C494.091 85.9682 494.595 86.2313 494.95 86.6215L496.071 87.7181C496.816 88.4508 497.584 89.155 498.321 89.9103C497.422 89.3524 496.622 88.6572 495.879 87.9098C495.51 87.5344 495.155 87.1443 494.829 86.7292C494.528 86.3221 494.042 85.9943 493.895 85.4817Z" fill="#97FFFF" fill-opacity="0.51"/>
<path d="M492.389 79.8191C494.166 79.7703 495.909 79.7034 497.684 79.6206C496.83 79.8883 495.934 79.962 495.048 80.0141C494.16 80.0277 493.262 80.0209 492.389 79.8191Z" fill="#97FFFF" fill-opacity="0.51"/>
<path d="M460.412 78.8812C462.603 80.6277 465.141 82.0986 467.913 82.4899C470.737 82.8324 473.509 83.565 476.182 84.5437C478.854 85.5236 481.443 86.7926 483.772 88.4711C484.933 89.3138 486.038 90.229 487.027 91.2916C488.023 92.3577 488.807 93.6211 489.361 94.9604C489.931 96.2987 490.249 97.7129 490.49 99.1158C490.723 100.522 490.891 101.926 490.978 103.352C491.14 106.194 490.993 109.045 490.566 111.846C489.704 117.449 488.085 122.899 485.908 128.099C487.739 122.775 489.19 117.311 489.9 111.756C490.231 108.98 490.395 106.181 490.195 103.403C489.959 100.641 489.597 97.8138 488.58 95.2802C488.07 94.0146 487.353 92.8363 486.432 91.8315C485.508 90.8187 484.436 89.9103 483.322 89.0869C481.072 87.4459 478.559 86.1712 475.961 85.113C473.359 84.0606 470.637 83.3087 467.864 82.8222C465.014 82.3084 462.513 80.7422 460.412 78.8812Z" fill="#97FFFF" fill-opacity="0.51"/>
<path d="M485.909 128.099C488.621 128.009 491.325 128.09 494.027 128.209C496.728 128.351 499.427 128.532 502.117 128.886C499.404 128.977 496.701 128.896 493.998 128.776C491.297 128.633 488.598 128.452 485.909 128.099Z" fill="#97FFFF" fill-opacity="0.51"/>
<path d="M487.083 124.819C488.659 125.368 490.261 125.87 491.853 126.398C493.429 126.951 495.086 127.395 496.493 128.327C495.772 127.897 494.982 127.61 494.184 127.365C493.384 127.124 492.576 126.898 491.768 126.678C490.151 126.239 488.525 125.826 486.908 125.359L487.083 124.819Z" fill="#97FFFF" fill-opacity="0.51"/>
<path d="M490.79 107.502C490.917 106.258 491.27 105.024 491.904 103.894C492.525 102.761 493.487 101.759 494.68 101.128C495.282 100.824 495.937 100.603 496.619 100.519C497.304 100.45 498 100.505 498.625 100.683C499.261 100.837 499.837 101.085 500.408 101.352C500.977 101.624 501.543 101.893 502.083 102.206C500.823 102.066 499.638 101.69 498.457 101.552C497.295 101.394 496.208 101.592 495.209 102.13C494.204 102.643 493.358 103.438 492.647 104.372C491.936 105.313 491.367 106.391 490.789 107.501L490.79 107.502Z" fill="#97FFFF" fill-opacity="0.51"/>
<path d="M501.868 110.033C501.123 109.11 500.449 108.189 499.63 107.459C498.833 106.756 497.796 106.167 496.915 106.498C496.008 106.823 495.374 107.853 494.856 108.852C494.307 109.868 493.812 110.915 493.343 111.974C491.47 116.218 490.133 120.697 488.588 125.088C489.953 120.638 491.1 116.117 492.816 111.755C493.245 110.667 493.703 109.587 494.219 108.53C494.727 107.502 495.29 106.28 496.612 105.698C497.268 105.425 498.038 105.491 498.644 105.728C499.261 105.961 499.795 106.304 500.28 106.701C501.24 107.491 501.987 108.442 502.74 109.299L501.87 110.03L501.868 110.033Z" fill="#97FFFF" fill-opacity="0.51"/>
<path d="M495.496 107.095C495.771 108.909 495.838 110.753 495.784 112.59C495.739 114.428 495.529 116.258 495.267 118.078C494.948 119.895 494.591 121.683 494.012 123.465C493.863 123.942 493.401 124.367 492.933 124.492C492.473 124.644 492.009 124.723 491.541 124.759C490.61 124.81 489.668 124.75 488.786 124.473C489.693 124.625 490.616 124.626 491.511 124.487C492.369 124.339 493.409 124.156 493.596 123.313C494.067 121.589 494.432 119.779 494.706 117.988C495.297 114.396 495.574 110.755 495.495 107.094L495.496 107.095Z" fill="#97FFFF" fill-opacity="0.51"/>
<path d="M495.404 112.944C494.809 114.453 494.026 115.847 493.608 117.36C493.356 118.117 493.12 118.943 492.476 119.585C491.821 120.161 490.932 120.434 490.127 120.245C490.93 120.212 491.679 119.824 492.172 119.291C492.608 118.72 492.835 117.95 493.063 117.193C493.293 116.415 493.634 115.648 494.048 114.955C494.456 114.253 494.906 113.586 495.403 112.945L495.404 112.944Z" fill="#97FFFF" fill-opacity="0.51"/>
<path d="M108.214 30.4982C116.142 26.6876 124.292 23.3602 132.591 20.4626C140.879 17.5354 149.307 15.0087 157.833 12.8788C166.359 10.7456 174.986 9.00928 183.679 7.70733C192.375 6.42807 201.14 5.61038 209.923 5.28943C227.479 4.61238 245.162 6.03454 262.266 10.0844C270.814 12.1008 279.209 14.7614 287.336 18.0764C291.399 19.7333 295.395 21.5524 299.31 23.5292C303.241 25.4798 307.025 27.6993 310.832 29.8711C303.264 25.4458 295.435 21.4481 287.283 18.2057C279.145 14.9372 270.746 12.3254 262.201 10.3589C245.103 6.40766 227.453 5.0853 209.945 5.85535C201.186 6.2228 192.45 7.08585 183.785 8.40821C175.123 9.75325 166.531 11.5315 158.043 13.7045C149.553 15.874 141.166 18.4382 132.923 21.3993C124.669 24.331 116.574 27.6879 108.71 31.52L108.212 30.4993L108.214 30.4982Z" fill="#97FFFF" fill-opacity="0.51"/>
<path d="M101.876 29.3721C106.037 27.2343 110.282 25.3653 114.575 23.5745C118.867 21.7906 123.208 20.1303 127.595 18.5958C136.362 15.5122 145.279 12.8584 154.31 10.6673C163.341 8.47513 172.484 6.74676 181.693 5.50152C190.902 4.27556 200.175 3.44313 209.468 3.30364C211.79 3.19136 214.114 3.26961 216.437 3.27075C218.759 3.28095 221.083 3.28549 223.402 3.43179C225.722 3.552 228.045 3.62459 230.362 3.78563L237.301 4.40485L239.036 4.55909L240.763 4.78931L244.216 5.25089C246.518 5.55596 248.824 5.83948 251.102 6.29539L257.957 7.53383L264.744 9.09549C265.872 9.36767 267.012 9.59222 268.13 9.90183L271.479 10.8511C273.706 11.5032 275.958 12.0736 278.165 12.7915C282.548 14.3146 286.994 15.6653 291.264 17.489C299.952 20.7676 308.217 25.0239 316.371 29.4242C308.194 25.0659 299.912 20.8538 291.211 17.6205C286.935 15.8207 282.486 14.4927 278.1 12.9934C275.892 12.2868 273.64 11.7289 271.412 11.0892L268.062 10.1581C266.944 9.8542 265.805 9.63532 264.676 9.36994L257.892 7.84457L251.042 6.64243C248.766 6.19899 246.462 5.92794 244.163 5.63535L240.714 5.19191L238.989 4.97076L237.257 4.8256L230.327 4.24267C228.015 4.0941 225.697 4.034 223.382 3.92512C221.067 3.7913 218.749 3.79697 216.432 3.79924C214.115 3.80944 211.797 3.74367 209.481 3.86728C200.211 4.05441 190.966 4.93107 181.789 6.20126C172.612 7.48847 163.504 9.25993 154.513 11.4907C145.522 13.7215 136.647 16.4116 127.928 19.5281C123.566 21.0784 119.249 22.7546 114.987 24.5521C110.731 26.352 106.491 28.2482 102.414 30.3678L101.874 29.3698L101.876 29.3721Z" fill="#97FFFF" fill-opacity="0.51"/>
<path d="M207.902 5.47882C207.961 5.73059 207.891 5.93699 207.812 6.06628C207.744 6.17175 207.666 6.25908 207.608 6.30671C207.48 6.42239 207.374 6.48703 207.268 6.55508C207.059 6.6821 206.863 6.77963 206.666 6.87603L205.518 7.41019C204.769 7.76063 204.04 8.12807 203.391 8.57718C202.753 9.02288 202.173 9.56838 201.977 10.2091C201.766 10.935 201.693 11.7561 201.703 12.5499C201.734 14.1604 202.131 15.7719 202.577 17.371L203.953 22.1909L209.454 41.4808L203.408 22.3531L201.895 17.5695C201.4 15.9692 200.936 14.3157 200.851 12.5771C200.819 11.705 200.861 10.8397 201.09 9.95057C201.378 8.96277 202.11 8.30159 202.808 7.77424C203.524 7.24688 204.29 6.8386 205.048 6.45528L206.166 5.89503C206.344 5.80204 206.52 5.70564 206.667 5.61151C206.736 5.56614 206.807 5.51397 206.831 5.48676C206.855 5.46748 206.84 5.47201 206.832 5.49129C206.806 5.52758 206.76 5.63305 206.801 5.77822L207.9 5.47768L207.902 5.47882Z" fill="#97FFFF" fill-opacity="0.51"/>
<path d="M20.9937 44.07L32.5333 43.5676L44.0753 43.1525L67.1581 42.3269C74.8535 42.1148 82.5511 41.8835 90.2477 41.736C94.0954 41.6453 97.9408 41.5115 101.778 41.2529C105.618 41.0204 109.45 40.6439 113.255 40.061C109.466 40.7369 105.637 41.2053 101.799 41.5308C97.9567 41.8279 94.1068 41.9889 90.2579 42.1137L67.1729 42.8917L44.0844 43.5279L32.5402 43.8432L20.9937 44.07Z" fill="#97FFFF" fill-opacity="0.51"/>
<path d="M63.7102 33.507C63.7387 34.1285 63.4595 34.395 63.2806 34.6468C63.0766 34.8895 62.8646 35.0913 62.6469 35.2751C62.2127 35.6459 61.7602 35.9578 61.302 36.2572C60.3845 36.8503 59.4374 37.372 58.4732 37.8574C56.5562 38.8271 54.523 39.6402 52.468 40.2175C50.4314 40.8548 48.3935 41.5058 46.3363 42.0876C44.2791 42.6614 42.2037 43.2183 40.0815 43.4837C42.19 43.1321 44.2324 42.4947 46.26 41.8404C48.2875 41.1769 50.2912 40.4466 52.3028 39.7264C54.3383 39.0664 56.2382 38.1749 58.0846 37.1327C59.0021 36.6133 59.9013 36.0576 60.7458 35.4508C61.1652 35.1469 61.5778 34.8294 61.938 34.4891C62.1192 34.3201 62.2845 34.1432 62.4144 33.9708C62.5546 33.8121 62.5956 33.5955 62.5831 33.6748L63.7102 33.507Z" fill="#97FFFF" fill-opacity="0.51"/>
<path d="M107.975 30.7296C107.295 31.7129 107.623 32.8504 108.28 33.7486C108.974 34.6967 109.88 35.5507 110.776 36.3105C112.76 37.9901 115.162 38.8622 117.741 39.0811C118.472 39.1435 118.467 38.0083 117.741 37.947C115.587 37.7644 113.501 37.0522 111.807 35.6936C111.02 35.063 110.263 34.3315 109.595 33.5773C109.042 32.9524 108.401 32.1087 108.958 31.3023C109.375 30.699 108.387 30.1319 107.975 30.7296Z" fill="#97FFFF" fill-opacity="0.51"/>
<path d="M102.423 30.3667C102.298 30.4381 102.224 30.5016 102.183 30.7149C102.149 30.9201 102.175 31.1946 102.241 31.469C102.374 32.0077 102.63 32.6292 102.92 33.0976C103.621 34.0752 104.485 35.1163 105.267 36.0984C106.064 37.0964 106.965 37.9686 108.058 38.6434C109.135 39.3272 110.297 39.8943 111.506 40.3366C110.266 39.9827 109.059 39.5007 107.915 38.8849C106.76 38.2861 105.722 37.4219 104.843 36.4727C103.952 35.5064 103.096 34.6309 102.219 33.583C101.794 32.9865 101.516 32.4217 101.28 31.7355C101.175 31.3942 101.089 31.0245 101.122 30.5901C101.133 30.1637 101.427 29.6171 101.87 29.3755L102.423 30.3667Z" fill="#97FFFF" fill-opacity="0.51"/>
<path d="M205.931 53.2506C205.928 52.8003 207.721 51.2806 208.541 51.0685C209.921 50.7113 211.355 50.565 212.779 50.6376C213.839 50.6909 214.89 50.8644 215.937 51.0379C217.14 51.2364 218.343 51.436 219.546 51.6345C224.183 52.4011 228.847 53.1746 233.285 54.7181C233.593 54.8247 233.959 55.0175 233.945 55.3418C233.93 55.7002 233.481 55.8442 233.124 55.8907C225.157 56.9319 217.04 56.84 209.097 55.6186C208.492 55.5256 207.875 55.4212 207.337 55.1309C206.611 54.7396 206.08 54.007 205.934 53.1973" stroke="#97FFFF" stroke-opacity="0.51" stroke-width="0.5" stroke-miterlimit="10"/>
<path d="M214.318 56.5349C215.254 57.4036 216.341 58.0784 217.517 58.4788C218.696 58.8712 219.944 59.005 221.188 58.9301C222.435 58.87 223.673 58.6171 224.904 58.3211C226.128 58.0058 227.38 57.7189 228.39 56.9171C227.533 57.9072 226.221 58.3427 225.023 58.7407C223.8 59.1411 222.524 59.4201 221.218 59.496C219.916 59.5618 218.572 59.4008 217.361 58.8836C216.152 58.3767 215.08 57.5635 214.318 56.5349Z" fill="#97FFFF" fill-opacity="0.51"/>
<path d="M216.229 50.5423C218.373 49.3833 220.904 48.7436 223.408 49.0827C224.653 49.2642 225.866 49.6974 226.909 50.396C227.951 51.0855 228.838 52.0325 229.331 53.1575C227.928 51.1423 225.664 49.9741 223.329 49.643C220.966 49.3027 218.552 49.7893 216.23 50.5412L216.229 50.5423Z" fill="#97FFFF" fill-opacity="0.51"/>
<path d="M211.732 50.6239C211.985 51.0277 212.08 51.5108 212.13 51.9803C212.178 52.4703 212.109 52.9137 212.192 53.3719C212.238 53.8289 212.32 54.2848 212.417 54.7373C212.513 55.191 212.616 55.6446 212.744 56.0982C212.279 55.2726 212.032 54.3427 211.914 53.4013C211.856 52.9284 211.912 52.4351 211.923 51.9905C211.907 51.5346 211.899 51.0628 211.732 50.6239Z" fill="#97FFFF" fill-opacity="0.51"/>
<path d="M208.562 53.5397C208.528 53.0884 208.724 52.6268 209.109 52.3728C209.45 52.1482 210.072 52.0132 210.394 52.3421C210.722 52.679 210.876 53.1995 210.831 53.6611C210.807 53.9151 210.678 54.0784 210.453 54.1907C210.236 54.2985 209.981 54.3484 209.739 54.3472C209.232 54.345 208.66 54.0308 208.559 53.5012C208.524 53.322 208.25 53.398 208.284 53.576C208.392 54.1385 208.957 54.5343 209.501 54.6115C210.013 54.684 210.78 54.5434 211.03 54.0274C211.159 53.7575 211.141 53.4127 211.088 53.1258C211.035 52.8434 210.919 52.5655 210.751 52.3319C210.564 52.0711 210.343 51.9236 210.021 51.8828C209.746 51.8488 209.466 51.8908 209.212 51.9985C208.605 52.2548 208.229 52.8876 208.279 53.5397C208.293 53.7201 208.578 53.7223 208.564 53.5397H208.562Z" fill="#97FFFF" fill-opacity="0.51"/>
<path d="M79.9481 44.1834C79.9481 44.1834 77.7085 44.7834 77.0156 46.9291C77.0156 46.9291 75.2878 50.793 75.8918 55.7728C75.8918 55.7728 75.3744 58.0796 80.9829 57.914L99.19 57.9231C99.19 57.9231 102.101 58.092 103.407 53.7983L104.525 46.5004C104.525 46.5004 105.748 42.9802 99.6219 43.3238L79.9481 44.1834Z" stroke="#97FFFF" stroke-opacity="0.51" stroke-width="0.5" stroke-miterlimit="10"/>
<path d="M20.4066 72.8138C20.4431 73.2447 20.3394 73.391 20.2904 73.5781C20.2231 73.7346 20.1616 73.907 20.0886 74.0499C19.9496 74.3505 19.8003 74.634 19.6521 74.9186C19.349 75.4789 19.039 76.0301 18.7221 76.5744L16.7949 79.8168L12.9312 86.2733C11.665 88.436 10.4227 90.6135 9.26358 92.834C8.11702 95.0569 6.99553 97.3115 6.27637 99.7157C6.90435 97.2842 7.94378 94.9786 9.00828 92.7081C10.0853 90.4388 11.2478 88.2103 12.4343 85.9965L16.054 79.3927L17.8502 76.0947L18.7016 74.4367C18.8327 74.1599 18.966 73.8821 19.0789 73.6088C19.1438 73.4693 19.1792 73.3422 19.2327 73.2096C19.276 73.0984 19.2749 72.9442 19.2954 73.0587L20.4078 72.8126L20.4066 72.8138Z" fill="#97FFFF" fill-opacity="0.51"/>
<path d="M5.93121 99.7169C5.45367 100.605 4.7573 101.84 4.36182 102.768" stroke="#97FFFF" stroke-opacity="0.51" stroke-width="0.25" stroke-miterlimit="10"/>
<path d="M4.03255 97.8036C3.1128 98.2856 2.41757 99.1736 2.1748 100.18" stroke="#97FFFF" stroke-opacity="0.51" stroke-width="0.25" stroke-miterlimit="10"/>
<path d="M325.983 38.8679C327.411 39.4236 328.79 40.0813 330.152 40.7697C331.52 41.4502 332.844 42.2078 334.157 42.9858C335.459 43.7819 336.748 44.6007 337.983 45.4989C339.223 46.3892 340.438 47.3146 341.572 48.3444C340.232 47.6027 338.931 46.8179 337.623 46.0467L333.715 43.7139L329.831 41.3368C328.54 40.5327 327.247 39.7343 325.984 38.8679H325.983Z" fill="#97FFFF" fill-opacity="0.51"/>
<path d="M325.305 34.3848C329.092 36.3139 332.649 38.6558 336.132 41.0782C339.577 43.5562 342.957 46.1182 346.199 48.8547C342.671 46.4936 339.278 43.9577 335.803 41.5398C332.365 39.0675 328.852 36.7165 325.306 34.3848H325.305Z" fill="#97FFFF" fill-opacity="0.51"/>
<path d="M338.045 38.1987L336.118 40.6495C336.021 40.7731 335.951 40.8866 335.951 41.051C335.951 41.1905 336.013 41.3561 336.118 41.4525C336.323 41.6396 336.727 41.702 336.923 41.4525L338.851 39.0017C338.948 38.8781 339.017 38.7647 339.017 38.6002C339.017 38.4607 338.955 38.2951 338.851 38.1987C338.645 38.0116 338.241 37.9492 338.045 38.1987Z" fill="#97FFFF" fill-opacity="0.51"/>
<path d="M310.071 30.2532C310.904 29.6567 311.904 29.2938 312.927 29.0885C313.96 28.9229 315.014 28.9275 316.051 29.0341C318.131 29.2893 320.107 29.9232 322.004 30.801C322.942 31.2739 323.857 31.8319 324.602 32.6394C324.972 33.0386 325.288 33.5353 325.462 34.0559C325.638 34.5753 325.721 35.0925 325.805 35.5926C326.148 37.617 326.276 39.6345 326.531 41.6521C325.988 39.6901 325.675 37.6669 325.227 35.7105C324.989 34.7148 324.716 33.8166 324.033 33.1713C323.359 32.5135 322.516 31.9805 321.631 31.5586C319.836 30.7341 317.9 30.0718 315.952 29.7009C314.003 29.3392 311.935 29.38 310.071 30.2532Z" fill="#97FFFF" fill-opacity="0.51"/>
<path d="M318.695 46.5355C320.765 45.9072 322.858 45.533 324.859 44.9172C326.867 44.3195 328.778 43.5086 330.57 42.3099C329.226 44.0258 327.175 45.1032 325.105 45.7303C323.008 46.345 320.85 46.5696 318.693 46.5355H318.695Z" fill="#97FFFF" fill-opacity="0.51"/>
<path d="M318.695 46.5355C319.629 46.3121 320.613 46.5004 321.496 46.8111C322.379 47.1457 323.209 47.6186 323.886 48.2832C322.98 48.0008 322.15 47.6447 321.299 47.343C320.451 47.0255 319.613 46.7567 318.693 46.5355H318.695Z" fill="#97FFFF" fill-opacity="0.51"/>
<path d="M319.381 46.5854C319.039 46.2577 318.633 46.0048 318.226 45.7847C317.831 45.5477 317.349 45.5987 316.876 45.5341C315.931 45.4638 314.982 45.3606 314.026 45.1701C313.07 44.9818 312.12 44.6325 311.284 44.0541C310.439 43.4961 309.768 42.6036 309.449 41.6351C309.123 40.6665 309.069 39.6731 309.041 38.7216C309.039 37.7666 309.046 36.8117 309.138 35.8636C309.293 33.9663 309.593 32.0871 310.073 30.2532C309.952 32.1438 309.818 34.0207 309.805 35.8942C309.807 36.831 309.804 37.7644 309.859 38.6955C309.895 39.6243 309.979 40.5384 310.257 41.3651C310.757 43.0572 312.433 44.0643 314.179 44.5747C315.065 44.8457 316 44.9829 316.929 45.1973C317.374 45.322 317.895 45.3492 318.312 45.6407C318.718 45.9038 319.08 46.2214 319.382 46.5865L319.381 46.5854Z" fill="#97FFFF" fill-opacity="0.51"/>
<path d="M309.43 36.5407C312.244 36.0859 315.127 36.1755 317.948 36.5566C320.765 36.9671 323.56 37.6748 326.137 38.8905C323.351 38.3167 320.608 37.7814 317.828 37.3992C315.051 36.9989 312.265 36.755 309.43 36.5407Z" fill="#97FFFF" fill-opacity="0.51"/>
<path d="M309.43 38.3235C311.193 38.1001 312.98 38.0956 314.757 38.2203C316.536 38.336 318.302 38.632 320.039 39.038C321.772 39.4656 323.479 40.0054 325.113 40.7176C326.749 41.4219 328.333 42.2498 329.784 43.2716C328.161 42.5582 326.535 41.8937 324.876 41.3277C323.216 40.7709 321.542 40.2651 319.839 39.8648C318.142 39.4451 316.42 39.1344 314.686 38.8679C312.951 38.6116 311.2 38.4517 309.43 38.3235Z" fill="#97FFFF" fill-opacity="0.51"/>
<path d="M310.328 42.5061C311.633 42.2657 312.978 42.3462 314.288 42.4664C315.62 42.6376 316.849 42.751 318.165 42.7839C319.472 42.8134 320.775 42.9427 322.023 42.827C323.256 42.7034 324.522 42.3314 325.456 41.3845C324.806 42.5605 323.455 43.2761 322.121 43.5064C320.765 43.7559 319.434 43.6685 318.127 43.6243C316.819 43.5891 315.446 43.3555 314.196 43.072C312.917 42.8293 311.642 42.5583 310.327 42.5061H310.328Z" fill="#97FFFF" fill-opacity="0.51"/>
<path d="M393.59 68.0755C394.001 68.0789 394.431 68.2445 394.733 68.4815C395.034 68.7185 395.241 68.9873 395.424 69.2368C395.781 69.7562 396.048 70.1328 396.486 70.5047C397.31 71.2396 398.338 71.784 399.405 72.2104C400.475 72.6312 401.607 72.9158 402.767 72.9793C403.935 73.0508 405.117 73.0361 406.292 73.1177C405.115 73.1313 403.945 73.2413 402.761 73.2651C401.567 73.2969 400.366 73.0973 399.216 72.7503C398.071 72.3953 396.94 71.9201 395.939 71.1671C395.44 70.82 394.968 70.2734 394.633 69.8481C394.267 69.4047 393.936 69.1699 393.599 69.2096L393.59 68.0755Z" fill="#97FFFF" fill-opacity="0.51"/>
<path d="M366.716 81.9773C370.521 81.738 374.365 81.9546 378.133 82.6328C379.076 82.8165 380.01 82.9515 380.956 83.2736C381.422 83.4414 381.89 83.6841 382.264 84.0561C382.64 84.4235 382.886 84.9112 383.01 85.4045C383.255 86.4059 383.099 87.404 382.898 88.343C382.69 89.2775 382.432 90.2006 382.139 91.1113C380.924 94.7461 379.149 98.1427 377.216 101.419C376.226 103.04 375.071 104.652 373.442 105.73C371.837 106.773 369.732 107.248 367.938 106.514C369.767 107.157 371.787 106.579 373.285 105.5C374.822 104.415 375.906 102.825 376.837 101.198C378.68 97.8966 380.446 94.5227 381.597 90.9355C381.893 90.043 382.154 89.1391 382.367 88.2239C382.571 87.3234 382.712 86.3867 382.506 85.5293C382.322 84.6594 381.653 84.0232 380.785 83.734C379.927 83.4369 378.971 83.2667 378.05 83.0603C374.33 82.3152 370.527 81.9478 366.714 81.9784L366.716 81.9773Z" fill="#97FFFF" fill-opacity="0.51"/>
<path d="M366.715 81.9773C367.436 83.3212 368.713 84.2931 370.116 84.7876C371.523 85.3172 373.054 85.256 374.575 85.256C375.34 85.2537 376.115 85.2741 376.89 85.4068C377.279 85.4783 377.679 85.5815 378.05 85.8003C378.423 86.0102 378.737 86.3765 378.87 86.7984C379.13 87.6614 378.843 88.47 378.591 89.1856L377.784 91.3143C376.666 94.1348 375.593 96.9656 374.437 99.7781C373.837 101.176 373.182 102.569 372.292 103.822C371.4 105.061 370.25 106.167 368.835 106.76C370.21 106.081 371.263 104.931 372.064 103.669C372.886 102.41 373.49 101.021 374.035 99.616L377.253 91.1113L378.083 88.9951C378.342 88.3135 378.57 87.5775 378.378 86.9571C378.199 86.3277 377.513 86.0124 376.802 85.8899C376.076 85.7641 375.324 85.7187 374.567 85.6926C373.064 85.6393 371.467 85.6563 370.015 85.0462C368.59 84.4462 367.352 83.3654 366.715 81.9796V81.9773Z" fill="#97FFFF" fill-opacity="0.51"/>
<path d="M376.932 85.6642C376.802 87.5854 376.419 89.4873 375.899 91.3461C375.382 93.206 374.704 95.016 374.002 96.809C373.24 98.585 372.53 100.352 371.654 102.094C370.739 103.802 369.526 105.398 367.939 106.514C369.371 105.22 370.447 103.609 371.264 101.899C372.032 100.168 372.765 98.3707 373.474 96.597C374.938 93.0563 376.213 89.4442 376.933 85.6642H376.932Z" fill="#97FFFF" fill-opacity="0.51"/>
<path d="M151.743 75.759C153.669 80.0039 155.598 84.2602 157.944 88.2863C160.273 92.3112 163.054 96.1048 166.493 99.2258C169.911 102.337 173.98 104.832 178.478 105.909C180.713 106.475 183.038 106.634 185.363 106.707L192.381 106.829L248.567 107.88L304.747 109.197C314.11 109.446 323.468 109.724 332.824 109.513C342.172 109.328 351.543 108.656 360.733 106.827C351.579 108.834 342.203 109.692 332.84 110.06C323.468 110.393 314.091 110.203 304.729 110.061L248.543 109.013L192.362 107.7L185.335 107.5C182.988 107.399 180.608 107.212 178.304 106.602C173.674 105.435 169.543 102.836 166.115 99.6307C162.685 96.3917 159.96 92.5063 157.702 88.4212C155.429 84.3328 153.586 80.0391 151.744 75.7579L151.743 75.759Z" fill="#97FFFF" fill-opacity="0.51"/>
<path d="M151.743 75.759L164.856 77.1404L178.001 78.1463L191.161 78.8823L204.334 79.3439C221.903 79.8066 239.483 79.7658 257.064 79.5968C274.646 79.5186 292.236 79.3178 309.827 79.6671L323.015 80.0335L336.196 80.6232L349.358 81.5418L362.49 82.7791L349.338 81.8185L336.17 81.1778L322.995 80.7491L309.814 80.5393C292.237 80.3703 274.658 80.5631 257.073 80.7298C239.49 80.8046 221.893 80.8625 204.308 80.2126L191.127 79.5957L177.962 78.6975L164.83 77.416L151.745 75.7602L151.743 75.759Z" fill="#97FFFF" fill-opacity="0.51"/>
<path d="M101.25 141.842C101.25 141.842 104.558 142.248 106.52 141.842" stroke="#97FFFF" stroke-opacity="0.51" stroke-miterlimit="10"/>
<path d="M432.308 145.616C449.083 145.616 462.681 132.085 462.681 115.392C462.681 98.7003 449.083 85.1686 432.308 85.1686C415.533 85.1686 401.934 98.7003 401.934 115.392C401.934 132.085 415.533 145.616 432.308 145.616Z" stroke="#97FFFF" stroke-opacity="0.51" stroke-width="0.75" stroke-miterlimit="10"/>
<path d="M432.308 119.628C434.659 119.628 436.564 117.732 436.564 115.392C436.564 113.053 434.659 111.157 432.308 111.157C429.957 111.157 428.051 113.053 428.051 115.392C428.051 117.732 429.957 119.628 432.308 119.628Z" stroke="#97FFFF" stroke-opacity="0.51" stroke-width="0.75" stroke-miterlimit="10"/>
<path d="M432.308 154.088C453.785 154.088 471.195 136.763 471.195 115.392C471.195 94.0215 453.785 76.6969 432.308 76.6969C410.831 76.6969 393.42 94.0215 393.42 115.392C393.42 136.763 410.831 154.088 432.308 154.088Z" stroke="#97FFFF" stroke-opacity="0.51" stroke-width="0.75" stroke-miterlimit="10"/>
<path d="M432.308 152.715C453.022 152.715 469.815 136.005 469.815 115.392C469.815 94.78 453.022 78.0703 432.308 78.0703C411.593 78.0703 394.801 94.78 394.801 115.392C394.801 136.005 411.593 152.715 432.308 152.715Z" stroke="#97FFFF" stroke-opacity="0.51" stroke-width="0.25" stroke-miterlimit="10"/>
<path d="M432.308 117.892C433.695 117.892 434.82 116.773 434.82 115.392C434.82 114.012 433.695 112.893 432.308 112.893C430.921 112.893 429.796 114.012 429.796 115.392C429.796 116.773 430.921 117.892 432.308 117.892Z" stroke="#97FFFF" stroke-opacity="0.51" stroke-width="0.25" stroke-miterlimit="10"/>
<path d="M432.308 151.088C452.12 151.088 468.181 135.107 468.181 115.392C468.181 95.6781 452.12 79.6966 432.308 79.6966C412.496 79.6966 396.435 95.6781 396.435 115.392C396.435 135.107 412.496 151.088 432.308 151.088Z" stroke="#97FFFF" stroke-opacity="0.51" stroke-width="0.5" stroke-miterlimit="10"/>
<path d="M419.231 88.1049C421.889 91.607 424.174 95.354 426.284 99.1918C428.361 103.045 430.269 107.004 431.701 111.157C429.451 107.385 427.379 103.556 425.282 99.7317C423.214 95.8927 421.122 92.0685 419.231 88.106V88.1049Z" fill="#97FFFF" fill-opacity="0.51"/>
<path d="M415.883 89.9647C418.722 93.282 421.25 96.8204 423.664 100.432C426.049 104.064 428.319 107.776 430.221 111.702C427.553 108.249 425.12 104.664 422.714 101.056C420.336 97.4305 417.985 93.7878 415.884 89.9647H415.883Z" fill="#97FFFF" fill-opacity="0.51"/>
<path d="M411.312 93.5519C414.694 96.3202 417.832 99.3313 420.909 102.4C423.962 105.494 426.953 108.648 429.697 112.046C426.313 109.278 423.175 106.269 420.1 103.197C417.049 100.102 414.057 96.9474 411.312 93.5519Z" fill="#97FFFF" fill-opacity="0.51"/>
<path d="M408.761 96.2999C412.479 98.5987 415.96 101.218 419.344 103.952C422.706 106.712 425.978 109.59 428.951 112.789C425.384 110.266 421.997 107.559 418.622 104.829C415.269 102.075 411.93 99.3041 408.761 96.2999Z" fill="#97FFFF" fill-opacity="0.51"/>
<path d="M441.428 86.5545C440.388 90.8017 439.021 94.9412 437.573 99.0523C436.094 103.151 434.532 107.222 432.645 111.17C433.686 106.913 435.052 102.779 436.5 98.6724C437.98 94.5783 439.54 90.5125 441.428 86.5545Z" fill="#97FFFF" fill-opacity="0.51"/>
<path d="M446.29 88.554C444.467 92.5188 442.408 96.3328 440.331 100.141C438.225 103.932 436.102 107.712 433.721 111.373C435.299 107.305 437.248 103.413 439.332 99.5967C441.445 95.7975 443.693 92.0685 446.288 88.554H446.29Z" fill="#97FFFF" fill-opacity="0.51"/>
<path d="M451.465 91.937C449.304 95.7441 446.408 99.0716 443.504 102.291C440.566 105.5 437.591 108.615 434.722 111.903C436.863 108.083 439.754 104.749 442.66 101.53C445.6 98.3231 448.582 95.2134 451.465 91.937Z" fill="#97FFFF" fill-opacity="0.51"/>
<path d="M453.411 93.6551C451.089 97.4022 448.368 100.871 445.488 104.195C442.582 107.497 439.507 110.66 436.099 113.467C438.863 110.031 441.76 106.758 444.629 103.451C447.523 100.167 450.379 96.8567 453.411 93.6551Z" fill="#97FFFF" fill-opacity="0.51"/>
<path d="M402.998 123.347C404.935 122.326 407.031 121.614 409.145 121.047C411.249 120.474 413.366 119.971 415.487 119.481C419.736 118.533 424.006 117.678 428.353 117.165C424.207 118.563 419.983 119.62 415.737 120.583C413.612 121.049 411.481 121.501 409.338 121.885C407.215 122.295 405.09 122.718 402.998 123.347Z" fill="#97FFFF" fill-opacity="0.51"/>
<path d="M402.315 120.186C406.524 118.949 410.792 118.05 415.078 117.233C419.369 116.451 423.676 115.752 428.052 115.392C423.85 116.632 419.578 117.531 415.29 118.346C410.995 119.127 406.685 119.826 402.315 120.186Z" fill="#97FFFF" fill-opacity="0.51"/>
<path d="M429.297 118.442C425.996 121.306 422.496 123.888 418.947 126.402C415.378 128.888 411.76 131.304 407.94 133.436C411.24 130.57 414.74 127.988 418.29 125.476C421.86 122.992 425.48 120.576 429.297 118.442Z" fill="#97FFFF" fill-opacity="0.51"/>
<path d="M428.648 117.561C424.83 119.694 420.965 121.658 417.12 123.676C413.261 125.666 409.434 127.7 405.49 129.598C408.962 126.935 412.727 124.7 416.592 122.672C420.474 120.676 424.469 118.877 428.647 117.562L428.648 117.561Z" fill="#97FFFF" fill-opacity="0.51"/>
<path d="M430.896 119.388C430.223 123.702 429.398 127.948 428.697 132.218C427.968 136.482 427.36 140.781 426.382 145.041C426.468 140.677 426.872 136.341 427.573 132.032C428.314 127.731 429.352 123.479 430.896 119.388Z" fill="#97FFFF" fill-opacity="0.51"/>
<path d="M431.486 119.549C431.499 121.727 431.673 123.88 431.659 126.067C431.664 128.276 431.403 130.431 431.277 132.574C430.964 136.889 430.673 141.226 429.921 145.525C429.782 141.169 429.864 136.838 430.142 132.497C430.223 131.414 430.336 130.322 430.441 129.236C430.574 128.152 430.686 127.114 430.771 126.031C430.933 123.885 431.058 121.691 431.486 119.549Z" fill="#97FFFF" fill-opacity="0.51"/>
<path d="M432.562 119.628C433.7 123.882 434.391 128.221 434.946 132.568C435.205 134.745 435.436 136.923 435.594 139.11C435.68 140.202 435.742 141.296 435.798 142.392L435.852 144.038L435.878 144.861C435.891 144.992 435.859 145.163 435.852 145.273C435.846 145.325 435.895 145.395 435.924 145.384C435.958 145.38 435.993 145.208 435.924 145.281C435.937 145.227 435.997 145.266 435.984 145.308C435.984 145.344 435.985 145.383 435.951 145.418C435.842 145.467 435.785 145.353 435.765 145.286C435.74 145.124 435.746 145.02 435.704 144.879L435.55 144.07L435.241 142.453C435.054 141.372 434.872 140.292 434.71 139.21C434.373 137.046 434.093 134.876 433.816 132.707C433.299 128.362 432.817 124.022 432.563 119.629L432.562 119.628Z" fill="#97FFFF" fill-opacity="0.51"/>
<path d="M434.167 119.203C435.222 121.129 435.91 123.239 436.576 125.3C437.271 127.367 437.85 129.484 438.36 131.607C439.357 135.866 439.98 140.188 440.389 144.534C439.139 140.336 438.266 136.077 437.249 131.865C436.765 129.751 436.242 127.653 435.727 125.539C435.2 123.417 434.815 121.292 434.167 119.203Z" fill="#97FFFF" fill-opacity="0.51"/>
<path d="M435.595 118.085C439.542 119.917 443.388 121.856 447.288 123.705C451.174 125.583 455.095 127.366 458.997 129.296C454.776 128.207 450.721 126.589 446.795 124.727C442.884 122.833 439.085 120.686 435.596 118.086L435.595 118.085Z" fill="#97FFFF" fill-opacity="0.51"/>
<path d="M436.493 116.17C440.594 117.538 444.58 119.116 448.564 120.724C452.533 122.363 456.493 124.03 460.336 126.004C456.164 124.864 452.122 123.384 448.131 121.772C444.154 120.127 440.223 118.35 436.492 116.17H436.493Z" fill="#97FFFF" fill-opacity="0.51"/>
<path d="M436.328 113.996C440.703 113.711 445.076 113.843 449.433 114.135C453.788 114.459 458.135 114.943 462.426 115.846C458.042 115.836 453.698 115.557 449.352 115.264C445.009 114.939 440.669 114.601 436.328 113.996Z" fill="#97FFFF" fill-opacity="0.51"/>
<path d="M436.565 115.392C438.743 115.348 440.883 115.872 442.984 116.284C445.094 116.716 447.187 117.216 449.276 117.73C453.447 118.789 457.595 119.94 461.656 121.43C457.37 120.819 453.171 119.869 448.997 118.825C446.913 118.288 444.833 117.737 442.77 117.118C440.693 116.531 438.691 115.759 436.563 115.392H436.565Z" fill="#97FFFF" fill-opacity="0.51"/>
<path d="M413.269 99.7463C413.269 99.7463 406.768 105.873 408.102 119.129" stroke="#97FFFF" stroke-opacity="0.51" stroke-miterlimit="10"/>
<path d="M408.26 121.689C408.26 121.689 409.11 125.911 409.985 126.948" stroke="#97FFFF" stroke-opacity="0.51" stroke-miterlimit="10"/>
<path d="M412.409 130.299C412.409 130.299 416.475 136.912 427.187 140.005" stroke="#97FFFF" stroke-opacity="0.51" stroke-miterlimit="10"/>
<path d="M454.706 127.62C454.706 127.62 449.874 137.599 439.515 140.005" stroke="#97FFFF" stroke-opacity="0.51" stroke-miterlimit="10"/>
<path d="M456.26 119.352C456.26 119.352 455.888 122.664 455.096 123.355" stroke="#97FFFF" stroke-opacity="0.51" stroke-miterlimit="10"/>
<path d="M415.625 97.6982C416.536 96.4156 418.031 95.6954 419.331 94.8732" stroke="#97FFFF" stroke-opacity="0.51" stroke-miterlimit="10"/>
<path d="M422.341 93.1493C427.484 90.2097 434.151 90.8198 439.773 91.7056" stroke="#97FFFF" stroke-opacity="0.51" stroke-miterlimit="10"/>
<path d="M443.849 90.8267C443.849 90.8267 446.12 91.2213 448.895 93.3376" stroke="#97FFFF" stroke-opacity="0.51" stroke-miterlimit="10"/>
<path d="M450.187 95.5389C450.187 95.5389 457.978 104.011 456.889 114.428" stroke="#97FFFF" stroke-opacity="0.51" stroke-miterlimit="10"/>
<path d="M430.15 140.355C430.15 140.355 433.459 140.761 435.42 140.355" stroke="#97FFFF" stroke-opacity="0.51" stroke-miterlimit="10"/>
</g>
<defs>
<clipPath id="clip0_421_389">
<rect width="503" height="156" fill="white"/>
</clipPath>
</defs>
</svg>
