<svg width="103" height="102" viewBox="0 0 103 102" fill="none" xmlns="http://www.w3.org/2000/svg">
<path d="M86.4391 98L44.107 98C40.6234 98 37.7731 95.1517 37.7731 91.6703L37.7731 8.32967C37.7731 4.84835 40.6234 2 44.107 2L86.4391 2C89.9228 2 92.7731 4.84835 92.7731 8.32967L92.7731 91.7758C92.7731 95.2571 89.9228 98 86.4391 98Z" stroke="white" stroke-width="3" stroke-miterlimit="10" stroke-linejoin="round"/>
<path d="M60.7731 68C60.7731 70.2091 62.5639 72 64.7731 72C66.9822 72 68.7731 70.2091 68.7731 68C68.7731 65.7909 66.9822 64 64.7731 64C62.5639 64 60.7731 65.7909 60.7731 68Z" fill="#212121"/>
<path d="M97.7731 43.9346V85.8836C97.7731 89.3357 94.9216 92.1602 91.4364 92.1602H8.00343C4.51826 92.1602 1.66675 89.3357 1.66675 85.8836V43.9346C1.66675 40.4825 4.51826 37.658 8.00343 37.658H91.5421C95.0272 37.658 97.7731 40.4825 97.7731 43.9346Z" fill="#202020" stroke="white" stroke-width="3" stroke-miterlimit="10" stroke-linejoin="round"/>
<path d="M10.6437 57.534V47.3867H20.888" stroke="white" stroke-width="3" stroke-miterlimit="10" stroke-linejoin="round"/>
<path d="M64.9281 47.3867H75.0668V57.534" stroke="white" stroke-width="3" stroke-miterlimit="10" stroke-linejoin="round"/>
<path d="M10.6437 72.7026V82.8499H20.888" stroke="white" stroke-width="3" stroke-miterlimit="10" stroke-linejoin="round"/>
<path d="M64.9281 82.8499H75.0668V72.7026" stroke="white" stroke-width="3" stroke-miterlimit="10" stroke-linejoin="round"/>
<path d="M31.8717 71.4475V58.7896L42.9609 65.1708V77.7241L31.8717 71.4475Z" stroke="white" stroke-width="3" stroke-miterlimit="10" stroke-linejoin="round"/>
<path d="M42.8552 77.7241V65.1708L53.9444 58.7896V71.4475L42.8552 77.7241Z" stroke="white" stroke-width="3" stroke-miterlimit="10" stroke-linejoin="round"/>
<path d="M31.8717 58.7895L42.8553 52.4082L53.9445 58.7895L42.9609 65.1707L31.8717 58.7895Z" stroke="white" stroke-width="3" stroke-miterlimit="10" stroke-linejoin="round"/>
<path d="M86.6838 69.5644C89.0169 69.5644 90.9083 67.691 90.9083 65.38C90.9083 63.069 89.0169 61.1956 86.6838 61.1956C84.3507 61.1956 82.4594 63.069 82.4594 65.38C82.4594 67.691 84.3507 69.5644 86.6838 69.5644Z" fill="white"/>
</svg>
