<svg xmlns="http://www.w3.org/2000/svg" width="103" height="102" fill="none" viewBox="0 0 103 102">
    <path stroke="#212121" stroke-linejoin="round" stroke-miterlimit="10" stroke-width="3" d="M86.772 98H44.44c-3.483 0-6.334-2.848-6.334-6.33V8.33c0-3.482 2.85-6.33 6.334-6.33h42.332c3.484 0 6.334 2.848 6.334 6.33v83.446c0 3.481-2.85 6.224-6.334 6.224z"/>
    <path fill="#212121" d="M61.106 68c0 2.21 1.791 4 4 4 2.21 0 4-1.79 4-4s-1.79-4-4-4c-2.209 0-4 1.79-4 4z"/>
    <path fill="#fff" stroke="#212121" stroke-linejoin="round" stroke-miterlimit="10" stroke-width="3" d="M98.106 43.935v41.949c0 3.452-2.851 6.276-6.336 6.276H8.337C4.852 92.16 2 89.336 2 85.884v-41.95c0-3.451 2.852-6.276 6.337-6.276h83.538c3.486 0 6.231 2.825 6.231 6.277z"/>
    <path stroke="#212121" stroke-linejoin="round" stroke-miterlimit="10" stroke-width="3" d="M10.977 57.534V47.387h10.244M65.261 47.387H75.4v10.147M10.977 72.703V82.85h10.244M65.261 82.85H75.4V72.703M32.205 71.447V58.79l11.09 6.382v12.553l-11.09-6.277z"/>
    <path stroke="#212121" stroke-linejoin="round" stroke-miterlimit="10" stroke-width="3" d="M43.188 77.724V65.171l11.09-6.382v12.658l-11.09 6.277z"/>
    <path stroke="#212121" stroke-linejoin="round" stroke-miterlimit="10" stroke-width="3" d="M32.205 58.79l10.984-6.382 11.089 6.381-10.984 6.382-11.089-6.382z"/>
    <path fill="#212121" d="M87.017 69.564c2.333 0 4.225-1.873 4.225-4.184s-1.892-4.184-4.225-4.184c-2.333 0-4.224 1.873-4.224 4.184s1.891 4.184 4.224 4.184z"/>
</svg>
