<svg xmlns="http://www.w3.org/2000/svg" width="100" height="100" fill="none" viewBox="0 0 100 100">
    <path stroke="#F0F0F0" stroke-linecap="round" stroke-linejoin="round" stroke-width="2" d="M65.253 59.728c2.484 0 4.497-1.981 4.497-4.426 0-2.444-2.013-4.426-4.497-4.426s-4.497 1.982-4.497 4.426c0 2.445 2.013 4.426 4.497 4.426zM31.285 59.728c2.484 0 4.497-1.981 4.497-4.426 0-2.444-2.013-4.426-4.497-4.426s-4.497 1.982-4.497 4.426c0 2.445 2.013 4.426 4.497 4.426z"/>
    <path stroke="#F0F0F0" stroke-linecap="round" stroke-linejoin="round" stroke-width="2" d="M26.788 56.188h-3.016c-.265 0-.53-.209-.53-.521v-3.645c0-1.77.424-3.332 2.752-4.426 2.487-1.198 7.143-2.03 10.106-2.03h26.296l2.857-2.552s2.17.677 3.598 1.77l6.243.99v6.04c0 1.926-.053 2.447-1.534 3.228-1.482.781-3.916 1.146-3.916 1.146"/>
    <path stroke="#F0F0F0" stroke-linecap="round" stroke-linejoin="round" stroke-width="2" d="M35.2 45.565s7.46-5.207 16.72-5.207c7.725 0 13.333 2.604 13.333 2.604M51.92 40.358v15.83M48.269 48.273h-3.598M71.496 48.273h3.598M35.782 56.188H60.81"/>
    <path stroke="#F0F0F0" stroke-miterlimit="10" stroke-width="2" d="M19 41.424v-8.62h8.62M80 59.989v8.62h-8.62"/>
</svg>
