<svg xmlns="http://www.w3.org/2000/svg" width="100" height="100" fill="none" viewBox="0 0 100 100">
    <path stroke="#F0F0F0" stroke-linecap="round" stroke-linejoin="round" stroke-width="2" d="M46.754 27.465l4.07 1.995-6.009 4.721 4.07.925-3.149 8.615 9.255-3.65 4.312 5.256 3.634-5.402 10.03 4.721-3.392-11 7.317 2.093"/>
    <path stroke="#F0F0F0" stroke-linecap="round" stroke-linejoin="round" stroke-width="2" d="M78.83 32.332c.92 1.168 1.841 2.53 2.81 4.04 0 0 .775 1.655 2.277.973 1.502-.681 1.6-3.407 3.102-3.699.823-.146 3.585-.146 5.96-.097 2.083.048 3.682 1.752 3.682 3.796v1.168c0 2.093-1.696 3.797-3.78 3.797h-7.655s6.928 6.668 7.17 11.925c.243 5.256 1.454 12.07-5.668 17.376-7.171 5.305-10.563 4.526-13.81 4.526H48.837 26.984c-3.198 0-6.638.779-13.809-4.526-7.171-5.306-5.863-12.168-5.62-17.376.242-5.208 7.122-11.925 7.122-11.925H7.022c-2.084 0-3.78-1.704-3.78-3.797v-1.168c0-2.093 1.648-3.748 3.683-3.796 2.374-.049 5.136-.049 5.96.097 1.502.292 1.598 3.018 3.1 3.7 1.503.68 2.278-.974 2.278-.974C27.275 21.867 35.9 23.62 47.044 23.62"/>
    <path stroke="#F0F0F0" stroke-linecap="round" stroke-linejoin="round" stroke-width="2" d="M10.462 69.031v10.66c0 1.703 1.357 3.066 3.053 3.066h9.496c1.696 0 3.053-1.363 3.053-3.067v-3.504M89.538 69.031v10.66c0 1.703-1.357 3.066-3.052 3.066h-9.497c-1.696 0-3.053-1.363-3.053-3.067v-3.504M28.39 32.332s-3.538 2.58-5.137 7.836c0 0 4.7 3.018 17.395 3.31M15.743 50.827s8.237 5.306 8.722 6.474c.485 1.168.194 4.77-2.471 4.575-4.652-.34-7.51-1.703-9.642-4.77M84.257 50.827s-8.237 5.306-8.722 6.474c-.436 1.217-.194 4.77 2.471 4.575 4.652-.34 7.51-1.703 9.642-4.77M53.537 17.243l-1.211 5.792 5.814 2.483-.581-6.376-4.022-1.899zM73.16 24.496l-.823 4.526 4.167-1.557 1.26-2.97H73.16zM50 69.761s22.58.34 22.482-2.531c-.097-2.872-16.668-2.969-22.482-2.969-5.815 0-22.386.097-22.483 2.969C27.421 70.102 50 69.761 50 69.761z"/>
</svg>
