<svg xmlns="http://www.w3.org/2000/svg" width="306" height="153" fill="none" viewBox="0 0 306 153">
    <path stroke="#D6D6D6" stroke-linecap="round" stroke-linejoin="round" stroke-width="3" d="M155.333 47L137 83.037h16.5L151.667 107 170 70.963h-16.5L155.333 47z"/>
    <path fill="#565656" stroke="#565656" stroke-linecap="round" stroke-linejoin="round" d="M178.222 22L171 35.814h6.5L176.778 45 184 31.186h-6.5l.722-9.186zM115 86l-10 19.82h9L113 119l10-19.82h-9L115 86zM127.444 39L123 47.409h4L126.556 53 131 44.591h-4l.444-5.591zM188.444 96L184 104.409h4l-.444 5.591 4.444-8.409h-4l.444-5.591zM193.222 59L191 63.805h2L192.778 67 195 62.195h-2l.222-3.195zM167.222 124L165 128.805h2l-.222 3.195 2.222-4.805h-2l.222-3.195z"/>
</svg>
