<svg xmlns="http://www.w3.org/2000/svg" width="101" height="100" fill="none" viewBox="0 0 101 100">
    <path stroke="#212121" stroke-miterlimit="10" stroke-width="3" d="M73.335 79.686H27.999c-2.696 0-4.901-2.199-4.901-4.886V6.997c0-2.687 2.205-4.886 4.9-4.886h45.337c2.696 0 4.901 2.199 4.901 4.886V74.8c0 2.687-2.206 4.886-4.901 4.886z"/>
    <path stroke="#212121" stroke-linecap="round" stroke-linejoin="round" stroke-miterlimit="10" stroke-width="3" d="M46.991 44.502V31.797l10.354 6.353-10.354 6.352z"/>
    <path stroke="#212121" stroke-miterlimit="10" stroke-width="3" d="M50.667 51.588c7.444 0 13.478-6.016 13.478-13.438 0-7.422-6.034-13.438-13.478-13.438S37.188 30.728 37.188 38.15c0 7.422 6.035 13.438 13.479 13.438z"/>
    <path fill="#fff" d="M20.647 98.011C28 93.125 33.513 82.13 43.927 67.47c.184-.306.062-.672-.306-1.039-1.715-1.893-4.778-1.771-6.494.061L28 76.022c-4.289-3.055-9.19-15.271-9.19-15.271l3.676-6.903 7.965-11.3c1.286-1.833 0-4.337-2.267-4.337h-4.656l-9.619 9.712-9.19 18.936"/>
    <path stroke="#212121" stroke-miterlimit="10" stroke-width="3" d="M20.647 98.011C28 93.125 33.513 82.13 43.927 67.47c.184-.306.062-.672-.306-1.039-1.715-1.893-4.778-1.771-6.494.061L28 76.022c-4.289-3.055-9.19-15.271-9.19-15.271l3.676-6.903 7.965-11.3c1.286-1.833 0-4.337-2.267-4.337h-4.656l-9.619 9.712-9.19 18.936"/>
    <path fill="#fff" d="M80.687 98.011C73.335 93.125 67.82 82.13 57.406 67.47c-.184-.306-.061-.672.306-1.039 1.716-1.893 4.779-1.771 6.494.062l8.271 8.673c.49.489 1.287.55 1.777.061 3.492-3.42 7.045-11.667 7.964-13.866.123-.366.123-.732-.061-1.099l-3.247-6.414c0-.06-.061-.122-.061-.122L70.272 41.51c-.98-1.405 0-3.36 1.776-3.36h5.33c.368 0 .674.122.92.366l9.067 9.224c.122.122.183.183.245.305l9.128 18.753"/>
    <path stroke="#212121" stroke-miterlimit="10" stroke-width="3" d="M80.687 98.011C73.335 93.125 67.82 82.13 57.406 67.47c-.184-.306-.061-.672.306-1.039 1.716-1.893 4.779-1.771 6.494.062l8.271 8.673c.49.489 1.287.55 1.777.061 3.492-3.42 7.045-11.667 7.964-13.866.123-.366.123-.732-.061-1.099l-3.247-6.414c0-.06-.061-.122-.061-.122L70.272 41.51c-.98-1.405 0-3.36 1.776-3.36h5.33c.368 0 .674.122.92.366l9.067 9.224c.122.122.183.183.245.305l9.128 18.753"/>
</svg>
