<svg width="64" height="58" viewBox="0 0 64 58" fill="none" xmlns="http://www.w3.org/2000/svg">
<path d="M47.0622 13.8023L43.7672 5.30372C43.5091 4.63922 43.1052 4.02874 42.5796 3.50897C42.054 2.98919 41.4176 2.57085 40.7086 2.27907C39.9997 1.9873 39.2328 1.82812 38.4541 1.8111C37.6754 1.79407 36.9009 1.91956 36.1772 2.18002L32.0002 3.68536L27.8232 2.18092C27.0994 1.92047 26.3249 1.79498 25.5462 1.812C24.7675 1.82902 24.0006 1.9882 23.2917 2.27998C22.5827 2.57175 21.9463 2.99009 21.4207 3.50987C20.8951 4.02964 20.4912 4.64012 20.2332 5.30462L16.9332 13.8033C11.0462 14.607 6.18115 16.0111 6.18115 18.3328C6.18115 20.6229 10.9122 22.0207 16.6892 22.829C16.5915 27.2218 17.7756 31.5603 20.1222 35.4079C20.1572 35.4648 20.1932 35.5163 20.2282 35.5733C19.2682 35.8798 18.3162 36.2134 17.3972 36.6013C15.0659 37.5886 12.8792 38.8338 10.8872 40.3081C10.7708 40.3941 10.6773 40.5027 10.6137 40.6258C10.5501 40.7489 10.5181 40.8834 10.5199 41.0193C10.5217 41.1551 10.5574 41.2889 10.6243 41.4106C10.6911 41.5323 10.7875 41.6388 10.9062 41.7222C12.4294 42.7907 13.8747 43.947 15.2332 45.184C15.7165 45.6222 16.1902 46.0742 16.6542 46.5402C15.7422 46.5917 14.8312 46.6622 13.9312 46.7517C13.0752 46.8367 12.2472 46.9356 11.4472 47.0483C11.2618 47.0743 11.0883 47.1469 10.9464 47.2579C10.8046 47.3689 10.7001 47.5136 10.6449 47.6757C10.5897 47.8378 10.5861 48.0107 10.6344 48.1745C10.6827 48.3384 10.7811 48.4867 10.9182 48.6024C16.3943 53.1715 23.5019 55.8124 30.9492 56.0451C31.2232 56.0523 31.4912 56.055 31.7612 56.055C39.4913 56.0031 46.922 53.346 52.6002 48.6033C52.7375 48.4876 52.8361 48.3393 52.8846 48.1753C52.9331 48.0113 52.9296 47.8383 52.8744 47.676C52.8192 47.5137 52.7146 47.3688 52.5725 47.2578C52.4305 47.1468 52.2567 47.0742 52.0712 47.0483C51.2712 46.9362 50.4435 46.8373 49.5882 46.7517C48.6882 46.6613 47.7761 46.5917 46.8642 46.5402C47.3308 46.0766 47.8045 45.6246 48.2852 45.184C49.644 43.9475 51.0893 42.7912 52.6122 41.7222C52.7309 41.6388 52.8273 41.5324 52.8943 41.4108C52.9612 41.2891 52.997 41.1554 52.9989 41.0195C53.0008 40.8836 52.9689 40.7491 52.9054 40.626C52.8419 40.5028 52.7485 40.3942 52.6322 40.3081C50.6401 38.8338 48.4534 37.5886 46.1222 36.6013C45.2022 36.2125 44.2482 35.878 43.2842 35.5715C43.3182 35.5154 43.3532 35.4639 43.3842 35.4079C45.7212 31.5795 46.9079 27.2644 46.8262 22.8923C52.8182 22.0948 57.8142 20.6844 57.8142 18.3319C57.8142 16.0102 52.9492 14.6061 47.0622 13.8023ZM22.1202 5.90314C22.2889 5.46866 22.5531 5.06951 22.8968 4.72967C23.2405 4.38983 23.6566 4.1163 24.1202 3.92554C24.5837 3.73477 25.0852 3.63069 25.5943 3.61956C26.1035 3.60843 26.6099 3.69047 27.0832 3.86076L31.6302 5.499C31.8679 5.58401 32.1324 5.58401 32.3702 5.499L36.9172 3.86076C37.3904 3.69047 37.8968 3.60843 38.406 3.61956C38.9151 3.63069 39.4166 3.73477 39.8802 3.92554C40.3437 4.1163 40.7598 4.38983 41.1035 4.72967C41.4472 5.06951 41.7114 5.46866 41.8802 5.90314L44.8382 13.532C36.3079 12.64 27.6924 12.64 19.1622 13.532L22.1202 5.90314ZM45.2782 38.2386C47.0833 39.0029 48.7966 39.933 50.3912 41.0142C49.1637 41.9241 47.9882 42.8897 46.8692 43.9074C45.8692 44.8196 44.9002 45.7861 43.9922 46.7816C43.8729 46.9123 43.7967 47.0706 43.7722 47.2386C43.7476 47.4066 43.7758 47.5774 43.8535 47.7316C43.9311 47.8858 44.0552 48.0171 44.2114 48.1107C44.3676 48.2042 44.5498 48.2562 44.7372 48.2607C46.2822 48.2977 47.8432 48.3936 49.3732 48.5464L49.5732 48.5663C44.3047 52.355 37.7375 54.3602 31.0072 54.235C24.7972 54.0493 18.8181 52.0618 13.9542 48.5663L14.1542 48.5464C15.6852 48.3936 17.2452 48.2977 18.7912 48.2607C18.9785 48.2562 19.1607 48.2042 19.3169 48.1107C19.4731 48.0171 19.5972 47.8858 19.6748 47.7316C19.7525 47.5774 19.7807 47.4066 19.7562 47.2386C19.7316 47.0706 19.6554 46.9123 19.5362 46.7816C18.6252 45.787 17.6562 44.8169 16.6582 43.9074C15.5392 42.8899 14.364 41.9243 13.1372 41.0142C15.6012 39.3304 18.356 38.026 21.2902 37.1537C22.5113 38.975 24.1237 40.5567 26.0322 41.8053C27.6937 42.81 29.6503 43.341 31.6492 43.3297C34.2291 43.3309 36.7223 42.4879 38.6682 40.9564C40.046 39.8436 41.2458 38.5628 42.2332 37.151C43.2702 37.461 44.2868 37.8241 45.2782 38.2386ZM41.6422 34.5318C40.5505 36.4353 39.0978 38.1508 37.3502 39.6002C35.9678 40.7056 34.2244 41.3731 32.3845 41.5013C30.5445 41.6296 28.7085 41.2116 27.1552 40.3108C24.9242 38.7803 23.1174 36.8019 21.8772 34.5318C19.7391 31.0281 18.6414 27.0834 18.6912 23.0821C19.1232 23.131 19.5565 23.1774 19.9912 23.2214V25.3279C19.9912 26.6468 20.5706 27.9116 21.6021 28.8441C22.6335 29.7766 24.0325 30.3005 25.4912 30.3005C26.9498 30.3005 28.3488 29.7766 29.3802 28.8441C30.4117 27.9116 30.9912 26.6468 30.9912 25.3279V23.7964C31.3352 23.7964 31.6732 23.7964 31.9972 23.7964C32.3212 23.7964 32.6592 23.7964 33.0032 23.7964V25.3261C33.0032 26.6449 33.5826 27.9097 34.6141 28.8423C35.6455 29.7748 37.0445 30.2987 38.5032 30.2987C39.9618 30.2987 41.3608 29.7748 42.3922 28.8423C43.4237 27.9097 44.0032 26.6449 44.0032 25.3261V23.2196C44.2782 23.1924 44.5522 23.1626 44.8252 23.1291C44.8655 27.1136 43.7692 31.0401 41.6422 34.53V34.5318ZM21.9942 23.3986C24.4132 23.5929 26.8212 23.7069 28.9942 23.7602V25.3252C28.9942 26.1645 28.6254 26.9693 27.969 27.5628C27.3126 28.1562 26.4224 28.4896 25.4942 28.4896C24.5659 28.4896 23.6757 28.1562 23.0193 27.5628C22.3629 26.9693 21.9942 26.1645 21.9942 25.3252V23.3986ZM35.0062 23.7602C37.1792 23.706 39.5872 23.592 42.0062 23.3986V25.3261C42.0062 26.1654 41.6374 26.9702 40.981 27.5637C40.3246 28.1571 39.4344 28.4905 38.5062 28.4905C37.5779 28.4905 36.6877 28.1571 36.0313 27.5637C35.3749 26.9702 35.0062 26.1654 35.0062 25.3261V23.7602ZM32.0002 21.9927C16.2882 21.9927 8.18615 19.4268 8.18615 18.3319C8.18615 17.2371 16.2862 14.6712 32.0002 14.6712C47.7142 14.6712 55.8142 17.2371 55.8142 18.3319C55.8142 19.4268 47.7122 21.9927 32.0002 21.9927Z" fill="black"/>
<path d="M43 24.8629C43 25.3972 42.8836 25.9263 42.6575 26.4199C42.4313 26.9135 42.0998 27.362 41.682 27.7398C41.2641 28.1176 40.768 28.4173 40.2221 28.6217C39.6761 28.8262 39.0909 28.9314 38.5 28.9314V24.8629H43Z" fill="#195DFF"/>
<path d="M29 24.8629C29 25.3972 28.8836 25.9263 28.6575 26.4199C28.4313 26.9135 28.0998 27.362 27.682 27.7398C27.2641 28.1176 26.768 28.4173 26.2221 28.6217C25.6761 28.8262 25.0909 28.9314 24.5 28.9314V24.8629H29Z" fill="#195DFF"/>
<path d="M34.8079 34.4702H29.1919C28.9267 34.4702 28.6723 34.5655 28.4848 34.735C28.2973 34.9046 28.1919 35.1345 28.1919 35.3743C28.1919 35.6141 28.2973 35.8441 28.4848 36.0136C28.6723 36.1832 28.9267 36.2784 29.1919 36.2784H34.8079C35.0731 36.2784 35.3275 36.1832 35.515 36.0136C35.7025 35.8441 35.8079 35.6141 35.8079 35.3743C35.8079 35.1345 35.7025 34.9046 35.515 34.735C35.3275 34.5655 35.0731 34.4702 34.8079 34.4702Z" fill="black"/>
</svg>
