<svg xmlns="http://www.w3.org/2000/svg" width="62" height="60" fill="none" viewBox="0 0 62 60">
    <path stroke="#333" stroke-miterlimit="10" stroke-width="2.031" d="M27.5 4c-1.288 0-2.576.386-3.788 1.16-.833.54-1.59 1.158-2.273 2.008C17.576 11.573 15 19.918 15 29.5s2.576 17.927 6.44 22.332c.681.773 1.439 1.468 2.272 2.009 1.212.773 2.5 1.159 3.788 1.159C34.394 55 40 43.564 40 29.5S34.394 4 27.5 4zm.758 44.818h-.152c-1.288-.077-2.5-.695-3.56-1.854-2.955-3.014-5-9.505-5-17.078 0-7.727 2.12-14.372 5.151-17.309 1.06-1.004 2.273-1.623 3.56-1.623h.228c4.697.31 8.485 8.655 8.485 18.932 0 10.432-3.864 18.932-8.712 18.932z"/>
    <path stroke="#333" stroke-miterlimit="10" stroke-width="2.031" d="M17.733 54.614c.756.309 1.511.386 2.267.386h-4.533C8.59 55 3 43.564 3 29.5S8.591 4 15.467 4H20c-.756 0-1.511.155-2.267.386-5.817 2.241-10.2 12.596-10.2 25.114s4.383 22.95 10.2 25.114z"/>
    <path stroke="#333" stroke-miterlimit="10" stroke-width="2.031" d="M24.038 53.84C25.306 54.612 26.653 55 28 55h-7.924c-.793 0-1.585-.155-2.378-.387C11.596 52.446 7 42 7 29.461 7 16.924 11.596 6.554 17.698 4.387c.793-.31 1.585-.387 2.378-.387H28c-1.347 0-2.694.387-3.962 1.16-.872.543-1.664 1.162-2.378 2.013-4.041 4.334-6.736 12.692-6.736 22.288 0 9.597 2.695 17.955 6.736 22.366.793.774 1.585 1.47 2.378 2.012z"/>
    <path stroke="#333" stroke-miterlimit="10" stroke-width="2.031" d="M23.07 14.841c1.686 3.584 2.682 8.492 2.682 13.867 0 5.999-1.303 11.374-3.295 15.114M41.995 46.626l6.13-13.244-.767 10.128 8.428-.78-6.896 4.987 7.662 2.025L48.89 51.3l4.597 5.453-7.662-1.558M41.229 55.196L39.696 51.3l3.831.78"/>
</svg>
