<svg width="100" height="100" viewBox="0 0 100 100" fill="none" xmlns="http://www.w3.org/2000/svg">
<path d="M76.5834 12.5C76.5834 12.5 72 18.5 73 27C74 35.5 79 38.5 79 47" stroke="#212121" stroke-width="2"/>
<path d="M91.0001 18C87.4167 22.5 81.3982 27.8233 85.0093 35.5513C88.0226 42 89.2223 43.2793 87.4167 48.6295" stroke="#212121" stroke-width="2"/>
<path d="M16 76C9.37963 76 3.75931 77.1637 4.36117 69.4357C4.96302 61.7077 6.76857 64.68 6.76857 58.7353C6.76857 52.7907 6.76857 52.1963 10.3797 52.1963C13.9908 52.1963 14.5926 52.1963 14.5926 52.1963C14.5926 52.1963 27.2315 43.2793 29.6389 43.2793C32.0464 43.2793 51.9075 42.6849 55.5186 43.8738C59.1297 45.0627 65.1482 48.6295 68.7593 52.1963L74.7778 50.4129L80.1945 54.5741L89.2223 55.1686L94.6389 60.5187L91.0278 66.4634L94 76.0342H82.9028" stroke="#212121" stroke-width="2"/>
<path d="M32.7084 76.0342H66.2917" stroke="#212121" stroke-width="2"/>
<path d="M74.7778 83.7028C79.0989 83.7028 82.6019 80.2428 82.6019 75.9748C82.6019 71.7067 79.0989 68.2467 74.7778 68.2467C70.4567 68.2467 66.9537 71.7067 66.9537 75.9748C66.9537 80.2428 70.4567 83.7028 74.7778 83.7028Z" stroke="#212121" stroke-width="2"/>
<path d="M24.2223 83.7028C28.5434 83.7028 32.0463 80.2428 32.0463 75.9748C32.0463 71.7067 28.5434 68.2467 24.2223 68.2467C19.9011 68.2467 16.3982 71.7067 16.3982 75.9748C16.3982 80.2428 19.9011 83.7028 24.2223 83.7028Z" stroke="#212121" stroke-width="2"/>
<path d="M21.213 55.1686C24.8241 57.5464 25.426 57.5464 27.8334 57.5464C30.2408 57.5464 58.5278 58.1409 60.9352 58.1409C63.3426 58.1409 64.5463 56.3575 64.5463 56.3575" stroke="#212121" stroke-width="2"/>
<path d="M39.8704 47.4406C39.8704 47.4406 42.8796 54.5147 42.8796 57.8437" stroke="#212121" stroke-width="2"/>
</svg>
