<svg xmlns="http://www.w3.org/2000/svg" width="120" height="121" fill="none" viewBox="0 0 120 121">
    <g stroke-linecap="round" stroke-linejoin="round" stroke-miterlimit="10" stroke-width="3" clip-path="url(#clip0)">
        <path stroke="#D6D6D6" d="M97.481 83.784c-7.76 12.494-21.58 20.823-37.481 20.823h-1.514c-15.144-.568-28.585-8.708-35.968-20.823 4.165-2.082 9.844-3.786 16.848-4.922 6.058-.946 13.251-1.514 20.634-1.514 7.383 0 14.576.568 20.634 1.514 7.004 1.136 12.683 2.84 16.847 4.922zM97.292 37.027c-4.164 2.082-9.843 3.596-16.847 4.732-6.058.947-13.062 1.515-20.634 1.515-7.383 0-14.387-.568-20.634-1.515-6.815-1.136-12.683-2.84-16.848-4.732C30.47 24.533 44.29 16.393 60 16.393c15.712 0 29.53 8.14 37.292 20.634zM15.893 60.5h88.214"/>
        <path stroke="#D6D6D6" d="M60 104.607c12.546 0 22.716-19.747 22.716-44.107S72.546 16.393 60 16.393c-12.546 0-22.716 19.747-22.716 44.107S47.454 104.607 60 104.607zM60 104.607V16.393"/>
        <path stroke="#565656" d="M104.107 60.5c0 8.519-2.461 16.47-6.626 23.284-7.76 12.494-21.58 20.823-37.481 20.823h-1.514c-15.144-.568-28.585-8.708-35.968-20.823-4.164-6.815-6.625-14.766-6.625-23.284 0-8.708 2.46-16.658 6.815-23.473C30.469 24.533 44.288 16.393 60 16.393c15.712 0 29.53 8.14 37.292 20.634 4.354 6.815 6.815 14.765 6.815 23.473z"/>
    </g>
    <defs>
        <clipPath id="clip0">
            <path fill="#fff" d="M0 0H92V92H0z" transform="translate(14 14.5)"/>
        </clipPath>
    </defs>
</svg>
