<svg xmlns="http://www.w3.org/2000/svg" width="100" height="100" fill="none" viewBox="0 0 100 100">
    <path stroke="#fff" stroke-linecap="round" stroke-linejoin="round" stroke-width="2" d="M6.977 78.636c-1.083-3.954-1.624-8.045-1.624-12.272 0-24.819 20.024-45 44.647-45 24.624 0 44.647 20.181 44.647 45 0 4.227-.541 8.318-1.623 12.272"/>
    <path stroke="#fff" stroke-linecap="round" stroke-linejoin="round" stroke-width="2" d="M66.776 61.727C68.941 65 70.16 68.955 70.16 73.046c0 1.909-.27 3.818-.812 5.59M30.518 78.636c-.541-1.772-.812-3.681-.812-5.59.135-11.182 9.2-20.319 20.294-20.319 1.624 0 3.112.137 4.6.546M8.059 54.09l9.47 2.728M50 22.727v6.819M91.941 55.455l-8.117 2.727M50 72.636l18.941-25.363M60.824 47.273L69.483 47l.811 8.455M21.588 33.636l6.765 6.819M79.765 33.636L73 40.455"/>
</svg>
