<svg width="164" height="164" viewBox="0 0 164 164" fill="none" xmlns="http://www.w3.org/2000/svg">
<g clip-path="url(#clip0)">
<path d="M56.7936 78.4296C58.5734 78.4296 60.0162 76.9798 60.0162 75.1913C60.0162 73.4029 58.5734 71.9531 56.7936 71.9531C55.0138 71.9531 53.571 73.4029 53.571 75.1913C53.571 76.9798 55.0138 78.4296 56.7936 78.4296Z" stroke="#212121" stroke-linecap="round" stroke-linejoin="round"/>
<path d="M32.5832 78.4296C34.3629 78.4296 35.8057 76.9798 35.8057 75.1913C35.8057 73.4029 34.3629 71.9531 32.5832 71.9531C30.8034 71.9531 29.3606 73.4029 29.3606 75.1913C29.3606 76.9798 30.8034 78.4296 32.5832 78.4296Z" stroke="#212121" stroke-linecap="round" stroke-linejoin="round"/>
<path d="M29.4432 75.8555H27.2949C27.1296 75.8555 26.8817 75.6895 26.8817 75.4404V72.7833C26.8817 71.5378 27.2122 70.3754 28.8648 69.5451C30.6001 68.7147 33.9879 68.0505 36.0536 68.0505C39.5241 68.0505 54.7279 68.0505 54.7279 68.0505L56.711 66.2238C56.711 66.2238 58.281 66.722 59.2726 67.4692L63.7346 68.2165C63.7346 68.2165 63.7346 71.2057 63.7346 72.6173C63.7346 74.0288 63.7346 74.3609 62.6604 74.9422C61.5862 75.5234 59.851 75.7725 59.851 75.7725" stroke="#212121" stroke-linecap="round" stroke-linejoin="round"/>
<path d="M35.3926 68.1336C35.3926 68.1336 40.6809 64.3971 47.2913 64.3971C52.7448 64.3971 56.7937 66.3068 56.7937 66.3068" stroke="#212121" stroke-linecap="round" stroke-linejoin="round"/>
<path d="M47.2913 64.3971V75.8556" stroke="#212121" stroke-linecap="round" stroke-linejoin="round"/>
<path d="M44.7297 70.1263H42.1682" stroke="#212121" stroke-linecap="round" stroke-linejoin="round"/>
<path d="M61.2557 70.1263H63.8172" stroke="#212121" stroke-linecap="round" stroke-linejoin="round"/>
<path d="M35.8057 75.8556H53.6537" stroke="#212121" stroke-linecap="round" stroke-linejoin="round"/>
<path opacity="0.2" d="M20.4366 65.8087V57.7545H28.4517" stroke="#212121" stroke-miterlimit="10" stroke-linejoin="round"/>
<path opacity="0.2" d="M62.8257 57.7545H70.8408V65.8087" stroke="#212121" stroke-miterlimit="10" stroke-linejoin="round"/>
<path opacity="0.2" d="M20.4366 77.8483V85.9025H28.4517" stroke="#212121" stroke-miterlimit="10" stroke-linejoin="round"/>
<path opacity="0.2" d="M62.8257 85.9025H70.8408V77.8483" stroke="#212121" stroke-miterlimit="10" stroke-linejoin="round"/>
<path d="M88.6061 59.2491V88.3105C88.6061 89.639 88.0277 90.8845 87.2014 91.7978" stroke="#212121" stroke-miterlimit="10" stroke-linejoin="round"/>
<path d="M68.4444 93.2924H18.3709C15.6441 93.2924 13.4131 91.0505 13.4131 88.3104V55.0144C13.4131 52.2743 15.6441 50.0325 18.3709 50.0325H73.4849" stroke="#212121" stroke-miterlimit="10" stroke-linejoin="round"/>
<path opacity="0.2" d="M79.9301 75.4405C81.7555 75.4405 83.2353 73.9535 83.2353 72.1192C83.2353 70.2848 81.7555 68.7979 79.9301 68.7979C78.1047 68.7979 76.6249 70.2848 76.6249 72.1192C76.6249 73.9535 78.1047 75.4405 79.9301 75.4405Z" fill="#212121"/>
<path d="M107.363 56.0108C102.323 50.9458 94.1424 42.0613 82.1611 42.0613C70.1798 42.0613 67.7009 48.2058 72.0803 49.7003C77.7817 51.6101 80.2606 50.3646 85.3837 55.4296C90.4241 60.4946 96.1255 70.0433 95.4645 80.1733C94.8035 90.3032 89.763 92.8772 87.2842 92.213C84.7226 91.5487 77.7817 90.3032 73.9808 90.9675C70.1798 91.6317 64.4784 94.787 67.7009 98.6065C70.9235 102.426 99.9265 109.401 118.27 108.155C123.972 110.065 130.913 127.834 130.913 127.834L149.835 96.1155C149.835 96.1155 125.211 45.9639 110.668 39.6534C103.727 36.4982 103.727 38.9891 103.727 38.9891" stroke="#212121" stroke-linecap="round" stroke-linejoin="round"/>
<path d="M115.626 50.9458C111.825 46.4621 103.645 36.3321 97.9434 36.3321C92.242 36.3321 82.1611 42.0613 82.1611 42.0613" stroke="#212121" stroke-linecap="round" stroke-linejoin="round"/>
</g>
<defs>
<clipPath id="clip0">
<rect width="137" height="92" fill="white" transform="translate(13 36)"/>
</clipPath>
</defs>
</svg>
