<svg width="102" height="100" viewBox="0 0 102 100" fill="none" xmlns="http://www.w3.org/2000/svg">
<path d="M30.3643 66.3187C35.9373 66.3187 40.4551 61.8364 40.4551 56.3073C40.4551 50.7781 35.9373 46.2959 30.3643 46.2959C24.7912 46.2959 20.2734 50.7781 20.2734 56.3073C20.2734 61.8364 24.7912 66.3187 30.3643 66.3187Z" stroke="black" stroke-width="3" stroke-linecap="round" stroke-linejoin="round"/>
<path d="M15.3794 56.7576C8.66901 56.7576 0.344088 53.9044 1.65589 47.397C3.6236 37.6859 4.38041 34.8827 7.60948 33.4311C10.8385 31.9794 40.7578 18.8645 48.0232 15.8111C55.2886 12.7576 69.7185 7.95214 100.495 6.50049" stroke="black" stroke-width="3" stroke-linecap="round" stroke-linejoin="round"/>
<path d="M8.61859 42.2914L14.1685 41.891L23.2503 36.5349C24.5621 35.734 24.0071 33.7317 22.4935 33.7317H18.3562" stroke="black" stroke-width="3" stroke-linecap="round" stroke-linejoin="round"/>
<path d="M38.9415 26.5732L41.5146 28.6256L48.5782 29.3264" stroke="black" stroke-width="3" stroke-linecap="round" stroke-linejoin="round"/>
<path d="M71.8375 19.5653L72.8971 14.4094" stroke="black" stroke-width="3" stroke-linecap="round" stroke-linejoin="round"/>
<path d="M84.2493 27.1239L99.6378 26.0728" stroke="black" stroke-width="3" stroke-linecap="round" stroke-linejoin="round"/>
<path d="M85.7124 56.7578H99.9405" stroke="black" stroke-width="3" stroke-linecap="round" stroke-linejoin="round"/>
<path d="M44.9456 56.7578H49.5873" stroke="black" stroke-width="3" stroke-linecap="round" stroke-linejoin="round"/>
<path d="M53.9263 49.1492C55.1877 55.4063 53.2704 68.321 67.2967 68.321" stroke="black" stroke-width="3" stroke-linecap="round" stroke-linejoin="round"/>
<path d="M60.5863 66.9192C60.7376 70.8737 59.0726 73.2764 55.339 74.678C51.6054 76.0796 38.4874 76.7804 36.6206 84.8896C35.9142 88.0933 35.4097 93.4994 35.4097 93.4994" stroke="black" stroke-width="3" stroke-linecap="round" stroke-linejoin="round"/>
<path d="M59.4258 71.7246C60.1827 72.7758 62.8567 76.48 67.2967 76.48" stroke="black" stroke-width="3" stroke-linecap="round" stroke-linejoin="round"/>
<path d="M80.667 49.1492C79.4056 55.4063 81.3229 68.321 67.2967 68.321" stroke="black" stroke-width="3" stroke-linecap="round" stroke-linejoin="round"/>
<path d="M74.0071 66.9192C73.8557 70.8737 75.5207 73.2764 79.2543 74.678C82.9879 76.0796 96.106 76.7804 97.9728 84.8896C98.6791 88.0933 99.1837 93.4994 99.1837 93.4994" stroke="black" stroke-width="3" stroke-linecap="round" stroke-linejoin="round"/>
<path d="M75.1675 71.7246C74.4107 72.7758 71.7366 76.48 67.2967 76.48" stroke="black" stroke-width="3" stroke-linecap="round" stroke-linejoin="round"/>
<path d="M57.7608 49.7497C57.7608 52.3026 60.9394 55.8066 65.1776 52.5529C64.3703 49.5494 61.8476 47.0466 57.7608 49.7497Z" stroke="black" stroke-width="3" stroke-linecap="round" stroke-linejoin="round"/>
<path d="M76.8325 49.7497C76.8325 52.3026 73.6539 55.8066 69.4157 52.5529C70.223 49.5494 72.7457 47.0466 76.8325 49.7497Z" stroke="black" stroke-width="3" stroke-linecap="round" stroke-linejoin="round"/>
<path d="M64.8244 61.4131C66.5399 61.5633 68.7094 61.8136 70.5257 59.7612" stroke="black" stroke-width="3" stroke-linecap="round" stroke-linejoin="round"/>
<path d="M82.6347 44.1433H51.9587C50.8991 44.1433 50.0919 43.2923 50.0919 42.2912V38.4368C50.0919 37.3856 50.9496 36.5847 51.9587 36.5847H82.6347C83.6943 36.5847 84.5015 37.4357 84.5015 38.4368V42.2912C84.5015 43.2923 83.6438 44.1433 82.6347 44.1433Z" stroke="black" stroke-width="3" stroke-linecap="round" stroke-linejoin="round"/>
<path d="M52.7155 36.5348C52.7155 32.7304 57.0041 23.7202 67.2967 23.7202" stroke="black" stroke-width="3" stroke-linecap="round" stroke-linejoin="round"/>
<path d="M81.8779 36.5348C81.8779 32.7304 77.5893 23.7202 67.2967 23.7202" stroke="black" stroke-width="3" stroke-linecap="round" stroke-linejoin="round"/>
<path d="M60.5745 37.1221V43.5611" stroke="black" stroke-width="3" stroke-linecap="round" stroke-linejoin="round"/>
<path d="M74.4042 37.1221V43.5611" stroke="black" stroke-width="3" stroke-linecap="round" stroke-linejoin="round"/>
</svg>
