<svg width="100" height="100" viewBox="0 0 100 100" fill="none" xmlns="http://www.w3.org/2000/svg">
<path d="M93.5597 47.1539C92.415 47.0659 91.3583 47.0659 90.2136 47.0659C78.9423 47.0659 68.6397 51.3806 60.9788 58.5132C59.0415 60.3624 57.1923 62.2997 55.6073 64.5011C50.2359 71.7217 47.0658 80.6154 47.0658 90.3017C47.0658 91.4464 47.0658 92.5912 47.2419 93.6478C24.9636 91.8867 7.44031 73.3067 7.44031 50.6762C7.44031 26.8128 26.7247 7.52841 50.5881 7.52841C73.3067 7.44035 91.8867 24.9636 93.5597 47.1539Z" stroke="black" stroke-width="3" stroke-miterlimit="10" stroke-linejoin="round"/>
<path d="M47.9463 83.4333C30.9514 82.2005 17.5668 67.9353 17.5668 50.5881C17.5668 32.3604 32.3603 17.5669 50.588 17.5669C67.9352 17.5669 82.2004 30.9515 83.5212 47.9464" stroke="black" stroke-width="3" stroke-miterlimit="10" stroke-linejoin="round"/>
<path d="M93.5597 47.1539L47.2419 93.5598C47.1539 92.415 47.0658 91.3584 47.0658 90.2136C47.0658 80.5274 50.2358 71.6337 55.6073 64.413C57.1923 62.2996 59.0415 60.2743 60.9788 58.4252C68.6397 51.3806 78.9423 46.9778 90.2136 46.9778C91.3583 47.0658 92.503 47.0658 93.5597 47.1539Z" stroke="black" stroke-width="3" stroke-miterlimit="10" stroke-linejoin="round"/>
<path d="M36.499 62.0354C39.1407 68.1994 45.4807 70.1366 51.9969 70.1366" stroke="black" stroke-width="3" stroke-miterlimit="10" stroke-linejoin="round"/>
<path d="M30.7753 39.8451C34.7379 38.2601 35.6184 37.0273 39.1407 39.8451" stroke="black" stroke-width="3" stroke-miterlimit="10" stroke-linejoin="round"/>
<path d="M64.2368 39.8451C68.1994 38.2601 69.08 37.0273 72.6022 39.8451" stroke="black" stroke-width="3" stroke-miterlimit="10" stroke-linejoin="round"/>
</svg>
