<svg width="160" height="160" viewBox="0 0 160 160" fill="none" xmlns="http://www.w3.org/2000/svg">
<path d="M75.1108 68.8H16.0894C12.5357 68.8 9.6001 65.6251 9.6001 61.7818V11.8183C9.6001 7.97498 12.5357 4.80005 16.0894 4.80005H75.1108C78.6645 4.80005 81.6001 7.97498 81.6001 11.8183V61.7818C81.4456 65.6251 78.6645 68.8 75.1108 68.8Z" stroke="white" stroke-width="4" stroke-miterlimit="10"/>
<path d="M46 42C48.7614 42 51 39.7614 51 37C51 34.2386 48.7614 32 46 32C43.2386 32 41 34.2386 41 37C41 39.7614 43.2386 42 46 42Z" stroke="#5C5C5C" stroke-width="4" stroke-linecap="round" stroke-linejoin="round"/>
<path d="M118.5 129C121.538 129 124 126.538 124 123.5C124 120.462 121.538 118 118.5 118C115.462 118 113 120.462 113 123.5C113 126.538 115.462 129 118.5 129Z" stroke="#5C5C5C" stroke-width="4" stroke-linecap="round" stroke-linejoin="round"/>
<path d="M59.4545 42.4545C58.9091 43.5455 59.2727 44.8182 60 45.7273L60.1818 45.9091C61.6364 47.3636 61.6364 49.5455 60.1818 51C58.7273 52.4545 56.5455 52.4545 55.0909 51L54.9091 50.8182C54 49.9091 52.7273 49.7273 51.6364 50.2727C50.5455 50.8182 49.8182 51.9091 49.8182 53V53.3636C49.8182 55.3636 48.1818 57 46.1818 57C44.1818 57 42.5455 55.3636 42.5455 53.3636V53.1818C42.5455 51.9091 41.8182 50.8182 40.5455 50.4545C39.4545 49.9091 38.1818 50.2727 37.2727 51L37.0909 51.1818C35.6364 52.6364 33.4545 52.6364 32 51.1818C30.5455 49.7273 30.5455 47.5455 32 46.0909L32.1818 45.9091C33.0909 45 33.2727 43.7273 32.7273 42.6364C32.1818 41.5455 31.0909 40.8182 30 40.8182H29.6364C27.6364 40.8182 26 39.1818 26 37.1818C26 35.1818 27.6364 33.5455 29.6364 33.5455H29.8182C31.0909 33.5455 32.1818 32.8182 32.5455 31.5455C33.0909 30.4545 32.7273 29.1818 32 28.2727L31.8182 28.0909C30.3636 26.6364 30.3636 24.4545 31.8182 23C33.2727 21.5455 35.4545 21.5455 36.9091 23L37.0909 23.1818C38 23.9091 39.2727 24.2727 40.3636 23.7273H40.5455C41.6364 23.1818 42.3636 22.0909 42.3636 21V20.6364C42.3636 18.6364 44 17 46 17C48 17 49.6364 18.6364 49.6364 20.6364V20.8182C49.6364 22.0909 50.3636 23.1818 51.4545 23.5455C52.5455 24.0909 53.8182 23.7273 54.7273 23L54.9091 22.8182C56.3636 21.3636 58.5455 21.3636 60 22.8182C61.4545 24.2727 61.4545 26.4545 60 27.9091L59.8182 28.0909C58.9091 29 58.7273 30.2727 59.2727 31.3636V31.5455C59.8182 32.6364 60.9091 33.3636 62 33.3636H62.3636C64.3636 33.3636 66 35 66 37C66 39 64.3636 40.6364 62.3636 40.6364H62.1818C61.0909 40.6364 60 41.3636 59.4545 42.4545Z" stroke="#5C5C5C" stroke-width="4" stroke-linecap="round" stroke-linejoin="round"/>
<path d="M132.291 129.091C131.732 130.209 132.105 131.514 132.85 132.445L133.036 132.632C134.527 134.123 134.527 136.359 133.036 137.85C131.545 139.341 129.309 139.341 127.818 137.85L127.632 137.664C126.7 136.732 125.395 136.545 124.277 137.105C123.159 137.664 122.414 138.782 122.414 139.9V140.273C122.414 142.323 120.736 144 118.686 144C116.636 144 114.959 142.323 114.959 140.273V140.086C114.959 138.782 114.214 137.664 112.909 137.291C111.791 136.732 110.486 137.105 109.555 137.85L109.368 138.036C107.877 139.527 105.641 139.527 104.15 138.036C102.659 136.545 102.659 134.309 104.15 132.818L104.336 132.632C105.268 131.7 105.455 130.395 104.895 129.277C104.336 128.159 103.218 127.414 102.1 127.414H101.727C99.6773 127.414 98 125.736 98 123.686C98 121.636 99.6773 119.959 101.727 119.959H101.914C103.218 119.959 104.336 119.214 104.709 117.909C105.268 116.791 104.895 115.486 104.15 114.555L103.964 114.368C102.473 112.877 102.473 110.641 103.964 109.15C105.455 107.659 107.691 107.659 109.182 109.15L109.368 109.336C110.3 110.082 111.605 110.455 112.723 109.895H112.909C114.027 109.336 114.773 108.218 114.773 107.1V106.727C114.773 104.677 116.45 103 118.5 103C120.55 103 122.227 104.677 122.227 106.727V106.914C122.227 108.218 122.973 109.336 124.091 109.709C125.209 110.268 126.514 109.895 127.445 109.15L127.632 108.964C129.123 107.473 131.359 107.473 132.85 108.964C134.341 110.455 134.341 112.691 132.85 114.182L132.664 114.368C131.732 115.3 131.545 116.605 132.105 117.723V117.909C132.664 119.027 133.782 119.773 134.9 119.773H135.273C137.323 119.773 139 121.45 139 123.5C139 125.55 137.323 127.227 135.273 127.227H135.086C133.968 127.227 132.85 127.973 132.291 129.091Z" stroke="#5C5C5C" stroke-width="4" stroke-linecap="round" stroke-linejoin="round"/>
<path d="M147.271 155.2H88.2493C84.6956 155.2 81.76 152.025 81.76 148.182V98.2183C81.76 94.375 84.6956 91.2001 88.2493 91.2001H147.271C150.824 91.2001 153.76 94.375 153.76 98.2183V148.182C153.76 152.025 150.824 155.2 147.271 155.2Z" stroke="white" stroke-width="4" stroke-miterlimit="10"/>
<path d="M140.8 72.6401V31.8401H103.68" stroke="#5C5C5C" stroke-width="4" stroke-miterlimit="10" stroke-linejoin="round"/>
<path d="M117.76 18.0801L103.68 32.1601L116.8 45.4401" stroke="#5C5C5C" stroke-width="4" stroke-miterlimit="10"/>
<path d="M19.8401 89.76V130.56H56.9601" stroke="#5C5C5C" stroke-width="4" stroke-miterlimit="10" stroke-linejoin="round"/>
<path d="M42.8801 144.16L56.9601 130.08L43.6801 116.96" stroke="#5C5C5C" stroke-width="4" stroke-miterlimit="10"/>
</svg>
