<svg xmlns="http://www.w3.org/2000/svg" width="100" height="100" fill="none" viewBox="0 0 100 100">
    <g clip-path="url(#clip0)">
        <path stroke="#212121" stroke-miterlimit="10" stroke-width="3" d="M1.456 34.911V15.459h19.418M79.126 15.459h19.418V34.91M1.456 64.09V83.54h19.418M79.126 83.541h19.418V64.09"/>
        <path fill="#C5C5C5" d="M18.428 43.43h-5.336V40.9h13.662v2.53h-5.336V57h-2.99V43.43zm27.705 11.063V57H34.058V40.9H45.81v2.507h-8.763v4.186h7.774v2.461h-7.774v4.439h9.085zM64.49 57l-4.37-6.118L55.794 57h-3.404l5.98-8.211-5.657-7.889h3.38l4.117 5.727 4.072-5.727h3.242l-5.635 7.774L67.94 57h-3.45zm13.433-13.57h-5.336V40.9H86.25v2.53h-5.336V57h-2.99V43.43z"/>
        <path stroke="#000" d="M9 51.5L91 51.5"/>
        <mask id="7i03rv4uha" width="75" height="17" x="12" y="35" maskUnits="userSpaceOnUse">
            <path fill="#C4C4C4" d="M12 35H87V52H12z"/>
        </mask>
        <g mask="url(#7i03rv4uha)">
            <path fill="#000" d="M18.428 43.43h-5.336V40.9h13.662v2.53h-5.336V57h-2.99V43.43zm27.705 11.063V57H34.058V40.9H45.81v2.507h-8.763v4.186h7.774v2.461h-7.774v4.439h9.085zM64.49 57l-4.37-6.118L55.794 57h-3.404l5.98-8.211-5.657-7.889h3.38l4.117 5.727 4.072-5.727h3.242l-5.635 7.774L67.94 57h-3.45zm13.433-13.57h-5.336V40.9H86.25v2.53h-5.336V57h-2.99V43.43z"/>
        </g>
    </g>
    <defs>
        <clipPath id="clip0">
            <path fill="#fff" d="M0 0H100V71H0z" transform="translate(0 14)"/>
        </clipPath>
    </defs>
</svg>
