<svg xmlns="http://www.w3.org/2000/svg" width="60" height="60" fill="none" viewBox="0 0 60 60">
    <path stroke="#212121" stroke-linejoin="round" stroke-miterlimit="10" stroke-width="2" d="M15.011 17.488H12.8c-1.172 0-2.148-.988-2.148-2.173V5.832c0-1.186.976-2.173 2.148-2.173h2.147c1.237 0 2.213.987 2.213 2.173v9.417c0 1.251-.976 2.239-2.148 2.239zM48.202 17.488h-2.148c-1.171 0-2.148-.988-2.148-2.173V5.832c-.065-1.186.912-2.173 2.083-2.173h2.148c1.236 0 2.212.987 2.212 2.173v9.417c0 1.251-.976 2.239-2.147 2.239zM48.202 56.342h-2.148c-1.172 0-2.148-.988-2.148-2.174v-9.483c0-1.185.976-2.173 2.148-2.173h2.148c1.17 0 2.147.988 2.147 2.173v9.417c0 1.252-.976 2.24-2.147 2.24zM15.011 56.342H12.8c-1.172 0-2.148-.988-2.148-2.174v-9.483c0-1.185.976-2.173 2.148-2.173h2.147c1.171 0 2.148.988 2.148 2.173v9.417c.065 1.252-.911 2.24-2.083 2.24zM34.08 10.902h9.762M17.159 10.902H27.57M43.841 49.756H17.16"/>
    <path stroke="#212121" stroke-linejoin="round" stroke-miterlimit="10" stroke-width="1.859" d="M30.825 35.268v5.927M30.825 14.195v7.902M30.825 14.195c1.797 0 3.254-1.474 3.254-3.293 0-1.818-1.457-3.292-3.254-3.292s-3.254 1.474-3.254 3.292c0 1.819 1.457 3.293 3.254 3.293zM33.428 49.756h-5.206v-5.268l2.603-3.951 2.604 3.95v5.27zM32.387 35.268h-3.059c-.585 0-1.04-.46-1.04-1.053V23.15c0-.593.455-1.053 1.04-1.053h3.06c.585 0 1.04.46 1.04 1.053V34.15c0 .658-.455 1.12-1.04 1.12zM37.334 27.695l3.904-1.646 2.603 1.185 3.254-.856M37.334 30.659l3.253 1.317 3.254-.395M24.122 26.049l-4.36-1.317-3.254 1.317-3.905-1.976-1.952 1.317M24.317 30.659l-4.88 1.317-2.278 3.292M24.968 22.756l-1.952-2.634"/>
</svg>
