<svg width="100" height="100" viewBox="0 0 100 100" fill="none" xmlns="http://www.w3.org/2000/svg">
<path d="M61.8325 3.97209C58.0371 3.00465 54.0929 2.48372 49.9999 2.48372C23.7674 2.48372 2.48364 23.7674 2.48364 50C2.48364 61.4605 6.53946 71.9907 13.3116 80.214" stroke="#212121" stroke-width="2" stroke-miterlimit="10"/>
<path d="M38.2418 96.0279C42 96.9953 45.9441 97.4791 49.9627 97.4791C76.1953 97.4791 97.4418 76.2326 97.4418 50C97.4418 38.3535 93.2372 27.6744 86.279 19.414" stroke="#212121" stroke-width="2" stroke-miterlimit="10"/>
<path d="M51.5256 64.5116H80.9582C80.9582 64.5116 82.7814 57.814 81.6651 49.2558C81.6651 49.2558 80.1768 45.1628 75.7117 42.186C75.7117 42.186 71.6186 29.1628 69.7582 28.0465C67.8977 26.9302 53.014 26.4465 51.5256 26.4465C50.0372 26.4465 35.1535 26.9302 33.2931 28.0465C31.4326 29.1628 27.3396 42.186 27.3396 42.186C22.8744 45.1628 21.3861 49.2558 21.3861 49.2558C20.2698 57.814 22.0931 64.5116 22.0931 64.5116H51.5256Z" stroke="#212121" stroke-width="2" stroke-miterlimit="10"/>
<path d="M27.3395 42.186C27.7116 38.4651 26.5953 36.6419 23.2465 36.9767C19.5256 37.3488 18.5209 40.8837 19.1535 41.814C19.8977 42.9302 27.3395 42.186 27.3395 42.186Z" stroke="#212121" stroke-width="2" stroke-miterlimit="10"/>
<path d="M75.7116 42.186C75.3395 38.4651 76.4558 36.6419 79.8046 36.9767C83.5255 37.3488 84.5302 40.8837 83.8976 41.814C83.1534 42.9302 75.7116 42.186 75.7116 42.186Z" stroke="#212121" stroke-width="2" stroke-miterlimit="10"/>
<path d="M23.2094 64.5116V67.3767C23.2094 68.4558 24.1024 69.3488 25.1814 69.3488H32.2512C33.3303 69.3488 34.2233 68.4558 34.2233 67.3767V64.5116" stroke="#212121" stroke-width="2" stroke-miterlimit="10"/>
<path d="M79.8791 64.5116V67.3767C79.8791 68.4558 78.986 69.3488 77.907 69.3488H70.8372C69.7581 69.3488 68.8651 68.4558 68.8651 67.3767V64.5116" stroke="#212121" stroke-width="2" stroke-miterlimit="10"/>
<path d="M21.386 50C25.479 50 35.8976 50.7442 37.386 53.7209C38.8744 56.6977 36.6418 57.0698 35.1535 57.0698C33.6651 57.0698 21.0139 57.0698 21.0139 57.0698" stroke="#212121" stroke-width="2" stroke-miterlimit="10"/>
<path d="M81.6652 50C77.5721 50 67.1535 50.7442 65.6652 53.7209C64.1768 56.6977 66.4093 57.0698 67.8977 57.0698C69.3861 57.0698 82.0373 57.0698 82.0373 57.0698" stroke="#212121" stroke-width="2" stroke-miterlimit="10"/>
<path d="M51.5255 58.707C54.8744 58.707 61.9441 58.186 61.9441 55.9535C61.9441 53.6837 53.7581 53.8698 51.5255 53.8698C49.293 53.8698 41.1069 53.6837 41.1069 55.9535C41.1069 58.186 48.1767 58.707 51.5255 58.707Z" stroke="#212121" stroke-width="2" stroke-miterlimit="10"/>
<path d="M27.3396 42.186C41.4791 39.2093 59.7117 39.5814 75.7117 42.186" stroke="#212121" stroke-width="2" stroke-miterlimit="10"/>
<path d="M85.6465 25.3674L86.1674 19.1163L92.3814 19.6" stroke="#212121" stroke-width="2" stroke-miterlimit="10"/>
<path d="M7.35815 79.9907L13.6093 80.4L14.0186 74.1861" stroke="#212121" stroke-width="2" stroke-miterlimit="10"/>
</svg>
