<svg width="409" height="317" viewBox="0 0 409 317" fill="none" xmlns="http://www.w3.org/2000/svg">
<rect y="0.5" width="409" height="316" fill="black"/>
<path d="M307.607 137.318C307.607 137.318 335.569 145.319 329.874 116.506C324.179 87.6937 311.771 76.4082 305.077 75.1292C298.383 73.8502 287.32 81.8475 291.302 109.018L307.607 137.318Z" fill="black"/>
<path d="M273.317 113.386L266.778 121.971C261.645 114.369 257.167 105.206 252.819 100.706C244.352 91.9428 245.78 98.9497 248.692 103.234C248.692 103.234 245.132 101.577 244.34 105.587C244.34 105.587 241.649 105.883 242.482 109.208C242.482 109.208 239.403 111.221 244.72 115.067C244.72 115.067 248.313 127.172 254.719 139.568C258.971 147.915 270.77 148.212 275.435 140.089L285.048 123.35L273.317 113.386Z" fill="white"/>
<path d="M265.236 146.21C265.13 146.21 265.024 146.209 264.917 146.206C260.45 146.094 256.57 143.647 254.539 139.659C248.441 127.86 244.845 116.176 244.546 115.191C242.423 113.643 241.363 112.188 241.394 110.864C241.416 109.915 241.999 109.335 242.255 109.126C241.999 108.011 242.107 107.106 242.573 106.433C243.077 105.708 243.849 105.478 244.171 105.411C244.434 104.213 244.975 103.398 245.78 102.988C246.646 102.547 247.605 102.684 248.201 102.847C246.814 100.616 245.561 97.3599 246.616 96.4993C247.513 95.7657 249.65 97.1347 252.965 100.565C255.701 103.398 258.487 108.064 261.437 113.003C263.154 115.879 264.928 118.85 266.788 121.624L273.157 113.263C273.19 113.219 273.24 113.191 273.295 113.185C273.351 113.179 273.405 113.196 273.448 113.232L285.179 123.195C285.253 123.259 285.272 123.366 285.223 123.451L275.61 140.189C273.435 143.977 269.574 146.21 265.236 146.21ZM247.089 103.098C246.72 103.098 246.327 103.163 245.96 103.35C245.243 103.716 244.764 104.482 244.539 105.626C244.521 105.713 244.45 105.779 244.362 105.788C244.354 105.789 243.431 105.904 242.902 106.669C242.489 107.266 242.414 108.104 242.678 109.159C242.698 109.242 242.664 109.33 242.592 109.377C242.561 109.398 241.817 109.902 241.797 110.88C241.774 112.056 242.825 113.447 244.838 114.903C244.874 114.93 244.901 114.967 244.914 115.01C244.95 115.131 248.576 127.24 254.898 139.475C256.862 143.328 260.61 145.693 264.927 145.802C269.247 145.908 273.106 143.737 275.26 139.988L284.789 123.395L273.349 113.678L266.939 122.094C266.899 122.145 266.837 122.177 266.773 122.173C266.707 122.171 266.647 122.138 266.611 122.084C264.687 119.235 262.859 116.172 261.09 113.211C258.153 108.292 255.379 103.646 252.674 100.847C248.277 96.2958 247.121 96.6093 246.871 96.8131C246.138 97.4103 247.142 100.593 248.859 103.12C248.91 103.195 248.905 103.295 248.846 103.364C248.788 103.434 248.69 103.455 248.608 103.417C248.598 103.413 247.904 103.098 247.089 103.098L247.089 103.098Z" fill="black"/>
<path d="M255.652 117.711C254.684 117.711 253.849 117.028 253.395 116.384C252.939 115.737 252.677 114.985 252.423 114.258C252.361 114.078 252.298 113.898 252.232 113.72C251.951 112.954 251.527 112.007 250.749 111.469C250.379 111.213 249.954 111.061 249.504 110.901C249.296 110.827 249.082 110.75 248.874 110.663C248.272 110.41 247.509 109.94 247.297 109.139C247.013 108.067 247.929 107.016 248.93 106.744C249.911 106.477 250.93 106.744 251.885 107.074C254.4 107.94 256.496 109.116 258.116 110.569C258.199 110.643 258.206 110.771 258.132 110.854C258.057 110.938 257.93 110.945 257.847 110.87C256.267 109.454 254.217 108.305 251.754 107.456C250.859 107.148 249.911 106.896 249.036 107.134C248.22 107.356 247.47 108.216 247.687 109.036C247.857 109.677 248.511 110.072 249.03 110.29C249.228 110.373 249.437 110.448 249.639 110.52C250.094 110.682 250.565 110.85 250.979 111.136C251.85 111.738 252.309 112.758 252.611 113.58C252.678 113.76 252.741 113.942 252.805 114.124C253.049 114.825 253.302 115.55 253.725 116.151C254.167 116.778 255.015 117.45 255.947 117.28C256.057 117.26 256.161 117.333 256.182 117.443C256.201 117.553 256.129 117.658 256.019 117.678C255.895 117.7 255.772 117.711 255.652 117.711Z" fill="black"/>
<path d="M249.662 112.778C249.079 112.778 248.544 112.498 248.179 112.276C246.106 111.013 244.724 108.722 244.573 106.296C244.567 106.185 244.651 106.089 244.762 106.082C244.875 106.075 244.97 106.16 244.977 106.271C245.119 108.567 246.427 110.735 248.389 111.93C248.956 112.275 249.41 112.413 249.82 112.364C250.255 112.313 250.714 111.944 250.676 111.495C250.667 111.384 250.749 111.286 250.86 111.277C250.977 111.267 251.069 111.35 251.078 111.462C251.136 112.15 250.499 112.692 249.867 112.766C249.798 112.774 249.73 112.778 249.662 112.778Z" fill="black"/>
<path d="M247.065 113.249C246.731 113.249 246.367 113.16 245.942 112.978C244.523 112.369 243.372 111.2 242.785 109.771C242.742 109.667 242.791 109.549 242.895 109.506C242.998 109.464 243.116 109.513 243.158 109.616C243.706 110.949 244.778 112.039 246.101 112.606C246.577 112.811 246.955 112.88 247.289 112.826C247.626 112.772 248.002 112.526 248.069 112.162C248.089 112.052 248.192 111.979 248.304 111.999C248.414 112.019 248.486 112.125 248.466 112.235C248.376 112.727 247.918 113.134 247.354 113.226C247.259 113.241 247.164 113.249 247.065 113.249L247.065 113.249Z" fill="black"/>
<path d="M245.103 114.584C244.904 114.584 244.704 114.543 244.524 114.457C244.423 114.41 244.38 114.289 244.427 114.188C244.475 114.087 244.595 114.044 244.696 114.091C245.018 114.244 245.424 114.199 245.706 113.981C245.988 113.762 246.132 113.379 246.065 113.028C246.044 112.919 246.116 112.813 246.225 112.792C246.335 112.771 246.441 112.843 246.462 112.952C246.557 113.449 246.352 113.991 245.953 114.3C245.713 114.487 245.407 114.585 245.103 114.585V114.584Z" fill="black"/>
<path d="M327.485 175.691H270.074C270.074 175.691 276.909 156.258 280.718 148.371L315.445 150.965L327.485 175.691L327.485 175.691Z" fill="white"/>
<path d="M327.486 175.893H270.074C270.009 175.893 269.947 175.862 269.909 175.808C269.871 175.754 269.862 175.686 269.883 175.624C269.952 175.429 276.766 156.09 280.536 148.282C280.572 148.208 280.651 148.162 280.733 148.169L315.46 150.763C315.531 150.768 315.595 150.811 315.626 150.876L327.667 175.602C327.697 175.665 327.694 175.739 327.657 175.798C327.62 175.857 327.555 175.893 327.485 175.893H327.486ZM270.36 175.489H327.162L315.314 151.158L280.84 148.583C277.313 155.937 271.196 173.126 270.36 175.489Z" fill="black"/>
<path d="M314.08 151.758C314.069 151.809 280.865 150.225 280.865 150.225V125.507L272.093 113.386C272.093 113.386 280.133 102.206 301.474 105.706C320.536 108.833 325.854 121.066 325.854 121.066L310.549 131.173L314.08 151.757V151.758Z" fill="#195DFF"/>
<path d="M273.413 157.786H295.79C296.703 157.786 297.38 156.939 297.18 156.048L289.413 121.263C289.177 120.208 288.241 119.457 287.162 119.457H265.099C263.984 119.457 263.156 120.492 263.399 121.582L271.063 155.9C271.31 157.003 272.286 157.786 273.413 157.786Z" fill="black"/>
<path d="M324.465 121.971L310.549 131.174L309.265 142.894C309.265 142.894 294.186 132.563 289.957 130.422C285.729 128.28 279.093 128.118 277.992 129.433C276.892 130.748 280.206 131.64 280.206 131.64C280.206 131.64 275.84 131.759 275.804 133.025C275.768 134.291 281.494 135.915 281.494 135.915C281.494 135.915 277.17 134.935 276.077 135.846C274.985 136.758 275.687 138.011 280.286 139.403C280.286 139.403 277.704 138.99 277.424 140.527C277.215 141.674 284.363 144.388 288.331 145.497C288.331 145.497 297.015 154.746 307.342 162.115C312.914 166.092 320.728 163.902 323.401 157.593C326.946 149.228 329.863 136.805 324.465 121.971H324.465Z" fill="white"/>
<path d="M313.55 164.317C311.308 164.317 309.104 163.621 307.225 162.28C297 154.984 288.271 145.728 288.184 145.636C288.108 145.554 288.111 145.426 288.193 145.35C288.274 145.273 288.402 145.277 288.478 145.358C288.565 145.451 297.268 154.678 307.459 161.95C310.071 163.814 313.337 164.384 316.42 163.512C319.491 162.643 321.968 160.457 323.216 157.514C328.202 145.747 328.559 133.812 324.276 122.04C324.237 121.935 324.291 121.819 324.396 121.781C324.5 121.743 324.617 121.797 324.655 121.902C328.975 133.773 328.616 145.808 323.587 157.672C322.292 160.729 319.72 162.999 316.53 163.901C315.546 164.18 314.544 164.317 313.55 164.317H313.55Z" fill="black"/>
<path d="M286.478 133.633C286.446 133.633 286.412 133.625 286.381 133.608C284.601 132.631 282.589 132.031 280.564 131.875C280.453 131.866 280.37 131.769 280.378 131.657C280.387 131.546 280.483 131.463 280.595 131.471C282.677 131.632 284.745 132.249 286.576 133.253C286.673 133.307 286.709 133.43 286.656 133.528C286.619 133.595 286.55 133.633 286.478 133.633L286.478 133.633Z" fill="black"/>
<path d="M285.087 137.446C285.059 137.446 285.03 137.44 285.003 137.427C283.941 136.941 282.835 136.53 281.715 136.205C281.608 136.173 281.547 136.061 281.578 135.954C281.609 135.847 281.721 135.785 281.828 135.816C282.967 136.147 284.092 136.565 285.171 137.059C285.272 137.106 285.317 137.226 285.271 137.327C285.237 137.402 285.164 137.446 285.087 137.446L285.087 137.446Z" fill="black"/>
<path d="M284.599 140.977C284.572 140.977 284.544 140.972 284.517 140.96C283.226 140.39 281.87 139.958 280.486 139.677C280.377 139.655 280.307 139.548 280.329 139.439C280.351 139.329 280.456 139.258 280.567 139.281C281.978 139.567 283.362 140.008 284.68 140.59C284.782 140.635 284.829 140.754 284.784 140.856C284.75 140.932 284.676 140.977 284.599 140.977Z" fill="black"/>
<path d="M315.336 148.059C315.291 148.059 315.247 148.045 315.209 148.015L309.38 143.331C309.293 143.261 309.279 143.134 309.349 143.047C309.418 142.96 309.546 142.946 309.633 143.016L315.462 147.699C315.549 147.769 315.563 147.896 315.493 147.984C315.454 148.033 315.395 148.059 315.336 148.059Z" fill="black"/>
<path d="M307.857 92.9583L305.327 105.945L308.737 107.511C308.737 107.511 298.443 123.356 293.068 126.674C293.068 126.674 291.513 114.392 293.87 105.029L297.228 104.827L299.387 97.2407L307.857 92.9583Z" fill="white"/>
<path d="M298.043 83.8677C298.043 83.8677 293.428 95.8267 297.196 98.7767C300.964 101.727 307.024 94.9395 307.024 94.9395C307.024 94.9395 310.799 95.1459 310.799 91.4621C310.799 89.1297 307.562 89.1399 306.837 91.4621C306.837 91.4621 305.338 91.9975 305.492 91.0045C305.646 90.0115 307.109 83.5384 298.043 83.8676L298.043 83.8677Z" fill="white"/>
<path d="M299.398 99.7299C298.583 99.7299 297.791 99.4997 297.072 98.9362C293.229 95.9283 297.664 84.2887 297.855 83.7948C297.884 83.7194 297.955 83.6685 298.036 83.6655C301.162 83.5525 303.395 84.2316 304.666 85.6859C306.285 87.5366 305.855 90.0668 305.714 90.8983L305.692 91.0357C305.658 91.2505 305.728 91.3086 305.752 91.3276C305.913 91.4618 306.36 91.3987 306.677 91.3018C307.15 89.955 308.433 89.3872 309.427 89.5395C310.188 89.6561 311.001 90.2223 311.001 91.4621C311.001 92.5887 310.661 93.4827 309.99 94.119C308.966 95.0911 307.502 95.1455 307.111 95.1442C306.55 95.7574 302.78 99.7298 299.398 99.7298V99.7299ZM298.184 84.0655C297.711 85.3417 293.914 95.9509 297.32 98.6174C297.95 99.1105 298.653 99.314 299.383 99.314C302.8 99.3143 306.824 94.8596 306.873 94.8048C306.914 94.7591 306.974 94.7338 307.035 94.7377C307.05 94.7385 308.675 94.8117 309.714 93.8234C310.3 93.2666 310.597 92.4721 310.597 91.4622C310.597 90.6269 310.137 90.0576 309.366 89.9396C308.516 89.809 307.405 90.3194 307.029 91.5227C307.01 91.5832 306.964 91.6315 306.904 91.6528C306.804 91.6884 305.919 91.991 305.494 91.6396C305.371 91.5375 305.236 91.3391 305.292 90.9737C305.298 90.9343 305.307 90.8863 305.316 90.8306C305.449 90.0461 305.854 87.6586 304.362 85.9526C303.192 84.6146 301.109 83.9813 298.184 84.0655Z" fill="black"/>
<path d="M307.042 93.945C307.015 93.945 306.987 93.9395 306.961 93.9279C306.859 93.8828 306.813 93.7634 306.858 93.6612C307.183 92.9217 308.072 92.4118 308.969 92.4443C309.08 92.4487 309.167 92.5426 309.163 92.6543C309.158 92.7662 309.056 92.8518 308.953 92.8488C308.223 92.8224 307.484 93.2401 307.227 93.8241C307.194 93.8999 307.12 93.945 307.042 93.945Z" fill="black"/>
<path d="M193.602 81.2968H81.4972C80.2295 81.2968 79.2019 82.3262 79.2019 83.5961V227.815C79.2019 229.085 80.2295 230.114 81.4972 230.114H193.602C194.87 230.114 195.898 229.085 195.898 227.815V83.5961C195.898 82.3262 194.87 81.2968 193.602 81.2968Z" fill="white"/>
<path d="M193.602 230.316H81.4972C80.1202 230.316 79 229.194 79 227.815V83.596C79 82.2165 80.1202 81.0944 81.4972 81.0944H193.602C194.979 81.0944 196.1 82.2165 196.1 83.596V227.815C196.1 229.194 194.979 230.316 193.602 230.316ZM81.4972 81.499C80.3429 81.499 79.4039 82.4397 79.4039 83.596V227.815C79.4039 228.971 80.3429 229.912 81.4972 229.912H193.602C194.757 229.912 195.696 228.971 195.696 227.815V83.596C195.696 82.4397 194.757 81.499 193.602 81.499H81.4972Z" fill="black"/>
<path d="M189.831 224.239H85.2688C85.1572 224.239 85.0669 224.149 85.0669 224.037V87.374C85.0669 87.2623 85.1572 87.1718 85.2688 87.1718H189.831C189.943 87.1718 190.033 87.2623 190.033 87.374V224.037C190.033 224.149 189.943 224.239 189.831 224.239ZM85.4708 223.835H189.629V87.5763H85.4708V223.835Z" fill="black"/>
<path d="M161.704 93.1942H113.396C109.272 93.1942 105.928 89.845 105.928 85.7136V75H169.171V85.7136C169.171 89.845 165.828 93.1942 161.704 93.1942Z" fill="#E2EAFF"/>
<path d="M181.439 128.149H146.649C146.537 128.149 146.447 128.059 146.447 127.947C146.447 127.835 146.537 127.745 146.649 127.745H181.439C181.55 127.745 181.64 127.835 181.64 127.947C181.64 128.059 181.55 128.149 181.439 128.149Z" fill="black"/>
<path d="M134.36 128.149H118.825C118.714 128.149 118.624 128.059 118.624 127.947C118.624 127.835 118.714 127.745 118.825 127.745H134.36C134.472 127.745 134.562 127.835 134.562 127.947C134.562 128.059 134.472 128.149 134.36 128.149Z" fill="black"/>
<path d="M181.439 137.096H157.082C156.971 137.096 156.88 137.005 156.88 136.893C156.88 136.782 156.971 136.691 157.082 136.691H181.439C181.55 136.691 181.64 136.782 181.64 136.893C181.64 137.005 181.55 137.096 181.439 137.096Z" fill="black"/>
<path d="M149.199 137.096H118.825C118.714 137.096 118.624 137.005 118.624 136.893C118.624 136.782 118.714 136.691 118.825 136.691H149.199C149.311 136.691 149.401 136.782 149.401 136.893C149.401 137.005 149.311 137.096 149.199 137.096Z" fill="black"/>
<path d="M181.438 146.042H143.815C143.703 146.042 143.613 145.951 143.613 145.839C143.613 145.728 143.703 145.637 143.815 145.637H181.438C181.55 145.637 181.64 145.728 181.64 145.839C181.64 145.951 181.55 146.042 181.438 146.042Z" fill="black"/>
<path d="M134.54 146.042H118.825C118.714 146.042 118.624 145.951 118.624 145.839C118.624 145.728 118.714 145.637 118.825 145.637H134.54C134.652 145.637 134.742 145.728 134.742 145.839C134.742 145.951 134.652 146.042 134.54 146.042Z" fill="black"/>
<path d="M111.552 146.042H93.6905C93.5789 146.042 93.4885 145.951 93.4885 145.839V127.947C93.4885 127.835 93.5789 127.745 93.6905 127.745H110.529C110.641 127.745 110.731 127.835 110.731 127.947C110.731 128.059 110.641 128.149 110.529 128.149H93.8925V145.637H111.35V132.754C111.35 132.642 111.44 132.552 111.552 132.552C111.664 132.552 111.754 132.642 111.754 132.754V145.839C111.754 145.951 111.664 146.042 111.552 146.042Z" fill="black"/>
<path d="M102.621 142.971H102.621C102.556 142.971 102.495 142.939 102.457 142.886L95.459 133.072C95.3941 132.981 95.4153 132.855 95.506 132.789C95.5967 132.725 95.7227 132.746 95.7876 132.837L102.622 142.421L114.654 125.626C114.718 125.535 114.845 125.514 114.935 125.579C115.026 125.645 115.047 125.771 114.982 125.862L102.785 142.886C102.747 142.939 102.686 142.971 102.621 142.971L102.621 142.971Z" fill="black"/>
<path d="M181.439 157.86H146.649C146.537 157.86 146.447 157.769 146.447 157.657C146.447 157.546 146.537 157.455 146.649 157.455H181.439C181.55 157.455 181.64 157.546 181.64 157.657C181.64 157.769 181.55 157.86 181.439 157.86Z" fill="black"/>
<path d="M134.36 157.86H118.825C118.714 157.86 118.624 157.769 118.624 157.657C118.624 157.546 118.714 157.455 118.825 157.455H134.36C134.472 157.455 134.562 157.546 134.562 157.657C134.562 157.769 134.472 157.86 134.36 157.86Z" fill="black"/>
<path d="M181.439 166.806H157.082C156.971 166.806 156.88 166.715 156.88 166.603C156.88 166.492 156.971 166.401 157.082 166.401H181.439C181.55 166.401 181.64 166.492 181.64 166.603C181.64 166.715 181.55 166.806 181.439 166.806Z" fill="black"/>
<path d="M149.199 166.806H118.825C118.714 166.806 118.624 166.715 118.624 166.603C118.624 166.492 118.714 166.401 118.825 166.401H149.199C149.311 166.401 149.401 166.492 149.401 166.603C149.401 166.715 149.311 166.806 149.199 166.806Z" fill="black"/>
<path d="M181.438 175.752H143.815C143.703 175.752 143.613 175.662 143.613 175.55C143.613 175.438 143.703 175.348 143.815 175.348H181.438C181.55 175.348 181.64 175.438 181.64 175.55C181.64 175.662 181.55 175.752 181.438 175.752Z" fill="black"/>
<path d="M134.54 175.752H118.825C118.714 175.752 118.624 175.662 118.624 175.55C118.624 175.438 118.714 175.348 118.825 175.348H134.54C134.652 175.348 134.742 175.438 134.742 175.55C134.742 175.662 134.652 175.752 134.54 175.752Z" fill="black"/>
<path d="M111.552 175.752H93.6905C93.5789 175.752 93.4885 175.661 93.4885 175.55V157.657C93.4885 157.545 93.5789 157.455 93.6905 157.455H110.529C110.641 157.455 110.731 157.545 110.731 157.657C110.731 157.769 110.641 157.859 110.529 157.859H93.8925V175.347H111.35V162.464C111.35 162.352 111.44 162.262 111.552 162.262C111.664 162.262 111.754 162.352 111.754 162.464V175.55C111.754 175.661 111.664 175.752 111.552 175.752Z" fill="black"/>
<path d="M102.621 172.681H102.621C102.556 172.681 102.495 172.649 102.457 172.596L95.459 162.782C95.3941 162.691 95.4153 162.565 95.506 162.5C95.5967 162.435 95.7227 162.456 95.7876 162.547L102.622 172.131L114.654 155.336C114.718 155.245 114.845 155.225 114.935 155.29C115.026 155.355 115.047 155.481 114.982 155.572L102.785 172.597C102.747 172.65 102.686 172.681 102.621 172.681Z" fill="black"/>
<path d="M181.439 187.57H146.649C146.537 187.57 146.447 187.479 146.447 187.368C146.447 187.256 146.537 187.165 146.649 187.165H181.439C181.55 187.165 181.64 187.256 181.64 187.368C181.64 187.479 181.55 187.57 181.439 187.57Z" fill="black"/>
<path d="M134.36 187.57H118.825C118.714 187.57 118.624 187.479 118.624 187.368C118.624 187.256 118.714 187.165 118.825 187.165H134.36C134.472 187.165 134.562 187.256 134.562 187.368C134.562 187.479 134.472 187.57 134.36 187.57Z" fill="black"/>
<path d="M181.439 196.516H157.082C156.971 196.516 156.88 196.425 156.88 196.314C156.88 196.202 156.971 196.111 157.082 196.111H181.439C181.55 196.111 181.64 196.202 181.64 196.314C181.64 196.425 181.55 196.516 181.439 196.516Z" fill="black"/>
<path d="M149.199 196.516H118.825C118.714 196.516 118.624 196.425 118.624 196.314C118.624 196.202 118.714 196.111 118.825 196.111H149.199C149.311 196.111 149.401 196.202 149.401 196.314C149.401 196.425 149.311 196.516 149.199 196.516Z" fill="black"/>
<path d="M181.438 205.462H143.815C143.703 205.462 143.613 205.372 143.613 205.26C143.613 205.148 143.703 205.058 143.815 205.058H181.438C181.55 205.058 181.64 205.148 181.64 205.26C181.64 205.372 181.55 205.462 181.438 205.462Z" fill="black"/>
<path d="M134.54 205.462H118.825C118.714 205.462 118.624 205.372 118.624 205.26C118.624 205.148 118.714 205.058 118.825 205.058H134.54C134.652 205.058 134.742 205.148 134.742 205.26C134.742 205.372 134.652 205.462 134.54 205.462Z" fill="black"/>
<path d="M111.552 205.462H93.6905C93.5789 205.462 93.4885 205.372 93.4885 205.26V187.368C93.4885 187.256 93.5789 187.165 93.6905 187.165H110.529C110.641 187.165 110.731 187.256 110.731 187.368C110.731 187.479 110.641 187.57 110.529 187.57H93.8925V205.058H111.35V192.175C111.35 192.063 111.44 191.972 111.552 191.972C111.664 191.972 111.754 192.063 111.754 192.175V205.26C111.754 205.372 111.664 205.462 111.552 205.462Z" fill="black"/>
<path d="M102.621 202.391H102.621C102.556 202.391 102.495 202.36 102.457 202.307L95.459 192.492C95.3941 192.402 95.4153 192.275 95.506 192.21C95.5967 192.145 95.7227 192.166 95.7876 192.257L102.622 201.842L114.654 185.047C114.718 184.956 114.845 184.935 114.935 185C115.026 185.065 115.047 185.192 114.982 185.282L102.785 202.307C102.747 202.36 102.686 202.391 102.621 202.391Z" fill="black"/>
<path d="M181.438 101.917H93.6904V117.605H181.438V101.917Z" fill="#E2EAFF"/>
<path d="M218.824 119.796C225.807 112.8 225.807 101.458 218.824 94.4623C211.84 87.4667 200.518 87.4667 193.535 94.4623C186.551 101.458 186.551 112.8 193.535 119.796C200.518 126.791 211.84 126.791 218.824 119.796Z" fill="white"/>
<path d="M206.179 125.244C196.207 125.244 188.095 117.118 188.095 107.129C188.095 97.1399 196.207 89.0134 206.179 89.0134C216.15 89.0134 224.263 97.14 224.263 107.129C224.263 117.118 216.151 125.244 206.179 125.244ZM206.179 89.418C196.43 89.418 188.499 97.3631 188.499 107.129C188.499 116.895 196.43 124.84 206.179 124.84C215.928 124.84 223.859 116.895 223.859 107.129C223.859 97.3631 215.928 89.418 206.179 89.418Z" fill="#195DFF"/>
<path d="M216.12 117.087C221.611 111.587 221.611 102.67 216.12 97.1704C210.63 91.6705 201.728 91.6705 196.238 97.1704C190.748 102.67 190.748 111.587 196.238 117.087C201.728 122.587 210.63 122.587 216.12 117.087Z" fill="white"/>
<path d="M206.179 121.415C198.316 121.415 191.918 115.006 191.918 107.129C191.918 99.2518 198.316 92.8433 206.179 92.8433C214.042 92.8433 220.44 99.2518 220.44 107.129C220.44 115.006 214.042 121.415 206.179 121.415ZM206.179 93.2479C198.538 93.2479 192.322 99.475 192.322 107.129C192.322 114.783 198.538 121.01 206.179 121.01C213.82 121.01 220.036 114.783 220.036 107.129C220.036 99.475 213.82 93.2479 206.179 93.2479Z" fill="#195DFF"/>
<path d="M208.05 119.796C215.033 112.8 215.033 101.458 208.05 94.4625C201.066 87.467 189.744 87.467 182.761 94.4625C175.777 101.458 175.777 112.8 182.761 119.796C189.744 126.791 201.066 126.791 208.05 119.796Z" fill="white"/>
<path d="M195.405 125.244C185.434 125.244 177.321 117.118 177.321 107.129C177.321 97.1399 185.434 89.0134 195.405 89.0134C205.377 89.0134 213.489 97.14 213.489 107.129C213.489 117.118 205.377 125.244 195.405 125.244ZM195.405 89.418C185.656 89.418 177.725 97.3631 177.725 107.129C177.725 116.895 185.656 124.84 195.405 124.84C205.154 124.84 213.085 116.895 213.085 107.129C213.085 97.3631 205.154 89.418 195.405 89.418Z" fill="#195DFF"/>
<path d="M205.346 117.087C210.837 111.587 210.837 102.67 205.346 97.1704C199.856 91.6705 190.954 91.6705 185.464 97.1704C179.974 102.67 179.974 111.587 185.464 117.087C190.954 122.587 199.856 122.587 205.346 117.087Z" fill="white"/>
<path d="M195.405 121.415C187.542 121.415 181.145 115.006 181.145 107.129C181.145 99.2518 187.542 92.8433 195.405 92.8433C203.269 92.8433 209.666 99.2518 209.666 107.129C209.666 115.006 203.269 121.415 195.405 121.415ZM195.405 93.2479C187.765 93.2479 181.548 99.475 181.548 107.129C181.548 114.783 187.765 121.01 195.405 121.01C203.046 121.01 209.262 114.783 209.262 107.129C209.262 99.475 203.046 93.2479 195.405 93.2479Z" fill="#195DFF"/>
<path d="M197.276 119.796C204.259 112.8 204.259 101.458 197.276 94.4625C190.293 87.467 178.97 87.467 171.987 94.4625C165.004 101.458 165.004 112.8 171.987 119.796C178.97 126.791 190.293 126.791 197.276 119.796Z" fill="#195DFF"/>
<path d="M184.632 121.415C176.768 121.415 170.371 115.006 170.371 107.129C170.371 99.2518 176.768 92.8433 184.632 92.8433C192.495 92.8433 198.892 99.2518 198.892 107.129C198.892 115.006 192.495 121.415 184.632 121.415ZM184.632 93.2479C176.991 93.2479 170.774 99.475 170.774 107.129C170.774 114.783 176.991 121.01 184.632 121.01C192.272 121.01 198.488 114.783 198.488 107.129C198.488 99.475 192.272 93.2479 184.632 93.2479Z" fill="white"/>
<path d="M183.712 118.254V115.517C182.143 115.49 180.519 115.002 179.572 114.325L180.222 112.509C181.196 113.159 182.602 113.674 184.117 113.674C186.038 113.674 187.337 112.563 187.337 111.018C187.337 109.528 186.282 108.606 184.28 107.793C181.52 106.709 179.816 105.462 179.816 103.105C179.816 100.855 181.412 99.1477 183.901 98.7413V96.0039H185.578V98.6328C187.202 98.687 188.311 99.1207 189.096 99.5813L188.419 101.37C187.851 101.045 186.742 100.449 185.01 100.449C182.927 100.449 182.143 101.695 182.143 102.779C182.143 104.189 183.143 104.893 185.497 105.869C188.284 107.007 189.691 108.416 189.691 110.829C189.691 112.97 188.203 114.975 185.416 115.436V118.254H183.712L183.712 118.254Z" fill="white"/>
<path d="M153.854 211.369H169.383C171.545 211.369 173.301 213.128 173.301 215.294V238.993C173.301 241.159 171.545 242.918 169.383 242.918H153.854C151.691 242.918 149.936 241.159 149.936 238.993V215.294C149.936 213.128 151.691 211.369 153.854 211.369Z" fill="white"/>
<path d="M169.383 243.12H153.854C151.582 243.12 149.734 241.268 149.734 238.993V215.294C149.734 213.018 151.582 211.167 153.854 211.167H169.383C171.655 211.167 173.503 213.018 173.503 215.294V238.993C173.503 241.268 171.655 243.12 169.383 243.12ZM153.854 211.571C151.805 211.571 150.138 213.241 150.138 215.294V238.993C150.138 241.045 151.805 242.715 153.854 242.715H169.383C171.432 242.715 173.099 241.045 173.099 238.993V215.294C173.099 213.241 171.432 211.571 169.383 211.571H153.854Z" fill="black"/>
<path d="M291.359 237.083L280.834 242.485C278.909 243.474 276.548 242.711 275.561 240.782L259.96 210.284C258.973 208.355 259.734 205.99 261.66 205.002L272.184 199.599C274.11 198.611 276.471 199.373 277.458 201.302L293.059 231.8C294.046 233.729 293.284 236.095 291.359 237.083Z" fill="white"/>
<path d="M279.052 243.121C278.627 243.121 278.2 243.055 277.784 242.92C276.736 242.582 275.883 241.856 275.381 240.874L259.78 210.376C258.744 208.351 259.546 205.859 261.568 204.821L272.092 199.419C274.115 198.381 276.602 199.184 277.638 201.21L293.239 231.708C293.74 232.689 293.831 233.807 293.493 234.856C293.156 235.906 292.43 236.76 291.451 237.263L280.927 242.665C280.337 242.968 279.697 243.121 279.052 243.121L279.052 243.121ZM273.965 199.37C273.395 199.37 272.817 199.501 272.276 199.779L261.752 205.181C259.929 206.117 259.205 208.365 260.14 210.192L275.74 240.69C276.193 241.575 276.963 242.23 277.907 242.535C278.852 242.84 279.859 242.759 280.742 242.305L291.267 236.903C292.15 236.45 292.804 235.679 293.109 234.732C293.413 233.786 293.332 232.777 292.879 231.892L277.278 201.394C276.621 200.11 275.316 199.37 273.965 199.37Z" fill="black"/>
<path d="M284.605 164.963L278.575 165.835C277.193 166.035 276.175 167.12 276.175 168.394V172.535C276.175 173.568 275.479 174.495 274.421 174.87L274.257 174.928C269.203 162.276 262.031 147.927 258.408 144.63C251.732 138.552 176.203 139.06 170.084 144.63C164.724 149.509 158.337 162.888 153.898 174.837C152.888 174.444 152.227 173.54 152.227 172.535V168.394C152.227 167.12 151.21 166.035 149.827 165.835L143.797 164.963C140.518 164.49 137.55 166.796 137.55 169.819C137.55 171.892 138.979 173.743 141.122 174.445L152.677 178.23C151.072 182.833 149.821 187.059 149.109 190.287C147.556 197.325 149.099 219.004 149.099 219.004C149.099 219.004 159.399 223.293 163.083 223.917C188.232 228.182 240.261 228.182 265.41 223.917C269.094 223.293 279.394 219.004 279.394 219.004C283.43 210.108 270.074 212.021 279.515 199.485C281.984 196.205 271.677 195.053 271.175 192.778C270.484 189.648 277.316 182.924 275.562 178.284L287.281 174.445C289.424 173.743 290.853 171.892 290.853 169.819C290.853 166.796 287.885 164.49 284.605 164.964V164.963Z" fill="#195DFF"/>
<path d="M269.761 172.6C265.103 161.422 259.1 149.679 255.946 146.808C249.641 141.069 178.324 141.549 172.547 146.808C167.856 151.078 162.332 162.243 158.212 172.838C183.084 168.575 244.282 168.231 269.761 172.6Z" fill="white"/>
<path d="M183.722 223.842C202.612 225.377 225.88 225.377 244.77 223.842L243.538 216.723C242.9 213.038 239.967 210.372 236.552 210.372H191.94C188.525 210.372 185.592 213.038 184.954 216.723L183.722 223.842Z" fill="white"/>
<path d="M230.647 212.942H197.845V222.697H230.647V212.942Z" fill="white"/>
<path d="M230.647 222.9H197.846C197.734 222.9 197.644 222.809 197.644 222.698V212.943C197.644 212.831 197.734 212.74 197.846 212.74H230.647C230.759 212.74 230.849 212.831 230.849 212.943V222.698C230.849 222.809 230.759 222.9 230.647 222.9ZM198.047 222.495H230.445V213.145H198.047V222.495Z" fill="black"/>
<path d="M237.53 196.602C223.12 195.883 205.372 195.883 190.963 196.602L191.902 199.934C192.389 201.658 194.626 202.906 197.231 202.906H231.261C233.866 202.906 236.104 201.658 236.59 199.934L237.53 196.602Z" fill="white"/>
<path d="M167.975 219.444L155.052 216.958C153.915 216.739 153.295 215.615 153.782 214.653L155.601 211.066C155.956 210.367 156.794 209.984 157.621 210.143L171.487 212.811C172.777 213.059 173.352 214.439 172.569 215.404L169.807 218.81C169.385 219.33 168.669 219.578 167.975 219.444Z" fill="white"/>
<path d="M178.368 198.09L170.274 201.407C169.593 201.686 168.81 201.67 168.143 201.362L155.022 195.303C154.451 195.04 154.014 194.584 153.805 194.033L152.794 191.375C152.147 189.672 153.853 188.003 155.765 188.468L177.991 193.868C179.071 194.13 179.823 195.022 179.823 196.04C179.823 196.925 179.254 197.727 178.367 198.09H178.368Z" fill="white"/>
<path d="M260.758 219.444L273.68 216.958C274.818 216.739 275.437 215.615 274.95 214.653L273.131 211.066C272.777 210.367 271.939 209.984 271.112 210.143L257.246 212.811C255.956 213.059 255.38 214.439 256.163 215.404L258.926 218.81C259.347 219.33 260.063 219.578 260.757 219.444L260.758 219.444Z" fill="white"/>
<path d="M260.867 222.9C260.858 222.9 260.849 222.899 260.839 222.898L250.852 221.514C250.777 221.504 250.714 221.452 250.689 221.38L247.266 211.464L242.808 205.38C242.746 205.295 242.76 205.176 242.839 205.107L248.022 200.608C246.301 196.699 243.429 190.512 242.859 190.13C242.782 190.078 242.743 189.994 242.754 189.903C242.784 189.655 242.834 189.24 257.491 183.704C264.681 180.989 271.951 178.345 272.024 178.319C272.128 178.281 272.245 178.335 272.282 178.44C272.32 178.545 272.266 178.661 272.161 178.699C261.165 182.696 244.736 188.858 243.227 189.931C244.323 191.22 248.015 199.587 248.452 200.581C248.488 200.662 248.466 200.757 248.4 200.815L243.244 205.291L247.609 211.249C247.621 211.266 247.631 211.284 247.637 211.303L251.03 221.131L260.895 222.497C261.005 222.513 261.082 222.615 261.067 222.725C261.053 222.827 260.967 222.9 260.867 222.9L260.867 222.9Z" fill="black"/>
<path d="M253.558 205.462C253.542 205.462 253.526 205.46 253.51 205.457C253.435 205.438 253.377 205.378 253.36 205.302L250.683 192.82C250.671 192.767 250.682 192.711 250.711 192.666C250.741 192.621 250.788 192.589 250.841 192.579L268.137 189.2C268.246 189.178 268.353 189.25 268.374 189.36C268.396 189.469 268.324 189.576 268.215 189.597L251.121 192.937L253.667 204.807L260.721 196.186C260.737 196.167 260.755 196.151 260.775 196.139L268.074 191.852C268.17 191.796 268.294 191.828 268.35 191.925C268.407 192.021 268.374 192.145 268.278 192.201L261.011 196.47L253.714 205.388C253.675 205.436 253.618 205.462 253.558 205.462V205.462Z" fill="black"/>
<path d="M245.318 96.2059H223.422C223.31 96.2059 223.22 96.1153 223.22 96.0036C223.22 95.8919 223.31 95.8013 223.422 95.8013H245.318C245.429 95.8013 245.519 95.8919 245.519 96.0036C245.519 96.1153 245.429 96.2059 245.318 96.2059Z" fill="black"/>
<path d="M248.537 98.5164C249.922 97.1287 249.922 94.8786 248.537 93.4909C247.151 92.1031 244.905 92.1031 243.52 93.4909C242.135 94.8787 242.135 97.1287 243.52 98.5164C244.905 99.9042 247.151 99.9042 248.537 98.5164Z" fill="#195DFF"/>
</svg>
