<svg width="133" height="24" viewBox="0 0 133 24" fill="none" xmlns="http://www.w3.org/2000/svg">
<path d="M2 10.5C1.17157 10.5 0.5 11.1716 0.5 12C0.5 12.8284 1.17157 13.5 2 13.5V10.5ZM132.561 13.0607C133.146 12.4749 133.146 11.5251 132.561 10.9393L123.015 1.3934C122.429 0.807611 121.479 0.807611 120.893 1.3934C120.308 1.97919 120.308 2.92893 120.893 3.51472L129.379 12L120.893 20.4853C120.308 21.0711 120.308 22.0208 120.893 22.6066C121.479 23.1924 122.429 23.1924 123.015 22.6066L132.561 13.0607ZM2 12V13.5H4.94318V12V10.5H2V12ZM10.8295 12V13.5H16.7159V12V10.5H10.8295V12ZM22.6023 12V13.5H28.4886V12V10.5H22.6023V12ZM34.375 12V13.5H40.2614V12V10.5H34.375V12ZM46.1477 12V13.5H52.0341V12V10.5H46.1477V12ZM57.9205 12V13.5H63.8068V12V10.5H57.9205V12ZM69.6932 12V13.5H75.5795V12V10.5H69.6932V12ZM81.4659 12V13.5H87.3523V12V10.5H81.4659V12ZM93.2386 12V13.5H99.125V12V10.5H93.2386V12ZM105.011 12V13.5H110.898V12V10.5H105.011V12ZM116.784 12V13.5H122.67V12V10.5H116.784V12ZM128.557 12V13.5H131.5V12V10.5H128.557V12Z" fill="#195DFF"/>
</svg>
