<svg width="54" height="55" viewBox="0 0 54 55" fill="none" xmlns="http://www.w3.org/2000/svg">
<path d="M33.2943 12.9902H40.5348C40.7796 12.9902 41.0143 12.8954 41.1873 12.7266C41.3603 12.5578 41.4576 12.3289 41.4576 12.0902C41.4576 11.8515 41.3603 11.6226 41.1873 11.4538C41.0143 11.285 40.7796 11.1902 40.5348 11.1902H33.2943C33.0496 11.1902 32.8149 11.285 32.6418 11.4538C32.4688 11.6226 32.3716 11.8515 32.3716 12.0902C32.3716 12.3289 32.4688 12.5578 32.6418 12.7266C32.8149 12.8954 33.0496 12.9902 33.2943 12.9902Z" fill="black"/>
<path d="M3.77668 29.3478H4.43734L1.74486 32.9658C1.63079 33.1194 1.56943 33.3043 1.56954 33.4941V43.5993C1.56996 43.8381 1.66713 44.0672 1.8399 44.2365L4.8055 47.1164V51.5102C4.80428 52.3014 5.12506 53.0606 5.69738 53.6212C6.2697 54.1818 7.04675 54.4979 7.85784 54.5H15.843C16.6536 54.4979 17.4303 54.1822 18.0025 53.6222C18.5747 53.0622 18.8958 52.3036 18.8954 51.5129V47.6429H35.1084V51.5129C35.1079 52.3034 35.4289 53.0619 36.0009 53.6219C36.5729 54.1818 37.3493 54.4977 38.1598 54.5H46.1459C46.9565 54.4979 47.7331 54.1822 48.3054 53.6222C48.8776 53.0622 49.1987 52.3036 49.1982 51.5129V47.12L52.1638 44.24C52.2498 44.1565 52.318 44.0572 52.3646 43.9478C52.4111 43.8385 52.4351 43.7212 52.4351 43.6028V33.4941C52.4349 33.3042 52.3733 33.1193 52.2589 32.9658L49.5664 29.3478H50.2123C50.7903 29.3484 51.3608 29.2199 51.8799 28.9721C52.3991 28.7243 52.8531 28.3637 53.2072 27.9181C53.5612 27.4725 53.8059 26.9536 53.9224 26.4014C54.0389 25.8492 54.0241 25.2783 53.8792 24.7326C53.6406 23.9208 53.1327 23.2092 52.4351 22.709C51.7375 22.2089 50.8896 21.9485 50.0241 21.9687H45.9641L44.1639 13.9587C44.1214 13.767 44.0154 13.5943 43.8622 13.4673L43.2772 12.9786C43.185 12.9018 43.0782 12.8434 42.963 12.8068C42.8477 12.7702 42.7262 12.7562 42.6053 12.7654C42.4844 12.7746 42.3666 12.807 42.2586 12.8606C42.1506 12.9143 42.0544 12.9881 41.9757 13.078C41.8969 13.1679 41.8371 13.272 41.7996 13.3845C41.7621 13.4969 41.7476 13.6155 41.7571 13.7333C41.7666 13.8512 41.7998 13.9661 41.8548 14.0715C41.9097 14.1769 41.9855 14.2707 42.0776 14.3475L42.4283 14.6391L43.5854 19.7925H38.9367C38.7977 19.7925 38.6605 19.8231 38.5354 19.882C38.4102 19.941 38.3003 20.0267 38.2139 20.1329C38.1275 20.2391 38.0668 20.3629 38.0363 20.4952C38.0059 20.6275 38.0064 20.7647 38.038 20.8968L38.9561 24.7344L36.7619 23.667C36.5988 23.588 36.4154 23.5578 36.2348 23.5802C36.0542 23.6026 35.8845 23.6766 35.7469 23.793L32.3485 26.673L29.7502 23.3367C29.6045 23.1495 29.3896 23.0253 29.1513 22.9907C28.913 22.9561 28.6703 23.0137 28.475 23.1513L26.0999 24.8181L26.8187 23.0064C26.8853 22.8383 26.8987 22.6546 26.857 22.4791C26.8154 22.3036 26.7207 22.1442 26.5853 22.0218L24.7177 20.3334L27.4369 18.8214C27.5711 18.7467 27.684 18.6403 27.7651 18.5121C27.8462 18.3838 27.893 18.2377 27.9011 18.0872C27.9093 17.9367 27.8786 17.7867 27.8119 17.6507C27.7451 17.5148 27.6444 17.3975 27.519 17.3094L24.5913 15.2538C24.3927 15.1143 24.1454 15.0574 23.9038 15.0957C23.6623 15.134 23.4462 15.2644 23.3032 15.4581C23.1601 15.6518 23.1018 15.893 23.1411 16.1286C23.1804 16.3642 23.314 16.575 23.5126 16.7145L25.275 17.952L22.7117 19.3767C22.5861 19.4467 22.4792 19.5445 22.3996 19.6623C22.3199 19.7801 22.2697 19.9144 22.2531 20.0546C22.2365 20.1947 22.2539 20.3367 22.3039 20.4691C22.3539 20.6015 22.4351 20.7205 22.541 20.8167L24.8709 22.9245L23.2552 26.9979C23.1833 27.1789 23.1733 27.3777 23.2267 27.5647C23.2801 27.7517 23.3941 27.9169 23.5516 28.0355C23.7092 28.1541 23.9018 28.2199 24.1008 28.223C24.2998 28.2261 24.4945 28.1663 24.6559 28.0527L28.8238 25.1178L31.4729 28.5216C31.5494 28.6195 31.6457 28.7012 31.7558 28.7614C31.866 28.8216 31.9876 28.8591 32.1132 28.8717C32.1439 28.8752 32.1747 28.877 32.2055 28.8771C32.4276 28.8769 32.6422 28.7986 32.8099 28.6566L36.4869 25.5399L39.8853 27.1932C40.042 27.2694 40.2177 27.3005 40.3919 27.2829C40.5661 27.2653 40.7315 27.1997 40.8689 27.0939C41.0064 26.988 41.11 26.8461 41.1679 26.6849C41.2257 26.5237 41.2353 26.3497 41.1955 26.1834L40.0966 21.5862H43.995L45.0285 26.187C45.0561 26.3083 45.1088 26.4229 45.1835 26.5236L50.5869 33.7848V43.2257L47.8944 45.8429H36.0274C36.0219 45.8429 36.0172 45.8429 36.0117 45.8429H17.9929C17.9874 45.8429 17.9828 45.8429 17.9773 45.8429H6.10653L3.41497 43.2257V33.7866L8.54158 26.8962H19.2958C19.5405 26.8962 19.7752 26.8013 19.9483 26.6326C20.1213 26.4638 20.2185 26.2349 20.2185 25.9962C20.2185 25.7575 20.1213 25.5286 19.9483 25.3598C19.7752 25.191 19.5405 25.0962 19.2958 25.0962H9.21885L11.5782 14.6301L13.5252 12.9885H27.0032C27.248 12.9885 27.4827 12.8937 27.6557 12.7249C27.8287 12.5561 27.926 12.3272 27.926 12.0885C27.926 11.8498 27.8287 11.6209 27.6557 11.4521C27.4827 11.2833 27.248 11.1885 27.0032 11.1885H13.1819C12.9599 11.1884 12.7453 11.2663 12.5775 11.4081L10.1397 13.4646C9.98948 13.5916 9.88501 13.7622 9.84168 13.9515L8.03501 21.9669H3.77668C3.27979 21.9677 2.78794 22.064 2.32921 22.2502C1.87049 22.4365 1.45387 22.7091 1.10316 23.0524C0.752456 23.3957 0.474524 23.8031 0.285242 24.2512C0.0959606 24.6993 -0.000963044 25.1794 7.21306e-06 25.6641C0.00171497 26.6405 0.400162 27.5765 1.10805 28.267C1.81595 28.9575 2.77557 29.3461 3.77668 29.3478ZM46.3803 23.7687H50.0314C50.4873 23.7532 50.9359 23.8829 51.3094 24.1384C51.6828 24.3938 51.9608 24.761 52.1011 25.1844C52.1753 25.4641 52.1827 25.7566 52.1229 26.0396C52.0631 26.3225 51.9375 26.5883 51.7559 26.8165C51.5743 27.0448 51.3415 27.2294 51.0754 27.3561C50.8092 27.4829 50.5168 27.5484 50.2206 27.5478H48.2257L46.7909 25.62L46.3803 23.7687ZM15.843 52.7H7.85784C7.53652 52.6984 7.22899 52.5725 7.00273 52.3499C6.77647 52.1274 6.64995 51.8264 6.65093 51.5129V47.6429H17.0499V51.5129C17.0509 51.8264 16.9244 52.1274 16.6981 52.3499C16.4719 52.5725 16.1643 52.6984 15.843 52.7ZM46.1459 52.7H38.1598C37.8386 52.6981 37.5313 52.5721 37.3053 52.3496C37.0792 52.1271 36.9528 51.8262 36.9538 51.5129V47.6429H47.3528V51.5129C47.3538 51.8264 47.2273 52.1274 47.001 52.3499C46.7747 52.5725 46.4672 52.6984 46.1459 52.7ZM3.77668 23.7687H7.62624L7.20825 25.62L5.78081 27.5478H3.77668C3.52124 27.5475 3.26841 27.4976 3.03287 27.4012C2.79733 27.3048 2.58377 27.1637 2.4046 26.9862C2.22516 26.8137 2.08317 26.6078 1.9871 26.3806C1.89103 26.1535 1.84285 25.9098 1.84544 25.6641C1.84397 25.163 2.04658 24.6818 2.40873 24.3264C2.77088 23.9709 3.26293 23.7703 3.77668 23.7687Z" fill="black"/>
<path d="M11.8967 32.6535C11.5054 32.4049 11.0629 32.2432 10.6006 32.1797C10.1382 32.1163 9.66717 32.1527 9.22078 32.2863L8.39034 32.5329C7.7338 32.7257 7.15869 33.1202 6.75066 33.6576C6.34264 34.1951 6.12354 34.8467 6.126 35.5155V37.5801C6.12722 38.4068 6.46446 39.1993 7.06379 39.7839C7.66311 40.3684 8.47563 40.6974 9.3232 40.6986H13.7984C14.4878 40.6983 15.1586 40.4808 15.7109 40.0783C16.2632 39.6758 16.6673 39.11 16.863 38.4653C17.0587 37.8205 17.0355 37.1313 16.7968 36.5004C16.5581 35.8696 16.1168 35.3309 15.5386 34.9647L11.8967 32.6535ZM13.8021 38.895H9.32689C8.96917 38.8945 8.62618 38.7559 8.37288 38.5095C8.11959 38.2631 7.97658 37.929 7.97512 37.5801V35.5191C7.97406 35.2364 8.06676 34.9609 8.23938 34.7339C8.41199 34.5068 8.65527 34.3402 8.9329 34.2591L9.76334 34.0125C9.95191 33.9562 10.1508 33.941 10.3461 33.9677C10.5414 33.9944 10.7283 34.0626 10.8937 34.1673L14.5393 36.4758C14.7837 36.6308 14.9701 36.8588 15.0708 37.1256C15.1714 37.3924 15.181 37.6839 15.098 37.9564C15.0149 38.229 14.8438 38.4681 14.6101 38.638C14.3764 38.808 14.0926 38.8997 13.8011 38.8995L13.8021 38.895Z" fill="black"/>
<path d="M44.6801 40.6949C45.527 40.6937 46.339 40.3652 46.9382 39.7814C47.5374 39.1976 47.8751 38.406 47.8773 37.58V35.519C47.8798 34.8501 47.6607 34.1983 47.2524 33.6608C46.8442 33.1233 46.2688 32.7289 45.612 32.5364L44.7816 32.2898C44.3352 32.1563 43.8642 32.12 43.4018 32.1834C42.9395 32.2469 42.497 32.4085 42.1057 32.657L38.4647 34.961C37.8865 35.3272 37.4452 35.8659 37.2065 36.4967C36.9678 37.1276 36.9446 37.8168 37.1403 38.4616C37.336 39.1063 37.7401 39.6721 38.2924 40.0746C38.8447 40.4771 39.5155 40.6946 40.2049 40.6949H44.6801ZM38.8541 37.58C38.8536 37.3602 38.9097 37.1439 39.0172 36.9508C39.1247 36.7577 39.2803 36.594 39.4695 36.4748L43.1152 34.16C43.2806 34.0553 43.4675 33.9871 43.6627 33.9604C43.858 33.9337 44.0569 33.9489 44.2455 34.0052L45.0759 34.2518C45.3536 34.3329 45.5968 34.4995 45.7694 34.7266C45.9421 34.9536 46.0348 35.2291 46.0337 35.5118V37.58C46.0332 37.9295 45.8906 38.2646 45.6372 38.5118C45.3838 38.7589 45.0403 38.898 44.6819 38.8985H40.2068C39.8482 38.8982 39.5045 38.7593 39.2509 38.5121C38.9973 38.2649 38.8546 37.9297 38.8541 37.58Z" fill="black"/>
<path d="M18.9507 36.7339V38.1289C18.9517 38.8092 19.2293 39.4615 19.7226 39.9425C20.2159 40.4235 20.8847 40.694 21.5823 40.6948H32.4242C33.1217 40.694 33.7905 40.4235 34.2838 39.9425C34.7772 39.4615 35.0548 38.8092 35.0557 38.1289V36.7339C35.0548 36.0535 34.7772 35.4013 34.2838 34.9202C33.7905 34.4392 33.1217 34.1687 32.4242 34.168H21.5823C20.8847 34.1687 20.2159 34.4392 19.7226 34.9202C19.2293 35.4013 18.9517 36.0535 18.9507 36.7339Z" fill="#195DFF"/>
<path d="M37.5218 9.30746C37.6314 9.35784 37.7502 9.38665 37.8713 9.39225C37.9923 9.39785 38.1134 9.38013 38.2274 9.34009C38.3415 9.30006 38.4463 9.2385 38.536 9.15893C38.6256 9.07936 38.6983 8.98335 38.7499 8.87636L41.4682 3.24147C41.5297 3.13357 41.5677 3.0145 41.5799 2.89166C41.5922 2.76882 41.5784 2.64483 41.5394 2.52741C41.5005 2.40999 41.4372 2.30163 41.3534 2.20909C41.2697 2.11654 41.1674 2.04178 41.0528 1.98945C40.9382 1.93712 40.8138 1.90834 40.6873 1.90489C40.5608 1.90145 40.435 1.92341 40.3175 1.96943C40.2001 2.01544 40.0937 2.08452 40.0048 2.17236C39.9159 2.26021 39.8465 2.36495 39.8009 2.48007L37.0816 8.11406C36.9787 8.32937 36.9671 8.57567 37.0496 8.79923C37.132 9.02279 37.3018 9.20549 37.5218 9.30746Z" fill="black"/>
<path d="M26.3498 7.00794C26.435 7.0939 26.5368 7.16246 26.6494 7.20963C26.7619 7.2568 26.883 7.28163 27.0055 7.28266C27.128 7.2837 27.2495 7.26093 27.3629 7.21568C27.4763 7.17043 27.5794 7.1036 27.666 7.01909C27.7526 6.93459 27.8211 6.8341 27.8675 6.7235C27.9139 6.61289 27.9373 6.49438 27.9362 6.37488C27.9352 6.25538 27.9097 6.13728 27.8613 6.02748C27.813 5.91767 27.7427 5.81836 27.6546 5.73534L24.6843 2.84004C24.5103 2.6761 24.2772 2.58539 24.0353 2.58744C23.7934 2.58949 23.5619 2.68414 23.3909 2.85101C23.2198 3.01787 23.1227 3.2436 23.1206 3.47958C23.1185 3.71556 23.2115 3.9429 23.3796 4.11264L26.3498 7.00794Z" fill="black"/>
<path d="M44.4423 12.1102C44.687 12.1101 44.9216 12.0153 45.0946 11.8465L48.6932 8.33648C48.851 8.16557 48.9357 7.94222 48.93 7.71229C48.9242 7.48236 48.8285 7.2633 48.6623 7.10009C48.4962 6.93688 48.2723 6.84191 48.0366 6.83467C47.8009 6.82744 47.5713 6.90849 47.395 7.06118L43.7964 10.5712C43.6668 10.6965 43.5783 10.8565 43.5419 11.031C43.5056 11.2054 43.5231 11.3864 43.5922 11.5511C43.6614 11.7159 43.779 11.8569 43.9303 11.9564C44.0816 12.0559 44.2598 12.1094 44.4423 12.1102Z" fill="black"/>
<path d="M33.2958 8.92874C33.5405 8.92874 33.7752 8.83392 33.9482 8.66513C34.1213 8.49635 34.2185 8.26743 34.2185 8.02874V4.71494C34.2185 4.47625 34.1213 4.24733 33.9482 4.07854C33.7752 3.90976 33.5405 3.81494 33.2958 3.81494C33.051 3.81494 32.8163 3.90976 32.6433 4.07854C32.4703 4.24733 32.373 4.47625 32.373 4.71494V8.02874C32.373 8.26743 32.4703 8.49635 32.6433 8.66513C32.8163 8.83392 33.051 8.92874 33.2958 8.92874Z" fill="black"/>
<path d="M33.2962 2.7644C33.541 2.7644 33.7757 2.66958 33.9487 2.50079C34.1218 2.33201 34.219 2.10309 34.219 1.8644V1.4C34.219 1.1613 34.1218 0.932386 33.9487 0.763604C33.7757 0.594821 33.541 0.5 33.2962 0.5C33.0515 0.5 32.8168 0.594821 32.6438 0.763604C32.4707 0.932386 32.3735 1.1613 32.3735 1.4V1.8644C32.3735 2.10309 32.4707 2.33201 32.6438 2.50079C32.8168 2.66958 33.0515 2.7644 33.2962 2.7644Z" fill="black"/>
<path d="M33.2297 17.8485C33.4149 17.8486 33.5959 17.7944 33.7491 17.6928L35.1987 16.7271C35.3007 16.6613 35.3882 16.5763 35.4562 16.4772C35.5242 16.3781 35.5713 16.2669 35.5948 16.1498C35.6183 16.0328 35.6178 15.9124 35.5932 15.7956C35.5686 15.6788 35.5205 15.568 35.4516 15.4695C35.3827 15.371 35.2944 15.2868 35.1919 15.2219C35.0894 15.1569 34.9746 15.1125 34.8543 15.0912C34.7341 15.0698 34.6106 15.072 34.4912 15.0976C34.3718 15.1232 34.2589 15.1717 34.1588 15.2403L32.7092 16.2051C32.5464 16.3135 32.4234 16.47 32.3583 16.6516C32.2932 16.8332 32.2895 17.0303 32.3477 17.2141C32.4059 17.3979 32.523 17.5586 32.6817 17.6728C32.8404 17.787 33.0325 17.8485 33.2297 17.8485Z" fill="black"/>
</svg>
