<svg width="60" height="55" viewBox="0 0 60 55" fill="none" xmlns="http://www.w3.org/2000/svg">
<g clip-path="url(#clip0_396_364)">
<path d="M58.0697 27.5185C57.709 23.4287 55.9475 19.5863 53.0802 16.6352C50.2129 13.6841 46.4139 11.8034 42.3197 11.3082C41.3415 11.2077 40.3567 11.1859 39.375 11.2429V3.73309C39.3735 2.49599 38.8792 1.30999 38.0004 0.435228C37.1217 -0.439532 35.9302 -0.931624 34.6875 -0.933105H8.4375C7.19475 -0.931624 6.00334 -0.439532 5.12458 0.435228C4.24583 1.30999 3.75149 2.49599 3.75 3.73309V50.395C3.75149 51.6321 4.24583 52.8181 5.12458 53.6929C6.00334 54.5676 7.19475 55.0597 8.4375 55.0612H51.5625C51.8111 55.0612 52.0496 54.9629 52.2254 54.7879C52.4012 54.6129 52.5 54.3755 52.5 54.128V41.8568C54.456 40.0408 55.9732 37.8073 56.9379 35.324C57.9025 32.8407 58.2895 30.1721 58.0697 27.5185ZM15 0.933372H28.125V1.86661C28.125 2.11412 28.0262 2.35149 27.8504 2.52651C27.6746 2.70153 27.4361 2.79985 27.1875 2.79985H15.9375C15.6889 2.79985 15.4504 2.70153 15.2746 2.52651C15.0988 2.35149 15 2.11412 15 1.86661V0.933372ZM5.625 50.395V3.73309C5.625 2.99056 5.92132 2.27844 6.44876 1.75339C6.97621 1.22834 7.69158 0.933372 8.4375 0.933372H13.125V1.86661C13.125 2.60914 13.4213 3.32126 13.9488 3.84631C14.4762 4.37136 15.1916 4.66633 15.9375 4.66633H27.1875C27.9334 4.66633 28.6488 4.37136 29.1762 3.84631C29.7037 3.32126 30 2.60914 30 1.86661V0.933372H34.6875C35.4334 0.933372 36.1488 1.22834 36.6762 1.75339C37.2037 2.27844 37.5 2.99056 37.5 3.73309V11.4342C34.1205 11.9562 30.9674 13.4481 28.4269 15.7271C26.6053 17.3538 25.1391 19.336 24.1195 21.5505C23.1 23.765 22.5487 26.1646 22.5 28.6002L16.4213 36.1594C16.1992 36.4341 16.0598 36.7658 16.0192 37.1161C15.9787 37.4663 16.0386 37.8209 16.1922 38.1387C16.3457 38.4564 16.5865 38.7244 16.8867 38.9116C17.1869 39.0987 17.5342 39.1974 17.8884 39.1962H20.625V44.7956C20.6265 46.0327 21.1208 47.2187 21.9996 48.0934C22.8783 48.9682 24.0698 49.4603 25.3125 49.4618H30V53.1947H8.4375C7.69158 53.1947 6.97621 52.8998 6.44876 52.3747C5.92132 51.8497 5.625 51.1376 5.625 50.395ZM50.9381 40.75C50.8397 40.8374 50.761 40.9446 50.707 41.0644C50.6531 41.1842 50.6251 41.314 50.625 41.4453V53.1947H31.875V48.5285C31.875 48.281 31.7762 48.0437 31.6004 47.8686C31.4246 47.6936 31.1861 47.5953 30.9375 47.5953H25.3125C24.5666 47.5953 23.8512 47.3003 23.3238 46.7753C22.7963 46.2502 22.5 45.5381 22.5 44.7956V38.2629C22.5 38.0154 22.4012 37.778 22.2254 37.603C22.0496 37.428 21.8111 37.3297 21.5625 37.3297H17.8884L24.1697 29.5138C24.3027 29.3482 24.3751 29.1425 24.375 28.9305C24.3741 26.284 25.0384 23.6792 26.3073 21.3535C27.5762 19.0278 29.4094 17.0551 31.64 15.6149C33.8706 14.1748 36.4276 13.313 39.0783 13.108C41.729 12.9031 44.389 13.3615 46.8162 14.4415C49.2435 15.5215 51.3607 17.1888 52.9751 19.2915C54.5896 21.3943 55.6499 23.8657 56.0596 26.4806C56.4693 29.0956 56.2154 31.771 55.3208 34.2633C54.4263 36.7556 52.9197 38.9855 50.9381 40.75Z" fill="black"/>
<path d="M49.95 22.6709L48.3497 24.2639H46.875V23.3307C46.875 23.0831 46.7762 22.8458 46.6004 22.6708C46.4246 22.4957 46.1861 22.3974 45.9375 22.3974H45V20.9201L46.6003 19.3271C46.6877 19.2401 46.757 19.1368 46.8041 19.0231C46.8513 18.9093 46.8753 18.7875 46.875 18.6645V15.8647H45V18.2809L43.3997 19.8777C43.2255 20.051 43.1268 20.2857 43.125 20.5309V22.3974H41.25V15.8647H39.375V22.3974H37.5V20.5599C37.4999 20.3124 37.4011 20.075 37.2253 19.9001L35.625 18.307V15.8647H33.75V18.6934C33.7501 18.9409 33.8489 19.1782 34.0247 19.3532L35.625 20.9462V22.3974H34.6875C34.4389 22.3974 34.2004 22.4957 34.0246 22.6708C33.8488 22.8458 33.75 23.0831 33.75 23.3307V24.2639H32.2753L30.675 22.6709C30.4992 22.4958 30.2608 22.3975 30.0122 22.3974H27.1875V24.2639H29.625L31.2253 25.8569C31.4011 26.032 31.6395 26.1303 31.8881 26.1304H33.75V27.9968H27.1875V29.8633H33.75V31.7298H31.8872C31.6386 31.7299 31.4001 31.8282 31.2244 32.0032L29.625 33.5963H27.1875V35.4628H30.0122C30.2608 35.4627 30.4992 35.3643 30.675 35.1893L32.2753 33.5963H33.75V34.5295C33.75 34.777 33.8488 35.0144 34.0246 35.1894C34.2004 35.3644 34.4389 35.4628 34.6875 35.4628H35.625V36.9139L34.0247 38.507C33.8489 38.682 33.7501 38.9193 33.75 39.1668V41.9954H35.625V39.5531L37.2253 37.9601C37.4011 37.7851 37.4999 37.5478 37.5 37.3003V35.4628H39.375V41.9954H41.25V35.4628H43.125V37.3292C43.1251 37.5767 43.2239 37.8141 43.3997 37.989L45 39.5793V41.9954H46.875V39.1957C46.8749 38.9482 46.7761 38.7109 46.6003 38.5359L45 36.9401V35.4628H45.9375C46.1861 35.4628 46.4246 35.3644 46.6004 35.1894C46.7762 35.0144 46.875 34.777 46.875 34.5295V33.5963H48.3497L49.95 35.1893C50.1258 35.3643 50.3642 35.4627 50.6128 35.4628H53.4375V33.5963H51L49.3997 32.0032C49.2241 31.8284 48.9861 31.7301 48.7378 31.7298H46.875V29.8633H53.4375V27.9968H46.875V26.1304H48.7378C48.9864 26.1303 49.2249 26.032 49.4006 25.8569L51 24.2639H53.4375V22.3974H50.6128C50.3642 22.3975 50.1258 22.4958 49.95 22.6709ZM45 33.5963H35.625V24.2639H45V33.5963Z" fill="black"/>
<rect x="35" y="24" width="11" height="10" fill="#195DFF"/>
</g>
<defs>
<clipPath id="clip0_396_364">
<rect width="60" height="55" fill="white"/>
</clipPath>
</defs>
</svg>
