<svg xmlns="http://www.w3.org/2000/svg" width="164" height="165" fill="none" viewBox="0 0 164 165">
    <path stroke="#212121" stroke-linecap="round" stroke-linejoin="round" stroke-miterlimit="10" d="M80.236 112.521v-6.754l5.53 3.377-5.53 3.377z"/>
    <path stroke="#212121" stroke-miterlimit="10" d="M82.199 116.288c3.976 0 7.199-3.198 7.199-7.144S86.175 102 82.198 102c-3.975 0-7.198 3.198-7.198 7.144s3.223 7.144 7.199 7.144z"/>
    <path stroke="#D4D4D4" stroke-linecap="round" stroke-linejoin="round" d="M145.315 130.43H16.685c-3.95 0-7.11-3.207-7.11-7.056V40.626c0-3.92 3.232-7.056 7.11-7.056h128.63c3.95 0 7.11 3.208 7.11 7.056v82.748c0 3.92-3.16 7.056-7.11 7.056z"/>
    <path stroke="#000" stroke-linecap="round" stroke-linejoin="round" d="M144.884 126.866H17.044c-2.155 0-3.95-1.782-3.95-3.92V40.983c0-2.139 1.795-3.92 3.95-3.92h127.84c2.155 0 3.95 1.781 3.95 3.92v81.963c0 2.21-1.723 3.92-3.95 3.92z"/>
    <path stroke="#D4D4D4" stroke-linecap="round" stroke-linejoin="round" d="M105.013 90.285c3.826 0 6.928-3.121 6.928-6.972 0-3.85-3.102-6.972-6.928-6.972s-6.927 3.121-6.927 6.972c0 3.85 3.101 6.972 6.927 6.972zM53.145 90.285c3.826 0 6.927-3.121 6.927-6.972 0-3.85-3.101-6.972-6.927-6.972-3.826 0-6.928 3.121-6.928 6.972 0 3.85 3.102 6.972 6.928 6.972z"/>
    <path stroke="#D4D4D4" stroke-linecap="round" stroke-linejoin="round" d="M46.217 84.564h-4.44c-.356 0-.889-.357-.889-.894v-5.72c0-2.682.71-5.185 4.263-6.972 3.73-1.61 10.836-3.04 15.454-3.04h40.145l4.263-3.932s3.375 1.072 5.507 2.681l9.592 1.61v9.474c0 3.039 0 3.754-2.309 5.005-2.31 1.252-6.04 1.788-6.04 1.788"/>
    <path stroke="#D4D4D4" stroke-linecap="round" stroke-linejoin="round" d="M59.184 67.939s11.369-8.045 25.58-8.045c11.723 0 20.427 4.112 20.427 4.112M84.763 59.894v24.67M79.079 72.23h-5.507M114.605 72.23h5.507M60.072 84.564h38.191"/>
</svg>
