<svg width="100" height="100" viewBox="0 0 100 100" fill="none" xmlns="http://www.w3.org/2000/svg">
<path d="M88.5922 46.8134C88.5922 69.8873 69.8871 88.5924 46.8133 88.5924C23.7394 88.5924 5.0343 69.8873 5.0343 46.8134C5.0343 23.7395 23.7394 5.03442 46.8133 5.03442C69.8871 5.03442 88.5922 23.7395 88.5922 46.8134Z" stroke="black" stroke-width="3"/>
<path d="M77.2688 77.2688L97.5725 97.5725" stroke="black" stroke-width="3" stroke-miterlimit="10"/>
<path d="M59.0582 61.7739H28.8271C26.7137 61.7739 25.0597 60.028 25.0597 58.0065V36.6885C25.0597 34.5751 26.8056 32.9211 28.8271 32.9211H59.0582C61.1716 32.9211 62.8256 34.667 62.8256 36.6885V58.0065C62.8256 60.1199 61.1716 61.7739 59.0582 61.7739Z" stroke="black" stroke-width="3" stroke-miterlimit="10" stroke-linejoin="round"/>
<path d="M62.8256 41.8344L72.8413 36.2292V55.1581L62.8256 50.9313V41.8344Z" stroke="black" stroke-width="3" stroke-miterlimit="10" stroke-linejoin="round"/>
</svg>
