<svg xmlns="http://www.w3.org/2000/svg" width="120" height="120" fill="none" viewBox="0 0 120 120">
    <g stroke-miterlimit="10" stroke-width="3" clip-path="url(#clip0)">
        <path stroke="#D6D6D6" d="M81.177 79.104H42.353c-5.042 0-9.58-4.076-9.58-9.68 0-5.094 4.034-9.679 9.58-9.679h38.824c5.041 0 9.58 4.076 9.58 9.68 0 5.094-4.538 9.679-9.58 9.679z"/>
        <path stroke="#565656" d="M45 65.559V73.5M48.947 69.53h-7.894M60 69.934h7.563M75.126 69.934h6.555"/>
        <path stroke="#D6D6D6" d="M81.177 98.747H42.353c-5.042 0-9.58-4.076-9.58-9.68 0-5.094 4.034-9.678 9.58-9.678h38.824c5.041 0 9.58 4.075 9.58 9.679 0 5.603-4.538 9.679-9.58 9.679z"/>
        <path stroke="#565656" d="M45.79 85.412v7.94M49.737 89.382h-7.895M60 90.087h7.563M75.126 90.087h6.555M96.302 97.443c12.101-3.566 21.681-14.773 21.681-28.019 0-14.773-12.101-27-26.723-28.528-6.05-11.717-18.15-19.358-31.764-19.358-17.143 0-31.765 12.226-35.294 29.037C11.597 51.596 1.008 61.783 1.008 74.52c0 12.226 10.084 22.415 22.185 23.943"/>
    </g>
    <defs>
        <clipPath id="clip0">
            <path fill="#fff" d="M0 0H120V81H0z" transform="translate(0 19.5)"/>
        </clipPath>
    </defs>
</svg>
